<svg xmlns="http://www.w3.org/2000/svg" xmlns:xlink="http://www.w3.org/1999/xlink" width="2000" zoomAndPan="magnify" viewBox="0 0 1500 1124.99995" height="1500" preserveAspectRatio="xMidYMid meet" version="1.2"><defs><clipPath id="89a90fdbf1"><path d="M 412.683594 288.007812 L 1087.683594 288.007812 L 1087.683594 837.007812 L 412.683594 837.007812 Z M 412.683594 288.007812 "/></clipPath></defs><g id="186bcdf807"><g clip-rule="nonzero" clip-path="url(#89a90fdbf1)"><path style=" stroke:none;fill-rule:nonzero;fill:#000000;fill-opacity:1;" d="M 810.332031 743.546875 L 794.566406 831.804688 L 713.761719 741.070312 L 625.414062 831.035156 L 650.296875 721.101562 L 525.636719 762.621094 L 596.664062 666.808594 L 412.722656 687.835938 L 571.09375 595.808594 L 483.828125 565.128906 L 565.011719 531.277344 L 480.632812 458.566406 L 613.398438 452.601562 L 570.292969 370.132812 L 674.066406 378.398438 L 686.558594 288.042969 L 746.273438 371.601562 L 831.691406 304.421875 L 819.09375 374.515625 L 925.644531 353.5 L 890.714844 424.191406 L 1067.046875 389.679688 L 981.578125 477.28125 L 1087.695312 533.722656 L 974.960938 552.890625 L 1055.828125 631.34375 L 953.410156 624.011719 L 992.898438 681.367188 L 927.421875 671.683594 L 1015.898438 777.992188 L 880.433594 737.089844 L 877.875 837.019531 Z M 810.332031 743.546875 "/></g><path style=" stroke:none;fill-rule:nonzero;fill:#ff1900;fill-opacity:1;" d="M 714.492188 711.109375 L 661.289062 765.285156 L 678.28125 690.207031 L 580.710938 722.703125 L 641.191406 641.117188 L 507.578125 656.390625 L 619.742188 591.214844 L 540.914062 563.503906 L 603.488281 537.410156 L 533.035156 476.699219 L 646.433594 471.601562 L 605.597656 393.476562 L 691.707031 400.332031 L 699.800781 341.785156 L 742.078125 400.941406 L 802.011719 353.804688 L 793.640625 400.398438 L 888.917969 381.605469 L 854.027344 452.226562 L 1006.546875 422.375 L 947.855469 482.53125 L 1025.085938 523.605469 L 931.738281 539.480469 L 1001.253906 606.917969 L 912.40625 600.558594 L 949.363281 654.238281 L 877.410156 643.597656 L 956.554688 738.691406 L 860.648438 709.734375 L 858.957031 775.882812 L 798.664062 692.4375 L 781.820312 786.710938 Z M 714.492188 711.109375 "/><path style=" stroke:none;fill-rule:nonzero;fill:#ffaa00;fill-opacity:1;" d="M 715.074219 687.140625 L 689.988281 712.683594 L 700.671875 665.488281 L 624.769531 690.769531 L 676.8125 620.566406 L 583.460938 631.238281 L 658.65625 587.542969 L 586.582031 562.203125 L 634.269531 542.316406 L 574.953125 491.203125 L 672.859375 486.804688 L 633.839844 412.148438 L 705.816406 417.882812 L 710.394531 384.777344 L 738.722656 424.417969 L 778.269531 393.3125 L 773.277344 421.105469 L 859.539062 404.089844 L 824.675781 474.652344 L 958.144531 448.53125 L 920.878906 486.730469 L 975 515.515625 L 897.160156 528.75 L 957.589844 587.378906 L 879.601562 581.796875 L 914.539062 632.539062 L 837.402344 621.128906 L 909.082031 707.253906 L 844.824219 687.851562 L 843.820312 726.972656 L 789.324219 651.554688 L 771.625 750.636719 Z M 715.074219 687.140625 "/><path style=" stroke:none;fill-rule:nonzero;fill:#000000;fill-opacity:1;" d="M 961.292969 562.003906 L 960.140625 547.070312 L 958.429688 561.859375 L 961.292969 562 Z M 956.359375 498.085938 L 954.128906 469.207031 L 1031.378906 469.207031 L 1029.550781 491.324219 L 1050.390625 491.324219 L 1039.089844 627.941406 L 1037.160156 627.941406 C 1039.382812 632.039062 1040.648438 636.726562 1040.648438 641.714844 C 1040.648438 657.671875 1027.695312 670.617188 1011.730469 670.617188 C 997.542969 670.617188 985.738281 660.398438 983.28125 646.925781 C 982.613281 646.695312 981.953125 646.4375 981.304688 646.160156 L 980.015625 660.589844 L 878.886719 650.71875 L 880.726562 632.523438 C 875.90625 639.003906 869.84375 644.761719 862.375 649.503906 C 848.867188 658.089844 833.023438 661.585938 817.125 660.785156 C 789.300781 659.390625 768.390625 644.730469 756.546875 623.800781 C 753.066406 621.113281 749.859375 618.117188 746.945312 614.851562 C 741.445312 623.554688 733.992188 631.152344 724.261719 637.027344 C 710.59375 645.289062 694.617188 648.4375 678.773438 647.28125 C 656.835938 645.679688 639.390625 635.917969 627.429688 621.449219 L 633.070312 657.125 L 625.671875 661.066406 C 615.828125 666.316406 602.3125 670.265625 591.421875 671.933594 C 566.730469 675.71875 542.699219 670.484375 524.246094 652.867188 C 519.253906 648.101562 515.125 642.488281 511.816406 636.339844 C 509.558594 634.636719 507.355469 632.777344 505.234375 630.75 C 485.25 611.671875 479.171875 579.085938 483.6875 552.707031 C 485.421875 542.570312 488.757812 532.679688 493.828125 523.714844 C 511.96875 491.648438 545.367188 481.542969 580.417969 486.097656 L 588.914062 487.199219 L 592.695312 507.519531 C 594.304688 507.640625 595.925781 507.800781 597.550781 507.988281 C 603.933594 493.632812 614.304688 481.453125 628.539062 473.0625 C 647.347656 461.976562 670.78125 459.175781 691.5625 466.035156 C 709.222656 471.859375 722.382812 483.488281 730.570312 498.503906 C 734.488281 501.445312 738.03125 504.769531 741.179688 508.429688 C 746.933594 500.132812 754.363281 492.949219 763.449219 487.3125 C 782 475.808594 805.363281 472.476562 826.292969 478.859375 C 844.621094 484.449219 858.3125 496.300781 866.789062 511.796875 C 868.359375 512.972656 869.867188 514.207031 871.3125 515.507812 L 875.910156 470.0625 L 946.679688 476.867188 L 944.363281 496.929688 Z M 956.359375 498.085938 "/><path style=" stroke:none;fill-rule:nonzero;fill:#fff000;fill-opacity:1;" d="M 578.898438 497.769531 L 587.105469 541.882812 C 587.105469 541.882812 566.972656 542.382812 555.550781 549.300781 C 544.125 556.210938 545.777344 578 565.078125 581.023438 C 584.378906 584.050781 593.121094 578.027344 593.121094 578.027344 L 601.121094 628.558594 C 601.121094 628.558594 549.070312 656.304688 513.375 622.230469 C 477.683594 588.160156 486.917969 485.816406 578.898438 497.769531 Z M 578.898438 497.769531 "/><path style=" stroke:none;fill-rule:nonzero;fill:#fff000;fill-opacity:1;" d="M 727.996094 528.824219 C 718.289062 452.683594 612.183594 457.316406 602.425781 534.238281 C 597.367188 574.101562 619.828125 610.441406 660.621094 613.417969 C 701.417969 616.394531 735.335938 586.386719 727.996094 528.824219 Z M 664.503906 558.601562 C 655.777344 557.960938 650.972656 550.1875 652.050781 541.664062 C 654.144531 525.207031 676.84375 524.214844 678.917969 540.503906 C 680.488281 552.816406 673.234375 559.234375 664.503906 558.601562 Z M 664.503906 558.601562 "/><path style=" stroke:none;fill-rule:nonzero;fill:#fff000;fill-opacity:1;" d="M 864.140625 540.8125 C 852.707031 464.910156 746.726562 471.949219 738.722656 549.074219 C 734.570312 589.042969 757.851562 624.863281 798.703125 626.914062 C 839.554688 628.960938 872.78125 598.191406 864.140625 540.8125 Z M 801.339844 572.019531 C 792.597656 571.582031 787.621094 563.917969 788.503906 555.367188 C 790.214844 538.867188 812.886719 537.363281 815.335938 553.601562 C 817.1875 565.878906 810.078125 572.460938 801.339844 572.019531 Z M 801.339844 572.019531 "/><path style=" stroke:none;fill-rule:nonzero;fill:#fff000;fill-opacity:1;" d="M 886.449219 482.902344 L 933.601562 487.429688 L 923.847656 571.933594 L 955.003906 573.46875 L 950.335938 625.601562 L 872.785156 618.027344 Z M 886.449219 482.902344 "/><path style=" stroke:none;fill-rule:nonzero;fill:#fff000;fill-opacity:1;" d="M 975.578125 594.046875 L 1009.238281 594.046875 L 1018.589844 480.972656 L 966.851562 480.972656 Z M 992.722656 602.457031 C 1002.1875 602.457031 1009.863281 610.125 1009.863281 619.585938 C 1009.863281 629.050781 1002.1875 636.71875 992.722656 636.71875 C 983.253906 636.71875 975.578125 629.050781 975.578125 619.585938 C 975.578125 610.125 983.253906 602.457031 992.722656 602.457031 Z M 992.722656 602.457031 "/></g></svg>