<svg xmlns="http://www.w3.org/2000/svg" xmlns:xlink="http://www.w3.org/1999/xlink" width="2000" zoomAndPan="magnify" viewBox="0 0 1500 1124.99995" height="1500" preserveAspectRatio="xMidYMid meet" version="1.2"><defs><clipPath id="1e76c168e2"><path d="M 465 267.410156 L 1079 267.410156 L 1079 781 L 465 781 Z M 465 267.410156 "/></clipPath><clipPath id="7e5d21ea19"><path d="M 1006 527 L 1091.191406 527 L 1091.191406 538 L 1006 538 Z M 1006 527 "/></clipPath><clipPath id="81c1c93259"><path d="M 408.691406 435 L 494 435 L 494 457 L 408.691406 457 Z M 408.691406 435 "/></clipPath><clipPath id="926f36ab6a"><path d="M 492 317 L 1036 317 L 1036 857.660156 L 492 857.660156 Z M 492 317 "/></clipPath></defs><g id="ac8cc2e69e"><path style=" stroke:none;fill-rule:nonzero;fill:#ffdb2c;fill-opacity:1;" d="M 1053.425781 426.277344 C 1046.152344 427.066406 1045.5625 427.65625 1044.582031 434.535156 C 1043.796875 427.65625 1043.007812 427.066406 1035.738281 426.277344 C 1043.007812 425.492188 1043.597656 424.902344 1044.582031 418.019531 C 1045.5625 424.902344 1046.152344 425.492188 1053.425781 426.277344 Z M 687.238281 345.074219 C 679.964844 345.859375 679.378906 346.449219 678.394531 353.332031 C 677.609375 346.449219 676.820312 345.859375 669.550781 345.074219 C 676.820312 344.289062 677.410156 343.699219 678.394531 336.816406 C 679.378906 343.699219 679.964844 344.289062 687.238281 345.074219 Z M 465.324219 534.417969 C 464.539062 541.300781 463.753906 541.890625 456.480469 542.675781 C 463.753906 543.464844 464.34375 544.054688 465.324219 550.933594 C 466.113281 544.054688 466.898438 543.464844 474.171875 542.675781 C 466.703125 541.890625 466.113281 541.300781 465.324219 534.417969 Z M 941.386719 283.925781 C 936.867188 298.082031 933.328125 301.820312 919.175781 306.144531 C 933.328125 310.667969 937.0625 314.207031 941.386719 328.363281 C 945.910156 314.207031 949.449219 310.46875 963.601562 306.144531 C 949.449219 301.621094 945.910156 298.082031 941.386719 283.925781 Z M 1038.683594 634.496094 C 1036.523438 641.574219 1034.753906 643.34375 1027.480469 645.703125 C 1034.558594 647.867188 1036.324219 649.636719 1038.683594 656.914062 C 1040.847656 649.832031 1042.617188 648.0625 1049.886719 645.703125 C 1042.617188 643.34375 1040.847656 641.574219 1038.683594 634.496094 Z M 567.730469 354.117188 C 565.570312 361.199219 563.800781 362.96875 556.527344 365.328125 C 563.605469 367.488281 565.375 369.257812 567.730469 376.535156 C 569.894531 369.457031 571.664062 367.6875 578.9375 365.328125 C 571.859375 362.96875 569.894531 361.199219 567.730469 354.117188 Z M 700.800781 779.40625 C 696.28125 793.5625 692.742188 797.296875 678.589844 801.625 C 692.742188 806.144531 696.476562 809.683594 700.800781 823.839844 C 705.324219 809.683594 708.859375 805.949219 723.011719 801.625 C 708.664062 797.296875 705.125 793.5625 700.800781 779.40625 Z M 700.800781 779.40625 "/><g clip-rule="nonzero" clip-path="url(#1e76c168e2)"><path style=" stroke:none;fill-rule:nonzero;fill:#42b7ac;fill-opacity:1;" d="M 1078.585938 391.871094 C 1071.3125 392.65625 1070.722656 393.246094 1069.742188 400.128906 C 1068.953125 393.246094 1068.167969 392.65625 1060.894531 391.871094 C 1068.167969 391.082031 1068.757812 390.492188 1069.742188 383.613281 C 1070.722656 390.492188 1071.511719 391.28125 1078.585938 391.871094 Z M 795.148438 340.75 C 784.140625 341.929688 783.160156 342.910156 781.785156 353.332031 C 780.605469 342.910156 779.425781 341.929688 768.417969 340.75 C 779.425781 339.570312 780.40625 338.585938 781.785156 328.164062 C 782.964844 338.585938 783.945312 339.570312 795.148438 340.75 Z M 852.542969 763.871094 C 851.757812 770.753906 850.972656 771.34375 843.699219 772.132812 C 850.972656 772.917969 851.5625 773.507812 852.542969 780.390625 C 853.332031 773.507812 854.117188 772.917969 861.390625 772.132812 C 854.117188 771.34375 853.332031 770.558594 852.542969 763.871094 Z M 963.601562 267.410156 C 962.8125 274.292969 962.027344 274.882812 954.753906 275.667969 C 962.027344 276.453125 962.617188 277.042969 963.601562 283.925781 C 964.386719 277.042969 965.171875 276.453125 972.445312 275.667969 C 965.171875 274.882812 964.582031 274.292969 963.601562 267.410156 Z M 513.285156 437.289062 C 511.125 444.367188 509.355469 446.136719 502.082031 448.496094 C 509.15625 450.660156 510.925781 452.429688 513.285156 459.703125 C 515.449219 452.625 517.21875 450.855469 524.488281 448.496094 C 517.21875 446.136719 515.449219 444.367188 513.285156 437.289062 Z M 1035.539062 318.53125 C 1033.378906 325.609375 1031.609375 327.378906 1024.335938 329.738281 C 1031.410156 331.902344 1033.179688 333.671875 1035.539062 340.945312 C 1037.703125 333.867188 1039.472656 332.097656 1046.742188 329.738281 C 1039.667969 327.378906 1037.898438 325.609375 1035.539062 318.53125 Z M 476.332031 696.039062 C 474.171875 703.117188 472.402344 704.886719 465.128906 707.246094 C 472.203125 709.410156 473.972656 711.179688 476.332031 718.453125 C 478.496094 711.375 480.265625 709.605469 487.535156 707.246094 C 480.460938 704.886719 478.691406 703.117188 476.332031 696.039062 Z M 597.019531 372.40625 C 592.5 386.5625 588.960938 390.296875 574.808594 394.621094 C 588.960938 399.144531 592.695312 402.683594 597.019531 416.839844 C 601.539062 402.683594 605.078125 398.949219 619.230469 394.621094 C 605.078125 390.101562 601.539062 386.5625 597.019531 372.40625 Z M 1016.472656 665.171875 C 1011.953125 679.328125 1008.414062 683.0625 994.261719 687.386719 C 1008.414062 691.910156 1012.148438 695.449219 1016.472656 709.605469 C 1020.996094 695.449219 1024.53125 691.714844 1038.683594 687.386719 C 1024.335938 682.867188 1020.796875 679.328125 1016.472656 665.171875 Z M 1016.472656 665.171875 "/></g><path style=" stroke:none;fill-rule:nonzero;fill:#42b7ac;fill-opacity:1;" d="M 1049.691406 598.910156 C 943.355469 608.152344 909.152344 617.195312 984.828125 662.417969 C 891.660156 647.082031 903.257812 680.507812 967.726562 751.484375 C 875.542969 702.332031 844.484375 684.4375 875.738281 750.894531 C 811.855469 698.203125 803.996094 733.199219 813.625 818.53125 C 769.203125 739.886719 748.761719 710.394531 730.679688 779.011719 C 712.59375 710.394531 691.957031 739.886719 647.730469 818.53125 C 657.363281 733.398438 649.5 698.203125 585.617188 750.894531 C 616.871094 684.4375 585.816406 702.332031 493.628906 751.484375 C 558.101562 680.507812 569.5 647.082031 476.53125 662.417969 C 552.203125 617 518.003906 607.953125 411.664062 598.910156 C 518.003906 570.988281 555.9375 560.371094 494.21875 523.800781 C 586.207031 524.585938 582.277344 486.445312 537.460938 421.953125 C 619.625 459.703125 655.199219 475.039062 648.515625 410.941406 C 696.476562 455.179688 706.699219 417.628906 726.355469 330.917969 C 750.726562 405.238281 777.65625 432.570312 832.496094 362.179688 C 817.164062 432.570312 838.589844 405.042969 913.085938 328.558594 C 868.859375 416.25 864.925781 451.050781 948.070312 407.402344 C 886.550781 474.648438 920.945312 472.878906 1025.320312 445.742188 C 932.9375 503.351562 906.597656 527.535156 997.996094 529.109375 C 911.117188 560.175781 943.355469 574.726562 1049.691406 598.910156 Z M 1049.691406 598.910156 "/><path style=" stroke:none;fill-rule:nonzero;fill:#ffdb2c;fill-opacity:1;" d="M 655.988281 791.988281 C 658.542969 756.402344 655.59375 736.9375 646.945312 727.105469 C 642.816406 722.582031 637.511719 720.222656 631.023438 720.222656 C 622.570312 720.222656 612.351562 724.351562 599.378906 733.003906 C 603.898438 720.421875 604.09375 712.554688 600.949219 707.441406 C 599.378906 704.886719 595.839844 701.742188 589.15625 701.742188 C 576.773438 701.742188 554.367188 712.753906 518.984375 731.429688 C 545.71875 698.988281 553.972656 680.113281 548.273438 667.136719 C 543.949219 657.503906 532.546875 652.980469 513.285156 652.980469 C 509.550781 652.980469 505.421875 653.175781 501.097656 653.570312 C 518.394531 640.984375 524.882812 631.351562 522.71875 622.308594 C 519.378906 607.953125 495.59375 601.664062 444.882812 596.355469 C 501.296875 581.015625 527.042969 571.382812 529.402344 555.261719 C 530.582031 547.003906 525.472656 538.941406 512.890625 529.503906 C 544.144531 527.535156 562.621094 519.867188 570.089844 505.320312 C 578.148438 489.785156 573.039062 468.15625 553.382812 436.109375 C 587.78125 451.640625 610.777344 460.882812 627.289062 460.882812 C 635.742188 460.882812 642.425781 458.328125 647.140625 453.019531 C 652.449219 447.121094 655.003906 437.878906 655.003906 424.507812 C 665.027344 432.175781 673.675781 435.714844 681.34375 435.714844 C 705.519531 435.714844 715.542969 403.273438 727.335938 352.347656 C 738.933594 382.824219 754.265625 409.171875 778.050781 409.171875 C 791.613281 409.171875 805.960938 400.71875 822.472656 383.21875 C 820.898438 395.015625 821.683594 401.503906 824.828125 405.4375 C 826.796875 407.796875 829.351562 408.976562 832.496094 408.976562 C 842.324219 408.976562 856.082031 396 891.855469 358.839844 C 876.132812 394.230469 872.59375 413.5 879.078125 424.117188 C 881.4375 427.851562 886.15625 432.375 896.179688 432.375 C 903.648438 432.375 913.28125 430.015625 925.664062 424.707031 C 913.085938 441.222656 909.351562 451.839844 912.691406 459.507812 C 917.015625 469.335938 930.773438 469.335938 935.296875 469.335938 C 948.269531 469.335938 967.335938 465.996094 991.511719 460.292969 C 945.125 490.769531 932.148438 504.925781 935.6875 517.507812 C 938.046875 526.355469 948.660156 531.273438 970.871094 533.632812 C 950.234375 543.265625 941.585938 551.523438 942.175781 560.765625 C 942.960938 573.742188 960.652344 583.179688 1013.917969 596.746094 C 964.976562 602.054688 941.78125 608.347656 938.441406 622.503906 C 936.277344 631.546875 942.765625 641.183594 960.0625 653.765625 C 955.738281 653.375 951.609375 653.175781 947.875 653.175781 C 928.613281 653.175781 917.015625 657.894531 912.886719 667.332031 C 907.1875 680.308594 915.441406 699.183594 942.175781 731.628906 C 906.792969 712.949219 884.386719 701.9375 872.003906 701.9375 C 865.125 701.9375 861.78125 705.082031 860.210938 707.640625 C 856.867188 712.753906 857.261719 720.421875 861.78125 733.199219 C 848.808594 724.550781 838.589844 720.421875 830.136719 720.421875 C 823.652344 720.421875 818.34375 722.78125 814.214844 727.300781 C 805.566406 736.9375 802.816406 756.402344 805.175781 792.1875 C 781.585938 752.074219 768.023438 734.96875 753.871094 734.96875 C 742.863281 734.96875 735.789062 745.785156 730.480469 759.546875 C 725.175781 745.785156 718.097656 734.96875 707.089844 734.96875 C 693.332031 734.773438 679.574219 751.878906 655.988281 791.988281 Z M 655.988281 791.988281 "/><path style=" stroke:none;fill-rule:nonzero;fill:#42b7ac;fill-opacity:1;" d="M 1007.628906 534.8125 L 1075.441406 484.476562 L 1081.925781 493.128906 Z M 1007.628906 534.8125 "/><path style=" stroke:none;fill-rule:nonzero;fill:#42b7ac;fill-opacity:1;" d="M 1006.644531 542.085938 L 1090.378906 553.097656 L 1089.003906 563.714844 Z M 1006.644531 542.085938 "/><g clip-rule="nonzero" clip-path="url(#7e5d21ea19)"><path style=" stroke:none;fill-rule:nonzero;fill:#ffdb2c;fill-opacity:1;" d="M 1006.054688 535.796875 L 1089.988281 527.144531 L 1091.164062 537.761719 Z M 1006.054688 535.796875 "/></g><path style=" stroke:none;fill-rule:nonzero;fill:#42b7ac;fill-opacity:1;" d="M 441.738281 382.824219 L 450.976562 377.320312 L 495.003906 449.28125 Z M 441.738281 382.824219 "/><g clip-rule="nonzero" clip-path="url(#81c1c93259)"><path style=" stroke:none;fill-rule:nonzero;fill:#42b7ac;fill-opacity:1;" d="M 408.71875 445.546875 L 411.46875 435.125 L 493.039062 456.359375 Z M 408.71875 445.546875 "/></g><path style=" stroke:none;fill-rule:nonzero;fill:#ffdb2c;fill-opacity:1;" d="M 416.382812 420.773438 L 421.492188 411.335938 L 495.988281 450.855469 Z M 416.382812 420.773438 "/><path style=" stroke:none;fill-rule:nonzero;fill:#000000;fill-opacity:1;" d="M 701.195312 709.605469 C 678.394531 721.796875 660.703125 729.859375 648.515625 733.398438 C 636.527344 717.472656 623.949219 698.59375 610.777344 676.96875 C 613.332031 703.902344 614.710938 724.941406 615.496094 740.082031 C 592.695312 752.46875 575.203125 760.332031 562.816406 763.871094 C 530.386719 719.042969 497.167969 670.085938 462.96875 616.605469 C 473.582031 607.953125 488.519531 598.125 507.585938 586.914062 C 533.136719 628.597656 551.8125 657.699219 563.210938 674.609375 C 559.871094 638.429688 556.332031 604.21875 552.597656 572.367188 C 565.964844 565.289062 579.328125 559.585938 592.890625 555.652344 C 617.65625 595.566406 636.527344 625.648438 649.695312 645.703125 C 646.355469 609.527344 642.226562 572.957031 636.921875 535.992188 C 658.933594 528.914062 675.640625 524.390625 686.847656 522.621094 C 695.296875 617.390625 700.210938 679.71875 701.195312 709.605469 Z M 811.855469 520.261719 C 822.472656 591.636719 829.742188 646.6875 833.871094 685.226562 C 801.636719 695.253906 778.050781 700.757812 763.308594 701.742188 C 755.445312 649.832031 747.777344 595.175781 740.308594 537.566406 C 722.03125 541.890625 701.980469 546.609375 679.964844 551.722656 C 675.054688 531.863281 671.710938 508.269531 669.941406 481.332031 C 736.96875 463.046875 802.027344 447.121094 864.730469 433.554688 C 868.664062 455.179688 871.414062 478.578125 873.574219 504.140625 C 869.054688 505.910156 848.417969 511.414062 811.855469 520.261719 Z M 850.1875 673.035156 C 849.398438 551.917969 849.988281 488.605469 851.757812 483.296875 C 895.789062 477.398438 938.636719 473.269531 980.503906 471.304688 C 981.488281 485.066406 981.488281 502.171875 980.109375 522.226562 C 977.164062 523.015625 952.394531 525.570312 906.007812 529.699219 L 905.8125 551.523438 C 950.234375 547.394531 974.015625 545.234375 976.964844 545.429688 L 976.769531 597.535156 L 905.027344 604.21875 C 905.417969 643.738281 904.828125 665.367188 903.257812 669.101562 C 871.21875 672.25 853.722656 673.625 850.1875 673.035156 Z M 1058.734375 456.359375 C 1045.367188 522.226562 1035.738281 568.238281 1029.644531 594.386719 C 1013.917969 593.796875 998.585938 592.617188 983.453125 591.242188 C 983.253906 592.222656 981.878906 592.222656 978.929688 591.042969 C 981.488281 561.550781 987.382812 515.347656 996.425781 452.230469 C 1019.617188 452.429688 1040.453125 453.804688 1058.734375 456.359375 Z M 982.863281 647.671875 C 972.050781 643.933594 967.726562 635.875 969.890625 623.488281 C 972.835938 612.476562 979.914062 605.398438 990.921875 601.859375 C 1002.125 598.320312 1011.363281 598.910156 1019.226562 603.824219 C 1028.660156 611.296875 1031.414062 620.539062 1027.480469 631.15625 C 1023.746094 639.214844 1018.4375 644.917969 1011.167969 648.0625 C 1003.109375 651.40625 993.671875 651.40625 982.863281 647.671875 Z M 982.863281 647.671875 "/><path style=" stroke:none;fill-rule:nonzero;fill:#42b7ac;fill-opacity:1;" d="M 684.683594 691.515625 C 662.277344 703.117188 644.980469 710.589844 632.988281 713.933594 C 621.195312 698.792969 609.007812 681.097656 596.035156 660.648438 C 598.394531 686.207031 599.96875 705.871094 600.558594 720.027344 C 578.148438 731.628906 561.050781 739.097656 548.863281 742.441406 C 517.019531 700.167969 484.390625 653.964844 450.976562 603.433594 C 461.394531 595.371094 475.941406 585.933594 494.613281 575.316406 C 519.773438 614.640625 537.855469 642.164062 549.058594 658.09375 C 545.914062 623.878906 542.375 591.832031 538.640625 561.550781 C 551.8125 554.867188 564.785156 549.558594 578.148438 545.824219 C 602.523438 583.574219 621 611.886719 633.777344 630.761719 C 630.628906 596.550781 626.503906 562.140625 621.390625 527.339844 C 643.015625 520.65625 659.328125 516.328125 670.335938 514.757812 C 678.984375 604.414062 683.703125 663.402344 684.683594 691.515625 Z M 793.183594 512.988281 C 803.601562 580.425781 810.875 632.136719 814.609375 668.710938 C 782.964844 678.148438 759.964844 683.457031 745.617188 684.242188 C 737.953125 635.285156 730.480469 583.769531 723.011719 529.304688 C 705.125 533.4375 685.46875 537.761719 663.847656 542.675781 C 659.132812 523.800781 655.789062 501.78125 654.019531 476.21875 C 719.867188 459.113281 783.355469 443.972656 845.074219 431.195312 C 848.808594 451.445312 851.757812 473.664062 853.722656 497.652344 C 849.203125 499.421875 828.957031 504.53125 793.183594 512.988281 Z M 830.726562 656.914062 C 829.941406 542.480469 830.53125 482.90625 832.101562 477.988281 C 875.148438 472.285156 917.210938 468.550781 958.292969 466.78125 C 959.273438 479.757812 959.273438 495.882812 957.898438 514.953125 C 954.949219 515.738281 930.773438 518.097656 885.171875 522.03125 L 884.976562 542.480469 C 928.613281 538.546875 951.804688 536.582031 954.753906 536.777344 L 954.558594 585.933594 L 884.191406 592.226562 C 884.582031 629.582031 883.992188 650.03125 882.421875 653.375 C 851.363281 656.324219 834.066406 657.503906 830.726562 656.914062 Z M 1035.34375 452.625 C 1022.171875 514.757812 1012.738281 558.210938 1006.84375 582.785156 C 991.511719 582.195312 976.375 581.214844 961.4375 579.835938 C 961.242188 580.820312 959.863281 580.820312 957.113281 579.640625 C 959.667969 551.917969 965.367188 508.269531 974.214844 448.691406 C 996.816406 448.890625 1017.261719 450.265625 1035.34375 452.625 Z M 960.847656 633.121094 C 950.234375 629.582031 945.910156 622.109375 948.070312 610.3125 C 951.019531 600.089844 957.898438 593.207031 968.710938 589.863281 C 979.519531 586.523438 988.757812 587.113281 996.425781 591.632812 C 1005.664062 598.714844 1008.414062 607.363281 1004.679688 617.390625 C 1001.140625 625.058594 995.835938 630.367188 988.757812 633.316406 C 980.699219 636.660156 971.460938 636.464844 960.847656 633.121094 Z M 960.847656 633.121094 "/><path style=" stroke:none;fill-rule:nonzero;fill:#ffffff;fill-opacity:1;" d="M 550.433594 738.117188 C 519.96875 697.613281 488.324219 652.785156 456.285156 604.613281 C 465.71875 597.730469 478.101562 589.667969 493.433594 580.820312 C 517.414062 618.375 535.105469 645.113281 546.109375 660.453125 L 554.5625 672.445312 L 553.1875 657.894531 C 550.042969 624.863281 546.699219 593.40625 543.164062 564.109375 C 554.167969 558.601562 565.375 554.082031 576.578125 550.738281 C 599.96875 587.113281 618.246094 614.835938 630.628906 633.316406 L 637.902344 630.761719 C 634.757812 597.730469 630.828125 564.109375 625.914062 530.289062 C 643.210938 524.980469 656.96875 521.441406 666.992188 519.476562 C 675.25 603.628906 679.964844 660.648438 680.949219 688.960938 C 661.492188 698.988281 645.960938 705.671875 634.757812 709.210938 C 623.554688 694.664062 611.761719 677.753906 599.769531 658.484375 L 592.5 661.042969 C 594.855469 684.832031 596.234375 703.902344 596.824219 717.863281 C 577.167969 727.890625 561.640625 734.578125 550.433594 738.117188 Z M 810.480469 665.761719 C 806.550781 629.777344 799.472656 578.65625 789.253906 513.578125 L 788.664062 510.039062 L 792.203125 509.25 C 828.367188 500.796875 843.503906 496.863281 849.398438 494.898438 C 847.628906 473.859375 845.074219 454 841.929688 435.714844 C 782.964844 448.101562 721.242188 462.652344 658.34375 479.167969 C 660.113281 501.191406 662.867188 521.046875 666.992188 537.957031 C 686.648438 533.632812 705.324219 529.304688 722.226562 525.570312 L 726.355469 524.585938 L 726.945312 528.914062 C 734.019531 581.605469 741.488281 632.53125 748.957031 680.113281 C 762.519531 678.539062 783.160156 673.820312 810.480469 665.761719 Z M 879.472656 649.636719 C 880.0625 645.113281 880.847656 631.546875 880.457031 592.222656 L 880.457031 588.488281 L 950.824219 582.195312 L 951.019531 540.710938 C 942.371094 541.300781 920.554688 543.070312 885.566406 546.214844 L 881.242188 546.609375 L 881.4375 518.097656 L 884.976562 517.707031 C 931.363281 513.773438 948.464844 512.003906 954.363281 511.21875 C 955.34375 495.683594 955.34375 481.921875 954.753906 470.515625 C 916.230469 472.484375 876.132812 476.023438 835.640625 481.136719 C 834.65625 490.964844 833.871094 530.484375 834.65625 652.785156 C 841.539062 652.980469 856.476562 651.800781 879.472656 649.636719 Z M 987.1875 629.777344 C 993.28125 627.222656 997.800781 622.699219 1000.945312 616.015625 C 1004.089844 607.757812 1001.929688 601.074219 994.261719 594.976562 C 990.527344 592.816406 986.398438 591.832031 981.683594 591.832031 C 978.144531 591.832031 974.015625 592.421875 969.890625 593.796875 C 960.257812 596.746094 954.363281 602.449219 951.804688 611.296875 C 950.234375 621.128906 953.378906 626.632812 962.027344 629.582031 C 966.941406 631.15625 971.660156 632.136719 975.984375 632.136719 C 980.109375 631.746094 983.84375 631.15625 987.1875 629.777344 Z M 1030.625 455.96875 C 1014.703125 454 997.015625 452.820312 977.75 452.625 C 969.691406 507.285156 964.1875 548.574219 961.4375 575.90625 L 961.832031 575.90625 C 975.589844 577.28125 989.546875 578.265625 1003.699219 578.855469 C 1009.59375 554.472656 1018.4375 513.183594 1030.625 455.96875 Z M 1030.625 455.96875 "/><g clip-rule="nonzero" clip-path="url(#926f36ab6a)"><path style=" stroke:none;fill-rule:nonzero;fill:#42b7ac;fill-opacity:1;" d="M 914.460938 480.152344 L 968.710938 386.5625 L 978.929688 368.867188 L 985.417969 384.398438 L 986.597656 387.347656 L 992.886719 402.09375 L 1035.34375 356.085938 L 999.570312 418.019531 L 998.785156 419.398438 L 989.347656 435.714844 L 975.195312 402.289062 L 972.445312 405.632812 Z M 977.359375 348.417969 L 978.929688 346.253906 L 987.777344 367.097656 L 993.671875 357.070312 L 994.066406 356.28125 L 1016.277344 317.941406 L 989.9375 346.449219 L 986.007812 337.210938 L 985.222656 335.441406 L 981.09375 325.804688 L 977.949219 331.3125 L 974.804688 336.816406 L 941.386719 394.621094 Z M 567.730469 555.261719 L 534.121094 497.453125 L 527.832031 486.445312 L 523.703125 496.078125 L 522.917969 497.847656 L 518.984375 507.089844 L 492.648438 478.578125 L 514.859375 516.917969 L 515.25 517.707031 L 521.148438 527.734375 L 529.992188 506.890625 L 531.566406 509.054688 Z M 588.371094 783.140625 L 591.121094 779.800781 L 605.273438 813.222656 L 614.710938 796.90625 L 615.496094 795.527344 L 651.269531 733.59375 L 608.8125 779.601562 L 602.523438 764.855469 L 601.34375 761.90625 L 594.855469 746.375 L 584.636719 764.070312 L 530.386719 857.660156 Z M 566.355469 744.800781 L 567.929688 742.636719 L 576.773438 763.480469 L 582.671875 753.453125 L 583.0625 752.664062 L 605.273438 714.324219 L 578.9375 742.835938 L 575.003906 733.59375 L 574.21875 731.824219 L 570.089844 722.191406 L 563.800781 733.199219 L 530.191406 791.007812 Z M 566.355469 744.800781 "/></g><path style=" stroke:none;fill-rule:nonzero;fill:#ffdb2c;fill-opacity:1;" d="M 978.539062 375.15625 L 992.101562 407.402344 L 1020.40625 376.730469 L 989.742188 429.621094 L 975.785156 396.785156 L 937.261719 446.332031 Z M 955.539062 373.78125 L 979.519531 343.109375 L 988.167969 363.359375 L 1007.039062 330.722656 L 989.546875 349.792969 L 981.09375 329.933594 Z M 528.222656 490.375 L 519.773438 510.234375 L 502.277344 491.164062 L 521.148438 523.800781 L 529.796875 503.550781 L 553.777344 534.222656 Z M 552.992188 823.839844 L 591.710938 774.097656 L 605.667969 806.933594 L 636.332031 754.042969 L 608.027344 784.714844 L 594.464844 752.46875 Z M 544.34375 770.164062 L 568.320312 739.296875 L 576.96875 759.546875 L 595.839844 726.910156 L 578.347656 745.980469 L 569.894531 726.121094 Z M 544.34375 770.164062 "/></g></svg>