<svg xmlns="http://www.w3.org/2000/svg" xmlns:xlink="http://www.w3.org/1999/xlink" width="2000" zoomAndPan="magnify" viewBox="0 0 1500 1124.99995" height="1500" preserveAspectRatio="xMidYMid meet" version="1.2"><defs><clipPath id="94cd094fcd"><path d="M 438 258.441406 L 1069 258.441406 L 1069 788 L 438 788 Z M 438 258.441406 "/></clipPath><clipPath id="53ad82d79c"><path d="M 484 310 L 1045 310 L 1045 866.691406 L 484 866.691406 Z M 484 310 "/></clipPath><clipPath id="b46c010d98"><path d="M 398.316406 371 L 1101 371 L 1101 564 L 398.316406 564 Z M 398.316406 371 "/></clipPath><clipPath id="338a4395f3"><path d="M 406 406 L 1101.816406 406 L 1101.816406 538 L 406 538 Z M 406 406 "/></clipPath></defs><g id="af2bc66ae4"><path style=" stroke:none;fill-rule:nonzero;fill:#ffdb2c;fill-opacity:1;" d="M 685.433594 338.472656 C 677.9375 339.285156 677.332031 339.890625 676.316406 346.984375 C 675.507812 339.890625 674.695312 339.285156 667.199219 338.472656 C 674.695312 337.664062 675.304688 337.054688 676.316406 329.964844 C 677.332031 337.054688 677.9375 337.664062 685.433594 338.472656 Z M 456.691406 533.59375 C 455.878906 540.683594 455.070312 541.292969 447.574219 542.101562 C 455.070312 542.914062 455.675781 543.519531 456.691406 550.613281 C 457.5 543.519531 458.3125 542.914062 465.808594 542.101562 C 458.109375 541.292969 457.5 540.683594 456.691406 533.59375 Z M 1036.148438 492.867188 C 1035.339844 499.957031 1034.53125 500.566406 1027.03125 501.375 C 1034.53125 502.1875 1035.136719 502.792969 1036.148438 509.886719 C 1036.960938 502.792969 1037.769531 502.1875 1045.269531 501.375 C 1037.769531 500.566406 1036.960938 499.957031 1036.148438 492.867188 Z M 947.40625 275.460938 C 942.746094 290.046875 939.101562 293.898438 924.511719 298.355469 C 939.101562 303.015625 942.949219 306.664062 947.40625 321.25 C 952.066406 306.664062 955.714844 302.8125 970.300781 298.355469 C 955.714844 293.695312 952.066406 290.046875 947.40625 275.460938 Z M 1047.699219 636.722656 C 1045.46875 644.015625 1043.648438 645.839844 1036.148438 648.273438 C 1043.445312 650.5 1045.269531 652.324219 1047.699219 659.820312 C 1049.925781 652.527344 1051.75 650.703125 1059.246094 648.273438 C 1051.75 645.839844 1049.925781 644.015625 1047.699219 636.722656 Z M 562.25 347.792969 C 560.019531 355.089844 558.195312 356.910156 550.699219 359.34375 C 557.992188 361.570312 559.816406 363.394531 562.25 370.890625 C 564.476562 363.597656 566.300781 361.773438 573.796875 359.34375 C 566.503906 356.910156 564.476562 355.089844 562.25 347.792969 Z M 699.414062 786.050781 C 694.753906 800.636719 691.109375 804.488281 676.519531 808.945312 C 691.109375 813.605469 694.957031 817.253906 699.414062 831.839844 C 704.074219 817.253906 707.722656 813.402344 722.308594 808.945312 C 707.519531 804.488281 703.871094 800.636719 699.414062 786.050781 Z M 699.414062 786.050781 "/><g clip-rule="nonzero" clip-path="url(#94cd094fcd)"><path style=" stroke:none;fill-rule:nonzero;fill:#42b7ac;fill-opacity:1;" d="M 796.667969 334.015625 C 785.320312 335.230469 784.308594 336.246094 782.890625 346.984375 C 781.675781 336.246094 780.457031 335.230469 769.113281 334.015625 C 780.457031 332.800781 781.472656 331.789062 782.890625 321.046875 C 784.105469 331.789062 785.117188 332.800781 796.667969 334.015625 Z M 855.828125 770.042969 C 855.019531 777.136719 854.207031 777.742188 846.710938 778.554688 C 854.207031 779.363281 854.816406 779.972656 855.828125 787.0625 C 856.640625 779.972656 857.449219 779.363281 864.945312 778.554688 C 857.449219 777.742188 856.640625 776.933594 855.828125 770.042969 Z M 1059.046875 449.101562 C 1058.234375 456.191406 1057.425781 456.800781 1049.925781 457.609375 C 1057.425781 458.421875 1058.03125 459.03125 1059.046875 466.121094 C 1059.855469 459.03125 1060.664062 458.421875 1068.164062 457.609375 C 1060.664062 456.800781 1059.855469 455.992188 1059.046875 449.101562 Z M 970.300781 258.441406 C 969.492188 265.53125 968.679688 266.140625 961.183594 266.949219 C 968.679688 267.761719 969.289062 268.367188 970.300781 275.460938 C 971.113281 268.367188 971.921875 267.761719 979.417969 266.949219 C 971.921875 266.140625 971.316406 265.53125 970.300781 258.441406 Z M 506.125 433.5 C 503.898438 440.792969 502.074219 442.617188 494.578125 445.050781 C 501.871094 447.277344 503.695312 449.101562 506.125 456.597656 C 508.355469 449.304688 510.179688 447.480469 517.675781 445.050781 C 510.179688 442.617188 508.355469 440.792969 506.125 433.5 Z M 1044.457031 311.121094 C 1042.226562 318.414062 1040.40625 320.238281 1032.910156 322.667969 C 1040.203125 324.898438 1042.027344 326.722656 1044.457031 334.21875 C 1046.6875 326.925781 1048.507812 325.101562 1056.007812 322.667969 C 1048.710938 320.238281 1046.886719 318.414062 1044.457031 311.121094 Z M 450.003906 711.488281 C 447.773438 718.78125 445.953125 720.605469 438.453125 723.035156 C 445.75 725.265625 447.574219 727.089844 450.003906 734.585938 C 452.234375 727.292969 454.054688 725.46875 461.550781 723.035156 C 454.054688 720.605469 452.234375 718.78125 450.003906 711.488281 Z M 592.4375 366.636719 C 587.777344 381.226562 584.128906 385.074219 569.542969 389.53125 C 584.128906 394.191406 587.980469 397.839844 592.4375 412.429688 C 597.097656 397.839844 600.746094 393.988281 615.332031 389.53125 C 600.746094 384.871094 597.097656 381.226562 592.4375 366.636719 Z M 1024.804688 668.332031 C 1020.144531 682.917969 1016.496094 686.769531 1001.910156 691.226562 C 1016.496094 695.886719 1020.347656 699.535156 1024.804688 714.121094 C 1029.464844 699.535156 1033.109375 695.683594 1047.699219 691.226562 C 1032.910156 686.566406 1029.261719 682.917969 1024.804688 668.332031 Z M 1024.804688 668.332031 "/></g><path style=" stroke:none;fill-rule:nonzero;fill:#42b7ac;fill-opacity:1;" d="M 1059.046875 600.050781 C 949.433594 609.574219 914.179688 618.894531 992.183594 665.496094 C 896.148438 649.691406 908.101562 684.132812 974.558594 757.277344 C 879.535156 706.625 847.523438 688.1875 879.738281 756.671875 C 813.886719 702.371094 805.785156 738.433594 815.710938 826.371094 C 769.921875 745.324219 748.851562 714.933594 730.210938 785.644531 C 711.570312 714.933594 690.296875 745.324219 644.710938 826.371094 C 654.636719 738.636719 646.535156 702.371094 580.6875 756.671875 C 612.902344 688.1875 580.890625 706.625 485.867188 757.277344 C 552.320312 684.136719 564.074219 649.691406 468.238281 665.496094 C 546.242188 618.691406 510.988281 609.371094 401.378906 600.050781 C 510.988281 571.277344 550.09375 560.335938 486.472656 522.652344 C 581.292969 523.460938 577.242188 484.152344 531.046875 417.695312 C 615.738281 456.597656 652.410156 472.402344 645.519531 406.351562 C 694.957031 451.9375 705.492188 413.238281 725.753906 323.886719 C 750.878906 400.472656 778.636719 428.636719 835.164062 356.101562 C 819.359375 428.636719 841.445312 400.269531 918.230469 321.453125 C 872.644531 411.820312 868.59375 447.683594 954.296875 402.703125 C 890.878906 471.996094 926.335938 470.171875 1033.921875 442.210938 C 938.695312 501.578125 911.546875 526.5 1005.757812 528.121094 C 916.207031 560.132812 949.433594 575.128906 1059.046875 600.050781 Z M 1059.046875 600.050781 "/><path style=" stroke:none;fill-rule:nonzero;fill:#ffdb2c;fill-opacity:1;" d="M 653.21875 799.015625 C 655.855469 762.34375 652.816406 742.285156 643.898438 732.15625 C 639.644531 727.496094 634.175781 725.0625 627.488281 725.0625 C 618.777344 725.0625 608.242188 729.316406 594.867188 738.234375 C 599.527344 725.265625 599.730469 717.160156 596.488281 711.894531 C 594.867188 709.257812 591.222656 706.015625 584.332031 706.015625 C 571.570312 706.015625 548.472656 717.363281 512.003906 736.613281 C 539.558594 703.179688 548.066406 683.730469 542.191406 670.355469 C 537.734375 660.429688 525.980469 655.769531 506.125 655.769531 C 502.277344 655.769531 498.023438 655.972656 493.566406 656.375 C 511.394531 643.410156 518.082031 633.480469 515.851562 624.160156 C 512.40625 609.371094 487.890625 602.886719 435.617188 597.414062 C 493.765625 581.613281 520.308594 571.683594 522.738281 555.070312 C 523.957031 546.558594 518.6875 538.253906 505.722656 528.527344 C 537.9375 526.5 556.980469 518.597656 564.679688 503.605469 C 572.988281 487.597656 567.71875 465.3125 547.457031 432.285156 C 582.914062 448.292969 606.621094 457.8125 623.640625 457.8125 C 632.351562 457.8125 639.238281 455.179688 644.101562 449.710938 C 649.574219 443.632812 652.207031 434.109375 652.207031 420.332031 C 662.539062 428.230469 671.453125 431.878906 679.355469 431.878906 C 704.277344 431.878906 714.609375 398.449219 726.765625 345.96875 C 738.722656 377.375 754.523438 404.527344 779.039062 404.527344 C 793.019531 404.527344 807.808594 395.8125 824.828125 377.78125 C 823.207031 389.9375 824.019531 396.625 827.261719 400.675781 C 829.285156 403.109375 831.921875 404.324219 835.164062 404.324219 C 845.292969 404.324219 859.476562 390.949219 896.351562 352.65625 C 880.140625 389.128906 876.496094 408.984375 883.179688 419.925781 C 885.613281 423.773438 890.476562 428.433594 900.808594 428.433594 C 908.507812 428.433594 918.433594 426.003906 931.199219 420.53125 C 918.230469 437.550781 914.382812 448.492188 917.828125 456.394531 C 922.285156 466.527344 936.46875 466.527344 941.125 466.527344 C 954.5 466.527344 974.152344 463.082031 999.074219 457.207031 C 951.257812 488.613281 937.886719 503.199219 941.53125 516.167969 C 943.964844 525.285156 954.902344 530.351562 977.800781 532.78125 C 956.523438 542.710938 947.609375 551.21875 948.21875 560.742188 C 949.027344 574.113281 967.261719 583.839844 1022.171875 597.820312 C 971.722656 603.292969 947.8125 609.773438 944.367188 624.363281 C 942.140625 633.683594 948.824219 643.613281 966.65625 656.578125 C 962.199219 656.175781 957.945312 655.972656 954.09375 655.972656 C 934.238281 655.972656 922.285156 660.835938 918.03125 670.558594 C 912.152344 683.933594 920.664062 703.382812 948.21875 736.816406 C 911.75 717.566406 888.652344 706.21875 875.886719 706.21875 C 868.796875 706.21875 865.351562 709.460938 863.730469 712.09375 C 860.285156 717.363281 860.691406 725.265625 865.351562 738.433594 C 851.980469 729.519531 841.445312 725.265625 832.730469 725.265625 C 826.046875 725.265625 820.574219 727.695312 816.320312 732.355469 C 807.40625 742.285156 804.570312 762.34375 807 799.21875 C 782.6875 757.886719 768.707031 740.257812 754.117188 740.257812 C 742.773438 740.257812 735.480469 751.402344 730.007812 765.585938 C 724.539062 751.402344 717.246094 740.257812 705.898438 740.257812 C 691.714844 740.054688 677.53125 757.683594 653.21875 799.015625 Z M 653.21875 799.015625 "/><g clip-rule="nonzero" clip-path="url(#53ad82d79c)"><path style=" stroke:none;fill-rule:nonzero;fill:#42b7ac;fill-opacity:1;" d="M 919.648438 477.671875 L 975.570312 381.226562 L 980.839844 372.109375 L 986.105469 362.988281 L 992.792969 378.996094 L 994.007812 382.035156 L 1000.492188 397.230469 L 1044.253906 349.820312 L 1007.378906 413.644531 L 1006.570312 415.0625 L 996.84375 431.878906 L 982.257812 397.433594 L 979.417969 400.878906 Z M 984.484375 341.917969 L 986.105469 339.6875 L 995.222656 361.167969 L 1001.300781 350.832031 L 1001.707031 350.023438 L 1024.601562 310.511719 L 997.453125 339.890625 L 993.398438 330.367188 L 992.589844 328.546875 L 988.335938 318.617188 L 985.09375 324.289062 L 981.851562 329.964844 L 947.40625 389.53125 Z M 562.25 555.070312 L 527.601562 495.5 L 524.359375 489.828125 L 521.121094 484.152344 L 516.863281 494.082031 L 516.054688 495.90625 L 512.003906 505.429688 L 484.851562 476.050781 L 507.746094 515.558594 L 508.152344 516.371094 L 514.230469 526.703125 L 523.347656 505.226562 L 524.96875 507.453125 Z M 583.523438 789.898438 L 586.359375 786.457031 L 600.945312 820.898438 L 610.671875 804.082031 L 611.484375 802.664062 L 648.359375 738.839844 L 604.59375 786.253906 L 598.109375 771.054688 L 596.894531 768.015625 L 590.207031 752.011719 L 584.941406 761.128906 L 579.671875 770.246094 L 523.753906 866.691406 Z M 588.589844 730.9375 L 590.207031 728.710938 L 599.328125 750.1875 L 605.40625 739.855469 L 605.808594 739.042969 L 628.703125 699.535156 L 601.554688 728.914062 L 597.503906 719.390625 L 596.691406 717.566406 L 592.4375 707.636719 L 589.195312 713.3125 L 585.953125 718.984375 L 551.308594 778.554688 Z M 588.589844 730.9375 "/></g><path style=" stroke:none;fill-rule:nonzero;fill:#ffdb2c;fill-opacity:1;" d="M 985.699219 369.472656 L 999.679688 402.703125 L 1028.855469 371.09375 L 997.25 425.597656 L 982.863281 391.761719 L 943.152344 442.820312 Z M 961.996094 368.054688 L 986.714844 336.449219 L 995.628906 357.316406 L 1015.078125 323.683594 L 997.046875 343.335938 L 988.335938 322.871094 Z M 521.523438 488.207031 L 512.8125 508.671875 L 494.78125 489.015625 L 514.230469 522.652344 L 523.144531 501.78125 L 547.863281 533.390625 Z M 547.054688 831.839844 L 586.96875 780.578125 L 601.351562 814.417969 L 632.960938 759.914062 L 603.785156 791.519531 L 589.804688 758.292969 Z M 565.894531 756.875 L 590.613281 725.265625 L 599.527344 746.136719 L 618.980469 712.5 L 600.945312 732.15625 L 592.234375 711.691406 Z M 565.894531 756.875 "/><g clip-rule="nonzero" clip-path="url(#b46c010d98)"><path style=" stroke:none;fill-rule:nonzero;fill:#42b7ac;fill-opacity:1;" d="M 1015.6875 533.996094 L 1085.585938 482.128906 L 1092.273438 491.042969 Z M 1099.566406 563.578125 L 1100.984375 552.636719 L 1014.671875 541.292969 Z M 487.285156 445.859375 L 441.898438 371.5 L 432.375 377.171875 Z M 485.257812 453.152344 L 401.175781 431.269531 L 398.339844 442.011719 Z M 485.257812 453.152344 "/></g><g clip-rule="nonzero" clip-path="url(#338a4395f3)"><path style=" stroke:none;fill-rule:nonzero;fill:#ffdb2c;fill-opacity:1;" d="M 1014.066406 535.011719 L 1100.578125 526.09375 L 1101.796875 537.035156 Z M 488.296875 447.480469 L 411.507812 406.753906 L 406.242188 416.480469 Z M 488.296875 447.480469 "/></g><path style=" stroke:none;fill-rule:nonzero;fill:#000000;fill-opacity:1;" d="M 450.003906 607.953125 C 458.511719 600.253906 471.480469 592.957031 489.105469 585.664062 C 517.878906 574.519531 538.949219 576.546875 552.726562 591.742188 C 561.84375 604.304688 561.234375 619.09375 550.296875 636.316406 C 566.707031 639.355469 576.429688 646.246094 579.066406 657.1875 C 581.902344 668.128906 580.890625 677.246094 576.429688 684.539062 C 574.203125 688.792969 571.570312 692.441406 568.328125 695.683594 C 554.550781 709.664062 537.328125 719.996094 516.054688 726.683594 C 509.976562 728.914062 499.035156 732.355469 483.027344 736.816406 C 471.480469 696.089844 460.335938 653.132812 450.003906 607.953125 Z M 507.542969 692.238281 C 528.820312 687.375 537.9375 679.675781 534.898438 669.34375 C 532.871094 665.292969 529.425781 663.671875 524.5625 664.277344 C 518.6875 665.089844 511.191406 668.128906 502.480469 673.800781 C 503.898438 680.691406 505.722656 686.769531 507.542969 692.238281 Z M 494.984375 641.789062 C 512.609375 636.925781 519.699219 630.644531 516.660156 622.742188 C 515.242188 619.09375 512.609375 617.273438 508.355469 617.472656 C 502.683594 618.285156 496.402344 620.511719 489.714844 624.363281 C 491.132812 630.441406 492.957031 636.316406 494.984375 641.789062 Z M 607.023438 687.175781 C 593.246094 680.894531 582.308594 669.953125 574 654.351562 C 569.339844 644.625 566.300781 634.492188 564.476562 624.160156 C 558.398438 561.554688 583.523438 522.851562 639.441406 507.859375 C 662.335938 501.171875 683.003906 505.632812 701.441406 521.03125 C 710.558594 530.753906 717.042969 542.304688 720.890625 555.878906 C 725.144531 570.671875 726.160156 586.472656 724.335938 603.695312 C 721.5 622.539062 715.828125 638.140625 707.519531 650.5 C 680.976562 688.1875 647.34375 700.546875 607.023438 687.175781 Z M 671.453125 579.992188 C 665.175781 568.238281 655.652344 564.1875 642.683594 567.632812 C 631.539062 570.265625 623.4375 576.75 618.167969 587.082031 C 612.699219 600.050781 612.902344 611.597656 618.777344 622.132812 C 627.082031 633.277344 637.011719 637.128906 648.15625 633.277344 C 661.527344 628.011719 669.835938 617.472656 673.277344 601.671875 C 674.898438 593.566406 674.089844 586.273438 671.453125 579.992188 Z M 737.503906 662.253906 C 724.945312 656.375 714.8125 646.449219 707.316406 632.265625 C 703.0625 623.351562 700.226562 614.03125 698.605469 604.507812 C 693.132812 547.167969 716.027344 511.710938 767.085938 497.933594 C 787.953125 491.851562 807 495.90625 823.816406 510.089844 C 832.125 519.003906 838.203125 529.539062 841.644531 541.898438 C 845.496094 555.472656 846.507812 570.0625 844.886719 585.664062 C 842.253906 602.886719 837.1875 617.273438 829.488281 628.617188 C 805.175781 663.46875 774.582031 674.613281 737.503906 662.253906 Z M 796.464844 564.1875 C 790.792969 553.449219 782.078125 549.800781 770.125 553.042969 C 759.996094 555.472656 752.5 561.351562 747.636719 570.871094 C 742.570312 582.625 742.773438 593.363281 748.039062 603.089844 C 755.738281 613.421875 764.65625 616.664062 774.988281 613.421875 C 787.144531 608.558594 794.84375 599.035156 798.085938 584.449219 C 799.707031 576.546875 799.097656 569.859375 796.464844 564.1875 Z M 887.234375 586.675781 C 887.234375 601.265625 887.4375 617.675781 887.4375 635.914062 C 874.265625 638.140625 860.488281 639.761719 846.507812 640.371094 C 844.28125 590.324219 843.46875 545.75 844.078125 506.238281 C 861.5 499.957031 877.101562 495.90625 890.675781 493.878906 C 893.714844 500.160156 898.175781 510.898438 904.253906 526.296875 C 910.332031 541.695312 914.585938 551.421875 917.421875 555.878906 C 922.082031 548.585938 930.1875 529.132812 941.328125 497.527344 C 954.902344 496.3125 970.101562 496.714844 986.917969 498.945312 C 988.539062 536.832031 989.144531 582.015625 988.738281 634.089844 C 976.179688 636.316406 962.601562 637.734375 947.8125 638.546875 C 947.40625 637.128906 947.003906 620.917969 946.394531 590.121094 C 928.363281 626.792969 918.839844 645.234375 917.421875 645.433594 Z M 1025.613281 493.070312 C 1032.503906 541.089844 1037.164062 574.722656 1039.390625 593.769531 C 1028.652344 597.414062 1017.710938 600.65625 1006.972656 603.695312 C 1007.175781 604.507812 1006.164062 604.710938 1003.933594 604.710938 C 998.667969 584.246094 991.375 551.421875 982.054688 506.238281 C 998.058594 500.566406 1012.445312 496.109375 1025.613281 493.070312 Z M 1020.347656 641.992188 C 1012.039062 642.394531 1007.175781 637.9375 1005.554688 629.023438 C 1004.949219 620.917969 1007.988281 614.234375 1014.671875 608.964844 C 1021.359375 603.695312 1028.046875 601.671875 1034.328125 602.886719 C 1042.632812 605.519531 1046.6875 610.992188 1046.6875 619.09375 C 1046.078125 625.578125 1043.847656 630.847656 1039.59375 634.695312 C 1035.136719 639.355469 1028.652344 641.585938 1020.347656 641.992188 Z M 1020.347656 641.992188 "/><path style=" stroke:none;fill-rule:nonzero;fill:#42b7ac;fill-opacity:1;" d="M 443.113281 596.402344 C 451.21875 589.3125 463.78125 582.421875 480.800781 575.734375 C 508.355469 565.402344 528.820312 567.226562 541.988281 581.410156 C 550.902344 593.160156 550.09375 606.9375 539.757812 622.945312 C 555.5625 625.78125 564.882812 632.265625 567.515625 642.597656 C 570.152344 652.933594 569.339844 661.441406 565.085938 668.128906 C 562.855469 671.976562 560.425781 675.421875 557.183594 678.460938 C 544.015625 691.429688 527.199219 701.15625 506.9375 707.433594 C 501.0625 709.664062 490.527344 712.703125 475.128906 716.957031 C 463.78125 678.664062 453.246094 638.34375 443.113281 596.402344 Z M 498.628906 675.015625 C 519.09375 670.355469 527.804688 663.265625 524.96875 653.742188 C 522.941406 650.09375 519.699219 648.472656 515.042969 649.082031 C 509.367188 649.691406 502.277344 652.730469 493.765625 657.996094 C 495.183594 664.277344 496.804688 669.953125 498.628906 675.015625 Z M 486.472656 628.011719 C 503.289062 623.554688 510.382812 617.675781 507.34375 610.179688 C 505.921875 606.734375 503.289062 605.113281 499.441406 605.316406 C 493.96875 606.128906 487.890625 608.152344 481.40625 611.800781 C 482.828125 617.273438 484.445312 622.742188 486.472656 628.011719 Z M 594.058594 670.15625 C 580.890625 664.277344 570.351562 653.945312 562.25 639.558594 C 557.792969 630.441406 554.753906 621.121094 553.132812 611.394531 C 547.457031 552.839844 571.367188 516.570312 625.058594 502.792969 C 646.9375 496.511719 666.792969 500.769531 684.625 515.152344 C 693.335938 524.273438 699.617188 535.011719 703.46875 547.574219 C 707.519531 561.351562 708.53125 576.34375 706.910156 592.148438 C 704.074219 609.773438 698.808594 624.363281 690.703125 635.914062 C 665.175781 671.371094 632.960938 682.714844 594.058594 670.15625 Z M 656.054688 570.0625 C 649.976562 559.121094 640.859375 555.273438 628.5 558.511719 C 617.761719 560.945312 610.066406 567.023438 605 576.546875 C 599.730469 588.5 599.933594 599.441406 605.40625 609.371094 C 613.507812 619.90625 622.828125 623.351562 633.769531 619.90625 C 646.535156 615.042969 654.636719 605.113281 658.082031 590.324219 C 659.5 582.625 658.691406 575.9375 656.054688 570.0625 Z M 719.675781 647.054688 C 707.519531 641.585938 697.996094 632.265625 690.703125 618.894531 C 686.652344 610.585938 683.8125 601.875 682.394531 592.957031 C 677.128906 539.46875 699.007812 506.238281 748.242188 493.472656 C 768.300781 487.800781 786.535156 491.652344 802.746094 504.820312 C 810.847656 513.128906 816.523438 523.054688 819.96875 534.605469 C 823.613281 547.167969 824.625 560.945312 823.007812 575.53125 C 820.574219 591.742188 815.507812 605.113281 808.214844 615.652344 C 784.914062 648.070312 755.335938 658.605469 719.675781 647.054688 Z M 776.40625 555.273438 C 770.9375 545.34375 762.425781 541.695312 751.078125 544.734375 C 741.355469 546.964844 734.0625 552.433594 729.605469 561.351562 C 724.742188 572.292969 724.945312 582.421875 730.007812 591.335938 C 737.300781 600.859375 746.015625 604.101562 755.941406 600.859375 C 767.695312 596.402344 774.988281 587.285156 778.027344 573.710938 C 779.445312 566.820312 778.835938 560.742188 776.40625 555.273438 Z M 863.527344 576.34375 C 863.527344 589.917969 863.730469 605.316406 863.730469 622.335938 C 850.964844 624.363281 838 625.78125 824.425781 626.59375 C 822.398438 579.789062 821.585938 538.050781 821.992188 501.375 C 838.808594 495.5 853.800781 491.652344 866.769531 489.828125 C 869.605469 495.703125 874.0625 505.632812 879.9375 520.015625 C 885.816406 534.402344 889.867188 543.519531 892.5 547.574219 C 896.957031 540.886719 904.65625 522.652344 915.597656 493.070312 C 928.566406 491.851562 943.152344 492.460938 959.5625 494.488281 C 961.183594 529.945312 961.792969 572.089844 961.183594 620.917969 C 949.230469 622.945312 936.0625 624.363281 921.878906 625.171875 C 921.472656 623.753906 921.070312 608.761719 920.664062 579.992188 C 903.441406 614.234375 894.121094 631.453125 892.703125 631.65625 Z M 996.84375 488.8125 C 1003.53125 533.792969 1007.988281 564.996094 1010.015625 583.03125 C 999.679688 586.472656 989.144531 589.511719 978.8125 592.351562 C 979.015625 592.957031 978 593.363281 975.773438 593.363281 C 970.707031 574.113281 963.617188 543.519531 954.703125 501.375 C 970.101562 495.90625 984.078125 491.652344 996.84375 488.8125 Z M 991.777344 628.011719 C 983.878906 628.414062 979.015625 624.363281 977.597656 615.851562 C 976.988281 608.152344 979.824219 602.074219 986.308594 597.011719 C 992.792969 592.148438 999.074219 590.121094 1005.355469 591.335938 C 1013.253906 593.769531 1017.308594 598.832031 1017.308594 606.53125 C 1016.902344 612.613281 1014.472656 617.472656 1010.621094 621.121094 C 1005.960938 625.578125 999.679688 627.808594 991.777344 628.011719 Z M 991.777344 628.011719 "/><path style=" stroke:none;fill-rule:nonzero;fill:#ffffff;fill-opacity:1;" d="M 477.964844 711.894531 C 467.429688 675.828125 457.09375 637.332031 447.773438 597.820312 C 455.675781 591.539062 467.226562 585.257812 482.421875 579.382812 C 493.566406 575.128906 503.492188 573.101562 512 573.101562 C 523.144531 573.101562 532.058594 576.75 538.949219 584.042969 C 546.648438 594.375 545.835938 606.332031 536.316406 620.917969 L 533.074219 625.984375 L 539.152344 626.996094 C 553.335938 629.429688 561.4375 634.898438 563.667969 643.613281 C 566.097656 652.730469 565.492188 660.023438 561.640625 665.898438 L 561.4375 666.101562 C 559.414062 669.75 557.183594 672.789062 554.347656 675.421875 C 541.785156 687.984375 525.375 697.304688 505.722656 703.382812 L 505.519531 703.382812 C 500.453125 705.410156 491.132812 708.246094 477.964844 711.894531 Z M 516.863281 644.828125 C 516.054688 644.828125 515.242188 644.828125 514.433594 645.03125 C 508.152344 645.839844 500.65625 648.878906 491.539062 654.554688 L 489.105469 656.175781 L 489.714844 659.011719 C 491.335938 665.492188 492.957031 671.371094 494.984375 676.636719 L 496.199219 680.082031 L 499.644531 679.273438 C 514.839844 675.828125 523.957031 670.964844 527.804688 664.480469 C 529.832031 660.835938 530.238281 656.984375 529.019531 652.730469 L 528.820312 652.324219 L 528.617188 651.917969 C 526.183594 647.257812 522.132812 644.828125 516.863281 644.828125 Z M 499.035156 601.0625 C 492.753906 601.875 486.269531 604.304688 479.382812 608.152344 L 476.75 609.574219 L 477.558594 612.613281 C 478.976562 618.285156 480.800781 623.957031 482.828125 629.429688 L 484.042969 632.875 L 487.6875 631.859375 C 500.65625 628.414062 508.152344 624.160156 510.988281 618.488281 C 512.609375 615.449219 512.609375 612.003906 511.191406 608.558594 C 509.367188 603.695312 505.316406 601.0625 500.046875 601.0625 C 499.644531 601.0625 499.035156 601.0625 499.035156 601.0625 Z M 623.234375 671.167969 C 614.523438 671.167969 605.203125 669.546875 595.679688 666.507812 C 583.523438 661.035156 573.59375 651.3125 566.097656 637.734375 C 561.84375 629.023438 559.007812 620.109375 557.386719 610.789062 C 551.914062 554.054688 574.40625 520.015625 626.476562 506.644531 C 632.757812 504.820312 638.835938 504.011719 644.710938 504.011719 C 658.082031 504.011719 670.644531 508.671875 682.191406 517.992188 C 690.5 526.5 696.375 536.832031 699.820312 548.585938 C 703.667969 561.753906 704.683594 576.34375 703.0625 591.742188 C 700.429688 608.558594 695.160156 622.742188 687.664062 633.683594 C 669.632812 658.402344 647.953125 671.167969 623.234375 671.167969 Z M 636.605469 553.449219 C 633.769531 553.449219 630.730469 553.851562 627.488281 554.664062 C 615.738281 557.296875 607.023438 564.1875 601.351562 574.925781 L 601.148438 575.128906 C 595.273438 588.296875 595.476562 600.65625 601.757812 611.597656 L 602.164062 612.003906 C 609.050781 620.917969 616.953125 625.375 625.867188 625.375 C 628.703125 625.375 631.742188 624.972656 634.984375 623.957031 L 635.1875 623.957031 C 649.371094 618.488281 658.285156 607.75 661.933594 591.539062 C 663.554688 582.828125 662.742188 575.128906 659.703125 568.644531 L 659.5 568.441406 C 654.234375 558.3125 646.535156 553.449219 636.605469 553.449219 Z M 746.421875 647.460938 C 738.519531 647.460938 730.007812 646.042969 721.296875 643.207031 C 710.152344 638.140625 701.238281 629.429688 694.351562 617.070312 C 690.5 609.167969 687.867188 600.859375 686.449219 592.554688 C 681.382812 540.886719 702.046875 509.683594 749.460938 497.527344 C 755.132812 495.90625 760.804688 495.09375 766.074219 495.09375 C 778.230469 495.09375 789.777344 499.351562 800.3125 507.859375 C 807.808594 515.558594 813.28125 525.082031 816.320312 535.820312 C 819.765625 547.773438 820.777344 561.148438 819.359375 575.128906 C 816.929688 590.324219 812.269531 603.292969 805.175781 613.421875 C 788.359375 636.316406 769.113281 647.460938 746.421875 647.460938 Z M 758.578125 539.671875 C 755.941406 539.671875 753.105469 540.074219 750.066406 540.886719 C 739.328125 543.316406 731.023438 549.597656 725.957031 559.527344 L 725.753906 559.730469 C 720.484375 571.886719 720.6875 583.234375 726.363281 593.363281 L 726.5625 593.566406 L 726.765625 593.769531 C 733.046875 602.074219 740.542969 606.128906 748.648438 606.128906 C 751.28125 606.128906 754.121094 605.722656 756.957031 604.710938 L 757.160156 604.710938 C 770.125 599.644531 778.433594 589.714844 781.875 574.722656 C 783.292969 566.617188 782.6875 559.527344 779.851562 553.449219 L 779.648438 553.246094 C 774.988281 544.332031 767.898438 539.671875 758.578125 539.671875 Z M 893.3125 623.554688 C 896.554688 617.675781 903.441406 605.113281 917.21875 577.964844 L 924.917969 579.789062 C 925.324219 604.914062 925.730469 616.054688 925.929688 620.714844 C 937.074219 620.109375 947.609375 618.894531 957.539062 617.273438 C 957.945312 571.886719 957.335938 531.769531 955.917969 497.929688 C 947.003906 496.917969 938.492188 496.511719 930.589844 496.511719 C 926.539062 496.511719 922.691406 496.714844 918.839844 496.917969 C 908.304688 525.691406 900.808594 543.113281 896.148438 550.003906 L 892.703125 555.273438 L 889.460938 550.003906 C 886.828125 545.75 882.574219 536.429688 876.496094 521.636719 C 871.632812 509.480469 867.578125 500.363281 864.742188 494.285156 C 853.398438 496.109375 840.429688 499.550781 826.246094 504.210938 C 825.84375 539.0625 826.652344 578.574219 828.476562 622.335938 C 839.214844 621.730469 849.546875 620.511719 859.882812 618.894531 C 859.882812 603.089844 859.882812 588.90625 859.679688 576.34375 L 867.378906 574.519531 Z M 990.765625 623.957031 C 986.917969 623.957031 982.863281 622.945312 981.445312 615.449219 C 981.039062 609.371094 983.472656 604.507812 988.738281 600.453125 C 993.195312 597.011719 997.65625 595.1875 1001.707031 595.1875 C 1002.515625 595.1875 1003.328125 595.1875 1004.339844 595.390625 C 1010.417969 597.414062 1013.054688 600.859375 1013.054688 606.535156 C 1012.648438 611.394531 1010.824219 615.449219 1007.582031 618.285156 C 1003.933594 621.730469 998.464844 623.554688 991.578125 623.957031 C 991.375 623.957031 991.171875 623.957031 990.765625 623.957031 Z M 978.8125 588.09375 C 973.949219 569.453125 967.464844 541.089844 959.5625 504.011719 C 971.722656 499.753906 982.863281 496.3125 993.398438 493.878906 C 999.277344 533.59375 1003.328125 562.566406 1005.554688 580.191406 C 996.640625 583.03125 987.726562 585.664062 978.8125 588.09375 Z M 978.8125 588.09375 "/></g></svg>