<svg xmlns="http://www.w3.org/2000/svg" xmlns:xlink="http://www.w3.org/1999/xlink" width="2000" zoomAndPan="magnify" viewBox="0 0 1500 1124.99995" height="1500" preserveAspectRatio="xMidYMid meet" version="1.2"><defs><clipPath id="4a38f8166f"><path d="M 384.714844 280.167969 L 1115.214844 280.167969 L 1115.214844 844.917969 L 384.714844 844.917969 Z M 384.714844 280.167969 "/></clipPath></defs><g id="0f2697c68c"><g clip-rule="nonzero" clip-path="url(#4a38f8166f)"><path style=" stroke:none;fill-rule:nonzero;fill:#000000;fill-opacity:1;" d="M 618.382812 719.917969 L 435.019531 745.175781 L 558.253906 662.195312 L 442.871094 648.929688 L 531.328125 600.75 L 384.890625 520.089844 L 534.375 494.835938 L 491.121094 420.074219 L 573.160156 428.761719 L 547.078125 306.238281 L 664.789062 383.679688 L 709.316406 280.164062 L 768.984375 392.78125 L 844.488281 314.753906 L 850.425781 388.890625 L 1006.351562 332.347656 L 969.253906 435.464844 L 1071.640625 428.554688 L 1010.304688 506.152344 L 1115.039062 521.285156 L 1038.40625 574.519531 L 1105.746094 619.007812 L 1014.710938 637.558594 L 1078.773438 747.015625 L 935.445312 699.820312 L 950.832031 827.351562 L 824.835938 745.914062 L 753.878906 834.429688 L 712.140625 740.921875 L 571.890625 844.917969 Z M 618.382812 719.917969 "/></g><path style=" stroke:none;fill-rule:nonzero;fill:#ff1900;fill-opacity:1;" d="M 720.820312 707.816406 L 617.144531 784.695312 L 650.949219 693.804688 L 523.613281 711.34375 L 618.371094 647.542969 L 512.550781 635.375 L 575.925781 600.855469 L 449.058594 530.976562 L 568.371094 510.820312 L 530.761719 445.816406 L 600.253906 453.175781 L 578.890625 352.808594 L 674.367188 415.625 L 711.324219 329.707031 L 763.863281 428.875 L 826.921875 363.714844 L 831.316406 418.609375 L 970.742188 368.050781 L 938.003906 459.046875 L 1024.867188 453.183594 L 970.441406 522.042969 L 1058.160156 534.714844 L 1000.21875 574.96875 L 1050.75 608.351562 L 981.101562 622.546875 L 1031.675781 708.953125 L 910.144531 668.933594 L 924.09375 784.5625 L 820.222656 717.421875 L 759.128906 793.636719 Z M 720.820312 707.816406 "/><path style=" stroke:none;fill-rule:nonzero;fill:#ffaa00;fill-opacity:1;" d="M 727.765625 681.332031 L 653.347656 736.511719 L 677.003906 672.914062 L 594.492188 684.28125 L 666.464844 635.816406 L 568.289062 624.53125 L 611.601562 600.941406 L 500.394531 539.6875 L 595.566406 523.605469 L 562.476562 466.410156 L 621.929688 472.707031 L 604.339844 390.070312 L 682.03125 441.179688 L 712.929688 369.339844 L 759.769531 457.75 L 812.867188 402.878906 L 816.03125 442.386719 L 942.257812 396.613281 L 913.003906 477.914062 L 987.449219 472.890625 L 938.550781 534.753906 L 1012.65625 545.457031 L 969.664062 575.324219 L 1006.753906 599.824219 L 954.21875 610.53125 L 993.996094 678.5 L 889.902344 644.226562 L 902.707031 750.328125 L 816.53125 694.628906 L 763.328125 761 Z M 727.765625 681.332031 "/><path style=" stroke:none;fill-rule:nonzero;fill:#000000;fill-opacity:1;" d="M 958.257812 466.714844 L 954.445312 417.261719 L 1061.695312 417.261719 L 1059.304688 446.261719 L 1086.355469 446.261719 L 1070.671875 636.070312 L 1067.992188 636.070312 C 1071.074219 641.761719 1072.835938 648.277344 1072.835938 655.207031 C 1072.835938 677.378906 1054.851562 695.367188 1032.683594 695.367188 C 1013.40625 695.367188 997.296875 681.761719 993.421875 663.628906 C 979.738281 658.285156 969.714844 645.652344 968.101562 630.511719 C 952.234375 642.671875 931.203125 647.105469 910.957031 646.039062 L 910.234375 703.613281 L 817.292969 697.597656 L 817.527344 685.984375 L 736 682.6875 L 731.839844 662.316406 L 728.386719 687.441406 L 652.757812 677.109375 L 654.308594 690.277344 L 507.84375 706.652344 L 502.460938 675.5 L 483.1875 677.65625 L 468.417969 592.300781 L 490.910156 562.046875 L 490.074219 552.808594 L 468.429688 557.136719 L 459.566406 459.316406 L 601.175781 438.964844 L 605.941406 470.820312 L 625.839844 467.960938 L 633.382812 518.398438 L 657.546875 428.8125 L 758.804688 422.480469 L 766.75 452.519531 L 783.472656 451.476562 L 796.019531 498.949219 L 797.0625 446.941406 L 807.667969 443.136719 C 833.628906 433.824219 869.289062 428.808594 896.394531 432.15625 C 906.734375 433.429688 916.953125 435.917969 926.535156 440.050781 C 939.894531 445.816406 950.445312 455.199219 958.257812 466.714844 Z M 958.257812 466.714844 "/><path style=" stroke:none;fill-rule:nonzero;fill:#fff000;fill-opacity:1;" d="M 477.265625 473.296875 L 587.402344 457.46875 L 596.003906 514.878906 L 553.074219 587.234375 L 603.757812 581.082031 L 611.488281 646.851562 L 496.671875 659.6875 L 485.734375 596.429688 L 537.621094 526.621094 L 483.066406 537.53125 Z M 477.265625 473.296875 "/><path style=" stroke:none;fill-rule:nonzero;fill:#fff000;fill-opacity:1;" d="M 620.09375 630.503906 L 670.285156 444.40625 L 746.433594 439.644531 L 799.65625 640.890625 L 724.800781 637.863281 L 719.4375 611.582031 C 710.433594 611.675781 701.15625 611.796875 693.621094 611.890625 L 689.75 640.027344 Z M 709.148438 561.207031 L 704.03125 536.15625 L 700.621094 560.960938 Z M 709.148438 561.207031 "/><path style=" stroke:none;fill-rule:nonzero;fill:#fff000;fill-opacity:1;" d="M 813.1875 458.535156 L 809.292969 653.289062 L 869.441406 657.179688 L 870.1875 598.289062 C 894.089844 603.925781 924.945312 601.050781 941.261719 581.011719 C 969.820312 545.957031 964.199219 474.113281 920.0625 455.070312 C 875.933594 436.027344 813.195312 458.535156 813.195312 458.535156 Z M 870.867188 544.097656 L 871.222656 515.929688 C 881.074219 513.886719 894.695312 513.171875 894.972656 524.746094 C 895.238281 536.203125 881.25 541.640625 870.867188 544.097656 Z M 870.867188 544.097656 "/><path style=" stroke:none;fill-rule:nonzero;fill:#fff000;fill-opacity:1;" d="M 984.230469 590.722656 L 1030.960938 590.722656 L 1043.9375 433.621094 L 972.113281 433.621094 Z M 1008.027344 602.40625 C 1021.167969 602.40625 1031.828125 613.0625 1031.828125 626.210938 C 1031.828125 639.355469 1021.167969 650.011719 1008.027344 650.011719 C 994.886719 650.011719 984.230469 639.355469 984.230469 626.210938 C 984.230469 613.0625 994.886719 602.40625 1008.027344 602.40625 Z M 1008.027344 602.40625 "/></g></svg>