<svg xmlns="http://www.w3.org/2000/svg" xmlns:xlink="http://www.w3.org/1999/xlink" width="2000" zoomAndPan="magnify" viewBox="0 0 1500 1124.99995" height="1500" preserveAspectRatio="xMidYMid meet" version="1.2"><defs><clipPath id="9c2c43ac71"><path d="M 424 264.789062 L 1021 264.789062 L 1021 860.289062 L 424 860.289062 Z M 424 264.789062 "/></clipPath><clipPath id="1f0cef74b1"><path d="M 917 381 L 1080.863281 381 L 1080.863281 589 L 917 589 Z M 917 381 "/></clipPath></defs><g id="923cd1e96c"><g clip-rule="nonzero" clip-path="url(#9c2c43ac71)"><path style=" stroke:none;fill-rule:nonzero;fill:#000000;fill-opacity:1;" d="M 662.847656 813.851562 C 668.691406 806.796875 673.132812 798.949219 676.171875 790.308594 C 678.402344 783.820312 679.761719 777.15625 680.253906 770.316406 C 680.742188 763.472656 680.347656 756.683594 679.0625 749.945312 C 612.203125 748.175781 546.25 739.519531 481.199219 723.980469 L 473.152344 722.0625 L 469.964844 714.429688 C 461.148438 693.359375 453.578125 671.851562 447.25 649.910156 C 440.921875 627.964844 435.882812 605.726562 432.128906 583.199219 C 428.375 560.671875 425.933594 538 424.804688 515.191406 C 423.675781 492.378906 423.863281 469.582031 425.375 446.792969 L 426.039062 436.671875 L 435.421875 432.820312 C 510.964844 401.785156 588.675781 373.105469 666.40625 347.574219 C 758.90625 317.160156 854.078125 290.363281 949.273438 267.929688 L 962.632812 264.78125 L 967.984375 277.417969 C 981.152344 308.503906 991.894531 340.40625 1000.210938 373.125 C 1008.523438 405.84375 1014.316406 439 1017.589844 472.601562 C 1019.390625 491.085938 1020.421875 509.613281 1020.671875 528.183594 C 1020.925781 546.753906 1020.402344 565.300781 1019.105469 583.828125 C 1017.804688 602.355469 1015.734375 620.796875 1012.890625 639.148438 C 1010.046875 657.5 1006.441406 675.703125 1002.078125 693.757812 L 999.929688 702.65625 L 991.207031 705.4375 C 958.117188 715.988281 924.546875 724.703125 890.503906 731.574219 C 856.457031 738.445312 822.136719 743.433594 787.542969 746.542969 C 782.503906 746.988281 777.464844 747.394531 772.558594 747.753906 C 770.5625 747.898438 768.566406 748.035156 766.566406 748.167969 C 764.199219 756.152344 761.148438 763.867188 757.417969 771.3125 C 753.683594 778.757812 749.328125 785.816406 744.34375 792.488281 C 740.328125 797.816406 735.949219 802.828125 731.214844 807.527344 C 726.480469 812.222656 721.433594 816.558594 716.074219 820.535156 C 710.714844 824.507812 705.101562 828.078125 699.230469 831.246094 C 693.359375 834.414062 687.292969 837.148438 681.027344 839.445312 L 624.664062 860.214844 Z M 662.847656 813.851562 "/></g><path style=" stroke:none;fill-rule:nonzero;fill:#6deb2f;fill-opacity:1;" d="M 978.914062 682.328125 C 946.394531 692.707031 913.402344 701.273438 879.9375 708.027344 C 846.476562 714.78125 812.742188 719.679688 778.742188 722.730469 C 767.769531 723.699219 756.960938 724.46875 746.328125 725.035156 C 745.820312 727.609375 745.230469 730.164062 744.5625 732.699219 C 743.890625 735.234375 743.140625 737.75 742.308594 740.238281 C 741.476562 742.726562 740.566406 745.183594 739.578125 747.613281 C 738.589844 750.042969 737.523438 752.441406 736.378906 754.800781 C 735.238281 757.164062 734.019531 759.484375 732.726562 761.769531 C 731.433594 764.050781 730.070312 766.292969 728.636719 768.488281 C 727.199219 770.683594 725.695312 772.832031 724.121094 774.929688 C 722.546875 777.027344 720.90625 779.074219 719.203125 781.070312 C 717.496094 783.0625 715.730469 785 713.902344 786.882812 C 712.070312 788.761719 710.183594 790.582031 708.238281 792.34375 C 706.289062 794.101562 704.289062 795.796875 702.234375 797.429688 C 700.179688 799.058594 698.074219 800.621094 695.917969 802.117188 C 693.761719 803.613281 691.5625 805.039062 689.316406 806.394531 C 687.066406 807.75 684.78125 809.03125 682.449219 810.238281 C 680.121094 811.445312 677.753906 812.578125 675.351562 813.636719 C 672.949219 814.691406 670.519531 815.667969 668.054688 816.570312 C 675.121094 808.023438 680.496094 798.519531 684.175781 788.054688 C 693.222656 762.199219 688.359375 738.683594 684.515625 726.308594 C 649.664062 725.855469 614.941406 723.476562 580.355469 719.167969 C 545.765625 714.863281 511.523438 708.65625 477.625 700.546875 C 469.050781 680.054688 461.683594 659.140625 455.53125 637.796875 C 449.375 616.453125 444.472656 594.824219 440.820312 572.914062 C 437.171875 551.003906 434.796875 528.953125 433.699219 506.769531 C 432.597656 484.582031 432.785156 462.40625 434.253906 440.242188 C 505.265625 411.070312 581.972656 382.394531 664.132812 355.40625 C 763.246094 322.820312 857.574219 296.898438 945.65625 276.140625 C 958.496094 306.46875 968.96875 337.59375 977.082031 369.515625 C 985.195312 401.433594 990.851562 433.78125 994.050781 466.5625 C 995.800781 484.59375 996.796875 502.671875 997.039062 520.789062 C 997.285156 538.90625 996.769531 557.003906 995.503906 575.078125 C 994.234375 593.152344 992.214844 611.140625 989.445312 629.046875 C 986.675781 646.953125 983.167969 664.714844 978.914062 682.328125 Z M 978.914062 682.328125 "/><path style=" stroke:none;fill-rule:nonzero;fill:#fcd92d;fill-opacity:1;" d="M 484.886719 660.351562 C 486.9375 641.757812 489.140625 623.160156 491.492188 604.558594 C 490.089844 592.371094 488.320312 579.984375 486.191406 567.398438 C 484.050781 554.816406 481.765625 542.320312 479.335938 529.910156 C 477.097656 517.445312 474.390625 503.695312 471.222656 488.664062 C 486.976562 478.398438 502.957031 468.332031 519.164062 458.460938 C 520.089844 468.960938 521.015625 479.464844 521.949219 489.964844 C 522.839844 499.949219 523.59375 508.957031 524.214844 516.988281 C 524.832031 525.023438 525.417969 532.050781 525.96875 538.070312 C 527.984375 531.511719 530.441406 523.421875 533.394531 513.804688 C 536.339844 504.195312 539.113281 494.914062 541.714844 485.964844 C 543.351562 480.613281 544.957031 475.226562 546.527344 469.808594 C 548.089844 464.398438 549.714844 458.761719 551.390625 452.894531 C 567.539062 451.859375 583.6875 451.027344 599.832031 450.394531 C 591.636719 467.101562 583.882812 483.886719 576.570312 500.757812 C 572.316406 511.089844 567.734375 522.027344 562.820312 533.558594 C 557.917969 545.097656 553.457031 555.863281 549.429688 565.847656 C 545.390625 575.832031 542.304688 583.785156 540.085938 589.695312 C 539.519531 594.441406 538.765625 599.683594 537.828125 605.417969 C 536.890625 611.15625 535.992188 616.621094 535.128906 621.816406 C 534.636719 624.789062 534.058594 627.824219 533.394531 630.933594 C 532.730469 634.042969 532.074219 637.195312 531.433594 640.394531 C 515.777344 646.839844 500.261719 653.492188 484.886719 660.351562 Z M 484.886719 660.351562 "/><path style=" stroke:none;fill-rule:nonzero;fill:#000000;fill-opacity:1;" d="M 480.460938 666.414062 L 481.171875 659.941406 C 483.203125 641.554688 485.40625 622.917969 487.726562 604.539062 C 486.332031 592.484375 484.574219 580.199219 482.507812 568.023438 C 480.347656 555.332031 478.046875 542.75 475.671875 530.625 C 473.410156 518.050781 470.6875 504.210938 467.566406 489.433594 L 467.039062 486.929688 L 469.183594 485.53125 C 484.941406 475.265625 501.105469 465.085938 517.222656 455.269531 L 522.363281 452.140625 L 522.886719 458.132812 C 523.8125 468.636719 524.738281 479.136719 525.671875 489.632812 C 526.53125 499.289062 527.292969 508.394531 527.9375 516.699219 C 527.984375 517.277344 528.027344 517.851562 528.070312 518.421875 C 528.632812 516.578125 529.21875 514.675781 529.824219 512.710938 C 532.945312 502.511719 535.664062 493.421875 538.125 484.925781 C 539.800781 479.449219 541.414062 474.03125 542.9375 468.773438 C 544.503906 463.363281 546.121094 457.730469 547.796875 451.867188 L 548.523438 449.332031 L 551.152344 449.164062 C 567.261719 448.136719 583.589844 447.292969 599.6875 446.660156 L 605.945312 446.414062 L 603.1875 452.039062 C 595.089844 468.546875 587.289062 485.4375 580 502.242188 C 576.171875 511.539062 571.796875 521.976562 566.257812 535.019531 C 561.726562 545.683594 557.230469 556.527344 552.894531 567.246094 C 549.414062 575.847656 546.253906 583.90625 543.738281 590.585938 C 543.175781 595.265625 542.429688 600.453125 541.515625 606.019531 C 540.578125 611.761719 539.679688 617.230469 538.816406 622.429688 C 538.324219 625.375 537.730469 628.496094 537.050781 631.707031 C 536.382812 634.8125 535.734375 637.953125 535.097656 641.128906 L 534.703125 643.085938 L 532.859375 643.847656 C 517.347656 650.234375 501.71875 656.933594 486.410156 663.761719 Z M 475.40625 490.398438 C 478.320312 504.308594 480.878906 517.367188 483.015625 529.246094 C 485.394531 541.371094 487.703125 554.015625 489.875 566.769531 C 491.988281 579.230469 493.785156 591.800781 495.203125 604.132812 L 495.253906 604.582031 L 495.195312 605.027344 C 493.132812 621.363281 491.160156 637.90625 489.320312 654.296875 C 502.171875 648.621094 515.203125 643.054688 528.167969 637.699219 C 528.683594 635.15625 529.210938 632.640625 529.742188 630.152344 C 530.398438 627.054688 530.972656 624.039062 531.445312 621.203125 C 532.304688 616.015625 533.203125 610.554688 534.140625 604.816406 C 535.066406 599.175781 535.816406 593.941406 536.375 589.253906 L 536.429688 588.804688 L 536.585938 588.382812 C 539.148438 581.5625 542.390625 573.285156 545.964844 564.445312 C 550.320312 553.6875 554.832031 542.804688 559.378906 532.101562 C 564.90625 519.082031 569.273438 508.671875 573.117188 499.335938 C 579.648438 484.273438 586.566406 469.195312 593.734375 454.382812 C 580.609375 454.9375 567.371094 455.632812 554.257812 456.453125 C 552.835938 461.417969 551.453125 466.21875 550.113281 470.847656 C 548.582031 476.144531 546.957031 481.597656 545.285156 487.058594 C 542.828125 495.539062 540.101562 504.664062 536.964844 514.898438 C 535.378906 520.066406 533.933594 524.789062 532.628906 529.070312 C 531.5 532.765625 530.46875 536.128906 529.539062 539.167969 L 523.964844 557.3125 L 522.246094 538.410156 C 521.679688 532.183594 521.089844 525.074219 520.488281 517.277344 C 519.847656 509 519.085938 499.921875 518.230469 490.296875 C 517.472656 481.796875 516.71875 473.292969 515.972656 464.792969 C 502.355469 473.144531 488.746094 481.734375 475.40625 490.398438 Z M 475.40625 490.398438 "/><path style=" stroke:none;fill-rule:nonzero;fill:#fcd92d;fill-opacity:1;" d="M 572.324219 638.683594 C 579.988281 574.140625 589.179688 509.628906 599.898438 445.148438 C 632.503906 435.367188 665.511719 426.402344 698.917969 418.257812 C 697.425781 422.300781 696.148438 426.410156 695.089844 430.585938 C 694.027344 434.058594 693.03125 437.648438 692.09375 441.359375 C 691.152344 445.070312 690.375 448.367188 689.757812 451.242188 C 687.054688 451.90625 683.21875 452.746094 678.246094 453.757812 C 673.273438 454.78125 668.203125 455.839844 663.039062 456.9375 C 657.871094 458.039062 653.433594 458.96875 649.726562 459.726562 C 646.015625 460.480469 644.054688 460.886719 643.851562 460.929688 C 640.636719 477.136719 637.519531 493.351562 634.507812 509.570312 C 640.316406 508.050781 646.140625 506.558594 651.972656 505.089844 C 654.179688 504.460938 656.445312 503.910156 658.765625 503.433594 C 661.082031 502.960938 663.355469 502.507812 665.578125 502.0625 C 667.796875 501.621094 669.816406 501.222656 671.636719 500.863281 C 673.078125 500.609375 674.492188 500.246094 675.878906 499.78125 C 675.496094 502.28125 675.167969 504.726562 674.898438 507.113281 C 674.621094 509.507812 674.296875 511.953125 673.921875 514.449219 C 673.074219 519.378906 672.234375 524.308594 671.40625 529.238281 C 670.140625 529.683594 668.847656 530.027344 667.527344 530.273438 C 665.933594 530.59375 664.046875 530.976562 661.863281 531.425781 C 659.679688 532.046875 657.398438 532.605469 655.019531 533.097656 C 652.636719 533.59375 650.359375 534.160156 648.183594 534.796875 C 645.609375 535.515625 642.941406 536.175781 640.171875 536.777344 C 637.402344 537.378906 634.4375 538.113281 631.289062 538.988281 C 628.492188 555.621094 625.800781 572.261719 623.210938 588.90625 C 637.140625 583.660156 651.179688 578.570312 665.324219 573.644531 C 664.539062 583.691406 663.773438 593.742188 663.03125 603.792969 C 632.277344 614.65625 602.042969 626.285156 572.324219 638.683594 Z M 572.324219 638.683594 "/><path style=" stroke:none;fill-rule:nonzero;fill:#000000;fill-opacity:1;" d="M 567.859375 644.59375 L 568.613281 638.242188 C 576.257812 573.890625 585.542969 508.71875 596.210938 444.535156 L 596.59375 442.238281 L 598.824219 441.570312 C 631.445312 431.785156 664.824219 422.71875 698.03125 414.628906 L 704.847656 412.964844 L 702.421875 419.546875 C 700.976562 423.46875 699.738281 427.453125 698.710938 431.503906 L 698.664062 431.675781 C 697.652344 434.980469 696.660156 438.546875 695.714844 442.277344 C 694.800781 445.878906 694.027344 449.160156 693.410156 452.03125 L 692.917969 454.3125 L 690.648438 454.871094 C 688 455.523438 684.1875 456.355469 678.992188 457.417969 C 674.03125 458.4375 668.972656 459.496094 663.816406 460.589844 C 658.636719 461.695312 654.191406 462.628906 650.472656 463.386719 C 649.078125 463.667969 647.933594 463.902344 647.035156 464.085938 C 644.390625 477.441406 641.785156 490.992188 639.257812 504.476562 C 643.1875 503.460938 647.121094 502.457031 651.0625 501.46875 C 653.253906 500.839844 655.636719 500.257812 658.023438 499.773438 C 660.34375 499.300781 662.617188 498.84375 664.847656 498.398438 C 667.070312 497.957031 669.09375 497.554688 670.917969 497.199219 C 672.164062 496.980469 673.390625 496.667969 674.59375 496.273438 L 680.53125 494.101562 L 679.574219 500.347656 C 679.207031 502.71875 678.882812 505.136719 678.609375 507.539062 C 678.335938 509.886719 678.003906 512.398438 677.617188 515 C 676.757812 520.007812 675.917969 524.933594 675.089844 529.859375 L 674.730469 531.984375 L 672.714844 532.738281 C 671.261719 533.253906 669.78125 533.652344 668.265625 533.9375 C 666.707031 534.25 664.867188 534.621094 662.75 535.054688 C 660.570312 535.671875 658.230469 536.242188 655.78125 536.753906 C 653.539062 537.222656 651.332031 537.769531 649.222656 538.382812 C 646.601562 539.121094 643.832031 539.804688 640.964844 540.425781 C 638.972656 540.859375 636.832031 541.375 634.574219 541.96875 C 632.289062 555.636719 630.046875 569.453125 627.890625 583.164062 C 639.894531 578.691406 652.042969 574.3125 664.09375 570.117188 L 669.492188 568.234375 L 669.046875 573.933594 C 668.261719 583.976562 667.5 594.023438 666.757812 604.066406 L 666.578125 606.5 L 664.273438 607.316406 C 633.847656 618.0625 603.394531 629.777344 573.761719 642.132812 Z M 603.203125 448.058594 C 593.0625 509.273438 584.179688 571.378906 576.792969 632.789062 C 603.933594 621.589844 631.710938 610.9375 659.484375 601.085938 C 660.03125 593.742188 660.585938 586.402344 661.15625 579.058594 C 648.925781 583.363281 636.628906 587.84375 624.527344 592.402344 L 618.535156 594.660156 L 619.519531 588.332031 C 622.101562 571.742188 624.820312 554.933594 627.601562 538.371094 L 627.996094 536.023438 L 630.292969 535.386719 C 633.53125 534.492188 636.589844 533.730469 639.378906 533.125 C 642.101562 532.535156 644.722656 531.886719 647.171875 531.199219 C 649.433594 530.542969 651.824219 529.949219 654.253906 529.441406 C 656.578125 528.957031 658.792969 528.414062 660.839844 527.832031 L 661.113281 527.765625 C 663.300781 527.316406 665.195312 526.933594 666.792969 526.613281 C 667.265625 526.515625 667.703125 526.421875 668.109375 526.324219 C 668.8125 522.15625 669.523438 517.988281 670.238281 513.816406 C 670.601562 511.378906 670.921875 508.949219 671.1875 506.683594 C 671.261719 506.027344 671.339844 505.371094 671.421875 504.714844 C 669.855469 505.023438 668.152344 505.359375 666.308594 505.726562 C 664.085938 506.167969 661.820312 506.625 659.511719 507.09375 C 657.3125 507.542969 655.121094 508.074219 652.996094 508.679688 C 647.0625 510.175781 641.25 511.667969 635.453125 513.183594 L 629.757812 514.675781 L 630.832031 508.890625 C 633.847656 492.65625 636.996094 476.277344 640.1875 460.203125 L 640.671875 457.765625 L 643.324219 457.222656 C 643.96875 457.089844 645.851562 456.703125 648.984375 456.066406 C 652.683594 455.3125 657.109375 454.382812 662.257812 453.285156 C 667.433594 452.183594 672.507812 451.121094 677.492188 450.097656 C 681.257812 449.328125 684.269531 448.6875 686.613281 448.148438 C 687.148438 445.785156 687.773438 443.203125 688.472656 440.441406 C 689.4375 436.628906 690.453125 432.976562 691.488281 429.582031 C 692.003906 427.558594 692.574219 425.53125 693.199219 423.507812 C 663.058594 430.964844 632.824219 439.210938 603.203125 448.058594 Z M 603.203125 448.058594 "/><path style=" stroke:none;fill-rule:nonzero;fill:#fcd92d;fill-opacity:1;" d="M 740.40625 601.273438 C 740.855469 598.273438 741.300781 595.355469 741.75 592.527344 C 742.195312 589.703125 742.644531 586.875 743.097656 584.042969 C 743.789062 579.109375 744.492188 574.175781 745.195312 569.242188 C 745.449219 566.792969 745.703125 564.515625 745.953125 562.410156 C 746.199219 560.304688 746.445312 558.371094 746.6875 556.613281 C 738.101562 557.992188 729.539062 559.429688 720.992188 560.925781 C 716.917969 574.054688 712.9375 587.199219 709.050781 600.355469 C 704.816406 601.660156 699.832031 603.167969 694.09375 604.882812 C 688.355469 606.605469 683.015625 608.234375 678.066406 609.769531 C 675.023438 610.738281 672.03125 611.703125 669.089844 612.664062 C 666.144531 613.632812 663.160156 614.613281 660.140625 615.609375 C 667.097656 591.363281 674.382812 567.164062 681.996094 543 C 684.691406 534.339844 687.832031 524.484375 691.410156 513.4375 C 695.003906 502.394531 698.714844 491.089844 702.546875 479.53125 C 706.382812 467.96875 710.074219 457.101562 713.628906 446.933594 C 717.171875 436.757812 720.0625 428.222656 722.296875 421.316406 C 736.679688 418.121094 751.398438 414.875 766.457031 411.570312 C 781.519531 408.277344 796.308594 404.761719 810.820312 401.03125 C 809.160156 410.816406 807.503906 421.847656 805.851562 434.125 C 804.199219 446.40625 802.652344 459.0625 801.214844 472.09375 C 799.773438 485.125 798.316406 497.992188 796.84375 510.699219 C 795.808594 522.660156 794.671875 535.023438 793.433594 547.789062 C 792.195312 560.554688 790.960938 573.621094 789.734375 586.996094 C 786.796875 587.75 783.859375 588.511719 780.929688 589.273438 C 778 590.042969 775.070312 590.816406 772.148438 591.59375 C 767.269531 593.011719 761.917969 594.609375 756.089844 596.386719 C 750.265625 598.175781 745.035156 599.804688 740.40625 601.273438 Z M 728.476562 533.78125 C 729.671875 533.578125 731.921875 533.117188 735.21875 532.398438 C 738.519531 531.6875 741.667969 531.003906 744.675781 530.351562 C 747.683594 529.699219 749.484375 529.328125 750.085938 529.238281 C 750.148438 526.992188 750.679688 522.351562 751.679688 515.316406 C 752.683594 508.285156 753.710938 500.90625 754.765625 493.179688 C 755.3125 488.628906 755.921875 483.9375 756.585938 479.109375 C 757.25 474.285156 757.980469 469.320312 758.769531 464.21875 C 759.644531 456.613281 760.527344 449.007812 761.421875 441.402344 C 759.84375 441.714844 758.269531 442.03125 756.695312 442.347656 C 754.042969 450.128906 751.417969 457.914062 748.828125 465.703125 C 741.796875 488.359375 735.011719 511.050781 728.476562 533.78125 Z M 728.476562 533.78125 "/><path style=" stroke:none;fill-rule:nonzero;fill:#000000;fill-opacity:1;" d="M 654.601562 621.363281 L 656.546875 614.578125 C 663.492188 590.371094 670.859375 565.914062 678.433594 541.878906 C 681.363281 532.457031 684.539062 522.496094 687.859375 512.28125 C 691.769531 500.25 695.417969 489.152344 699 478.351562 C 702.644531 467.375 706.375 456.390625 710.097656 445.703125 C 713.929688 434.71875 716.675781 426.605469 718.742188 420.171875 L 719.394531 418.132812 L 721.488281 417.667969 C 735.871094 414.476562 750.597656 411.226562 765.660156 407.917969 C 780.652344 404.644531 795.53125 401.109375 809.886719 397.414062 L 815.464844 395.976562 L 814.503906 401.65625 C 812.859375 411.359375 811.195312 422.449219 809.554688 434.621094 C 807.914062 446.796875 806.359375 459.542969 804.929688 472.503906 C 803.523438 485.210938 802.050781 498.203125 800.554688 511.128906 C 799.511719 523.179688 798.363281 535.671875 797.152344 548.148438 C 795.929688 560.738281 794.6875 573.921875 793.457031 587.335938 L 793.214844 589.957031 L 790.667969 590.613281 C 787.730469 591.367188 784.800781 592.125 781.875 592.886719 C 778.949219 593.65625 776.027344 594.425781 773.109375 595.203125 C 767.976562 596.695312 762.589844 598.304688 757.183594 599.960938 C 751.371094 601.742188 746.152344 603.367188 741.53125 604.835938 L 735.828125 606.636719 L 736.710938 600.722656 C 737.160156 597.707031 737.609375 594.78125 738.058594 591.9375 C 738.503906 589.117188 738.953125 586.285156 739.410156 583.449219 C 740.089844 578.609375 740.785156 573.695312 741.488281 568.785156 C 741.742188 566.34375 741.992188 564.070312 742.242188 561.96875 C 742.277344 561.675781 742.308594 561.386719 742.34375 561.101562 C 736.195312 562.105469 730.011719 563.148438 723.882812 564.214844 C 720.074219 576.523438 716.292969 589.027344 712.632812 601.414062 L 712.0625 603.335938 L 710.148438 603.925781 C 705.910156 605.230469 700.917969 606.742188 695.167969 608.460938 C 689.441406 610.183594 684.109375 611.808594 679.171875 613.335938 C 676.167969 614.292969 673.183594 615.257812 670.25 616.214844 Z M 725.195312 424.5 C 723.195312 430.648438 720.613281 438.246094 717.15625 448.160156 C 713.445312 458.8125 709.722656 469.761719 706.09375 480.707031 C 702.511719 491.488281 698.871094 502.574219 694.964844 514.589844 C 691.652344 524.777344 688.488281 534.707031 685.5625 544.109375 C 678.710938 565.851562 672.035156 587.929688 665.6875 609.851562 L 667.925781 609.117188 C 670.875 608.152344 673.878906 607.183594 676.933594 606.207031 C 681.917969 604.667969 687.28125 603.03125 693.019531 601.304688 C 697.90625 599.839844 702.246094 598.53125 706.035156 597.375 C 709.746094 584.851562 713.574219 572.230469 717.421875 559.820312 L 718.097656 557.640625 L 720.347656 557.246094 C 728.878906 555.75 737.542969 554.296875 746.09375 552.925781 L 751.078125 552.125 L 750.386719 557.125 C 750.144531 558.859375 749.90625 560.769531 749.660156 562.84375 C 749.414062 564.9375 749.164062 567.199219 748.914062 569.625 L 748.894531 569.769531 C 748.1875 574.699219 747.488281 579.628906 746.796875 584.5625 C 746.332031 587.460938 745.882812 590.285156 745.4375 593.109375 C 745.292969 594.035156 745.144531 594.96875 745 595.914062 C 748.109375 594.941406 751.441406 593.910156 754.992188 592.816406 C 760.4375 591.148438 765.855469 589.53125 771.105469 588.007812 C 774.113281 587.203125 777.046875 586.429688 779.980469 585.660156 C 782.070312 585.113281 784.160156 584.570312 786.253906 584.035156 C 787.410156 571.511719 788.570312 559.210938 789.714844 547.429688 C 790.925781 534.976562 792.070312 522.507812 793.121094 510.375 C 794.628906 497.359375 796.097656 484.375 797.503906 471.683594 C 798.9375 458.664062 800.5 445.859375 802.148438 433.625 C 803.488281 423.671875 804.847656 414.425781 806.199219 406.0625 C 793.488281 409.269531 780.414062 412.34375 767.257812 415.21875 C 752.925781 418.355469 738.90625 421.449219 725.195312 424.5 Z M 723.246094 538.449219 L 724.886719 532.75 C 731.378906 510.160156 738.234375 487.230469 745.257812 464.597656 C 747.851562 456.804688 750.5 448.9375 753.160156 441.140625 L 753.855469 439.109375 L 765.730469 436.742188 L 765.132812 441.839844 C 764.238281 449.441406 763.355469 457.042969 762.484375 464.644531 L 762.460938 464.789062 C 761.640625 470.097656 760.929688 474.949219 760.289062 479.617188 C 759.628906 484.390625 759.019531 489.101562 758.476562 493.625 C 757.414062 501.417969 756.382812 508.804688 755.378906 515.84375 C 754.164062 524.339844 753.863281 527.871094 753.820312 529.339844 L 753.738281 532.441406 L 750.667969 532.925781 C 750.464844 532.957031 749.492188 533.128906 745.464844 534 L 736.007812 536.050781 C 732.53125 536.804688 730.332031 537.257812 729.097656 537.464844 Z M 755.929688 456.253906 C 754.730469 459.8125 753.542969 463.355469 752.371094 466.882812 C 745.996094 487.425781 739.746094 508.273438 733.777344 528.890625 C 733.988281 528.84375 734.203125 528.796875 734.425781 528.75 L 743.882812 526.699219 C 744.902344 526.480469 745.792969 526.289062 746.554688 526.128906 C 746.804688 523.464844 747.277344 519.710938 747.984375 514.785156 C 748.984375 507.765625 750.011719 500.394531 751.066406 492.675781 C 751.605469 488.167969 752.222656 483.410156 752.886719 478.597656 C 753.53125 473.910156 754.246094 469.042969 755.066406 463.71875 C 755.351562 461.230469 755.640625 458.742188 755.929688 456.253906 Z M 755.929688 456.253906 "/><path style=" stroke:none;fill-rule:nonzero;fill:#fcd92d;fill-opacity:1;" d="M 793.4375 594.195312 C 796.554688 581.941406 799.679688 569.828125 802.808594 557.859375 C 805.929688 545.890625 809.15625 533.96875 812.484375 522.089844 C 816.1875 507.425781 819.753906 493.652344 823.179688 480.769531 C 826.59375 467.890625 830.066406 455.101562 833.59375 442.40625 C 837.117188 429.710938 840.695312 416.433594 844.328125 402.5625 C 861.828125 399.886719 879.410156 397.441406 897.070312 395.222656 C 892.140625 407.527344 887.289062 420.355469 882.523438 433.714844 C 877.753906 447.074219 873.359375 460.082031 869.332031 472.734375 C 879.722656 470.867188 890.152344 469.078125 900.613281 467.375 C 902.714844 461.257812 904.777344 455.183594 906.800781 449.160156 C 908.820312 443.136719 910.691406 437.171875 912.414062 431.261719 C 914.113281 425.523438 916.105469 419.640625 918.394531 413.617188 C 920.683594 407.589844 923.160156 401.515625 925.820312 395.394531 C 933.765625 393.914062 941.8125 392.683594 949.960938 391.710938 C 958.101562 390.742188 967.679688 389.800781 978.699219 388.9375 C 974.871094 395.875 970.90625 404.015625 966.8125 413.363281 C 962.71875 422.714844 958.710938 432.585938 954.785156 442.980469 C 950.855469 453.371094 947.085938 463.726562 943.472656 474.042969 C 939.851562 484.363281 936.574219 493.949219 933.640625 502.800781 C 930.003906 513.90625 926.511719 525.054688 923.164062 536.253906 C 919.808594 547.449219 916.476562 558.867188 913.15625 570.507812 C 897.476562 573.140625 881.882812 575.972656 866.375 579.003906 C 868.21875 573.707031 869.921875 568.472656 871.488281 563.292969 C 873.050781 558.117188 874.5625 553.074219 876.023438 548.167969 C 878.808594 539.730469 881.714844 530.949219 884.734375 521.828125 C 887.757812 512.707031 890.214844 504.917969 892.113281 498.460938 C 882.046875 500.019531 872.011719 501.660156 862.007812 503.378906 C 860.902344 506.726562 859.832031 510.328125 858.800781 514.1875 C 857.757812 518.046875 856.554688 522.179688 855.1875 526.582031 C 853.8125 530.992188 852.507812 535.265625 851.28125 539.402344 C 850.046875 543.542969 848.871094 547.636719 847.757812 551.683594 C 846.386719 556.441406 844.929688 561.207031 843.382812 565.988281 C 841.832031 570.769531 840.394531 575.539062 839.0625 580.300781 C 823.734375 584.742188 808.523438 589.375 793.4375 594.195312 Z M 793.4375 594.195312 "/><path style=" stroke:none;fill-rule:nonzero;fill:#000000;fill-opacity:1;" d="M 788.15625 599.804688 L 789.816406 593.277344 C 792.9375 581.015625 796.09375 568.78125 799.191406 556.914062 C 802.277344 545.085938 805.539062 533.027344 808.890625 521.078125 C 812.535156 506.640625 816.132812 492.722656 819.566406 479.808594 C 822.992188 466.898438 826.5 453.972656 829.996094 441.40625 C 833.503906 428.765625 837.109375 415.378906 840.710938 401.617188 L 841.335938 399.242188 L 843.761719 398.871094 C 861.246094 396.199219 879.027344 393.722656 896.605469 391.519531 L 902.902344 390.726562 L 900.539062 396.613281 C 895.664062 408.777344 890.785156 421.683594 886.042969 434.96875 C 882.085938 446.054688 878.3125 457.125 874.789062 467.96875 C 882.457031 466.617188 890.164062 465.300781 897.804688 464.050781 C 899.652344 458.652344 901.472656 453.292969 903.261719 447.96875 C 905.265625 441.984375 907.140625 436.011719 908.828125 430.214844 C 910.574219 424.3125 912.617188 418.285156 914.902344 412.285156 C 917.191406 406.265625 919.710938 400.078125 922.394531 393.90625 L 923.1875 392.085938 L 925.136719 391.722656 C 933.117188 390.234375 941.320312 388.980469 949.515625 388.003906 C 958.167969 386.972656 967.886719 386.035156 978.40625 385.214844 L 985.320312 384.675781 L 981.96875 390.742188 C 978.171875 397.617188 974.226562 405.730469 970.234375 414.859375 C 966.179688 424.132812 962.15625 434.035156 958.277344 444.300781 C 954.414062 454.527344 950.617188 464.949219 947 475.277344 C 943.621094 484.90625 940.316406 494.5625 937.183594 503.976562 C 933.617188 514.875 930.101562 526.097656 926.742188 537.324219 C 923.3125 548.78125 919.949219 560.289062 916.75 571.53125 L 916.105469 573.800781 L 913.777344 574.191406 C 898.25 576.800781 882.542969 579.652344 867.089844 582.667969 L 860.710938 583.917969 L 862.84375 577.777344 C 864.703125 572.441406 866.40625 567.207031 867.914062 562.214844 C 869.472656 557.042969 870.980469 552.003906 872.445312 547.097656 C 875.261719 538.558594 878.167969 529.777344 881.1875 520.652344 C 883.421875 513.914062 885.285156 508.109375 886.832031 503.070312 C 879.507812 504.226562 872.152344 505.4375 864.871094 506.679688 C 864.027344 509.351562 863.203125 512.191406 862.40625 515.15625 C 861.363281 519.035156 860.132812 523.253906 858.753906 527.691406 C 857.382812 532.089844 856.085938 536.347656 854.859375 540.472656 C 853.609375 544.675781 852.429688 548.777344 851.363281 552.667969 C 849.964844 557.527344 848.476562 562.378906 846.9375 567.136719 C 845.402344 571.878906 843.960938 576.644531 842.660156 581.304688 L 842.101562 583.308594 L 840.101562 583.890625 C 824.898438 588.296875 809.582031 592.960938 794.574219 597.753906 Z M 847.320312 405.886719 C 843.914062 418.847656 840.511719 431.457031 837.195312 443.402344 C 833.707031 455.945312 830.207031 468.839844 826.789062 481.726562 C 823.363281 494.613281 819.769531 508.5 816.109375 523.003906 C 812.746094 535 809.496094 547.015625 806.421875 558.800781 C 803.875 568.550781 801.292969 578.546875 798.71875 588.601562 C 811.066406 584.710938 823.582031 580.917969 836.03125 577.292969 C 837.207031 573.175781 838.480469 568.996094 839.828125 564.835938 C 841.34375 560.152344 842.804688 555.378906 844.167969 550.648438 C 845.238281 546.75 846.429688 542.589844 847.699219 538.335938 C 848.9375 534.183594 850.246094 529.894531 851.621094 525.46875 C 852.972656 521.125 854.171875 517.003906 855.191406 513.214844 C 856.234375 509.320312 857.335938 505.617188 858.457031 502.207031 L 859.160156 500.074219 L 861.375 499.695312 C 871.363281 497.980469 881.511719 496.324219 891.542969 494.769531 L 897.347656 493.871094 L 895.699219 499.507812 C 893.855469 505.816406 891.429688 513.5 888.28125 523 C 885.261719 532.121094 882.359375 540.898438 879.574219 549.335938 C 878.140625 554.144531 876.628906 559.191406 875.066406 564.371094 C 874.109375 567.539062 873.078125 570.796875 871.980469 574.113281 C 884.671875 571.683594 897.496094 569.371094 910.210938 567.21875 C 913.222656 556.667969 916.371094 545.902344 919.585938 535.179688 C 922.960938 523.894531 926.496094 512.609375 930.089844 501.636719 C 933.238281 492.164062 936.554688 482.472656 939.945312 472.808594 C 943.585938 462.421875 947.402344 451.941406 951.289062 441.660156 C 955.210938 431.277344 959.28125 421.253906 963.386719 411.867188 C 966.351562 405.085938 969.300781 398.839844 972.1875 393.21875 C 964.363281 393.890625 957.058594 394.628906 950.402344 395.421875 C 943.035156 396.300781 935.664062 397.40625 928.460938 398.707031 C 926.117188 404.167969 923.910156 409.617188 921.886719 414.941406 C 919.667969 420.769531 917.6875 426.613281 915.996094 432.320312 C 914.285156 438.195312 912.382812 444.265625 910.34375 450.347656 C 908.316406 456.378906 906.25 462.460938 904.144531 468.589844 L 903.417969 470.703125 L 901.210938 471.0625 C 890.863281 472.746094 880.359375 474.546875 869.992188 476.414062 L 863.886719 477.511719 L 865.773438 471.601562 C 869.847656 458.8125 874.300781 445.640625 879.003906 432.457031 C 883.023438 421.207031 887.136719 410.222656 891.265625 399.726562 C 876.617188 401.613281 861.875 403.679688 847.320312 405.886719 Z M 847.320312 405.886719 "/><path style=" stroke:none;fill-rule:nonzero;fill:#fcd92d;fill-opacity:1;" d="M 944.980469 585.136719 C 939.046875 585.453125 934.3125 584.492188 930.773438 582.25 C 929.09375 581.234375 927.613281 579.980469 926.332031 578.488281 C 925.054688 577 924.039062 575.34375 923.292969 573.527344 C 921.839844 569.988281 921.34375 566.316406 921.804688 562.515625 C 922.625 555.660156 925.992188 549.515625 931.976562 544.136719 C 937.949219 538.765625 945.742188 535.824219 955.296875 535.378906 C 967.082031 534.835938 975.609375 536.886719 980.789062 541.386719 C 985.96875 545.898438 988.0625 551.152344 987.136719 557.128906 C 986.074219 563.964844 981.804688 570.15625 974.421875 575.78125 C 967.039062 581.410156 957.242188 584.488281 944.980469 585.136719 Z M 954.378906 519.855469 C 959.097656 509.085938 963.761719 498.421875 968.378906 487.863281 C 972.988281 477.308594 977.65625 466.769531 982.378906 456.238281 C 986.890625 445.722656 991.625 435.171875 996.582031 424.585938 C 1001.542969 414.003906 1006.609375 403.480469 1011.785156 393.015625 C 1024.515625 391.292969 1036.148438 389.9375 1046.6875 388.957031 C 1057.207031 387.957031 1065.878906 387.121094 1072.664062 386.367188 C 1056.980469 407.144531 1042.382812 428.65625 1028.867188 450.902344 C 1015.640625 472.683594 1002.792969 494.714844 990.320312 516.996094 C 984.351562 517.160156 978.367188 517.523438 972.363281 518.085938 C 966.355469 518.648438 960.359375 519.238281 954.378906 519.855469 Z M 954.378906 519.855469 "/><g clip-rule="nonzero" clip-path="url(#1f0cef74b1)"><path style=" stroke:none;fill-rule:nonzero;fill:#000000;fill-opacity:1;" d="M 942.871094 588.929688 C 940.402344 589.027344 937.96875 588.773438 935.570312 588.175781 C 933.171875 587.574219 930.90625 586.648438 928.773438 585.402344 C 926.761719 584.175781 924.988281 582.667969 923.460938 580.878906 C 921.933594 579.085938 920.722656 577.101562 919.828125 574.921875 C 918.136719 570.789062 917.558594 566.507812 918.09375 562.074219 C 919.027344 554.277344 922.859375 547.308594 929.480469 541.359375 C 936.109375 535.398438 944.738281 532.132812 955.125 531.648438 C 967.828125 531.066406 977.285156 533.390625 983.242188 538.570312 C 989.410156 543.945312 991.964844 550.378906 990.828125 557.699219 C 989.625 565.433594 984.871094 572.519531 976.6875 578.753906 C 968.785156 584.773438 958.183594 588.179688 945.179688 588.867188 C 944.394531 588.910156 943.625 588.929688 942.871094 588.929688 Z M 958.957031 539.027344 C 957.832031 539.027344 956.671875 539.054688 955.472656 539.113281 C 946.851562 539.511719 939.789062 542.136719 934.472656 546.917969 C 929.164062 551.683594 926.238281 556.933594 925.515625 562.960938 C 925.125 566.128906 925.539062 569.183594 926.757812 572.132812 C 927.359375 573.585938 928.171875 574.910156 929.203125 576.101562 C 930.230469 577.292969 931.421875 578.289062 932.777344 579.09375 C 935.621094 580.902344 939.667969 581.675781 944.78125 581.410156 C 956.261719 580.800781 965.472656 577.90625 972.160156 572.8125 C 978.84375 567.714844 982.535156 562.398438 983.445312 556.554688 C 984.171875 551.871094 982.5 547.832031 978.335938 544.203125 C 974.378906 540.765625 967.871094 539.027344 958.960938 539.027344 Z M 948.382812 524.230469 L 950.957031 518.355469 C 955.671875 507.589844 960.339844 496.925781 964.953125 486.371094 C 969.695312 475.519531 974.410156 464.867188 978.972656 454.710938 C 983.511719 444.117188 988.308594 433.429688 993.199219 423 C 998.171875 412.390625 1003.296875 401.746094 1008.4375 391.359375 L 1009.316406 389.582031 L 1011.285156 389.316406 C 1023.519531 387.65625 1035.3125 386.285156 1046.332031 385.238281 C 1056 384.320312 1065.257812 383.429688 1072.25 382.652344 L 1080.863281 381.695312 L 1075.644531 388.613281 C 1060.042969 409.296875 1045.515625 430.703125 1032.0625 452.839844 C 1018.867188 474.570312 1005.921875 496.769531 993.582031 518.820312 L 992.546875 520.675781 L 990.421875 520.730469 C 984.570312 520.890625 978.609375 521.253906 972.710938 521.804688 C 966.71875 522.367188 960.734375 522.957031 954.761719 523.570312 Z M 1014.253906 396.453125 C 1009.433594 406.226562 1004.632812 416.214844 999.964844 426.167969 C 995.109375 436.527344 990.347656 447.136719 985.816406 457.710938 C 981.238281 467.902344 976.535156 478.53125 971.800781 489.359375 C 968.027344 498 964.214844 506.710938 960.367188 515.492188 C 964.246094 515.105469 968.125 514.730469 972.011719 514.367188 C 977.363281 513.867188 982.765625 513.519531 988.09375 513.332031 C 1000.164062 491.808594 1012.800781 470.164062 1025.675781 448.964844 C 1037.632812 429.261719 1050.695312 409.789062 1064.566406 390.972656 C 1059.203125 391.515625 1053.203125 392.089844 1047.039062 392.675781 C 1036.707031 393.65625 1025.6875 394.925781 1014.253906 396.453125 Z M 1014.253906 396.453125 "/></g></g></svg>