<?xml version="1.0" encoding="utf-8"?>
<!-- Generator: Adobe Illustrator 19.2.0, SVG Export Plug-In . SVG Version: 6.00 Build 0)  -->
<svg version="1.1" id="Capa_1" xmlns="http://www.w3.org/2000/svg" xmlns:xlink="http://www.w3.org/1999/xlink" x="0px" y="0px"
	 viewBox="0 0 425.2 425.2" style="enable-background:new 0 0 425.2 425.2;" xml:space="preserve">
<path d="M40.4,288.3c-1,21.3-10.8,42.7-21.8,60.7c-1.5,2.5,0,4.9,2.1,4.9c0.6,3.5,4.8,5.5,8.4,2c21.1-20.4,42.9-40.1,64-60.4
	c37.7,5.2,75.6,9,113.5,11.8c29.1,2.1,58.4,3.6,87.6,2.6c18.4-0.6,43.4-0.4,59.2-11.5c22.9-15.9,35.2-45.9,43.4-71.5
	c10-31.1,14.9-65.5,9.5-97.9c-2.2-13.3-6.9-26.7-15.5-37.4c-5.5-6.9-13.9-10.9-22-13.9c-23-8.5-49.2-9.4-73.5-9.4
	c-52.1,0-105.8,6.8-156.6,20.3c-19.1,4.6-38,10.2-56,18c-7.6,3.3-15.2,7.2-21.6,12.6c-8.6,7.2-13.1,18.9-16.2,29.3
	C31.3,194,40.3,241.8,40.4,288.3z M63.2,125.7c8.8-8.4,21.1-13.7,33.5-17.9c7.2-2.4,14.5-4.4,21.1-6.3c29.1-8.5,59.1-14.2,89.1-18.3
	c30.6-4.2,61.5-6.5,92.4-5.7c22.6,0.6,47.7,2.2,68.1,12.8c4.6,2.4,8.4,5.6,11.6,9.4c13.4,16.2,15.2,43.2,14.8,62.5
	c-0.7,33.5-9.6,68.2-25.3,97.8c-5.5,10.4-13.2,23.4-23.8,29.5c-3,1.7-6.4,3-9.9,3.9c-5,1.4-10.2,2.1-15.1,2.8
	c-26.5,3.6-53.7,2.7-80.2,1.5c-48.4-2.1-96.7-7.1-144.7-13.4c-1.3-0.2-2.4-0.3-3.4-0.3c-4.8-0.1-6.2,1.8-11.8,7.1
	c-10.7,10.2-21.5,20.3-32.3,30.4c-3.4,3.2-6.8,6.3-10.2,9.5c-1.1,1-2.2,2-3.2,3c6.1-12.5,11-25.8,13-39.3c0.4-2.8,0.7-5.7,0.8-8.5
	c0-0.9,0-1.8,0-2.7c-0.2-23.8-3-47.6-2.8-71.4c0.1-16.4,1.1-32.9,3.8-49.1C50.6,151.1,54,134.5,63.2,125.7z"/>
</svg>
