<?xml version="1.0" encoding="utf-8"?>
<!-- Generator: Adobe Illustrator 19.2.0, SVG Export Plug-In . SVG Version: 6.00 Build 0)  -->
<svg version="1.1" id="Capa_1" xmlns="http://www.w3.org/2000/svg" xmlns:xlink="http://www.w3.org/1999/xlink" x="0px" y="0px"
	 viewBox="0 0 425.2 425.2" style="enable-background:new 0 0 425.2 425.2;" xml:space="preserve">
<g>
	<path d="M214.6,80.1c-0.3-0.5-0.4-1.1-0.2-1.7c0.9-2.8,1.4-6.1,1.5-9.6c0.1-9.2-3.2-17.3-9.7-23.9c-2.2-2.2-4.5-4-6.9-5.5
		c-2.4-1.5-5-2.6-7.7-3.4c0,0,0,0,0,0c-1.1-0.3-2.3-0.6-3.5-0.8c0,0,0,0,0,0c-0.3-0.1-0.6-0.1-0.9-0.2c0,0,0,0,0,0
		c-1.9-0.3-3.6-0.4-5.4-0.6c-4-0.1-7.8,0.4-11.3,1.5c-4.9,1.5-9.2,4.1-13.1,7.8c-4.3,4-7.3,8.6-8.8,13.5c-0.2,0.8-0.9,1.3-1.6,1.5
		c-0.4,0.1-0.8,0.1-1.2,0c-1.2-0.4-1.9-1.6-1.5-2.7c1.8-5.7,5.1-10.8,9.9-15.4C161.8,33.2,171,29.7,182,30c0.6,0.1,1.3,0.1,2,0.2
		c-1.1-2.2-2.6-4.3-4.5-6.4c-1.4-1.4-2.9-2.5-4.5-3.5c-5.1-3.2-11.1-4.5-18.4-4c-2.9,0.2-5.7,0.7-8.3,1.5c-6.1,1.8-11.5,5.1-16.6,10
		c-2.3,2.1-4.1,4.2-5.6,6.2c0,0,0,0,0,0c-0.5,0.6-0.9,1.2-1.3,1.8c0,0,0,0,0,0c0,0,0,0,0,0c-0.3,0.5-0.7,1-1,1.6
		c-0.1,0.1-0.1,0.2-0.2,0.3c-1.3,2.2-2.4,4.5-3.4,7.1c-0.3,0.7-0.9,1.2-1.6,1.3c-0.4,0.1-0.9,0.1-1.3-0.1c-1.2-0.4-1.7-1.7-1.3-2.8
		c0.9-2.3,1.9-4.4,2.9-6.4c0.2-0.3,0.3-0.6,0.5-0.9c-2.8-0.6-5.7-0.8-9-0.7c-3,0.1-5.9,0.6-8.6,1.5c-5.2,1.6-10,4.4-14.4,8.5
		C80.7,51.5,76.8,59,76.1,67.4c-0.3,3.6-0.1,6.7,0.7,9.4c0.2,0.8,0.5,1.6,0.8,2.4c0,0,0,0,0,0c0,0,0,0,0,0.1c0,0,0,0,0,0
		c0,0,0,0,0,0c0.5,1.3,1.1,2.6,1.9,3.9c0,0,0,0,0,0c1.1,1.8,2.4,3.5,3.9,5c0.5,0.5,1.2,1.2,1.7,1.6c0.9,0.6,1.2,1.8,0.8,2.7
		c-0.1,0.1-0.1,0.2-0.2,0.3c-0.4,0.6-1.1,0.9-1.8,0.9c-0.5,0-0.9-0.1-1.3-0.4c-0.9-0.6-1.7-1.5-2.4-2.1c-2-2-3.7-4.3-5-6.7
		c-0.3-0.6-0.7-1.3-1-1.9c-0.2,0-0.4,0.1-0.5,0.1c-5.5,1.6-10.4,4.5-14.9,8.9c-7.2,6.7-11,14.4-11.6,23.5c-0.2,3.4,0.1,6.9,1,10.3
		c0.1,0.4,0.2,0.8,0.3,1.2c0,0,0,0,0,0c0,0,0,0,0,0c0.5,1.4,1,2.7,1.6,4l0,0c0.2,0.4,0.4,0.9,0.7,1.3c0.3,0.5,0.4,1.1,0.2,1.7
		c-0.1,0.5-0.5,1-1,1.3c-0.2,0.1-0.4,0.2-0.6,0.2c-0.9,0.2-1.9-0.2-2.4-1.1c-0.3-0.4-0.5-0.9-0.7-1.3c-0.3-0.7-0.6-1.4-0.9-2
		c0-0.1-0.1-0.2-0.1-0.4c-2.4,1.3-4.7,3.1-7,5.3c-7,6.5-10.8,14-11.6,22.8c-0.3,3.7-0.1,7.1,0.8,10.3c1.1,4.1,3.3,7.7,6.4,10.9
		c2.2,2.2,4.7,4,7.4,5.3c4.2,2,8.9,2.9,14.2,2.7c4.3-0.2,8.6-1.3,12.8-3.1c0,0,0,0,0,0c0,0,0,0,0,0c0,0,0,0,0.1,0l0,0
		c0,0,0.1,0,0.1,0c1.1-0.4,2.2-1,3.4-1.7l0,0c1.1-0.6,2.4-0.2,3.1,0.8c0.1,0.1,0.1,0.3,0.2,0.4c0.3,1,0,2.1-1,2.6l0,0
		c-0.1,0.1-0.2,0.1-0.3,0.2c0,0,0,0,0,0c-0.3,0.2-0.6,0.3-1,0.5c0.1,0.1,0.1,0.1,0.2,0.2c0.3,0.4,0.7,0.8,1.1,1.2
		c0.2,0.2,0.3,0.4,0.5,0.5c1.9,2,3.9,3.9,5.9,5.5c2,1.7,4.1,3.1,6.4,4.2c5.2,2.5,10.9,3.2,17.3,2.2c8.9-1.4,15.2-5.7,19-13
		c0.6-2.4,0.8-5.2,0.6-8.5c-0.1-1.2,0.9-2.2,2.1-2.3c1,0,1.9,0.6,2.2,1.5c0.1,0.2,0.1,0.4,0.1,0.6c0.2,2.8,0.1,5.3-0.3,7.5
		c0.2,0,0.4,0,0.6,0c0.7,0,1.5,0,2.3-0.1c0.8-0.1,1.6-0.2,2.5-0.3c7.4-1.1,14.4-4.7,20.7-10.7c4-3.8,7-7.5,9.1-11.4l0,0
		c1.1-2.4,2.2-5.2,2.7-8.4c1.3-5.2,0.8-9.6-1.3-13.3c-0.6-1.1-0.2-2.4,0.8-3c1.1-0.6,2.4-0.2,3.1,0.9c0.1,0.1,0.1,0.2,0.2,0.4
		c1,1.9,1.7,3.8,2.1,6l0,0c0.5,3.1,0.4,6.4-0.5,10c-0.4,2-1,4-1.6,5.8c0.3,0,0.5-0.1,0.8-0.1c0.8-0.2,1.7-0.3,2.5-0.5
		c10.6-2.5,20.2-7.7,29-16c11.6-10.9,18.1-23.8,19.2-38.5C221,97.4,219.1,88.1,214.6,80.1z"/>
	<path d="M176.1,275.7c-1.5-1.2-3.1-1.8-4.7-1.8c-0.6,0-1.2,0.1-1.8,0.2c-0.2,0-0.3,0.1-0.5,0.1c-1,0.2-1.8,0.6-2.6,1.1
		c-0.1,0-0.1,0.1-0.2,0.1c0,0,0,0-0.1,0c-0.1,0.1-0.2,0.1-0.3,0.2h0c-0.1,0.1-0.4,0.3-0.6,0.5c0,0,0,0,0,0c0,0-0.1,0.1-0.1,0.1
		c0,0,0,0,0,0c-1.8,1.7-2.7,3.6-2.6,5.7c0,1-0.7,1.9-1.7,2.2c-0.1,0-0.3,0-0.5,0.1c-1.2,0-2.3-0.9-2.3-2.1c-0.1-2.4,0.6-4.6,2-6.6
		c0.3-0.4,0.5-0.7,0.8-1.1c-0.8-0.2-1.7-0.3-2.5-0.4c-1,0-2,0.1-3,0.3c-1.9,0.5-3.7,1.5-5.3,3.1c-2.4,2.1-3.6,4.7-3.8,7.8
		c0,1.2,0.2,2.4,0.6,3.5c0.6,1.8,1.6,3.5,3.1,4.9c1.3,1.3,2.7,2.3,4.3,2.9c1.2,0.5,2.5,0.7,3.9,0.8c3.3,0.1,6.1-1,8.5-3.2
		c0.8-0.7,1.5-1.6,2.3-2.6c0.1-0.1,0.2-0.3,0.3-0.3c0.4-0.4,1.1-0.7,1.7-0.6c2.2,0.1,4.2-0.6,6-2.3c1.7-1.6,2.6-3.5,2.6-5.7
		c-0.1-2.3-0.9-4.2-2.5-5.8C176.8,276.3,176.5,276,176.1,275.7z"/>
	<path d="M171.1,334.5c-2-1.5-4.3-2.2-6.8-2.3c-1.2,0-2.3,0.1-3.4,0.3c-2,0.5-3.8,1.5-5.3,3c-2.8,2.4-4,5.1-3.9,8.5
		c-0.1,1.4,0.1,2.7,0.5,3.9c0.6,1.7,1.5,3.3,3,4.8c1.4,1.4,2.8,2.4,4.4,3c1.4,0.5,2.8,0.8,4.4,0.8c3.3,0.1,6.2-1,8.8-3.2
		c2.4-2.5,3.7-5.3,3.8-8.6c0-3.3-1.2-6.1-3.7-8.6C172.4,335.5,171.8,334.9,171.1,334.5z"/>
	<path d="M166.8,401.1c-0.1,0-0.2,0.1-0.2,0.1C166.7,401.1,166.8,401.1,166.8,401.1z"/>
	<path d="M166.9,391.1c-1.2-1.1-2.7-1.7-4.6-1.7c-0.5,0-1,0-1.5,0.1c-1.2,0.2-2.3,0.8-3.2,1.6c-1.3,1.2-2,2.7-2.1,4.5
		c0,0.9,0.2,1.7,0.5,2.4c0.3,0.9,0.9,1.7,1.7,2.5c0.6,0.6,0.8,1.6,0.5,2.3c-0.1,0.2-0.2,0.4-0.3,0.6c-0.6,0.7-0.8,1.4-0.8,2.2
		c0,0.1,0,0.2,0,0.3c-0.1,0.7,0.1,1.4,0.4,2c0.2,0.4,0.4,0.7,0.8,1c0.7,0.7,1.5,1.1,2.5,1.3c0.3,0,0.5,0.1,0.8,0.1
		c1.2,0,2.2-0.4,3.1-1.2c0.9-0.9,1.4-1.9,1.5-3.1c0-0.8-0.1-1.4-0.5-2.1c-0.3-0.6-0.3-1.2,0-1.8c0.2-0.5,0.7-0.9,1.2-1.1
		c0.1-0.1,0.3-0.3,0.4-0.4c1.3-1.2,1.9-2.7,1.9-4.7c0.1-1.8-0.4-3.3-1.7-4.6C167.1,391.3,167,391.2,166.9,391.1z"/>
	<path d="M156.3,256.7c4.4,0.2,8.1-1.2,11.3-4.2c3.3-3,4.8-6.6,4.8-10.9c0.2-4-1.4-7.7-4.5-10.8c-0.8-0.8-1.7-1.5-2.6-2.2
		c0,0-0.1-0.1-0.1-0.1c-2.4-1.6-4.9-2.4-7.8-2.6c-0.2,0-0.4,0-0.6,0c-1.2,0-2.2-1-2.2-2.2c0-1.2,1-2.2,2.3-2.1
		c2.7,0.1,5.3,0.6,7.7,1.7c0-3.8-1.3-7-3.9-9.7c-0.7-0.7-1.4-1.3-2.2-1.9c-2.3-1.6-4.9-2.4-7.9-2.4c-2-0.1-4,0.3-5.9,1
		c-0.6,0.2-1.2,0.2-1.7-0.1c-2.5-1.1-5.3-1.6-8.7-1.7c-2.3-0.1-4.5,0.2-6.5,0.8c-3.1,0.9-5.9,2.4-8.4,4.8c-4.2,3.9-6.3,8.7-6.5,14.4
		c0,2.1,0.3,4.1,0.8,5.9c0.9,3.3,2.7,6.2,5.4,8.9c1.9,2,4,3.5,6.4,4.5c2.5,1.1,5.3,1.8,8.3,1.8c1.5,0,2.9-0.1,4.3-0.2
		c-0.8-1.7-1.4-3.5-1.8-5.5c-0.2-1.2,0.6-2.3,1.8-2.5c1.1-0.2,2.1,0.5,2.5,1.5c0,0.1,0.1,0.2,0.1,0.3c0.1,0.7,0.3,1.3,0.4,1.9
		c0.5,1.6,1.2,3.2,2.2,4.6c0,0,0,0,0,0c0.1,0.2,0.2,0.3,0.3,0.5c0,0,0,0,0,0c0.4,0.6,0.9,1.1,1.5,1.6c0.1,0.1,0.2,0.2,0.3,0.3
		c0.3,0.3,0.6,0.6,0.8,0.8c0,0,0,0,0,0c1.4,1.3,2.8,2.3,4.5,2.9C152.4,256.3,154.3,256.7,156.3,256.7z"/>
</g>
</svg>
