<?xml version="1.0" encoding="utf-8"?>
<!-- Generator: Adobe Illustrator 19.2.0, SVG Export Plug-In . SVG Version: 6.00 Build 0)  -->
<svg version="1.1" id="Capa_1" xmlns="http://www.w3.org/2000/svg" xmlns:xlink="http://www.w3.org/1999/xlink" x="0px" y="0px"
	 viewBox="0 0 425.2 425.2" style="enable-background:new 0 0 425.2 425.2;" xml:space="preserve">
<g>
	<path d="M355.7,187.3l33.2-30l-18.3-5.7l38.2-43.4l-61.4,48.6l19.4,8.1L350,184.8c0,0-0.1,0-0.1,0c-1.8-0.7-3.6-1.3-5.4-1.8
		c-8.6-2.3-17.3-2.5-25.8-2.5c2-9.9,4.1-20.8,2.1-31.5c-2.4-13.1-10.5-23.9-21.6-28.8c-2.1-0.9-4.3-1.7-6.5-2.3
		c-4-1.1-7.9-1.5-11.6-1.4l5.1-27.9l-13.6,5l2.9-43.6l-14.5,57.3l15.3-4.1l-0.6,13.8c-5.4,1-10.3,3.4-14.3,7l-8.3,7.6
		c-2.5-3.6-5.1-7.2-7.8-10.7c-7.7-9.9-19.4-17.5-32.2-20.9c-8.4-2.3-17-2.7-24.9-1.2c-19.5,3.6-35.5,20.2-39.7,41.4
		c-1.3,6.5-1.5,13.1-1.6,19.5l-12-1.3l-0.5,0c-17,0.3-33.7,8.4-45.6,22.2c-6.3,7.3-16.8,21.9-16.3,38.7c0.7,21.3,16,39.2,28.9,48.1
		c5.4,3.8,11.3,6.8,17,9.6c-4.9,5.4-9.8,11.5-11.5,19c-6.3,27.9,15.7,49.4,40.8,56.1c22.5,6,40.9-1.9,46.3-6.7l6.7-5.9
		c3.7,3.5,7.6,7.1,11.9,10.2c5.8,4.3,12.2,7.4,19.2,9.3c12,3.2,24.8,2.5,36.2-2.2c22.9-9.3,31-32.6,36.9-52.5
		c12.5,1.1,25.4,1.8,38.6-3c24.2-8.8,43.1-31.6,46-55.4C392.5,223,378.1,198.8,355.7,187.3z M368.4,248
		c-2.5,21.1-19.5,39.7-39.1,46.8c-13.3,4.8-26.5,3.1-40.2,1.9c-5.8,19.5-11.9,43.2-32.7,51.6c-15.2,6.2-32.5,3.8-45.6-5.9
		c-5.7-4.2-10.7-9.4-16-14.1l-11.8,10.4c-3.4,3-18.6,9.7-37.3,4.7c-19.8-5.3-38.6-22.3-33.6-44.6c1.9-8.5,10.8-15.8,16.1-22.4
		c-8.2-4.3-17-8.1-24.7-13.4c-12.6-8.7-23.9-24.2-24.4-40c-0.4-11.5,6.4-23.3,13.7-31.8c9.7-11.1,23.2-18.3,38.1-18.6l19.6,2
		c0.3-8.5-0.2-17.5,1.5-25.9c3.2-16.1,15.2-30.5,31.8-33.6c17.1-3.1,36.7,4.8,47.3,18.4c4.4,5.6,8.3,11.5,12.5,17.3l14.5-13.3
		c4.7-4.3,10.8-5.7,16.8-5.2l-0.9,21.3l3.8-20.9c2.7,0.5,5.4,1.3,8,2.4c8.8,3.9,14.5,12.6,16.2,21.9c2.2,12-1.8,25-3.9,36.8
		c12.1,0.2,25.3-1,36.8,3.5c1.1,0.4,2.1,0.9,3.1,1.4l-14.6,17.4l17.6-15.9C358.1,209.6,370.8,228.4,368.4,248z"/>
	<polygon points="362.6,102.1 379.8,59.2 361.7,88.1 355.4,78.7 333,125.3 354.9,92.4 	"/>
	<path d="M109.7,65.8c0,0,0.5,0.4,1.5,1c0.5,0.3,1.2,0.5,2,0.8c0.8,0.1,1.9,0.4,2.8,0.3l0.7,0c0,0,0.1,0,0.1,0
		c1,0.9,2.3,1.5,3.2,2.8c1.1,1.1,2,2.6,2.9,4.1c0.4,0.8,0.8,1.6,1.2,2.5c0.3,0.9,0.6,1.7,1,2.7c0.3,0.9,0.5,2,0.8,3
		c0.2,1,0.4,2,0.7,3c0.3,1.6,0.7,3.7,0.8,5.1c0,0.1,0,0.2,0,0.4c0,0.2,0,0.4,0,0.6c0,0.1,0,0.4,0.1,0.6c0-0.1,0,0.4,0.6,1
		c0.6,0.6,1.8,0.5,2.1,0.3c0.5-0.3,0.6-0.5,0.9-0.8c0.4-1,0.2-0.7,0.3-0.8c0-0.4,0-0.7,0-1.1c0-0.1,0-0.1,0-0.2
		c0.1-0.4,0.2-0.9,0.3-1.3c0.3-0.8,0.7-1.7,1.3-2.4c1.1-1.4,2.6-2.7,4.3-3.5c1.6-0.8,3.5-1.5,5.2-1.8c0.9-0.3,1.7-0.3,2.5-0.3
		c0.8-0.1,1.6,0,2.3,0.2c2.1,0.4,3.6,1.7,4.8,2.9c0.1,0.2,0.2,0.4,0.3,0.7c0.6,1.2,1.4,2.2,2.1,2.8c0.6,0.6,1,0.9,1,0.9
		s-0.1-0.5-0.4-1.3c-0.1-0.4-0.3-0.8-0.4-1.3c-0.1-0.6-0.1-1.2-0.3-1.9c-0.1-0.5,0-1.3,0-2c-0.1-0.7,0.1-1.4,0.2-2.2
		c0.1-0.8,0.2-1.5,0.5-2.3c0.3-0.8,0.4-1.6,0.8-2.3c0.6-1.6,1.5-2.9,2.3-4.3c0.5-0.6,1-1.2,1.4-1.8c0.4-0.6,0.9-1,1.4-1.5
		c0.5-0.4,0.8-1,1.3-1.3c0.3-0.2,0.5-0.4,0.7-0.5c0.1,0,0.2-0.1,0.3-0.1c0.8-0.5,1.2-0.8,1.2-0.8s-0.2,0-0.4,0
		c0.2-0.2,0.4-0.3,0.4-0.3s-0.5,0-1.3,0.2c-0.2,0-0.5,0.1-0.8,0.1c-0.8-0.1-1.7-0.1-2.7-0.5c-0.7-0.1-1.3-0.5-2-0.8
		c-0.7-0.3-1.3-0.9-1.9-1.3c-1.2-1.1-2.4-2.5-3.1-4l-0.6-1.1l-0.5-1.4l-0.3-0.7l-0.1-0.2l0-0.1l-0.1-0.3L151,54
		c-0.2-0.8-0.2-1.6-0.2-2.4c-0.1-0.8-0.1-1.5,0.1-2.1c0.2-0.6,0.1-1.3,0.3-1.9c0.3-0.6,0.5-1.1,0.7-1.5c0.4-0.8,0.5-1.3,0.5-1.3
		s-0.4,0.3-1.1,0.9c0.1-0.4,0.2-0.8,0.3-1.1c0.3-1,0.4-1.6,0.4-1.6s-0.4,0.4-1,1.3c-0.3,0.4-0.6,1-1.2,1.4c-0.5,0.4-1.1,0.8-1.7,1.3
		c-0.6,0.5-1.5,0.8-2.2,1.2c-0.7,0.5-1.7,0.5-2.5,0.9c-0.3,0.2-2.2,0.2-2.8,0.1c-0.8-0.1-1.7-0.3-2.8-0.6c-2-0.5-4-1.4-5.8-2.3
		c-0.9-0.4-1.6-1-2.4-1.5c-0.8-0.5-1.3-1.1-2-1.6c-0.6-0.5-1.1-1.1-1.4-1.6c-0.3-0.5-0.8-1-0.9-1.5c-0.4-1-0.6-1.5-0.6-1.5
		s0,0.2,0,0.5c-0.2-0.4-0.3-0.6-0.3-0.6s0.1,2.6,0.7,6.4c0.1,0.9,0.4,2.1,0.4,2.9c0.1,1.1,0.1,2.2,0.3,3.4c0,1.1-0.3,2.1-0.3,3.2
		c-0.1,1.1-0.6,2.1-0.9,3.2c-0.6,0.9-0.9,2-1.6,2.8c-0.7,0.8-1.3,1.7-2.2,2.4c-0.7,0.8-1.6,1.3-2.5,1.8c-0.4,0.2-0.9,0.4-1.3,0.6
		c-0.2,0.1-0.5,0.2-0.5,0.3l-0.7,0.2c-0.3,0.1-0.6,0.2-0.9,0.2c-0.3-0.1-0.6-0.1-0.9-0.1c-2,0-3.1,0.1-3.1,0.1s0.5,0.1,1.3,0.3
		c-0.2,0-0.4,0-0.6,0C110.4,65.9,109.7,65.8,109.7,65.8z M151.3,55.6L151.3,55.6C151.3,55.7,151.3,55.6,151.3,55.6z M119.4,67.1
		c1.1-0.5,2.3-0.9,3.3-1.8c1.1-0.7,2.1-1.7,3-2.8c0.9-1.1,1.5-2.4,2.2-3.6c0.3-1.4,0.9-2.7,1-4.1c0.1-1.4,0.1-2.9,0-4.1
		c-0.2-1.1-0.5-2.2-0.7-3.3c0.6,0.6,1.2,1.2,2,1.7c1,0.6,1.9,1.4,3.1,1.8c1.1,0.5,2.2,1,3.5,1.3c1.1,0.4,2.5,0.6,3.9,0.6
		c0.7,0.1,1.3,0,1.8-0.1l0.8-0.1l0.2,0c0.5-0.1,0.3-0.1,0.4-0.1l0.4-0.2c1.1-0.5,2.3-0.9,3.1-1.7c0.3-0.2,0.6-0.5,0.8-0.7
		c-0.2,0.4-0.3,0.9-0.3,1.3c-0.2,1-0.5,2-0.3,3l0.1,1.6l0,0.4l0,0.1v0l0,0.2l0,0l0,0.2l0.2,0.7l0.4,1.4l0.8,1.6
		c1.1,2.1,2.7,3.8,4.5,5c1,0.5,1.9,1.1,2.9,1.3c0.5,0.2,1.1,0.3,1.6,0.3c-0.2,0.1-0.4,0.3-0.6,0.5c-0.7,0.5-1.4,1.1-2.1,1.8
		c-0.6,0.7-1.2,1.5-1.8,2.3c-0.6,0.8-1,1.8-1.4,2.7c-0.5,0.9-0.6,2-0.9,2.9c-0.3,1-0.3,2-0.3,3c-0.1,0.6,0,1.3,0.1,1.9
		c-0.9-0.9-2-1.8-3.5-2.3c-0.9-0.3-1.8-0.6-2.8-0.6c-1-0.1-2-0.1-3,0.1c-2.1,0.2-4.1,0.6-6.2,1.6c-2,0.9-4,2.2-5.5,4
		c-0.5-2.1-1.2-4.2-1.8-6c-0.5-1-0.9-2-1.3-3c-0.6-0.9-1.1-1.8-1.6-2.6c-1.2-1.6-2.4-3.1-3.9-4.2c-0.8-0.8-1.7-1.3-2.6-1.7
		C119.1,67.3,119.2,67.2,119.4,67.1z"/>
	<path d="M349.7,364.2c0,0-0.5-0.1-1.4-0.2c-0.4-0.1-1,0-1.5-0.2c-0.5-0.2-1.1-0.5-1.6-0.7c-0.6-0.2-1.1-0.7-1.8-1
		c-0.7-0.3-1.1-1-1.7-1.4c-0.2-0.1-1.1-1.4-1.3-1.9c-0.2-0.6-0.5-1.3-0.7-2.2c-0.6-1.6-0.8-3.4-1-5c-0.1-0.8,0-1.6-0.1-2.3
		c-0.1-0.8,0.1-1.4,0.2-2.1c0.1-0.7,0.2-1.2,0.4-1.7c0.2-0.5,0.3-1,0.5-1.3c0.5-0.7,0.7-1.1,0.7-1.1s-0.1,0-0.3,0.1
		c0.1-0.3,0.2-0.4,0.2-0.4s-1.8,1.2-4.3,3.2c-0.6,0.4-1.3,1.2-1.9,1.5c-0.7,0.5-1.5,1.1-2.3,1.7c-0.8,0.5-1.6,0.7-2.3,1.1
		c-0.8,0.4-1.7,0.5-2.5,0.8c-0.9,0-1.8,0.3-2.6,0.1c-0.9-0.1-1.8-0.1-2.6-0.4c-0.9-0.2-1.6-0.5-2.4-0.8c-0.4-0.2-0.7-0.4-1-0.6
		c-0.1-0.1-0.4-0.2-0.4-0.2l-0.5-0.4c-0.3-0.3-0.5-0.5-0.8-0.7c-0.1-0.2-0.1-0.3-0.2-0.5c-0.9-1.4-1.5-2.1-1.5-2.1s0.1,0.2,0.2,0.6
		c0,0,0,0,0,0c-0.3-0.8-0.6-1.3-0.6-1.3s-0.1,0.5-0.1,1.5c0,0.5,0.2,1.1,0.3,1.8c0.3,0.7,0.6,1.6,1.1,2.2l0.3,0.5c0,0,0,0,0,0
		c-0.2,1-0.1,2.2-0.6,3.4c-0.3,1.2-0.9,2.5-1.6,3.8c-0.7,1.3-1.6,2.5-2.6,3.7c-0.5,0.6-1.2,1.3-1.8,1.9l-1.8,1.8
		c-1,0.9-2.3,2.1-3.2,2.8c-0.1,0-0.2,0.1-0.3,0.1c-0.1,0.1-0.3,0.2-0.5,0.3c0,0-0.3,0.2-0.4,0.4c0.1-0.1-0.4,0.3-0.5,1.1
		c-0.1,0.9,0.6,1.7,0.9,1.8c0.4,0.2,0.7,0.3,1.1,0.3c1-0.2,0.6-0.2,0.8-0.2c0.3-0.2,0.5-0.4,0.8-0.5l0.1,0c0.3-0.1,0.6-0.2,1-0.3
		c0.7-0.2,1.4-0.2,2.1-0.2c1.4,0.1,2.9,0.6,4.2,1.3c1.3,0.7,2.6,1.7,3.6,2.7c0.6,0.5,1,1,1.3,1.5c0.5,0.5,0.7,1.1,0.9,1.6
		c0.6,1.5,0.5,3,0.3,4.3c-0.2,0.2-0.3,0.4-0.5,0.7c-0.6,1-0.8,2.1-0.9,2.8c-0.1,0.7-0.1,1.1-0.1,1.1s0.3-0.3,0.8-0.8
		c0.2-0.2,0.4-0.5,0.8-0.8c0.4-0.3,0.8-0.6,1.3-1c0.3-0.2,0.9-0.5,1.4-0.8c0.5-0.3,1-0.6,1.6-0.8c0.6-0.2,1.2-0.5,1.8-0.6
		c0.6-0.1,1.3-0.4,1.9-0.4c1.3-0.3,2.7-0.3,4-0.3c1.3,0.1,2.6,0.1,3.5,0.4c0.5,0.1,1,0.1,1.5,0.2c0.3,0.1,0.5,0.2,0.8,0.3
		c0.1,0,0.1,0.1,0.2,0.1c0.7,0.3,1.1,0.5,1.1,0.5s-0.1-0.1-0.1-0.3c0.2,0.1,0.4,0.1,0.4,0.1s-0.2-0.4-0.7-0.9
		c-0.1-0.1-0.3-0.3-0.4-0.5c-0.3-0.6-0.6-1.3-0.8-2.1c-0.2-0.5-0.2-1.1-0.2-1.7c-0.1-0.6,0.1-1.2,0.1-1.9c0.3-1.2,0.7-2.7,1.4-3.8
		l0.5-0.9l0.8-1l0.4-0.5l0.1-0.1l0.2-0.2l0.7-0.7c0.4-0.5,1-0.9,1.5-1.2c0.5-0.4,1-0.7,1.5-0.9c0.5-0.2,0.9-0.5,1.4-0.7
		c0.5-0.1,1-0.2,1.3-0.2c0.7-0.1,1.2-0.3,1.2-0.3s-0.3-0.2-0.9-0.4c0.3-0.1,0.5-0.2,0.7-0.2C349.2,364.5,349.7,364.2,349.7,364.2z
		 M340.8,369.5L340.8,369.5L340.8,369.5C340.8,369.5,340.8,369.5,340.8,369.5z M341.9,364.9c-0.8,0.3-1.7,0.6-2.3,1.2l-1.1,0.8
		l-0.3,0.2l-0.1,0.1l0,0l-0.1,0.1l0,0l-0.1,0.1l-0.4,0.5c-0.5,0.6-1.1,1.3-1.6,2.2c-1,1.8-1.5,3.7-1.5,5.5c0,1.3,0.3,2.5,0.8,3.5
		c-0.7-0.3-1.5-0.5-2.3-0.8c-1.6-0.3-3.3-0.4-5-0.1c-0.9,0.1-1.7,0.5-2.5,0.7c-0.8,0.2-1.5,0.7-2.2,1.1c-0.3,0.2-0.6,0.4-0.9,0.6
		c0.2-0.9,0.3-1.9,0-3c-0.3-1.6-1.1-3.2-2.2-4.4c-1.1-1.4-2.3-2.6-3.9-3.7c-1.4-0.9-3-1.7-4.8-2c1.1-1.2,2.1-2.4,3-3.6
		c1.1-1.5,2-3.1,2.6-4.7c0.6-1.6,1.1-3.1,1.2-4.6c0.2-0.7,0.1-1.5,0.1-2.2c0.8,0.6,1.7,1.3,2.8,1.6c1,0.5,2.2,0.8,3.4,0.9
		c1.2,0.2,2.4,0,3.6-0.1c1.2-0.4,2.3-0.6,3.4-1.2c1-0.6,2.2-1.3,2.9-1.9c0.5-0.5,0.9-0.9,1.3-1.4c-0.1,0.4-0.1,0.9-0.1,1.3
		c0,1-0.1,2,0.1,3c0.1,1,0.3,2,0.6,3.1c0.3,1,0.8,2.1,1.4,3.1c0.3,0.6,0.6,0.9,0.9,1.2l0.5,0.5l0.1,0.1c0.3,0.4,0.2,0.2,0.3,0.3
		l0.3,0.2c0.9,0.5,1.7,1.2,2.6,1.4c0.1,0,0.1,0,0.2,0.1C342.2,364.8,342.1,364.8,341.9,364.9z"/>
	<polygon points="74.9,157.1 77.2,147.6 68.2,151.5 59.9,146.3 60.8,156.1 53.3,162.4 62.9,164.5 66.5,173.7 71.6,165.2 81.4,164.5 
			"/>
	<polygon points="44.8,182.2 34.6,188.4 23.7,183.5 26.5,195.2 18.4,204.1 30.4,205 36.3,215.4 40.9,204.4 52.7,201.9 43.6,194.1 	
		"/>
</g>
</svg>
