<?xml version="1.0" encoding="utf-8"?>
<!-- Generator: Adobe Illustrator 19.2.0, SVG Export Plug-In . SVG Version: 6.00 Build 0)  -->
<svg version="1.1" id="Capa_1" xmlns="http://www.w3.org/2000/svg" xmlns:xlink="http://www.w3.org/1999/xlink" x="0px" y="0px"
	 viewBox="0 0 425.2 425.2" style="enable-background:new 0 0 425.2 425.2;" xml:space="preserve">
<g>
	<path d="M411.3,151.9c-0.4-2.2-0.9-4.3-1.4-6.4c-5.6-25.6-26.1-43.6-48.6-55.4c-33-17.3-72-22.7-108.7-22.9
		c-43.7-0.3-88,7.9-128.8,23.6c-32.3,12.4-63.8,30.4-87.1,56.5c-17,19.1-28.3,44.4-22.6,70.2c0.2,1.1,0.5,2.1,0.8,3.1
		c0,0.1,0.1,0.3,0.1,0.4c6,26.9,29.9,45.1,53.5,56.4c5.2,2.5,10.6,4.7,16.1,6.7c-2.9,0-5.5,0.2-7.5,0.4c-0.1,0-0.1,0-0.2,0
		c-0.1,0-0.3,0-0.5,0c-11.9,2.2-28.8,8.5-30,22.6c-0.2,2.2,0.1,4.1,0.9,5.7c1.1,13.6,24.9,14,34,12.8c12-1.6,29.4-8.6,30.7-22.7
		c0.2-2.2-0.1-4.1-0.9-5.7c-0.2-2.5-1.1-4.5-2.6-6.2c23.4,5.3,47.8,7,71.3,6.6c43.1-0.7,86.3-9.5,126.2-25.6
		C352.6,253.3,419.9,211.3,411.3,151.9z M106.5,301.4c-0.6,7.6-17.2,13.7-22.3,14.8c-9.8,2.3-22.8,1.9-30.5-5.3
		c-0.9-0.8-1.5-1.6-2-2.4c-0.6-1-0.9-1.9-0.9-2.9c-0.3-8.2,18.5-14.5,24.5-15.7c0.1,0,0.3-0.1,0.4-0.1c1.2-0.2,2.4-0.3,3.7-0.4
		c6.3-0.5,13-0.2,18.6,2.4c2,0.9,3.9,2.1,5.6,3.7C105.9,297.6,106.7,299.6,106.5,301.4z M367.7,226.9
		c-30.9,26.3-70.4,41.9-109.3,51.6c-43.5,10.8-89.9,13.6-134.2,6.2c-32.3-5.3-66.6-17-89.4-41.5c-7.1-7.7-11.9-16.4-14.5-25.5
		c-3.9-14-2.6-29,3.5-43.1c1-2.3,2.1-4.6,3.4-6.9c17-30.7,50-51.1,81-65.4c41.2-19,87.1-28.2,132.2-29.7
		c34.1-1.1,69.5,2.8,101.5,15.3c4.4,1.7,8.8,3.6,13.1,5.6c22.9,11,44.5,29.3,50,55c0.2,0.8,0.3,1.7,0.5,2.5
		C409.8,181.7,389.8,208.1,367.7,226.9z"/>
	<path d="M44.6,330.4c-0.1,0-0.1,0-0.2,0c-0.2,0-0.3,0-0.5,0.1c-6.4,1.2-19.1,5.6-18.8,14.3c0,1.5,0.4,2.8,0.9,3.9
		c0.7,9.8,13.1,10.6,20.7,9.7c6.5-0.8,19.8-5.7,19.5-14.4c-0.1-1.5-0.4-2.8-0.9-3.9C64.6,330.3,52.2,329.5,44.6,330.4z M60.1,342.5
		c-1.5,3.2-8.5,6-10.8,6.6c-5.3,1.4-11.7,1.2-16.5-1.6c-0.7-0.4-1.2-0.8-1.7-1.2c-0.8-0.7-1.2-1.5-1.2-2.2c-0.1-3.9,9.5-7.3,13-8.2
		c0.1,0,0.3-0.1,0.4-0.1c1.2-0.1,2.5-0.2,3.7-0.3c3.2-0.1,6.3,0.3,9.2,1.6c0.5,0.2,0.9,0.4,1.4,0.7C60.3,339.4,60.8,341,60.1,342.5z
		"/>
</g>
</svg>
