<?xml version="1.0" encoding="utf-8"?>
<!-- Generator: Adobe Illustrator 19.2.0, SVG Export Plug-In . SVG Version: 6.00 Build 0)  -->
<svg version="1.1" id="Capa_1" xmlns="http://www.w3.org/2000/svg" xmlns:xlink="http://www.w3.org/1999/xlink" x="0px" y="0px"
	 viewBox="0 0 425.2 425.2" style="enable-background:new 0 0 425.2 425.2;" xml:space="preserve">
<path d="M392.3,165.1c-10.5-42.6-35.8-81.6-74.2-108.4C245.1,5.8,143.9,17,81.2,78.8C33.1,126.2,16,196,32.2,259.2
	c4.8,20.9,13.3,41.2,25.5,59.8C109,397.5,213.8,423.1,297,381.6c17.1-8.5,32.4-20.1,46.1-33.3c13.9,9.8,27.9,19.6,41.8,29.4
	c2.6,1.8,6.3-2,5.7-4.6c-5.1-22.2-10.2-44.4-15.2-66.6C400,261.9,404.9,211.2,392.3,165.1z M368.1,301.6c-0.6,1.1-0.7,1.9-0.5,2.6
	c0,0,0,0,0,0c0,0.1,0,0.1,0,0.2c4.4,19.1,8.7,38.2,13.1,57.3c-11.9-8.4-23.8-16.7-35.7-25.1c-1.6-1.2-3.4,0-4.5,1.2
	c-39.4,39.3-94.2,57.8-149.4,51.6c-45.4-5.1-87.1-28.9-116.6-63.4c-17.3-20.3-29.1-43.6-35.7-68c-12.4-46.6-5.7-97.3,18.7-139.3
	c9.4-16.1,21.3-31,35.9-43.8C136.6,36.8,195.3,24,249.5,35.6c24.1,5.2,47.3,15.2,67.9,30c35.7,25.6,59.1,62.9,68.9,103.4
	C396.9,212.8,391.4,260.5,368.1,301.6z"/>
</svg>
