<?xml version="1.0" encoding="utf-8"?>
<!-- Generator: Adobe Illustrator 19.2.0, SVG Export Plug-In . SVG Version: 6.00 Build 0)  -->
<svg version="1.1" id="Capa_1" xmlns="http://www.w3.org/2000/svg" xmlns:xlink="http://www.w3.org/1999/xlink" x="0px" y="0px"
	 viewBox="0 0 425.2 425.2" style="enable-background:new 0 0 425.2 425.2;" xml:space="preserve">
<path d="M155.4,298.1c15.2-4.3,31-6,46.8-7.2c56.4-4.3,113.7-2.2,170.1,1.6c17.3,1.2,31.4-10.1,37.4-25.8
	c4.2-10.9,1.9-24.8,1.8-36.2c-0.1-15.3-0.3-30.6-0.4-46c-0.4-29.4-0.8-58.8-1.1-88.2c-0.2-19.6-15.3-33.9-34.2-35.3
	c-0.4,0-0.7-0.1-1.1-0.1c-58.8-0.5-117.7-0.6-176.5-0.5c-14,0-28.1,0.1-42.1,0.2c-13.3,0.1-27.5-1.4-40.6,1.3
	c-1.2,0.3-2.4,0.6-3.5,1c-0.7,0.1-1.4,0.2-2.1,0.4C94.2,66.6,81.9,83.2,83.5,99c2.2,21.6,3.6,43.2,4.5,64.9
	c0.8,17.7,1,35.5,0.3,53.2c-0.5,13.7-1.3,28.1-5.7,41.2c-7.7,23.1-24.6,44.1-39.4,63.1c-9.2,11.7-18.7,23.2-28.8,34.2
	c-2.6,2.9-1.2,6.1,1.5,6.1c0.6,3.6,4.5,5.7,9.2,2.4c21.9-15.4,45.4-28.9,69.2-41.1C113.9,313,134.2,304.2,155.4,298.1z M54.2,330
	c-4.7,2.7-9.3,5.5-13.9,8.3c-1.5,0.9-3,1.9-4.5,2.8C47.8,326.9,59,312,69.4,296.7c8.9-13.3,18-27.7,22.1-43.3
	c3.6-13.7,4.3-28.3,4.8-42.4c1.1-32-0.8-64.2-3.3-96.1c-0.5-6.7-1.1-13.4-1.8-20c-1-10.3,5.8-18.5,14.5-22.2c2.2-0.9,4.6-1.6,7-1.9
	c14.4-1.8,30.1-0.3,44.6-0.3c69.4-0.3,138.8-0.2,208.1,0.3c0.1,0,0.2,0,0.3,0c3.3,0.2,6.4,0.8,9.2,1.9c5.3,1.9,9.8,5.2,13.2,9.8
	c1.3,1.7,2.5,3.6,3.5,5.6c3.1,6.2,2.3,13.7,2.3,20.4c0.1,8.2,0.2,16.5,0.3,24.7c0.4,29.4,0.8,58.8,1,88.3
	c0.1,17.4,5.2,49.2-13.1,56.9c-3.2,1.4-7.1,2-11.9,1.7c-6-0.4-12.1-0.7-18.2-1.1c-31.7-1.7-63.4-2.6-95.2-2.5
	c-32.6,0.1-66.3,0.5-98.3,7.5c-0.3,0.1-0.5,0.1-0.8,0.2c-33.5,7.5-65.3,24-94.9,40.8C60.1,326.6,57.2,328.3,54.2,330z"/>
</svg>
