<?xml version="1.0" encoding="utf-8"?>
<!-- Generator: Adobe Illustrator 19.2.0, SVG Export Plug-In . SVG Version: 6.00 Build 0)  -->
<svg version="1.1" id="Capa_1" xmlns="http://www.w3.org/2000/svg" xmlns:xlink="http://www.w3.org/1999/xlink" x="0px" y="0px"
	 viewBox="0 0 425.2 425.2" style="enable-background:new 0 0 425.2 425.2;" xml:space="preserve">
<g>
	<path d="M408.4,151.1c-0.9-6.6-3-13.1-6.2-19.1c-8.6-20.3-30.4-35.7-58.2-41.2c-1.2-4.6-2.9-9.2-5.2-13.5
		c-10.9-25.5-40.6-42.7-73.8-42.7c-4.3,0-8.6,0.3-12.9,0.8c-7.5,1-14.9,2.8-22,5.4c-10.6-9-23.8-13.9-37.4-13.9
		c-2.4,0-4.8,0.2-7.2,0.5c-9.6,1.3-18.9,5-26.8,11c-10.2-6.2-21.7-9.2-35.1-9.2c-4.2,0-8.6,0.3-13.2,0.9
		c-17.7,2.3-33.3,10.1-44.9,22.4c-19,17.8-25.9,35.9-24.5,64.4c0.2,4.6,1.4,12.8,2.7,17.3c-19.2,18.8-29.4,44.3-26.5,66.7
		c4.2,32.6,26.5,58.5,58.1,67.7c12.2,30.4,45.1,51.5,80.4,51.5c3.6,0,7.2-0.2,10.6-0.7c9.9-1.3,19.5-5.8,27.7-10.1
		c10.6,10.8,24.7,17,38.9,17c2.1,0,4.2-0.1,6.3-0.4c20.5-2.6,37-14.7,44.5-32.4c2,0.4,7.6,1.4,14.5,1.4c3.8,0,7.4-0.3,10.7-0.9
		c33.6-6,58.6-30.5,62.5-61c0.7-5.2,0.7-10.5,0.1-15.8C397.4,200.7,411.5,175.4,408.4,151.1z M364.1,209.6l-0.5,0.3l0.1,0.6
		c1.3,6.1,1.5,12.3,0.7,18.5c-3.8,30.3-31.5,53.2-64.6,53.2c-3,0-6-0.2-9-0.6c-4.1-0.5-8-1.4-12.2-2.6l-0.8-0.2l-0.2,0.8
		c-5.7,19.3-20.3,32.7-38.1,35c-1.8,0.2-3.6,0.3-5.4,0.3c-13.8,0-27.1-6.9-36.4-18.8c-0.1-0.1-4.8-6.4-4.6-14l0.1-3.7l-1.7,3.3
		c-0.1,0.2-2.1,4.2-2.4,8.8c-0.2,2.6,0.2,5.7,1,9c-7.4,3.7-15.2,6-23.3,7.1c-3.2,0.4-6.4,0.6-9.7,0.6c-31.7,0-59.9-20.1-70.1-50
		l-0.1-0.4l-0.4-0.1c-32.5-8-55.9-31.5-59.5-59.8c-2.9-22.2,6.4-44.5,25.4-61.1l0.4-0.4l-0.2-0.5c-1.9-5.4-3.3-10.8-3.9-16.1
		c-5.3-40.7,22.6-78,62-83.1c3-0.4,6-0.6,9-0.6c13.9,0,27.5,4.2,39.3,12c0,0,4.7,3.3,7,8.1l0.4,0.8l0.8-0.5c0.1-0.1,1.3-0.8,1.6-2.7
		c0.5-2.5-0.7-5.8-3.6-9.7c6.6-4.3,13.8-6.9,21.5-7.9c2.2-0.3,4.4-0.4,6.6-0.4c13.2,0,25.9,5.1,35.9,14.3l0.4,0.3l0.5-0.2
		c7.4-3,15.3-5,23.2-6c4.1-0.5,8.2-0.8,12.3-0.8c35.6,0,65.7,20.4,72,48.6c-3.7,0.6-7.4,1.7-11.1,3.2l-2.6,1.1l15.2,2.3
		c34.5,5.4,58.9,25.6,62.3,51.4C404.3,171.6,390,194.8,364.1,209.6z"/>
	<path d="M329.5,319.3c-4.1-2.4-8.3-3.6-12.5-3.6c-8.5,0-15.1,5.1-19.3,10.4c-3.5-1.2-6.9-1.8-10.2-1.8c-8.8,0-16.4,4.5-20.3,12.1
		c-1.8,3.6-2.7,7.6-2.5,11.4c-4,1.7-8.5,4.5-11.6,8.9c-3.1,4.5-4.2,9.8-3.2,15.4c2.1,11,10.9,17.6,23.5,17.6c1.5,0,2.9-0.1,4.2-0.2
		c4,5.6,10.3,8.9,17.5,8.9c6.2,0,12.1-2.4,15.8-6.4c1.8-1.9,3.1-4.1,4-6.1c0.8,0.1,1.6,0.1,2.4,0.1c10.3,0,17.9-5,21.3-14
		c2.9-7.7,0.6-14.4-2.8-19.3c3-4.3,4.8-9.6,4.7-14.8C340.5,330.1,336.6,323.5,329.5,319.3z M328.4,368.1c-3.6,9.6-12.9,9.8-21.9,7.8
		c0,0-0.6,5.8-4.2,9.7c-4.8,5.2-18.7,6.7-22.9-5.9c0,0-21.2,6-24.2-9.9c-2.7-14.3,16.7-17.4,16.7-17.4c-6-8.3,2.6-29.3,26.3-17
		c0,0,9-19.1,24.6-9.9c12.4,7.3,6.1,21.9-0.9,26.2C321.9,351.5,332,358.5,328.4,368.1z"/>
</g>
</svg>
