<?xml version="1.0" encoding="utf-8"?>
<!-- Generator: Adobe Illustrator 19.2.0, SVG Export Plug-In . SVG Version: 6.00 Build 0)  -->
<svg version="1.1" id="Capa_1" xmlns="http://www.w3.org/2000/svg" xmlns:xlink="http://www.w3.org/1999/xlink" x="0px" y="0px"
	 viewBox="0 0 425.2 425.2" style="enable-background:new 0 0 425.2 425.2;" xml:space="preserve">
<path d="M257.1,291.2c30.8-5.2,62.1-11.7,93.5-8.8c15.2,1.4,30.1,4.4,44.4,9.7c6.5,2.4,13.1,4.8,19.3,8c-1.2-1.1-2.4-2.2-3.6-3.3
	c-5.8-5-12.1-9-18.7-12.5c-1.6-0.8-3.1-1.6-4.7-2.3c-17-8-35.1-13.6-53.7-15.8c-35.2-4.2-70.4,0.8-105.6,2.3c-0.5,0-1,0-1.6,0.1
	c-1.3,0.1-2.7,0.1-4,0.1c-0.6,0-1.2,0-1.8,0.1c-3.1,0.1-1.7-4.2-0.2-5.3c17.6-13.5,22.4-39.9,14.2-60c-3.6-8.8-9.8-16-18.1-20.5
	c-0.6-0.3-1.2-0.6-1.8-0.9c-8-3.9-16.3-7.2-25.2-8c-0.6-0.1-1.2-0.1-1.8-0.1c-1-0.1-1.6-0.6-1.9-1.6c-3.7-12.7-9.1-24.6-19.3-33.4
	c-3.1-2.7-6.6-5.1-10.2-7.1c-6.9-3.8-14.6-6.1-22.6-6c-5.2,0.1-10.1,0.8-14.8,2.2C98.6,134,83,151,73.9,170.3
	c-0.2,0.5-0.4,0.9-0.6,1.4c-0.1,0.2-0.2,0.5-0.3,0.7c-0.1,0.3-0.4,0.6-0.6,0.9c-0.7,0.8-1.8,1.4-2.7,1.4c-5.8-0.5-12-0.2-17.9,1.2
	c-4.1,1-8,2.5-11.5,4.8c-7.5,4.8-15.4,9.8-20.7,17.1c-5.6,7.9-9,16.2-10.8,25.6c-1.2,6.3-0.6,12.4-0.2,18.8c0,0.4,0.1,0.7,0.1,1.1
	c0.2,1.6,0.5,3.2,0.8,4.8c0.3,1.3,0.7,2.7,1.1,4c3.9,12.2,12.5,23.9,22,31.5c4.8,3.8,10.1,7.3,15.7,9.9c3.1,1.4,6.3,2.6,9.6,3.4
	c5.4,1.3,10.9,3.1,16.5,3.1c14.5,0,29.6-2.6,42-10.5c1.6-1,5.5-5.1,7.8-4.2c3.5,1.4,7,2.8,10.5,3.9c7.4,2.3,15,4.2,22.6,5.5
	C190.5,300.3,224.2,296.7,257.1,291.2z"/>
</svg>
