<?xml version="1.0" encoding="utf-8"?>
<!-- Generator: Adobe Illustrator 19.2.0, SVG Export Plug-In . SVG Version: 6.00 Build 0)  -->
<svg version="1.1" id="Capa_1" xmlns="http://www.w3.org/2000/svg" xmlns:xlink="http://www.w3.org/1999/xlink" x="0px" y="0px"
	 viewBox="0 0 425.2 425.2" style="enable-background:new 0 0 425.2 425.2;" xml:space="preserve">
<g>
	<path d="M410.2,156.2c-3.5-30-25.2-55.7-61.4-73c-2.4-1.1-4.8-2.2-7.2-3.3c-14.3-6.1-30-10.7-46.8-13.8
		c-28.2-5.2-59.2-6.2-90.9-2.5c-50.5,5.9-96.8,22.9-130.4,47.8c-35.2,26.1-52.6,58-48.9,89.9c3.7,31.8,28,58.9,68.3,76.2
		c38.4,16.5,87.4,22.3,137.9,16.4c6.1-0.7,12.2-1.6,18.2-2.6c-15.9,36.6-53.7,54.3-88.5,73.2c50.9-10.2,117.5-36.2,146.6-89.1
		c20.2-7.8,38.6-17.6,54.2-29.2C396.6,220,414,188,410.2,156.2z M388.9,204.8c-15.6,22.4-42.8,42.4-77.4,56.6
		c-0.8,0.2-1.5,0.3-2.3,0.4c-0.1,0.2-0.2,0.4-0.3,0.6c-2.5,5.4-5.3,10.5-8.4,15.4c-21.4,33.6-56.7,56.5-95.8,67.3
		c26.5-14.2,46.3-31,55.6-56c1.5-4.1,2.8-8.4,3.7-13c0.6-3,1.1-6.1,1.5-9.4c-2.5-6-8-5.9-10.8,7.5c-0.3,1.3-0.6,2.6-0.9,3.9
		c-6.8,1.3-13.8,2.3-20.9,3.2c-100.9,11.8-188.1-25.7-194.9-83.6c-2.1-18.3,4-36.4,16.6-53.1c26.2-37.6,85.1-68.2,156.2-76.5
		c100.9-11.8,188.1,25.7,194.9,83.6C407.6,170,401.4,188.2,388.9,204.8z"/>
	<path d="M304.6,262c0,0,0.1,0,0.1,0C304.7,262,304.7,262,304.6,262C304.6,262,304.6,262,304.6,262z"/>
	<path d="M68.1,93.2C95,73.9,119.9,70,131.8,66.8c17.8-4.7-27.1-6.6-68,22.7c-33.4,24-59,60.4-48.4,54.1
		C18.1,142.1,37.6,115,68.1,93.2z"/>
	<path d="M33.2,108.1c2.9-0.3,9-12.4,29.5-26.1c12.8-8.6,24.2-12.8,35-16.6c12.6-4.4-13.5-2.7-37.2,13.4
		C36.8,94.8,31.7,108.3,33.2,108.1z"/>
	<path d="M298.3,73.7c-27.3-5.4-52.7-0.9-39.4-0.7c11.5,0.2,20.5-1.1,38.3,2.3c27.1,5.1,33.5,10.4,36.4,10
		C335.1,85,325.5,79.1,298.3,73.7z"/>
</g>
</svg>
