<?xml version="1.0" encoding="utf-8"?>
<!-- Generator: Adobe Illustrator 19.2.0, SVG Export Plug-In . SVG Version: 6.00 Build 0)  -->
<svg version="1.1" id="Capa_1" xmlns="http://www.w3.org/2000/svg" xmlns:xlink="http://www.w3.org/1999/xlink" x="0px" y="0px"
	 viewBox="0 0 425.2 425.2" style="enable-background:new 0 0 425.2 425.2;" xml:space="preserve">
<g>
	<path d="M391,211.6l-4.4-2.7l4.5-2.5c8.3-4.6,13.1-11.2,13.1-18c0-7-5-13.7-13.7-18.4l-5.7-3l6-2.5c6.2-2.6,9.9-6.1,9.9-9.3
		c0-4.4-6.7-9-16.6-11.5l-8.2-2.1l7.6-3.7c7.6-3.6,11.9-8.8,11.9-14.2c0-10.2-15.5-18.8-33.8-18.8c-9.7,0-19,2.4-25.5,6.6l-1.9,1.2
		l-1.7-1.4c-7.5-6.3-18.7-9.9-30.6-9.9c-9.4,0-18.6,2.3-25.7,6.4l-2.8,1.6l-1.5-2.8c-6-11.5-22.2-19.2-40.3-19.2
		c-17.4,0-33.4,7.3-39.7,18.2l-1.6,2.7l-2.6-1.6c-7.7-4.5-18-7.1-29-7.1c-11.8,0-23,3-30.7,8.2l-2.3,1.6l-1.8-2.2
		c-9.8-12.2-29.2-19.8-50.4-19.8c-31.2,0-56.7,16.3-56.7,36.3c0,9.9,6.5,19.5,17.9,26.4l2.3,1.4l-1.1,2.5c-2.2,4.8-3.3,9.9-3.3,15.2
		c0,10.2,4.2,19.7,11.8,26.9l3.3,3.1l-4.1,1.9c-10.2,4.7-16.2,12.1-16.2,19.6c0,13.7,18.7,24.9,41.7,24.9c6.7,0,13.1-0.9,19-2.8
		l1.9-0.6l1.3,1.5c8.2,9.7,23.6,15.8,40.1,15.8c8.2,0,16.1-1.5,23-4.2c3.7-4.4,8.9-7.6,14.9-9.2c1.4-1.4,2.7-2.8,3.8-4.3l2-2.8
		l2.5,2.4c1.9,1.8,4.3,3.4,7.1,4.8c2.6,0.7,5.1,1.7,7.3,2.9c6.9,2.2,15.1,3.4,23.8,3.4c10.7,0,21-1.9,29-5.4l1.8-0.8l1.5,1.3
		c8.5,7.5,22.4,11.9,37.1,11.9c12.9,0,25.2-3.4,33.8-9.4l1.2-0.8l23.6,6.3c6.2,2.6,13.2,3.9,20.4,3.9c22,0,40-12.3,40-27.5
		C404.2,224.3,399.4,216.8,391,211.6z"/>
	<path d="M189.4,254.6c-2-1.2-4.2-2.1-6.6-2.7c-1.8-0.4-3.8-0.7-5.8-0.7c-1.6,0-3.2,0.2-4.7,0.4c-5.9,1.1-11,4.3-14.2,8.7
		c-2.3,3.1-3.6,6.9-3.6,10.9c0,11.1,10.1,20.1,22.5,20.1c12.4,0,22.5-9,22.5-20.1C199.5,264.3,195.5,258.2,189.4,254.6z"/>
	<path d="M219.1,288.2c-9.4,0-17.1,7.1-17.1,15.8c0,8.7,7.7,15.8,17.1,15.8s17.1-7.1,17.1-15.8C236.1,295.3,228.5,288.2,219.1,288.2
		z"/>
	<path d="M261.5,316.4c-6.9,0-12.5,5.1-12.5,11.4c0,6.3,5.6,11.4,12.5,11.4c6.9,0,12.5-5.1,12.5-11.4
		C274,321.6,268.4,316.4,261.5,316.4z"/>
</g>
</svg>
