<?xml version="1.0" encoding="utf-8"?>
<!-- Generator: Adobe Illustrator 19.2.0, SVG Export Plug-In . SVG Version: 6.00 Build 0)  -->
<svg version="1.1" id="Capa_1" xmlns="http://www.w3.org/2000/svg" xmlns:xlink="http://www.w3.org/1999/xlink" x="0px" y="0px"
	 viewBox="0 0 425.2 425.2" style="enable-background:new 0 0 425.2 425.2;" xml:space="preserve">
<path d="M359.1,257.5c0-6.5-2.2-12.9-6.3-18.7c16.2-12.8,25.8-32.7,25.8-54c0-27.2-15.8-51.8-39.7-62.4c3.7-6,5.6-12.8,5.6-19.7
	c0-23.2-21.8-42.1-48.5-42.1c-8.9,0-17.4,2.1-24.9,6c-3-26.9-33.3-48.2-70.2-48.2c-38.8,0-70.4,23.6-70.4,52.6
	c0,1.5,0.1,2.9,0.2,4.4c-18.1,1.9-34.7,7.4-47.1,15.6c-13.8,9.2-21.4,21.3-21.4,33.9c0,10.7,5.5,21,15.5,29.5
	c-20,7.2-32.6,21.3-32.6,37.3c0,14.1,10.3,27.3,27,35.1c-1.7,4.6-2.6,9.3-2.6,14.2c0,27.1,27.8,49.1,61.9,49.1c3,0,6-0.2,9-0.5
	c9,26.3,40,45.1,75.1,45.1c19.1,0,37.3-5.4,51.5-15.3l95.6,87.5l5.4-4l-52.3-109.5C351.4,290.1,359.1,272.3,359.1,257.5z
	 M354.4,390.2l-86.8-79.5l-2.3,1.7c-13.4,10-31,15.6-49.7,15.6c-33.4,0-62.5-18.1-69.4-42.9l-0.8-2.9l-3,0.5
	c-3.6,0.6-7.2,0.8-10.9,0.8c-30.4,0-55.1-19-55.1-42.3c0-5,1.1-9.9,3.3-14.5l1.6-3.3l-3.4-1.3C62,215.6,52,204,52,191.9
	c0-14.3,13.7-27.4,34-32.8l7.2-1.9l-6.2-4.2c-11.6-7.9-18-17.8-18-28c0-21.7,28.3-40.2,65.8-43.1l3.9-0.3l-0.8-3.8
	c-0.5-2.2-0.7-4.5-0.7-6.8c0-25.3,28.5-45.8,63.6-45.8c35.1,0,63.6,20.6,63.6,45.8c0,0.3,0,0.6,0,0.9l-0.3,7.2l5.6-3.8
	c7.5-5.1,16.5-7.9,26.1-7.9c23,0,41.7,15.8,41.7,35.3c0,6.8-2.3,13.4-6.7,19.2l-2.8,3.7l4.4,1.6c23.5,8.6,39.3,31.7,39.3,57.6
	c0,20.2-9.6,39.1-25.8,50.5l-3,2.2l2.4,2.8c4.5,5.2,6.9,11.2,6.9,17.2c0,18.1-14.1,28.1-41.9,29.6l-5.1,0.3L354.4,390.2z"/>
</svg>
