<?xml version="1.0" encoding="utf-8"?>
<!-- Generator: Adobe Illustrator 19.2.0, SVG Export Plug-In . SVG Version: 6.00 Build 0)  -->
<svg version="1.1" id="Capa_1" xmlns="http://www.w3.org/2000/svg" xmlns:xlink="http://www.w3.org/1999/xlink" x="0px" y="0px"
	 viewBox="0 0 425.2 425.2" style="enable-background:new 0 0 425.2 425.2;" xml:space="preserve">
<path d="M297.1,347.2l1.4-2.3C297.5,346.4,297.1,347.2,297.1,347.2z"/>
<path d="M334.5,177.4L334.5,177.4l25.7-10.3v-57.6H229l-9.5,29.7l-11.1-94.7L195,133.9l-8.3-24.4H64.3v65.8v0l13.4,4.9l12.3,4.5h0
	l-72.3,10.6l0,0l67,14l-20.4,8.3v57.9h122.1l7.3-22.3l13.7,73.1l12.2-74.6l8.4,23.9h73.1l34.4,68.8l16.6-16.3l25.4,53.3l0,0
	l-14.2-91.3l-14.2,12.2l-6-26.7h17.1v-64.2v0l-20.4-8.3l0,0l67-14L334.5,177.4z M351.4,210.7v54.6h-23.2l17.2,53.9l14.8-16l9.2,50.4
	l-13.5-39.2l-16.3,15l-28.2-64.1h-81.7l-10.4-44.1l-12.2,74l-13.1-59.2l-9.6,29.2H79.4V217l30-8.7L58,194.8l60.2-10.1l-38.8-12.5
	v-48.7h106.9l8.7,34.1l12.9-73.8l10.6,82.6l12.5-42.8h120.4V166l-45,12.5l60.2,10.1L315.2,202L351.4,210.7z"/>
</svg>
