<?xml version="1.0" encoding="utf-8"?>
<!-- Generator: Adobe Illustrator 19.2.0, SVG Export Plug-In . SVG Version: 6.00 Build 0)  -->
<svg version="1.1" id="Capa_1" xmlns="http://www.w3.org/2000/svg" xmlns:xlink="http://www.w3.org/1999/xlink" x="0px" y="0px"
	 viewBox="0 0 425.2 425.2" style="enable-background:new 0 0 425.2 425.2;" xml:space="preserve">
<g>
	<path d="M390.3,123.9c4.4-6.4,8.6-13.3,10.1-21.1l-0.1-0.3c3.9-12.6-0.3-26.8-9.7-35.9c-8.5-6.3-18.7-9.5-29.4-9.4
		c-9.1,1.7-18,4-25.9,8.9c-7.8,4.8-13.8,12.5-16.6,20.7c-0.4,0.9-0.1,2.1-1.2,2.6c-0.8,0.4-2.2,0.5-2.5-0.6
		c-1.2-7.2-4.8-14.9-12.5-16.7c-9.8-2-19.4,2.1-24.9,10.3c-0.7,0.5-1.5,0-1.9-0.6c-0.9-1.8,0.4-3.3,1.2-4.7
		c0.7-4.9-0.1-10.5-2.6-14.6c-3.9-6.9-12.3-8.5-20-7.2c-4.5,1.8-10.2,3.7-12.4,8.7c-0.6,0.6-1.5,0.1-1.6-0.6c1-2.8,1.4-5.9,2-9
		c1.7-8,0.1-17.2-4.9-23.8c-5.5-6.8-12.8-10.4-21.1-11.3c-3.5-0.4-6.8-1.2-10.5-0.7c-7.5-0.3-13.8,2.6-20.4,4.5
		c-4.5,1.9-8.9,4.9-12.6,8.5c-4.8,7.1-9.7,14.3-12.2,22.6c-1,1.6,0.3,4.2-1.4,5.6c-0.4,0.2-1.1,0.3-1.4-0.1c-0.5-1.5-1-3.1-0.9-4.7
		c-1.4-9.5-10.9-16.9-19.6-19.4c-11-3.5-25-2.9-34.4,4.6c-7.3,6.2-14.2,15.1-11.9,25.7c-0.3,0.5-0.8,0.9-1.4,1c-1,0.1-0.9-1-1.5-1.4
		c-2.9-0.8-5.4-2.7-8-4.4c-7.5-3.5-16-5.9-25.2-4.5c-6.6,0.1-11.9,3.6-17.1,7c-10.1,8.2-15.9,20-13.2,33c0.6,7.8,5.3,14.2,12.1,18.3
		c1.4,0.8,3.5-0.1,4.3,1.7c6.8,2.5,14.5,4.3,22.2,3.1l0.9,0.6c0.2,1.6-1.6,1.6-2.5,2.2c-4.7,4.3-10.3,9.7-8.4,16.9
		c0.1,3.4,5.2,5.5,2.8,9.1c-0.8,0.5-1.7-0.4-2.6-0.2c-5.9,0.6-11.7,1.8-17.2,3.6c-7.5,4.1-14.2,10.6-17.6,18.3
		c-3,9.7-2.3,21.6,4.8,29.1c4.3,4.9,10.3,6.5,16.1,8.5c6.7,1.3,13.8-0.1,20-2.5c1.5-0.6,2.4-3.5,4.2-1.7c0.4,1.6-1.1,2.3-1.9,3.2
		c-1.5,2.4-1.9,6.3-0.6,9.1c-0.9,3.3,1.9,5.8,3.9,7.9c1.4,2.2,4.4,1.5,6,3.3c0.4,0.6,0.4,1.7-0.5,2c-11.6-0.6-21.5,8-26,18.2
		c-2.9,6.9-3.2,16.9,0.4,23.7c1.9,8.3,10.6,13,17.1,17.3c2.7,0.4,4.9,1.1,7.7,1.5c7.7,1,15.8-0.4,22.5-3.2c2.8-0.6,5.4-5.5,8.1-2.3
		c0.8,2.8-3,2.7-3.9,4.9c-5.3,9,0.1,18.6,5.4,26c2.4,1.7,3.9,3.9,6.4,4.9c6.2,3.3,13.2,5,20.4,2.8c10.1-3.2,17.5-12.3,18.7-22.8
		c0.5-3.5-0.3-6.7-1.1-10c0.4-1,1.7-1,2.5-1.5c1.5,1,1.5,2.9,2.9,4c4.7,2.8,10.6,1.9,15.6-0.1c4.3-2.5,6.8-7.2,8.3-11.6
		c0.8-2.1,1-4.6,2.6-6.3c1.1-0.6,2.2-0.8,3.5-0.5c1.5,0.5,1.8,2.1,2.1,3.4c-0.3,5.4-3.4,10.5-1.4,15.9c0.7,4.8,5.3,7.3,9.5,8.7
		c4.2,1.9,9.4,0.3,12.9-2.4c1.7-2.6,4.9-3.2,6.2-5.9c0.5-0.9,1.5-2.4,2.8-1.8c0.8,0.1,1.5,0.7,1.6,1.6c-1.4,1.3-1.2,3.3-2.2,4.8
		c-0.5,3.4-1.1,7.4-0.5,11.2c0,5.6,3.3,9.7,7.3,13.4c2.8,0.9,4,3.9,6.8,4.7c1.4,2,3.8,1.2,5.3,2.8c4.3,0.6,8.6,2.4,13.1,2.4
		c3.3-1.2,6.7-1.2,9.6-3.5c3.4-0.9,6.5-2.9,8.6-5.9c4-7,7.1-15.1,6.6-23.2c-0.3-5.3-4.3-9.2-5.5-14.2c0.3-0.7,1.1-0.3,1.6-0.4
		c4.1,2.8,8.9,5.5,14.1,4.2c7.2-2.1,14.9-7.9,16-15.9c0.9-2.9-0.9-6.4,1.6-8.8c5-0.4,5.3,5.9,9.3,7.9c3.7,2.3,9,2.3,12.8,0.5
		c3.4-1.1,2.2-5.1,4.8-6.9c0.8,0.2,1.6,0.6,1.8,1.4c0,3.9-0.4,7.5-0.1,11.5c1.2,7.1,3.2,14.2,9.5,18.9c5,2.4,10.3,4,15.7,5.5
		c4.6,0.1,8.7,0.6,13.4,0.2c11.6-2.5,24-7.5,29.7-18.9c1.7-5.5,4.2-11,3.6-17.4c-0.8-6.7-1.9-13.7-7.5-18.2c-2.6-3.9-7.4-5.6-12-6.5
		c-1.1,0.2-2.2,0.9-3-0.4c-0.4-0.8,0.1-1.4,0.6-2c3.4-1.3,7.2-2.7,9.5-5.8c1.4-2.5,3.3-4.6,3.8-7.4c1.4-5.7-2-10.7-6.2-14.2
		c-2-1.3-4.3-1.9-6.5-2.4c-1.5-0.8-4.4,1.3-4.8-1.3c0.2-1.3,1.7-1.1,2.6-1.6c4.4-1,8.7-1.9,12.4-4.9c4.1-3.5,7-8.7,6.2-14.2
		c0.4-3-2-4.8-2.8-7.3c-3-3.4-7-5.6-11.5-6.6c-1.7-0.7-4.7,0.8-5-1.9c1-2.4,3.8-1.4,5.6-2.1c7-2.2,12.2-8.7,13.5-15.6
		c0.6-5.1-1.6-9.7-4.6-13.6c-3-4.4-8.9-2.6-12.7-5.2c-0.1-0.4-0.3-1.1,0.1-1.5C381.4,132.3,386.1,128.5,390.3,123.9z"/>
	<path d="M301.1,269.8c0.1-0.1,0.3-0.2,0.3-0.4h-0.3V269.8z"/>
	<path d="M179.4,306.3c-2-1.1-3.9-2.9-6.3-3.1c-5.4-1.3-11.7-0.2-15.6,4.2c-3.5,4.3-6.8,9.8-4.2,15.6c1.3,2.4,2.8,4.9,5.4,6l3.3,0.9
		c1.2,0.5,2.7-0.2,3.6,0.6c6.6-0.7,12.7-5.2,14.7-11.5C182.4,314.9,182.1,309.8,179.4,306.3z"/>
	<path d="M203,323.6c-4.4-1.6-8.9,0.3-12.8,1.7c-5.3,3.7-9.7,9.3-9,16c-0.1,2.3,1.5,3.7,2.6,5.5c2.1,0.9,3.2,2.9,5.5,3.7
		c5.3,1.2,11.3,1.4,15.6-2.5c3.6-2,4.9-6.1,7-9.3c2.6-3.4,0.7-7.6-0.5-11C209,325.2,205.8,325,203,323.6z"/>
	<path d="M156.6,341.8c-3.8,2.4-7.6,5.7-8.2,10.3c-0.8,4.9,1.7,9,5.5,11.5c2.7,1.2,6,1.6,9,0.7c4.1-2.3,8.6-5.2,10.2-9.9
		c1-2.9,1.7-7.6-0.3-10.3C169,338.7,161.7,339.2,156.6,341.8z"/>
	<path d="M156.3,375.2c-3.3-3.8-8.5-5.4-12.8-2.6c-4.4,2.6-8.2,7.4-7.1,12.9c1.1,2.8,4.1,6.1,7.4,6.3c4.3,0.6,9-0.5,12-4.2
		c0.4-1.5,2.1-3,2.3-5C158.6,379.7,157.4,377.5,156.3,375.2z"/>
	<path d="M169.9,390.6c-3.9-1-7.6,0.9-10.4,3.7c-3.1,2.7-3.2,7-2,10.4c1.2,1.7,3,2.8,5,3.4c3.3,0.3,5.7-2.1,8-3.9
		c2-2.6,3.7-5.8,3.4-9C173.8,393,171.3,391.8,169.9,390.6z"/>
</g>
</svg>
