<?xml version="1.0" encoding="utf-8"?>
<!-- Generator: Adobe Illustrator 19.2.0, SVG Export Plug-In . SVG Version: 6.00 Build 0)  -->
<svg version="1.1" id="Capa_1" xmlns="http://www.w3.org/2000/svg" xmlns:xlink="http://www.w3.org/1999/xlink" x="0px" y="0px"
	 viewBox="0 0 425.2 425.2" style="enable-background:new 0 0 425.2 425.2;" xml:space="preserve">
<path d="M381.2,290.7c3.7-1.4,6.9-3.8,9.2-8.1c7.2-13.4,9.3-29.5,10.6-44.4c3.4-39.5,0.3-80.7-8.9-119.2
	c-3.6-14.8-7.8-30.7-16.4-43.5h0c-5.9-8.7-16.1-10.1-26.1-10.6c-34.5-1.8-69.9,6.2-103.2,14.1c-40.4,9.6-80.3,21.5-119.2,35.8
	c-6.6,2.4-13.7,4.9-20.9,7.5c-25,9.2-51.4,20.6-66.4,41.5c-22.9,31.7-23.1,76.5-7,111.9c2.4,5.3,5.2,10.4,8.3,15.2
	c0.2,0.4,0.5,0.8,0.7,1.1c2.4,3.1,4.9,6.2,7.5,9.2c17.2,20.1,39.4,38.1,63.9,48.6c-1.1-2.4-2.3-4.9-3.4-7.3
	c-8.3-17.4-16.9-34.7-24.3-52.5c-1.4-3.4,1.9-8.9,5.9-8.5c0.6,0.1,1.2,0.1,1.8,0.2c3.3,0.3,6.7,0.6,10,1c0.1,0,0.3,0,0.4,0
	c55.1,5.3,110.4,9.4,165.6,11.6c32.4,1.3,65.5,2.9,97.8-0.8C372.2,292.7,377.1,292.3,381.2,290.7z"/>
</svg>
