<?xml version="1.0" encoding="utf-8"?>
<!-- Generator: Adobe Illustrator 19.2.0, SVG Export Plug-In . SVG Version: 6.00 Build 0)  -->
<svg version="1.1" id="Capa_1" xmlns="http://www.w3.org/2000/svg" xmlns:xlink="http://www.w3.org/1999/xlink" x="0px" y="0px"
	 viewBox="0 0 425.2 425.2" style="enable-background:new 0 0 425.2 425.2;" xml:space="preserve">
<path d="M253.6,352.1l122.5,60.3c2.2,1.1,4.7,1.7,7.2,1.7c4.9,0,9.4-2.2,12.6-5.9c4.8-5.8,5-14.1,0.5-20.2l-64.9-87.3
	c27.6-31.9,42.8-72.4,42.8-114.6c0-96.2-77.8-174.5-173.3-174.5C105.3,11.7,27.5,90,27.5,186.2c0,96.2,77.8,174.5,173.3,174.5
	C218.3,360.6,236.1,357.8,253.6,352.1z M51,186.2C51,98.9,121.3,28,208.1,28c86.7,0,157.1,70.9,157.1,158.2
	c0,44.5-18.3,84.7-47.7,113.5l73,98.1l-128-63.2c-16.9,6.3-35.2,9.7-54.3,9.7C121.3,344.4,51,273.5,51,186.2z"/>
</svg>
