<?xml version="1.0" encoding="utf-8"?>
<!-- Generator: Adobe Illustrator 19.2.0, SVG Export Plug-In . SVG Version: 6.00 Build 0)  -->
<svg version="1.1" id="Capa_1" xmlns="http://www.w3.org/2000/svg" xmlns:xlink="http://www.w3.org/1999/xlink" x="0px" y="0px"
	 viewBox="0 0 425.2 425.2" style="enable-background:new 0 0 425.2 425.2;" xml:space="preserve">
<path d="M39.2,401.2c-0.1,7.6,11.2,4.1,13.7-2.6c8.3-22.4,19.7-43.8,30.9-64.9c6-11.2,12.2-22.3,18.6-33.3
	c6.9-11.9,13.4-24.1,23.3-33.8c14.7-14.2,34.3-20.5,54.3-22.2c41.6-3.6,82.9,9.1,124.1,13c34.4,3.3,63.2-11.7,76.2-44.4
	c15.4-38.9,4-86.5-8.6-124.4c-11.6-34.8-36.8-56.5-72.6-64.3c-36.8-8-76.1-2.1-112.2,6.5c-0.6,0.1-1.1,0.3-1.7,0.4
	c-1.5,0.3-2.9,0.7-4.4,1c-18.8,4.5-37.3,10.3-55.5,17C108,55.6,90.5,62.2,75.5,73.2c-50.4,37.2-35.3,108-26.7,160.5
	c7.7,53.5,1.7,111.3-12.4,163.4C35.5,400.4,37.1,401.5,39.2,401.2z M57.3,106.2c12.9-27.7,43.3-41.2,72.6-50.7
	c9.3-3,18.6-5.7,27.1-8.2C212.4,30.7,296.3,16,337.4,62.6c7.2,8.1,13.1,18.2,17.2,30.4c12.9,37.6,25.4,88.3,5.7,125.9
	c-6.9,13.2-17.5,20.1-29.6,23.2c-21.6,5.7-48.5-0.4-69.4-3.9c-31.5-5.1-66.1-11.9-98.1-5.6c-6.5,1.3-12.9,3.1-19.2,5.6
	c-18.1,7.3-33.3,19.9-44.1,36.2c-12.7,19.2-23.7,39.8-34.4,60.2c-1.5,2.9-3,5.8-4.5,8.6c-2,3.9-4,7.7-5.9,11.6
	c-0.8,1.6-1.6,3.1-2.4,4.7c7.4-39.5,10-80.6,5.6-120c-0.4-3.5-0.8-7.1-1.3-10.6c-0.1-0.6-0.2-1.2-0.3-1.8
	C50.4,188.6,39.9,143.5,57.3,106.2z"/>
</svg>
