<?xml version="1.0" encoding="utf-8"?>
<!-- Generator: Adobe Illustrator 19.2.0, SVG Export Plug-In . SVG Version: 6.00 Build 0)  -->
<svg version="1.1" id="Capa_1" xmlns="http://www.w3.org/2000/svg" xmlns:xlink="http://www.w3.org/1999/xlink" x="0px" y="0px"
	 viewBox="0 0 425.2 425.2" style="enable-background:new 0 0 425.2 425.2;" xml:space="preserve">
<g>
	<polygon points="246,369.3 248.6,357.4 248.7,357.2 247.9,357.6 241.8,361.3 233.4,366.3 223.2,360.5 223.2,360.5 218.2,357.6 
		218.9,360.2 222.5,374.6 222.5,374.6 222.4,374.7 209.3,386.5 212,386.7 226.7,387.8 233.9,404 240.6,387.6 258.3,386 244.9,374.4 
			"/>
	<path d="M318.1,127.6c-1.8-0.1-3.6-0.2-5.4-0.2l-19.9,13.4l9.7-13c-3.3,0.3-6.5,0.9-9.7,1.6c-2.5-44.8-37.8-82-83.8-85.3
		c-41.5-3-78.5,22.4-91.9,59.7l24.3,2.1l-29.5,25.7c-0.5,17,3.7,33.2,11.6,47.1l39.2,47.7c0.4,0.5-20.1-11-42.9-24
		c-12.4,10.4-20.7,25.7-22,43c-0.2,4,0,8.1,0.5,11.9c-2-0.4-3.8-0.7-5.8-0.9c-21.7-1.6-40.5,14.8-42.1,36.5
		c-1.8,21.7,14.6,40.8,36.5,42.3c6.7,0.5,13.2-0.9,19-3.4c0,0.7,0,1.3-0.2,2.2c-2,28.9,19.7,54.2,48.6,56.4
		c23.3,1.6,44.1-11.9,52.6-32.2c1.5,0.4,3,0.7,4.5,1l-2.7-11.1l15.3,8.9l6.2-31.7l10.1,31.1l14.3-8.7l-1.9,8.4
		c1.6-0.6,3.2-1.2,4.8-1.9c9.4,10.5,22.8,17.5,38.1,18.6c31.8,2.5,59.4-21.3,61.6-53.1c0.7-7.2-0.2-14.1-2.2-20.4
		c26.7-14.3,45.5-41.7,47.7-73.9C406.3,175.1,368.5,131.4,318.1,127.6z"/>
	<polygon points="61.7,159.6 68.5,163.7 92.8,178.2 87.5,155 84.7,143.1 88.6,139.7 111.8,119.3 90.3,117.3 76,116 61.7,82.8 
		47.6,116 11.5,119.3 38.8,143.1 30.8,178.2 	"/>
	<polygon points="321,91.1 332.3,87.9 347.9,83.5 359.7,95.7 367.4,103.6 368.5,75.6 393.6,63.6 367.4,53.9 363.6,26.2 346.3,48.1 
		318.8,43.2 334.2,66.5 	"/>
</g>
</svg>
