<?xml version="1.0" encoding="utf-8"?>
<!-- Generator: Adobe Illustrator 19.2.0, SVG Export Plug-In . SVG Version: 6.00 Build 0)  -->
<svg version="1.1" id="Capa_1" xmlns="http://www.w3.org/2000/svg" xmlns:xlink="http://www.w3.org/1999/xlink" x="0px" y="0px"
	 viewBox="0 0 425.2 425.2" style="enable-background:new 0 0 425.2 425.2;" xml:space="preserve">
<path d="M245.3,282.4l98.4,1.2c20.8,0.2,38.5-16.5,39.4-37.3l7.2-168.3c0.9-20.7-15.3-36.7-36.1-35.5L70.3,59
	C49.5,60.2,33.7,78.1,35,98.9L44,242.3c1.3,20.7,19.4,37.9,40.1,38.1l79,1l-6.9,14.5l35.5-2.6l-25.1,26.3h42.4l-50.4,64l128.4-92.3
	h-49.3L245.3,282.4z M271.5,294.3l-65.9,47.4l26.9-34.2h-40.3l26.4-27.7l-42.1,3.1l8.1-17.1l-82-1c-20.8-0.3-38.8-17.4-40.1-38.2
	l-7.7-121.6C53.4,84.4,69.3,66.4,90,65.2l260.1-15.1c20.7-1.2,37,14.8,36.1,35.5L380,230.5c-0.9,20.7-18.6,37.5-39.4,37.3l-87.8-1.1
	l-23.4,27.6H271.5z"/>
</svg>
