<?xml version="1.0" encoding="utf-8"?>
<!-- Generator: Adobe Illustrator 19.2.0, SVG Export Plug-In . SVG Version: 6.00 Build 0)  -->
<svg version="1.1" id="Capa_1" xmlns="http://www.w3.org/2000/svg" xmlns:xlink="http://www.w3.org/1999/xlink" x="0px" y="0px"
	 viewBox="0 0 425.2 425.2" style="enable-background:new 0 0 425.2 425.2;" xml:space="preserve">
<path d="M333.2,324c0.1-0.1,0.1-0.2,0.2-0.3c0.5-1.1,1.1-2.1,1.6-3.2c0-0.1,0.1-0.1,0.1-0.2c0.6-1.2,1.1-2.4,1.6-3.6c0,0,0,0,0,0
	c0.5-1.1,1-2.3,1.4-3.4c0.1-0.3,0.2-0.6,0.3-0.9c0.4-1,0.7-1.9,1.1-2.9c0.1-0.3,0.2-0.6,0.3-0.9c0.5-1.2,0.9-2.5,1.3-3.8
	c0-0.1,0.1-0.2,0.1-0.3c0.4-1.2,0.8-2.4,1.1-3.6c0.1-0.4,0.2-0.8,0.4-1.2c0.3-1,0.6-2,0.8-3c0.1-0.4,0.2-0.8,0.3-1.2
	c0.4-1.4,0.7-2.8,1.1-4.2c1.8-1.1,3.6-2.2,5.4-3.3c0.3-0.2,0.7-0.4,1-0.7c1.5-1,2.9-1.9,4.3-2.9c0.3-0.2,0.5-0.4,0.8-0.6
	c31.9-22.3,50.8-51.5,56.1-82c0-0.2,0-0.3,0.1-0.5c0.3-1.5,0.5-3.1,0.7-4.6c0-0.1,0-0.3,0.1-0.4c0.2-1.7,0.4-3.3,0.5-5v0
	c0.1-1.5,0.2-3,0.2-4.6c0-0.6,0-1.1,0-1.7c0-1,0-1.9,0-2.9c0-0.7,0-1.4-0.1-2.1c0-0.8-0.1-1.5-0.1-2.3c-0.2-3.3-0.6-6.7-1.1-10
	c0-0.2-0.1-0.4-0.1-0.7c-0.2-1.2-0.4-2.5-0.7-3.7c0-0.1,0-0.2-0.1-0.3c-0.3-1.3-0.6-2.5-0.9-3.8c-0.2-0.8-0.4-1.6-0.6-2.4
	c-0.1-0.4-0.2-0.9-0.4-1.3c-0.3-0.9-0.6-1.9-0.8-2.8c-0.1-0.3-0.2-0.6-0.3-0.8c-0.3-1-0.7-2.1-1.1-3.1c0-0.1-0.1-0.3-0.1-0.4
	c-0.4-1.1-0.8-2.2-1.2-3.2c-0.3-0.7-0.6-1.3-0.8-2c-0.2-0.4-0.3-0.8-0.5-1.2c-0.3-0.8-0.7-1.6-1.1-2.4c-0.1-0.2-0.2-0.5-0.3-0.7
	c-0.4-0.9-0.9-1.8-1.3-2.7c0-0.1-0.1-0.2-0.1-0.2c-17.1-33.7-53.1-63.4-109.4-80.3c-28.6-8.6-62.3-13.9-101.5-14.7
	C65.3,38.5,3,122.4,13.1,199.5c7.8,59.3,58.3,114.5,155.4,123.2c40.4,3.5,76.1,1.5,106.8-5.2c-2.7,9-6.7,18.1-12.6,26.6
	c-7.3,10.5-17.5,20.1-31.6,27.4c0,0,0,0,0,0c0.5,0.1,5.7,1.3,13.6,1.7c-0.1,0-0.1,0.1-0.2,0.1C266.3,374.5,309.1,370.4,333.2,324z"
	/>
</svg>
