<?xml version="1.0" encoding="utf-8"?>
<!-- Generator: Adobe Illustrator 19.2.0, SVG Export Plug-In . SVG Version: 6.00 Build 0)  -->
<svg version="1.1" id="Capa_1" xmlns="http://www.w3.org/2000/svg" xmlns:xlink="http://www.w3.org/1999/xlink" x="0px" y="0px"
	 viewBox="0 0 425.2 425.2" style="enable-background:new 0 0 425.2 425.2;" xml:space="preserve">
<g>
	<path d="M382.2,123.6c4.4-6.4,8.5-13.3,10-21.1l-0.1-0.3c3.9-12.6-0.3-26.7-9.7-35.9c-8.4-6.3-18.7-9.5-29.3-9.3
		c-9,1.7-18,4-25.8,8.9c-7.7,4.8-13.8,12.5-16.6,20.7c-0.4,0.9-0.1,2.1-1.2,2.6c-0.8,0.4-2.2,0.5-2.5-0.6
		c-1.2-7.1-4.8-14.9-12.5-16.7c-9.8-2-19.4,2.1-24.8,10.2c-0.7,0.5-1.5,0-1.9-0.6c-0.9-1.8,0.4-3.3,1.2-4.7
		c0.7-4.9-0.1-10.4-2.6-14.6c-3.9-6.9-12.3-8.5-20-7.1c-4.5,1.8-10.1,3.7-12.4,8.6c-0.6,0.6-1.5,0.1-1.6-0.6c1-2.8,1.4-5.9,2-8.9
		c1.7-8,0.1-17.2-4.9-23.7c-5.5-6.8-12.8-10.4-21.1-11.3c-3.5-0.4-6.8-1.2-10.5-0.7c-7.5-0.3-13.8,2.6-20.4,4.5
		C173,25,168.7,28,165,31.5c-4.8,7-9.7,14.3-12.2,22.6c-1,1.6,0.3,4.2-1.4,5.5c-0.4,0.2-1.1,0.3-1.4-0.1c-0.5-1.5-1-3.1-0.9-4.7
		c-1.4-9.5-10.9-16.9-19.6-19.4c-10.9-3.5-25-2.9-34.4,4.6c-7.3,6.2-14.2,15.1-11.9,25.6c-0.3,0.5-0.8,0.9-1.4,1
		c-1,0.1-0.9-1-1.5-1.4c-2.9-0.8-5.4-2.7-7.9-4.4c-7.5-3.5-16-5.9-25.1-4.5c-6.6,0.1-11.9,3.6-17.1,6.9c-10.1,8.2-15.9,20-13.2,33
		c0.6,7.7,5.3,14.2,12.1,18.3c1.4,0.8,3.5-0.1,4.3,1.7c6.8,2.5,14.5,4.3,22.2,3.1l0.9,0.6c0.2,1.6-1.6,1.6-2.5,2.2
		c-4.7,4.3-10.3,9.7-8.3,16.9c0.1,3.4,5.2,5.5,2.8,9.1c-0.8,0.5-1.7-0.4-2.6-0.2c-5.9,0.6-11.7,1.8-17.2,3.6
		c-7.5,4.1-14.2,10.6-17.6,18.3c-3,9.7-2.3,21.6,4.8,29.1c4.3,4.9,10.3,6.5,16.1,8.5c6.7,1.3,13.8-0.1,20-2.5
		c1.5-0.6,2.4-3.5,4.2-1.7c0.4,1.6-1.1,2.3-1.9,3.2c-1.5,2.4-1.9,6.3-0.6,9c-0.9,3.3,1.9,5.8,3.9,7.9c1.4,2.2,4.4,1.5,6,3.3
		c0.4,0.6,0.4,1.7-0.5,2c-11.6-0.6-21.5,8-25.9,18.2c-2.9,6.9-3.2,16.9,0.4,23.6c1.9,8.2,10.5,13,17.1,17.3c2.7,0.4,4.9,1.1,7.6,1.5
		c7.6,1,15.8-0.4,22.5-3.2c2.8-0.6,5.4-5.5,8.1-2.3c0.8,2.8-3,2.7-3.9,4.9c-5.3,9,0.1,18.6,5.4,26c2.4,1.7,3.9,3.9,6.4,4.9
		c6.2,3.3,13.2,4.9,20.4,2.8c10.1-3.2,17.5-12.3,18.7-22.7c0.5-3.5-0.3-6.6-1.1-10c0.4-1,1.7-1,2.5-1.5c1.5,1,1.5,2.9,2.9,4
		c4.7,2.8,10.6,1.9,15.6-0.1c4.3-2.5,6.8-7.2,8.3-11.6c0.8-2.1,1-4.6,2.6-6.3c1.1-0.6,2.2-0.8,3.5-0.5c1.5,0.5,1.8,2.1,2.1,3.4
		c-0.3,5.4-3.4,10.5-1.4,15.9c0.7,4.8,5.3,7.2,9.4,8.7c4.2,1.9,9.3,0.3,12.9-2.4c1.7-2.6,4.9-3.2,6.2-5.8c0.5-0.9,1.5-2.4,2.8-1.8
		c0.8,0.1,1.5,0.7,1.6,1.6c-1.4,1.3-1.2,3.3-2.2,4.8c-0.5,3.4-1.1,7.4-0.5,11.2c0,5.6,3.3,9.7,7.2,13.4c2.8,0.9,4,3.9,6.7,4.7
		c1.4,2,3.8,1.2,5.3,2.8c4.3,0.6,8.6,2.4,13.1,2.4c3.3-1.2,6.6-1.2,9.5-3.5c3.4-0.9,6.5-2.9,8.6-5.9c4-7,7.1-15.1,6.6-23.2
		c-0.3-5.3-4.3-9.2-5.5-14.2c0.3-0.7,1.1-0.3,1.6-0.4c4.1,2.8,8.8,5.5,14.1,4.2c7.2-2.1,14.9-7.8,16-15.9c0.9-2.9-0.9-6.3,1.6-8.7
		c5-0.4,5.3,5.9,9.3,7.9c3.7,2.3,8.9,2.3,12.8,0.5c3.4-1.1,2.2-5.1,4.8-6.9c0.8,0.2,1.6,0.6,1.8,1.4c0,3.9-0.4,7.4-0.1,11.4
		c1.2,7,3.2,14.2,9.5,18.8c5,2.4,10.3,4,15.7,5.5c4.6,0.1,8.7,0.6,13.4,0.2c11.6-2.5,23.9-7.5,29.7-18.8c1.7-5.5,4.2-11,3.6-17.4
		c-0.8-6.7-1.9-13.7-7.4-18.2c-2.6-3.9-7.4-5.6-12-6.5c-1.1,0.2-2.2,0.9-3-0.4c-0.4-0.8,0.1-1.4,0.6-2c3.4-1.3,7.2-2.7,9.5-5.8
		c1.4-2.5,3.3-4.6,3.8-7.4c1.4-5.7-2-10.7-6.2-14.2c-2-1.3-4.3-1.9-6.5-2.4c-1.5-0.8-4.4,1.3-4.8-1.3c0.2-1.3,1.7-1.1,2.6-1.6
		c4.4-1,8.7-1.9,12.4-4.9c4.1-3.5,7-8.6,6.2-14.2c0.4-3-2-4.8-2.8-7.3c-3-3.4-7-5.6-11.5-6.5c-1.7-0.7-4.7,0.8-5-1.9
		c1-2.4,3.8-1.4,5.6-2.1c6.9-2.2,12.2-8.7,13.5-15.6c0.6-5.1-1.6-9.7-4.6-13.6c-3-4.4-8.8-2.6-12.7-5.2c-0.1-0.4-0.3-1.1,0.1-1.5
		C373.4,131.9,378.1,128.1,382.2,123.6z"/>
	<path d="M293.2,269.3c0.1-0.1,0.3-0.2,0.3-0.4h-0.3V269.3z"/>
	<path d="M171.6,305.7c-2-1.1-3.9-2.8-6.3-3.1c-5.4-1.3-11.7-0.2-15.5,4.2c-3.5,4.3-6.8,9.7-4.2,15.6c1.3,2.4,2.7,4.9,5.4,6l3.3,0.9
		c1.2,0.5,2.6-0.2,3.6,0.6c6.6-0.7,12.7-5.2,14.7-11.5C174.7,314.3,174.3,309.2,171.6,305.7z"/>
	<path d="M195.2,323c-4.4-1.6-8.8,0.3-12.8,1.7c-5.3,3.6-9.7,9.2-8.9,15.9c-0.1,2.3,1.5,3.7,2.5,5.5c2.1,0.9,3.2,2.9,5.5,3.7
		c5.3,1.2,11.3,1.4,15.5-2.4c3.6-2,4.9-6.1,7-9.3c2.6-3.4,0.7-7.6-0.5-11C201.2,324.6,198,324.4,195.2,323z"/>
	<path d="M148.9,341.1c-3.7,2.4-7.6,5.7-8.2,10.2c-0.8,4.9,1.7,8.9,5.5,11.5c2.7,1.2,6,1.6,9,0.7c4.1-2.3,8.6-5.2,10.2-9.9
		c1-2.9,1.7-7.6-0.3-10.2C161.3,338.1,153.9,338.6,148.9,341.1z"/>
	<path d="M148.6,374.5c-3.3-3.8-8.5-5.4-12.8-2.6c-4.4,2.6-8.2,7.4-7.1,12.9c1.1,2.8,4.1,6.1,7.4,6.3c4.3,0.6,9-0.5,12-4.2
		c0.4-1.5,2.1-3,2.3-5C150.9,379,149.7,376.8,148.6,374.5z"/>
	<path d="M162.2,389.9c-3.9-1-7.6,0.9-10.4,3.6c-3,2.7-3.1,7-2,10.4c1.2,1.7,3,2.8,5,3.4c3.3,0.3,5.7-2.1,8-3.9
		c2-2.5,3.7-5.8,3.4-8.9C166,392.3,163.6,391.1,162.2,389.9z"/>
</g>
</svg>
