<?xml version="1.0" encoding="utf-8"?>
<!-- Generator: Adobe Illustrator 19.2.0, SVG Export Plug-In . SVG Version: 6.00 Build 0)  -->
<svg version="1.1" id="Capa_1" xmlns="http://www.w3.org/2000/svg" xmlns:xlink="http://www.w3.org/1999/xlink" x="0px" y="0px"
	 viewBox="0 0 425.2 425.2" style="enable-background:new 0 0 425.2 425.2;" xml:space="preserve">
<g>
	<path d="M336.7,238.4c-0.3,0.8,5.8,4.3,9.9,6.1c4.1,1.8,4,2.5,4.9,0.5c0.9-2,0.4-1.5-3.7-3.3C343.8,239.9,337.1,237.7,336.7,238.4z
		"/>
	<path d="M57.4,283.5c-2-1-3.8-1.3-5.3-1.4c-1.6-0.1-2.9,0.1-3.7,0.4c0.4-1.5,0.6-3.5-0.1-5.8c-1.7-6-10-12.1-19.6-9.7
		c-2.4,0.7-4.5,2.3-5.8,4.3c-1.4,1.9-2,4.2-2,6.3c0,4.3,2,7.5,3.9,9.7c0.2,0.2,0.4,0.4,0.6,0.6c-0.8,0.2-1.7,0.4-2.6,0.8
		c-1.8,0.7-4,2.1-5.2,4.7c-1.3,2.5-1.5,5.8-0.1,8.8c1.4,2.9,4.1,4.9,6.8,5.5c2.5,0.6,4.9,0.3,6.6-0.6c-0.3,1.4-0.1,3.6,1.2,5.8
		c1.3,2.2,3.6,4.3,6.7,5.6c3.1,1.4,7.3,1.5,10.9,0.1c3.7-1.4,6.6-4.3,8-7.4c1.5-3.1,1.6-6.3,1.1-8.7c-0.4-2.1-1.3-3.6-2.2-4.6
		c1.2-0.2,2.4-0.7,3.4-1.7c1.8-1.5,3-4.5,2-7.2C61.2,286.2,59.3,284.6,57.4,283.5z M58,293.9c-1,1.1-2.3,1.5-3.4,1.7
		c-2.4,0.2-4-0.7-4.3-0.3c-0.1,0.2,0.1,0.6,0.8,1.2c0.6,0.5,1.7,1.2,3.3,1.4c0.3,1.1,0.9,2.8,0.8,4.9c0.1,3.6-2.1,8.8-7.3,10.7
		c-2.5,1-5,1-7.3,0.3c-2.3-0.7-4.1-1.9-5.4-3.2c-1.8-1.8-2.2-3.6-2.5-4.6c0.9-0.7,1.5-1.5,2-2c0.6-0.8,0.9-1.3,0.7-1.5
		c-0.1-0.2-0.7,0-1.6,0.5c-0.9,0.5-2,1.3-3.5,1.7c-1.4,0.5-3.4,0.5-5.2-0.1c-1.9-0.6-3.7-2-4.6-4c-1-1.9-0.9-4.2-0.2-6
		c0.7-1.7,2.2-3,3.5-3.9c1.1-0.7,2.2-1.2,3-1.6c1.3,1,2.6,1.7,3.7,2c1.6,0.4,2.5,0.2,2.6,0c0.1-0.6-3.3-1.3-6.1-5.6
		c-1.4-2-2.7-4.9-2.4-7.8c0.1-2.9,2.1-5.9,5.3-6.9c0.8-0.3,1.6-0.4,2.5-0.4c0.9,0,1.8,0,2.6,0.1c1.7,0.2,3.3,0.7,4.8,1.4
		c2.9,1.4,4.9,3.6,5.9,5.7c0.9,2.1,1,4.2,0.8,5.6c-0.1,1.4-0.2,2.3,0,2.4c0.2,0.1,0.9-0.6,1.5-2.1c0,0,0-0.1,0-0.1
		c0.7,0.2,2.1,0.4,3.7,0.9c1.3,0.3,2.9,0.8,4.1,1.7c1.3,0.9,2.6,2.2,3.1,3.7C59.4,291.4,58.9,292.8,58,293.9z"/>
	<path d="M408.6,153.1c-1.3-1.7-3-3.1-4.8-4.2c-3.7-2-7.5-2.9-11.3-2.8c-1.9,0.1-3.7,0.5-5.3,1.4c-1.6,0.9-2.9,2.2-3.6,3.5
		c-0.3,0.7-0.7,1.3-0.8,2.1c-0.2,0.7-0.2,1.3-0.2,1.9c0.1,1.1,0.3,2,0.6,2.7c-0.5-0.1-1.1-0.2-1.7-0.3c-2-0.1-4.4,0.6-6.4,2.2
		c-2,1.6-3.7,4.3-3.7,7.6c0,3.2,1.9,6,4.2,7.4c2.3,1.4,4.9,1.5,6.8,1c0.7-0.2,1.2-0.5,1.7-0.7c-0.1,0.9,0.2,2.3,1.1,3.7
		c0.9,1.4,2.5,2.7,4.6,3.5c2,0.8,4.7,1,7.1,0.1c2.5-0.8,4.4-2.5,5.6-4.4c1.1-1.9,1.4-3.9,1.4-5.5c0-1.3-0.3-2.3-0.7-3.1
		c0.8-0.1,1.8-0.3,2.8-0.8c1.4-0.6,2.8-2,3.6-3.6c0.8-1.6,1.3-3.5,1.2-5.6C410.7,157,409.9,154.8,408.6,153.1z M405.5,162.7
		c-0.3,1-0.8,1.7-1.5,2.2c-1.4,1-3.2,1.3-4.5,1.5c-1.3,0.2-2.1,0.3-2.2,0.7c-0.1,0.4,0.6,0.9,2,1.4c0.6,0.2,1.4,0.4,2.3,0.5
		c0.1,0.7,0.1,1.7-0.1,2.9c-0.2,1.2-0.7,2.7-1.7,4c-0.9,1.2-2.3,2.4-4,2.9c-3.5,1.2-7-0.3-8.8-2c-1.1-1-1.6-2.2-1.9-2.8
		c0.4-0.3,0.7-0.5,0.9-0.8c0.7-0.7,1-1.2,0.8-1.4c-0.3-0.4-2.1,0.9-5.1,1.3c-1.4,0.1-3.2-0.2-4.6-1.2c-1.5-1-2.5-2.8-2.6-4.9
		c-0.1-2,1-3.9,2.3-5.1c1.4-1.3,3-2,4.4-2.2c3-0.3,5,0.6,5.2,0.2c0.1-0.2-0.2-0.7-1.1-1.3c-0.1-0.1-0.3-0.2-0.5-0.2
		c0.1-0.3,0.1-0.7,0.1-1.1c0.1-1.3,0.2-3,1.5-4.2c1.2-1.3,3.1-2.1,5.8-2c2.6,0.1,5.8,1,8.6,2.5c2.7,1.5,4.5,3.7,4.7,5.9
		C406,160.6,405.8,161.8,405.5,162.7z"/>
	<path d="M366.5,305.7c-1.8-1.2-3.6-2-5.3-2.4c0-0.1,0.1-0.2,0.2-0.3c0.5-1.3,1.3-3.3,1-6c-0.2-2.6-1.5-5.7-3.9-8.3
		c-2.4-2.5-5.9-4.5-9.9-5.1c-3.9-0.7-7.9,0-11,1.4c-3.1,1.5-5.4,3.8-6.8,6c-1.2,2-1.7,3.8-1.9,5.2c-4.1-1.8-9.3-4.6-14.6-8.4
		c-2.4-1.8-4.7-3.6-6.8-5.3c2.4-1.1,4.8-2.5,7-4.2c1.4-1.1,2.8-2.1,4.2-3.2c1.3-1.3,2.6-2.6,3.9-3.9c5-5.6,8.2-12.2,9.7-18.5
		c0.1-0.3,0.1-0.6,0.2-1c2.8,1.5,5.6,3,8.1,4.3c12.5,6.4,12.6,7.5,14.1,4.6c1.5-2.9,0.5-2.3-12-8.7c-2.9-1.5-6.1-3.1-9.5-4.7
		c0.4-4.1,0.2-7.8-0.3-11c2,0.1,4.5-0.1,7.6-1.1c3.5-1.2,7.5-3.5,10.9-7.3c3.4-3.7,5.9-9.2,6.2-15.1c0.5-6-1.5-11.5-4-15.7
		c-2.6-4.3-5.9-7.3-8.9-9.3c-2.4-1.6-4.6-2.6-6.3-3.1c2.7-1.9,5.9-5,8.4-9.8c2.9-5.5,4.4-13.2,2.8-21.3c2.1-0.5,4.1-1.1,6-1.6
		c9.6-2.7,10.2-2.2,9.6-4.3c-0.6-2.1-0.8-1.4-10.4,1.3c-1.8,0.5-3.8,1.1-5.8,1.7c-0.4-1.3-0.8-2.6-1.2-3.9c-0.3-1.1-0.8-2-1.4-3.1
		c-0.3-0.6-0.6-1.1-0.9-1.7c3.7-2.3,7.3-4.6,10.5-6.7c14.2-9.4,15.5-8.8,13.1-12.4c-2.4-3.6-2.3-2.1-16.5,7.3
		c-3.2,2.1-6.7,4.5-10.2,7c-0.6-0.7-1.1-1.5-1.7-2.2c-0.8-0.8-1.7-1.7-2.6-2.5c-0.9-0.9-1.7-1.7-2.8-2.4c-7.9-6-17.2-8.5-25.3-8.7
		c-8.2-0.2-15.5,1.7-20.9,4.3c-0.7,0.3-1.4,0.6-2,0.9c-0.6,0.4-1.2,0.7-1.8,1.1c-1.2,0.7-2.3,1.4-3.2,2c-1.8,1.5-3.4,2.8-4.6,4.1
		c-0.4,0.5-0.8,1-1.1,1.4c-0.3-0.4-0.6-0.9-1-1.3c-0.9-1-1.8-2.2-2.9-3.4c-1.1-1.2-2.6-2.2-4-3.3c-0.4-0.3-0.7-0.6-1.1-0.9
		c-0.4-0.3-0.9-0.5-1.3-0.7c-0.9-0.4-1.8-0.9-2.7-1.4c-0.9-0.5-2-0.7-3-1.1c-1-0.3-2.1-0.7-3.2-0.8c-4.5-0.8-8.8-0.1-12.4,1.1
		c-2.5,0.9-4.5,2-6.3,3.2c-0.3-0.6-0.7-1.2-1.1-1.9c-2.2-3.7-6.2-8.6-12.2-13.4c-6-4.8-13.9-9.6-23.5-13.1c-9.5-3.6-20.6-5.9-32.5-6
		c-5.9,0-11.6,0.5-17.1,1.3c-0.6,0.1-1.1,0.2-1.7,0.3c-0.5-3.3-0.5-3.5-2.1-3.2c-1.7,0.3-1.6,0.5-1,3.9c-2.3,0.5-4.6,1.1-6.8,1.8
		c-3.4-11.3-2.6-12.1-6.6-10.9c-4,1.2-2.9,1.5,0.8,13c-8.9,3.5-16.3,8.7-21.3,14.2c-4.5,5-7.1,10-8.4,14c-0.5-0.3-1.2-0.7-1.9-1.1
		c-2.5-1.1-6.4-2.4-11.5-2.3c-2.5,0-5.3,0.4-8.2,1.2c-2.8,0.9-5.9,2.1-8.7,4.1c-2,1.3-4,3-5.8,4.9c-1.6-3.2-2.6-6.2-3.1-8.5
		c-0.1-0.4-0.1-0.7-0.2-1c0.6,0.1,1.2,0.3,1.9,0.3c1.3,0.1,3-0.1,4.6-0.6c1.5-0.6,3-1.5,4.4-2.7c2.7-2.4,4.9-6.3,4.8-10.6
		c0.1-2.2-0.5-4.3-1.3-6.1c-0.9-1.9-2.2-3.3-3.6-4.6c-2.7-2.2-5.7-3.1-8.2-3.3c0.1-0.6,0.2-1.2,0.1-2c-0.1-2.2-0.7-5.6-3.2-9.1
		c-2.4-3.6-7.2-6.4-12.5-7.5c-5.2-1.2-11.8-0.7-17.5,2.3c-2.9,1.4-5.3,3.5-7.4,5.7c-1.9,2.4-3.6,4.8-4.5,7.5
		c-2,5.3-1.6,10.8,0.1,14.6c0.3,1,0.9,1.8,1.3,2.6c0.5,0.8,0.9,1.6,1.5,2.1c0.9,0.9,1.6,1.8,2.4,2.4c-0.4,0.2-0.7,0.4-1.1,0.7
		c-2.5,1.8-5.1,4.7-6.5,8.8c-0.6,2-1.2,4.3-0.9,6.8c0.1,2.4,1,5.1,2.5,7.3l1.3,1.6c0.5,0.5,1,0.9,1.5,1.3c1,0.9,2.2,1.3,3.3,1.9
		c2.3,0.9,4.5,1.4,6.5,1.4c4.2,0.3,8.1-1,10.7-2.8c2.3-1.6,3.7-3.4,4.5-4.8c2.2,3.5,5.6,7.5,10,11c-2,6.4-2.3,12.9-1.4,18.6
		c1,6.6,3.4,12.3,6.3,16.3c2.9,4.1,6.1,6.7,8.5,8c0.3,0.2,0.5,0.3,0.8,0.4c-0.6,0.9-1.3,1.8-1.9,2.8c-3.8,6-7.6,14-9.1,23.7
		c-0.8,4.9-0.9,10.1-0.1,15.5c0.8,5.4,2.7,10.9,5.5,15.9c0.3,0.6,0.7,1.3,1,1.9l0.4,0.6c-0.8,0.6-1.7,1.2-2.5,1.8
		c-15.5,11.4-16.9,10.9-14.3,14.4c2.6,3.5,2.5,2,18-9.4c0.8-0.6,1.5-1.1,2.3-1.7c0.7,1,1.5,1.9,2.4,2.8c0.9,1,1.9,2,2.8,3
		c0.3,0.3,0.6,0.6,0.9,0.8c-5.8,5.7-6.6,5.4-4.4,7.6c2.2,2.3,1.9,1.4,8-4.7c0.5,0.4,1.1,0.9,1.6,1.3c2.3,1.3,4.4,2.8,6.6,3.8
		c9,4.3,17.8,5.5,24.9,5.5c7.2,0,12.9-1.1,16.7-2.2c0.8-0.2,1.5-0.5,2.1-0.7c1.2,4.1,3.9,8.6,8.2,11.8c5.2,4,11.8,6.1,18.7,7
		c7,1,13.9,0.2,19.8-1.8c5.2-1.8,9.5-4.5,12.8-7.2c0,0,0,0,0,0.1c1,2.7,3.2,6.4,7.1,9.9c7.7,7.1,21.9,12.2,37.5,11
		c0.9-0.1,1.8-0.2,2.7-0.3c2,5.9,4.1,12,6,17.1c6,16.2,5.1,17.4,9.2,15.9c4.1-1.5,2.6-1.8-3.4-18c-1.8-4.8-4-10.5-6.3-16
		c2.9-0.7,5.6-1.6,8.2-2.6c0.6,1.4,1.1,2.8,1.6,4c3.5,8.1,2.7,8.8,5.7,7.5c3-1.3,2-1.3-1.5-9.3c-0.5-1.3-1.2-2.6-1.8-4
		c0.2-0.1,0.5-0.2,0.7-0.3c6-3.1,10.7-7,14.1-10.7c1.5-1.7,2.8-3.3,3.9-4.8c0.1,0,0.1,0.1,0.2,0.1c1.9,1,4.7,2,8.2,2.5
		c1.3,3.2,2.9,6.6,5,10.1c4.2,6.6,9.5,11.6,13.9,14.2c0.3,0.2,0.6,0.3,0.9,0.5c0,0-0.1,0-0.1,0c-1.6,0.9-3.7,2.6-5.7,5.4
		c-1.9,2.7-3.8,6.8-3.4,11.8c0.2,2.4,0.9,5,2.2,7.3c0.7,1.1,1.3,2.2,2.3,3.2c0.5,0.5,0.9,1,1.4,1.5c0.5,0.4,1.1,0.9,1.6,1.3
		c2.2,1.7,4.8,2.9,7.3,3.5c1.3,0.4,2.6,0.4,3.8,0.6c1.2,0,2.5,0,3.6-0.2c4.7-0.7,8.5-2.7,11-5c0.6-0.5,1.1-1.1,1.6-1.7
		c0.2,0.4,0.6,0.8,0.9,1.2c1.4,1.7,3.8,4.1,7.6,6.2c7.6,4.8,22.6,2.3,30.3-9.3c3.8-5.6,5-12.4,3.9-18.2
		C373.6,312.8,370.1,308.2,366.5,305.7z M368,326.4c-0.5,2.3-1.6,4.6-2.9,6.7c-2.7,4.3-7,7.1-11.3,8.5c-2.1,0.7-4.3,1.1-6.1,1.1
		c-1.9,0-3.7-0.4-5.4-1c-3.3-1.1-5.9-2.7-7.8-3.8c-0.5-0.3-1-0.6-1.4-0.8c0.8-1.2,1.4-2.4,1.8-3.4c0.5-1.8,0.5-2.9,0-3
		c-0.4-0.2-1.2,0.5-2.3,1.7c-1.2,1.1-2.8,2.7-5.1,4.1c-2.3,1.3-5.4,2.4-8.8,2.6c-0.9,0.1-1.7,0-2.6,0c-0.8-0.2-1.8-0.2-2.6-0.5
		c-1.8-0.4-3.4-1.3-4.8-2.4c-2.9-2.3-5-5.6-5.4-8.7c-0.5-3.2,0.2-6.3,1.3-8.7c1.1-2.5,2.4-4.5,3.4-5.9c0.2-0.3,0.4-0.6,0.5-0.8
		c1,0.3,1.8,0.6,2.5,0.8c1.4,0.3,2.3,0.3,2.5-0.1c0.2-0.4-0.2-1.2-1.2-2.2c-0.5-0.5-1.1-1-1.8-1.7c-0.6-0.7-1.4-1.4-2.2-2.2
		c-3.3-3.3-7.3-8.1-11.1-14c-1.3-2.1-2.5-4.2-3.7-6.3c-1.4-2.6-2.7-5.1-3.8-7.2c-1.7-3.4-3.1-6.2-4.1-7.8c-0.7-1-1.2-1.6-1.6-1.5
		c0,0,0,0,0,0c-1,0.2-1.1,4.1,0.4,9.9c-1.5,0.1-2.9,0.1-4,0.1c0.2-0.4,0.4-0.9,0.6-1.2c1.1-2.6,1.3-4.2,0.7-4.5
		c-1.3-0.8-5,3.7-12.2,9c-3.6,2.6-8.1,5.3-13.4,7.6c-0.3,0.1-0.6,0.2-0.9,0.4c-2.3-4.4-4.4-7.7-5-7.4c-0.6,0.3,0.3,4,1.9,8.6
		c-2.8,1-5.8,1.7-8.9,2.3c-3.9-8.9-7.3-15.6-8.1-15.3c-0.8,0.3,0.9,7.1,3.6,15.9c-0.1,0-0.3,0-0.4,0c-13.2,1-25.3-2.2-32.4-6.6
		c-4.1-2.4-6.8-5.1-8.6-6.9c5.4-5.5,7.1-10.1,6.4-10.5c-0.8-0.5-4.1,3.7-11,8.4c-3.4,2.3-7.7,4.6-12.8,6c-5.1,1.4-10.9,1.9-17,1
		c-6.1-0.8-11.9-2.5-16-5.4c-4.2-2.8-6.6-6.6-7.8-10.3c-1.2-3.7-1.2-7.1-1.3-9.4c0-2.4,0-3.7-0.4-3.9c-0.4-0.1-1.4,1.1-2.1,3.5
		c-0.7,2.3-1.5,5.8-0.9,10.3c-0.6,0-1.2,0-2,0c-3.8-0.1-9.2-0.1-15.6-1c-6.4-0.9-13.9-2.7-21.2-6.7c-2-1.1-4-2.3-5.8-3.8
		c5-5.5,9.6-11.1,8.9-11.7c-0.6-0.6-6.4,4-12.1,9c-1.9-1.8-3.6-3.8-5.3-5.9c4.4-3.4,8.9-7,13-10.3c8.6-7.1,15.2-12.9,14.7-13.7
		c-0.6-0.8-8.7,4.2-18.5,10.7c-4,2.7-8.3,5.6-12.5,8.5c-0.3-0.5-0.6-1-0.8-1.4c-4.6-8.2-6-17.2-5.1-25.4c0.1-0.9,0.2-1.8,0.4-2.7
		c0-0.3,0.1-0.5,0.1-0.8c0.1-0.7,0.2-1.4,0.4-2.1c0-0.2,0.1-0.4,0.1-0.6c0.2-0.8,0.3-1.5,0.5-2.3c0.1-0.4,0.2-0.8,0.3-1.2
		c0.1-0.3,0.2-0.7,0.3-1c0.3-0.9,0.6-1.8,0.8-2.7c0.1-0.4,0.3-0.7,0.4-1.1c0.1-0.3,0.2-0.7,0.4-1c0,0,0,0,0,0
		c0.8-2.2,1.6-4.2,2.5-6.1c5.5-11.9,10.8-18.7,9.7-19.7c-0.5-0.5-2.9,0.8-6.2,4c0,0,0,0,0,0c-0.2,0.2-0.5,0.5-0.7,0.7c0,0,0,0,0,0
		c-0.2,0.2-0.4,0.4-0.5,0.5c-0.1,0.1-0.3,0.3-0.4,0.4c-0.2,0.2-0.3,0.3-0.5,0.5c-0.2,0.2-0.4,0.5-0.6,0.7c-0.1,0.1-0.2,0.2-0.3,0.4
		c-0.3,0.4-0.6,0.7-1,1.1c-0.1,0.1-0.2,0.3-0.3,0.4c-0.2,0.3-0.5,0.6-0.8,0.9c-0.1,0.1-0.2,0.3-0.3,0.4c-0.4,0.5-0.7,0.9-1.1,1.4
		c-1.8-1.8-4.4-4.7-6.6-9c-2.1-3.8-3.6-8.9-4.2-14.6c-0.4-4.4-0.1-9.3,1.1-14c1.6,0.9,3.2,1.7,4.8,2.3c4.2,1.7,8.1,2.5,11.3,2.8
		c2.5,0.4,4.7,0.1,6.1,0c1.4-0.2,2.2-0.5,2.3-1c0-0.5-0.7-1-2-1.6c-0.5-0.3-1.2-0.5-1.9-0.7c-0.4-0.1-0.7-0.3-1.1-0.4
		c-0.7-0.3-1.6-0.5-2.4-0.9c-3.5-1.2-8-3-12.5-5.5c-0.8-0.4-1.5-0.9-2.3-1.3c0,0,0,0,0,0c-0.5-0.3-1-0.6-1.6-1
		c-1.4-0.9-2.7-1.9-4-2.8c-4-3.1-7.3-6.3-9.7-9c-3.2-3.5-5.1-5.9-5.9-5.5c-0.8,0.3-0.5,3.3,1.6,7.4c-0.1,0.1-0.2,0.1-0.3,0.2
		c-1.3,0.8-3,2-5.2,2.9c-2.2,0.9-4.8,1.3-7.8,0.8c-3.1-0.5-6-1.7-7.7-4c-1.7-2.3-1.8-5.6-1.1-8.4c0.7-2.9,2.2-5.3,3.8-7.1
		c3.1-3.6,6.4-4.8,6.2-5.8c-0.1-0.5-1-0.6-2.7-0.5c-0.9,0-1.8,0.4-3,0.8c0,0,0,0,0,0c0,0,0-0.1-0.1-0.1c-0.6-0.8-1-2-1.7-3.1
		c-0.4-0.5-0.5-1.3-0.8-2c-0.3-0.7-0.6-1.4-0.7-2.2c-0.8-3.1-0.6-7,1.1-10.8c0.8-1.9,2.2-3.7,3.6-5.4c1.6-1.6,3.4-3.2,5.6-4.2
		c4.3-2.2,9-2.8,13.4-2.2c4.3,0.6,7.7,2.2,10,4.4c2.3,2.2,3.5,4.7,4.3,6.5c0.2,0.6,0.4,1,0.6,1.5c-2,0.1-3.7,0.6-4.7,1.1
		c-1.3,0.7-1.8,1.3-1.7,1.6c0.3,0.7,3.1-0.4,7.3,0.5c2,0.4,4.3,1.5,6.3,3.3c0.9,0.9,1.7,2,2.3,3.3c0.5,1.3,0.9,2.6,0.8,4.1
		c0.1,6-5.4,10.5-9.1,10.6c-1,0.1-1.8,0-2.7-0.1c0-0.1-0.1-0.1-0.1-0.1c-0.1,0-0.1,0-0.2,0.1c-0.8-0.1-1.5-0.3-2.1-0.4
		c-1.2-0.3-2-0.4-2.2-0.1c-0.2,0.2,0.3,1,1.4,1.8c0.5,0.3,1.2,0.7,1.9,1.1c-0.1,0.6-0.2,1.2-0.2,2c-0.1,2.8,0.7,6.8,2.8,10.6
		c0.1,0.1,0.2,0.3,0.3,0.4c1.3,2.2,2.7,4.1,4.2,5.5c0,0,0,0,0,0c0.2,0.2,0.4,0.4,0.6,0.6c3,3,5.7,4.2,6,3.7c0,0,0,0,0,0
		c0.1-0.3-0.3-1-1.1-2c-0.9-1.2-2.2-2.8-3.7-4.7c1.7-2.2,3.7-4.1,5.7-5.6c2.2-1.7,4.6-2.9,6.9-3.9c2.4-0.8,4.6-1.5,6.8-1.7
		c5.8-0.7,10.2,0.1,12.6,0.4c0,0.2-0.1,0.3-0.2,0.5c-0.9,4.3-0.6,6.8,0.3,7c0.9,0.3,2.4-1.7,4.5-4.8c2.3-3.1,5.6-7.4,10.8-11.4
		c4.8-3.7,11-7.1,18.6-9.5c4,11.4,8.7,23.1,9.9,22.7c1.2-0.4-1.4-12.7-4.5-24.3c1.9-0.5,3.8-0.8,5.7-1.2c1.1,5.1,2.3,9.5,2.8,9.4
		c0.5-0.1,0.3-4.7-0.3-9.8c0.6-0.1,1.2-0.2,1.9-0.3c3.9-0.5,8-0.8,12.1-0.9c1,0,1.9,0,2.9,0c10.3,0.1,20.1,1.8,28.7,4.3
		c8.7,2.5,16.1,5.9,22.1,9.2c7,3.9,12,7.8,15.2,10.1c-3.3,3.1-4.5,5.7-3.9,6.2c0.7,0.6,3.3-1.2,7.7-3.3c2.2-1,4.8-2.1,7.7-2.9
		c2.9-0.6,6.1-1,9.4-0.4c0.8,0,1.6,0.4,2.4,0.6c0.8,0.2,1.6,0.3,2.3,0.7c0.7,0.3,1.5,0.7,2.2,1c0.3,0.2,0.7,0.3,1.1,0.5
		c0.3,0.2,0.7,0.4,1,0.6c1.3,0.9,2.6,1.5,3.7,2.4c1.1,0.9,2.1,1.7,3.1,2.4c3.7,3.2,6.3,5.2,7.1,4.6c0.4-0.3,0.2-1.1-0.4-2.5
		c-0.2-0.4-0.5-1-0.8-1.5c2.7-1.3,7.2-3.8,13.7-5.5c5-1.4,11.2-2.3,17.9-1.7c3.1,0.3,6.4,1,9.5,2.1v0c0,0,0,0,0,0
		c0.9,0.3,1.7,0.6,2.6,1c0,0,0.1,0,0.1,0c0.8,0.3,1.6,0.7,2.3,1.1c0.1,0,0.2,0.1,0.3,0.1c0.7,0.4,1.4,0.7,2,1.2
		c0.2,0.1,0.3,0.2,0.5,0.3c0.8,0.5,1.6,1,2.4,1.6c2,1.4,3.7,3.1,5.2,5c-9.3,6.9-17.1,13.1-16.5,13.9c0.6,0.9,9.4-3.9,19.3-9.8
		c1.2,2.1,2.1,4.2,2.9,6.4c-5.4,1.8-9.5,3.4-9.4,3.8c0.1,0.4,4.5-0.4,10.1-1.6c1.6,6,1.2,11.8-0.3,16.4c-1.5,4.7-4,8.2-5.9,10.5
		c-1.9,2.3-3.1,3.7-2.7,4.3c0.3,0.5,1.7,0.4,3.9-0.6c1.5,1.2,3.8,2.8,6.3,5.2c2.2,2.2,4.7,5.1,6.5,8.7c1.8,3.5,3.1,7.8,2.7,12.2
		c-0.3,4.4-1.9,8.5-4.3,11.5c-2.4,3.1-5.3,5.4-8,6.9c-2.4,1.3-4.5,2.1-6.2,2.6c-1.7-7.5-4.8-11.5-5.9-11c-1.3,0.5-0.4,5.8-0.7,14.1
		c-0.1,2.1-0.3,4.5-0.7,6.9c-8.2-3.8-15.2-6.6-15.6-5.9c-0.3,0.7,6.5,5,14.8,9.7c-0.3,1-0.6,2.1-0.9,3.1c-1.6,4.9-4.3,9.8-8.2,14.3
		c-1,1.1-2.1,2.1-3.1,3.2c-1.2,0.9-2.3,1.8-3.4,2.7c-2.2,1.8-4.5,3.2-6.8,4.5c-0.7,0.4-1.4,0.7-2.1,1c-2.3-2-4.1-3.5-5.3-4.1
		c-0.5-0.2-0.9-0.3-1.1-0.1c-0.2,0.1-0.3,0.5-0.2,1.1c0.2,1.1,0.9,2.8,2.2,4.9c1.3,2.1,3.2,4.7,5.6,7.4c2.5,2.8,5.6,5.6,9.3,8.3
		c6.3,4.5,13.1,7.2,18.2,7.9c1.3,0.2,2.4,0.3,3.4,0.3c1,0,1.9-0.1,2.6-0.2c1.5-0.2,2.2-0.6,2.3-1c0-0.5-0.7-1-1.9-1.6
		c-0.6-0.3-1.4-0.6-2.2-0.9c-0.8-0.4-1.6-0.7-2.5-1.1c0.5-1.2,1.2-2.7,2.5-4.4c1.4-1.7,3.4-3.4,6-4.5c2.7-1.1,5.9-1.6,9.2-1
		c3.3,0.5,6.2,2.1,8.3,4c2.1,2,3.3,4.3,3.7,6.4c0.5,2.4,0.2,4.4,0,5.7c-1.2-0.2-2.3-0.3-3.2-0.3c-2.4,0.2-3.5,0.6-3.5,1.1
		c0,0.5,1.2,1,3.2,1.5c1.9,0.8,4.6,1.8,7.1,4.1c2.4,2.3,4.5,5.8,4.9,10.2C368.8,321.8,368.6,324.1,368,326.4z"/>
</g>
</svg>
