<?xml version="1.0" encoding="utf-8"?>
<!-- Generator: Adobe Illustrator 19.2.0, SVG Export Plug-In . SVG Version: 6.00 Build 0)  -->
<svg version="1.1" id="Capa_1" xmlns="http://www.w3.org/2000/svg" xmlns:xlink="http://www.w3.org/1999/xlink" x="0px" y="0px"
	 viewBox="0 0 425.2 425.2" style="enable-background:new 0 0 425.2 425.2;" xml:space="preserve">
<g>
	<path d="M414.2,185.9c0-27.1-23.5-49.1-52.8-49.7c-10.4-27.5-36.9-47-68-47c-12.4,0-24.1,3.1-34.3,8.6
		c-12.9-22.7-37.3-38.1-65.2-38.1c-36.6,0-67.1,26.3-73.6,61c-18.4,5.6-33.7,18.4-42.5,35.2c-27,4.9-47.4,26.3-47.4,52
		c0,28.5,25.1,51.8,56.5,53c5.7,20.2,24.3,35,46.3,35c11.4,0,21.8-3.9,30-10.5c12.8,21.4,36.2,35.7,62.9,35.7
		c11.9,0,23.1-2.8,33.1-7.9c16.3,26,44.3,52.3,92.3,62c0,0-37.1-42.7-34-90.2c4.8,1.4,9.9,2.2,15.2,2.2c29.9,0,54.1-24.2,54.1-54.1
		c0-1.2,0-2.5-0.1-3.7C403.1,220.6,414.2,204.4,414.2,185.9z M371.2,225.9c0.1,1.1,0.1,2.2,0.1,3.4c0,27-21.9,48.9-48.9,48.9
		c-1.4,0-2.8-0.1-4.1-0.2c0.5-3.7,1.3-7.4,2.4-11c0-0.2,0.1-0.3,0.1-0.5c0,0-3.5,3.5-6.6,11c-0.7,1.6-1.3,3.5-1.9,5.5
		c-1.4,4.7-2.5,10.4-2.8,17.3c-1,23.5,8.2,43,13.3,51.2c0,0-33.7-18.8-54.4-44.1c-2.4-2.9-4.7-6-6.7-9.1c-0.5-0.7-0.9-1.4-1.3-2.2
		c-7.9-13.1-13.3-23.4-17-30.9c-4.9-10.1-6.6-15.1-6.6-15.1s2,24.9,16.6,52.8c-8.4,3.8-17.7,5.9-27.4,5.9
		c-24.2,0-45.3-12.9-56.9-32.3c-7.4,6-16.9,9.5-27.2,9.5c-19.9,0-36.7-13.4-41.9-31.7C71.6,253.4,49,232.3,49,206.6
		c0-23.2,18.4-42.6,42.9-47c7.9-15.2,21.7-26.8,38.4-31.8c5.9-31.4,33.5-55.1,66.6-55.1c23.5,0,44.1,11.9,56.3,30.1
		c-21,14.5-26.4,37.5-26.4,37.5s11.5-24.7,33.6-35.4c3.9-1.7,7.9-3,12.1-4c1.2-0.2,2.5-0.4,3.7-0.6c8.6-0.9,16.2-0.7,22.5,0.1
		c22.9,4.2,41.6,20.2,49.6,41.4c26.5,0.6,47.7,20.5,47.7,45C396,203.6,386,218.2,371.2,225.9z"/>
	<path d="M83,110.5c21.4,0,38.7-13.5,38.7-30.1S104.4,50.3,83,50.3c-21.4,0-38.7,13.5-38.7,30.1S61.6,110.5,83,110.5z M85.9,53.5
		c17.2,0,31.2,10.9,31.2,24.2c0,13.4-14,24.2-31.2,24.2c-17.2,0-31.2-10.9-31.2-24.2C54.7,64.3,68.6,53.5,85.9,53.5z"/>
	<path d="M59.1,133.6c0-9.9-10.3-17.9-23-17.9c-12.7,0-23,8-23,17.9c0,9.9,10.3,17.9,23,17.9C48.8,151.5,59.1,143.5,59.1,133.6z
		 M19.2,132c0-8,8.3-14.4,18.6-14.4c10.2,0,18.6,6.4,18.6,14.4c0,8-8.3,14.4-18.6,14.4C27.5,146.4,19.2,140,19.2,132z"/>
</g>
</svg>
