<?xml version="1.0" encoding="utf-8"?>
<!-- Generator: Adobe Illustrator 19.2.0, SVG Export Plug-In . SVG Version: 6.00 Build 0)  -->
<svg version="1.1" id="Capa_1" xmlns="http://www.w3.org/2000/svg" xmlns:xlink="http://www.w3.org/1999/xlink" x="0px" y="0px"
	 viewBox="0 0 425.2 425.2" style="enable-background:new 0 0 425.2 425.2;" xml:space="preserve">
<g>
	<path d="M211.5,43.1c-14.8,0-30.3,1.6-46,4.6c-68.9,13.5-101,53.5-115.7,84.7c-21.9,46.2-16.8,94.5-2.1,121.8
		c27.7,51.4,71.2,76.4,133.2,76.4c21.7,0,45.9-3.2,72.3-9.5c-4.5,10.4-12.8,25.7-27.7,44.6c-1.1,1.3-8.5,9.6-8.5,9.6l-27.4,30.7
		l37.9-16.1c4.5-1.9,110.4-47.7,143.3-135.9c15.4-41.5,12.1-85.3-10-130.3C349.7,101.4,301.4,43.1,211.5,43.1z M221.5,376.8
		c0,0,8-9,8.8-10c30.7-38.8,34.7-63.6,34.7-63.6c-126.6,35.2-182.4-3.8-211.6-58.1c-27.6-51.3-11.4-169,111.4-193
		c122.8-24,177.5,55.6,185.1,71.1C431,287.9,221.5,376.8,221.5,376.8z"/>
	<path d="M390.2,142.3c-3.1-84.7-103.1-134.8-168.4-120C285.1,22.4,368.1,57.3,390.2,142.3z"/>
</g>
</svg>
