<?xml version="1.0" encoding="utf-8"?>
<!-- Generator: Adobe Illustrator 19.2.0, SVG Export Plug-In . SVG Version: 6.00 Build 0)  -->
<svg version="1.1" id="Capa_1" xmlns="http://www.w3.org/2000/svg" xmlns:xlink="http://www.w3.org/1999/xlink" x="0px" y="0px"
	 viewBox="0 0 425.2 425.2" style="enable-background:new 0 0 425.2 425.2;" xml:space="preserve">
<path d="M312.7,149.9l-1.3-1.2l8.4-12.7L355.3,82l4.9-7.9c-8.2,2.1-16.4,5.2-24.7,7.6l-64.4,19.7l-1.8,0.2
	c-20-31.5-39.6-63.1-60.1-94.7l-45.4,78.5C153.1,80.1,142,74.3,132,68.6l-54.3-29l-6.4-4l-1.8-0.3l17.9,99.7
	c0.6,3.7,1.8,7.5,1.8,11.1c-23.6,10-48,19.4-71.1,29.6l0.3,0.4l81.3,42c-5.2,7.3-10.8,14.8-16.1,22l-36.5,48.9l-7.2,9.9l68-21.8
	l42.6-13.6c1.2,1.5,1.8,3.1,2.7,4.6l45.1,85.5h0.4l40.8-92.1l1.5-2.7l96.8,47.4l2.2,0.7v-0.4l-31.4-91.5l0.4-0.7l88.2-24.2l2.1-1
	c-8.7-4.2-17.9-8.1-26.7-12.1L312.7,149.9z"/>
</svg>
