<?xml version="1.0" encoding="utf-8"?>
<!-- Generator: Adobe Illustrator 19.2.0, SVG Export Plug-In . SVG Version: 6.00 Build 0)  -->
<svg version="1.1" id="Capa_1" xmlns="http://www.w3.org/2000/svg" xmlns:xlink="http://www.w3.org/1999/xlink" x="0px" y="0px"
	 viewBox="0 0 425.2 425.2" style="enable-background:new 0 0 425.2 425.2;" xml:space="preserve">
<path d="M372.5,134.6c-29-21.9-65.6-33.2-100.9-39.3c-41.9-7.2-85.3-6.4-126.9,1.8c-34.2,6.7-68.7,19.3-96.2,41.3
	c-19.8,15.8-35.5,38.5-34.5,64.7c0.2,4.8,1,9.5,2.2,14c4.8,22,21.6,40,39.7,52.9c29.3,20.9,65.7,32.1,101,37.6
	c45,7,91.3,5.6,135.6-4.9c1.9-0.5,15.8-5.3,16.2-5c1.4,1,2.8,2,4.2,2.9c6,4.2,12,8.4,18,12.6c10.4,7.3,20.8,14.6,31.2,21.9
	c2,1.4,4.9-1.5,4.4-3.6c-4-17.5-8-34.9-12-52.4c28.5-16.2,56.6-41.7,57.1-76.8c-0.1-5.8-0.9-11.4-2.4-16.7
	C404.3,164.7,389.7,147.6,372.5,134.6z M350,272.4c-1.2,0.7-2.4,2.2-2.1,3.6c3.5,15.5,7.1,31,10.6,46.5c-13.8-9.7-27.6-19.4-41.3-29
	c-2-1.4-3.9-2.7-5.9-4.1c-1.8-1.3-5,0.7-6.7,1.2c-5.9,1.8-12,3.2-18,4.6c-24.1,5.5-48.9,7.7-73.7,7.8c-41.8,0.2-84.3-6.9-122.8-23.6
	c-27.5-12-56.1-31.1-67.5-60c-0.7-1.7-1.3-3.4-1.7-5.1c-4.5-15.5-1.5-30.8,5.8-44.3c4.9-9,11.7-17.3,19.5-24.2
	c27.4-24.5,64.8-37,100.3-43.9c44-8.6,90.5-8,134.4,1c18.9,3.9,38,9.5,55.8,17.7c15.1,7,29.4,15.7,41.7,26.8
	c12.2,10.9,22.1,25,25.7,41c0.8,3.8,1.3,7.8,1.4,11.8C405,233.8,377.3,257.4,350,272.4z"/>
</svg>
