<?xml version="1.0" encoding="utf-8"?>
<!-- Generator: Adobe Illustrator 19.2.0, SVG Export Plug-In . SVG Version: 6.00 Build 0)  -->
<svg version="1.1" id="Capa_1" xmlns="http://www.w3.org/2000/svg" xmlns:xlink="http://www.w3.org/1999/xlink" x="0px" y="0px"
	 viewBox="0 0 425.2 425.2" style="enable-background:new 0 0 425.2 425.2;" xml:space="preserve">
<path d="M372.7,239.1c22.5-20.6,38.1-47.6,38.5-83c0.2-23.4-10.4-57.8-41.1-84.6c-28.5-24.8-84.2-51.1-187.8-35.7
	C81.9,51,13.3,112.1,11.8,188.2c-0.6,26.3,12.3,53.4,35.2,74.4c21.1,19.3,69.3,50.3,155.7,41.1c6-0.6,12.1-1.4,18.3-2.3h0
	c12.6-1.9,33.4-5.7,56.6-12.6c3.9,7.8,10.2,14.3,17.8,18.9c-11.7,2.2-21.5,9.5-25.6,19.1c-2.2,4.7-3,9.8-2.2,14.8
	c0.7,4.8,2.8,9.1,5.9,12.8c-2.9-0.6-6.1-0.8-9.3-0.3c-8.4,1.3-15.4,6.4-18.3,13.2c-1.5,3.3-2.1,6.9-1.6,10.4
	c1.6,10.9,13.1,18.2,25.6,16.3c8.4-1.3,15.5-6.4,18.3-13.1c1.6-3.3,2.1-6.9,1.6-10.4c-0.4-2.5-1.3-4.9-2.7-6.9
	c5.4,1.9,11.6,2.6,17.9,1.6c12.4-1.9,22.9-9.4,27.1-19.3c2.2-4.7,3-9.8,2.3-14.8c-0.9-5.9-3.9-11.1-8.2-15.1
	c2.6-0.1,5.2-0.3,7.8-0.7c20-3,36.7-15.4,43.5-32.2c3.4-7.8,4.6-16.1,3.4-24.2C379.8,251.3,376.9,244.8,372.7,239.1z M283.3,374.3
	c-2.1,4.9-7.3,8.7-13.7,9.7c-9.2,1.4-17.5-3.6-18.6-11.2c-0.4-2.4,0-4.7,1.1-6.9c2.1-4.8,7.2-8.7,13.7-9.7c5.1-0.8,10,0.5,13.5,3
	c0,0,0,0,0,0c2.7,2,4.6,4.8,5.1,8.1C284.7,369.8,284.3,372.2,283.3,374.3z M329,328c0.6,3.9-0.1,7.8-1.7,11.3
	c-3.4,8-11.9,14.3-22.5,15.9c-15,2.2-28.7-5.9-30.5-18.3c-0.6-3.9,0.1-7.8,1.7-11.3c3.4-7.9,11.8-14.3,22.5-15.9
	c0.2,0,0.4,0,0.7-0.1c8.7-1.1,17,1.3,22.6,5.9C325.6,318.8,328.2,323,329,328z M366.6,274.5c-5.5,13.5-19.2,24.2-36.5,26.8
	c-17.6,2.6-34.2-3.9-43.3-15.6c-3.2-4.1-5.4-8.8-6.5-14c-0.1-0.6-0.2-1.3-0.3-1.9c-1-6.7,0.1-13.2,2.7-19.2
	c5.5-13.5,19.2-24.3,36.5-26.9c14.4-2.2,28.1,1.8,37.6,9.8c3.8,3.2,6.9,7,9.1,11.3c1.7,3.2,2.8,6.7,3.4,10.4
	C370.3,262,369.3,268.5,366.6,274.5z M362.4,229c-11.2-8.1-26.3-12.1-42-9.7c-20,3-36.7,15.4-43.5,32.1c-3.2,7.1-4.4,14.9-3.6,22.4
	c-23.8,7-48.5,11.5-71.6,14c-117,12.5-181.3-51-180.1-105.6c1.5-73.8,70.7-129.1,162.3-142.8C357.7,13.5,402,105.2,401.5,150
	C401.2,182.7,385.9,208.7,362.4,229z"/>
</svg>
