<?xml version="1.0" encoding="utf-8"?>
<!-- Generator: Adobe Illustrator 19.2.0, SVG Export Plug-In . SVG Version: 6.00 Build 0)  -->
<svg version="1.1" id="Capa_1" xmlns="http://www.w3.org/2000/svg" xmlns:xlink="http://www.w3.org/1999/xlink" x="0px" y="0px"
	 viewBox="0 0 425.2 425.2" style="enable-background:new 0 0 425.2 425.2;" xml:space="preserve">
<path d="M403.4,187.5c-1.7-2.6-3.1-4.5-4.7-6.2c-0.4-0.5-0.8-0.8-1.2-1.1c-0.2-0.3-0.5-0.6-0.7-0.9l-0.2-0.3c-0.2-0.3-0.5-0.6-0.8-1
	l-0.1-0.1c-0.2-0.2-0.4-0.4-0.6-0.6l-0.3-0.3c-0.3-0.3-0.5-0.6-0.8-0.9c-22-22-61.4-39.9-120.5-54.9c-9.3-2.3-19.2-4.5-31.1-6.9
	c-13.3-2.8-26-5.3-38.9-7.5c-23.2-4.5-46.9-8.2-72.5-11.2c-7.8-0.9-15.8-1.4-23.7-1.4c-11.1,0-22.3,0.9-33.3,2.8
	c-23.8,5.7-40.3,18.6-49.2,38.2c-7,15.4-9.2,35.1-6.6,58.8l0,0.6c0.2,3,0.4,6.5,0.8,9.7c3.9,45.3,15.3,78.6,33.9,99
	c2.3,2.9,4.9,5.4,6.8,7.3c14.7,14,33.9,21.2,57,21.2c6.9,0,14.2-0.6,21.7-1.9c0.1,0,1.6-0.4,4.5-1.1c7.4-1.8,15-3.7,22.3-5.6l7.7-2
	c45.5-11.9,82.8-23,114-34.1l1.6-0.6c4.6-1.6,9.8-3.5,14.6-5.3l1.8-0.7c4.3-1.6,8.4-3.2,12.3-4.8c1,0.8,1.8,1.5,2.5,2.2l1.4,2
	c0.6,1.1,1.1,2.2,1.5,3.3c1.3,3.2,1.5,6.7,0.8,10.4c-0.8,5-3.3,10.6-7.5,16.6c0,0,0,0,0,0.1c0,0.1-0.1,0.1-0.1,0.2
	c0,0.1-0.1,0.1-0.1,0.2c0,0,0,0.1-0.1,0.1c0,0.1,0,0.1-0.1,0.2c0,0.1,0,0.1,0,0.2c0,0,0,0.1,0,0.1c0,0.1,0,0.1,0,0.2
	c0,0.1,0,0.1,0,0.2c0,0,0,0.1,0,0.1c0,0.1,0,0.1,0,0.2c0,0.1,0,0.1,0,0.2c0,0,0,0.1,0,0.1c0,0.1,0,0.1,0,0.2c0,0.1,0,0.1,0.1,0.2
	c0,0,0,0.1,0,0.1c0,0,0,0.1,0,0.1c0,0,0,0,0,0.1c0,0.1,0.1,0.1,0.1,0.2c0,0,0.1,0.1,0.1,0.1c0,0.1,0.1,0.1,0.1,0.2l2.9,3.3
	c0.5,0.5,1.2,0.8,1.9,0.8c0.3,0,0.7-0.1,1-0.2c28.3-12.7,46.2-36.4,53.2-70.3c27.5-18.1,37.9-36.1,31-53.6
	C405.5,191.3,404.6,189.5,403.4,187.5z M368.8,239.9c-0.5,0.4-0.9,0.9-1.1,1.6c-5.9,29.7-20.4,51.3-43.1,64.1
	c2-3.9,3.3-7.7,3.9-11.2c0.1-0.7,0.2-1.5,0.3-2.2c0.1-0.8,0.1-1.6,0.1-2.3c0-3-0.5-5.8-1.5-8.5c-0.5-1.3-1.1-2.7-1.8-4.1
	c0-0.1-0.1-0.2-0.1-0.2l-1.5-2.3c0,0,0,0-0.1-0.1c0,0-0.1-0.1-0.1-0.1l-0.2-0.2c-1.1-1.3-2.2-2.6-3.4-3.8c-1.3-1.2-2.6-2.3-3.8-3.2
	c-0.7-0.5-1.6-0.6-2.4-0.3c-4.5,1.8-9.3,3.7-14.4,5.6l-0.9,0.4c-4.4,1.7-9,3.3-13.8,5l-2.3,0.8l0,0c-0.9,0.3-4.5,1.5-20.5,6.9
	l-2.2,0.7c-26.8,8.7-57.4,17.6-90.9,26.2l-7.7,2c-7.1,1.9-14.3,3.7-21.9,5.5l-4.6,1.1c-7.2,1.2-14.2,1.8-20.7,1.8
	c-21.8,0-39.8-6.7-53.6-19.8c-1.3-1.1-2.4-2.3-3.7-3.7c0,0,0,0,0,0C38.8,280.3,27.8,248,24,203.8c-0.4-3.3-0.6-6.6-0.8-9.8l0-0.5
	c-1.7-15.8-1.3-29.7,1.3-41.6c1.2-5.3,2.8-10.2,4.8-14.7c8.2-18.1,23.5-30,45.6-35.3c18.1-3.1,36.9-3.5,55.4-1.3
	c25.4,3,49,6.6,72.1,11.1c12.9,2.2,25.6,4.7,38.8,7.5c11.8,2.4,21.7,4.6,30.9,6.9c57.4,14.5,97.1,32.6,118.2,53.6
	c0.3,0.3,0.5,0.5,0.8,0.8l0.3,0.3c0.2,0.2,0.4,0.4,0.5,0.6c0.2,0.3,0.5,0.6,0.8,1l0.1,0.1c0.3,0.4,0.6,0.8,0.9,1.1c0,0,0,0,0,0v0
	l0,0c0,0,0,0,0,0l0,0c0.1,0.1,0.2,0.3,0.4,0.5c0.2,0.2,0.3,0.5,0.6,0.7c1.8,2.3,3.1,4.6,4,6.9c0.5,1.3,0.9,2.6,1.2,3.9
	C403,209.6,392.5,224.5,368.8,239.9z"/>
</svg>
