<?xml version="1.0" encoding="utf-8"?>
<!-- Generator: Adobe Illustrator 19.2.0, SVG Export Plug-In . SVG Version: 6.00 Build 0)  -->
<svg version="1.1" id="Capa_1" xmlns="http://www.w3.org/2000/svg" xmlns:xlink="http://www.w3.org/1999/xlink" x="0px" y="0px"
	 viewBox="0 0 425.2 425.2" style="enable-background:new 0 0 425.2 425.2;" xml:space="preserve">
<path d="M394,284.4c-0.5-6.7-4.2-13-10.4-16.6c-8.9-5.2-20-3-26.3,4.6l-34.8-15.5l40.3,8.6l-25.1-36.2l71.7-21.9l-84-33.1l46.2-75.8
	l-16.2,9.4c0.2-3.7-0.6-7.3-2.3-10.4c1.6-1.9,3-4,4.1-6.3c6.1-13.5,0.1-29.3-13.2-35.4c-13.4-6.1-29.3-0.1-35.4,13.2
	c-0.7,1.7-1.4,3.5-1.7,5.3c-6.1,0-12,3.5-14.6,9.4c-3.6,7.8-0.4,16.9,7,20.9l-8.7,25.6l-1.5-17.1l-14.7,15.7l-19.5-83l-34.1,82.5
	l-12.6-24.1L198,135.8l-54.3-85.7l-4.1,102.7l-48.1-33l8.5,60.5l-17.2-17.2c4-6.1,2.7-14.2-3-18.9c-1.5-1.2-3.2-2.1-4.9-2.6
	c0.9-0.6,1.6-1.4,2.2-2.2c5.3-6.4,4.3-16-2.1-21.1c-6.4-5.3-15.9-4.3-21.1,2.1c-3.3,4.1-4.2,9.4-2.7,14c-7.9-1.2-16.3,1.6-21.9,8.3
	c-8,9.9-6.6,24.5,3.3,32.6c1.6,1.2,3.3,2.4,5.1,3.1c0.1,5.3,2.5,10.5,6.7,13.8c0.2,0.1,0.4,0.3,0.5,0.4l-31.2,3.8l87.8,55.5
	c-7.5,21-15.2,42-22.8,63.2l-8.7,24l22.4-12.2c14.8-8.2,29.7-16.2,44.5-24.4l-0.5,26.8l19.8-18.4l34.2,62.7l7.3-20.5
	c3.5-10.1,6.7-20.7,10-30.8c1.7-5.7,3.6-11.5,5.4-17.2l16.7,16.2l0.5-4.1l41.5,67.3l-6.6-81.2l9.9,10.3l3-24l64.8,34.9l-20.9-56.1
	l24.2,28.9c-1.4,1.4-2.5,2.8-3.5,4.6c-5.7,9.8-2.2,22.3,7.5,27.9c6.1,3.5,13.4,3.5,19.3,0.6c11.2,2.7,23.4-2.1,29.6-12.6
	C405.9,306.6,403.3,292.6,394,284.4z M291.9,143.6l13.7-40.7c-1.1-0.1-2.1-0.5-3.1-0.9c-5.1-2.4-7.4-8.4-5.1-13.6
	c2.4-5.1,8.2-7.3,13.2-5.3c0-2.7,0.6-5.6,1.7-8.2c4.6-10,16.4-14.5,26.5-9.9c10.1,4.6,14.5,16.4,9.9,26.5c-1.2,2.7-3.1,5.2-5.3,7.1
	c3.5,4.1,4.6,9.9,2.1,15.1c0,0,0,0,0,0c-2.6,5.6-8.4,8.8-14.3,8.3c-1.6-0.1-3.1-0.5-4.6-1.2c-2.6-1.2-4.6-3.1-6.1-5.3L292,144.7
	l-0.7,0.7L291.9,143.6z M325.9,125.2l-15.7,9.1l11.6-11.8C323.1,123.5,324.4,124.4,325.9,125.2z M59.7,126.8
	c3.2-4.1,9.1-4.7,13.2-1.4c4.1,3.3,4.6,9.3,1.4,13.2c-3.3,4.1-9.3,4.7-13.2,1.4C57,136.7,56.3,130.7,59.7,126.8z M39.4,171.1
	c-7.2-5.9-8.3-16.6-2.3-23.9c5.9-7.2,16.6-8.3,23.9-2.3c1.9,1.5,3.3,3.5,4.5,5.6c3.1-3.5,8.4-4,12-1c3.7,3.1,4.3,8.5,1.2,12.2
	c-0.5,0.7-1.2,1.4-2,1.9L99.1,186l4.5,4.5l-10.8-3.7l-22.9-7.9c-0.3,2.2-1.1,4.3-2.6,6.2c-4.2,5.2-11.9,5.9-17.1,1.7
	c-3.8-3.1-5.2-7.9-4.1-12.4C43.7,173.9,41.5,172.8,39.4,171.1z M79,188.4l-9.1,1.1c0.8-1.1,1.5-2.2,2.1-3.5L79,188.4z M325.1,303.6
	l-54.5-29.3l-2.3,17.7l-14.5-15.2l5.4,68.4l-34.4-55.8l-1.7,11.7l-14.2-13.8c0,0-16.9,53.3-20.2,62.6L159,295.2l-12.2,11.4l0.4-20.5
	c0,0,0,0-59.1,32.3c25.3-70.5,25.3-70.5,25.3-70.5L42,202.7l57.7-7.1l23.9,8.3l-12.2-12.3l-7.2-51.4l44.5,30.5l3.5-89.3l48.7,76.9
	l9.5-29.2l11.5,22l30.7-73.8l16.7,71.3l12.2-13.1l1.5,17.6l-4.4,13.1l6-6.1l59-34.3L311.3,179l68.9,27.3l-58,17.6l18.8,27.1
	l-38.5-8.2L325.1,303.6z M392.2,310.3c-4.8,8.4-15,12-23.9,9c-4.5,2.8-10.3,3.2-15.2,0.4c-6.8-4-9.3-12.9-5.2-19.8
	c1.4-2.5,3.5-4.3,5.8-5.6l-27.2-32.5l32.1,14.5c0.1-0.2,0.2-0.5,0.4-0.6c4.1-7.2,13.1-9.5,20.3-5.4c4.9,2.8,7.7,8.2,7.3,13.6
	C394.9,289.9,397.5,301.3,392.2,310.3z"/>
</svg>
