<?xml version="1.0" encoding="utf-8"?>
<!-- Generator: Adobe Illustrator 19.2.0, SVG Export Plug-In . SVG Version: 6.00 Build 0)  -->
<svg version="1.1" id="Capa_1" xmlns="http://www.w3.org/2000/svg" xmlns:xlink="http://www.w3.org/1999/xlink" x="0px" y="0px"
	 viewBox="0 0 425.2 425.2" style="enable-background:new 0 0 425.2 425.2;" xml:space="preserve">
<path d="M379.2,303.2c11.4-3.7,17.7-15.6,21.8-26.1c12.3-31.6,10.2-70,7.5-103.1c-2.6-32.2-7.2-69.4-24.3-97.6
	c-12.2-20.2-42.5-16.2-62.6-14.3c-24.1,2.4-48,7-71.6,12.6c-15.2,3.5-30.3,7.5-45.2,11.6c-28.1,7.8-55.8,16.8-83.1,26.9
	c-20.4,7.6-41.1,15.7-59.9,26.8C8.9,171.4,5.1,250.4,36.8,297.7c4.3,5.7,9.1,11.3,14.1,16.7c20.1,22.5,45.9,42,74.6,50.7
	c6.8,2.1,13.9-7.2,11.2-13.4c-8.2-18.5-17.4-36.5-25.7-55c45.6,4.3,91.4,7.7,137.1,9.9c33.4,1.7,67,3.1,100.4,1
	C358.7,307.1,369.4,306.3,379.2,303.2z M263.9,293.1c-53.2-2.1-106.4-6-159.4-11.2c-0.1,0-0.2,0-0.4,0c-3.2-0.3-6.4-0.6-9.6-0.9
	c-0.6-0.1-1.2-0.1-1.8-0.2c-3.8-0.4-7,4.9-5.7,8.2c7.1,17.2,15.4,33.8,23.3,50.5c1.1,2.3,2.2,4.7,3.3,7
	c-23.6-10.1-44.9-27.4-61.4-46.7c-2.5-2.9-4.9-5.9-7.2-8.9c-0.2-0.4-0.5-0.7-0.7-1.1c-3-4.6-5.7-9.5-8-14.7
	c-15.5-34-15.2-77.2,6.8-107.7c14.5-20,39.9-31.1,63.9-39.9c6.9-2.5,13.7-4.9,20.1-7.3C164.6,106.7,203,95.3,241.8,86
	c32.1-7.6,66.1-15.3,99.3-13.6c9.6,0.5,19.4,1.8,25.1,10.2c0,0,0,0,0,0c8.3,12.3,12.3,27.6,15.8,41.9c8.9,37.1,11.8,76.7,8.6,114.7
	c-1.2,14.3-3.3,29.8-10.2,42.7c-2.2,4.2-5.3,6.5-8.9,7.8c-4,1.6-8.7,2-13.5,2.5C326.9,296,295,294.4,263.9,293.1z"/>
</svg>
