<?xml version="1.0" encoding="utf-8"?>
<!-- Generator: Adobe Illustrator 19.2.0, SVG Export Plug-In . SVG Version: 6.00 Build 0)  -->
<svg version="1.1" id="Capa_1" xmlns="http://www.w3.org/2000/svg" xmlns:xlink="http://www.w3.org/1999/xlink" x="0px" y="0px"
	 viewBox="0 0 425.2 425.2" style="enable-background:new 0 0 425.2 425.2;" xml:space="preserve">
<g>
	<path d="M380.3,311.6c0.2-2-0.1-3.7-0.8-5.2c-0.9-10.1-15.5-12.8-23.8-13c-2.9,0.1-6.7,0.5-10.5,1.4c2.5-2.5,4.3-5.6,4.6-9.5
		c0-0.2,0-0.3,0-0.4c0,0,0-0.1,0-0.1c0,0,0-0.1,0-0.1c-0.1-1.2-0.4-2.2-0.8-3.2c-0.2-1.8-0.8-3.4-1.6-4.8
		c9.7-8.7,16.1-20.4,12.8-33.5c16.5-6.2,33.5-17.3,36.4-35.9c0.7-4.2,0.3-8.2-0.9-11.8c-2.7-14.6-17.9-25.1-31.1-30.8
		c1.8-6.1,1.7-11.7,0.1-16.7c-4-21.1-33-33.7-53.3-37.3c-8.8-1.5-17.7-1.9-26.5-1.5c-5.1,0.2-8.2,1.2-12.2-2.3
		c-3.2-2.8-6.8-5.1-10.5-7.1c-15.2-8.5-33.1-11.5-50.2-11.6c-17.4-0.2-35.1,3.6-50.6,11.7c-2.9,1.5-5.7,3.4-8.4,5.4
		c-1.5,1.1-2.4,2.6-4.6,2.3c-2.3-0.4-4.5-0.6-6.8-0.8c-9.3-0.9-18.8-0.6-28,0.7c-24.4,3.6-65.9,20.5-57.5,51.9
		c-16.5,6.2-33.5,17.3-36.4,35.9c-0.7,4.2-0.3,8.2,0.9,11.8c2.7,14.6,17.9,25.1,31.1,30.8c-1.7,5.9-1.6,11.4-0.1,16.4
		c3.5,19.2,27.6,31.7,46.4,36.3c7.8,1.9,15.9,2.7,23.9,3c4.8,0.2,9.5-0.1,14.3-0.4c4.9-0.4,6.5,2,10.2,4.8
		c11.8,9,26.8,13.3,41.2,15.4c17.2,2.6,35.2,1,51.8-4c6.6-2,13-4.9,18.9-8.4c2.8-1.7,5.3-3.6,7.8-5.6c1.1-0.9,6,0.4,7.3,0.5
		c2.6,0.3,5.2,0.4,7.8,0.5c2.9,0.1,11-1.5,13.3,0.5c2.4,2.1,5.5,3.4,8.4,4.5c7.1,2.7,15.7,3.2,23.2,2c2.2-0.3,4.5-0.9,6.9-1.6
		c-1.3,1.6-2.2,3.5-2.4,5.8c-0.2,2,0.1,3.7,0.8,5.2c0.9,10.2,15.5,12.8,23.8,13C363.2,325.7,379.3,322.2,380.3,311.6z M329.8,294.6
		c-8.2,2.1-17.2,1.3-25.2-1.3c-2.7-0.9-5.2-2.3-7.5-4c-2.5-1.8-4.1-1.2-7.4-1.1c-4.3,0.2-8.7,0-13-0.3c-3-0.2-8-1.9-10.8-1.2
		c-1.4,0.4-2.6,1.9-3.7,2.8c-2.7,2.2-5.6,4-8.7,5.7c-6.5,3.6-13.6,6-20.8,7.9c-15.7,4-32.5,4.1-48.4,1.4
		c-13.1-2.2-26.1-7.1-36.7-15.2c-1.8-1.4-3.4-2.9-5-4.6c-1.2-1.2-6.5,0.2-8,0.4c-7.9,0.6-15.9,0.3-23.7-0.6
		c-17.7-2-48.8-12.9-55.1-32.2c-1.8-5.4-1.6-11.5,1.4-18.2c0,0,0-0.1,0-0.1c0.4-1,0.7-2.4-0.6-2.9c-12.6-4.9-27.1-13.6-31.4-27.1
		c-0.7-2.3-1.1-4.7-1.2-7.2c-0.1-2.5,0.2-4.9,0.9-7.1c3.9-13.6,19.8-22.2,32.3-26.7c0.6-0.2,1.1-0.4,1.7-0.6c0.1,0,0.1-0.1,0.2-0.1
		c0.1-0.1,0.3-0.1,0.5-0.2c0.9-0.5,1.7-1.4,1.8-2.4c0-0.2,0-0.5-0.1-0.7c-0.1-0.4-0.3-0.8-0.4-1.2c-1.5-4.9-1.7-9.4-0.8-13.4
		c5-23.9,45.8-33,66.3-33.6c7.6-0.2,15.3,0.4,22.8,1.6c1.5,0.2,3.3-2.1,4.3-2.9c3.2-2.6,6.7-4.7,10.4-6.6
		c14.9-7.9,32.4-10.3,49.1-10.2c12.3,0.1,24.6,2.3,36.1,6.7c2.9,1.1,5.7,2.3,8.4,3.7c5.8,2.8,11,6.7,15.5,11.2
		c0.4,0.4,1.1,0.5,1.9,0.5c2.1,0,5-0.8,6.1-0.8c4.8-0.4,9.5-0.3,14.3-0.2c11.8,0.4,23.7,2.7,34.7,7.2c4.9,2,9.6,4.4,14,7.3
		c8.1,5.3,14.6,13.3,16.3,22.3c0.9,4.6,0.4,9.5-1.8,14.4c-0.4,1-0.7,2.4,0.6,2.9c0.1,0,0.2,0.1,0.2,0.1
		c13.5,5.3,29.1,14.9,31.9,30.1c0.2,1.3,0.4,2.7,0.5,4.1c0.6,18.4-20.1,29.4-34.9,34.4c-1.2,0.4-2.9,2-2.4,3.4
		c0.3,0.8,0.5,1.6,0.7,2.4c0.1,0.4,0.2,0.9,0.3,1.3c2.3,11.9-4.2,21.8-13.8,29.2c-1,0.8-1.9,2.7-0.8,3.7c0.2,0.2,0.4,0.4,0.6,0.6
		c1.9,1.9,3,3.7,3.4,6.4c0,0.1,0,0.1,0,0.2C343.8,290.6,335.4,293.2,329.8,294.6z M375.4,309.5c-0.7,6.1-16,8.1-19.7,8.2
		c-6.9,0.2-16-1.7-20.1-7.8c-0.1-0.2-0.2-0.3-0.3-0.5c-0.5-0.8-0.7-1.6-0.8-2.3c-0.5-6.6,15.5-8.8,19.6-9c0,0,0.1,0,0.1,0
		c1.2,0,2.4,0.1,3.6,0.2c3.5,0.3,7.3,1,10.4,2.6c2.4,1.2,4.5,2.8,6,5C375.3,307.3,375.6,308.4,375.4,309.5z"/>
	<path d="M404.3,324.3c0-6.7-9-8.5-14.4-8.7c-5.5,0.2-15,2.1-15.8,9c-0.2,1.6,0.1,3,0.7,4.1c0,6.7,9,8.5,14.4,8.7
		c5.4,0.2,15-2.4,15.8-9C405.3,326.8,405,325.5,404.3,324.3z M399.5,326.6c-1.8,2.1-8.3,3-9.6,3.1c-3.6,0.1-7.4-0.9-10.2-3.2
		c0,0,0,0-0.1,0c-0.7-0.6-1.1-1.1-1.2-1.6c-0.7-3,7.9-4.4,9.8-4.5c0.1,0,0.1,0,0.2,0c1.2,0,2.4,0.2,3.6,0.3c1.4,0.2,2.7,0.6,3.9,1.2
		c0.9,0.4,1.9,1,2.7,1.7C400.2,324.7,400.3,325.8,399.5,326.6z"/>
</g>
</svg>
