<?xml version="1.0" encoding="utf-8"?>
<!-- Generator: Adobe Illustrator 19.2.0, SVG Export Plug-In . SVG Version: 6.00 Build 0)  -->
<svg version="1.1" id="Capa_1" xmlns="http://www.w3.org/2000/svg" xmlns:xlink="http://www.w3.org/1999/xlink" x="0px" y="0px"
	 viewBox="0 0 425.2 425.2" style="enable-background:new 0 0 425.2 425.2;" xml:space="preserve">
<g>
	<path d="M376.4,195.7c-4.7-42-39.4-74.7-81.6-74.7c-16.8,0-32.5,5.2-45.5,14.1c-5.2-34-33.8-60-68.3-60c-29.5,0-54.6,19-64.6,45.7
		c-4.8-0.8-9.6-1.3-14.6-1.3C53.3,119.5,14,160,14,209.9c0,34.4,18.7,64.2,46.1,79.5c0,0.6,0,1.3,0,1.9c0,35.2,27.7,63.7,61.9,63.7
		c14.6,0,28.1-5.2,38.7-14c6.8,7.7,16.7,12.5,27.6,12.5c14.6,0,27.3-8.6,33.5-21.2c6.6,5,14.7,7.9,23.4,7.9c7.8,0,15.1-2.3,21.3-6.4
		c8.4,6.8,19,10.8,30.6,10.8c17.4,0,32.6-9.1,41.5-23c16.2-1,29.2-14.2,30.4-30.7c23.2-3.2,41.2-23.7,41.2-48.4
		C410.1,220.4,395.9,201.8,376.4,195.7z M355,283.6c-1.1,14.9-13.2,26.8-28.2,27.7c-8.2,12.5-22.4,20.8-38.5,20.8
		c-10.7,0-20.5-3.6-28.3-9.8c-5.7,3.6-12.5,5.7-19.7,5.7c-8.1,0-15.6-2.6-21.7-7.1c-5.7,11.3-17.5,19.1-31,19.1
		c-10.1,0-19.2-4.3-25.6-11.2c-9.8,7.9-22.3,12.6-35.9,12.6c-31.7,0-57.4-25.7-57.4-57.4c0-0.6,0-1.2,0-1.8
		c-25.5-13.8-42.8-40.7-42.8-71.7c0-45,36.5-81.4,81.4-81.4c4.6,0,9.1,0.4,13.6,1.1c9.2-24.1,32.5-41.2,59.9-41.2
		c32,0,58.5,23.5,63.3,54.1c12.1-8,26.6-12.7,42.2-12.7c39.1,0,71.2,29.4,75.6,67.3c18.1,5.5,31.2,22.3,31.2,42.2
		C393.1,262.3,376.5,280.7,355,283.6z"/>
	<path d="M291.6,141.1c-8.3,0.6-16,3.1-22.6,7.2c5.4-2.4,11.2-3.9,17.4-4.3c28.9-2,54.1,19.8,56.1,48.7c0.6,8.5-0.9,16.7-4,24
		c5-8.5,7.5-18.4,6.8-29C343.3,160.1,319.3,139.2,291.6,141.1z"/>
	<path d="M79.2,220.5c4.5-9.5,11-17.4,18.8-23.4c-10.5,6.1-19.2,15.3-24.8,27c-14.7,31-1.5,68.1,29.5,82.8c9.3,4.4,19.1,6.3,28.7,6
		c-7.2-0.7-14.4-2.7-21.4-6C77.7,291.5,63.9,252.8,79.2,220.5z"/>
	<path d="M105.1,201.5c2.7,1.2,5.4,1.7,8.1,1.5c-1.8-0.3-3.6-0.8-5.3-1.6c-8.8-3.9-13.8-13.1-12.7-22.2
		C92.3,188,96.5,197.7,105.1,201.5z"/>
</g>
</svg>
