<?xml version="1.0" encoding="utf-8"?>
<!-- Generator: Adobe Illustrator 19.2.0, SVG Export Plug-In . SVG Version: 6.00 Build 0)  -->
<svg version="1.1" id="Capa_1" xmlns="http://www.w3.org/2000/svg" xmlns:xlink="http://www.w3.org/1999/xlink" x="0px" y="0px"
	 viewBox="0 0 425.2 425.2" style="enable-background:new 0 0 425.2 425.2;" xml:space="preserve">
<path d="M365.1,133.2c-7.6-7.9-19.5-9.6-30-10.8c-15.9-1.8-32.1-1.4-48.1-0.5c-38.3,2.1-76.5,7.6-114.2,14.5
	c-13.3,2.5-26.6,5.2-39.7,8.3c-0.8,0.2-1.6,0.4-2.4,0.6c-0.3,0.1-0.6,0.1-0.8,0.2c-9,2.2-18.6,4.2-26.9,8.5
	c-15.5,8-23.2,23.7-28.2,39.6c-6.1,18.9-9.8,38.7-21.7,55.2c-13.6,18-27.2,36.2-39.3,55.3c-0.9,1.5-0.2,2.9,1.2,2.9
	c0.2,1.8,2.1,2.9,4.3,1.9c21.5-9.4,41.4-22,62.8-31.5c11.6-5.1,23.7-9.4,36.2-11.6c8.6-1.5,17.3-0.8,25.9-0.2
	c59.4,4.4,118.4,13.5,178.1,13.1c22.4-0.2,46.7-0.2,68.3-7.1c14.9-4.7,20.1-19.1,20.1-33.7c-0.1-19.4-6.9-38.7-14.6-56.2
	C388.4,164.3,378.4,147,365.1,133.2z M398.1,256.9c-2.9,5.4-8.1,7.5-13.6,8.9c-1.3,0.3-2.6,0.6-3.8,0.9c-25.2,5.6-52.2,5.3-77.9,4.8
	c-32.7-0.6-65.2-3.8-97.7-7c-19-1.9-38.1-4-57.1-5.6c-13.1-1.1-25.5-1.6-38.5,1.3c-0.2,0.1-0.5,0.1-0.7,0.2
	c-29,6.7-54.1,23-80.5,36.2c-1.8,0.9-3.6,1.8-5.5,2.7c-0.7,0.3-1.3,0.6-2,1c10.5-16.1,22-31.6,33.6-46.9c0.5-0.7,1-1.3,1.5-2
	c1-1.4,2-2.8,2.9-4.3c10.9-17.4,14.8-37.5,21.3-56.9c3.3-9.9,8-19.6,15.9-26.6c2.9-2.5,6-4.4,9.4-6c2.8-1.3,5.8-2.4,8.8-3.3
	c30.2-9,61.9-14.1,92.9-18.7c36.5-5.5,74-10.1,111-8.4c11.2,0.5,24.3,1.1,34.4,6.8c3,1.7,5.7,4.3,8.2,7.2c2.6,3,4.8,6.3,6.9,9.2
	c5.9,8.1,11,16.9,15.5,25.9c9.1,18,16.6,37.9,18.3,58.1C402.1,241.8,401.7,250.1,398.1,256.9z"/>
</svg>
