<?xml version="1.0" encoding="utf-8"?>
<!-- Generator: Adobe Illustrator 19.2.0, SVG Export Plug-In . SVG Version: 6.00 Build 0)  -->
<svg version="1.1" id="Capa_1" xmlns="http://www.w3.org/2000/svg" xmlns:xlink="http://www.w3.org/1999/xlink" x="0px" y="0px"
	 viewBox="0 0 425.2 425.2" style="enable-background:new 0 0 425.2 425.2;" xml:space="preserve">
<path d="M413.6,224.6V224h-0.1l-93-41.8v-0.5l51.6-77.9l0.3-1c-13.2,4.3-27.4,8.2-40.9,12.5c-0.5-1.2,1.4-2.1,1.4-3.4
	c-4.6,1.3-9.1,2.7-13.7,4.2l-47.7,14.3l-0.5-0.3l-54.3-86l-1.2-1.6c-5.5,9.1-10.4,18.5-16.1,27.4C195.6,64,191.8,58,188,52.7
	l-0.3,0.1l-30.2,52.5l-2.1,2.9l-76-40.8l-0.4,0.3l4.2,21.6l-0.4,0.8l-23.7-13l-0.4,0.4l11.2,60.2l1.8,10.9
	c1.8,10.7,4.4,21.4,5.6,32.3L9.4,209l-0.9,0.7l0.1,0.1l53.3,27.6L84,248.8l0.3,0.7l-7,9.4L26.6,327l-0.8,1.4c6.1-1.8,12-4.3,18.1-6
	c3-0.7,5.6-2.5,8.5-2.6c-4,6-8.6,12.1-13.2,18.1l-0.1,0.9c34-11.5,67.5-22.7,101.8-33.4l0.5,0.5l37.8,72.1c3.3-7.4,6.6-15,10-22
	l14.7,28l6-0.1l34.9-79.6l0.8-1.2l51.6,25.4c5.1,2.1,9.1,5.1,14.5,6.9l-2.9-8.3l0.6-0.8c11.7,6.9,24.6,12.8,37,18.9
	c0.6,0.1,1.3,1,1.8,0.4l-0.4-0.4L333,301.4c-5.9-16.4-11.3-33.2-17.2-49.7l0.4-0.5C349.2,242.4,380.6,233.4,413.6,224.6z
	 M275.3,243.7l-0.4,0.6l27.4,79.8v0.4l-1.9-0.7l-84.4-41.3l-1.3,2.3L179,365.2h-0.4l-39.4-74.5c-0.8-1.3-1.3-2.7-2.3-4l-37.1,11.9
	l-59.3,19l6.2-8.6l31.8-42.6c4.7-6.3,9.5-12.8,14.1-19.2l-70.9-36.6l-0.3-0.4c20.2-8.9,41.4-17.1,62-25.8c0-3.1-1-6.4-1.6-9.6
	L66.3,87.7l1.6,0.3l5.6,3.5l47.3,25.3c8.7,5,18.4,10,27.7,14.6L188.1,63c17.9,27.6,34.9,55.1,52.4,82.6l1.6-0.1l56.2-17.2
	c7.2-2.1,14.3-4.8,21.5-6.6l-4.3,6.9l-31,47l-7.3,11.1l1.2,1l52.4,23.5c7.7,3.5,15.8,6.9,23.3,10.5l-1.8,0.9L275.3,243.7z"/>
</svg>
