<?xml version="1.0" encoding="utf-8"?>
<!-- Generator: Adobe Illustrator 19.2.0, SVG Export Plug-In . SVG Version: 6.00 Build 0)  -->
<svg version="1.1" id="Capa_1" xmlns="http://www.w3.org/2000/svg" xmlns:xlink="http://www.w3.org/1999/xlink" x="0px" y="0px"
	 viewBox="0 0 425.2 425.2" style="enable-background:new 0 0 425.2 425.2;" xml:space="preserve">
<g>
	<path d="M106.8,309.5c-2.1-1.2-4.4-2.1-6.9-2.5c-0.8-0.1-1.5-0.2-2.3-0.3c-0.3,0-0.7-0.1-1-0.1c-2.1,0.1-4.1,0.4-6,1.1
		c-8.9,3-15.6,11.5-14,21.5c0.1,0.8,0.3,1.6,0.5,2.4c1.8,6.5,6.5,12.2,12.6,14.8c2.5,1,5.2,1.6,8,1.5c11.6-0.4,22-10.5,20-22.6
		C116.6,318.4,112.5,312.8,106.8,309.5z"/>
	<path d="M69.9,368.3c-1-0.8-2.3-1.3-3.8-1.2c-0.3,0-0.6,0-0.8,0.1c-3.9,0.6-4.9,4.2-3.9,7.2c0.7,1.9,2.2,3.6,4.3,4.3
		c0.5,0.1,1,0.2,1.5,0.2C73.3,378.6,73.6,371.3,69.9,368.3z"/>
	<path d="M160.4,250.5c-7.3-4-15.9-5.3-23.9-3.6c-5.3,1.2-10.3,3.7-14.6,7.7c-9.1,8.7-12.3,22-9,33.6c1.5,5.1,4.3,10,8.4,13.9
		c2.8,2.7,6.1,4.9,9.6,6.5c11.8,5.5,26.4,4.4,36.4-5.2c13.6-13,13.4-34.1,0.6-47.5C165.7,253.9,163.1,252,160.4,250.5z"/>
	<path d="M409.7,128.7c-4.3-7-10.1-12.5-17-16.1c-5.5-2.9-11.6-4.7-18.2-5.1c-0.3,0-0.6-0.1-1-0.1c-0.3,0-0.8-0.2-0.9-0.5
		c-7-19.9-21.1-37.1-39.9-46.8c-1.7-0.9-3.5-1.7-5.2-2.5c-6.1-2.6-12.1-4-18.7-4.9c-6.4-0.9-12.9-2.2-19.4-1.7
		c-6.7,0.5-13.3,1.8-19.5,3.8c-5,1.6-9.9,3.7-14.7,6.3c-0.5,0.3-0.9,0.5-1.4,0.8c-0.2,0.1-0.4,0.2-0.7,0.2c-0.3,0-0.6,0-0.9-0.2
		c-2.8-1.9-5.6-3.7-8.5-5.2c-18.3-9.6-39.7-11.4-58.8-5.2c-10.7,3.4-20.7,9.3-29,17.7c-0.2,0.2-0.3,0.3-0.5,0.5
		c-0.3,0.3-0.6,0.6-0.9,1c-0.1,0.1-0.2,0.2-0.2,0.2c-0.4,0.5-1.3,1.1-2,0.8c-21.7-10.7-45.9-9.5-65.6,0.6
		c-15.9,8.2-28.7,22.4-34.8,41c-0.1,0.3-0.2,0.5-0.3,0.8c0,0.1-0.1,0.2-0.1,0.3c-0.1,0.2-0.2,0.4-0.4,0.6c-0.4,0.5-1,0.9-1.6,0.8
		c-5.6-0.7-11.1,0.3-16,2.4c-12,5.3-20.1,18-16.7,32.3c0.1,0.4,0.2,0.9,0.3,1.3c2.6,9.2,8.9,16.1,16.8,19.6
		c7.2,3.2,15.7,3.7,23.9,0.5c0.5-0.2,1.1,0,1.3,0.5c0.1,0.2,0.3,0.4,0.4,0.7c7.5,11.7,17.9,20.6,29.8,26.3c15,7.2,32.4,9.2,49.4,5
		c0.7-0.2,1.3,0.1,1.5,0.8c0,0.1,0,0.2,0.1,0.3c0.1,0.5,0.2,1,0.3,1.6c0.1,0.7,0.3,1.3,0.4,2c3.8,15.6,14.6,28.9,28.8,35.6
		c6.6,3.1,13.9,4.8,21.5,4.7c26.7-0.4,48.4-20.7,50.5-47.3c0.1-1.2,1.7-2.8,2.9-1.9c0.4,0.3,0.7,0.5,1.1,0.8c4.2,3,8.6,5.7,13.1,7.8
		c32.3,15.5,72,9.1,97.2-18.2c0.5-0.5,1.2-1.1,2-0.8c13,4.7,29.1,3.3,40.3-5.3C415.8,170.7,420.2,147.6,409.7,128.7z"/>
</g>
</svg>
