<?xml version="1.0" encoding="utf-8"?>
<!-- Generator: Adobe Illustrator 19.2.0, SVG Export Plug-In . SVG Version: 6.00 Build 0)  -->
<svg version="1.1" id="Capa_1" xmlns="http://www.w3.org/2000/svg" xmlns:xlink="http://www.w3.org/1999/xlink" x="0px" y="0px"
	 viewBox="0 0 425.2 425.2" style="enable-background:new 0 0 425.2 425.2;" xml:space="preserve">
<path d="M95.2,194.5c4.9,3.8,10.3,7.1,15.9,9.8c7.4,3.9,15.3,6.9,23.3,8.8c1,0.3,3.5,0.4,5.7,0.8c1.5,2.5,3.3,4.9,5.2,7.1
	c4.4,5.2,9.5,9.4,15.4,12.8c1.5,0.9,3,1.6,4.5,2.3c12.1,6.7,25.6,6.7,38.8,3.6c9.3-2.2,17.2-8.5,23.2-16c12,29.8,21.8,60,25.7,92.1
	c2.3,18.4,2.8,37,2.8,55.5c0,9-0.1,18-0.3,27c-0.1,3.2-2.3,13.9,3.8,13.8c0.1,0,0.2,0,0.3,0c0.6,1.1,1.6,1.8,3.2,1.8
	c3.5,0,6.7-2.6,7-6.3c0.9-9,1.7-18,2.5-27c1.6-18.7,2.5-37.5,2.2-56.3c-0.5-32.8-5.9-65.5-14.3-97.1c9.4,3.6,18.7,4,29.3,3
	c13.3-1.3,26.1-2.9,37.8-9.6c20-11.3,32.7-36.3,24.1-58.8c-3.2-7.5-6.7-14.2-11.9-20.5c-5.2-6.3-11.6-10.6-18.8-14
	c-0.9-0.5-1.8-0.9-2.7-1.4c1.6-19.2-8-39.6-21.1-53.1c-5.9-6.1-12.7-10.9-20.1-14.3c-11.4-6.1-24.4-8.7-37.7-7.1
	c-5.9-10.2-15.5-17.1-24.7-24.4c-2.7-2.2-5.7-3.9-8.8-5.3c-9.4-5.3-20.7-6.7-31.3-4.5c-13.9,2.9-24.2,13.5-32.3,24.4
	c-6.6,8.9-11.7,20.4-11.6,31.7c-23.4,7-46,24.1-55.5,46.9c-5.3,12.8-7.1,28.6-2.7,41.9C76.7,175.3,84.3,186,95.2,194.5z M78.3,125.4
	c6.9-23.4,30.8-40.6,53.5-47c0.5-0.1,1-0.3,1.4-0.4c0.2,0,0.4-0.1,0.6-0.2c0.1-0.1,0.3-0.1,0.4-0.2c1.1-0.7,1.9-1.9,2-3.2
	c0-0.2,0-0.4,0-0.6c-1.2-10.7,4.1-21.9,10.3-30.4c7-9.5,15.4-17.4,26.6-20.3c1.7-0.4,3.4-0.8,5.2-1c8.2-1,16.4,1,23.5,5
	c3.2,1.8,6.1,3.9,8.8,6.4c4.3,4,9.4,6.6,13.4,11.2c3.3,3.8,6.3,7.6,8.4,12.1c0.4,0.9,1.4,0.9,2.2,0.8c0.2,0,0.5-0.1,0.7-0.1
	c13.5-2.4,26.2,0.2,37.5,6.3c5.3,2.9,10.4,6.6,15.1,10.9c13.5,12.5,23.2,33.9,21.1,52.5c-0.1,0.9,0.3,1.7,1.2,2.1
	c0.9,0.4,1.9,0.8,2.8,1.2c1.4,0.6,2.7,1.3,4,2c6,3.2,11.1,7.3,15.6,12.8c4.6,5.7,7.6,12,10.4,18.7c7.8,20.4-4.7,42.2-23.2,51.3
	c-11.2,5.5-23.7,6.6-36,7.6c-11,0.9-20.4-0.7-30.2-5.9c-2-1.1-4.8,2.4-4.3,4.2c8.4,30,14.1,61,15.8,92.2c0.9,16,0.4,32.1-0.5,48.1
	c-0.1,1-0.1,2-0.2,3c-0.5,8.3-1.2,16.5-1.9,24.8c-0.3,3-0.5,5.9-0.8,8.9c-0.1,0.8-0.1,1.6-0.2,2.3c0,0.2-0.8,7.6-0.7,3
	c0-2.2,0.1-4.5,0.1-6.7c0.6-32.2,0.8-64.7-4.4-96.6c-1.2-7.5-2.8-15-4.6-22.3c-5.1-20.5-12.4-40.4-20.4-60.1c-0.1-0.3-0.3-0.6-0.4-1
	c-0.5-1.2-1-2.3-1.5-3.5c-0.2-0.4-0.4-0.9-0.5-1.3c-1-2.3-4,0.1-4.7,1.3c-6.7,10.8-16.2,18.2-28.9,20c-10.1,1.4-19.3,0.4-27.8-3.5
	c-3.4-1.6-6.7-3.5-10-6c-4.2-3.2-7.7-7.1-10.7-11.4c-0.8-1.1-1.5-2.8-2.4-4c-0.2-0.3-0.4-0.5-0.7-0.7c-1.5-1.3-5.9-1.2-7.8-1.6
	c-7-1.4-13.8-3.7-20.2-6.8c-4.6-2.2-9.1-4.8-13.3-7.7c-9.8-6.7-17.1-15.2-22.1-26c-1.8-3.9-3-7.8-3.8-11.8
	C74.7,144.5,75.5,134.9,78.3,125.4z"/>
</svg>
