<?xml version="1.0" encoding="utf-8"?>
<!-- Generator: Adobe Illustrator 19.2.0, SVG Export Plug-In . SVG Version: 6.00 Build 0)  -->
<svg version="1.1" id="Capa_1" xmlns="http://www.w3.org/2000/svg" xmlns:xlink="http://www.w3.org/1999/xlink" x="0px" y="0px"
	 viewBox="0 0 425.2 425.2" style="enable-background:new 0 0 425.2 425.2;" xml:space="preserve">
<g>
	<path d="M157.9,305.1c3.5,3.7,5.7,9.5,7,15.5l2.9-5.9c-4.7-19.5-18.4-38.4-58-6.8c0,0,27.9-31.8,18.6-49.9l11-3.1l-11.3,2.6
		c-5.4-9.7-22-15.3-60.3-9.3c0,0,83.3-41.4,30.6-83.2c0,0,65-0.9,47.3-54c0,0,13.1,12.3,28.4,17l15.6,15.6l-13.7-15.1
		c10.1,2.6,21,1.6,29.5-8.6l6.8,12.2l-0.4-0.9l-5.8-12l-1.6-3.2l-18.8-38.5c0.1-1,0.2-1.9,0.3-2.8c0.4-2.6,0.8-4.6,1.2-5.2
		c0.9-0.7,5.2-1.3,9.2-1.2l12.7,0.2l-11.8-4.8c-3.6-1.5-7.2-3.4-8-4.3c-0.3-1.3,0.8-5.7,2.4-9.6l3.7-9.1l-7.5,6.4
		c-3.3,2.6-6.4,5.7-8.5,5.7c-1.9,0-5.2-1.8-8.8-5.1l-9.6-8l6,11c2.1,3.9,3.7,8.6,3.3,9.7c-1.1,2.8-6.3,6.4-9.2,8l-14.3,7.8l15.9-3.3
		c5.4-1.1,12-2.2,13.8-2.1c1,1.2,2.9,6,4.1,10.7l4,14.9l0.5-12.6l0-0.1l13.9,25l4.6,8.3c-4.2,5.8-9.3,9.3-15.3,10.3
		c-0.6,0.1-1.3,0.1-2,0.1c-5.1,0-10.4-1.7-15.2-3.9l-50.5-55.6l-9.1-2.3l56,56c-7.7-4.2-13.3-9.1-13.4-9.2l-20.4-18.5l8.7,26.1
		c3.1,9.3,3.5,17.1,1,23.2c-0.5,1-1.1,2-1.8,3c-6.4,8.9-18.5,12.6-28.3,14.2c-5.8,0.8-10.4,0.9-11.5,0.9c-0.5,0-0.9,0-1,0l-21.9-0.7
		l17.1,13.6c10.9,8.6,16,17.6,15.1,26.7c-0.2,2.5-0.9,5-1.9,7.4c-9.8,20.8-40.2,36.5-40.6,36.7l-22.2,11.3l1.3-0.2l-18.4,9.4
		l44.4-6.9c10.1-1.6,19-2.4,26.4-2.4c8.6,0,15.3,1.1,19.9,3.1l-81.4,18.7l-17,9.4l99.6-27.5c2.4,1.3,4,2.8,4.8,4.7
		c1.8,4.2,0.5,10.2-2.3,16.5c-4.8,10.1-12.6,20.1-16.9,24.8l-33.3,36.7l1.9-1.5L47,372.7l69.7-55.5c13.1-10.4,24.1-15.9,32-15.9
		C152.5,301.3,155.4,302.5,157.9,305.1z M183.8,70.2c-0.2,0.9-0.4,1.8-0.5,2.8c-0.5,3.1-0.6,5.9-0.6,5.9s-0.3-1-0.7-2.4
		c0,0,0-0.1,0-0.1c-1.1-3.4-3-9-4.8-9.8c-2-0.8-15.9,2.5-15.9,2.5s8.6-5,10.5-9.7c1.3-3.1-4.2-11.6-4.2-11.6s10,7.2,12.8,6
		c2.7-1.3,10-6.6,10-6.6s-4,8.3-3,11.4c0.7,2.1,9.6,6,9.6,6s-8.9-0.6-11.4,1.3C184.9,66.3,184.2,68.1,183.8,70.2z"/>
	<path d="M204.7,115.7l1.5,3.3c4.5-5.8,8.2-14.1,10.9-26.1c1.1,3.6,25.2,60.5,80.5,4.1c0,0-3.4,19.1-0.2,37.5l8.3-11.5
		c-0.2-11.5,1.4-20.9,1.4-21.1l4.1-23l-7.3,7.4l0.1-0.7l-9.1,9.2c-14.3,14.5-27.2,22.8-38.5,24.7c-0.9,0.1-1.8,0.2-2.7,0.2
		c-19.2,0-27.4-25.1-27.4-25.3l-8-26.1l-5.9,26.6c-1.3,5.7-2.8,10.7-4.7,15C206.9,112.1,205.9,114,204.7,115.7z"/>
	<polygon points="26.4,356.8 41.3,353.7 97.9,310.5 	"/>
	<polygon points="367.8,330.5 386.3,338.5 341.1,295.2 	"/>
	<path d="M342.6,60.6c-0.6,6.4-2,10.7-2,10.7l-1.7,5.2l0.5-0.2l4.1-1.9l-37.6,50l-8.2,10.9l-12.4,16.5l-0.9,1.2l12.8-15.5l0.8-1
		l8-9.8l45.6-55.5c0.2,0,0.3-0.1,0.5-0.1c1-0.3,1.7-0.4,2.1-0.3c1.7,0.5,4.2,3.9,5.4,6l3.8,6.7l0.7-7.6c0.3-3,1.2-8.5,2.6-10.4
		c1.2-1.8,6.3-3.9,9.4-4.7l9.6-2.6l-9.7-2c0,0-1.7-0.3-3.7-0.9c-5.6-1.6-6.6-2.7-6.6-2.7c-1.4-1.9-1.5-8.2-1.1-12.1l0.8-7.9l-5,6.2
		c-0.1,0.1-6.1,7.5-8.7,10c0,0-1.4,0.8-7.4-0.9c-2.9-0.8-5.4-1.8-5.4-1.8l-9.5-3.7l6.8,7.6C339,52.8,342.8,58.3,342.6,60.6z
		 M352.4,51.9c2.8-2.7,8.9-10.2,8.9-10.2s-1,10.2,1.5,13.7c1.8,2.4,11.7,4.5,11.7,4.5s-8.5,2.3-10.8,5.7c-2.2,3.2-3,11.6-3,11.6
		s-3.8-6.8-7.3-7.2c-0.1,0-0.2,0-0.3,0c-0.1,0-0.3,0-0.4,0c-1.9,0.1-5.1,1.3-7.6,2.3c-1.8,0.7-3.2,1.4-3.2,1.4s0.2-0.5,0.4-1.3
		c0.5-1.8,1.3-5.3,1.7-9.9c0.4-4.5-6.9-12.7-6.9-12.7S349.6,54.6,352.4,51.9z"/>
	<path d="M270.1,351.9c-1-1.4-1.6-6.1-1.7-8.9l-0.4-7.8l-4.1,6.7c-1.2,1.9-3.4,5.3-4.8,6.6c-0.1,0-0.2,0-0.3,0
		c-1.9,0-5.7-1.5-7.6-2.4l-8.4-4.1l5.4,7.6c1.9,2.6,3.8,6.4,3.6,7.8c-0.6,4.2-4.3,8.9-4.4,8.9l-6.9,8.5l9.8-4.8
		c3.8-1.9,8.7-3.9,10.1-4.1c1,0.5,3.1,3.3,4.6,6.1l5,9.1l-0.5-10.3c-0.2-3.7,0.2-7.8,0.9-8.6c0.8-1.1,4.2-2.3,6.3-2.8l9.3-2.1
		l-9.2-2.5C273.9,353.8,270.6,352.5,270.1,351.9z M267.8,359.7c-1.7,2.3-1.3,10.2-1.3,10.2s-4-6.8-6.7-7.3
		c-2.1-0.4-12.2,4.1-12.2,4.1s4.6-5.1,5.4-10c0.5-3.3-3.8-9.6-3.8-9.6s8.4,4.2,10.5,2.3c2.1-1.9,5.4-7.3,5.4-7.3s0.4,7.5,2.3,10.1
		c1.3,1.8,8.4,3.5,8.4,3.5S269.6,357.3,267.8,359.7z"/>
	<path d="M319.6,262.1c0.4-0.7,0.8-1.4,1.3-2.1l83.9,26.9l-8.1-8.2l-74.5-20.2c8-7.9,26.2-8,26.3-8l22.1,0.3L353,237.5
		c-8.3-6.3-12.9-13.7-13.5-22.1c-1.5-20.1,18.6-40.8,18.8-41l19.3-19.4l-13.3,3.7l0.3-0.3l-14.6,4.1c-3.3,0.9-6.4,1.6-9.4,2
		c-1.9,0.2-3.7,0.3-5.4,0.3c-8.7,0-15.2-2.7-20-8.4c-4.7-5.7-7.2-13.6-8.4-21.6l28.9-31.1v-9.7l-29.2,38.3c-0.2-1.9-0.4-3.7-0.5-5.6
		l-8,9.7c0.4,1.8,0.8,3.6,1.3,5.3l-5.1,6.7l5.4-5.8c5.5,17.7,19.2,31.9,51.2,22.9c0,0-44.1,44.3-4.5,74c0,0-25.1,0.7-32.3,16.6
		l-31.3-8.5l30.8,9.9c-3.7,10.2-0.4,26.2,19.7,51.2c0,0-98.7-58.7-94,6.7c0,0-41.5-52-69,24.1c0,0,0.5-9.5-1.3-20.1l17.6-42.1
		l-0.4,0.9l-17.8,37.7l-2.9,6.1l-33.6,71.3l9.1-6.9l0.1-0.1l25.1-60.2c0.7,5.2,0.8,9.9,0.7,12.5l-1.8,46.4l15.8-43.7
		c4.7-13.1,14.9-35.2,29.3-35.2c11.1,0,22.4,12.2,25.8,16.9l14.9,20.7l-1.8-25.4c-0.7-9.1,0.8-15.6,4.3-19.4
		c2.9-3.1,7.7-4.7,14.2-4.7c24.3,0,60.2,21,60.6,21.2l34,20.1l-24.8-30.8C321.7,286,315.5,270.7,319.6,262.1z"/>
</g>
</svg>
