<svg xmlns="http://www.w3.org/2000/svg" xmlns:xlink="http://www.w3.org/1999/xlink" width="2000" zoomAndPan="magnify" viewBox="0 0 1500 1499.999933" height="2000" preserveAspectRatio="xMidYMid meet" version="1.0"><defs><clipPath id="62c3d8c83f"><path d="M 89 234.371094 L 1411 234.371094 L 1411 1265.621094 L 89 1265.621094 Z M 89 234.371094 " clip-rule="nonzero"/></clipPath></defs><g clip-path="url(#62c3d8c83f)"><path fill="#3fa9f5" d="M 395.265625 541.195312 L 338.003906 257.375 L 621.730469 434.363281 L 726.082031 234.292969 L 872.152344 428.589844 L 1116.335938 253.527344 L 1087.996094 509.390625 L 1410.664062 449.753906 L 1177.382812 711.386719 L 1375.78125 847.972656 L 1127.238281 917.230469 L 1151.21875 1159.625 L 898.316406 1030.730469 L 802.386719 1265.429688 L 643.230469 1032.652344 L 381.609375 1247.988281 L 392.507812 961.476562 L 141.78125 882.601562 L 333.640625 744.089844 L 89.457031 561.332031 Z M 395.265625 541.195312 " fill-opacity="1" fill-rule="nonzero"/></g><path fill="#c1272d" d="M 438.210938 582.234375 L 400.605469 352.074219 L 641.085938 495.601562 L 724.265625 336.121094 L 840.703125 491 L 1058.121094 336.121094 L 1028.027344 552.917969 L 1286.914062 510.769531 L 1084.003906 716.414062 L 1255.992188 826.097656 L 1066.664062 886.886719 L 1085.78125 1080.101562 L 864.371094 951.816406 L 785.089844 1158.050781 L 639.703125 955.9375 L 438.195312 1141.863281 L 428.28125 920.679688 L 258.519531 852.890625 L 411.453125 742.484375 L 216.8125 596.808594 Z M 438.210938 582.234375 " fill-opacity="1" fill-rule="nonzero"/><path fill="#ffffff" d="M 1019.179688 369.582031 L 1042.59375 352.90625 C 1049.699219 355.171875 1054.835938 361.609375 1054.835938 369.210938 C 1054.835938 378.695312 1046.84375 386.390625 1037.003906 386.390625 C 1027.277344 386.386719 1019.386719 378.886719 1019.179688 369.582031 Z M 755.355469 386.386719 C 757.6875 386.386719 759.90625 385.945312 761.957031 385.15625 L 741.683594 358.191406 C 739.089844 361.167969 737.523438 365.011719 737.523438 369.207031 C 737.523438 378.691406 745.511719 386.386719 755.355469 386.386719 Z M 408.867188 385.527344 C 415.988281 383.273438 421.140625 376.820312 421.140625 369.210938 C 421.140625 367.902344 420.976562 366.632812 420.6875 365.40625 L 403.949219 355.414062 Z M 998.554688 424.730469 C 988.710938 424.730469 980.71875 432.425781 980.71875 441.910156 C 980.71875 451.394531 988.710938 459.089844 998.554688 459.089844 C 1008.390625 459.089844 1016.386719 451.394531 1016.386719 441.910156 C 1016.386719 432.429688 1008.398438 424.730469 998.554688 424.730469 Z M 928.144531 459.089844 C 937.980469 459.089844 945.976562 451.394531 945.976562 441.910156 C 945.976562 435.878906 942.738281 430.578125 937.851562 427.515625 L 911.007812 446.636719 C 913.140625 453.820312 919.996094 459.089844 928.144531 459.089844 Z M 787.320312 424.730469 C 777.480469 424.730469 769.488281 432.425781 769.488281 441.910156 C 769.488281 451.394531 777.480469 459.089844 787.320312 459.089844 C 796.929688 459.089844 804.761719 451.738281 805.121094 442.570312 L 792.210938 425.402344 C 790.660156 424.972656 789.019531 424.730469 787.320312 424.730469 Z M 716.910156 424.730469 C 707.066406 424.730469 699.078125 432.425781 699.078125 441.910156 C 699.078125 451.394531 707.066406 459.089844 716.910156 459.089844 C 726.757812 459.089844 734.746094 451.394531 734.746094 441.910156 C 734.746094 432.429688 726.757812 424.730469 716.910156 424.730469 Z M 576.09375 459.089844 C 576.582031 459.089844 577.0625 459.054688 577.539062 459.019531 L 559.542969 448.285156 C 562.167969 454.605469 568.585938 459.089844 576.09375 459.089844 Z M 505.683594 424.730469 C 495.835938 424.730469 487.847656 432.425781 487.847656 441.910156 C 487.847656 451.394531 495.835938 459.089844 505.683594 459.089844 C 515.53125 459.089844 523.519531 451.394531 523.519531 441.910156 C 523.519531 432.429688 515.53125 424.730469 505.683594 424.730469 Z M 435.273438 424.730469 C 426.332031 424.730469 418.945312 431.082031 417.660156 439.351562 L 419.328125 449.570312 C 422.253906 455.207031 428.289062 459.089844 435.273438 459.089844 C 445.117188 459.089844 453.105469 451.394531 453.105469 441.910156 C 453.109375 432.429688 445.117188 424.730469 435.273438 424.730469 Z M 1248.222656 531.789062 C 1256.828125 531.789062 1264.011719 525.917969 1265.691406 518.109375 L 1232.945312 523.445312 C 1236.0625 528.4375 1241.734375 531.789062 1248.222656 531.789062 Z M 1039.507812 497.625 C 1038.683594 497.511719 1037.847656 497.4375 1036.996094 497.4375 C 1027.148438 497.4375 1019.160156 505.132812 1019.160156 514.621094 C 1019.160156 523.378906 1025.980469 530.59375 1034.785156 531.644531 Z M 966.585938 531.789062 C 976.429688 531.789062 984.421875 524.101562 984.421875 514.617188 C 984.421875 505.128906 976.429688 497.4375 966.585938 497.4375 C 956.742188 497.4375 948.757812 505.132812 948.757812 514.617188 C 948.75 524.101562 956.734375 531.789062 966.585938 531.789062 Z M 896.171875 497.4375 C 886.332031 497.4375 878.339844 505.132812 878.339844 514.621094 C 878.339844 524.109375 886.332031 531.789062 896.171875 531.789062 C 906.015625 531.789062 914 524.101562 914 514.621094 C 914.007812 505.128906 906.023438 497.4375 896.171875 497.4375 Z M 825.769531 497.4375 C 815.921875 497.4375 807.933594 505.132812 807.933594 514.621094 C 807.933594 524.109375 815.921875 531.789062 825.769531 531.789062 C 835.605469 531.789062 843.597656 524.101562 843.597656 514.621094 C 843.597656 505.128906 835.613281 497.4375 825.769531 497.4375 Z M 755.355469 497.4375 C 745.511719 497.4375 737.523438 505.132812 737.523438 514.621094 C 737.523438 524.109375 745.511719 531.789062 755.355469 531.789062 C 765.199219 531.789062 773.191406 524.101562 773.191406 514.621094 C 773.191406 505.128906 765.199219 497.4375 755.355469 497.4375 Z M 684.945312 497.4375 C 675.101562 497.4375 667.109375 505.132812 667.109375 514.621094 C 667.109375 524.109375 675.101562 531.789062 684.945312 531.789062 C 694.792969 531.789062 702.78125 524.101562 702.78125 514.621094 C 702.78125 505.128906 694.792969 497.4375 684.945312 497.4375 Z M 614.535156 497.4375 C 604.691406 497.4375 596.699219 505.132812 596.699219 514.621094 C 596.699219 524.109375 604.691406 531.789062 614.535156 531.789062 C 624.382812 531.789062 632.367188 524.101562 632.367188 514.621094 C 632.371094 505.128906 624.382812 497.4375 614.535156 497.4375 Z M 544.128906 497.4375 C 534.28125 497.4375 526.292969 505.132812 526.292969 514.621094 C 526.292969 524.109375 534.28125 531.789062 544.128906 531.789062 C 553.972656 531.789062 561.960938 524.101562 561.960938 514.621094 C 561.960938 505.128906 553.972656 497.4375 544.128906 497.4375 Z M 473.714844 531.789062 C 483.558594 531.789062 491.550781 524.101562 491.550781 514.617188 C 491.550781 505.128906 483.558594 497.4375 473.714844 497.4375 C 463.871094 497.4375 455.882812 505.132812 455.882812 514.617188 C 455.882812 524.101562 463.871094 531.789062 473.714844 531.789062 Z M 1209.777344 570.140625 C 1199.933594 570.140625 1191.949219 577.835938 1191.949219 587.320312 C 1191.949219 594.324219 1196.300781 600.332031 1202.535156 603.011719 L 1225.675781 579.558594 C 1222.730469 573.976562 1216.722656 570.140625 1209.777344 570.140625 Z M 1139.371094 604.5 C 1149.214844 604.5 1157.207031 596.804688 1157.207031 587.320312 C 1157.207031 577.835938 1149.214844 570.136719 1139.371094 570.136719 C 1129.53125 570.136719 1121.542969 577.835938 1121.542969 587.320312 C 1121.539062 596.804688 1129.523438 604.5 1139.371094 604.5 Z M 1068.960938 570.140625 C 1059.117188 570.140625 1051.125 577.835938 1051.125 587.320312 C 1051.125 596.808594 1059.117188 604.503906 1068.960938 604.503906 C 1078.800781 604.503906 1086.78125 596.808594 1086.78125 587.320312 C 1086.789062 577.835938 1078.808594 570.140625 1068.960938 570.140625 Z M 998.554688 570.140625 C 988.710938 570.140625 980.71875 577.835938 980.71875 587.320312 C 980.71875 596.808594 988.710938 604.503906 998.554688 604.503906 C 1008.390625 604.503906 1016.386719 596.808594 1016.386719 587.320312 C 1016.386719 577.835938 1008.398438 570.140625 998.554688 570.140625 Z M 928.144531 570.140625 C 918.300781 570.140625 910.308594 577.835938 910.308594 587.320312 C 910.308594 596.808594 918.300781 604.503906 928.144531 604.503906 C 937.980469 604.503906 945.976562 596.808594 945.976562 587.320312 C 945.976562 577.835938 937.984375 570.140625 928.144531 570.140625 Z M 857.738281 570.140625 C 847.894531 570.140625 839.898438 577.835938 839.898438 587.320312 C 839.898438 596.808594 847.894531 604.503906 857.738281 604.503906 C 867.582031 604.503906 875.566406 596.808594 875.566406 587.320312 C 875.566406 577.835938 867.582031 570.140625 857.738281 570.140625 Z M 787.320312 570.140625 C 777.480469 570.140625 769.488281 577.835938 769.488281 587.320312 C 769.488281 596.808594 777.480469 604.503906 787.320312 604.503906 C 797.164062 604.503906 805.15625 596.808594 805.15625 587.320312 C 805.15625 577.835938 797.175781 570.140625 787.320312 570.140625 Z M 716.910156 570.140625 C 707.066406 570.140625 699.078125 577.835938 699.078125 587.320312 C 699.078125 596.808594 707.066406 604.503906 716.910156 604.503906 C 726.757812 604.503906 734.746094 596.808594 734.746094 587.320312 C 734.746094 577.835938 726.757812 570.140625 716.910156 570.140625 Z M 646.503906 570.140625 C 636.65625 570.140625 628.667969 577.835938 628.667969 587.320312 C 628.667969 596.808594 636.65625 604.503906 646.503906 604.503906 C 656.347656 604.503906 664.339844 596.808594 664.339844 587.320312 C 664.339844 577.835938 656.347656 570.140625 646.503906 570.140625 Z M 576.09375 570.140625 C 566.25 570.140625 558.257812 577.835938 558.257812 587.320312 C 558.257812 596.808594 566.25 604.503906 576.09375 604.503906 C 585.941406 604.503906 593.929688 596.808594 593.929688 587.320312 C 593.929688 577.835938 585.941406 570.140625 576.09375 570.140625 Z M 505.683594 570.140625 C 495.835938 570.140625 487.847656 577.835938 487.847656 587.320312 C 487.847656 596.808594 495.835938 604.503906 505.683594 604.503906 C 515.53125 604.503906 523.519531 596.808594 523.519531 587.320312 C 523.519531 577.835938 515.53125 570.140625 505.683594 570.140625 Z M 439.089844 570.542969 L 441.546875 585.570312 L 417.449219 587.15625 C 417.449219 587.210938 417.441406 587.265625 417.441406 587.320312 C 417.441406 596.808594 425.429688 604.503906 435.277344 604.503906 C 445.121094 604.503906 453.109375 596.808594 453.109375 587.320312 C 453.109375 579.097656 447.101562 572.230469 439.089844 570.542969 Z M 364.863281 604.5 C 373.957031 604.5 381.449219 597.929688 382.546875 589.453125 L 347.652344 591.757812 C 349.6875 599.085938 356.613281 604.5 364.863281 604.5 Z M 294.453125 604.5 C 301.765625 604.5 308.042969 600.25 310.792969 594.179688 L 279.246094 596.257812 C 282.378906 601.191406 288.011719 604.5 294.453125 604.5 Z M 237.0625 599.035156 L 220.148438 600.148438 L 225.847656 604.410156 C 230.261719 603.984375 234.191406 601.992188 237.0625 599.035156 Z M 1107.402344 642.84375 C 1097.5625 642.84375 1089.570312 650.535156 1089.570312 660.019531 C 1089.570312 669.503906 1097.5625 677.207031 1107.402344 677.207031 C 1117.25 677.207031 1125.234375 669.503906 1125.234375 660.019531 C 1125.242188 650.542969 1117.253906 642.84375 1107.402344 642.84375 Z M 1036.996094 677.207031 C 1046.835938 677.207031 1054.828125 669.503906 1054.828125 660.019531 C 1054.828125 650.539062 1046.835938 642.84375 1036.996094 642.84375 C 1027.148438 642.84375 1019.160156 650.535156 1019.160156 660.019531 C 1019.160156 669.5 1027.148438 677.207031 1036.996094 677.207031 Z M 966.585938 677.207031 C 976.429688 677.207031 984.421875 669.503906 984.421875 660.019531 C 984.421875 650.539062 976.429688 642.84375 966.585938 642.84375 C 956.742188 642.84375 948.757812 650.535156 948.757812 660.019531 C 948.75 669.5 956.734375 677.207031 966.585938 677.207031 Z M 896.171875 642.84375 C 886.332031 642.84375 878.339844 650.535156 878.339844 660.019531 C 878.339844 669.503906 886.332031 677.207031 896.171875 677.207031 C 906.015625 677.207031 914 669.503906 914 660.019531 C 914.007812 650.542969 906.023438 642.84375 896.171875 642.84375 Z M 825.769531 642.84375 C 815.921875 642.84375 807.933594 650.535156 807.933594 660.019531 C 807.933594 669.503906 815.921875 677.207031 825.769531 677.207031 C 835.605469 677.207031 843.597656 669.503906 843.597656 660.019531 C 843.597656 650.542969 835.613281 642.84375 825.769531 642.84375 Z M 755.355469 642.84375 C 745.511719 642.84375 737.523438 650.535156 737.523438 660.019531 C 737.523438 669.503906 745.511719 677.207031 755.355469 677.207031 C 765.199219 677.207031 773.191406 669.503906 773.191406 660.019531 C 773.191406 650.542969 765.199219 642.84375 755.355469 642.84375 Z M 684.945312 642.84375 C 675.101562 642.84375 667.109375 650.535156 667.109375 660.019531 C 667.109375 669.503906 675.101562 677.207031 684.945312 677.207031 C 694.792969 677.207031 702.78125 669.503906 702.78125 660.019531 C 702.78125 650.542969 694.792969 642.84375 684.945312 642.84375 Z M 614.535156 642.84375 C 604.691406 642.84375 596.699219 650.535156 596.699219 660.019531 C 596.699219 669.503906 604.691406 677.207031 614.535156 677.207031 C 624.382812 677.207031 632.367188 669.503906 632.367188 660.019531 C 632.371094 650.542969 624.382812 642.84375 614.535156 642.84375 Z M 544.128906 642.84375 C 534.28125 642.84375 526.292969 650.535156 526.292969 660.019531 C 526.292969 669.503906 534.28125 677.207031 544.128906 677.207031 C 553.972656 677.207031 561.960938 669.503906 561.960938 660.019531 C 561.960938 650.542969 553.972656 642.84375 544.128906 642.84375 Z M 473.714844 677.207031 C 483.558594 677.207031 491.550781 669.503906 491.550781 660.019531 C 491.550781 650.539062 483.558594 642.84375 473.714844 642.84375 C 463.871094 642.84375 455.882812 650.535156 455.882812 660.019531 C 455.882812 669.5 463.871094 677.207031 473.714844 677.207031 Z M 403.308594 677.207031 C 413.148438 677.207031 421.140625 669.503906 421.140625 660.019531 C 421.140625 650.539062 413.148438 642.84375 403.308594 642.84375 C 393.460938 642.84375 385.472656 650.535156 385.472656 660.019531 C 385.476562 669.5 393.464844 677.207031 403.308594 677.207031 Z M 332.894531 677.207031 C 342.742188 677.207031 350.730469 669.503906 350.730469 660.019531 C 350.730469 650.539062 342.742188 642.84375 332.894531 642.84375 C 323.050781 642.84375 315.0625 650.535156 315.0625 660.019531 C 315.0625 669.5 323.050781 677.207031 332.894531 677.207031 Z M 1126.851562 744.949219 C 1128.488281 746.5 1130.4375 747.757812 1132.59375 748.605469 Z M 1068.960938 749.90625 C 1078.800781 749.90625 1086.78125 742.210938 1086.78125 732.722656 C 1086.78125 723.238281 1078.800781 715.546875 1068.960938 715.546875 C 1059.117188 715.546875 1051.125 723.242188 1051.125 732.722656 C 1051.125 742.210938 1059.117188 749.90625 1068.960938 749.90625 Z M 998.554688 749.90625 C 1008.390625 749.90625 1016.386719 742.210938 1016.386719 732.722656 C 1016.386719 723.238281 1008.390625 715.546875 998.554688 715.546875 C 988.710938 715.546875 980.71875 723.242188 980.71875 732.722656 C 980.71875 742.210938 988.710938 749.90625 998.554688 749.90625 Z M 928.144531 715.550781 C 918.300781 715.550781 910.308594 723.246094 910.308594 732.722656 C 910.308594 742.214844 918.300781 749.910156 928.144531 749.910156 C 937.980469 749.910156 945.976562 742.214844 945.976562 732.722656 C 945.976562 723.246094 937.984375 715.550781 928.144531 715.550781 Z M 857.738281 715.550781 C 847.894531 715.550781 839.898438 723.246094 839.898438 732.722656 C 839.898438 742.214844 847.894531 749.910156 857.738281 749.910156 C 867.582031 749.910156 875.566406 742.214844 875.566406 732.722656 C 875.566406 723.246094 867.582031 715.550781 857.738281 715.550781 Z M 787.320312 715.550781 C 777.480469 715.550781 769.488281 723.246094 769.488281 732.722656 C 769.488281 742.214844 777.480469 749.910156 787.320312 749.910156 C 797.164062 749.910156 805.15625 742.214844 805.15625 732.722656 C 805.15625 723.246094 797.175781 715.550781 787.320312 715.550781 Z M 716.910156 715.550781 C 707.066406 715.550781 699.078125 723.246094 699.078125 732.722656 C 699.078125 742.214844 707.066406 749.910156 716.910156 749.910156 C 726.757812 749.910156 734.746094 742.214844 734.746094 732.722656 C 734.746094 723.246094 726.757812 715.550781 716.910156 715.550781 Z M 646.503906 715.550781 C 636.65625 715.550781 628.667969 723.246094 628.667969 732.722656 C 628.667969 742.214844 636.65625 749.910156 646.503906 749.910156 C 656.347656 749.910156 664.339844 742.214844 664.339844 732.722656 C 664.339844 723.246094 656.347656 715.550781 646.503906 715.550781 Z M 576.09375 715.550781 C 566.25 715.550781 558.257812 723.246094 558.257812 732.722656 C 558.257812 742.214844 566.25 749.910156 576.09375 749.910156 C 585.941406 749.910156 593.929688 742.214844 593.929688 732.722656 C 593.929688 723.246094 585.941406 715.550781 576.09375 715.550781 Z M 505.683594 715.550781 C 495.835938 715.550781 487.847656 723.246094 487.847656 732.722656 C 487.847656 742.214844 495.835938 749.910156 505.683594 749.910156 C 515.53125 749.910156 523.519531 742.214844 523.519531 732.722656 C 523.519531 723.246094 515.53125 715.550781 505.683594 715.550781 Z M 435.273438 715.550781 C 425.425781 715.550781 417.4375 723.246094 417.4375 732.722656 C 417.4375 742.214844 425.425781 749.910156 435.273438 749.910156 C 445.117188 749.910156 453.105469 742.214844 453.105469 732.722656 C 453.109375 723.246094 445.117188 715.550781 435.273438 715.550781 Z M 1248.222656 822.609375 C 1248.351562 822.609375 1248.472656 822.59375 1248.601562 822.589844 L 1231.679688 811.792969 C 1234.300781 818.125 1240.714844 822.609375 1248.222656 822.609375 Z M 1159.972656 805.429688 C 1159.972656 814.910156 1167.964844 822.609375 1177.8125 822.609375 C 1187.652344 822.609375 1195.640625 814.914062 1195.640625 805.429688 C 1195.640625 795.9375 1187.652344 788.25 1177.8125 788.25 C 1167.964844 788.25 1159.972656 795.945312 1159.972656 805.429688 Z M 1089.570312 805.429688 C 1089.570312 814.910156 1097.5625 822.609375 1107.402344 822.609375 C 1117.25 822.609375 1125.234375 814.914062 1125.234375 805.429688 C 1125.234375 795.9375 1117.25 788.25 1107.402344 788.25 C 1097.5625 788.25 1089.570312 795.945312 1089.570312 805.429688 Z M 1036.996094 788.25 C 1027.148438 788.25 1019.160156 795.945312 1019.160156 805.429688 C 1019.160156 814.910156 1027.148438 822.609375 1036.996094 822.609375 C 1046.835938 822.609375 1054.828125 814.914062 1054.828125 805.429688 C 1054.828125 795.945312 1046.835938 788.25 1036.996094 788.25 Z M 966.585938 822.609375 C 976.429688 822.609375 984.421875 814.914062 984.421875 805.429688 C 984.421875 795.945312 976.429688 788.25 966.585938 788.25 C 956.742188 788.25 948.757812 795.945312 948.757812 805.429688 C 948.75 814.910156 956.734375 822.609375 966.585938 822.609375 Z M 878.339844 805.429688 C 878.339844 814.910156 886.332031 822.609375 896.171875 822.609375 C 906.015625 822.609375 914 814.914062 914 805.429688 C 914 795.9375 906.015625 788.25 896.171875 788.25 C 886.332031 788.25 878.339844 795.945312 878.339844 805.429688 Z M 807.933594 805.429688 C 807.933594 814.910156 815.921875 822.609375 825.769531 822.609375 C 835.605469 822.609375 843.597656 814.914062 843.597656 805.429688 C 843.597656 795.9375 835.605469 788.25 825.769531 788.25 C 815.921875 788.25 807.933594 795.945312 807.933594 805.429688 Z M 737.523438 805.429688 C 737.523438 814.910156 745.511719 822.609375 755.355469 822.609375 C 765.199219 822.609375 773.191406 814.914062 773.191406 805.429688 C 773.191406 795.9375 765.199219 788.25 755.355469 788.25 C 745.511719 788.25 737.523438 795.945312 737.523438 805.429688 Z M 667.109375 805.429688 C 667.109375 814.910156 675.101562 822.609375 684.945312 822.609375 C 694.792969 822.609375 702.78125 814.914062 702.78125 805.429688 C 702.78125 795.9375 694.792969 788.25 684.945312 788.25 C 675.101562 788.25 667.109375 795.945312 667.109375 805.429688 Z M 596.703125 805.429688 C 596.703125 814.910156 604.691406 822.609375 614.539062 822.609375 C 624.382812 822.609375 632.371094 814.914062 632.371094 805.429688 C 632.371094 795.9375 624.382812 788.25 614.539062 788.25 C 604.691406 788.25 596.703125 795.945312 596.703125 805.429688 Z M 526.292969 805.429688 C 526.292969 814.910156 534.28125 822.609375 544.128906 822.609375 C 553.972656 822.609375 561.960938 814.914062 561.960938 805.429688 C 561.960938 795.9375 553.972656 788.25 544.128906 788.25 C 534.28125 788.25 526.292969 795.945312 526.292969 805.429688 Z M 473.714844 822.609375 C 483.558594 822.609375 491.550781 814.914062 491.550781 805.429688 C 491.550781 795.945312 483.558594 788.25 473.714844 788.25 C 463.871094 788.25 455.882812 795.945312 455.882812 805.429688 C 455.882812 814.910156 463.871094 822.609375 473.714844 822.609375 Z M 403.308594 822.609375 C 413.148438 822.609375 421.140625 814.914062 421.140625 805.429688 C 421.140625 795.945312 413.148438 788.25 403.308594 788.25 C 393.460938 788.25 385.472656 795.945312 385.472656 805.429688 C 385.476562 814.910156 393.464844 822.609375 403.308594 822.609375 Z M 332.894531 822.609375 C 342.742188 822.609375 350.730469 814.914062 350.730469 805.429688 C 350.730469 801.429688 349.296875 797.753906 346.910156 794.832031 L 318.402344 815.414062 C 321.640625 819.761719 326.917969 822.609375 332.894531 822.609375 Z M 1122.222656 873.460938 L 1150.171875 864.488281 C 1147.167969 862.28125 1143.429688 860.949219 1139.363281 860.949219 C 1131.207031 860.953125 1124.34375 866.246094 1122.222656 873.460938 Z M 1068.960938 860.953125 C 1059.117188 860.953125 1051.125 868.648438 1051.125 878.136719 C 1051.125 887.621094 1059.117188 895.308594 1068.960938 895.308594 C 1069.476562 895.308594 1069.988281 895.273438 1070.492188 895.234375 L 1069.996094 890.234375 L 1085.101562 885.382812 C 1086.171875 883.179688 1086.78125 880.726562 1086.78125 878.136719 C 1086.789062 868.648438 1078.808594 860.953125 1068.960938 860.953125 Z M 998.554688 895.308594 C 1008.390625 895.308594 1016.386719 887.613281 1016.386719 878.136719 C 1016.386719 868.648438 1008.390625 860.953125 998.554688 860.953125 C 988.710938 860.953125 980.71875 868.648438 980.71875 878.136719 C 980.71875 887.613281 988.710938 895.308594 998.554688 895.308594 Z M 928.144531 895.308594 C 937.980469 895.308594 945.976562 887.613281 945.976562 878.136719 C 945.976562 868.648438 937.984375 860.953125 928.144531 860.953125 C 918.300781 860.953125 910.308594 868.648438 910.308594 878.136719 C 910.308594 887.613281 918.300781 895.308594 928.144531 895.308594 Z M 875.566406 878.136719 C 875.566406 868.648438 867.582031 860.953125 857.738281 860.953125 C 847.894531 860.953125 839.898438 868.648438 839.898438 878.136719 C 839.898438 887.621094 847.894531 895.308594 857.738281 895.308594 C 867.582031 895.308594 875.566406 887.613281 875.566406 878.136719 Z M 787.320312 860.953125 C 777.480469 860.953125 769.488281 868.648438 769.488281 878.136719 C 769.488281 887.621094 777.480469 895.308594 787.320312 895.308594 C 797.164062 895.308594 805.15625 887.613281 805.15625 878.136719 C 805.15625 868.648438 797.175781 860.953125 787.320312 860.953125 Z M 716.910156 860.953125 C 707.066406 860.953125 699.078125 868.648438 699.078125 878.136719 C 699.078125 887.621094 707.066406 895.308594 716.910156 895.308594 C 726.757812 895.308594 734.746094 887.613281 734.746094 878.136719 C 734.746094 868.648438 726.757812 860.953125 716.910156 860.953125 Z M 646.503906 895.308594 C 656.347656 895.308594 664.339844 887.613281 664.339844 878.136719 C 664.339844 868.648438 656.347656 860.953125 646.503906 860.953125 C 636.65625 860.953125 628.667969 868.648438 628.667969 878.136719 C 628.667969 887.613281 636.65625 895.308594 646.503906 895.308594 Z M 576.09375 895.308594 C 585.941406 895.308594 593.929688 887.613281 593.929688 878.136719 C 593.929688 868.648438 585.941406 860.953125 576.09375 860.953125 C 566.25 860.953125 558.257812 868.648438 558.257812 878.136719 C 558.257812 887.613281 566.25 895.308594 576.09375 895.308594 Z M 505.683594 860.953125 C 495.835938 860.953125 487.847656 868.648438 487.847656 878.136719 C 487.847656 887.621094 495.835938 895.308594 505.683594 895.308594 C 515.53125 895.308594 523.519531 887.613281 523.519531 878.136719 C 523.519531 868.648438 515.53125 860.953125 505.683594 860.953125 Z M 435.273438 860.953125 C 425.425781 860.953125 417.4375 868.648438 417.4375 878.136719 C 417.4375 887.621094 425.425781 895.308594 435.273438 895.308594 C 445.117188 895.308594 453.105469 887.613281 453.105469 878.136719 C 453.109375 868.648438 445.117188 860.953125 435.273438 860.953125 Z M 347.03125 878.136719 C 347.03125 887.621094 355.015625 895.308594 364.863281 895.308594 C 374.707031 895.308594 382.699219 887.613281 382.699219 878.136719 C 382.699219 868.648438 374.707031 860.953125 364.863281 860.953125 C 355.015625 860.953125 347.03125 868.648438 347.03125 878.136719 Z M 294.453125 860.953125 C 290.210938 860.953125 286.3125 862.390625 283.25 864.773438 L 312.183594 876.328125 C 311.246094 867.6875 303.664062 860.953125 294.453125 860.953125 Z M 1036.996094 933.65625 C 1027.148438 933.65625 1019.160156 941.351562 1019.160156 950.835938 C 1019.160156 960.320312 1027.148438 968.007812 1036.996094 968.007812 C 1046.835938 968.007812 1054.828125 960.316406 1054.828125 950.835938 C 1054.828125 941.347656 1046.835938 933.65625 1036.996094 933.65625 Z M 966.585938 968.011719 C 976.429688 968.011719 984.421875 960.320312 984.421875 950.839844 C 984.421875 941.347656 976.429688 933.660156 966.585938 933.660156 C 956.742188 933.660156 948.757812 941.355469 948.757812 950.839844 C 948.75 960.320312 956.734375 968.011719 966.585938 968.011719 Z M 896.171875 968.011719 C 906.015625 968.011719 914 960.320312 914 950.839844 C 914 941.347656 906.015625 933.660156 896.171875 933.660156 C 886.332031 933.660156 878.339844 941.355469 878.339844 950.839844 C 878.339844 960.320312 886.332031 968.011719 896.171875 968.011719 Z M 825.769531 968.011719 C 835.605469 968.011719 843.597656 960.320312 843.597656 950.839844 C 843.597656 941.347656 835.605469 933.660156 825.769531 933.660156 C 815.921875 933.660156 807.933594 941.355469 807.933594 950.839844 C 807.933594 960.320312 815.921875 968.011719 825.769531 968.011719 Z M 755.355469 968.011719 C 765.199219 968.011719 773.191406 960.320312 773.191406 950.839844 C 773.191406 941.347656 765.199219 933.660156 755.355469 933.660156 C 745.511719 933.660156 737.523438 941.355469 737.523438 950.839844 C 737.523438 960.320312 745.511719 968.011719 755.355469 968.011719 Z M 684.945312 968.011719 C 694.792969 968.011719 702.78125 960.320312 702.78125 950.839844 C 702.78125 941.347656 694.792969 933.660156 684.945312 933.660156 C 675.101562 933.660156 667.109375 941.355469 667.109375 950.839844 C 667.109375 960.320312 675.101562 968.011719 684.945312 968.011719 Z M 614.535156 968.011719 C 624.382812 968.011719 632.367188 960.320312 632.367188 950.839844 C 632.367188 941.347656 624.382812 933.660156 614.535156 933.660156 C 604.691406 933.660156 596.699219 941.355469 596.699219 950.839844 C 596.703125 960.320312 604.691406 968.011719 614.535156 968.011719 Z M 544.128906 968.011719 C 553.972656 968.011719 561.960938 960.320312 561.960938 950.839844 C 561.960938 941.347656 553.972656 933.660156 544.128906 933.660156 C 534.28125 933.660156 526.292969 941.355469 526.292969 950.839844 C 526.292969 960.320312 534.28125 968.011719 544.128906 968.011719 Z M 473.714844 968.011719 C 483.558594 968.011719 491.550781 960.320312 491.550781 950.839844 C 491.550781 941.347656 483.558594 933.660156 473.714844 933.660156 C 463.871094 933.660156 455.882812 941.355469 455.882812 950.839844 C 455.882812 960.320312 463.871094 968.011719 473.714844 968.011719 Z M 1051.125 1023.539062 C 1051.125 1033.023438 1059.117188 1040.71875 1068.960938 1040.71875 C 1075.351562 1040.71875 1080.9375 1037.464844 1084.082031 1032.589844 L 1082.035156 1011.890625 C 1078.777344 1008.488281 1074.128906 1006.351562 1068.953125 1006.351562 C 1059.117188 1006.359375 1051.125 1014.058594 1051.125 1023.539062 Z M 1016.386719 1023.539062 C 1016.386719 1014.046875 1008.390625 1006.359375 998.554688 1006.359375 C 989.691406 1006.359375 982.34375 1012.605469 980.96875 1020.777344 L 1009.324219 1037.207031 C 1013.605469 1034.066406 1016.386719 1029.121094 1016.386719 1023.539062 Z M 839.890625 1023.539062 C 839.890625 1024.613281 840.007812 1025.671875 840.207031 1026.695312 L 846.558594 1010.148438 C 842.503906 1013.308594 839.890625 1018.132812 839.890625 1023.539062 Z M 787.320312 1040.722656 C 797.164062 1040.722656 805.15625 1033.027344 805.15625 1023.542969 C 805.15625 1014.054688 797.164062 1006.363281 787.320312 1006.363281 C 777.480469 1006.363281 769.488281 1014.058594 769.488281 1023.542969 C 769.488281 1033.023438 777.480469 1040.722656 787.320312 1040.722656 Z M 716.910156 1040.722656 C 726.757812 1040.722656 734.746094 1033.027344 734.746094 1023.542969 C 734.746094 1014.054688 726.757812 1006.363281 716.910156 1006.363281 C 707.066406 1006.363281 699.078125 1014.058594 699.078125 1023.542969 C 699.078125 1033.023438 707.066406 1040.722656 716.910156 1040.722656 Z M 558.257812 1023.539062 C 558.257812 1027.503906 559.667969 1031.132812 562.007812 1034.042969 L 587.601562 1010.429688 C 584.492188 1007.894531 580.480469 1006.355469 576.09375 1006.355469 C 566.25 1006.359375 558.257812 1014.058594 558.257812 1023.539062 Z M 505.683594 1040.722656 C 515.53125 1040.722656 523.519531 1033.027344 523.519531 1023.542969 C 523.519531 1014.054688 515.53125 1006.363281 505.683594 1006.363281 C 495.835938 1006.363281 487.847656 1014.058594 487.847656 1023.542969 C 487.847656 1033.023438 495.835938 1040.722656 505.683594 1040.722656 Z M 453.109375 1023.539062 C 453.109375 1014.058594 445.136719 1006.382812 435.308594 1006.363281 L 436.847656 1040.644531 C 445.953125 1039.875 453.109375 1032.515625 453.109375 1023.539062 Z M 807.933594 1096.242188 C 807.933594 1099.304688 808.773438 1102.171875 810.234375 1104.667969 L 819.671875 1080.117188 C 812.832031 1082.519531 807.933594 1088.828125 807.933594 1096.242188 Z M 755.355469 1113.425781 C 765.199219 1113.425781 773.191406 1105.722656 773.191406 1096.242188 C 773.191406 1086.761719 765.199219 1079.058594 755.355469 1079.058594 C 747.195312 1079.058594 740.328125 1084.359375 738.210938 1091.570312 L 753.882812 1113.351562 C 754.371094 1113.398438 754.851562 1113.425781 755.355469 1113.425781 Z M 473.714844 1079.058594 C 463.871094 1079.058594 455.882812 1086.761719 455.882812 1096.242188 C 455.882812 1105.722656 463.871094 1113.425781 473.714844 1113.425781 C 474.546875 1113.425781 475.363281 1113.351562 476.167969 1113.246094 L 491.246094 1099.335938 C 491.433594 1098.328125 491.550781 1097.296875 491.550781 1096.246094 C 491.550781 1086.765625 483.558594 1079.058594 473.714844 1079.058594 Z M 782.0625 1152.53125 L 788.429688 1161.386719 L 791.898438 1152.355469 C 790.4375 1151.980469 788.90625 1151.761719 787.320312 1151.761719 C 785.492188 1151.769531 783.722656 1152.039062 782.0625 1152.53125 Z M 782.0625 1152.53125 " fill-opacity="0.5" fill-rule="nonzero"/><path fill="#000000" d="M 1305.917969 506.019531 C 1305.074219 504.410156 1303.289062 503.535156 1301.53125 503.820312 L 1041.191406 546.199219 L 1071.054688 331.023438 C 1071.28125 329.371094 1070.511719 327.742188 1069.085938 326.878906 C 1067.664062 326.011719 1065.863281 326.078125 1064.503906 327.042969 L 845.820312 482.820312 L 730.296875 329.15625 C 729.429688 328.011719 728.035156 327.402344 726.617188 327.507812 C 725.1875 327.628906 723.917969 328.464844 723.257812 329.734375 L 641.109375 487.238281 L 400.519531 343.644531 C 399.125 342.8125 397.375 342.867188 396.027344 343.777344 C 394.691406 344.695312 393.996094 346.304688 394.257812 347.902344 L 431.824219 577.84375 L 208.335938 592.558594 C 206.59375 592.675781 205.105469 593.863281 204.609375 595.539062 C 204.109375 597.207031 204.710938 599.019531 206.109375 600.066406 L 400.691406 745.703125 L 250.8125 853.914062 C 249.578125 854.796875 248.929688 856.296875 249.117188 857.800781 C 249.300781 859.316406 250.300781 860.597656 251.710938 861.164062 L 423.515625 929.765625 L 433.589844 1154.542969 C 433.664062 1156.167969 434.667969 1157.59375 436.175781 1158.210938 C 437.671875 1158.828125 439.398438 1158.515625 440.59375 1157.421875 L 641.773438 971.796875 L 786.171875 1172.523438 C 786.953125 1173.625 788.226562 1174.265625 789.558594 1174.265625 C 789.730469 1174.265625 789.914062 1174.246094 790.09375 1174.222656 C 791.609375 1174.03125 792.898438 1173.007812 793.449219 1171.582031 L 871.996094 967.273438 L 1091.988281 1094.730469 C 1093.335938 1095.511719 1095.015625 1095.472656 1096.332031 1094.628906 C 1097.648438 1093.785156 1098.382812 1092.269531 1098.226562 1090.710938 L 1078.972656 896.09375 L 1270.339844 834.652344 C 1271.882812 834.15625 1272.996094 832.816406 1273.203125 831.21875 C 1273.410156 829.605469 1272.675781 828.027344 1271.3125 827.15625 L 1100.53125 718.25 L 1305.171875 510.847656 C 1306.445312 509.578125 1306.746094 507.621094 1305.917969 506.019531 Z M 1023.539062 564.273438 C 1024.488281 565.199219 1025.820312 565.613281 1027.125 565.40625 L 1266.339844 526.464844 L 1077.773438 717.578125 C 1076.890625 718.476562 1076.457031 719.722656 1076.597656 720.972656 C 1076.742188 722.226562 1077.4375 723.347656 1078.496094 724.027344 L 1239.863281 826.929688 L 1064.242188 883.316406 C 1062.371094 883.921875 1061.164062 885.742188 1061.363281 887.695312 L 1079.210938 1068.054688 L 867.660156 945.484375 C 866.601562 944.867188 865.335938 944.753906 864.179688 945.160156 C 863.027344 945.558594 862.105469 946.453125 861.667969 947.597656 L 786.1875 1143.976562 L 647.0625 950.582031 C 646.363281 949.613281 645.285156 948.988281 644.09375 948.863281 C 643.953125 948.847656 643.816406 948.84375 643.675781 948.84375 C 642.628906 948.84375 641.621094 949.234375 640.84375 949.945312 L 449.058594 1126.894531 L 439.832031 920.949219 C 439.753906 919.320312 438.734375 917.867188 437.210938 917.269531 L 279.054688 854.113281 L 424.277344 749.269531 C 425.347656 748.488281 425.996094 747.246094 426.007812 745.917969 C 426.015625 744.59375 425.398438 743.335938 424.335938 742.539062 L 243.222656 606.988281 L 446.679688 593.59375 C 447.851562 593.523438 448.9375 592.949219 449.667969 592.027344 C 450.402344 591.109375 450.714844 589.925781 450.523438 588.757812 L 415.074219 371.777344 L 643.945312 508.378906 C 644.929688 508.964844 646.113281 509.117188 647.21875 508.800781 C 648.324219 508.492188 649.25 507.734375 649.785156 506.722656 L 728.882812 355.058594 L 839.8125 502.613281 C 841.171875 504.421875 843.71875 504.8125 845.566406 503.503906 L 1050.53125 357.507812 L 1022.320312 560.726562 C 1022.140625 562.023438 1022.589844 563.34375 1023.539062 564.273438 Z M 1023.539062 564.273438 " fill-opacity="1" fill-rule="nonzero"/><path fill="#ffff00" d="M 421.082031 795.558594 C 419.683594 825.519531 411.714844 850.179688 397.179688 869.542969 C 381.742188 890.175781 361.578125 901.125 336.683594 902.351562 C 327.378906 902.8125 314.898438 901.371094 299.242188 898.027344 C 284.40625 894.785156 272.367188 891.125 263.121094 887.066406 C 261.304688 850.277344 257.332031 817.015625 251.195312 787.289062 C 257.203125 792.203125 265.230469 796.542969 275.289062 800.289062 C 286.601562 804.394531 297.039062 806.207031 306.617188 805.738281 C 320.429688 805.058594 330.175781 799.632812 335.84375 789.484375 C 337.476562 786.527344 338.207031 783.265625 338.03125 779.710938 C 337.632812 771.503906 331.59375 759.050781 319.941406 742.355469 C 299.996094 713.316406 289.128906 697.398438 287.347656 694.601562 C 275.378906 674.359375 268.785156 656.113281 267.570312 639.847656 C 265.578125 616.085938 273.734375 595.257812 292.050781 577.347656 C 309.433594 560.179688 329.828125 551.003906 353.222656 549.855469 C 365.664062 549.238281 383.875 554.171875 407.839844 564.632812 C 405.027344 571.636719 403.773438 583.683594 404.070312 600.808594 C 404.402344 613 404.726562 625.183594 405.054688 637.375 C 400.972656 632.367188 396.878906 627.289062 392.785156 622.144531 C 386.558594 615.460938 379.128906 612.125 370.492188 612.140625 C 361.980469 612.015625 355.472656 614.9375 350.976562 620.921875 C 346.078125 627.335938 344.140625 636.6875 345.160156 648.972656 C 346.097656 659.621094 352.917969 671.492188 365.636719 684.570312 C 385.703125 705.101562 397.367188 717.621094 400.601562 722.125 C 413.261719 739.734375 420.140625 759.554688 421.226562 781.578125 C 421.4375 786.082031 421.394531 790.75 421.082031 795.558594 " fill-opacity="1" fill-rule="nonzero"/><path fill="#ffff00" d="M 654.863281 601.082031 C 654.480469 604.394531 654.417969 608.648438 654.671875 613.835938 C 654.949219 619.449219 656.320312 633.363281 658.789062 655.589844 C 661.257812 677.820312 662.871094 696.59375 663.625 711.910156 C 667.625 792.878906 653.628906 859.242188 621.628906 911.011719 C 603.089844 941.128906 573.648438 957.183594 533.300781 959.175781 C 518.804688 959.894531 506.679688 957.335938 496.929688 951.503906 C 491.28125 948.222656 483.175781 941.015625 472.617188 929.878906 C 450.769531 906.832031 438.664062 871.296875 436.296875 823.289062 C 434.179688 780.484375 439.269531 733.546875 451.554688 682.480469 C 475.355469 678.566406 501.085938 670.640625 528.746094 658.722656 C 519.644531 690.984375 516.832031 742.328125 520.3125 812.765625 C 522.085938 848.75 525.371094 876.34375 530.164062 895.570312 C 531.550781 901.546875 536.6875 904.300781 545.582031 903.863281 C 557.484375 903.273438 565.726562 899.445312 570.316406 892.355469 C 583.304688 872.109375 588.335938 832.375 585.410156 773.152344 C 584.027344 745.113281 581.074219 717.285156 576.554688 689.679688 C 572.417969 664.242188 568.527344 647.917969 564.882812 640.683594 C 574.363281 638.300781 589.34375 632.144531 609.835938 622.21875 C 634.203125 610.332031 649.214844 603.28125 654.863281 601.082031 " fill-opacity="1" fill-rule="nonzero"/><path fill="#ffff00" d="M 850.257812 593.714844 C 852.382812 599.171875 853.746094 605.304688 854.34375 612.125 C 856.386719 635.453125 850.015625 660.824219 835.230469 688.234375 C 817.976562 720.398438 791.535156 749.726562 755.914062 776.210938 C 760.667969 811.671875 768.363281 839.941406 779.007812 861 C 757.460938 869.210938 727.289062 881.128906 688.515625 896.757812 C 687.261719 885.589844 686.152344 874.488281 685.1875 863.441406 C 680.894531 814.472656 679.6875 758.28125 681.558594 694.882812 C 684.039062 613.289062 685.164062 566.453125 684.929688 554.371094 C 702.007812 548.480469 719.28125 544.765625 736.742188 543.242188 C 763.617188 540.882812 787.042969 543.859375 807.015625 552.136719 C 828.421875 560.988281 842.832031 574.851562 850.257812 593.714844 M 790.683594 631.71875 C 789.574219 619.03125 783.484375 611.523438 772.425781 609.195312 C 768.917969 608.40625 761.359375 608.511719 749.769531 609.527344 C 750.199219 614.441406 750.382812 628.308594 750.324219 651.136719 C 750.160156 677.546875 750.417969 699.304688 751.089844 716.4375 C 763.476562 705.59375 773.585938 690.6875 781.40625 671.71875 C 788.476562 655.144531 791.574219 641.816406 790.683594 631.71875 " fill-opacity="1" fill-rule="nonzero"/><path fill="#ffff00" d="M 1035.246094 921.871094 C 1017.191406 922.757812 993.734375 928.101562 964.871094 937.886719 C 933.046875 948.78125 910.988281 960.222656 898.695312 972.207031 C 891.128906 969.011719 880.570312 960.695312 867.015625 947.234375 C 853.898438 934.3125 845.296875 923.976562 841.214844 916.222656 C 848.546875 909.144531 852.328125 894.148438 852.570312 871.238281 C 852.914062 847.640625 853.1875 823.976562 853.390625 800.246094 C 855.753906 776 858.050781 751.820312 860.296875 727.71875 C 863.070312 697.828125 864.011719 673.789062 863.109375 655.59375 C 885.519531 648.316406 907.851562 640.980469 930.109375 633.574219 C 962.945312 623.722656 990.976562 618.019531 1014.207031 616.464844 C 1011.488281 630.859375 1012.664062 646.226562 1017.722656 662.5625 C 998.84375 663.5 982.914062 665.792969 969.921875 669.449219 C 962.078125 671.625 948.679688 676.539062 929.726562 684.191406 C 928.945312 693.414062 927.542969 713.566406 925.515625 744.652344 C 949.316406 732.511719 973.65625 722.804688 998.535156 715.546875 C 997.144531 731.9375 998.074219 750.605469 1001.296875 771.550781 C 965.589844 778.800781 939.269531 788.734375 922.355469 801.367188 C 921.066406 833.785156 920.878906 859.027344 921.773438 877.078125 C 953.140625 859.898438 986.417969 847.835938 1021.589844 840.886719 C 1023.136719 861.105469 1024.363281 874.828125 1025.269531 882.046875 C 1027.601562 901.679688 1030.925781 914.953125 1035.246094 921.871094 " fill-opacity="1" fill-rule="nonzero"/><path fill="#ffff00" d="M 1256.179688 769.492188 C 1243.320312 782.546875 1227.226562 806.042969 1207.910156 839.980469 C 1182.644531 829.667969 1154.78125 807.621094 1124.316406 773.867188 L 1112.496094 781.8125 C 1111.816406 792.175781 1112.296875 802.332031 1113.917969 812.324219 C 1113.636719 810.574219 1117.992188 827.589844 1127.007812 863.382812 C 1109.753906 870.75 1097.679688 876.316406 1090.792969 880.066406 C 1079.039062 886.269531 1068.523438 893.71875 1059.257812 902.429688 C 1057.1875 891.394531 1055.265625 880.414062 1053.484375 869.46875 C 1045.59375 820.972656 1040.257812 765.058594 1037.453125 701.734375 C 1033.914062 620.222656 1031.582031 573.460938 1030.460938 561.4375 C 1060.03125 548.730469 1088.054688 540.21875 1114.554688 535.914062 C 1168.21875 527.191406 1199.332031 538.507812 1207.902344 569.855469 C 1209.230469 574.628906 1210.308594 579.523438 1211.113281 584.519531 C 1219.007812 633.042969 1204.503906 681.253906 1167.605469 729.152344 C 1183.382812 745.878906 1212.902344 759.324219 1256.179688 769.492188 M 1142.652344 621.667969 C 1140.632812 609.234375 1135.429688 603.699219 1127.054688 605.0625 C 1124.625 605.457031 1121.296875 606.617188 1117.109375 608.546875 C 1112.90625 610.484375 1110.277344 611.53125 1109.195312 611.703125 C 1110.207031 617.929688 1110.234375 632.632812 1109.289062 655.8125 C 1107.875 688.921875 1107.195312 712.066406 1107.257812 725.230469 C 1118.097656 704.878906 1126.972656 684.847656 1133.902344 665.128906 C 1141.09375 644.539062 1144.015625 630.050781 1142.652344 621.667969 " fill-opacity="1" fill-rule="nonzero"/><path fill="#000000" d="M 333.164062 909.097656 C 323.886719 909.097656 312.003906 907.566406 297.847656 904.542969 C 282.621094 901.222656 270.042969 897.390625 260.433594 893.15625 L 256.664062 891.5 L 256.464844 887.394531 C 254.671875 851.105469 250.703125 817.882812 244.667969 788.636719 L 240.871094 770.25 L 255.410156 782.140625 C 260.828125 786.574219 268.296875 790.578125 277.613281 794.054688 C 287.96875 797.8125 297.605469 799.503906 306.289062 799.082031 C 317.75 798.515625 325.515625 794.3125 330.023438 786.234375 C 331.042969 784.390625 331.492188 782.359375 331.375 780.039062 C 331.144531 775.296875 328.019531 765.574219 314.476562 746.164062 C 294.265625 716.742188 283.5625 701.0625 281.726562 698.183594 C 269.167969 676.953125 262.210938 657.566406 260.921875 640.34375 C 258.769531 614.683594 267.667969 591.871094 287.386719 572.585938 C 305.871094 554.332031 327.917969 544.441406 352.886719 543.210938 C 366.421875 542.554688 385.300781 547.535156 410.496094 558.542969 L 416.417969 561.132812 L 414.011719 567.136719 C 412.316406 571.351562 410.375 580.605469 410.722656 600.714844 L 412.226562 656.730469 L 399.882812 641.601562 C 395.835938 636.636719 391.785156 631.613281 387.730469 626.515625 C 382.828125 621.332031 377.203125 618.816406 370.539062 618.816406 L 369.960938 618.816406 C 363.777344 618.816406 359.433594 620.761719 356.289062 624.9375 C 352.417969 630.007812 350.917969 637.90625 351.792969 648.4375 C 352.585938 657.445312 358.847656 668.050781 370.40625 679.945312 C 397.707031 707.878906 403.800781 715.1875 406.003906 718.253906 C 419.371094 736.839844 426.730469 758.039062 427.875 781.257812 C 428.109375 786.003906 428.0625 790.96875 427.734375 796.011719 C 426.285156 827.074219 417.796875 853.203125 402.511719 873.5625 C 385.910156 895.765625 363.871094 907.699219 337.015625 909.023438 C 335.78125 909.0625 334.496094 909.097656 333.164062 909.097656 Z M 269.550781 882.527344 C 277.839844 885.796875 288.28125 888.820312 300.660156 891.523438 C 315.625 894.722656 327.625 896.15625 336.355469 895.707031 C 359.378906 894.566406 377.527344 884.710938 391.84375 865.554688 C 405.503906 847.359375 413.097656 823.707031 414.429688 795.25 C 414.726562 790.589844 414.769531 786.140625 414.558594 781.898438 C 413.542969 761.285156 407.023438 742.484375 395.179688 726.011719 C 393.101562 723.121094 385.460938 714.394531 360.859375 689.21875 C 346.902344 674.867188 339.597656 661.894531 338.511719 649.554688 C 337.351562 635.59375 339.757812 624.609375 345.667969 616.875 C 351.34375 609.320312 359.527344 605.472656 369.953125 605.472656 L 370.574219 605.476562 C 381.027344 605.476562 390.152344 609.554688 397.644531 617.601562 L 397.851562 617.828125 L 397.398438 600.992188 C 397.15625 586.964844 397.917969 576.226562 399.726562 568.417969 C 379.53125 560.011719 364.042969 555.980469 353.542969 556.503906 C 331.640625 557.582031 313.054688 565.945312 296.722656 582.082031 C 279.722656 598.703125 272.367188 617.40625 274.203125 639.28125 C 275.339844 654.496094 281.6875 671.945312 293.078125 691.203125 C 294.6875 693.726562 305.613281 709.722656 325.425781 738.574219 C 337.902344 756.453125 344.210938 769.8125 344.683594 779.375 C 344.917969 784.164062 343.910156 788.644531 341.671875 792.695312 C 334.820312 804.96875 323.140625 811.585938 306.945312 812.382812 C 296.511719 812.890625 285.109375 810.933594 273.011719 806.546875 C 268.527344 804.871094 264.390625 803.070312 260.617188 801.148438 C 264.964844 826.003906 267.964844 853.28125 269.550781 882.527344 Z M 269.550781 882.527344 " fill-opacity="1" fill-rule="nonzero"/><path fill="#000000" d="M 528.617188 965.957031 C 515.011719 965.957031 503.199219 963.019531 493.511719 957.230469 C 487.328125 953.640625 478.890625 946.175781 467.785156 934.472656 C 444.914062 910.347656 432.085938 873.058594 429.644531 823.628906 C 427.503906 780.402344 432.699219 732.394531 445.082031 680.9375 L 446.117188 676.636719 L 450.476562 675.921875 C 473.628906 672.109375 499.078125 664.269531 526.109375 652.613281 L 538.957031 647.070312 L 535.160156 660.535156 C 526.296875 691.945312 523.542969 743.054688 526.964844 812.445312 C 528.710938 847.832031 531.964844 875.265625 536.625 893.964844 C 536.894531 895.101562 537.390625 897.25 543.804688 897.25 C 544.273438 897.25 544.757812 897.242188 545.253906 897.214844 C 554.976562 896.734375 561.34375 893.960938 564.722656 888.742188 C 576.871094 869.8125 581.59375 831.023438 578.753906 773.484375 C 577.390625 745.820312 574.4375 717.988281 569.984375 690.753906 C 564.988281 660.058594 561.21875 648.21875 558.933594 643.683594 L 555.1875 636.253906 L 563.253906 634.226562 C 572.246094 631.964844 586.941406 625.910156 606.929688 616.226562 C 631.667969 604.148438 646.5625 597.160156 652.441406 594.867188 L 662.746094 590.851562 L 661.476562 601.839844 C 661.136719 604.777344 661.085938 608.703125 661.320312 613.507812 C 661.597656 619.023438 662.972656 632.933594 665.410156 654.851562 C 667.882812 677.164062 669.523438 696.25 670.277344 711.582031 C 674.328125 793.539062 659.867188 861.824219 627.296875 914.507812 C 607.632812 946.457031 576.121094 963.726562 533.632812 965.824219 C 531.929688 965.914062 530.253906 965.957031 528.617188 965.957031 Z M 457.027344 688.296875 C 445.671875 736.90625 440.9375 782.191406 442.953125 822.964844 C 445.230469 869.125 456.835938 903.554688 477.457031 925.304688 C 490.003906 938.535156 496.789062 943.726562 500.277344 945.753906 C 508.917969 950.921875 519.914062 953.164062 532.972656 952.527344 C 571.339844 950.632812 598.484375 935.910156 615.957031 907.527344 C 647.085938 857.160156 660.886719 791.472656 656.972656 712.246094 C 656.230469 697.191406 654.613281 678.378906 652.167969 656.339844 C 649.699219 634.15625 648.304688 619.972656 648.015625 614.175781 C 647.960938 613.21875 647.929688 612.296875 647.90625 611.398438 C 640.058594 615.007812 628.300781 620.628906 612.757812 628.214844 C 596.210938 636.238281 583.347656 641.765625 573.738281 645.003906 C 576.78125 654.253906 579.878906 668.652344 583.128906 688.625 C 587.664062 716.34375 590.667969 744.679688 592.058594 772.835938 C 595.082031 834.050781 589.800781 874.328125 575.917969 895.964844 C 570.109375 904.9375 560.019531 909.832031 545.910156 910.519531 C 545.1875 910.5625 544.488281 910.574219 543.804688 910.574219 L 543.800781 910.574219 C 529.019531 910.574219 524.847656 902.125 523.671875 897.089844 C 518.824219 877.644531 515.449219 849.355469 513.65625 813.105469 C 510.589844 750.960938 512.460938 702.898438 519.214844 669.886719 C 497.332031 678.558594 476.472656 684.734375 457.027344 688.296875 Z M 457.027344 688.296875 " fill-opacity="1" fill-rule="nonzero"/><path fill="#000000" d="M 682.875 906.214844 L 681.898438 897.511719 C 680.644531 886.359375 679.523438 875.101562 678.554688 864.03125 C 674.261719 815.03125 673.035156 758.0625 674.90625 694.691406 C 677.371094 613.546875 678.5 566.382812 678.269531 554.503906 L 678.175781 549.65625 L 682.761719 548.078125 C 700.285156 542.03125 718.253906 538.175781 736.167969 536.609375 C 763.980469 534.175781 788.679688 537.328125 809.574219 545.988281 C 832.605469 555.511719 848.378906 570.757812 856.460938 591.285156 C 858.816406 597.328125 860.339844 604.144531 860.980469 611.554688 C 863.132812 636.089844 856.441406 662.953125 841.09375 691.40625 C 823.976562 723.316406 797.726562 752.84375 763.054688 779.191406 C 767.722656 811.972656 775.09375 838.476562 784.960938 858.007812 L 788.292969 864.605469 L 781.382812 867.238281 C 759.96875 875.394531 729.558594 887.410156 691.011719 902.945312 Z M 691.621094 559.167969 C 691.585938 576.480469 690.46875 621.15625 688.222656 695.089844 C 686.363281 757.9375 687.578125 814.386719 691.824219 862.863281 C 692.53125 870.945312 693.320312 879.128906 694.183594 887.296875 C 725.214844 874.820312 750.609375 864.773438 769.902344 857.359375 C 760.578125 836.523438 753.664062 809.574219 749.3125 777.097656 L 748.792969 773.210938 L 751.941406 770.867188 C 786.601562 745.097656 812.652344 716.238281 829.363281 685.09375 C 843.460938 658.960938 849.632812 634.605469 847.710938 612.707031 C 847.179688 606.5625 845.949219 600.984375 844.0625 596.136719 C 837.265625 578.886719 824.324219 566.5 804.484375 558.296875 C 785.578125 550.464844 762.984375 547.632812 737.335938 549.878906 C 722.03125 551.214844 706.679688 554.335938 691.621094 559.167969 Z M 744.980469 730.632812 L 744.429688 716.691406 C 743.757812 699.5625 743.496094 677.492188 743.65625 651.089844 C 743.714844 628.574219 743.542969 614.78125 743.132812 610.109375 L 742.546875 603.472656 L 749.183594 602.890625 C 755.855469 602.308594 761.332031 602.011719 765.46875 602.011719 C 769.09375 602.011719 771.84375 602.234375 773.886719 602.699219 C 783.566406 604.734375 795.585938 611.347656 797.3125 631.140625 C 798.308594 642.449219 795.105469 656.582031 787.523438 674.328125 C 779.378906 694.082031 768.585938 709.960938 755.464844 721.445312 Z M 756.734375 615.671875 C 756.949219 622.933594 757.027344 634.671875 756.988281 651.152344 C 756.871094 669.832031 756.972656 686.296875 757.269531 700.351562 C 764.226562 691.734375 770.246094 681.300781 775.246094 669.171875 C 781.886719 653.625 784.839844 641.25 784.054688 632.304688 C 782.964844 619.792969 776.53125 616.863281 771.058594 615.714844 C 770.488281 615.585938 768.996094 615.335938 765.480469 615.335938 C 763.085938 615.335938 760.160156 615.445312 756.734375 615.671875 Z M 756.734375 615.671875 " fill-opacity="1" fill-rule="nonzero"/><path fill="#000000" d="M 900.179688 980.070312 L 896.105469 978.34375 C 887.667969 974.789062 876.617188 966.15625 862.324219 951.964844 C 848.609375 938.449219 839.773438 927.769531 835.320312 919.332031 L 832.992188 914.910156 L 836.585938 911.433594 C 840.6875 907.46875 845.628906 897.269531 845.910156 871.160156 C 846.25 847.671875 846.523438 823.804688 846.726562 800.183594 L 846.757812 799.59375 C 849.125 775.355469 851.417969 751.191406 853.664062 727.097656 C 856.402344 697.625 857.335938 673.683594 856.457031 655.921875 L 856.203125 650.832031 L 861.050781 649.257812 C 883.773438 641.875 906.292969 634.46875 928 627.25 C 961.347656 617.242188 990.140625 611.394531 1013.761719 609.816406 L 1022.355469 609.242188 L 1020.757812 617.695312 C 1018.25 630.945312 1019.367188 645.375 1024.078125 660.589844 L 1026.617188 668.792969 L 1018.035156 669.210938 C 999.773438 670.113281 984.183594 672.347656 971.71875 675.859375 C 964.65625 677.816406 952.667969 682.171875 936.023438 688.832031 C 935.332031 697.675781 934.304688 712.433594 932.90625 733.566406 C 953.722656 723.636719 975.109375 715.4375 996.664062 709.148438 L 1005.988281 706.425781 L 1005.167969 716.101562 C 1003.835938 731.886719 1004.746094 750.203125 1007.878906 770.535156 L 1008.84375 776.8125 L 1002.613281 778.082031 C 969.820312 784.738281 945.035156 793.742188 928.871094 804.875 C 927.933594 829.609375 927.660156 850.171875 928.03125 866.226562 C 957.121094 851.417969 988.101562 840.707031 1020.28125 834.351562 L 1027.640625 832.894531 L 1028.210938 840.375 C 1029.734375 860.363281 1030.964844 874.101562 1031.863281 881.210938 C 1034.621094 904.363281 1038.300781 914.171875 1040.894531 918.328125 L 1046.902344 927.953125 L 1035.574219 928.511719 C 1018.226562 929.355469 995.160156 934.632812 967.011719 944.179688 C 936.292969 954.699219 914.867188 965.730469 903.347656 976.96875 Z M 849.34375 916.894531 C 853.714844 923.582031 861.203125 932.175781 871.691406 942.5 C 884.246094 954.960938 892.417969 961.152344 897.597656 964.191406 C 911.074219 952.644531 932.453125 941.945312 962.703125 931.585938 C 987.230469 923.273438 1008.226562 918.058594 1025.304688 916.039062 C 1022.527344 908.003906 1020.316406 897.015625 1018.632812 882.84375 C 1017.835938 876.503906 1016.785156 865.121094 1015.515625 848.972656 C 983.796875 855.960938 953.375 867.363281 924.953125 882.933594 L 915.625 888.042969 L 915.101562 877.425781 C 914.203125 859.257812 914.394531 833.574219 915.679688 801.125 L 915.808594 797.945312 L 918.351562 796.042969 C 934.984375 783.632812 960.34375 773.652344 993.792969 766.34375 C 991.761719 751.355469 990.9375 737.417969 991.320312 724.71875 C 970.03125 731.5 948.941406 740.183594 928.515625 750.609375 L 918.078125 755.933594 L 918.839844 744.242188 C 920.90625 712.722656 922.277344 692.898438 923.0625 683.648438 L 923.410156 679.5625 L 927.203125 678.035156 C 946.570312 670.214844 959.953125 665.316406 968.121094 663.046875 C 979.566406 659.832031 993.332031 657.605469 1009.105469 656.441406 C 1006.425781 645.179688 1005.539062 634.265625 1006.457031 623.832031 C 985.417969 626.027344 960.425781 631.441406 931.996094 639.96875 C 911.964844 646.636719 891.0625 653.511719 869.941406 660.386719 C 870.464844 678.132812 869.445312 700.957031 866.90625 728.347656 C 864.675781 752.363281 862.378906 776.453125 860.027344 800.609375 C 859.828125 824.15625 859.550781 847.953125 859.214844 871.351562 C 859 892.726562 855.761719 907.722656 849.34375 916.894531 Z M 849.34375 916.894531 " fill-opacity="1" fill-rule="nonzero"/><path fill="#000000" d="M 1054.953125 915.621094 L 1052.710938 903.65625 C 1050.613281 892.457031 1048.660156 881.308594 1046.910156 870.539062 C 1039.023438 822.023438 1033.601562 765.328125 1030.804688 702.035156 C 1027.273438 620.925781 1024.929688 573.828125 1023.832031 562.0625 L 1023.378906 557.234375 L 1027.828125 555.320312 C 1057.769531 542.453125 1086.589844 533.703125 1113.492188 529.335938 C 1125.46875 527.390625 1136.539062 526.402344 1146.398438 526.402344 C 1183.914062 526.402344 1206.773438 540.429688 1214.332031 568.097656 C 1215.71875 573.089844 1216.855469 578.261719 1217.691406 583.457031 C 1225.597656 632.027344 1211.726562 680.789062 1176.476562 728.46875 C 1192.148438 742.40625 1219.425781 754.011719 1257.699219 763.003906 L 1269.242188 765.714844 L 1260.921875 774.167969 C 1248.519531 786.75 1232.632812 810 1213.691406 843.273438 L 1210.796875 848.359375 L 1205.382812 846.148438 C 1180.402344 835.953125 1152.792969 814.578125 1123.257812 782.601562 L 1118.960938 785.484375 C 1118.609375 794.074219 1119.105469 802.601562 1120.425781 810.886719 C 1120.730469 811.796875 1120.988281 812.75 1121.242188 813.707031 C 1121.808594 815.851562 1122.644531 819.058594 1123.734375 823.347656 C 1125.925781 831.882812 1129.164062 844.683594 1133.453125 861.753906 L 1134.847656 867.273438 L 1129.621094 869.507812 C 1112.628906 876.765625 1100.640625 882.289062 1093.980469 885.921875 C 1082.730469 891.851562 1072.609375 899.027344 1063.8125 907.296875 Z M 1037.492188 565.703125 C 1038.722656 582.914062 1040.90625 627.53125 1044.117188 701.449219 C 1046.890625 764.222656 1052.261719 820.394531 1060.0625 868.410156 C 1061.199219 875.410156 1062.425781 882.5625 1063.714844 889.792969 C 1071.078125 883.9375 1079.109375 878.707031 1087.691406 874.183594 C 1094.019531 870.734375 1104.363281 865.910156 1119.164062 859.507812 C 1110.339844 824.496094 1108 815.570312 1107.636719 814.402344 L 1113.914062 812.332031 L 1107.34375 813.398438 C 1107.335938 813.316406 1107.320312 813.230469 1107.308594 813.148438 L 1106.851562 810.351562 L 1106.882812 810.3125 C 1105.558594 800.84375 1105.210938 791.128906 1105.84375 781.378906 L 1106.054688 778.113281 L 1125.390625 765.121094 L 1129.257812 769.410156 C 1156.761719 799.886719 1182.246094 820.730469 1205.105469 831.480469 C 1219.992188 805.71875 1232.742188 786.527344 1243.804688 773.292969 C 1204.785156 763.101562 1178.222656 750.117188 1162.777344 733.734375 L 1158.882812 729.597656 L 1162.351562 725.101562 C 1197.902344 678.945312 1212.101562 632.011719 1204.546875 585.605469 C 1203.785156 580.890625 1202.757812 576.199219 1201.492188 571.648438 C 1195.621094 550.167969 1177.605469 539.738281 1146.398438 539.738281 C 1137.253906 539.738281 1126.902344 540.667969 1115.628906 542.496094 C 1091.109375 546.472656 1064.84375 554.28125 1037.492188 565.703125 Z M 1100.71875 751.675781 L 1100.59375 725.265625 C 1100.535156 712.039062 1101.210938 688.574219 1102.632812 655.535156 C 1103.78125 627.324219 1103.257812 616.714844 1102.617188 612.78125 L 1101.550781 606.214844 L 1108.121094 605.140625 C 1108.070312 605.140625 1109.394531 604.773438 1114.332031 602.5 C 1119.113281 600.304688 1122.929688 598.984375 1125.996094 598.492188 C 1127.167969 598.304688 1128.328125 598.207031 1129.449219 598.207031 C 1135.46875 598.207031 1146.0625 601.117188 1149.234375 620.617188 C 1150.789062 630.1875 1147.832031 645.472656 1140.195312 667.339844 C 1133.175781 687.304688 1124.074219 707.839844 1113.136719 728.378906 Z M 1116.335938 616.1875 C 1116.839844 624.242188 1116.707031 637.40625 1115.945312 656.089844 C 1115.292969 671.34375 1114.792969 684.535156 1114.449219 695.582031 C 1119.445312 684.578125 1123.839844 673.65625 1127.621094 662.921875 C 1136.074219 638.714844 1136.886719 627.707031 1136.078125 622.746094 C 1134.867188 615.296875 1132.632812 611.527344 1129.445312 611.527344 C 1129.035156 611.527344 1128.59375 611.566406 1128.121094 611.644531 C 1127.082031 611.808594 1124.644531 612.417969 1119.894531 614.601562 C 1118.515625 615.230469 1117.34375 615.753906 1116.335938 616.1875 Z M 1116.335938 616.1875 " fill-opacity="1" fill-rule="nonzero"/></svg>