<svg xmlns="http://www.w3.org/2000/svg" xmlns:xlink="http://www.w3.org/1999/xlink" width="2000" zoomAndPan="magnify" viewBox="0 0 1500 1499.999933" height="2000" preserveAspectRatio="xMidYMid meet" version="1.0"><defs><clipPath id="537372a81a"><path d="M 123 181.484375 L 1389 181.484375 L 1389 1264 L 123 1264 Z M 123 181.484375 " clip-rule="nonzero"/></clipPath><clipPath id="d27562eee0"><path d="M 284 501 L 1411.1875 501 L 1411.1875 907 L 284 907 Z M 284 501 " clip-rule="nonzero"/></clipPath><clipPath id="73bce527af"><path d="M 228 1054.359375 L 511 1054.359375 L 511 1318.074219 L 228 1318.074219 Z M 228 1054.359375 " clip-rule="nonzero"/></clipPath><clipPath id="0e82a1421e"><path d="M 88.9375 396 L 331 396 L 331 552 L 88.9375 552 Z M 88.9375 396 " clip-rule="nonzero"/></clipPath></defs><g clip-path="url(#537372a81a)"><path fill="#534e3b" d="M 714.859375 440.503906 L 784.261719 181.777344 L 885.695312 411.539062 L 1010.574219 259.695312 L 1028.054688 440.503906 L 1263.828125 255.203125 L 1161.425781 512.917969 L 1372.722656 428.523438 L 1247.84375 699.214844 L 1388.707031 931.492188 L 1117.96875 878.550781 L 1151.4375 1139.269531 L 890.191406 957.964844 L 663.910156 1263.632812 L 630.910156 976.445312 L 251.777344 1148.257812 L 444.589844 839.5625 L 123.402344 702.742188 L 454.582031 584.871094 L 399.636719 312.140625 L 714.859375 440.503906 " fill-opacity="1" fill-rule="evenodd"/></g><path fill="#66cbce" d="M 731.3125 462.988281 L 789.257812 245.210938 L 878.671875 447 L 991.09375 310.648438 L 1007.078125 476.957031 L 1206.382812 320.632812 L 1116.96875 544.882812 L 1337.257812 460.484375 L 1218.871094 689.257812 L 1359.234375 907.519531 L 1094.992188 854.578125 L 1119.46875 1074.839844 L 895.65625 917.007812 L 697.847656 1152.753906 L 674.867188 917.007812 L 334.699219 1075.335938 L 479.558594 816.117188 L 191.34375 693.253906 L 482.554688 589.835938 L 433.101562 341.609375 L 731.3125 462.988281 " fill-opacity="1" fill-rule="evenodd"/><path fill="#32a9b4" d="M 1012.570312 658.789062 C 1011.574219 660.789062 1011.074219 662.285156 1010.574219 663.753906 C 1001.582031 688.726562 999.585938 718.226562 999.585938 745.195312 C 999.585938 764.175781 1000.582031 792.613281 1007.078125 811.625 C 1007.578125 809.625 1008.074219 808.128906 1008.574219 806.628906 C 1017.566406 781.128906 1019.566406 751.6875 1019.566406 724.71875 C 1019.566406 705.738281 1019.066406 677.769531 1012.570312 658.789062 Z M 806.769531 658.789062 C 805.773438 660.789062 805.273438 662.285156 804.742188 663.753906 C 795.75 688.726562 793.78125 718.226562 793.78125 745.195312 C 793.78125 764.175781 794.28125 792.144531 800.746094 811.625 C 801.777344 809.625 802.273438 808.128906 802.773438 806.628906 C 811.238281 781.128906 813.765625 751.6875 813.765625 724.71875 C 813.765625 705.738281 812.765625 677.769531 806.769531 658.789062 Z M 1257.835938 613.808594 L 1218.871094 689.257812 L 1352.242188 896.03125 L 1349.246094 904.523438 L 1300.292969 893.035156 L 1300.292969 894.535156 L 1290.304688 893.535156 L 1208.382812 877.054688 L 1209.382812 867.0625 L 1189.898438 865.066406 L 1190.398438 873.558594 L 1094.992188 854.578125 L 1098.488281 887.042969 C 1079.507812 921.503906 1050.035156 952.96875 1007.078125 952.96875 C 968.113281 952.96875 939.144531 930.996094 918.664062 899.527344 C 912.140625 889.511719 906.675781 878.550781 902.679688 866.5625 C 899.652344 873.058594 896.65625 879.550781 893.1875 886.042969 C 873.675781 921.003906 844.234375 952.96875 801.277344 952.96875 C 762.285156 952.96875 732.84375 930.996094 712.332031 899.527344 C 704.371094 886.542969 697.847656 872.058594 693.351562 856.574219 C 691.882812 858.074219 690.355469 859.570312 688.355469 861.070312 C 669.875 877.550781 647.894531 888.039062 622.917969 888.039062 C 617.425781 888.039062 612.429688 887.511719 607.433594 887.042969 C 599.441406 886.042969 591.949219 885.542969 584.457031 884.542969 L 584.957031 887.511719 L 488.050781 878.023438 L 486.550781 866.066406 L 480.558594 900 L 435.601562 895.53125 L 479.558594 816.117188 L 408.625 785.652344 L 438.597656 642.777344 L 430.605469 661.785156 C 417.117188 693.722656 401.632812 724.71875 385.148438 754.6875 C 390.644531 764.644531 396.136719 774.136719 402.632812 783.15625 L 257.28125 721.222656 C 257.28125 704.210938 257.777344 686.757812 258.28125 669.75 L 402.132812 618.332031 L 440.097656 636.285156 L 445.589844 608.84375 L 541.027344 618.804688 L 552.515625 690.253906 C 551.988281 676.769531 551.519531 663.285156 550.988281 649.269531 L 549.988281 628.824219 L 569.472656 621.800781 C 589.980469 613.808594 612.429688 608.84375 634.90625 608.84375 C 657.886719 608.84375 678.863281 616.304688 695.847656 631.820312 C 698.347656 633.816406 700.375 636.285156 702.84375 638.28125 C 705.839844 630.292969 709.335938 622.328125 713.859375 614.808594 C 733.3125 579.347656 762.8125 547.882812 806.242188 547.882812 C 845.703125 547.882812 874.675781 569.855469 895.183594 601.824219 C 901.679688 611.839844 906.675781 622.800781 910.671875 633.816406 C 913.167969 627.292969 916.164062 620.800781 919.632812 614.808594 C 939.144531 579.347656 969.113281 547.882812 1012.570312 547.882812 C 1051.535156 547.882812 1081.003906 569.855469 1100.984375 601.824219 C 1104.484375 606.847656 1106.980469 611.839844 1109.476562 616.804688 L 1198.390625 625.296875 L 1201.390625 607.84375 L 1257.835938 613.808594 " fill-opacity="1" fill-rule="evenodd"/><g clip-path="url(#d27562eee0)"><path fill="#534e3b" d="M 1040.542969 612.3125 C 1039.546875 614.308594 1039.046875 615.808594 1038.546875 617.304688 C 1029.554688 642.777344 1027.558594 672.273438 1027.558594 698.71875 C 1027.558594 717.695312 1028.054688 746.195312 1034.550781 765.175781 C 1035.550781 763.175781 1036.046875 761.679688 1036.546875 760.179688 C 1045.039062 734.707031 1047.539062 705.210938 1047.539062 678.769531 C 1047.539062 659.261719 1046.539062 631.289062 1040.542969 612.3125 Z M 834.214844 612.3125 C 833.746094 614.308594 832.746094 615.808594 832.746094 617.304688 C 823.726562 642.777344 821.726562 672.273438 821.726562 698.71875 C 821.726562 717.695312 822.253906 746.195312 828.71875 765.175781 C 829.71875 763.175781 830.246094 761.679688 830.746094 760.179688 C 839.238281 734.707031 841.207031 705.210938 841.207031 678.769531 C 841.207031 659.261719 840.738281 631.289062 834.214844 612.3125 Z M 435.601562 744.195312 L 466.570312 596.359375 L 458.578125 615.308594 C 445.089844 647.300781 429.605469 678.238281 413.121094 708.734375 C 419.617188 720.691406 427.109375 732.710938 435.601562 744.195312 Z M 421.113281 844.589844 L 409.125 860.570312 L 386.648438 834.097656 C 384.148438 831.601562 382.160156 829.074219 379.65625 826.078125 L 380.65625 844.089844 L 287.742188 832.101562 L 286.746094 808.128906 C 285.25 772.167969 284.75 735.707031 284.75 699.746094 C 284.75 664.753906 285.746094 630.292969 287.742188 595.359375 L 289.246094 565.863281 L 374.171875 575.351562 L 384.148438 550.378906 L 467.570312 589.835938 L 473.5625 562.863281 L 568.472656 572.382812 L 580.488281 643.777344 C 579.960938 630.292969 579.492188 616.804688 578.492188 602.820312 L 577.492188 582.34375 L 596.945312 575.351562 C 617.953125 567.359375 640.402344 562.363281 662.378906 562.363281 C 685.359375 562.363281 706.339844 569.855469 723.820312 585.339844 C 726.347656 587.339844 728.347656 589.835938 730.34375 592.332031 C 733.839844 583.871094 737.308594 575.851562 741.832031 568.386719 C 761.285156 532.925781 790.785156 501.929688 834.214844 501.929688 C 873.207031 501.929688 902.675781 523.4375 923.15625 555.371094 C 929.152344 565.363281 934.117188 576.351562 938.144531 587.339844 C 941.140625 580.875 944.136719 574.851562 947.605469 568.386719 C 967.117188 532.925781 996.558594 501.929688 1040.042969 501.929688 C 1079.507812 501.929688 1108.480469 523.4375 1128.957031 555.371094 C 1131.957031 560.367188 1134.953125 565.363281 1137.449219 570.386719 L 1226.363281 578.847656 L 1229.363281 561.367188 L 1307.785156 569.386719 L 1307.785156 568.859375 L 1311.28125 537.890625 L 1411.1875 560.367188 L 1405.191406 587.835938 C 1393.203125 642.277344 1389.207031 700.214844 1386.710938 756.15625 L 1386.210938 761.148438 C 1391.203125 771.667969 1391.703125 784.152344 1391.703125 795.640625 C 1391.703125 809.125 1390.207031 822.113281 1385.710938 834.597656 L 1377.21875 858.074219 L 1328.265625 846.585938 L 1327.765625 848.085938 L 1235.355469 838.09375 L 1236.855469 821.113281 L 1217.871094 819.117188 L 1219.371094 846.085938 L 1128.957031 836.066406 C 1127.960938 837.097656 1127.460938 838.566406 1126.960938 839.5625 C 1107.480469 874.554688 1078.007812 906.519531 1035.050781 906.519531 C 996.085938 906.519531 966.617188 884.546875 946.136719 853.050781 C 939.640625 843.089844 934.648438 832.101562 930.652344 820.113281 C 927.652344 826.609375 924.628906 833.101562 921.160156 839.5625 C 901.679688 874.554688 872.207031 906.519531 828.71875 906.519531 C 790.285156 906.519531 760.816406 884.546875 740.304688 853.050781 C 731.84375 840.09375 725.820312 825.609375 721.351562 810.125 C 719.824219 811.625 717.855469 813.59375 716.328125 815.121094 C 697.847656 831.101562 675.867188 841.5625 650.890625 841.5625 C 645.398438 841.5625 640.402344 841.09375 635.40625 840.5625 C 627.445312 839.5625 619.921875 839.09375 611.929688 838.09375 L 612.429688 841.09375 L 516.023438 831.601562 L 514.523438 819.617188 L 508.53125 853.578125 L 421.113281 844.589844 " fill-opacity="1" fill-rule="evenodd"/></g><path fill="#f47614" d="M 360.179688 669.75 C 376.167969 638.28125 391.644531 605.847656 404.128906 573.382812 L 405.128906 570.386719 L 444.09375 588.335938 L 443.09375 591.332031 C 428.109375 626.296875 410.625 660.789062 392.140625 694.25 C 405.628906 719.222656 422.113281 746.664062 442.09375 766.644531 L 443.59375 768.640625 L 415.621094 806.628906 L 413.121094 803.632812 C 391.644531 778.660156 374.171875 748.664062 360.179688 719.222656 C 360.179688 745.195312 360.671875 771.167969 361.683594 797.140625 L 362.175781 801.105469 L 319.722656 795.640625 L 319.722656 792.613281 C 318.21875 757.152344 317.722656 721.222656 317.722656 685.230469 C 317.722656 650.796875 318.21875 616.804688 320.214844 582.34375 L 320.71875 579.347656 L 362.671875 583.871094 L 362.671875 586.867188 C 360.671875 614.308594 360.179688 642.277344 360.179688 669.75 Z M 1234.863281 685.230469 C 1243.855469 649.269531 1250.847656 613.339844 1256.839844 576.847656 L 1257.339844 573.851562 L 1313.285156 579.847656 L 1313.285156 582.871094 C 1314.285156 629.820312 1315.285156 676.769531 1315.285156 723.691406 C 1315.285156 750.160156 1314.785156 776.660156 1312.785156 802.632812 L 1312.785156 806.101562 L 1270.328125 801.105469 L 1270.328125 798.136719 C 1272.324219 778.128906 1272.824219 757.683594 1273.824219 737.203125 C 1274.824219 709.734375 1275.324219 681.765625 1275.824219 654.265625 C 1274.324219 660.789062 1273.324219 667.28125 1271.828125 674.242188 C 1264.832031 709.207031 1257.339844 744.667969 1248.347656 779.128906 L 1247.851562 781.65625 L 1218.878906 778.660156 L 1218.378906 776.660156 C 1212.882812 750.691406 1208.386719 724.71875 1203.394531 698.71875 C 1200.894531 683.761719 1198.398438 668.28125 1195.402344 653.265625 C 1196.898438 702.214844 1198.398438 751.160156 1200.394531 800.105469 L 1200.394531 803.632812 L 1159.433594 799.109375 L 1159.433594 796.640625 C 1158.4375 755.683594 1157.4375 714.699219 1157.4375 674.242188 C 1157.4375 644.777344 1158.9375 615.308594 1161.933594 585.867188 L 1161.933594 582.871094 L 1216.878906 587.835938 L 1217.378906 590.335938 C 1224.871094 621.332031 1229.867188 653.265625 1234.863281 685.230469 Z M 1340.261719 737.203125 C 1337.261719 707.207031 1334.765625 676.769531 1334.765625 646.304688 C 1334.765625 616.304688 1337.261719 586.867188 1340.261719 557.371094 L 1340.761719 553.875 L 1389.210938 564.863281 L 1388.214844 567.859375 C 1376.226562 623.328125 1372.230469 684.234375 1369.230469 740.671875 L 1369.230469 744.195312 L 1340.261719 740.203125 Z M 1371.230469 756.683594 C 1374.226562 763.175781 1374.726562 774.136719 1374.726562 781.128906 C 1374.726562 791.617188 1373.726562 802.105469 1369.730469 811.625 L 1368.734375 814.121094 L 1329.269531 805.101562 L 1329.769531 802.105469 C 1331.769531 793.644531 1332.765625 785.152344 1332.765625 776.660156 C 1332.765625 769.171875 1332.269531 761.679688 1332.269531 754.15625 L 1331.769531 750.160156 L 1370.730469 754.6875 Z M 540.035156 751.160156 L 506.039062 753.15625 L 495.546875 812.125 L 452.589844 807.628906 L 501.042969 575.351562 L 554.992188 580.875 L 590.457031 798.609375 L 546 794.144531 Z M 525.019531 640.28125 L 512.53125 713.230469 L 534.511719 712.230469 Z M 703.375 685.230469 C 721.828125 695.71875 730.820312 712.230469 730.820312 734.179688 C 730.820312 753.6875 721.828125 769.171875 707.34375 781.65625 C 693.886719 794.144531 677.402344 802.105469 658.390625 802.105469 C 654.425781 802.105469 649.398438 801.632812 645.402344 801.105469 C 634.414062 800.105469 623.925781 799.109375 612.964844 798.136719 L 609.9375 797.640625 L 610.4375 794.613281 C 612.433594 757.152344 613.964844 719.695312 613.964844 681.765625 C 613.964844 650.269531 612.964844 618.804688 611.4375 587.339844 L 610.9375 584.871094 L 613.433594 584.339844 C 631.417969 577.847656 650.898438 572.855469 670.378906 572.855469 C 686.863281 572.855469 702.378906 577.847656 714.867188 589.335938 C 726.824219 600.324219 733.316406 614.308594 733.316406 630.292969 C 733.316406 654.265625 722.359375 672.273438 703.375 685.230469 Z M 654.425781 618.804688 C 654.894531 635.285156 655.421875 652.265625 655.421875 669.277344 C 663.386719 667.28125 671.378906 662.285156 677.402344 657.261719 C 684.367188 651.796875 691.359375 644.304688 691.359375 634.816406 C 691.359375 629.292969 688.890625 624.796875 684.367188 621.332031 C 680.398438 617.804688 675.402344 615.808594 669.878906 615.808594 C 664.386719 615.808594 659.390625 616.804688 654.425781 618.804688 Z M 654.894531 708.734375 C 654.894531 724.71875 654.425781 741.199219 653.894531 757.683594 C 657.390625 758.152344 660.886719 758.152344 664.386719 758.152344 C 670.378906 758.152344 676.402344 754.15625 680.867188 750.691406 C 685.894531 746.195312 689.359375 740.671875 689.359375 733.707031 C 689.359375 726.714844 684.863281 721.691406 679.398438 717.695312 C 672.378906 712.230469 663.386719 709.734375 654.894531 708.734375 Z M 1048.542969 561.367188 C 1035.054688 561.367188 1026.0625 584.871094 1022.566406 594.828125 C 1013.078125 622.800781 1010.078125 654.792969 1010.078125 684.234375 C 1010.078125 708.207031 1011.578125 741.199219 1020.570312 763.648438 C 1024.566406 773.164062 1032.058594 787.152344 1043.546875 787.152344 C 1056.035156 787.152344 1064.527344 763.175781 1068.023438 754.15625 C 1077.515625 725.71875 1080.011719 693.722656 1080.011719 664.285156 C 1080.011719 640.28125 1079.011719 607.316406 1070.023438 584.871094 C 1066.523438 576.351562 1059.53125 561.367188 1048.542969 561.367188 Z M 842.242188 561.367188 C 829.253906 561.367188 820.261719 584.871094 816.765625 594.828125 C 806.777344 622.800781 804.277344 654.792969 804.277344 684.234375 C 804.277344 708.207031 805.777344 741.199219 814.769531 763.648438 C 818.765625 773.164062 825.757812 787.152344 837.746094 787.152344 C 849.707031 787.152344 858.726562 763.175781 861.722656 754.15625 C 871.214844 725.71875 874.210938 693.722656 874.210938 664.285156 C 874.210938 640.28125 872.683594 607.316406 863.722656 584.871094 C 860.195312 576.351562 853.230469 561.367188 842.242188 561.367188 Z M 1042.546875 867.535156 C 1012.578125 867.535156 990.597656 849.582031 975.113281 825.078125 C 952.636719 791.144531 948.140625 741.199219 948.140625 701.214844 C 948.140625 655.792969 955.132812 606.847656 977.113281 565.863281 C 992.097656 538.890625 1014.574219 512.417969 1048.042969 512.417969 C 1078.015625 512.417969 1099.992188 529.902344 1115.476562 554.375 C 1137.457031 588.835938 1141.953125 638.28125 1141.953125 678.238281 C 1141.953125 723.691406 1134.957031 772.167969 1112.980469 813.121094 C 1097.996094 839.5625 1076.015625 867.535156 1042.546875 867.535156 Z M 836.746094 867.535156 C 806.777344 867.535156 784.796875 849.582031 768.8125 825.078125 C 746.804688 791.144531 742.308594 741.199219 742.308594 701.214844 C 742.308594 655.792969 748.804688 606.847656 771.3125 565.863281 C 786.265625 538.890625 808.773438 512.417969 841.742188 512.417969 C 872.214844 512.417969 894.191406 529.902344 909.675781 554.375 C 931.65625 588.835938 936.121094 638.28125 936.121094 678.238281 C 936.121094 723.691406 929.15625 772.167969 906.679688 813.121094 C 892.195312 839.5625 869.6875 867.535156 836.746094 867.535156 " fill-opacity="1" fill-rule="evenodd"/><g clip-path="url(#73bce527af)"><path fill="#534e3b" d="M 417.117188 1137.769531 L 510.527344 1054.859375 L 387.648438 1318.074219 L 228.804688 1251.644531 L 419.117188 1121.785156 L 417.117188 1137.769531 " fill-opacity="1" fill-rule="evenodd"/></g><path fill="#534e3b" d="M 853.695312 1030.886719 L 968.113281 1290.105469 L 835.214844 1295.597656 Z M 853.695312 1030.886719 " fill-opacity="1" fill-rule="evenodd"/><g clip-path="url(#0e82a1421e)"><path fill="#534e3b" d="M 330.703125 503.929688 L 88.9375 551.378906 L 114.40625 396.058594 Z M 330.703125 503.929688 " fill-opacity="1" fill-rule="evenodd"/></g><path fill="#534e3b" d="M 459.578125 227.730469 L 575.464844 208.253906 L 598.441406 349.105469 Z M 459.578125 227.730469 " fill-opacity="1" fill-rule="evenodd"/><path fill="#66cbce" d="M 400.632812 1148.757812 L 283.75 1228.671875 L 385.648438 1271.125 L 454.582031 1123.285156 L 397.136719 1174.230469 L 400.632812 1148.757812 " fill-opacity="1" fill-rule="evenodd"/><path fill="#66cbce" d="M 878.203125 1102.308594 L 867.710938 1254.144531 L 944.136719 1250.648438 Z M 878.203125 1102.308594 " fill-opacity="1" fill-rule="evenodd"/><path fill="#66cbce" d="M 281.257812 484.949219 L 136.890625 413.042969 L 119.902344 516.914062 Z M 281.257812 484.949219 " fill-opacity="1" fill-rule="evenodd"/><path fill="#66cbce" d="M 520.519531 227.730469 L 578.492188 278.671875 L 569 219.742188 Z M 520.519531 227.730469 " fill-opacity="1" fill-rule="evenodd"/></svg>