<svg xmlns="http://www.w3.org/2000/svg" xmlns:xlink="http://www.w3.org/1999/xlink" width="2000" zoomAndPan="magnify" viewBox="0 0 1500 1499.999933" height="2000" preserveAspectRatio="xMidYMid meet" version="1.0"><defs><clipPath id="05a766214f"><path d="M 88.9375 917 L 504 917 L 504 1169 L 88.9375 1169 Z M 88.9375 917 " clip-rule="nonzero"/></clipPath><clipPath id="ec29d9b857"><path d="M 213 272 L 1182 272 L 1182 1295.121094 L 213 1295.121094 Z M 213 272 " clip-rule="nonzero"/></clipPath><clipPath id="5c5edca8d9"><path d="M 1281 532 L 1411.1875 532 L 1411.1875 800 L 1281 800 Z M 1281 532 " clip-rule="nonzero"/></clipPath><clipPath id="365036d904"><path d="M 702 204.621094 L 796 204.621094 L 796 582 L 702 582 Z M 702 204.621094 " clip-rule="nonzero"/></clipPath></defs><path fill="#231f20" d="M 1164.078125 968.632812 L 871.15625 861.242188 L 1186.824219 956.003906 Z M 1164.078125 968.632812 " fill-opacity="1" fill-rule="nonzero"/><path fill="#231f20" d="M 1194.078125 941.054688 L 894.09375 855.40625 L 1215.84375 926.792969 Z M 1194.078125 941.054688 " fill-opacity="1" fill-rule="nonzero"/><path fill="#231f20" d="M 128.203125 1182.902344 L 527.664062 912.019531 L 108.011719 1181.152344 Z M 128.203125 1182.902344 " fill-opacity="1" fill-rule="nonzero"/><g clip-path="url(#05a766214f)"><path fill="#231f20" d="M 107.15625 1168.746094 L 503.730469 917.753906 L 88.960938 1164.710938 Z M 107.15625 1168.746094 " fill-opacity="1" fill-rule="nonzero"/></g><path fill="#231f20" d="M 1097.066406 422.949219 C 1101.46875 418.777344 1105.941406 414.617188 1110.40625 410.472656 L 1106.476562 403.402344 C 1043.511719 454.917969 931.804688 540.308594 879.144531 544.070312 C 874.402344 544.386719 870.257812 544.027344 866.792969 542.957031 C 838.332031 534.226562 849.902344 465.09375 867.253906 403.300781 C 879.652344 359.863281 893.648438 323.746094 893.648438 323.746094 C 893.648438 323.746094 893.503906 324.050781 893.230469 324.589844 L 886.542969 323.640625 C 885.503906 325.792969 781.242188 539.726562 710.84375 556.996094 C 708.765625 557.503906 706.636719 557.839844 704.484375 557.984375 C 641.644531 562.480469 567.433594 420.535156 566.714844 419.101562 L 559.710938 422.5625 C 560.121094 424.273438 603.167969 594.324219 549.542969 636.789062 C 537.5 646.304688 517.992188 652.097656 491.519531 653.988281 C 407.226562 660.003906 281.320312 624.019531 280.039062 623.648438 L 276.039062 629.9375 C 283.757812 633.011719 293.277344 637.058594 303.742188 641.863281 C 320.078125 653.15625 439.285156 700.667969 433.882812 757.273438 C 413.230469 800.644531 268.050781 843.953125 144.542969 869.15625 L 147.917969 875.210938 C 163.851562 872.40625 187.226562 868.546875 213.425781 865.03125 C 214.792969 866.023438 388.457031 838.027344 397.941406 889.742188 C 398.21875 891.320312 398.277344 892.960938 398.179688 894.667969 C 384.878906 924.511719 327.546875 973.894531 236.25 1034.132812 L 241.832031 1044.152344 C 314.539062 1007.636719 430.601562 955.367188 458.300781 976.035156 C 463.785156 980.109375 466.160156 986.894531 466.140625 995.613281 C 455.136719 1047.707031 346.753906 1206.839844 338.75 1218.507812 L 338.792969 1218.578125 C 349.476562 1205.578125 521.601562 997.480469 593.316406 997.945312 C 625.160156 998.136719 641.464844 1045.898438 649.816406 1093.757812 C 655.652344 1134.84375 656.082031 1172.351562 656.082031 1173.199219 L 658.59375 1190.085938 L 663.417969 1171.957031 C 663.523438 1171.101562 669.289062 1135.265625 680.714844 1091.691406 C 697.414062 1033.003906 723.695312 966.503906 760.117188 948.488281 C 828.996094 914.417969 984.207031 1029.015625 984.207031 1029.015625 L 981.574219 1012.199219 C 980.609375 1011.140625 903.433594 926.660156 896.550781 868.636719 C 897.09375 859.144531 899.933594 850.546875 905.738281 843.382812 C 956.027344 781.40625 1113.59375 785.597656 1151.460938 781.265625 C 1183.492188 780.378906 1205.554688 780.792969 1205.886719 780.792969 L 1207.996094 774.160156 C 1148.21875 771.441406 1002.453125 756.3125 983.726562 718.769531 C 983.746094 717.851562 983.816406 716.9375 983.964844 716.023438 C 992.101562 662.8125 1143.476562 595.335938 1169.191406 582.378906 C 1179.550781 577.722656 1189.472656 573.355469 1198.738281 569.378906 L 1194.746094 562.191406 C 1136.472656 582.867188 1061.785156 606.195312 1012.902344 609.679688 C 988.378906 611.425781 973.21875 607.898438 967.847656 599.203125 C 967.683594 598.90625 967.535156 598.59375 967.367188 598.285156 C 963.445312 545.617188 1086.820312 434.832031 1097.066406 422.949219 " fill-opacity="1" fill-rule="nonzero"/><path fill="#f22125" d="M 1108.9375 407.828125 L 1107.957031 406.070312 C 1038.441406 462.832031 910.355469 560.132812 864.855469 546.136719 C 810.261719 529.363281 889.84375 324.265625 889.84375 324.265625 C 889.84375 324.265625 784.417969 542.171875 710.90625 560.183594 C 643.765625 576.648438 563.269531 421.078125 563.269531 421.078125 C 563.269531 421.078125 607.898438 594.394531 551.527344 639.03125 C 489.761719 687.914062 278.160156 626.832031 278.160156 626.832031 C 278.160156 626.832031 463.867188 700.703125 437.339844 757.621094 C 411.511719 812.949219 212.046875 858.398438 146.128906 872.042969 L 146.277344 872.285156 C 210.042969 860.960938 396.09375 832.023438 404.582031 878.308594 C 411.585938 916.515625 306.027344 992.539062 237.921875 1037.15625 L 239.261719 1039.578125 C 320.375 994.941406 433.410156 940.183594 463.675781 962.785156 C 507.160156 995.257812 351.824219 1200.457031 351.824219 1200.457031 C 351.824219 1200.457031 523.367188 983.777344 595.84375 984.238281 C 658.335938 984.628906 659.75 1172.339844 659.75 1172.339844 C 659.75 1172.339844 691.71875 969.183594 759.128906 935.828125 C 826.5625 902.472656 978.472656 1014.679688 978.472656 1014.679688 C 978.472656 1014.679688 859.261719 885.238281 901.6875 832.941406 C 950.90625 772.269531 1206.859375 777.484375 1206.859375 777.484375 C 1206.859375 777.484375 969.359375 766.625 978.246094 708.242188 C 984.886719 664.863281 1112.300781 603.214844 1197.222656 566.675781 L 1196.242188 564.898438 C 1111.660156 594.898438 984.3125 633.410156 964.539062 601.324219 C 944.242188 568.433594 1046.609375 465.703125 1108.9375 407.828125 " fill-opacity="1" fill-rule="nonzero"/><g clip-path="url(#ec29d9b857)"><path fill="#231f20" d="M 1046.035156 408.078125 C 1059.984375 390.589844 1073.09375 374.820312 1083.65625 362.359375 L 1080.253906 356.226562 C 1037.007812 403.546875 966.589844 476.296875 913 510.445312 C 890.449219 524.835938 873.457031 530.667969 862.527344 527.753906 C 862.1875 527.648438 861.828125 527.535156 861.441406 527.398438 C 822.832031 494.4375 867.589844 353.3125 870.925781 340.75 C 876.941406 320.074219 883.613281 299.261719 890.5625 279.191406 C 891.984375 275.191406 892.726562 273 892.726562 273 L 885.746094 272.550781 C 885.746094 272.550781 884.964844 274.746094 883.582031 278.746094 C 870.632812 315.171875 802.863281 498.933594 740.324219 538.839844 C 735.964844 541.597656 731.71875 543.601562 727.644531 544.753906 C 694.394531 554.242188 659.863281 501.984375 635.777344 451.488281 C 619.011719 415.898438 608.695312 384.308594 608.695312 384.308594 C 608.695312 384.308594 608.746094 384.585938 608.859375 385.074219 L 601.726562 388.058594 C 602.15625 390.0625 642.839844 588.703125 586.1875 638.132812 C 584.535156 639.585938 582.6875 640.96875 580.714844 642.21875 C 522.933594 679.050781 357.367188 624.53125 355.683594 623.964844 L 351.222656 630.0625 C 352.777344 630.953125 506.828125 720.996094 483.015625 778.195312 C 477.679688 791.019531 462.648438 805.378906 438.328125 820.894531 C 360.835938 870.324219 215.316406 914.214844 213.855469 914.652344 L 214.125 921.007812 C 223.628906 918.882812 235.492188 916.457031 248.792969 914.011719 C 260.550781 911.78125 418.710938 880.15625 450.890625 920.738281 C 456.746094 947.613281 354.320312 1048.617188 281.796875 1116.097656 L 287.597656 1126.503906 C 295.421875 1121 302.792969 1115.765625 309.035156 1111.304688 C 337.769531 1094.785156 460.386719 999 503.726562 1028.335938 C 505.042969 1029.222656 506.1875 1030.308594 507.246094 1031.480469 C 515.433594 1063.765625 481.4375 1148.324219 411.949219 1266.195312 C 401.890625 1282.539062 395.820312 1292.984375 395.734375 1293.089844 L 402.035156 1295.015625 C 402.09375 1294.910156 408.566406 1284.539062 418.242188 1268.128906 C 427.160156 1253.675781 561.292969 1054.910156 619.136719 1053.257812 C 627.121094 1053.050781 633.90625 1056.261719 639.652344 1062.121094 C 664.378906 1104.257812 664.085938 1212.753906 660.917969 1260.742188 L 663.878906 1279.917969 C 663.878906 1279.917969 692.253906 1034.6875 764.117188 995.109375 C 795.03125 978.078125 842.359375 1001.117188 882.097656 1028.484375 C 914.902344 1052.691406 940.117188 1077.457031 940.675781 1078.007812 L 954.257812 1087.910156 L 946.941406 1073.253906 C 946.492188 1072.613281 928.371094 1045.640625 910.613281 1010.445312 C 887.925781 962.367188 869.371094 903.941406 892.648438 872.304688 C 936.734375 812.488281 1162.527344 805.210938 1162.527344 805.210938 L 1148.835938 795.390625 C 1147.257812 795.21875 1016.773438 780.535156 971.742188 745.613281 C 966.015625 738.984375 963.054688 731.742188 963.941406 723.835938 C 971.554688 655.476562 1133.007812 569.277344 1160.386719 550.070312 C 1166.820312 546.292969 1173.949219 542.089844 1181.21875 537.832031 L 1177.511719 531.152344 C 1104.292969 562.269531 986.023438 608.945312 956.925781 598.832031 C 956.34375 598.203125 955.832031 597.566406 955.347656 596.859375 C 928.019531 557.054688 1039.675781 419.628906 1046.035156 408.078125 " fill-opacity="1" fill-rule="nonzero"/></g><path fill="#ffffff" d="M 1082.050781 359.492188 L 1081.8125 359.03125 C 1023.769531 422.429688 906.050781 542.988281 860.726562 530.945312 C 807.550781 516.832031 873.96875 316.828125 887.050781 278.972656 C 873.207031 317.894531 795.515625 528.605469 727.898438 547.914062 C 664.03125 566.144531 605.347656 386.679688 605.347656 386.679688 C 605.347656 386.679688 647.496094 588.609375 588.378906 640.234375 C 534.375 687.347656 353.695312 627.125 353.695312 627.125 C 353.695312 627.125 511.421875 718.5 486.425781 778.597656 C 459.03125 844.445312 214.132812 917.773438 214.132812 917.773438 C 214.132812 917.773438 442.5 866.894531 454.453125 919.113281 C 464.105469 961.148438 354.175781 1062.78125 285.011719 1121.855469 L 286.273438 1124.109375 C 355.988281 1072.785156 470.648438 995.507812 502.589844 1017.140625 C 541.414062 1043.40625 452.984375 1202.90625 415.082031 1267.171875 C 454.988281 1202.507812 558.933594 1043.167969 615.585938 1041.535156 C 679.0625 1039.746094 664.570312 1260.113281 664.570312 1260.113281 C 664.570312 1260.113281 687.160156 1023.363281 757.519531 984.613281 C 818.175781 951.21875 943.664062 1075.449219 943.664062 1075.449219 C 943.664062 1075.449219 840.210938 922.945312 883.347656 864.398438 C 926.453125 805.847656 1147.523438 798.6875 1147.523438 798.6875 C 1147.523438 798.6875 946.664062 776.734375 953.128906 719.042969 C 958.933594 666.976562 1112.121094 574.015625 1179.808594 535.328125 L 1178.859375 533.585938 C 1112.84375 564.8125 967.738281 628.324219 944.703125 594.761719 C 919.777344 558.460938 1025.753906 425.589844 1082.050781 359.492188 " fill-opacity="1" fill-rule="nonzero"/><path fill="#030404" d="M 343.839844 1163.050781 C 343.421875 1160.933594 339.550781 1149.546875 313.226562 1089.929688 C 295.613281 1050.242188 278.542969 1012.90625 262.492188 978.964844 C 255.25 963.648438 252.910156 959.445312 252.164062 958.304688 L 249.480469 954.21875 L 291.914062 900.429688 L 297.273438 906.832031 C 298.449219 908.246094 300.367188 911.074219 304.847656 920.539062 C 313.066406 937.921875 325.363281 968.277344 342.226562 1012.816406 C 342.140625 999.664062 342.195312 985.410156 342.386719 970.125 C 342.457031 955.46875 342.761719 942.292969 343.289062 930.964844 L 325.566406 893.480469 L 366.785156 840.988281 L 372.191406 846.664062 C 373.613281 848.152344 375.679688 850.972656 380.21875 860.589844 C 389.285156 879.765625 401.761719 910.554688 417.421875 952.382812 C 417.1875 923.117188 417.679688 892.855469 418.898438 861.988281 C 419.742188 840.1875 421.039062 824.582031 422.863281 814.277344 L 423.230469 812.191406 L 428.65625 806.726562 C 436.304688 798.960938 445.46875 790.242188 455.871094 780.84375 L 469.398438 768.613281 L 467.148438 786.703125 C 465.386719 800.933594 464.894531 820.761719 465.695312 845.621094 C 466.320312 858.976562 467.121094 879.160156 468.089844 906.085938 L 470.273438 981.574219 C 470.792969 1015.097656 469.878906 1040.609375 467.5625 1057.5 L 467.324219 1059.285156 L 421.546875 1118.96875 L 419.078125 1103.371094 C 418.773438 1101.957031 416.171875 1094.179688 398.933594 1054.566406 C 397.496094 1051.257812 396.074219 1048.007812 394.6875 1044.8125 C 394.902344 1052.75 395.023438 1058.9375 395.035156 1063.335938 C 395.164062 1084.433594 394.214844 1102.644531 392.191406 1117.457031 L 391.953125 1119.234375 L 345.84375 1179.464844 Z M 343.839844 1163.050781 " fill-opacity="1" fill-rule="nonzero"/><path fill="#030404" d="M 506.167969 1044.082031 C 503.484375 1017.09375 501.292969 988.34375 499.644531 958.632812 C 498.421875 935.972656 498.316406 908.011719 499.308594 875.507812 C 500.042969 850.496094 502.441406 815.792969 506.4375 772.371094 L 506.726562 769.273438 L 513.617188 764.363281 C 522.230469 758.191406 532.355469 751.460938 543.695312 744.355469 L 555.199219 737.15625 L 554.054688 750.675781 C 552.046875 774.402344 550.394531 810.058594 549.132812 856.648438 C 549.121094 856.828125 549.113281 857.125 549.109375 857.648438 L 581.855469 833.183594 L 582.191406 833.550781 C 583.160156 803.132812 585.5 767.742188 589.171875 728.050781 L 589.457031 724.933594 L 596.546875 719.9375 C 605.011719 713.859375 615.078125 707.152344 626.417969 700.035156 L 637.941406 692.808594 L 636.78125 706.363281 C 634.175781 736.617188 632.5 772.203125 631.800781 812.125 C 631.535156 826.273438 632.894531 853.164062 635.835938 892.046875 C 636.5625 902.605469 638.199219 923.203125 640.855469 955.070312 L 641.117188 958.320312 L 588.179688 1008.34375 L 587.136719 994.101562 C 585.222656 967.847656 583.675781 940.945312 582.53125 914.144531 C 582.453125 912.664062 582.335938 909.304688 582.179688 904.078125 L 552.140625 925.667969 L 552.9375 936.460938 C 553.796875 948.144531 556.101562 971.027344 559.777344 1004.476562 L 560.144531 1007.820312 L 507.539062 1057.890625 Z M 506.167969 1044.082031 " fill-opacity="1" fill-rule="nonzero"/><path fill="#030404" d="M 725.148438 756.308594 C 723.261719 766.167969 721.050781 778.132812 718.539062 792.160156 L 715.769531 808.085938 L 731.476562 801.144531 L 731.769531 801.285156 C 731.375 790.070312 729.15625 775.023438 725.148438 756.308594 M 648.515625 965.234375 C 648.199219 957.742188 649.960938 938.082031 653.921875 905.128906 L 657.769531 871.441406 C 661.546875 839.519531 669.796875 798.226562 682.304688 748.679688 C 689.117188 721.40625 696.527344 696.304688 704.339844 674.09375 L 705.289062 671.371094 L 707.910156 670.171875 C 714.902344 666.972656 725.175781 662.082031 738.742188 655.503906 L 745.898438 652.042969 L 754.15625 679.359375 C 758.566406 694.242188 762.554688 708.976562 766.035156 723.195312 C 772.8125 750.945312 777.628906 777.863281 780.34375 803.21875 L 780.386719 803.625 L 780.378906 804.023438 C 780.347656 806.882812 781.210938 818.496094 785.566406 857.582031 C 787.113281 870.789062 788.113281 881.859375 788.523438 890.445312 L 788.6875 893.929688 L 732.5 938.101562 L 732.445312 924.222656 C 732.386719 910.996094 732.546875 888.308594 732.941406 855.058594 L 709.613281 866.253906 C 706.394531 883.964844 704.691406 905.828125 704.542969 931.324219 L 704.523438 934.574219 L 649.089844 978.507812 Z M 648.515625 965.234375 " fill-opacity="1" fill-rule="nonzero"/><path fill="#030404" d="M 870.953125 887.203125 C 853.582031 887.203125 838.054688 880.171875 824.808594 866.308594 C 808.835938 849.457031 798.113281 824.828125 792.914062 793.089844 C 791.796875 786.242188 790.90625 778.859375 790.289062 771.152344 C 787.835938 736.464844 794.578125 703.722656 810.324219 673.769531 C 826.78125 642.636719 848.785156 623.085938 875.738281 615.65625 C 886.359375 612.734375 896.546875 611.25 906.019531 611.25 C 932.902344 611.25 955.089844 622.980469 971.976562 646.128906 L 975.390625 650.808594 L 920.410156 705.933594 L 915.9375 698.453125 C 909.640625 687.925781 902.175781 682.804688 893.113281 682.804688 C 890.554688 682.804688 887.789062 683.207031 884.914062 684.007812 C 870.300781 688.027344 859.359375 697.371094 851.453125 712.578125 C 843.90625 727.246094 840.554688 745.300781 841.511719 766.230469 C 841.710938 771.042969 842.074219 775.074219 842.589844 778.230469 C 845.011719 793.03125 850.371094 804.785156 858.503906 813.175781 C 864.570312 819.429688 870.832031 822.472656 877.679688 822.472656 C 879.953125 822.472656 882.347656 822.125 884.789062 821.449219 C 896.21875 818.308594 905.203125 809.851562 912.246094 795.601562 L 915.609375 788.820312 L 961.75 818.335938 L 959.21875 823.722656 C 944.257812 855.566406 921.203125 875.980469 890.691406 884.394531 C 883.90625 886.261719 877.269531 887.203125 870.953125 887.203125 " fill-opacity="1" fill-rule="nonzero"/><path fill="#030404" d="M 957.996094 854.539062 C 961.484375 827.523438 965.800781 799.179688 970.839844 770.300781 C 974.707031 748.273438 980.851562 721.449219 989.097656 690.582031 C 995.421875 666.808594 1005.46875 634.484375 1018.976562 594.523438 L 1020.128906 591.109375 L 1028.480469 588.820312 C 1038.015625 586.171875 1049.230469 583.523438 1061.796875 580.964844 L 1073.261719 578.625 L 1069.59375 589.730469 C 1062.679688 610.679688 1053.621094 642.265625 1042.632812 683.660156 C 1058.773438 668.902344 1074.152344 649.195312 1088.515625 624.828125 C 1096.820312 610.6875 1103.402344 596.671875 1108.074219 583.175781 L 1109.246094 579.78125 L 1117.757812 577.488281 C 1127.273438 574.847656 1138.429688 572.203125 1150.871094 569.65625 L 1161.445312 567.5 L 1158.804688 577.957031 C 1149.195312 616.152344 1130.394531 653.671875 1102.941406 689.488281 C 1091.3125 704.707031 1078.65625 717.316406 1065.203125 727.097656 C 1073.992188 733.5625 1082.222656 742.652344 1089.765625 754.238281 C 1100.34375 770.570312 1106.328125 787.0625 1107.546875 803.269531 C 1107.886719 807.796875 1107.707031 812.699219 1107.027344 817.855469 L 1106.53125 821.585938 L 1045.519531 849.175781 L 1046.601562 837.554688 C 1047.25 830.714844 1047.308594 823.707031 1046.78125 816.722656 C 1045.8125 803.828125 1042.964844 791.671875 1038.335938 780.601562 C 1035.136719 772.792969 1031.578125 766.902344 1027.667969 762.980469 L 1027.03125 767.066406 C 1025.238281 778.574219 1022.414062 800.707031 1018.390625 834.734375 L 1017.933594 838.519531 L 956.433594 866.652344 Z M 957.996094 854.539062 " fill-opacity="1" fill-rule="nonzero"/><path fill="#030404" d="M 1145.558594 744.601562 C 1150.5 725.457031 1157.980469 690.578125 1167.792969 640.9375 C 1170.984375 624.917969 1173.414062 611.804688 1175.015625 601.953125 L 1179.890625 573.539062 L 1184.300781 572.527344 C 1194.867188 570.113281 1209.257812 567.300781 1227.078125 564.15625 L 1234.878906 562.78125 L 1235.039062 570.699219 C 1235.308594 583.929688 1231.570312 609.628906 1223.613281 649.265625 C 1222.472656 655.121094 1219.453125 668.875 1214.628906 690.101562 L 1202.421875 745.601562 L 1142.992188 754.523438 Z M 1127.777344 832.71875 C 1131.199219 812.523438 1134.90625 793.257812 1138.8125 775.457031 L 1139.761719 771.121094 L 1200.292969 759.144531 L 1198.128906 769.21875 C 1196.039062 778.917969 1193.007812 795.546875 1189.101562 818.640625 L 1188.320312 823.265625 L 1182.566406 824.386719 C 1169.464844 828.230469 1154.113281 833.546875 1136.910156 840.175781 L 1125.789062 844.464844 Z M 1127.777344 832.71875 " fill-opacity="1" fill-rule="nonzero"/><path fill="#030404" d="M 1219.859375 742.597656 C 1225.476562 723.867188 1234.234375 689.492188 1245.878906 640.433594 C 1249.671875 624.574219 1252.585938 611.628906 1254.527344 601.941406 L 1260.472656 573.726562 L 1265.050781 572.972656 C 1275.773438 571.199219 1290.253906 569.277344 1308.089844 567.25 L 1315.765625 566.378906 L 1315.640625 574.101562 C 1315.417969 587.355469 1310.734375 612.796875 1301.332031 651.882812 C 1300.035156 657.472656 1296.605469 670.652344 1290.863281 692.125 L 1276.585938 746.941406 L 1216.988281 752.175781 Z M 1198.867188 829.53125 C 1203 809.648438 1207.417969 790.632812 1212 773.007812 L 1213.144531 768.601562 L 1273.949219 760.390625 L 1271.472656 770.117188 C 1268.984375 779.917969 1265.34375 796.339844 1260.648438 818.929688 L 1259.667969 823.640625 L 1253.746094 824.421875 C 1240.484375 827.460938 1224.957031 831.8125 1207.570312 837.367188 L 1196.507812 840.902344 Z M 1198.867188 829.53125 " fill-opacity="1" fill-rule="nonzero"/><path fill="#030404" d="M 1294.261719 745.195312 C 1300.597656 726.789062 1310.617188 693.011719 1324.054688 644.796875 C 1328.378906 629.445312 1331.773438 616.699219 1334.140625 606.898438 L 1341.175781 578.945312 L 1345.90625 578.464844 C 1356.679688 577.378906 1371.210938 576.367188 1389.109375 575.464844 L 1396.628906 575.085938 L 1396.21875 582.605469 C 1395.507812 595.835938 1389.878906 620.957031 1379.03125 659.402344 C 1377.480469 665.035156 1373.5625 677.980469 1367.066406 698.9375 L 1350.726562 752.945312 L 1291.09375 754.414062 Z M 1270.046875 830.710938 C 1274.945312 811.039062 1280.0625 792.316406 1285.265625 775.078125 L 1286.625 770.605469 L 1347.597656 766.25 L 1344.792969 775.648438 C 1342 784.992188 1337.753906 801.15625 1332.144531 823.691406 L 1330.953125 828.476562 L 1324.875 828.898438 C 1311.484375 831.105469 1295.820312 834.480469 1278.292969 838.921875 L 1267.3125 841.703125 Z M 1270.046875 830.710938 " fill-opacity="1" fill-rule="nonzero"/><path fill="#c5292f" d="M 386.710938 1009.695312 C 387.710938 1036.023438 388.21875 1053.910156 388.25 1063.355469 C 388.382812 1084.234375 387.460938 1101.964844 385.472656 1116.542969 L 350.5625 1162.148438 C 350.066406 1158.074219 339.699219 1133.09375 319.429688 1087.191406 C 301.640625 1047.121094 284.703125 1010.074219 268.628906 976.070312 C 262.953125 964.0625 259.351562 956.894531 257.828125 954.578125 L 292.070312 911.179688 C 293.375 912.742188 295.59375 916.824219 298.714844 923.4375 C 308.925781 945.03125 325.949219 988.035156 349.808594 1052.433594 C 348.96875 1030.074219 348.753906 1002.671875 349.167969 970.210938 C 349.238281 954.925781 349.5625 941.390625 350.148438 929.597656 C 339.878906 907.867188 334.328125 896.125 333.496094 894.367188 L 367.28125 851.339844 C 368.691406 852.824219 370.957031 856.863281 374.085938 863.484375 C 385.695312 888.046875 402.664062 931.085938 425.011719 992.601562 C 423.660156 950.96875 423.886719 907.523438 425.675781 862.257812 C 426.5 840.996094 427.785156 825.390625 429.539062 815.457031 L 433.460938 811.503906 C 441.105469 803.75 450.097656 795.207031 460.421875 785.867188 C 458.609375 800.507812 458.105469 820.492188 458.917969 845.839844 C 459.539062 859.273438 460.347656 879.4375 461.316406 906.332031 L 463.488281 981.773438 C 464.003906 1014.976562 463.125 1039.910156 460.84375 1056.582031 L 425.777344 1102.304688 C 425.28125 1099.167969 418.417969 1082.351562 405.152344 1051.863281 C 398.484375 1036.550781 392.339844 1022.492188 386.710938 1009.695312 " fill-opacity="1" fill-rule="nonzero"/><path fill="#c5292f" d="M 630.023438 705.78125 C 627.410156 736.132812 625.730469 771.542969 625.015625 812.007812 C 624.746094 826.53125 626.113281 853.382812 629.074219 892.554688 C 629.796875 903.132812 631.472656 924.15625 634.097656 955.636719 L 593.902344 993.613281 C 591.980469 967.238281 590.449219 940.652344 589.300781 913.851562 C 589.175781 911.355469 588.9375 903.773438 588.609375 891.113281 L 545.09375 922.378906 L 546.171875 936.964844 C 547.042969 948.832031 549.335938 971.585938 553.039062 1005.222656 L 512.914062 1043.414062 C 510.21875 1016.261719 508.050781 987.871094 506.414062 958.261719 C 505.207031 935.785156 505.085938 908.273438 506.085938 875.710938 C 506.820312 850.65625 509.195312 816.414062 513.191406 772.992188 L 517.542969 769.886719 C 526.042969 763.800781 535.957031 757.199219 547.296875 750.101562 C 545.273438 774.007812 543.625 809.460938 542.347656 856.464844 C 542.289062 857.523438 542.324219 862.402344 542.445312 871.082031 L 581.007812 842.285156 L 588.566406 850.53125 C 589.09375 816.515625 591.550781 775.898438 595.925781 728.671875 L 600.457031 725.480469 C 608.945312 719.386719 618.800781 712.820312 630.023438 705.78125 " fill-opacity="1" fill-rule="nonzero"/><path fill="#c5292f" d="M 724.65625 725.417969 C 722.3125 734.691406 718.046875 756.539062 711.855469 790.964844 L 706.910156 819.40625 L 731.34375 808.613281 L 738.304688 811.976562 C 739.746094 796.929688 736.140625 771.679688 727.484375 736.214844 C 726.1875 730.929688 725.242188 727.335938 724.65625 725.417969 M 739.847656 844.222656 L 703.597656 861.621094 C 699.859375 880.433594 697.921875 903.652344 697.757812 931.28125 L 655.292969 964.945312 C 654.992188 957.925781 656.769531 938.257812 660.65625 905.933594 L 664.507812 872.21875 C 668.265625 840.441406 676.394531 799.820312 688.882812 750.339844 C 695.671875 723.140625 702.957031 698.46875 710.730469 676.339844 C 717.761719 673.117188 728.070312 668.207031 741.703125 661.605469 L 747.667969 681.324219 C 752.09375 696.28125 756.011719 710.773438 759.445312 724.808594 C 766.191406 752.425781 770.902344 778.808594 773.601562 803.9375 C 773.542969 808.441406 775.289062 826.578125 778.824219 858.332031 C 780.367188 871.488281 781.347656 882.292969 781.75 890.765625 L 739.226562 924.195312 C 739.160156 909.277344 739.375 882.617188 739.847656 844.222656 " fill-opacity="1" fill-rule="nonzero"/><path fill="#c5292f" d="M 953.078125 820.839844 C 938.933594 850.964844 917.523438 869.960938 888.886719 877.859375 C 865.839844 884.203125 846.113281 878.792969 829.714844 861.625 C 814.636719 845.714844 804.605469 822.503906 799.609375 791.996094 C 798.515625 785.339844 797.660156 778.207031 797.042969 770.605469 C 794.679688 737.117188 801.105469 705.886719 816.332031 676.929688 C 831.945312 647.378906 852.351562 629.136719 877.539062 622.191406 C 915.605469 611.707031 945.261719 621.015625 966.492188 650.121094 L 921.761719 694.980469 C 912.117188 678.859375 899.234375 673.023438 883.109375 677.464844 C 866.730469 681.980469 854.175781 692.640625 845.4375 709.449219 C 837.285156 725.289062 833.722656 744.320312 834.738281 766.535156 C 834.949219 771.660156 835.335938 775.921875 835.890625 779.324219 C 838.558594 795.582031 844.46875 808.445312 853.640625 817.890625 C 863.414062 827.984375 874.398438 831.351562 886.597656 827.992188 C 899.863281 824.339844 910.441406 814.542969 918.328125 798.609375 Z M 953.078125 820.839844 " fill-opacity="1" fill-rule="nonzero"/><path fill="#c5292f" d="M 1100.296875 816.957031 L 1053.351562 838.183594 C 1054.03125 830.945312 1054.089844 823.625 1053.542969 816.21875 C 1052.507812 802.507812 1049.515625 789.765625 1044.585938 777.984375 C 1038.714844 763.617188 1031.378906 754.839844 1022.550781 751.667969 L 1020.328125 766.027344 C 1018.503906 777.714844 1015.621094 800.347656 1011.648438 833.933594 L 964.71875 855.40625 C 968.199219 828.398438 972.464844 800.417969 977.519531 771.460938 C 981.371094 749.492188 987.417969 723.125 995.648438 692.332031 C 1001.953125 668.621094 1011.863281 636.746094 1025.398438 596.695312 L 1030.269531 595.355469 C 1039.742188 592.726562 1050.710938 590.136719 1063.148438 587.609375 C 1055.863281 609.683594 1046.351562 642.945312 1034.628906 687.386719 C 1034.335938 688.371094 1033.277344 693.042969 1031.453125 701.382812 C 1054.039062 685.476562 1075.003906 661.105469 1094.351562 628.265625 C 1102.929688 613.660156 1109.640625 599.363281 1114.472656 585.390625 L 1119.515625 584.03125 C 1129.007812 581.394531 1139.910156 578.816406 1152.226562 576.300781 C 1142.789062 613.765625 1124.570312 650.121094 1097.550781 685.363281 C 1083.824219 703.332031 1068.882812 717.316406 1052.710938 727.320312 C 1064.050781 733.039062 1074.503906 743.25 1084.074219 757.9375 C 1094.078125 773.367188 1099.640625 788.652344 1100.777344 803.78125 C 1101.085938 807.875 1100.917969 812.269531 1100.296875 816.957031 " fill-opacity="1" fill-rule="nonzero"/><path fill="#c5292f" d="M 1228.257812 570.835938 C 1228.515625 583.492188 1224.742188 609.191406 1216.964844 647.933594 C 1215.851562 653.667969 1212.875 667.222656 1208.019531 688.597656 L 1196.804688 739.585938 L 1152.121094 746.292969 C 1157.109375 726.972656 1164.558594 692.292969 1174.445312 642.253906 C 1177.65625 626.144531 1180.078125 613.074219 1181.710938 603.035156 L 1185.808594 579.140625 C 1196.371094 576.726562 1210.519531 573.960938 1228.257812 570.835938 M 1145.433594 776.90625 L 1191.496094 767.796875 C 1189.375 777.683594 1186.347656 794.253906 1182.417969 817.507812 L 1180.957031 817.789062 C 1167.5 821.730469 1152.015625 827.082031 1134.464844 833.851562 C 1137.863281 813.769531 1141.511719 794.792969 1145.433594 776.90625 " fill-opacity="1" fill-rule="nonzero"/><path fill="#c5292f" d="M 1308.847656 573.988281 C 1308.640625 586.652344 1303.925781 612.089844 1294.730469 650.296875 C 1293.417969 655.953125 1289.933594 669.316406 1284.300781 690.371094 L 1271.226562 740.605469 L 1226.347656 744.542969 C 1232.046875 725.554688 1240.75 691.371094 1252.46875 642 C 1256.273438 626.113281 1259.171875 613.207031 1261.164062 603.277344 L 1266.140625 579.664062 C 1276.789062 577.90625 1291.023438 576.011719 1308.847656 573.988281 M 1218.554688 774.710938 L 1264.890625 768.449219 C 1262.414062 778.203125 1258.777344 794.566406 1254 817.546875 L 1252.535156 817.746094 C 1238.945312 820.839844 1223.273438 825.230469 1205.503906 830.910156 C 1209.625 811.058594 1213.980469 792.324219 1218.554688 774.710938 " fill-opacity="1" fill-rule="nonzero"/><path fill="#c5292f" d="M 1389.453125 582.234375 C 1388.769531 594.863281 1383.113281 619.976562 1372.507812 657.5625 C 1370.96875 663.136719 1367 676.253906 1360.59375 696.933594 L 1345.664062 746.285156 L 1300.679688 747.398438 C 1307.082031 728.785156 1317.054688 695.191406 1330.589844 646.617188 C 1335 630.984375 1338.371094 618.273438 1340.734375 608.492188 L 1346.589844 585.214844 C 1357.277344 584.125 1371.566406 583.132812 1389.453125 582.234375 M 1291.765625 777.039062 L 1338.292969 773.707031 C 1335.441406 783.285156 1331.199219 799.402344 1325.558594 822.050781 L 1324.089844 822.160156 C 1310.410156 824.402344 1294.589844 827.796875 1276.632812 832.347656 C 1281.496094 812.789062 1286.539062 794.347656 1291.765625 777.039062 " fill-opacity="1" fill-rule="nonzero"/><path fill="#030404" d="M 358.347656 1120.800781 C 357.929688 1118.683594 354.058594 1107.300781 327.734375 1047.679688 C 310.121094 1007.992188 293.050781 970.660156 277.003906 936.714844 C 269.757812 921.402344 267.421875 917.195312 266.671875 916.054688 L 263.988281 911.972656 L 306.425781 858.179688 L 311.785156 864.585938 C 312.957031 865.996094 314.875 868.824219 319.355469 878.289062 C 327.574219 895.671875 339.871094 926.027344 356.734375 970.570312 C 356.648438 957.414062 356.703125 943.160156 356.894531 927.875 C 356.964844 913.222656 357.273438 900.042969 357.796875 888.71875 L 340.074219 851.234375 L 381.292969 798.738281 L 386.699219 804.414062 C 388.125 805.902344 390.1875 808.726562 394.726562 818.339844 C 403.792969 837.515625 416.269531 868.304688 431.929688 910.136719 C 431.695312 880.867188 432.1875 850.605469 433.40625 819.738281 C 434.25 797.9375 435.550781 782.332031 437.375 772.03125 L 437.738281 769.941406 L 443.164062 764.476562 C 450.8125 756.710938 459.976562 747.992188 470.378906 738.59375 L 483.90625 726.367188 L 481.660156 744.453125 C 479.894531 758.683594 479.402344 778.511719 480.207031 803.375 C 480.828125 816.726562 481.628906 836.910156 482.597656 863.835938 L 484.78125 939.328125 C 485.300781 972.847656 484.386719 998.359375 482.070312 1015.253906 L 481.832031 1017.035156 L 436.058594 1076.71875 L 433.585938 1061.121094 C 433.28125 1059.710938 430.679688 1051.929688 413.441406 1012.316406 C 412.007812 1009.011719 410.582031 1005.757812 409.195312 1002.566406 C 409.410156 1010.5 409.53125 1016.6875 409.542969 1021.089844 C 409.675781 1042.183594 408.722656 1060.398438 406.703125 1075.207031 L 406.460938 1076.984375 L 360.351562 1137.214844 Z M 358.347656 1120.800781 " fill-opacity="1" fill-rule="nonzero"/><path fill="#030404" d="M 520.679688 1001.835938 C 517.992188 974.84375 515.804688 946.09375 514.152344 916.382812 C 512.933594 893.722656 512.824219 865.761719 513.820312 833.257812 C 514.554688 808.246094 516.953125 773.542969 520.949219 730.121094 L 521.234375 727.023438 L 528.125 722.113281 C 536.738281 715.941406 546.863281 709.210938 558.207031 702.105469 L 569.707031 694.90625 L 568.566406 708.425781 C 566.554688 732.152344 564.90625 767.808594 563.644531 814.398438 C 563.628906 814.578125 563.625 814.878906 563.617188 815.398438 L 596.367188 790.9375 L 596.703125 791.300781 C 597.671875 760.882812 600.007812 725.492188 603.679688 685.800781 L 603.96875 682.6875 L 611.054688 677.6875 C 619.519531 671.613281 629.585938 664.902344 640.925781 657.789062 L 652.453125 650.558594 L 651.292969 664.113281 C 648.683594 694.371094 647.011719 729.953125 646.308594 769.875 C 646.046875 784.023438 647.40625 810.914062 650.347656 849.796875 C 651.070312 860.355469 652.710938 880.957031 655.367188 912.820312 L 655.628906 916.074219 L 602.6875 966.097656 L 601.648438 951.851562 C 599.734375 925.597656 598.183594 898.695312 597.042969 871.898438 C 596.964844 870.414062 596.84375 867.054688 596.6875 861.828125 L 566.652344 883.417969 L 567.445312 894.210938 C 568.308594 905.894531 570.609375 928.777344 574.289062 962.226562 L 574.652344 965.570312 L 522.046875 1015.640625 Z M 520.679688 1001.835938 " fill-opacity="1" fill-rule="nonzero"/><path fill="#030404" d="M 739.65625 714.058594 C 737.773438 723.921875 735.558594 735.886719 733.046875 749.914062 L 730.277344 765.835938 L 745.984375 758.894531 L 746.277344 759.035156 C 745.882812 747.820312 743.664062 732.777344 739.65625 714.058594 M 663.023438 922.984375 C 662.707031 915.492188 664.472656 895.832031 668.429688 862.878906 L 672.277344 829.191406 C 676.058594 797.269531 684.304688 755.976562 696.8125 706.429688 C 703.625 679.160156 711.035156 654.058594 718.847656 631.84375 L 719.796875 629.125 L 722.417969 627.921875 C 729.410156 624.722656 739.6875 619.832031 753.25 613.253906 L 760.40625 609.792969 L 768.664062 637.113281 C 773.074219 651.996094 777.0625 666.726562 780.542969 680.945312 C 787.320312 708.695312 792.136719 735.617188 794.851562 760.96875 L 794.894531 761.375 L 794.886719 761.777344 C 794.859375 764.632812 795.71875 776.246094 800.074219 815.332031 C 801.621094 828.542969 802.621094 839.609375 803.035156 848.195312 L 803.195312 851.679688 L 747.007812 895.851562 L 746.953125 881.972656 C 746.894531 868.746094 747.054688 846.0625 747.449219 812.808594 L 724.121094 824.003906 C 720.90625 841.714844 719.199219 863.582031 719.050781 889.078125 L 719.03125 892.324219 L 663.597656 936.257812 Z M 663.023438 922.984375 " fill-opacity="1" fill-rule="nonzero"/><path fill="#030404" d="M 885.460938 844.957031 C 868.09375 844.957031 852.566406 837.925781 839.316406 824.058594 C 823.347656 807.207031 812.621094 782.578125 807.425781 750.839844 C 806.304688 743.992188 805.414062 736.609375 804.796875 728.902344 C 802.347656 694.214844 809.085938 661.472656 824.835938 631.523438 C 841.289062 600.386719 863.296875 580.835938 890.246094 573.410156 C 900.871094 570.484375 911.054688 569 920.53125 569 C 947.410156 569 969.601562 580.734375 986.488281 603.878906 L 989.902344 608.5625 L 934.921875 663.683594 L 930.449219 656.203125 C 924.148438 645.675781 916.683594 640.558594 907.625 640.558594 C 905.0625 640.558594 902.300781 640.957031 899.421875 641.757812 C 884.8125 645.777344 873.871094 655.121094 865.964844 670.328125 C 858.414062 684.996094 855.066406 703.054688 856.023438 723.980469 C 856.21875 728.792969 856.585938 732.824219 857.097656 735.980469 C 859.523438 750.78125 864.882812 762.535156 873.015625 770.925781 C 879.082031 777.179688 885.34375 780.222656 892.191406 780.222656 C 894.464844 780.222656 896.855469 779.875 899.296875 779.199219 C 910.726562 776.0625 919.710938 767.601562 926.757812 753.351562 L 930.117188 746.570312 L 976.257812 776.085938 L 973.730469 781.472656 C 958.769531 813.320312 935.710938 833.730469 905.199219 842.144531 C 898.417969 844.011719 891.777344 844.957031 885.460938 844.957031 " fill-opacity="1" fill-rule="nonzero"/><path fill="#030404" d="M 972.507812 812.289062 C 975.996094 785.273438 980.3125 756.929688 985.347656 728.050781 C 989.21875 706.023438 995.363281 679.199219 1003.609375 648.332031 C 1009.933594 624.558594 1019.980469 592.234375 1033.488281 552.273438 L 1034.640625 548.859375 L 1042.992188 546.570312 C 1052.527344 543.921875 1063.742188 541.273438 1076.308594 538.714844 L 1087.773438 536.375 L 1084.105469 547.480469 C 1077.191406 568.429688 1068.128906 600.011719 1057.144531 641.410156 C 1073.285156 626.652344 1088.664062 606.945312 1103.027344 582.578125 C 1111.332031 568.4375 1117.914062 554.421875 1122.585938 540.925781 L 1123.757812 537.527344 L 1132.269531 535.238281 C 1141.785156 532.597656 1152.941406 529.953125 1165.378906 527.40625 L 1175.957031 525.246094 L 1173.316406 535.707031 C 1163.707031 573.902344 1144.90625 611.421875 1117.453125 647.238281 C 1105.824219 662.457031 1093.167969 675.066406 1079.714844 684.847656 C 1088.503906 691.3125 1096.734375 700.402344 1104.277344 711.988281 C 1114.855469 728.320312 1120.839844 744.808594 1122.058594 761.019531 C 1122.398438 765.546875 1122.21875 770.449219 1121.539062 775.605469 L 1121.042969 779.335938 L 1060.03125 806.921875 L 1061.113281 795.304688 C 1061.761719 788.464844 1061.820312 781.457031 1061.292969 774.472656 C 1060.324219 761.578125 1057.476562 749.421875 1052.847656 738.351562 C 1049.648438 730.542969 1046.089844 724.652344 1042.179688 720.730469 L 1041.542969 724.816406 C 1039.75 736.324219 1036.925781 758.453125 1032.902344 792.484375 L 1032.445312 796.269531 L 970.945312 824.402344 Z M 972.507812 812.289062 " fill-opacity="1" fill-rule="nonzero"/><path fill="#030404" d="M 1160.058594 702.351562 C 1164.996094 683.207031 1172.480469 648.328125 1182.289062 598.6875 C 1185.484375 582.667969 1187.914062 569.558594 1189.515625 559.703125 L 1194.390625 531.289062 L 1198.796875 530.277344 C 1209.367188 527.863281 1223.757812 525.050781 1241.578125 521.90625 L 1249.375 520.53125 L 1249.539062 528.449219 C 1249.808594 541.679688 1246.070312 567.378906 1238.113281 607.019531 C 1236.972656 612.871094 1233.949219 626.625 1229.128906 647.851562 L 1216.921875 703.351562 L 1157.492188 712.273438 Z M 1142.273438 790.472656 C 1145.695312 770.273438 1149.40625 751.007812 1153.308594 733.207031 L 1154.261719 728.871094 L 1214.792969 716.894531 L 1212.628906 726.96875 C 1210.539062 736.667969 1207.507812 753.296875 1203.601562 776.390625 L 1202.816406 781.015625 L 1197.0625 782.136719 C 1183.964844 785.980469 1168.609375 791.296875 1151.410156 797.925781 L 1140.289062 802.214844 Z M 1142.273438 790.472656 " fill-opacity="1" fill-rule="nonzero"/><path fill="#030404" d="M 1234.359375 700.347656 C 1239.976562 681.621094 1248.734375 647.242188 1260.378906 598.183594 C 1264.171875 582.324219 1267.082031 569.378906 1269.027344 559.695312 L 1274.972656 531.476562 L 1279.546875 530.722656 C 1290.273438 528.949219 1304.753906 527.027344 1322.589844 525 L 1330.261719 524.128906 L 1330.136719 531.855469 C 1329.917969 545.105469 1325.234375 570.546875 1315.832031 609.632812 C 1314.53125 615.222656 1311.105469 628.402344 1305.363281 649.875 L 1291.085938 704.695312 L 1231.488281 709.925781 Z M 1213.363281 787.28125 C 1217.5 767.398438 1221.917969 748.386719 1226.5 730.757812 L 1227.640625 726.351562 L 1288.449219 718.140625 L 1285.972656 727.871094 C 1283.484375 737.671875 1279.839844 754.089844 1275.144531 776.679688 L 1274.164062 781.390625 L 1268.242188 782.175781 C 1254.984375 785.210938 1239.457031 789.566406 1222.066406 795.121094 L 1211.007812 798.652344 Z M 1213.363281 787.28125 " fill-opacity="1" fill-rule="nonzero"/><g clip-path="url(#5c5edca8d9)"><path fill="#030404" d="M 1308.777344 702.945312 C 1315.109375 684.539062 1325.128906 650.761719 1338.570312 602.546875 C 1342.894531 587.195312 1346.285156 574.449219 1348.652344 564.648438 L 1355.6875 536.695312 L 1360.417969 536.214844 C 1371.191406 535.128906 1385.726562 534.117188 1403.621094 533.214844 L 1411.140625 532.839844 L 1410.734375 540.355469 C 1410.023438 553.585938 1404.394531 578.707031 1393.542969 617.152344 C 1391.996094 622.785156 1388.078125 635.730469 1381.582031 656.6875 L 1365.238281 710.695312 L 1305.605469 712.164062 Z M 1284.558594 788.460938 C 1289.457031 768.789062 1294.578125 750.070312 1299.78125 732.832031 L 1301.136719 728.359375 L 1362.113281 724 L 1359.304688 733.398438 C 1356.511719 742.746094 1352.265625 758.90625 1346.65625 781.441406 L 1345.464844 786.226562 L 1339.386719 786.652344 C 1325.996094 788.855469 1310.332031 792.230469 1292.804688 796.671875 L 1281.824219 799.453125 Z M 1284.558594 788.460938 " fill-opacity="1" fill-rule="nonzero"/></g><path fill="#231f20" d="M 743.988281 1211.851562 L 733.546875 950.382812 L 730.832031 1219.15625 Z M 743.988281 1211.851562 " fill-opacity="1" fill-rule="nonzero"/><path fill="#231f20" d="M 719.363281 1214.734375 L 724.871094 962.035156 L 705.324219 1220.378906 Z M 719.363281 1214.734375 " fill-opacity="1" fill-rule="nonzero"/><path fill="#231f20" d="M 107.855469 693.5625 L 493.246094 746.441406 L 99.449219 671.53125 Z M 107.855469 693.5625 " fill-opacity="1" fill-rule="nonzero"/><path fill="#231f20" d="M 107.945312 655.167969 L 477.6875 730.121094 L 102.132812 632.226562 Z M 107.945312 655.167969 " fill-opacity="1" fill-rule="nonzero"/><g clip-path="url(#365036d904)"><path fill="#231f20" d="M 774.328125 211.75 L 702.335938 581.6875 L 795.003906 204.78125 Z M 774.328125 211.75 " fill-opacity="1" fill-rule="nonzero"/></g><path fill="#231f20" d="M 809.460938 213.855469 L 718.222656 567.488281 L 830.816406 209.445312 Z M 809.460938 213.855469 " fill-opacity="1" fill-rule="nonzero"/><path fill="#231f20" d="M 1315.394531 370.21875 L 893.011719 603.777344 L 1335.347656 373.796875 Z M 1315.394531 370.21875 " fill-opacity="1" fill-rule="nonzero"/><path fill="#231f20" d="M 1335.074219 386.230469 L 917.375 600.234375 L 1352.839844 391.910156 Z M 1335.074219 386.230469 " fill-opacity="1" fill-rule="nonzero"/><path fill="#fff200" d="M 401.222656 967.449219 C 402.21875 993.773438 402.730469 1011.660156 402.757812 1021.105469 C 402.890625 1041.988281 401.96875 1059.714844 399.984375 1074.292969 L 365.070312 1119.898438 C 364.574219 1115.824219 354.207031 1090.84375 333.9375 1044.941406 C 316.148438 1004.871094 299.210938 967.824219 283.136719 933.820312 C 277.460938 921.8125 273.863281 914.644531 272.335938 912.332031 L 306.578125 868.933594 C 307.882812 870.492188 310.101562 874.578125 313.222656 881.191406 C 323.433594 902.78125 340.457031 945.785156 364.316406 1010.183594 C 363.480469 987.824219 363.265625 960.421875 363.675781 927.960938 C 363.75 912.675781 364.070312 899.140625 364.65625 887.347656 C 354.386719 865.621094 348.835938 853.875 348.003906 852.117188 L 381.789062 809.089844 C 383.199219 810.574219 385.464844 814.617188 388.59375 821.234375 C 400.203125 845.796875 417.171875 888.835938 439.519531 950.351562 C 438.167969 908.71875 438.394531 865.273438 440.183594 820.007812 C 441.007812 798.746094 442.296875 783.140625 444.046875 773.207031 L 447.972656 769.253906 C 455.617188 761.5 464.605469 752.957031 474.929688 743.617188 C 473.117188 758.257812 472.613281 778.242188 473.425781 803.589844 C 474.050781 817.023438 474.855469 837.1875 475.824219 864.082031 L 477.996094 939.523438 C 478.511719 972.726562 477.632812 997.660156 475.355469 1014.332031 L 440.285156 1060.054688 C 439.789062 1056.917969 432.929688 1040.101562 419.660156 1009.613281 C 412.992188 994.300781 406.851562 980.242188 401.222656 967.449219 " fill-opacity="1" fill-rule="nonzero"/><path fill="#fff200" d="M 644.535156 663.535156 C 641.917969 693.886719 640.238281 729.292969 639.527344 769.757812 C 639.257812 784.28125 640.621094 811.132812 643.582031 850.304688 C 644.304688 860.882812 645.980469 881.90625 648.605469 913.386719 L 608.414062 951.363281 C 606.492188 924.988281 604.960938 898.402344 603.8125 871.605469 C 603.6875 869.105469 603.449219 861.523438 603.117188 848.863281 L 559.605469 880.128906 L 560.679688 894.714844 C 561.554688 906.582031 563.84375 929.335938 567.546875 962.976562 L 527.425781 1001.164062 C 524.726562 974.011719 522.5625 945.621094 520.921875 916.011719 C 519.714844 893.535156 519.597656 866.023438 520.59375 833.460938 C 521.332031 808.40625 523.703125 774.164062 527.699219 730.742188 L 532.054688 727.636719 C 540.554688 721.550781 550.464844 714.949219 561.804688 707.851562 C 559.785156 731.757812 558.132812 767.210938 556.859375 814.214844 C 556.800781 815.273438 556.835938 820.152344 556.957031 828.832031 L 595.515625 800.035156 L 603.078125 808.28125 C 603.601562 774.265625 606.0625 733.648438 610.433594 686.421875 L 614.96875 683.230469 C 623.457031 677.136719 633.3125 670.570312 644.535156 663.535156 " fill-opacity="1" fill-rule="nonzero"/><path fill="#fff200" d="M 739.164062 683.167969 C 736.820312 692.441406 732.554688 714.289062 726.363281 748.710938 L 721.417969 777.15625 L 745.851562 766.363281 L 752.816406 769.722656 C 754.257812 754.679688 750.648438 729.429688 741.996094 693.964844 C 740.695312 688.679688 739.75 685.085938 739.164062 683.167969 M 754.359375 801.972656 L 718.105469 819.371094 C 714.367188 838.183594 712.429688 861.398438 712.265625 889.03125 L 669.800781 922.695312 C 669.5 915.675781 671.277344 896.007812 675.164062 863.683594 L 679.015625 829.964844 C 682.773438 798.191406 690.902344 757.566406 703.390625 708.089844 C 710.179688 680.890625 717.464844 656.21875 725.242188 634.089844 C 732.269531 630.867188 742.582031 625.957031 756.210938 619.355469 L 762.175781 639.074219 C 766.601562 654.03125 770.519531 668.523438 773.953125 682.558594 C 780.699219 710.175781 785.414062 736.558594 788.109375 761.6875 C 788.050781 766.191406 789.796875 784.324219 793.332031 816.082031 C 794.875 829.238281 795.855469 840.042969 796.257812 848.515625 L 753.734375 881.945312 C 753.667969 867.027344 753.886719 840.363281 754.359375 801.972656 " fill-opacity="1" fill-rule="nonzero"/><path fill="#fff200" d="M 967.582031 778.589844 C 953.4375 808.714844 932.03125 827.710938 903.390625 835.609375 C 880.347656 841.953125 860.621094 836.542969 844.21875 819.375 C 829.140625 803.464844 819.109375 780.25 814.117188 749.746094 C 813.019531 743.089844 812.164062 735.957031 811.550781 728.355469 C 809.1875 694.867188 815.609375 663.636719 830.839844 634.679688 C 846.449219 605.128906 866.859375 586.882812 892.046875 579.941406 C 930.109375 569.453125 959.765625 578.765625 981 607.871094 L 936.265625 652.730469 C 926.625 636.609375 913.738281 630.773438 897.613281 635.214844 C 881.238281 639.730469 868.683594 650.390625 859.945312 667.199219 C 851.792969 683.039062 848.226562 702.070312 849.242188 724.285156 C 849.453125 729.410156 849.84375 733.671875 850.398438 737.074219 C 853.066406 753.332031 858.976562 766.195312 868.144531 775.640625 C 877.917969 785.734375 888.90625 789.101562 901.101562 785.742188 C 914.367188 782.085938 924.949219 772.292969 932.832031 756.359375 Z M 967.582031 778.589844 " fill-opacity="1" fill-rule="nonzero"/><path fill="#fff200" d="M 1114.808594 774.710938 L 1067.863281 795.9375 C 1068.542969 788.695312 1068.605469 781.375 1068.054688 773.96875 C 1067.019531 760.257812 1064.027344 747.515625 1059.101562 735.734375 C 1053.226562 721.367188 1045.894531 712.589844 1037.066406 709.421875 L 1034.839844 723.777344 C 1033.015625 735.464844 1030.132812 758.097656 1026.160156 791.683594 L 979.230469 813.15625 C 982.714844 786.148438 986.976562 758.171875 992.03125 729.210938 C 995.882812 707.242188 1001.929688 680.875 1010.160156 650.082031 C 1016.464844 626.371094 1026.375 594.496094 1039.914062 554.445312 L 1044.78125 553.109375 C 1054.253906 550.476562 1065.226562 547.886719 1077.660156 545.359375 C 1070.375 567.433594 1060.863281 600.699219 1049.140625 645.136719 C 1048.847656 646.121094 1047.789062 650.792969 1045.964844 659.132812 C 1068.550781 643.230469 1089.515625 618.855469 1108.863281 586.019531 C 1117.441406 571.410156 1124.152344 557.113281 1128.984375 543.140625 L 1134.027344 541.78125 C 1143.519531 539.144531 1154.425781 536.570312 1166.738281 534.050781 C 1157.300781 571.519531 1139.082031 607.871094 1112.066406 643.113281 C 1098.335938 661.082031 1083.394531 675.070312 1067.222656 685.074219 C 1078.5625 690.789062 1089.019531 701 1098.589844 715.6875 C 1108.589844 731.121094 1114.152344 746.402344 1115.289062 761.53125 C 1115.597656 765.625 1115.433594 770.019531 1114.808594 774.710938 " fill-opacity="1" fill-rule="nonzero"/><path fill="#fff200" d="M 1242.757812 528.585938 C 1243.015625 541.246094 1239.238281 566.945312 1231.464844 605.683594 C 1230.351562 611.417969 1227.375 624.972656 1222.515625 646.351562 L 1211.300781 697.335938 L 1166.621094 704.042969 C 1171.609375 684.726562 1179.054688 650.042969 1188.941406 600.003906 C 1192.15625 583.894531 1194.578125 570.824219 1196.210938 560.785156 L 1200.308594 536.890625 C 1210.871094 534.476562 1225.015625 531.714844 1242.757812 528.585938 M 1159.933594 734.660156 L 1205.996094 725.546875 C 1203.871094 735.4375 1200.847656 752.003906 1196.917969 775.257812 L 1195.457031 775.539062 C 1182 779.480469 1166.511719 784.832031 1148.964844 791.601562 C 1152.363281 771.523438 1156.011719 752.542969 1159.933594 734.660156 " fill-opacity="1" fill-rule="nonzero"/><path fill="#fff200" d="M 1323.359375 531.738281 C 1323.152344 544.402344 1318.4375 569.839844 1309.246094 608.046875 C 1307.929688 613.703125 1304.449219 627.066406 1298.8125 648.121094 L 1285.738281 698.355469 L 1240.859375 702.292969 C 1246.5625 683.304688 1255.265625 649.121094 1266.980469 599.746094 C 1270.785156 583.859375 1273.6875 570.957031 1275.679688 561.023438 L 1280.65625 537.414062 C 1291.300781 535.65625 1305.535156 533.757812 1323.359375 531.738281 M 1233.066406 732.460938 L 1279.40625 726.199219 C 1276.929688 735.953125 1273.292969 752.316406 1268.511719 775.296875 L 1267.046875 775.492188 C 1253.457031 778.589844 1237.785156 782.980469 1220.015625 788.660156 C 1224.136719 768.808594 1228.492188 750.074219 1233.066406 732.460938 " fill-opacity="1" fill-rule="nonzero"/><path fill="#fff200" d="M 1403.964844 539.988281 C 1403.285156 552.617188 1397.625 577.730469 1387.019531 615.316406 C 1385.484375 620.886719 1381.511719 634.007812 1375.105469 654.683594 L 1360.175781 704.035156 L 1315.191406 705.148438 C 1321.597656 686.535156 1331.566406 652.941406 1345.101562 604.367188 C 1349.511719 588.738281 1352.886719 576.023438 1355.246094 566.242188 L 1361.101562 542.964844 C 1371.792969 541.875 1386.082031 540.882812 1403.964844 539.988281 M 1306.277344 734.789062 L 1352.808594 731.457031 C 1349.953125 741.039062 1345.714844 757.152344 1340.074219 779.800781 L 1338.601562 779.910156 C 1324.921875 782.152344 1309.101562 785.546875 1291.144531 790.097656 C 1296.007812 770.539062 1301.050781 752.097656 1306.277344 734.789062 " fill-opacity="1" fill-rule="nonzero"/></svg>