<svg xmlns="http://www.w3.org/2000/svg" xmlns:xlink="http://www.w3.org/1999/xlink" width="2000" zoomAndPan="magnify" viewBox="0 0 1500 1499.999933" height="2000" preserveAspectRatio="xMidYMid meet" version="1.0"><defs><clipPath id="9764301bd0"><path d="M 181 252 L 1336 252 L 1336 1254.613281 L 181 1254.613281 Z M 181 252 " clip-rule="nonzero"/></clipPath><clipPath id="42ac1d5b78"><path d="M 1140 245.113281 L 1303 245.113281 L 1303 399 L 1140 399 Z M 1140 245.113281 " clip-rule="nonzero"/></clipPath></defs><g clip-path="url(#9764301bd0)"><path fill="#ef9511" d="M 407.867188 594.023438 L 336.683594 435.332031 L 564.890625 514.679688 L 606.761719 252.203125 L 828.691406 467.347656 L 868.421875 308.710938 L 933.378906 453.121094 L 1111.335938 252.203125 L 1073.375 531.050781 L 1312.492188 524.246094 L 1150.980469 676.828125 L 1335.363281 848.679688 L 1027.59375 884.050781 L 1073.375 1076.8125 L 858.003906 978.441406 L 778.445312 1254.707031 L 650.734375 1032.859375 L 479.480469 1254.707031 L 516.734375 959.601562 L 181.75 951.234375 L 335.523438 806.855469 L 181.75 639.078125 L 407.867188 594.023438 " fill-opacity="1" fill-rule="nonzero"/></g><path fill="#e7eab6" d="M 212.976562 1006.566406 C 222.367188 1004.785156 231.230469 997.082031 239.566406 983.429688 C 247.816406 969.417969 252.242188 955.730469 252.839844 942.375 L 323.855469 956.414062 C 314.394531 999.085938 298.132812 1034.675781 275.089844 1063.167969 C 254.546875 1088.46875 231.496094 1103.53125 205.917969 1108.355469 C 181.84375 1112.902344 160.226562 1105.695312 141.066406 1086.730469 C 120.863281 1066.40625 107.171875 1037.257812 99.988281 999.28125 C 92.8125 961.316406 90.867188 923.714844 94.160156 886.492188 C 97.4375 849.273438 105.464844 814.949219 118.226562 783.523438 C 130.980469 752.117188 148.230469 725.398438 169.976562 703.367188 C 191.714844 681.359375 217.4375 667.535156 247.152344 661.921875 C 266.335938 658.296875 284.082031 662.546875 300.394531 674.648438 C 316.398438 687.199219 326.710938 705.699219 331.328125 730.128906 L 332.71875 737.464844 C 333.144531 739.714844 333.410156 742.207031 333.535156 744.902344 L 261.78125 779.480469 C 255.492188 770.9375 249.242188 767.253906 243.039062 768.421875 C 236.828125 769.597656 231.019531 774.390625 225.601562 782.816406 C 220.183594 791.242188 215.234375 801.707031 210.789062 814.226562 C 206.335938 826.753906 202.4375 840.628906 199.09375 855.867188 C 195.734375 871.097656 193.15625 886.285156 191.339844 901.425781 C 186.777344 935 186.332031 961.460938 189.992188 980.820312 C 193.652344 1000.195312 201.3125 1008.765625 212.976562 1006.566406 " fill-opacity="1" fill-rule="nonzero"/><path fill="#e7eab6" d="M 442.386719 706.0625 L 421.722656 710.457031 L 420.683594 790.242188 C 433.019531 786.621094 447.382812 775.601562 463.773438 757.199219 C 480.734375 738.375 488.292969 724.09375 486.449219 714.34375 C 484.726562 705.226562 475.09375 701.679688 457.5625 703.683594 C 452.46875 704.324219 447.410156 705.117188 442.386719 706.0625 Z M 490.332031 985.59375 C 449.960938 904.683594 428.207031 858.492188 425.066406 847.039062 L 419.292969 850.078125 C 419.847656 909.875 420.425781 955.175781 421.050781 985.988281 L 346.589844 1021.046875 C 349.40625 856.769531 348.152344 740.796875 342.851562 673.101562 C 377.183594 654.90625 416.988281 641.523438 462.273438 632.96875 C 496.226562 626.558594 518.578125 634.539062 529.328125 656.925781 C 532.578125 663.808594 535.210938 672.582031 537.234375 683.269531 C 539.257812 693.953125 539.230469 705.917969 537.183594 719.164062 C 535.117188 732.414062 531.398438 745.402344 525.992188 758.144531 C 514.601562 784.0625 498.589844 805.3125 477.953125 821.910156 C 495.210938 845.992188 510.847656 868.847656 524.863281 890.441406 C 538.882812 912.050781 550.707031 930.238281 560.335938 945.027344 L 490.332031 985.59375 " fill-opacity="1" fill-rule="nonzero"/><path fill="#e7eab6" d="M 641.84375 803.4375 L 673.367188 795.25 C 673.042969 793.527344 672.699219 790.542969 672.34375 786.289062 C 671.992188 782.039062 671.574219 777.121094 671.121094 771.550781 C 667.605469 740.347656 664.648438 711.273438 662.234375 684.316406 L 657.992188 645.363281 L 651.175781 647.09375 Z M 639.804688 849.394531 L 634.097656 916.144531 C 627.640625 918.257812 620.140625 920.722656 611.582031 923.527344 C 603.019531 926.335938 594.519531 929.0625 586.082031 931.699219 C 577.648438 934.332031 568.9375 937.097656 559.945312 939.988281 C 564.347656 898.652344 568.089844 863.6875 571.179688 835.101562 C 574.269531 806.523438 576.757812 783.046875 578.644531 764.667969 C 580.539062 746.289062 582.382812 728.074219 584.179688 710.011719 C 585.972656 691.949219 587.746094 674.492188 589.480469 657.632812 C 591.210938 640.773438 592.6875 625.378906 593.933594 611.445312 C 646.441406 597.65625 686.136719 585.390625 713.011719 574.65625 C 715.800781 603.617188 720.003906 637.667969 725.617188 676.820312 C 736.496094 754.886719 746.820312 826.804688 756.570312 892.5625 C 748.210938 895.640625 740.035156 898.523438 732.058594 901.21875 C 724.074219 903.914062 715.832031 906.8125 707.328125 909.910156 C 698.824219 913.011719 691.085938 915.8125 684.113281 918.316406 C 682.058594 890.105469 680.089844 864.71875 678.210938 842.144531 L 639.804688 849.394531 " fill-opacity="1" fill-rule="nonzero"/><path fill="#e7eab6" d="M 871.058594 636.195312 C 871.390625 630.4375 870.988281 624.527344 869.847656 618.464844 C 868.695312 612.417969 866.253906 607.8125 862.527344 604.664062 C 858.796875 601.527344 855.214844 600.273438 851.769531 600.929688 C 848.324219 601.578125 845.113281 603.046875 842.121094 605.3125 C 839.125 607.589844 836.242188 610.421875 833.460938 613.800781 C 826.945312 621.585938 824.375 629.125 825.757812 636.414062 C 827.132812 643.714844 830.175781 649.265625 834.894531 653.078125 C 839.605469 656.890625 845.148438 660.191406 851.523438 662.980469 C 857.886719 665.769531 864.777344 668.601562 872.167969 671.484375 C 879.554688 674.367188 886.738281 678.425781 893.714844 683.660156 C 909.847656 696.582031 920.332031 715.835938 925.171875 741.429688 C 930.996094 772.265625 924.523438 799.855469 905.738281 824.210938 C 887.90625 847.535156 862.601562 862.296875 829.835938 868.480469 C 805.605469 873.058594 781.046875 864.589844 756.160156 843.058594 L 775.917969 775.609375 C 781.234375 782.59375 789.996094 788.207031 802.203125 792.453125 C 814.460938 796.980469 823.351562 798.722656 828.863281 797.679688 C 834.367188 796.640625 838.871094 795.222656 842.382812 793.417969 C 845.890625 791.617188 848.953125 789.332031 851.5625 786.550781 C 857.511719 780.300781 859.824219 773.65625 858.5 766.636719 C 857.167969 759.621094 853.757812 753.640625 848.261719 748.695312 C 842.761719 743.742188 836.277344 739.273438 828.820312 735.253906 C 821.363281 731.253906 813.335938 727.273438 804.753906 723.339844 C 796.164062 719.402344 788.136719 715.011719 780.660156 710.148438 C 762.636719 699.300781 752.195312 686.304688 749.335938 671.167969 C 746.46875 656.03125 748.183594 641.3125 754.460938 627 C 760.742188 612.707031 769.554688 599.71875 780.882812 588.019531 C 792.222656 576.328125 805.164062 566.332031 819.707031 558.027344 C 834.246094 549.71875 846.890625 544.550781 857.628906 542.523438 C 868.363281 540.492188 877.285156 539.808594 884.402344 540.457031 C 891.507812 541.113281 897.90625 542.898438 903.59375 545.8125 C 916 552.59375 923.804688 564.515625 927.039062 581.582031 C 927.816406 585.707031 928.226562 589.765625 928.269531 593.75 C 928.308594 597.734375 928.488281 602.117188 928.832031 606.898438 L 871.058594 636.195312 " fill-opacity="1" fill-rule="nonzero"/><path fill="#e7eab6" d="M 940.210938 801.535156 C 940.476562 688.375 939.316406 598.585938 936.746094 532.175781 L 994.453125 516.894531 C 992.507812 558.128906 991.578125 595.039062 991.652344 627.625 L 1026.453125 616.664062 C 1026.546875 599.140625 1026.417969 582.074219 1026.085938 565.472656 C 1025.734375 548.875 1026.085938 531.71875 1027.125 514.003906 C 1036.203125 510.59375 1045.964844 507.472656 1056.378906 504.648438 C 1066.796875 501.835938 1073.980469 499.933594 1077.929688 498.933594 L 1083.789062 497.101562 C 1079.378906 536.859375 1078.066406 591.71875 1079.855469 661.675781 C 1080.222656 693.238281 1081.1875 725.40625 1082.765625 758.1875 L 1027.578125 775.183594 C 1027.917969 760.285156 1028.132812 746.246094 1028.203125 733.097656 C 1028.269531 719.957031 1028.363281 706.925781 1028.484375 694.003906 C 1028.59375 681.09375 1028.628906 670.023438 1028.585938 660.78125 L 993.941406 670.605469 C 994.171875 701.457031 994.085938 737.71875 993.703125 779.386719 L 940.210938 801.535156 " fill-opacity="1" fill-rule="nonzero"/><path fill="#e7eab6" d="M 1104.402344 721.816406 C 1104.625 627.640625 1103.660156 552.925781 1101.519531 497.65625 L 1149.539062 484.941406 C 1147.925781 519.257812 1147.152344 549.96875 1147.210938 577.085938 L 1176.175781 567.96875 C 1176.242188 553.378906 1176.140625 539.179688 1175.867188 525.363281 C 1175.578125 511.558594 1175.867188 497.273438 1176.726562 482.535156 C 1184.285156 479.695312 1192.410156 477.105469 1201.078125 474.75 C 1209.742188 472.40625 1215.722656 470.820312 1219.015625 470 L 1223.886719 468.464844 C 1220.21875 501.554688 1219.128906 547.210938 1220.621094 605.425781 C 1220.917969 631.691406 1221.722656 658.460938 1223.035156 685.742188 L 1177.105469 699.882812 C 1177.394531 687.480469 1177.5625 675.804688 1177.625 664.863281 C 1177.683594 653.921875 1177.761719 643.085938 1177.855469 632.332031 C 1177.957031 621.585938 1177.984375 612.367188 1177.949219 604.683594 L 1149.113281 612.859375 C 1149.308594 638.539062 1149.242188 668.710938 1148.917969 703.386719 L 1104.402344 721.816406 " fill-opacity="1" fill-rule="nonzero"/><path fill="#e7eab6" d="M 1251.222656 634.761719 C 1251.394531 562.929688 1250.660156 505.9375 1249.019531 463.78125 L 1285.652344 454.078125 C 1284.417969 480.257812 1283.828125 503.683594 1283.878906 524.367188 L 1305.964844 517.414062 C 1306.027344 506.285156 1305.941406 495.457031 1305.734375 484.914062 C 1305.515625 474.382812 1305.734375 463.492188 1306.394531 452.253906 C 1312.160156 450.078125 1318.355469 448.101562 1324.964844 446.308594 C 1331.578125 444.519531 1336.132812 443.316406 1338.640625 442.683594 L 1342.359375 441.515625 C 1339.5625 466.75 1338.726562 501.578125 1339.871094 545.984375 C 1340.101562 566.015625 1340.714844 586.441406 1341.710938 607.25 L 1306.683594 618.027344 C 1306.894531 608.582031 1307.03125 599.667969 1307.074219 591.320312 C 1307.117188 582.980469 1307.179688 574.707031 1307.253906 566.503906 C 1307.324219 558.308594 1307.347656 551.28125 1307.316406 545.414062 L 1285.328125 551.65625 C 1285.476562 571.234375 1285.421875 594.253906 1285.175781 620.707031 L 1251.222656 634.761719 " fill-opacity="1" fill-rule="nonzero"/><path fill="#e7eab6" d="M 1407.351562 436.457031 C 1403.324219 454.761719 1399.945312 473.035156 1397.214844 491.300781 C 1394.476562 509.5625 1391.789062 527.914062 1389.152344 546.359375 C 1385.210938 547.101562 1381.332031 547.972656 1377.507812 548.96875 C 1373.6875 549.96875 1369.820312 550.964844 1365.933594 551.972656 C 1367.039062 534.769531 1368.003906 517.585938 1368.839844 500.4375 C 1369.6875 483.277344 1370.699219 466.015625 1371.914062 448.664062 C 1374.335938 447.792969 1377.175781 446.8125 1380.433594 445.71875 C 1383.703125 444.628906 1386.953125 443.503906 1390.203125 442.34375 C 1393.453125 441.191406 1396.617188 440.117188 1399.691406 439.128906 C 1402.769531 438.140625 1405.320312 437.253906 1407.351562 436.457031 Z M 1376.246094 603.257812 C 1372.695312 603.925781 1369.703125 603.914062 1367.261719 603.222656 C 1364.8125 602.523438 1362.707031 601.460938 1360.941406 600.027344 C 1357.195312 596.792969 1354.859375 592.683594 1353.921875 587.6875 C 1352.308594 579.160156 1354.902344 572.414062 1361.71875 567.449219 C 1363.996094 565.796875 1366.835938 564.652344 1370.25 564.003906 C 1378.132812 562.511719 1384.359375 563.246094 1388.921875 566.1875 C 1393.488281 569.128906 1396.226562 572.96875 1397.121094 577.691406 C 1398.1875 583.335938 1396.925781 588.539062 1393.332031 593.296875 C 1389.296875 598.550781 1383.601562 601.867188 1376.246094 603.257812 " fill-opacity="1" fill-rule="nonzero"/><path fill="#f14624" d="M 359.625 1067.449219 L 377.421875 1103.488281 L 417.210938 1109.269531 L 388.417969 1137.328125 L 395.214844 1176.9375 L 359.625 1158.238281 L 324.03125 1176.9375 L 330.832031 1137.328125 L 302.039062 1109.269531 L 341.828125 1103.488281 L 359.625 1067.449219 " fill-opacity="1" fill-rule="nonzero"/><g clip-path="url(#42ac1d5b78)"><path fill="#f14624" d="M 1221.414062 245.148438 L 1246.351562 295.660156 L 1302.109375 303.761719 L 1261.765625 343.078125 L 1271.289062 398.59375 L 1221.414062 372.378906 L 1171.542969 398.59375 L 1181.0625 343.078125 L 1140.71875 303.761719 L 1196.476562 295.660156 L 1221.414062 245.148438 " fill-opacity="1" fill-rule="nonzero"/></g><path fill="#f14624" d="M 214.960938 988.425781 C 224.355469 986.652344 233.226562 978.945312 241.554688 965.300781 C 249.804688 951.277344 254.230469 937.589844 254.828125 924.238281 L 325.839844 938.273438 C 316.378906 980.949219 300.121094 1016.535156 277.078125 1045.027344 C 256.535156 1070.328125 233.484375 1085.390625 207.90625 1090.21875 C 183.839844 1094.761719 162.214844 1087.558594 143.054688 1068.589844 C 122.859375 1048.269531 109.160156 1019.128906 101.984375 981.144531 C 94.800781 943.175781 92.863281 905.578125 96.148438 868.351562 C 99.425781 831.136719 107.453125 796.8125 120.214844 765.386719 C 132.96875 733.976562 150.21875 707.257812 171.964844 685.230469 C 193.703125 663.21875 219.425781 649.394531 249.136719 643.785156 C 268.324219 640.160156 286.070312 644.40625 302.382812 656.507812 C 318.386719 669.0625 328.699219 687.558594 333.324219 711.992188 L 334.707031 719.324219 C 335.132812 721.585938 335.40625 724.066406 335.523438 726.761719 L 263.769531 761.34375 C 257.480469 752.804688 251.238281 749.113281 245.027344 750.28125 C 238.816406 751.457031 233.015625 756.261719 227.589844 764.675781 C 222.171875 773.09375 217.230469 783.566406 212.777344 796.085938 C 208.332031 808.613281 204.425781 822.488281 201.082031 837.726562 C 197.722656 852.960938 195.144531 868.148438 193.335938 883.285156 C 188.773438 916.859375 188.320312 943.320312 191.988281 962.679688 C 195.648438 982.054688 203.300781 990.628906 214.960938 988.425781 " fill-opacity="1" fill-rule="nonzero"/><path fill="#f14624" d="M 444.375 687.925781 L 423.710938 692.316406 L 422.671875 772.105469 C 435.007812 768.480469 449.371094 757.460938 465.761719 739.066406 C 482.71875 720.238281 490.277344 705.953125 488.4375 696.207031 C 486.714844 687.097656 477.082031 683.542969 459.558594 685.546875 C 454.464844 686.195312 449.398438 686.976562 444.375 687.925781 Z M 492.328125 967.457031 C 451.949219 886.542969 430.195312 840.355469 427.054688 828.902344 L 421.28125 831.945312 C 421.84375 891.734375 422.414062 937.035156 423.035156 967.847656 L 348.578125 1002.90625 C 351.390625 838.632812 350.136719 722.660156 344.839844 654.964844 C 379.167969 636.765625 418.984375 623.386719 464.257812 614.832031 C 498.214844 608.417969 520.566406 616.398438 531.3125 638.785156 C 534.574219 645.660156 537.199219 654.445312 539.222656 665.128906 C 541.246094 675.816406 541.226562 687.78125 539.171875 701.023438 C 537.113281 714.285156 533.386719 727.265625 527.976562 740.003906 C 516.589844 765.921875 500.578125 787.175781 479.949219 803.769531 C 497.207031 827.851562 512.835938 850.707031 526.851562 872.308594 C 540.867188 893.910156 552.691406 912.101562 562.324219 926.890625 L 492.328125 967.457031 " fill-opacity="1" fill-rule="nonzero"/><path fill="#f14624" d="M 643.832031 785.296875 L 675.355469 777.109375 C 675.03125 775.386719 674.6875 772.402344 674.328125 768.148438 C 673.980469 763.902344 673.5625 758.988281 673.109375 753.410156 C 669.59375 722.207031 666.636719 693.136719 664.21875 666.1875 L 659.988281 627.222656 L 653.164062 628.960938 Z M 641.792969 831.253906 L 636.085938 898.003906 C 629.625 900.121094 622.128906 902.582031 613.570312 905.390625 C 605.015625 908.195312 596.515625 910.925781 588.082031 913.558594 C 579.632812 916.195312 570.925781 918.957031 561.933594 921.847656 C 566.335938 880.511719 570.078125 845.546875 573.167969 816.960938 C 576.265625 788.386719 578.746094 764.90625 580.640625 746.53125 C 582.527344 728.152344 584.367188 709.9375 586.167969 691.875 C 587.96875 673.820312 589.734375 656.355469 591.46875 639.496094 C 593.199219 622.632812 594.675781 607.242188 595.921875 593.304688 C 648.4375 579.515625 688.125 567.253906 714.996094 556.515625 C 717.796875 585.476562 721.992188 619.53125 727.605469 658.683594 C 738.484375 736.746094 748.808594 808.664062 758.558594 874.425781 C 750.199219 877.503906 742.03125 880.386719 734.046875 883.082031 C 726.0625 885.773438 717.820312 888.675781 709.324219 891.769531 C 700.820312 894.875 693.074219 897.671875 686.101562 900.179688 C 684.046875 871.96875 682.074219 846.589844 680.199219 824.007812 L 641.792969 831.253906 " fill-opacity="1" fill-rule="nonzero"/><path fill="#f14624" d="M 873.046875 618.054688 C 873.378906 612.296875 872.976562 606.386719 871.835938 600.332031 C 870.691406 594.277344 868.25 589.671875 864.523438 586.527344 C 860.785156 583.386719 857.203125 582.144531 853.757812 582.792969 C 850.308594 583.441406 847.101562 584.898438 844.109375 587.175781 C 841.113281 589.453125 838.230469 592.28125 835.449219 595.652344 C 828.929688 603.445312 826.371094 610.984375 827.746094 618.277344 C 829.128906 625.578125 832.164062 631.128906 836.882812 634.941406 C 841.589844 638.753906 847.136719 642.050781 853.519531 644.839844 C 859.882812 647.628906 866.765625 650.460938 874.15625 653.34375 C 881.542969 656.226562 888.726562 660.285156 895.703125 665.523438 C 911.835938 678.441406 922.320312 697.699219 927.160156 723.289062 C 932.992188 754.128906 926.511719 781.714844 907.734375 806.070312 C 889.894531 829.394531 864.589844 844.160156 831.832031 850.339844 C 807.59375 854.921875 783.035156 846.453125 758.15625 824.917969 L 777.914062 757.472656 C 783.222656 764.457031 791.984375 770.066406 804.191406 774.3125 C 816.449219 778.84375 825.339844 780.582031 830.851562 779.542969 C 836.351562 778.507812 840.867188 777.085938 844.371094 775.277344 C 847.878906 773.476562 850.941406 771.191406 853.558594 768.414062 C 859.5 762.160156 861.820312 755.527344 860.488281 748.5 C 859.15625 741.488281 855.746094 735.503906 850.25 730.546875 C 844.746094 725.601562 838.273438 721.132812 830.816406 717.117188 C 823.351562 713.117188 815.332031 709.144531 806.742188 705.203125 C 798.152344 701.261719 790.121094 696.871094 782.648438 692.011719 C 764.625 681.164062 754.179688 668.164062 751.324219 653.027344 C 748.464844 637.890625 750.171875 623.171875 756.449219 608.871094 C 762.730469 594.578125 771.542969 581.582031 782.878906 569.878906 C 794.210938 558.195312 807.152344 548.191406 821.695312 539.878906 C 836.234375 531.582031 848.875 526.414062 859.617188 524.382812 C 870.351562 522.351562 879.273438 521.671875 886.386719 522.320312 C 893.503906 522.976562 899.902344 524.757812 905.582031 527.675781 C 917.988281 534.453125 925.800781 546.375 929.027344 563.441406 C 929.804688 567.570312 930.210938 571.628906 930.253906 575.609375 C 930.296875 579.59375 930.484375 583.976562 930.820312 588.761719 L 873.046875 618.054688 " fill-opacity="1" fill-rule="nonzero"/><path fill="#f14624" d="M 942.199219 783.394531 C 942.464844 670.230469 941.3125 580.445312 938.734375 514.039062 L 996.441406 498.757812 C 994.503906 539.988281 993.566406 576.898438 993.640625 609.484375 L 1028.441406 598.535156 C 1028.535156 581 1028.40625 563.9375 1028.074219 547.332031 C 1027.730469 530.734375 1028.082031 513.578125 1029.113281 495.875 C 1038.199219 492.453125 1047.949219 489.332031 1058.367188 486.511719 C 1068.792969 483.695312 1075.96875 481.792969 1079.917969 480.804688 L 1085.777344 478.960938 C 1081.367188 518.71875 1080.0625 573.582031 1081.855469 643.535156 C 1082.210938 675.097656 1083.183594 707.265625 1084.761719 740.046875 L 1029.566406 757.042969 C 1029.917969 742.144531 1030.121094 728.109375 1030.199219 714.957031 C 1030.265625 701.816406 1030.359375 688.785156 1030.46875 675.867188 C 1030.582031 662.953125 1030.617188 651.886719 1030.574219 642.640625 L 995.929688 652.472656 C 996.160156 683.320312 996.082031 719.582031 995.6875 761.257812 L 942.199219 783.394531 " fill-opacity="1" fill-rule="nonzero"/><path fill="#f14624" d="M 1106.390625 703.675781 C 1106.609375 609.5 1105.648438 534.789062 1103.503906 479.515625 L 1151.527344 466.800781 C 1149.914062 501.117188 1149.140625 531.835938 1149.207031 558.945312 L 1178.160156 549.832031 C 1178.238281 535.238281 1178.136719 521.039062 1177.855469 507.222656 C 1177.5625 493.417969 1177.863281 479.140625 1178.714844 464.398438 C 1186.273438 461.558594 1194.394531 458.964844 1203.0625 456.609375 C 1211.738281 454.265625 1217.710938 452.6875 1221.003906 451.859375 L 1225.875 450.324219 C 1222.207031 483.414062 1221.117188 529.066406 1222.609375 587.292969 C 1222.90625 613.550781 1223.71875 640.320312 1225.03125 667.601562 L 1179.101562 681.75 C 1179.382812 669.351562 1179.5625 657.667969 1179.621094 646.726562 C 1179.679688 635.785156 1179.757812 624.945312 1179.851562 614.191406 C 1179.945312 603.445312 1179.96875 594.234375 1179.9375 586.542969 L 1151.109375 594.722656 C 1151.296875 620.398438 1151.230469 650.570312 1150.90625 685.246094 L 1106.390625 703.675781 " fill-opacity="1" fill-rule="nonzero"/><path fill="#f14624" d="M 1253.210938 616.621094 C 1253.378906 544.789062 1252.648438 487.796875 1251.015625 445.644531 L 1287.640625 435.949219 C 1286.414062 462.121094 1285.816406 485.546875 1285.867188 506.226562 L 1307.953125 499.277344 C 1308.015625 488.148438 1307.9375 477.316406 1307.722656 466.777344 C 1307.503906 456.242188 1307.722656 445.355469 1308.382812 434.113281 C 1314.148438 431.9375 1320.339844 429.960938 1326.953125 428.167969 C 1333.566406 426.386719 1338.121094 425.175781 1340.636719 424.546875 L 1344.347656 423.378906 C 1341.550781 448.613281 1340.722656 483.441406 1341.855469 527.84375 C 1342.085938 547.878906 1342.703125 568.300781 1343.707031 589.109375 L 1308.671875 599.890625 C 1308.894531 590.441406 1309.019531 581.527344 1309.070312 573.179688 C 1309.113281 564.839844 1309.175781 556.566406 1309.242188 548.371094 C 1309.3125 540.175781 1309.335938 533.140625 1309.3125 527.273438 L 1287.316406 533.515625 C 1287.460938 553.097656 1287.410156 576.113281 1287.164062 602.566406 L 1253.210938 616.621094 " fill-opacity="1" fill-rule="nonzero"/><path fill="#f14624" d="M 1409.339844 418.320312 C 1405.320312 436.621094 1401.941406 454.898438 1399.203125 473.164062 C 1396.464844 491.421875 1393.777344 509.773438 1391.140625 528.21875 C 1387.207031 528.960938 1383.316406 529.839844 1379.496094 530.832031 C 1375.675781 531.828125 1371.820312 532.824219 1367.929688 533.832031 C 1369.027344 516.632812 1369.992188 499.445312 1370.835938 482.289062 C 1371.671875 465.140625 1372.695312 447.878906 1373.898438 430.523438 C 1376.324219 429.652344 1379.164062 428.679688 1382.421875 427.582031 C 1385.691406 426.488281 1388.941406 425.363281 1392.191406 424.210938 C 1395.441406 423.054688 1398.605469 421.976562 1401.6875 420.988281 C 1404.765625 420 1407.316406 419.113281 1409.339844 418.320312 Z M 1378.234375 585.121094 C 1374.683594 585.785156 1371.691406 585.777344 1369.25 585.078125 C 1366.800781 584.386719 1364.695312 583.320312 1362.929688 581.886719 C 1359.191406 578.65625 1356.855469 574.542969 1355.90625 569.554688 C 1354.296875 561.019531 1356.898438 554.273438 1363.714844 549.308594 C 1365.984375 547.65625 1368.824219 546.511719 1372.246094 545.863281 C 1380.121094 544.382812 1386.347656 545.105469 1390.910156 548.046875 C 1395.484375 551 1398.214844 554.828125 1399.109375 559.550781 C 1400.175781 565.199219 1398.914062 570.398438 1395.320312 575.160156 C 1391.285156 580.410156 1385.585938 583.730469 1378.234375 585.121094 " fill-opacity="1" fill-rule="nonzero"/><path fill="#e7eab6" d="M 534.238281 1002.90625 L 497.949219 1202.105469 L 626.359375 1021.046875 L 521.671875 1144.898438 L 534.238281 1002.90625 " fill-opacity="1" fill-rule="nonzero"/><path fill="#e7eab6" d="M 660.246094 1021.046875 L 764.546875 1202.105469 L 838.410156 974.175781 L 758.558594 1165.835938 L 660.246094 1021.046875 " fill-opacity="1" fill-rule="nonzero"/><path fill="#e7eab6" d="M 888.769531 957.9375 L 1046.492188 1038.863281 L 1010.269531 885.179688 L 1024.15625 1012.347656 L 888.769531 957.9375 " fill-opacity="1" fill-rule="nonzero"/><path fill="#e7eab6" d="M 1074.40625 851.550781 L 1287.691406 833.59375 L 1156.757812 721.816406 L 1251.015625 825.933594 L 1074.40625 851.550781 " fill-opacity="1" fill-rule="nonzero"/><path fill="#e7eab6" d="M 789.671875 468.464844 L 626.359375 290.996094 L 599.84375 501.960938 L 640.316406 334.25 L 789.671875 468.464844 " fill-opacity="1" fill-rule="nonzero"/><path fill="#e7eab6" d="M 516.09375 522.082031 L 369.539062 462.613281 L 430.953125 585.613281 L 397.453125 486.339844 L 516.09375 522.082031 " fill-opacity="1" fill-rule="nonzero"/><path fill="#e7eab6" d="M 951.574219 450.324219 L 1074.40625 325.875 L 1060.449219 462.613281 L 1053.46875 367.738281 L 951.574219 450.324219 " fill-opacity="1" fill-rule="nonzero"/></svg>