<svg xmlns="http://www.w3.org/2000/svg" xmlns:xlink="http://www.w3.org/1999/xlink" width="2000" zoomAndPan="magnify" viewBox="0 0 1500 1499.999933" height="2000" preserveAspectRatio="xMidYMid meet" version="1.0"><defs><clipPath id="8f01bc613d"><path d="M 96.347656 247.578125 L 1403.433594 247.578125 L 1403.433594 1252.234375 L 96.347656 1252.234375 Z M 96.347656 247.578125 " clip-rule="nonzero"/></clipPath><clipPath id="0c95c2afb4"><path d="M 96.347656 724.996094 L 278.527344 650.421875 L 197.445312 505.492188 L 321.695312 543.339844 L 308.011719 390.042969 L 457.535156 521.335938 L 494.742188 259.847656 L 606.53125 495.910156 L 670.433594 321.953125 L 749.890625 484.078125 L 833.796875 247.578125 L 922.253906 490.746094 L 1015.617188 291.789062 L 1066.957031 497.671875 L 1214.628906 360.5625 L 1185.996094 580 L 1325.46875 523.507812 L 1250.808594 632.761719 L 1403.433594 724.996094 L 1232.640625 790.65625 L 1325.46875 926.488281 L 1198.089844 913.050781 L 1268.683594 1126.96875 L 1067.203125 969.746094 L 1047.558594 1114.675781 L 944.363281 972.210938 L 882.9375 1166.261719 L 806.777344 1026.25 L 696.210938 1252.234375 L 612.671875 1031.160156 L 491.257812 1109.8125 L 477.539062 972.210938 L 330.125 1122.046875 L 359.609375 893.601562 L 174.3125 926.476562 L 244.132812 792.894531 Z M 96.347656 724.996094 " clip-rule="nonzero"/></clipPath><clipPath id="b3d918e742"><path d="M 96.347656 724.996094 L 278.527344 650.421875 L 197.445312 505.492188 L 321.695312 543.339844 L 308.011719 390.042969 L 457.535156 521.335938 L 494.742188 259.847656 L 606.53125 495.910156 L 670.433594 321.953125 L 749.890625 484.078125 L 833.796875 247.578125 L 922.253906 490.746094 L 1015.617188 291.789062 L 1066.957031 497.671875 L 1214.628906 360.5625 L 1185.996094 580 L 1325.46875 523.507812 L 1250.808594 632.761719 L 1403.433594 724.996094 L 1232.640625 790.65625 L 1325.46875 926.488281 L 1198.089844 913.050781 L 1268.683594 1126.96875 L 1067.203125 969.746094 L 1047.558594 1114.675781 L 944.363281 972.210938 L 882.9375 1166.261719 L 806.777344 1026.25 L 696.210938 1252.234375 L 612.671875 1031.160156 L 491.257812 1109.8125 L 477.539062 972.210938 L 330.125 1122.046875 L 359.609375 893.601562 L 174.3125 926.476562 L 244.132812 792.894531 L 96.347656 724.996094 " clip-rule="nonzero"/></clipPath><radialGradient gradientTransform="matrix(-1.000112, 0, 0, -0.999888, 749.88867, 749.903017)" gradientUnits="userSpaceOnUse" r="582.847257" cx="0" id="cb5e4b9ae5" cy="0" fx="0" fy="0"><stop stop-opacity="1" stop-color="rgb(92.939758%, 35.098267%, 44.514465%)" offset="0"/><stop stop-opacity="1" stop-color="rgb(92.939758%, 34.718323%, 44.314575%)" offset="0.00390625"/><stop stop-opacity="1" stop-color="rgb(92.939758%, 34.518433%, 44.128418%)" offset="0.0078125"/><stop stop-opacity="1" stop-color="rgb(92.939758%, 34.332275%, 43.756104%)" offset="0.0117188"/><stop stop-opacity="1" stop-color="rgb(92.939758%, 34.136963%, 43.374634%)" offset="0.015625"/><stop stop-opacity="1" stop-color="rgb(92.939758%, 34.09729%, 43.141174%)" offset="0.0195312"/><stop stop-opacity="1" stop-color="rgb(92.939758%, 33.901978%, 42.906189%)" offset="0.0234375"/><stop stop-opacity="1" stop-color="rgb(92.939758%, 33.71582%, 42.532349%)" offset="0.0273438"/><stop stop-opacity="1" stop-color="rgb(92.939758%, 33.51593%, 42.341614%)" offset="0.03125"/><stop stop-opacity="1" stop-color="rgb(92.939758%, 33.329773%, 42.14325%)" offset="0.0351562"/><stop stop-opacity="1" stop-color="rgb(92.939758%, 33.329773%, 41.76178%)" offset="0.0390625"/><stop stop-opacity="1" stop-color="rgb(92.939758%, 33.140564%, 41.571045%)" offset="0.0429688"/><stop stop-opacity="1" stop-color="rgb(92.939758%, 32.945251%, 41.384888%)" offset="0.046875"/><stop stop-opacity="1" stop-color="rgb(92.939758%, 32.759094%, 41.004944%)" offset="0.0507812"/><stop stop-opacity="1" stop-color="rgb(92.939758%, 32.563782%, 40.794373%)" offset="0.0546875"/><stop stop-opacity="1" stop-color="rgb(92.939758%, 32.548523%, 40.608215%)" offset="0.0585938"/><stop stop-opacity="1" stop-color="rgb(92.939758%, 32.35321%, 40.21759%)" offset="0.0625"/><stop stop-opacity="1" stop-color="rgb(92.939758%, 32.142639%, 39.984131%)" offset="0.0664062"/><stop stop-opacity="1" stop-color="rgb(92.939758%, 31.942749%, 39.778137%)" offset="0.0703125"/><stop stop-opacity="1" stop-color="rgb(92.939758%, 31.759644%, 39.402771%)" offset="0.0742188"/><stop stop-opacity="1" stop-color="rgb(92.939758%, 31.758118%, 39.21814%)" offset="0.078125"/><stop stop-opacity="1" stop-color="rgb(92.939758%, 31.565857%, 39.021301%)" offset="0.0820312"/><stop stop-opacity="1" stop-color="rgb(92.939758%, 31.37207%, 38.822937%)" offset="0.0859375"/><stop stop-opacity="1" stop-color="rgb(92.939758%, 31.185913%, 38.63678%)" offset="0.0898438"/><stop stop-opacity="1" stop-color="rgb(92.939758%, 30.992126%, 38.262939%)" offset="0.09375"/><stop stop-opacity="1" stop-color="rgb(92.939758%, 30.805969%, 38.05542%)" offset="0.0976562"/><stop stop-opacity="1" stop-color="rgb(92.939758%, 30.587769%, 37.843323%)" offset="0.101562"/><stop stop-opacity="1" stop-color="rgb(92.939758%, 30.371094%, 37.6297%)" offset="0.105469"/><stop stop-opacity="1" stop-color="rgb(92.939758%, 30.184937%, 37.42981%)" offset="0.109375"/><stop stop-opacity="1" stop-color="rgb(92.939758%, 29.985046%, 37.240601%)" offset="0.113281"/><stop stop-opacity="1" stop-color="rgb(92.939758%, 29.798889%, 37.04071%)" offset="0.117188"/><stop stop-opacity="1" stop-color="rgb(92.939758%, 29.798889%, 36.659241%)" offset="0.121094"/><stop stop-opacity="1" stop-color="rgb(92.939758%, 29.608154%, 36.468506%)" offset="0.125"/><stop stop-opacity="1" stop-color="rgb(92.939758%, 29.414368%, 36.282349%)" offset="0.128906"/><stop stop-opacity="1" stop-color="rgb(92.939758%, 29.22821%, 35.906982%)" offset="0.132812"/><stop stop-opacity="1" stop-color="rgb(92.939758%, 29.032898%, 35.702515%)" offset="0.136719"/><stop stop-opacity="1" stop-color="rgb(92.939758%, 29.019165%, 35.51178%)" offset="0.140625"/><stop stop-opacity="1" stop-color="rgb(92.939758%, 28.823853%, 35.290527%)" offset="0.144531"/><stop stop-opacity="1" stop-color="rgb(92.939758%, 28.611755%, 35.072327%)" offset="0.148438"/><stop stop-opacity="1" stop-color="rgb(92.939758%, 28.416443%, 34.887695%)" offset="0.152344"/><stop stop-opacity="1" stop-color="rgb(92.939758%, 28.239441%, 34.692383%)" offset="0.15625"/><stop stop-opacity="1" stop-color="rgb(92.939758%, 28.236389%, 34.506226%)" offset="0.160156"/><stop stop-opacity="1" stop-color="rgb(92.939758%, 28.038025%, 34.312439%)" offset="0.164062"/><stop stop-opacity="1" stop-color="rgb(92.939758%, 27.841187%, 34.120178%)" offset="0.167969"/><stop stop-opacity="1" stop-color="rgb(92.939758%, 27.839661%, 33.934021%)" offset="0.171875"/><stop stop-opacity="1" stop-color="rgb(92.939758%, 27.659607%, 33.740234%)" offset="0.175781"/><stop stop-opacity="1" stop-color="rgb(92.939758%, 27.464294%, 33.5495%)" offset="0.179688"/><stop stop-opacity="1" stop-color="rgb(92.939758%, 27.278137%, 33.349609%)" offset="0.183594"/><stop stop-opacity="1" stop-color="rgb(92.939758%, 27.082825%, 33.13446%)" offset="0.1875"/><stop stop-opacity="1" stop-color="rgb(92.939758%, 27.044678%, 32.923889%)" offset="0.191406"/><stop stop-opacity="1" stop-color="rgb(92.939758%, 26.849365%, 32.717896%)" offset="0.195312"/><stop stop-opacity="1" stop-color="rgb(92.939758%, 26.663208%, 32.342529%)" offset="0.199219"/><stop stop-opacity="1" stop-color="rgb(92.939758%, 26.463318%, 31.967163%)" offset="0.203125"/><stop stop-opacity="1" stop-color="rgb(92.939758%, 26.086426%, 31.767273%)" offset="0.214844"/><stop stop-opacity="1" stop-color="rgb(92.939758%, 25.891113%, 31.581116%)" offset="0.21875"/><stop stop-opacity="1" stop-color="rgb(92.939758%, 25.878906%, 31.385803%)" offset="0.222656"/><stop stop-opacity="1" stop-color="rgb(92.939758%, 25.878906%, 31.150818%)" offset="0.226562"/><stop stop-opacity="1" stop-color="rgb(92.939758%, 25.683594%, 30.752563%)" offset="0.230469"/><stop stop-opacity="1" stop-color="rgb(92.939758%, 25.485229%, 30.384827%)" offset="0.242188"/><stop stop-opacity="1" stop-color="rgb(92.939758%, 25.289917%, 30.198669%)" offset="0.246094"/><stop stop-opacity="1" stop-color="rgb(92.939758%, 25.099182%, 30.003357%)" offset="0.25"/><stop stop-opacity="1" stop-color="rgb(92.939758%, 24.90387%, 29.621887%)" offset="0.253906"/><stop stop-opacity="1" stop-color="rgb(92.939758%, 24.531555%, 29.423523%)" offset="0.261719"/><stop stop-opacity="1" stop-color="rgb(92.939758%, 24.331665%, 29.214478%)" offset="0.269531"/><stop stop-opacity="1" stop-color="rgb(92.939758%, 24.113464%, 28.823853%)" offset="0.273438"/><stop stop-opacity="1" stop-color="rgb(92.939758%, 23.724365%, 28.433228%)" offset="0.28125"/><stop stop-opacity="1" stop-color="rgb(92.939758%, 23.529053%, 28.045654%)" offset="0.289062"/><stop stop-opacity="1" stop-color="rgb(92.939758%, 23.33374%, 27.66571%)" offset="0.296875"/><stop stop-opacity="1" stop-color="rgb(92.939758%, 22.969055%, 27.464294%)" offset="0.304688"/><stop stop-opacity="1" stop-color="rgb(92.939758%, 22.773743%, 27.253723%)" offset="0.3125"/><stop stop-opacity="1" stop-color="rgb(92.939758%, 22.738647%, 26.864624%)" offset="0.316406"/><stop stop-opacity="1" stop-color="rgb(92.939758%, 22.538757%, 26.667786%)" offset="0.324219"/><stop stop-opacity="1" stop-color="rgb(92.939758%, 22.349548%, 26.470947%)" offset="0.332031"/><stop stop-opacity="1" stop-color="rgb(92.939758%, 22.154236%, 26.272583%)" offset="0.335938"/><stop stop-opacity="1" stop-color="rgb(92.939758%, 21.784973%, 26.074219%)" offset="0.34375"/><stop stop-opacity="1" stop-color="rgb(92.939758%, 21.572876%, 25.683594%)" offset="0.351562"/><stop stop-opacity="1" stop-color="rgb(92.939758%, 21.356201%, 25.294495%)" offset="0.359375"/><stop stop-opacity="1" stop-color="rgb(92.939758%, 21.179199%, 25.099182%)" offset="0.367188"/><stop stop-opacity="1" stop-color="rgb(92.939758%, 20.988464%, 24.90387%)" offset="0.375"/><stop stop-opacity="1" stop-color="rgb(92.939758%, 20.602417%, 24.517822%)" offset="0.382812"/><stop stop-opacity="1" stop-color="rgb(92.939758%, 20.397949%, 24.29657%)" offset="0.390625"/><stop stop-opacity="1" stop-color="rgb(92.939758%, 20.376587%, 24.092102%)" offset="0.398438"/><stop stop-opacity="1" stop-color="rgb(92.939758%, 20.181274%, 23.724365%)" offset="0.40625"/><stop stop-opacity="1" stop-color="rgb(92.939758%, 19.804382%, 23.33374%)" offset="0.414062"/><stop stop-opacity="1" stop-color="rgb(92.939758%, 19.60907%, 22.969055%)" offset="0.429688"/><stop stop-opacity="1" stop-color="rgb(92.939758%, 19.413757%, 22.773743%)" offset="0.4375"/><stop stop-opacity="1" stop-color="rgb(92.939758%, 19.113159%, 22.644043%)" offset="0.441406"/><stop stop-opacity="1" stop-color="rgb(92.939758%, 18.913269%, 22.444153%)" offset="0.449219"/><stop stop-opacity="1" stop-color="rgb(92.939758%, 18.623352%, 22.154236%)" offset="0.457031"/><stop stop-opacity="1" stop-color="rgb(92.939758%, 18.331909%, 21.763611%)" offset="0.472656"/><stop stop-opacity="1" stop-color="rgb(92.939758%, 18.136597%, 21.464539%)" offset="0.480469"/><stop stop-opacity="1" stop-color="rgb(92.939758%, 17.843628%, 21.269226%)" offset="0.488281"/><stop stop-opacity="1" stop-color="rgb(92.939758%, 17.649841%, 20.983887%)" offset="0.496094"/><stop stop-opacity="1" stop-color="rgb(92.939758%, 17.649841%, 20.783997%)" offset="0.503906"/><stop stop-opacity="1" stop-color="rgb(92.939758%, 17.463684%, 20.779419%)" offset="0.507812"/><stop stop-opacity="1" stop-color="rgb(92.939758%, 17.262268%, 20.779419%)" offset="0.511719"/><stop stop-opacity="1" stop-color="rgb(92.939758%, 17.053223%, 20.584106%)" offset="0.515625"/><stop stop-opacity="1" stop-color="rgb(92.939758%, 16.859436%, 20.193481%)" offset="0.527344"/><stop stop-opacity="1" stop-color="rgb(92.939758%, 16.664124%, 19.804382%)" offset="0.539062"/><stop stop-opacity="1" stop-color="rgb(92.939758%, 16.468811%, 19.60907%)" offset="0.550781"/><stop stop-opacity="1" stop-color="rgb(92.939758%, 16.273499%, 19.413757%)" offset="0.5625"/><stop stop-opacity="1" stop-color="rgb(92.939758%, 16.073608%, 19.219971%)" offset="0.574219"/><stop stop-opacity="1" stop-color="rgb(92.939758%, 15.878296%, 19.216919%)" offset="0.578125"/><stop stop-opacity="1" stop-color="rgb(92.939758%, 15.689087%, 19.020081%)" offset="0.582031"/><stop stop-opacity="1" stop-color="rgb(92.939758%, 15.505981%, 18.821716%)" offset="0.585938"/><stop stop-opacity="1" stop-color="rgb(92.939758%, 15.306091%, 18.623352%)" offset="0.597656"/><stop stop-opacity="1" stop-color="rgb(92.939758%, 15.284729%, 18.234253%)" offset="0.609375"/><stop stop-opacity="1" stop-color="rgb(92.939758%, 15.089417%, 17.945862%)" offset="0.621094"/><stop stop-opacity="1" stop-color="rgb(92.939758%, 14.703369%, 17.741394%)" offset="0.632812"/><stop stop-opacity="1" stop-color="rgb(92.939758%, 14.31427%, 17.43927%)" offset="0.652344"/><stop stop-opacity="1" stop-color="rgb(92.939758%, 13.923645%, 17.053223%)" offset="0.671875"/><stop stop-opacity="1" stop-color="rgb(92.939758%, 13.729858%, 16.664124%)" offset="0.691406"/><stop stop-opacity="1" stop-color="rgb(92.939758%, 13.537598%, 16.468811%)" offset="0.707031"/><stop stop-opacity="1" stop-color="rgb(92.939758%, 13.3255%, 16.273499%)" offset="0.722656"/><stop stop-opacity="1" stop-color="rgb(92.939758%, 13.122559%, 16.079712%)" offset="0.730469"/><stop stop-opacity="1" stop-color="rgb(92.939758%, 12.744141%, 15.884399%)" offset="0.761719"/><stop stop-opacity="1" stop-color="rgb(92.939758%, 12.548828%, 15.553284%)" offset="0.773438"/><stop stop-opacity="1" stop-color="rgb(92.939758%, 12.353516%, 15.353394%)" offset="0.785156"/><stop stop-opacity="1" stop-color="rgb(92.939758%, 12.159729%, 15.093994%)" offset="0.808594"/><stop stop-opacity="1" stop-color="rgb(92.939758%, 12.159729%, 14.898682%)" offset="0.832031"/><stop stop-opacity="1" stop-color="rgb(92.939758%, 11.967468%, 14.898682%)" offset="0.839844"/><stop stop-opacity="1" stop-color="rgb(92.939758%, 11.669922%, 14.801025%)" offset="0.847656"/><stop stop-opacity="1" stop-color="rgb(92.939758%, 11.46698%, 14.607239%)" offset="0.855469"/><stop stop-opacity="1" stop-color="rgb(92.939758%, 11.174011%, 14.31427%)" offset="0.890625"/><stop stop-opacity="1" stop-color="rgb(92.939758%, 10.978699%, 14.118958%)" offset="1"/></radialGradient><clipPath id="0ba267bb74"><path d="M 90 241.808594 L 1410 241.808594 L 1410 1258 L 90 1258 Z M 90 241.808594 " clip-rule="nonzero"/></clipPath><clipPath id="2c5932c4e2"><path d="M 190 562 L 349.265625 562 L 349.265625 864 L 190 864 Z M 190 562 " clip-rule="nonzero"/></clipPath><clipPath id="fe20d4e3fe"><path d="M 274.535156 641.355469 C 272.753906 650.152344 271.074219 658.949219 269.492188 667.730469 L 264.742188 694.128906 C 279.535156 682.398438 290.183594 668.71875 296.691406 653.066406 C 298.160156 649.625 298.921875 646.824219 298.96875 644.695312 C 299.070312 640.144531 296.523438 637.816406 291.347656 637.703125 C 287.367188 637.613281 281.765625 638.847656 274.535156 641.355469 Z M 255.808594 748.515625 C 254.007812 758.65625 252.023438 772.382812 249.859375 789.726562 C 278.179688 778.835938 292.492188 766.027344 292.804688 751.316406 C 292.917969 745.972656 289.488281 743.214844 282.527344 743.070312 C 276.351562 742.9375 267.441406 744.761719 255.808594 748.515625 Z M 227.726562 580.953125 C 234.125 579.753906 246.148438 576.40625 263.789062 570.890625 C 279.019531 566.398438 291.234375 563.585938 300.425781 562.445312 C 304.011719 562.253906 307.496094 562.1875 310.882812 562.265625 C 337.171875 562.824219 349.9375 575.675781 349.207031 600.808594 C 348.445312 636.382812 331.355469 671.609375 297.949219 706.476562 C 318.492188 705.042969 330.179688 713.054688 332.992188 730.5 C 333.507812 734.261719 333.722656 738.140625 333.640625 742.152344 C 333.207031 762.21875 325.605469 782.386719 310.835938 802.667969 C 299.539062 818.21875 285.710938 831.832031 269.324219 843.527344 C 249.703125 857.558594 227.34375 864.300781 202.261719 863.765625 C 198.273438 863.6875 194.296875 863.460938 190.328125 863.113281 C 199.261719 808.460938 209.390625 734.957031 220.734375 642.609375 C 224.074219 616.472656 226.402344 595.910156 227.726562 580.953125 Z M 227.726562 580.953125 " clip-rule="nonzero"/></clipPath><clipPath id="946a6e39c0"><path d="M 274.535156 641.355469 C 272.753906 650.152344 271.074219 658.949219 269.492188 667.730469 L 264.742188 694.128906 C 279.535156 682.398438 290.183594 668.71875 296.691406 653.066406 C 298.160156 649.625 298.921875 646.824219 298.96875 644.695312 C 299.070312 640.144531 296.523438 637.816406 291.347656 637.703125 C 287.367188 637.613281 281.765625 638.847656 274.535156 641.355469 Z M 255.808594 748.515625 C 254.007812 758.65625 252.023438 772.382812 249.859375 789.726562 C 278.179688 778.835938 292.492188 766.027344 292.804688 751.316406 C 292.917969 745.972656 289.488281 743.214844 282.527344 743.070312 C 276.351562 742.9375 267.441406 744.761719 255.808594 748.515625 Z M 227.726562 580.953125 C 234.125 579.753906 246.148438 576.40625 263.789062 570.890625 C 279.019531 566.398438 291.234375 563.585938 300.425781 562.445312 C 304.011719 562.253906 307.496094 562.1875 310.882812 562.265625 C 337.171875 562.824219 349.9375 575.675781 349.207031 600.808594 C 348.445312 636.382812 331.355469 671.609375 297.949219 706.476562 C 318.492188 705.042969 330.179688 713.054688 332.992188 730.5 C 333.507812 734.261719 333.722656 738.140625 333.640625 742.152344 C 333.207031 762.21875 325.605469 782.386719 310.835938 802.667969 C 299.539062 818.21875 285.710938 831.832031 269.324219 843.527344 C 249.703125 857.558594 227.34375 864.300781 202.261719 863.765625 C 198.273438 863.6875 194.296875 863.460938 190.328125 863.113281 C 199.261719 808.460938 209.390625 734.957031 220.734375 642.609375 C 224.074219 616.472656 226.402344 595.910156 227.726562 580.953125 " clip-rule="nonzero"/></clipPath><clipPath id="d90f46e03c"><path d="M 187.804688 562.207031 L 190.339844 865.636719 L 352.449219 864.28125 L 349.925781 560.863281 Z M 187.804688 562.207031 " clip-rule="nonzero"/></clipPath><linearGradient x1="0.343459" gradientTransform="matrix(4340.931907, -36.131948, 36.140055, 4339.958307, -1301.862949, 725.596258)" y1="0" x2="0.38065" gradientUnits="userSpaceOnUse" y2="0" id="5d8d22d9ff"><stop stop-opacity="1" stop-color="rgb(23.139954%, 21.569824%, 22.749329%)" offset="0"/><stop stop-opacity="1" stop-color="rgb(23.139954%, 21.569824%, 22.595215%)" offset="0.0625"/><stop stop-opacity="1" stop-color="rgb(22.988892%, 21.569824%, 22.395325%)" offset="0.125"/><stop stop-opacity="1" stop-color="rgb(22.793579%, 21.417236%, 22.349548%)" offset="0.1875"/><stop stop-opacity="1" stop-color="rgb(22.592163%, 21.221924%, 22.195435%)" offset="0.25"/><stop stop-opacity="1" stop-color="rgb(22.392273%, 21.179199%, 22.000122%)" offset="0.3125"/><stop stop-opacity="1" stop-color="rgb(22.349548%, 21.020508%, 21.803284%)" offset="0.375"/><stop stop-opacity="1" stop-color="rgb(22.193909%, 20.820618%, 21.609497%)" offset="0.4375"/><stop stop-opacity="1" stop-color="rgb(21.998596%, 20.779419%, 21.412659%)" offset="0.5"/><stop stop-opacity="1" stop-color="rgb(21.781921%, 20.602417%, 21.217346%)" offset="0.625"/><stop stop-opacity="1" stop-color="rgb(21.586609%, 20.326233%, 21.096802%)" offset="0.6875"/><stop stop-opacity="1" stop-color="rgb(21.569824%, 20.13092%, 20.913696%)" offset="0.75"/><stop stop-opacity="1" stop-color="rgb(21.487427%, 20.016479%, 20.713806%)" offset="0.8125"/><stop stop-opacity="1" stop-color="rgb(21.308899%, 19.999695%, 20.518494%)" offset="0.875"/><stop stop-opacity="1" stop-color="rgb(21.110535%, 19.917297%, 20.404053%)" offset="0.9375"/><stop stop-opacity="1" stop-color="rgb(20.909119%, 19.735718%, 20.388794%)" offset="1"/></linearGradient><clipPath id="3cff489a27"><path d="M 327 553.019531 L 498 553.019531 L 498 876 L 327 876 Z M 327 553.019531 " clip-rule="nonzero"/></clipPath><clipPath id="23be4d5732"><path d="M 434.730469 653.210938 C 423.78125 652.976562 412.382812 664.773438 400.515625 688.59375 C 390.945312 707.394531 384.1875 725.847656 380.207031 743.945312 C 378.210938 753.535156 377.136719 762.21875 376.96875 769.972656 C 376.734375 780.941406 378.527344 789.9375 382.359375 796.976562 C 386.773438 804.828125 393.0625 808.839844 401.230469 809.007812 C 412.382812 809.253906 422.601562 801.578125 431.90625 785.996094 C 439.335938 773.578125 444.828125 758.847656 448.378906 741.792969 C 452.59375 721.816406 453.8125 702.039062 452.03125 682.476562 C 450.058594 663.160156 444.289062 653.414062 434.730469 653.210938 Z M 447.605469 553.941406 C 468.71875 554.398438 483.3125 570.5 491.402344 602.242188 C 495.628906 618.65625 497.542969 636.628906 497.117188 656.144531 C 496.714844 674.867188 494.191406 695.148438 489.542969 716.984375 C 481.382812 754.273438 467.902344 788.503906 449.109375 819.675781 C 426.1875 857.714844 402.375 876.46875 377.6875 875.945312 C 356.382812 875.484375 341.589844 859.382812 333.304688 827.628906 C 329.261719 812.035156 327.433594 794.597656 327.847656 775.339844 C 328.25 756.359375 330.886719 735.808594 335.738281 713.703125 C 343.90625 676.144531 357.289062 641.78125 375.882812 610.613281 C 398.8125 572.304688 422.726562 553.414062 447.605469 553.941406 Z M 447.605469 553.941406 " clip-rule="nonzero"/></clipPath><clipPath id="47dc9b4c33"><path d="M 434.730469 653.210938 C 423.78125 652.976562 412.382812 664.773438 400.515625 688.59375 C 390.945312 707.394531 384.1875 725.847656 380.207031 743.945312 C 378.210938 753.535156 377.136719 762.21875 376.96875 769.972656 C 376.734375 780.941406 378.527344 789.9375 382.359375 796.976562 C 386.773438 804.828125 393.0625 808.839844 401.230469 809.007812 C 412.382812 809.253906 422.601562 801.578125 431.90625 785.996094 C 439.335938 773.578125 444.828125 758.847656 448.378906 741.792969 C 452.59375 721.816406 453.8125 702.039062 452.03125 682.476562 C 450.058594 663.160156 444.289062 653.414062 434.730469 653.210938 Z M 447.605469 553.941406 C 468.71875 554.398438 483.3125 570.5 491.402344 602.242188 C 495.628906 618.65625 497.542969 636.628906 497.117188 656.144531 C 496.714844 674.867188 494.191406 695.148438 489.542969 716.984375 C 481.382812 754.273438 467.902344 788.503906 449.109375 819.675781 C 426.1875 857.714844 402.375 876.46875 377.6875 875.945312 C 356.382812 875.484375 341.589844 859.382812 333.304688 827.628906 C 329.261719 812.035156 327.433594 794.597656 327.847656 775.339844 C 328.25 756.359375 330.886719 735.808594 335.738281 713.703125 C 343.90625 676.144531 357.289062 641.78125 375.882812 610.613281 C 398.8125 572.304688 422.726562 553.414062 447.605469 553.941406 " clip-rule="nonzero"/></clipPath><clipPath id="0771c28541"><path d="M 324.746094 553.433594 L 327.445312 877.882812 L 500.234375 876.449219 L 497.53125 552 Z M 324.746094 553.433594 " clip-rule="nonzero"/></clipPath><linearGradient x1="0.375018" gradientTransform="matrix(4340.874307, -36.131472, 36.139574, 4339.900707, -1301.816559, 728.817208)" y1="0" x2="0.414823" gradientUnits="userSpaceOnUse" y2="0" id="0870f35f16"><stop stop-opacity="1" stop-color="rgb(21.179199%, 19.60907%, 20.388794%)" offset="0"/><stop stop-opacity="1" stop-color="rgb(21.179199%, 19.60907%, 20.388794%)" offset="0.125"/><stop stop-opacity="1" stop-color="rgb(21.080017%, 19.511414%, 20.291138%)" offset="0.1875"/><stop stop-opacity="1" stop-color="rgb(20.880127%, 19.317627%, 20.097351%)" offset="0.25"/><stop stop-opacity="1" stop-color="rgb(20.587158%, 19.219971%, 19.807434%)" offset="0.375"/><stop stop-opacity="1" stop-color="rgb(20.295715%, 19.122314%, 19.610596%)" offset="0.4375"/><stop stop-opacity="1" stop-color="rgb(20.101929%, 18.925476%, 19.60907%)" offset="0.5"/><stop stop-opacity="1" stop-color="rgb(20.002747%, 18.630981%, 19.418335%)" offset="0.625"/><stop stop-opacity="1" stop-color="rgb(19.906616%, 18.432617%, 19.128418%)" offset="0.6875"/><stop stop-opacity="1" stop-color="rgb(19.715881%, 18.429565%, 18.928528%)" offset="0.75"/><stop stop-opacity="1" stop-color="rgb(19.613647%, 18.240356%, 18.823242%)" offset="0.875"/><stop stop-opacity="1" stop-color="rgb(19.421387%, 17.857361%, 18.630981%)" offset="1"/></linearGradient><clipPath id="e21b4a2506"><path d="M 475.5 557 L 646 557 L 646 880 L 475.5 880 Z M 475.5 557 " clip-rule="nonzero"/></clipPath><clipPath id="46a85ec480"><path d="M 582.570312 656.359375 C 571.621094 656.125 560.214844 667.921875 548.355469 691.753906 C 538.785156 710.554688 532.015625 728.996094 528.050781 747.105469 C 526.042969 756.695312 524.96875 765.367188 524.800781 773.121094 C 524.5625 784.089844 526.355469 793.097656 530.199219 800.132812 C 534.605469 807.988281 540.902344 812 549.0625 812.167969 C 560.214844 812.414062 570.433594 804.738281 579.734375 789.144531 C 587.175781 776.726562 592.667969 761.996094 596.222656 744.953125 C 600.421875 724.964844 601.644531 705.199219 599.875 685.625 C 597.890625 666.320312 592.128906 656.570312 582.570312 656.359375 Z M 595.449219 557.097656 C 616.550781 557.546875 631.140625 573.648438 639.234375 605.402344 C 643.46875 621.804688 645.375 639.777344 644.960938 659.292969 C 644.554688 678.015625 642.035156 698.308594 637.382812 720.144531 C 629.214844 757.433594 615.730469 791.652344 596.9375 822.824219 C 574.019531 860.863281 550.207031 879.617188 525.527344 879.101562 C 504.222656 878.644531 489.429688 862.542969 481.136719 830.789062 C 477.089844 815.191406 475.277344 797.746094 475.679688 778.5 C 476.09375 759.507812 478.714844 738.96875 483.570312 716.851562 C 491.738281 679.304688 505.132812 644.941406 523.722656 613.769531 C 546.652344 575.464844 570.558594 556.574219 595.449219 557.097656 Z M 595.449219 557.097656 " clip-rule="nonzero"/></clipPath><clipPath id="758bd15d08"><path d="M 582.570312 656.359375 C 571.621094 656.125 560.214844 667.921875 548.355469 691.753906 C 538.785156 710.554688 532.015625 728.996094 528.050781 747.105469 C 526.042969 756.695312 524.96875 765.367188 524.800781 773.121094 C 524.5625 784.089844 526.355469 793.097656 530.199219 800.132812 C 534.605469 807.988281 540.902344 812 549.0625 812.167969 C 560.214844 812.414062 570.433594 804.738281 579.734375 789.144531 C 587.175781 776.726562 592.667969 761.996094 596.222656 744.953125 C 600.421875 724.964844 601.644531 705.199219 599.875 685.625 C 597.890625 666.320312 592.128906 656.570312 582.570312 656.359375 Z M 595.449219 557.097656 C 616.550781 557.546875 631.140625 573.648438 639.234375 605.402344 C 643.46875 621.804688 645.375 639.777344 644.960938 659.292969 C 644.554688 678.015625 642.035156 698.308594 637.382812 720.144531 C 629.214844 757.433594 615.730469 791.652344 596.9375 822.824219 C 574.019531 860.863281 550.207031 879.617188 525.527344 879.101562 C 504.222656 878.644531 489.429688 862.542969 481.136719 830.789062 C 477.089844 815.191406 475.277344 797.746094 475.679688 778.5 C 476.09375 759.507812 478.714844 738.96875 483.570312 716.851562 C 491.738281 679.304688 505.132812 644.941406 523.722656 613.769531 C 546.652344 575.464844 570.558594 556.574219 595.449219 557.097656 " clip-rule="nonzero"/></clipPath><clipPath id="d99cc2cf03"><path d="M 472.585938 556.59375 L 475.285156 881.042969 L 648.0625 879.597656 L 645.363281 555.148438 Z M 472.585938 556.59375 " clip-rule="nonzero"/></clipPath><linearGradient x1="0.409118" gradientTransform="matrix(4340.903107, -36.131708, 36.139814, 4339.929507, -1301.783359, 733.199717)" y1="0" x2="0.448868" gradientUnits="userSpaceOnUse" y2="0" id="afb0bb0396"><stop stop-opacity="1" stop-color="rgb(19.219971%, 18.03894%, 18.429565%)" offset="0"/><stop stop-opacity="1" stop-color="rgb(19.219971%, 18.035889%, 18.424988%)" offset="0.125"/><stop stop-opacity="1" stop-color="rgb(19.216919%, 17.83905%, 18.229675%)" offset="0.25"/><stop stop-opacity="1" stop-color="rgb(19.114685%, 17.544556%, 18.03894%)" offset="0.3125"/><stop stop-opacity="1" stop-color="rgb(18.916321%, 17.346191%, 18.037415%)" offset="0.375"/><stop stop-opacity="1" stop-color="rgb(18.818665%, 17.248535%, 17.843628%)" offset="0.5"/><stop stop-opacity="1" stop-color="rgb(18.624878%, 17.054749%, 17.649841%)" offset="0.625"/><stop stop-opacity="1" stop-color="rgb(18.334961%, 16.860962%, 17.550659%)" offset="0.6875"/><stop stop-opacity="1" stop-color="rgb(18.141174%, 16.859436%, 17.353821%)" offset="0.75"/><stop stop-opacity="1" stop-color="rgb(18.041992%, 16.664124%, 17.062378%)" offset="1"/></linearGradient><clipPath id="b2f59ff8fb"><path d="M 604 578 L 831 578 L 831 893 L 604 893 Z M 604 578 " clip-rule="nonzero"/></clipPath><clipPath id="5ac92347b4"><path d="M 604.523438 873.558594 C 633.359375 782.667969 655.851562 690.039062 672.011719 595.652344 L 743.726562 581.535156 L 730.300781 728.503906 L 761.164062 593.132812 L 830.144531 578.566406 C 820.113281 665.582031 814.351562 744.125 812.863281 814.195312 C 812.558594 828.101562 812.269531 841.871094 811.976562 855.519531 L 750.742188 868.648438 L 765.242188 693.164062 L 721.960938 886.902344 L 688.980469 892.222656 L 713.972656 645.511719 L 666.890625 863.652344 Z M 604.523438 873.558594 " clip-rule="nonzero"/></clipPath><clipPath id="10abc04334"><path d="M 604.523438 873.558594 C 633.359375 782.667969 655.851562 690.039062 672.011719 595.652344 L 743.726562 581.535156 L 730.300781 728.503906 L 761.164062 593.132812 L 830.144531 578.566406 C 820.113281 665.582031 814.351562 744.125 812.863281 814.195312 C 812.558594 828.101562 812.269531 841.871094 811.976562 855.519531 L 750.742188 868.648438 L 765.242188 693.164062 L 721.960938 886.902344 L 688.980469 892.222656 L 713.972656 645.511719 L 666.890625 863.652344 L 604.523438 873.558594 " clip-rule="nonzero"/></clipPath><clipPath id="420c9f7375"><path d="M 601.914062 578.589844 L 604.535156 894.09375 L 832.753906 892.199219 L 830.121094 576.683594 Z M 601.914062 578.589844 " clip-rule="nonzero"/></clipPath><linearGradient x1="0.43882" gradientTransform="matrix(4340.903107, -36.131708, 36.139814, 4339.929507, -1301.646759, 752.148257)" y1="0" x2="0.491393" gradientUnits="userSpaceOnUse" y2="0" id="2413c4e947"><stop stop-opacity="1" stop-color="rgb(18.03894%, 16.859436%, 17.248535%)" offset="0"/><stop stop-opacity="1" stop-color="rgb(17.852783%, 16.664124%, 17.062378%)" offset="0.25"/><stop stop-opacity="1" stop-color="rgb(17.657471%, 16.28418%, 16.682434%)" offset="0.375"/><stop stop-opacity="1" stop-color="rgb(17.460632%, 15.905762%, 16.477966%)" offset="0.5"/><stop stop-opacity="1" stop-color="rgb(17.260742%, 15.699768%, 16.287231%)" offset="0.625"/><stop stop-opacity="1" stop-color="rgb(17.068481%, 15.504456%, 16.091919%)" offset="0.75"/><stop stop-opacity="1" stop-color="rgb(16.696167%, 15.127563%, 15.884399%)" offset="1"/></linearGradient><clipPath id="b4b60aee29"><path d="M 796 582 L 1023 582 L 1023 897 L 796 897 Z M 796 582 " clip-rule="nonzero"/></clipPath><clipPath id="91adae7f1a"><path d="M 796.554688 877.65625 C 825.390625 786.765625 847.882812 694.128906 864.054688 599.765625 L 935.757812 585.636719 L 922.34375 732.605469 L 953.207031 597.234375 L 1022.175781 582.667969 C 1012.15625 669.679688 1006.394531 748.222656 1004.894531 818.285156 C 1004.601562 832.203125 1004.300781 845.972656 1004.007812 859.605469 L 942.773438 872.75 L 957.285156 697.265625 L 914.003906 891.003906 L 881.023438 896.3125 L 906.015625 649.625 L 858.921875 867.753906 Z M 796.554688 877.65625 " clip-rule="nonzero"/></clipPath><clipPath id="ee510c73a7"><path d="M 796.554688 877.65625 C 825.390625 786.765625 847.882812 694.128906 864.054688 599.765625 L 935.757812 585.636719 L 922.34375 732.605469 L 953.207031 597.234375 L 1022.175781 582.667969 C 1012.15625 669.679688 1006.394531 748.222656 1004.894531 818.285156 C 1004.601562 832.203125 1004.300781 845.972656 1004.007812 859.605469 L 942.773438 872.75 L 957.285156 697.265625 L 914.003906 891.003906 L 881.023438 896.3125 L 906.015625 649.625 L 858.921875 867.753906 L 796.554688 877.65625 " clip-rule="nonzero"/></clipPath><clipPath id="d677618251"><path d="M 793.945312 582.691406 L 796.578125 898.195312 L 1024.785156 896.289062 L 1022.164062 580.785156 Z M 793.945312 582.691406 " clip-rule="nonzero"/></clipPath><linearGradient x1="0.483045" gradientTransform="matrix(4340.903107, -36.131708, 36.139814, 4339.929507, -1301.594269, 757.838136)" y1="0" x2="0.535618" gradientUnits="userSpaceOnUse" y2="0" id="6ab4a599d9"><stop stop-opacity="1" stop-color="rgb(16.856384%, 15.286255%, 15.689087%)" offset="0"/><stop stop-opacity="1" stop-color="rgb(16.662598%, 15.092468%, 15.689087%)" offset="0.125"/><stop stop-opacity="1" stop-color="rgb(16.468811%, 14.898682%, 15.589905%)" offset="0.1875"/><stop stop-opacity="1" stop-color="rgb(16.468811%, 14.898682%, 15.391541%)" offset="0.25"/><stop stop-opacity="1" stop-color="rgb(16.273499%, 14.707947%, 15.100098%)" offset="0.5"/><stop stop-opacity="1" stop-color="rgb(15.884399%, 14.324951%, 14.71405%)" offset="1"/></linearGradient><clipPath id="40ebcbab16"><path d="M 1063 567.363281 L 1205 567.363281 L 1205 889 L 1063 889 Z M 1063 567.363281 " clip-rule="nonzero"/></clipPath><clipPath id="390d6bbc46"><path d="M 1142.613281 567.574219 L 1204.734375 582.949219 C 1187.351562 622.453125 1174.542969 653.34375 1166.296875 675.652344 C 1155.089844 706.175781 1145.011719 739.273438 1136.09375 774.933594 L 1094.636719 771.640625 Z M 1103.535156 816.378906 C 1110.53125 815.191406 1116.671875 816.660156 1121.960938 820.785156 C 1128.246094 825.210938 1131.285156 831.964844 1131.09375 841.054688 C 1130.835938 853.355469 1125.714844 864.492188 1115.742188 874.441406 C 1107.996094 882.308594 1099.636719 886.933594 1090.636719 888.347656 C 1083.441406 889.535156 1077.300781 888.324219 1072.191406 884.75 C 1066.117188 880.335938 1063.167969 873.589844 1063.359375 864.492188 C 1063.628906 852.191406 1068.546875 840.917969 1078.128906 830.6875 C 1085.875 822.566406 1094.335938 817.792969 1103.535156 816.378906 Z M 1103.535156 816.378906 " clip-rule="nonzero"/></clipPath><clipPath id="45cb12f5e6"><path d="M 1142.613281 567.574219 L 1204.734375 582.949219 C 1187.351562 622.453125 1174.542969 653.34375 1166.296875 675.652344 C 1155.089844 706.175781 1145.011719 739.273438 1136.09375 774.933594 L 1094.636719 771.640625 Z M 1103.535156 816.378906 C 1110.53125 815.191406 1116.671875 816.660156 1121.960938 820.785156 C 1128.246094 825.210938 1131.285156 831.964844 1131.09375 841.054688 C 1130.835938 853.355469 1125.714844 864.492188 1115.742188 874.441406 C 1107.996094 882.308594 1099.636719 886.933594 1090.636719 888.347656 C 1083.441406 889.535156 1077.300781 888.324219 1072.191406 884.75 C 1066.117188 880.335938 1063.167969 873.589844 1063.359375 864.492188 C 1063.628906 852.191406 1068.546875 840.917969 1078.128906 830.6875 C 1085.875 822.566406 1094.335938 817.792969 1103.535156 816.378906 " clip-rule="nonzero"/></clipPath><clipPath id="48281127b6"><path d="M 1060.492188 567.597656 L 1063.179688 890.710938 L 1207.414062 889.511719 L 1204.722656 566.398438 Z M 1060.492188 567.597656 " clip-rule="nonzero"/></clipPath><linearGradient x1="0.544472" gradientTransform="matrix(4340.930507, -36.131933, 36.140039, 4339.956807, -1301.690099, 747.887087)" y1="0" x2="0.577699" gradientUnits="userSpaceOnUse" y2="0" id="9757136390"><stop stop-opacity="1" stop-color="rgb(15.289307%, 13.729858%, 14.118958%)" offset="0"/><stop stop-opacity="1" stop-color="rgb(15.289307%, 13.729858%, 14.118958%)" offset="0.5"/><stop stop-opacity="1" stop-color="rgb(15.196228%, 13.633728%, 14.025879%)" offset="0.75"/><stop stop-opacity="1" stop-color="rgb(15.003967%, 13.43689%, 13.833618%)" offset="1"/></linearGradient><clipPath id="7cbfca64e5"><path d="M 1152.578125 569 L 1295 569 L 1295 891 L 1152.578125 891 Z M 1152.578125 569 " clip-rule="nonzero"/></clipPath><clipPath id="654f867556"><path d="M 1232.214844 569.492188 L 1294.324219 584.863281 C 1276.953125 624.359375 1264.144531 655.261719 1255.894531 677.558594 C 1244.675781 708.089844 1234.613281 741.1875 1225.691406 776.851562 L 1184.226562 773.558594 Z M 1193.136719 818.296875 C 1200.128906 817.109375 1206.269531 818.578125 1211.570312 822.699219 C 1217.835938 827.113281 1220.882812 833.871094 1220.695312 842.96875 C 1220.425781 855.269531 1215.304688 866.398438 1205.339844 876.359375 C 1197.597656 884.210938 1189.234375 888.851562 1180.246094 890.261719 C 1173.042969 891.4375 1166.890625 890.242188 1161.789062 886.65625 C 1155.714844 882.25 1152.769531 875.507812 1152.960938 866.410156 C 1153.226562 854.105469 1158.148438 842.835938 1167.730469 832.605469 C 1175.472656 824.480469 1183.945312 819.707031 1193.136719 818.296875 Z M 1193.136719 818.296875 " clip-rule="nonzero"/></clipPath><clipPath id="85b78743d9"><path d="M 1232.214844 569.492188 L 1294.324219 584.863281 C 1276.953125 624.359375 1264.144531 655.261719 1255.894531 677.558594 C 1244.675781 708.089844 1234.613281 741.1875 1225.691406 776.851562 L 1184.226562 773.558594 Z M 1193.136719 818.296875 C 1200.128906 817.109375 1206.269531 818.578125 1211.570312 822.699219 C 1217.835938 827.113281 1220.882812 833.871094 1220.695312 842.96875 C 1220.425781 855.269531 1215.304688 866.398438 1205.339844 876.359375 C 1197.597656 884.210938 1189.234375 888.851562 1180.246094 890.261719 C 1173.042969 891.4375 1166.890625 890.242188 1161.789062 886.65625 C 1155.714844 882.25 1152.769531 875.507812 1152.960938 866.410156 C 1153.226562 854.105469 1158.148438 842.835938 1167.730469 832.605469 C 1175.472656 824.480469 1183.945312 819.707031 1193.136719 818.296875 " clip-rule="nonzero"/></clipPath><clipPath id="4d8b163786"><path d="M 1150.089844 569.511719 L 1152.78125 892.625 L 1297.011719 891.417969 L 1294.324219 568.316406 Z M 1150.089844 569.511719 " clip-rule="nonzero"/></clipPath><linearGradient x1="0.56511" gradientTransform="matrix(4340.903107, -36.131708, 36.139814, 4339.929507, -1301.661039, 750.551397)" y1="0" x2="0.598334" gradientUnits="userSpaceOnUse" y2="0" id="8d32a53b18"><stop stop-opacity="1" stop-color="rgb(14.898682%, 13.328552%, 13.729858%)" offset="0"/><stop stop-opacity="1" stop-color="rgb(14.89563%, 13.3255%, 13.729858%)" offset="0.5"/><stop stop-opacity="1" stop-color="rgb(14.701843%, 13.131714%, 13.729858%)" offset="1"/></linearGradient><clipPath id="821410ded4"><path d="M 1202 840 L 1336 840 L 1336 925 L 1202 925 Z M 1202 840 " clip-rule="nonzero"/></clipPath><clipPath id="10ade3855f"><path d="M 1213.398438 852.785156 C 1218.285156 838.578125 1249.460938 836.425781 1283.050781 847.964844 C 1316.625 859.507812 1339.878906 880.390625 1334.992188 894.585938 L 1324.539062 924.984375 L 1202.941406 883.171875 Z M 1213.398438 852.785156 " clip-rule="nonzero"/></clipPath><clipPath id="f76023ac15"><path d="M 1213.398438 852.785156 C 1218.285156 838.578125 1249.460938 836.425781 1283.050781 847.964844 C 1316.625 859.507812 1339.878906 880.390625 1334.992188 894.585938 L 1324.539062 924.984375 L 1202.941406 883.171875 L 1213.398438 852.785156 " clip-rule="nonzero"/></clipPath><clipPath id="23761638be"><path d="M 1367.125 845.792969 L 1325.398438 967.089844 L 1175.699219 915.617188 L 1217.421875 794.320312 Z M 1367.125 845.792969 " clip-rule="nonzero"/></clipPath><linearGradient x1="0.0943422" gradientTransform="matrix(-137.989465, -47.446375, -47.457018, 137.958521, 1357.628143, 904.99158)" y1="0" x2="1.14764" gradientUnits="userSpaceOnUse" y2="0" id="54457ccbe8"><stop stop-opacity="1" stop-color="rgb(49.165344%, 51.126099%, 57.397461%)" offset="0"/><stop stop-opacity="1" stop-color="rgb(48.750305%, 50.558472%, 56.439209%)" offset="0.00390625"/><stop stop-opacity="1" stop-color="rgb(48.335266%, 49.992371%, 55.482483%)" offset="0.0078125"/><stop stop-opacity="1" stop-color="rgb(47.764587%, 49.252319%, 54.740906%)" offset="0.0117188"/><stop stop-opacity="1" stop-color="rgb(47.195435%, 48.512268%, 54.000854%)" offset="0.015625"/><stop stop-opacity="1" stop-color="rgb(46.716309%, 47.961426%, 53.057861%)" offset="0.0195313"/><stop stop-opacity="1" stop-color="rgb(46.237183%, 47.412109%, 52.116394%)" offset="0.0234375"/><stop stop-opacity="1" stop-color="rgb(45.689392%, 46.754456%, 51.374817%)" offset="0.0273438"/><stop stop-opacity="1" stop-color="rgb(45.143127%, 46.096802%, 50.63324%)" offset="0.03125"/><stop stop-opacity="1" stop-color="rgb(44.659424%, 45.463562%, 49.888611%)" offset="0.0351563"/><stop stop-opacity="1" stop-color="rgb(44.177246%, 44.831848%, 49.143982%)" offset="0.0390625"/><stop stop-opacity="1" stop-color="rgb(43.563843%, 44.186401%, 48.301697%)" offset="0.0429688"/><stop stop-opacity="1" stop-color="rgb(42.950439%, 43.540955%, 47.460938%)" offset="0.046875"/><stop stop-opacity="1" stop-color="rgb(42.500305%, 42.99469%, 46.716309%)" offset="0.0507812"/><stop stop-opacity="1" stop-color="rgb(42.051697%, 42.448425%, 45.97168%)" offset="0.0546875"/><stop stop-opacity="1" stop-color="rgb(41.560364%, 41.758728%, 45.230103%)" offset="0.0585938"/><stop stop-opacity="1" stop-color="rgb(41.069031%, 41.069031%, 44.490051%)" offset="0.0625"/><stop stop-opacity="1" stop-color="rgb(40.499878%, 40.499878%, 43.942261%)" offset="0.0664062"/><stop stop-opacity="1" stop-color="rgb(39.932251%, 39.932251%, 43.39447%)" offset="0.0703125"/><stop stop-opacity="1" stop-color="rgb(39.547729%, 39.361572%, 42.649841%)" offset="0.0742188"/><stop stop-opacity="1" stop-color="rgb(39.164734%, 38.792419%, 41.905212%)" offset="0.078125"/><stop stop-opacity="1" stop-color="rgb(38.55896%, 38.330078%, 41.25824%)" offset="0.0820313"/><stop stop-opacity="1" stop-color="rgb(37.954712%, 37.869263%, 40.611267%)" offset="0.0859375"/><stop stop-opacity="1" stop-color="rgb(37.385559%, 37.319946%, 39.871216%)" offset="0.0898438"/><stop stop-opacity="1" stop-color="rgb(36.816406%, 36.772156%, 39.131165%)" offset="0.09375"/><stop stop-opacity="1" stop-color="rgb(36.445618%, 36.228943%, 38.581848%)" offset="0.0976563"/><stop stop-opacity="1" stop-color="rgb(36.076355%, 35.68573%, 38.032532%)" offset="0.101563"/><stop stop-opacity="1" stop-color="rgb(35.525513%, 35.134888%, 37.464905%)" offset="0.105469"/><stop stop-opacity="1" stop-color="rgb(34.97467%, 34.584045%, 36.897278%)" offset="0.109375"/><stop stop-opacity="1" stop-color="rgb(34.585571%, 34.194946%, 36.331177%)" offset="0.113281"/><stop stop-opacity="1" stop-color="rgb(34.197998%, 33.807373%, 35.766602%)" offset="0.117188"/><stop stop-opacity="1" stop-color="rgb(33.824158%, 33.236694%, 35.197449%)" offset="0.121094"/><stop stop-opacity="1" stop-color="rgb(33.450317%, 32.667542%, 34.628296%)" offset="0.125"/><stop stop-opacity="1" stop-color="rgb(32.865906%, 32.244873%, 34.010315%)" offset="0.128906"/><stop stop-opacity="1" stop-color="rgb(32.28302%, 31.822205%, 33.392334%)" offset="0.132813"/><stop stop-opacity="1" stop-color="rgb(31.877136%, 31.256104%, 32.878113%)" offset="0.136719"/><stop stop-opacity="1" stop-color="rgb(31.471252%, 30.691528%, 32.363892%)" offset="0.140625"/><stop stop-opacity="1" stop-color="rgb(31.10199%, 30.317688%, 31.938171%)" offset="0.144531"/><stop stop-opacity="1" stop-color="rgb(30.732727%, 29.945374%, 31.512451%)" offset="0.148438"/><stop stop-opacity="1" stop-color="rgb(30.358887%, 29.573059%, 30.947876%)" offset="0.152344"/><stop stop-opacity="1" stop-color="rgb(29.986572%, 29.202271%, 30.383301%)" offset="0.15625"/><stop stop-opacity="1" stop-color="rgb(29.614258%, 28.634644%, 30.007935%)" offset="0.160156"/><stop stop-opacity="1" stop-color="rgb(29.243469%, 28.068542%, 29.632568%)" offset="0.164063"/><stop stop-opacity="1" stop-color="rgb(28.852844%, 27.674866%, 29.241943%)" offset="0.167969"/><stop stop-opacity="1" stop-color="rgb(28.462219%, 27.281189%, 28.851318%)" offset="0.171875"/><stop stop-opacity="1" stop-color="rgb(28.059387%, 26.881409%, 28.253174%)" offset="0.175781"/><stop stop-opacity="1" stop-color="rgb(27.656555%, 26.481628%, 27.656555%)" offset="0.179688"/><stop stop-opacity="1" stop-color="rgb(27.285767%, 26.109314%, 27.285767%)" offset="0.183594"/><stop stop-opacity="1" stop-color="rgb(26.916504%, 25.737%, 26.916504%)" offset="0.1875"/><stop stop-opacity="1" stop-color="rgb(26.541138%, 25.367737%, 26.541138%)" offset="0.191406"/><stop stop-opacity="1" stop-color="rgb(26.167297%, 24.998474%, 26.167297%)" offset="0.195313"/><stop stop-opacity="1" stop-color="rgb(25.828552%, 24.821472%, 25.798035%)" offset="0.199219"/><stop stop-opacity="1" stop-color="rgb(25.489807%, 24.645996%, 25.428772%)" offset="0.203125"/><stop stop-opacity="1" stop-color="rgb(25.280762%, 24.269104%, 25.054932%)" offset="0.207031"/><stop stop-opacity="1" stop-color="rgb(25.071716%, 23.892212%, 24.681091%)" offset="0.210938"/><stop stop-opacity="1" stop-color="rgb(24.6521%, 23.477173%, 24.299622%)" offset="0.214844"/><stop stop-opacity="1" stop-color="rgb(24.232483%, 23.062134%, 23.919678%)" offset="0.21875"/><stop stop-opacity="1" stop-color="rgb(24.057007%, 22.705078%, 23.706055%)" offset="0.222656"/><stop stop-opacity="1" stop-color="rgb(23.883057%, 22.349548%, 23.492432%)" offset="0.226563"/><stop stop-opacity="1" stop-color="rgb(23.512268%, 22.155762%, 23.121643%)" offset="0.230469"/><stop stop-opacity="1" stop-color="rgb(23.143005%, 21.963501%, 22.75238%)" offset="0.234375"/><stop stop-opacity="1" stop-color="rgb(22.946167%, 21.592712%, 22.377014%)" offset="0.238281"/><stop stop-opacity="1" stop-color="rgb(22.749329%, 21.22345%, 22.003174%)" offset="0.242188"/><stop stop-opacity="1" stop-color="rgb(22.396851%, 21.044922%, 21.827698%)" offset="0.246094"/><stop stop-opacity="1" stop-color="rgb(22.044373%, 20.866394%, 21.653748%)" offset="0.25"/><stop stop-opacity="1" stop-color="rgb(21.824646%, 20.626831%, 21.41571%)" offset="0.253906"/><stop stop-opacity="1" stop-color="rgb(21.606445%, 20.388794%, 21.179199%)" offset="0.257813"/><stop stop-opacity="1" stop-color="rgb(21.392822%, 20.033264%, 20.817566%)" offset="0.261719"/><stop stop-opacity="1" stop-color="rgb(21.179199%, 19.677734%, 20.457458%)" offset="0.265625"/><stop stop-opacity="1" stop-color="rgb(20.979309%, 19.502258%, 20.228577%)" offset="0.269531"/><stop stop-opacity="1" stop-color="rgb(20.779419%, 19.328308%, 19.999695%)" offset="0.273438"/><stop stop-opacity="1" stop-color="rgb(20.584106%, 19.14978%, 19.804382%)" offset="0.28125"/><stop stop-opacity="1" stop-color="rgb(20.094299%, 18.701172%, 19.311523%)" offset="0.285156"/><stop stop-opacity="1" stop-color="rgb(19.799805%, 18.429565%, 19.013977%)" offset="0.289062"/><stop stop-opacity="1" stop-color="rgb(19.624329%, 18.234253%, 18.836975%)" offset="0.296875"/><stop stop-opacity="1" stop-color="rgb(19.223022%, 17.843628%, 18.435669%)" offset="0.300781"/><stop stop-opacity="1" stop-color="rgb(18.997192%, 17.649841%, 18.212891%)" offset="0.304688"/><stop stop-opacity="1" stop-color="rgb(18.907166%, 17.448425%, 18.037415%)" offset="0.308594"/><stop stop-opacity="1" stop-color="rgb(18.818665%, 17.248535%, 17.863464%)" offset="0.3125"/><stop stop-opacity="1" stop-color="rgb(18.623352%, 17.053223%, 17.686462%)" offset="0.320313"/><stop stop-opacity="1" stop-color="rgb(18.234253%, 16.812134%, 17.332458%)" offset="0.328125"/><stop stop-opacity="1" stop-color="rgb(17.843628%, 16.589355%, 17.00592%)" offset="0.335938"/><stop stop-opacity="1" stop-color="rgb(17.649841%, 16.247559%, 16.743469%)" offset="0.34375"/><stop stop-opacity="1" stop-color="rgb(17.530823%, 15.963745%, 16.433716%)" offset="0.351562"/><stop stop-opacity="1" stop-color="rgb(17.225647%, 15.768433%, 16.159058%)" offset="0.359375"/><stop stop-opacity="1" stop-color="rgb(16.949463%, 15.591431%, 15.983582%)" offset="0.367188"/><stop stop-opacity="1" stop-color="rgb(16.773987%, 15.306091%, 15.701294%)" offset="0.375"/><stop stop-opacity="1" stop-color="rgb(16.578674%, 15.008545%, 15.402222%)" offset="0.382813"/><stop stop-opacity="1" stop-color="rgb(16.38031%, 14.810181%, 15.19928%)" offset="0.390625"/><stop stop-opacity="1" stop-color="rgb(16.116333%, 14.546204%, 14.935303%)" offset="0.40625"/><stop stop-opacity="1" stop-color="rgb(15.765381%, 14.196777%, 14.585876%)" offset="0.421875"/><stop stop-opacity="1" stop-color="rgb(15.438843%, 13.876343%, 14.265442%)" offset="0.4375"/><stop stop-opacity="1" stop-color="rgb(15.174866%, 13.612366%, 14.004517%)" offset="0.453125"/><stop stop-opacity="1" stop-color="rgb(14.979553%, 13.412476%, 13.81073%)" offset="0.46875"/><stop stop-opacity="1" stop-color="rgb(14.793396%, 13.223267%, 13.621521%)" offset="0.484375"/><stop stop-opacity="1" stop-color="rgb(14.598083%, 13.027954%, 13.420105%)" offset="0.5"/><stop stop-opacity="1" stop-color="rgb(14.465332%, 12.895203%, 13.284302%)" offset="0.53125"/><stop stop-opacity="1" stop-color="rgb(14.253235%, 12.683105%, 13.072205%)" offset="0.5625"/><stop stop-opacity="1" stop-color="rgb(13.90686%, 12.336731%, 12.72583%)" offset="0.625"/><stop stop-opacity="1" stop-color="rgb(13.729858%, 12.159729%, 12.548828%)" offset="0.75"/><stop stop-opacity="1" stop-color="rgb(13.729858%, 12.159729%, 12.548828%)" offset="1"/></linearGradient><clipPath id="daccc0a419"><path d="M 1099 868.539062 L 1363 868.539062 L 1363 1132.425781 L 1099 1132.425781 Z M 1099 868.539062 " clip-rule="nonzero"/></clipPath><clipPath id="3dcdaf4e9f"><path d="M 1106.214844 957.65625 C 1082.578125 1026.363281 1119.136719 1101.207031 1187.847656 1124.839844 C 1256.566406 1148.46875 1331.441406 1111.929688 1355.074219 1043.226562 C 1378.699219 974.519531 1342.15625 899.664062 1273.433594 876.03125 C 1204.710938 852.414062 1129.851562 888.953125 1106.214844 957.65625 Z M 1106.214844 957.65625 " clip-rule="nonzero"/></clipPath><clipPath id="99b91a2c34"><path d="M 1106.214844 957.65625 C 1082.578125 1026.363281 1119.136719 1101.207031 1187.847656 1124.839844 C 1256.566406 1148.46875 1331.441406 1111.929688 1355.074219 1043.226562 C 1378.699219 974.519531 1342.15625 899.664062 1273.433594 876.03125 C 1204.710938 852.414062 1129.851562 888.953125 1106.214844 957.65625 " clip-rule="nonzero"/></clipPath><clipPath id="8fc6eecbf4"><path d="M 1469.777344 883.71875 L 1347.386719 1239.515625 L 991.511719 1117.152344 L 1113.902344 761.355469 Z M 1469.777344 883.71875 " clip-rule="nonzero"/></clipPath><radialGradient gradientTransform="matrix(-0.945744, -0.325185, -0.325258, 0.945532, 1205.0189, 955.756288)" gradientUnits="userSpaceOnUse" r="276.271411" cx="0" id="8eddf00d3a" cy="0" fx="0" fy="0"><stop stop-opacity="1" stop-color="rgb(13.923645%, 12.353516%, 12.744141%)" offset="0"/><stop stop-opacity="1" stop-color="rgb(14.118958%, 12.548828%, 12.939453%)" offset="0.25"/><stop stop-opacity="1" stop-color="rgb(14.312744%, 12.742615%, 13.13324%)" offset="0.34375"/><stop stop-opacity="1" stop-color="rgb(14.51416%, 12.944031%, 13.33313%)" offset="0.382812"/><stop stop-opacity="1" stop-color="rgb(14.709473%, 13.139343%, 13.534546%)" offset="0.398438"/><stop stop-opacity="1" stop-color="rgb(14.898682%, 13.328552%, 13.729858%)" offset="0.414062"/><stop stop-opacity="1" stop-color="rgb(14.996338%, 13.42926%, 13.825989%)" offset="0.429688"/><stop stop-opacity="1" stop-color="rgb(15.194702%, 13.633728%, 14.024353%)" offset="0.4375"/><stop stop-opacity="1" stop-color="rgb(15.492249%, 13.926697%, 14.317322%)" offset="0.445312"/><stop stop-opacity="1" stop-color="rgb(15.687561%, 14.117432%, 14.697266%)" offset="0.460938"/><stop stop-opacity="1" stop-color="rgb(15.884399%, 14.31427%, 14.892578%)" offset="0.476562"/><stop stop-opacity="1" stop-color="rgb(16.273499%, 14.703369%, 15.093994%)" offset="0.484375"/><stop stop-opacity="1" stop-color="rgb(16.468811%, 14.898682%, 15.289307%)" offset="0.5"/><stop stop-opacity="1" stop-color="rgb(16.468811%, 14.898682%, 15.475464%)" offset="0.507812"/><stop stop-opacity="1" stop-color="rgb(16.645813%, 15.075684%, 15.675354%)" offset="0.511719"/><stop stop-opacity="1" stop-color="rgb(16.841125%, 15.270996%, 15.689087%)" offset="0.515625"/><stop stop-opacity="1" stop-color="rgb(16.859436%, 15.310669%, 15.884399%)" offset="0.519531"/><stop stop-opacity="1" stop-color="rgb(17.053223%, 15.518188%, 16.273499%)" offset="0.523438"/><stop stop-opacity="1" stop-color="rgb(17.251587%, 15.892029%, 16.468811%)" offset="0.535156"/><stop stop-opacity="1" stop-color="rgb(17.451477%, 16.079712%, 16.468811%)" offset="0.539062"/><stop stop-opacity="1" stop-color="rgb(17.826843%, 16.273499%, 16.664124%)" offset="0.542969"/><stop stop-opacity="1" stop-color="rgb(18.023682%, 16.468811%, 17.034912%)" offset="0.554688"/><stop stop-opacity="1" stop-color="rgb(18.209839%, 16.639709%, 17.228699%)" offset="0.558594"/><stop stop-opacity="1" stop-color="rgb(18.405151%, 16.854858%, 17.448425%)" offset="0.5625"/><stop stop-opacity="1" stop-color="rgb(18.444824%, 17.073059%, 17.6651%)" offset="0.566406"/><stop stop-opacity="1" stop-color="rgb(18.638611%, 17.259216%, 17.858887%)" offset="0.570312"/><stop stop-opacity="1" stop-color="rgb(18.824768%, 17.460632%, 18.03894%)" offset="0.574219"/><stop stop-opacity="1" stop-color="rgb(19.026184%, 17.649841%, 18.040466%)" offset="0.578125"/><stop stop-opacity="1" stop-color="rgb(19.219971%, 17.649841%, 18.232727%)" offset="0.582031"/><stop stop-opacity="1" stop-color="rgb(19.406128%, 17.835999%, 18.426514%)" offset="0.585938"/><stop stop-opacity="1" stop-color="rgb(19.60144%, 18.031311%, 18.611145%)" offset="0.589844"/><stop stop-opacity="1" stop-color="rgb(19.60907%, 18.217468%, 18.806458%)" offset="0.59375"/><stop stop-opacity="1" stop-color="rgb(19.78302%, 18.412781%, 18.997192%)" offset="0.597656"/><stop stop-opacity="1" stop-color="rgb(20.001221%, 18.623352%, 19.392395%)" offset="0.601562"/><stop stop-opacity="1" stop-color="rgb(20.23468%, 18.836975%, 19.62738%)" offset="0.605469"/><stop stop-opacity="1" stop-color="rgb(20.602417%, 19.050598%, 19.822693%)" offset="0.609375"/><stop stop-opacity="1" stop-color="rgb(20.788574%, 19.42749%, 20.00885%)" offset="0.613281"/><stop stop-opacity="1" stop-color="rgb(20.988464%, 19.613647%, 20.202637%)" offset="0.617188"/><stop stop-opacity="1" stop-color="rgb(21.179199%, 19.80896%, 20.388794%)" offset="0.621094"/><stop stop-opacity="1" stop-color="rgb(21.369934%, 19.999695%, 20.579529%)" offset="0.625"/><stop stop-opacity="1" stop-color="rgb(21.565247%, 20.184326%, 20.965576%)" offset="0.628906"/><stop stop-opacity="1" stop-color="rgb(21.749878%, 20.561218%, 21.170044%)" offset="0.632812"/><stop stop-opacity="1" stop-color="rgb(22.122192%, 20.765686%, 21.356201%)" offset="0.636719"/><stop stop-opacity="1" stop-color="rgb(22.331238%, 20.954895%, 21.722412%)" offset="0.640625"/><stop stop-opacity="1" stop-color="rgb(22.549438%, 21.176147%, 21.957397%)" offset="0.644531"/><stop stop-opacity="1" stop-color="rgb(22.766113%, 21.412659%, 22.192383%)" offset="0.648438"/><stop stop-opacity="1" stop-color="rgb(22.973633%, 21.792603%, 22.57843%)" offset="0.652344"/><stop stop-opacity="1" stop-color="rgb(23.348999%, 22.169495%, 22.9599%)" offset="0.65625"/><stop stop-opacity="1" stop-color="rgb(23.725891%, 22.550964%, 23.335266%)" offset="0.664062"/><stop stop-opacity="1" stop-color="rgb(24.105835%, 22.937012%, 23.716736%)" offset="0.667969"/><stop stop-opacity="1" stop-color="rgb(24.491882%, 23.13385%, 24.09668%)" offset="0.671875"/><stop stop-opacity="1" stop-color="rgb(24.697876%, 23.318481%, 24.482727%)" offset="0.675781"/><stop stop-opacity="1" stop-color="rgb(24.884033%, 23.68927%, 24.868774%)" offset="0.679688"/><stop stop-opacity="1" stop-color="rgb(25.250244%, 24.069214%, 25.079346%)" offset="0.683594"/><stop stop-opacity="1" stop-color="rgb(25.65918%, 24.504089%, 25.314331%)" offset="0.6875"/><stop stop-opacity="1" stop-color="rgb(25.894165%, 24.923706%, 25.718689%)" offset="0.691406"/><stop stop-opacity="1" stop-color="rgb(26.100159%, 25.109863%, 26.100159%)" offset="0.695312"/><stop stop-opacity="1" stop-color="rgb(26.486206%, 25.311279%, 26.486206%)" offset="0.699219"/><stop stop-opacity="1" stop-color="rgb(26.872253%, 25.691223%, 26.872253%)" offset="0.703125"/><stop stop-opacity="1" stop-color="rgb(27.252197%, 26.072693%, 27.252197%)" offset="0.707031"/><stop stop-opacity="1" stop-color="rgb(27.633667%, 26.45874%, 27.633667%)" offset="0.710938"/><stop stop-opacity="1" stop-color="rgb(28.018188%, 26.844788%, 28.018188%)" offset="0.714844"/><stop stop-opacity="1" stop-color="rgb(28.225708%, 27.224731%, 28.404236%)" offset="0.71875"/><stop stop-opacity="1" stop-color="rgb(28.413391%, 27.606201%, 28.785706%)" offset="0.722656"/><stop stop-opacity="1" stop-color="rgb(28.825378%, 28.041077%, 29.216003%)" offset="0.726562"/><stop stop-opacity="1" stop-color="rgb(29.255676%, 28.474426%, 29.646301%)" offset="0.730469"/><stop stop-opacity="1" stop-color="rgb(29.637146%, 28.855896%, 30.044556%)" offset="0.734375"/><stop stop-opacity="1" stop-color="rgb(30.021667%, 29.237366%, 30.625916%)" offset="0.738281"/><stop stop-opacity="1" stop-color="rgb(30.407715%, 29.61731%, 31.187439%)" offset="0.742188"/><stop stop-opacity="1" stop-color="rgb(30.789185%, 30.003357%, 31.568909%)" offset="0.746094"/><stop stop-opacity="1" stop-color="rgb(31.169128%, 30.389404%, 31.954956%)" offset="0.75"/><stop stop-opacity="1" stop-color="rgb(31.550598%, 30.770874%, 32.339478%)" offset="0.753906"/><stop stop-opacity="1" stop-color="rgb(31.93512%, 31.150818%, 32.902527%)" offset="0.757812"/><stop stop-opacity="1" stop-color="rgb(32.321167%, 31.532288%, 33.482361%)" offset="0.761719"/><stop stop-opacity="1" stop-color="rgb(32.702637%, 31.916809%, 33.882141%)" offset="0.765625"/><stop stop-opacity="1" stop-color="rgb(33.132935%, 32.546997%, 34.507751%)" offset="0.769531"/><stop stop-opacity="1" stop-color="rgb(33.56781%, 33.172607%, 35.133362%)" offset="0.773438"/><stop stop-opacity="1" stop-color="rgb(33.964539%, 33.558655%, 35.53009%)" offset="0.777344"/><stop stop-opacity="1" stop-color="rgb(34.541321%, 33.943176%, 36.109924%)" offset="0.78125"/><stop stop-opacity="1" stop-color="rgb(35.10437%, 34.327698%, 36.677551%)" offset="0.785156"/><stop stop-opacity="1" stop-color="rgb(35.490417%, 34.901428%, 37.257385%)" offset="0.789062"/><stop stop-opacity="1" stop-color="rgb(35.876465%, 35.479736%, 37.834167%)" offset="0.792969"/><stop stop-opacity="1" stop-color="rgb(36.257935%, 35.86731%, 38.217163%)" offset="0.796875"/><stop stop-opacity="1" stop-color="rgb(36.637878%, 36.427307%, 38.781738%)" offset="0.800781"/><stop stop-opacity="1" stop-color="rgb(37.019348%, 37.004089%, 39.538574%)" offset="0.804688"/><stop stop-opacity="1" stop-color="rgb(37.574768%, 37.40387%, 40.130615%)" offset="0.808594"/><stop stop-opacity="1" stop-color="rgb(38.204956%, 37.858582%, 40.779114%)" offset="0.8125"/><stop stop-opacity="1" stop-color="rgb(38.659668%, 38.484192%, 41.424561%)" offset="0.816406"/><stop stop-opacity="1" stop-color="rgb(39.045715%, 39.056396%, 42.010498%)" offset="0.820312"/><stop stop-opacity="1" stop-color="rgb(39.43634%, 39.63623%, 42.771912%)" offset="0.824219"/><stop stop-opacity="1" stop-color="rgb(40.011597%, 40.200806%, 43.34259%)" offset="0.828125"/><stop stop-opacity="1" stop-color="rgb(40.582275%, 40.582275%, 43.916321%)" offset="0.832031"/><stop stop-opacity="1" stop-color="rgb(40.968323%, 41.156006%, 44.682312%)" offset="0.835938"/><stop stop-opacity="1" stop-color="rgb(41.35437%, 41.73584%, 45.266724%)" offset="0.839844"/><stop stop-opacity="1" stop-color="rgb(41.912842%, 42.308044%, 45.832825%)" offset="0.84375"/><stop stop-opacity="1" stop-color="rgb(42.492676%, 42.889404%, 46.586609%)" offset="0.847656"/><stop stop-opacity="1" stop-color="rgb(42.944336%, 43.530273%, 47.451782%)" offset="0.851562"/><stop stop-opacity="1" stop-color="rgb(43.392944%, 44.174194%, 48.298645%)" offset="0.855469"/><stop stop-opacity="1" stop-color="rgb(43.969727%, 44.754028%, 48.869324%)" offset="0.859375"/><stop stop-opacity="1" stop-color="rgb(44.532776%, 45.326233%, 49.455261%)" offset="0.863281"/><stop stop-opacity="1" stop-color="rgb(44.921875%, 45.901489%, 50.221252%)" offset="0.867188"/><stop stop-opacity="1" stop-color="rgb(45.497131%, 46.473694%, 50.987244%)" offset="0.871094"/><stop stop-opacity="1" stop-color="rgb(46.069336%, 47.04895%, 51.754761%)" offset="0.875"/><stop stop-opacity="1" stop-color="rgb(46.455383%, 47.625732%, 52.520752%)" offset="0.878906"/><stop stop-opacity="1" stop-color="rgb(46.841431%, 48.196411%, 53.288269%)" offset="0.882812"/><stop stop-opacity="1" stop-color="rgb(47.398376%, 48.777771%, 54.05426%)" offset="0.886719"/><stop stop-opacity="1" stop-color="rgb(47.97821%, 49.345398%, 54.815674%)" offset="0.890625"/><stop stop-opacity="1" stop-color="rgb(48.431396%, 50.169373%, 55.702209%)" offset="0.894531"/><stop stop-opacity="1" stop-color="rgb(48.878479%, 50.839233%, 56.761169%)" offset="0.898438"/><stop stop-opacity="1" stop-color="rgb(49.455261%, 51.41449%, 57.702637%)" offset="0.902344"/><stop stop-opacity="1" stop-color="rgb(50.019836%, 51.986694%, 58.468628%)" offset="0.90625"/><stop stop-opacity="1" stop-color="rgb(50.404358%, 52.56958%, 59.234619%)" offset="0.910156"/><stop stop-opacity="1" stop-color="rgb(50.785828%, 53.337097%, 60.002136%)" offset="0.914062"/><stop stop-opacity="1" stop-color="rgb(51.165771%, 53.915405%, 60.957336%)" offset="0.917969"/><stop stop-opacity="1" stop-color="rgb(51.73645%, 54.481506%, 61.91864%)" offset="0.921875"/><stop stop-opacity="1" stop-color="rgb(52.31781%, 55.056763%, 62.690735%)" offset="0.925781"/><stop stop-opacity="1" stop-color="rgb(52.708435%, 55.627441%, 63.458252%)" offset="0.929688"/><stop stop-opacity="1" stop-color="rgb(53.089905%, 56.3797%, 64.395142%)" offset="0.933594"/><stop stop-opacity="1" stop-color="rgb(53.52478%, 57.044983%, 65.475464%)" offset="0.9375"/><stop stop-opacity="1" stop-color="rgb(53.959656%, 57.714844%, 66.558838%)" offset="0.941406"/><stop stop-opacity="1" stop-color="rgb(54.350281%, 58.470154%, 67.500305%)" offset="0.945312"/><stop stop-opacity="1" stop-color="rgb(54.927063%, 59.042358%, 68.273926%)" offset="0.949219"/><stop stop-opacity="1" stop-color="rgb(55.496216%, 59.623718%, 69.235229%)" offset="0.953125"/><stop stop-opacity="1" stop-color="rgb(55.882263%, 60.385132%, 70.19043%)" offset="0.957031"/><stop stop-opacity="1" stop-color="rgb(56.263733%, 60.964966%, 71.144104%)" offset="0.960938"/><stop stop-opacity="1" stop-color="rgb(56.462097%, 61.53717%, 72.106934%)" offset="0.964844"/><stop stop-opacity="1" stop-color="rgb(56.646729%, 62.112427%, 73.06366%)" offset="0.96875"/><stop stop-opacity="1" stop-color="rgb(57.015991%, 62.683105%, 74.198914%)" offset="0.972656"/><stop stop-opacity="1" stop-color="rgb(57.450867%, 63.508606%, 75.299072%)" offset="0.976562"/><stop stop-opacity="1" stop-color="rgb(57.885742%, 64.173889%, 76.379395%)" offset="0.980469"/><stop stop-opacity="1" stop-color="rgb(58.251953%, 64.767456%, 77.331543%)" offset="0.984375"/><stop stop-opacity="1" stop-color="rgb(58.43811%, 65.525818%, 78.302002%)" offset="0.988281"/><stop stop-opacity="1" stop-color="rgb(58.633423%, 66.087341%, 79.440308%)" offset="0.992188"/><stop stop-opacity="1" stop-color="rgb(58.81958%, 66.473389%, 80.198669%)" offset="0.996094"/><stop stop-opacity="1" stop-color="rgb(58.81958%, 66.668701%, 80.389404%)" offset="1"/></radialGradient></defs><g clip-path="url(#8f01bc613d)"><g clip-path="url(#0c95c2afb4)"><g clip-path="url(#b3d918e742)"><path fill="url(#cb5e4b9ae5)" d="M 1403.433594 1252.234375 L 1403.433594 247.578125 L 96.347656 247.578125 L 96.347656 1252.234375 Z M 1403.433594 1252.234375 " fill-rule="nonzero"/></g></g></g><g clip-path="url(#0ba267bb74)"><path fill="#5d1d14" d="M 612.671875 1025.421875 C 613.277344 1025.421875 613.882812 1025.523438 614.464844 1025.714844 C 616.113281 1026.25 617.425781 1027.515625 618.039062 1029.128906 L 696.882812 1237.789062 L 801.621094 1023.730469 C 802.5625 1021.800781 804.5 1020.558594 806.652344 1020.515625 C 808.78125 1020.515625 810.789062 1021.625 811.808594 1023.503906 L 881.539062 1151.671875 L 938.894531 970.476562 C 939.546875 968.414062 941.304688 966.890625 943.445312 966.542969 C 945.597656 966.207031 947.738281 967.082031 949.015625 968.839844 L 1043.792969 1099.707031 L 1061.523438 968.984375 C 1061.800781 966.945312 1063.148438 965.210938 1065.039062 964.4375 C 1066.945312 963.664062 1069.121094 963.964844 1070.746094 965.230469 L 1257.308594 1110.808594 L 1192.644531 914.855469 C 1192.039062 913.007812 1192.40625 910.980469 1193.628906 909.457031 C 1194.851562 907.941406 1196.753906 907.171875 1198.695312 907.347656 L 1313.722656 919.484375 L 1227.910156 793.894531 C 1226.914062 792.4375 1226.644531 790.621094 1227.160156 788.941406 C 1227.6875 787.273438 1228.941406 785.925781 1230.578125 785.300781 L 1390.433594 723.84375 L 1247.835938 637.679688 C 1246.492188 636.851562 1245.527344 635.53125 1245.203125 633.984375 C 1244.867188 632.4375 1245.179688 630.835938 1246.066406 629.535156 L 1310.011719 535.96875 L 1188.160156 585.324219 C 1186.265625 586.085938 1184.101562 585.792969 1182.5 584.550781 C 1180.875 583.296875 1180.046875 581.289062 1180.316406 579.261719 L 1206.875 375.585938 L 1070.867188 501.871094 C 1069.378906 503.25 1067.269531 503.742188 1065.320312 503.160156 C 1063.382812 502.589844 1061.878906 501.019531 1061.398438 499.058594 L 1013.949219 308.832031 L 927.441406 493.1875 C 926.457031 495.285156 924.371094 496.539062 921.996094 496.484375 C 919.675781 496.382812 917.648438 494.890625 916.851562 492.71875 L 833.863281 264.539062 L 755.292969 486.007812 C 754.53125 488.179688 752.523438 489.671875 750.214844 489.816406 C 747.972656 489.90625 745.753906 488.683594 744.734375 486.613281 L 671.183594 336.527344 L 611.910156 497.882812 C 611.113281 500.058594 609.097656 501.535156 606.789062 501.636719 C 604.492188 501.75 602.328125 500.460938 601.34375 498.367188 L 497.734375 279.566406 L 463.21875 522.140625 C 462.925781 524.238281 461.503906 525.984375 459.53125 526.722656 C 457.558594 527.441406 455.339844 527.039062 453.757812 525.648438 L 315.003906 403.8125 L 327.410156 542.824219 C 327.578125 544.730469 326.796875 546.589844 325.316406 547.800781 C 323.835938 549 321.851562 549.378906 320.027344 548.832031 L 209.414062 515.136719 L 283.535156 647.621094 C 284.332031 649.054688 284.488281 650.757812 283.941406 652.3125 C 283.402344 653.859375 282.226562 655.105469 280.699219 655.730469 L 110.746094 725.300781 L 246.53125 787.675781 C 247.953125 788.335938 249.050781 789.546875 249.558594 791.035156 C 250.074219 792.527344 249.949219 794.152344 249.21875 795.550781 L 184.804688 918.789062 L 358.601562 887.953125 C 360.40625 887.628906 362.242188 888.191406 363.566406 889.445312 C 364.886719 890.710938 365.539062 892.527344 365.300781 894.328125 L 338.003906 1105.859375 L 473.449219 968.179688 C 475.007812 966.597656 477.347656 966.058594 479.445312 966.800781 C 481.550781 967.539062 483.03125 969.421875 483.253906 971.640625 L 496.03125 1099.886719 L 609.558594 1026.351562 C 610.5 1025.734375 611.574219 1025.421875 612.671875 1025.421875 Z M 696.210938 1257.96875 C 696.121094 1257.96875 696.03125 1257.96875 695.941406 1257.96875 C 693.652344 1257.855469 691.648438 1256.402344 690.839844 1254.261719 L 609.816406 1039.839844 L 494.371094 1114.632812 C 492.691406 1115.71875 490.574219 1115.851562 488.769531 1114.988281 C 486.964844 1114.117188 485.742188 1112.378906 485.542969 1110.382812 L 473.046875 984.960938 L 334.214844 1126.070312 C 332.488281 1127.828125 329.832031 1128.289062 327.613281 1127.214844 C 325.394531 1126.125 324.117188 1123.75 324.429688 1121.320312 L 352.917969 900.617188 L 175.3125 932.132812 C 173.148438 932.503906 170.972656 931.628906 169.683594 929.871094 C 168.386719 928.109375 168.207031 925.757812 169.226562 923.820312 L 236.253906 795.585938 L 93.949219 730.207031 C 91.863281 729.253906 90.554688 727.160156 90.609375 724.875 C 90.652344 722.589844 92.054688 720.550781 94.171875 719.6875 L 270.355469 647.5625 L 192.445312 508.292969 C 191.292969 506.242188 191.515625 503.722656 192.984375 501.894531 C 194.453125 500.070312 196.882812 499.316406 199.113281 500 L 315.230469 535.375 L 302.296875 390.546875 C 302.082031 388.214844 303.328125 385.984375 305.414062 384.921875 C 307.507812 383.855469 310.03125 384.179688 311.800781 385.726562 L 453.355469 510.03125 L 489.058594 259.050781 C 489.417969 256.539062 491.367188 254.558594 493.878906 254.175781 C 496.378906 253.796875 498.84375 255.105469 499.929688 257.402344 L 605.859375 481.089844 L 665.042969 319.980469 C 665.839844 317.816406 667.832031 316.339844 670.128906 316.226562 C 672.394531 316.070312 674.570312 317.371094 675.578125 319.429688 L 749.039062 469.3125 L 828.394531 245.648438 C 829.203125 243.375 831.355469 241.839844 833.773438 241.839844 C 833.785156 241.839844 833.785156 241.839844 833.796875 241.839844 C 836.207031 241.839844 838.359375 243.339844 839.1875 245.605469 L 922.914062 475.8125 L 1010.417969 289.347656 C 1011.449219 287.152344 1013.746094 285.816406 1016.167969 286.074219 C 1018.589844 286.3125 1020.59375 288.035156 1021.175781 290.390625 L 1070.171875 486.859375 L 1210.71875 356.359375 C 1212.492188 354.714844 1215.113281 354.355469 1217.253906 355.464844 C 1219.40625 356.574219 1220.625 358.902344 1220.3125 361.300781 L 1192.96875 571.003906 L 1323.316406 518.199219 C 1325.65625 517.246094 1328.347656 517.941406 1329.9375 519.910156 C 1331.519531 521.882812 1331.632812 524.664062 1330.207031 526.746094 L 1258.964844 630.992188 L 1406.402344 720.078125 C 1408.277344 721.222656 1409.339844 723.316406 1409.148438 725.5 C 1408.960938 727.6875 1407.535156 729.570312 1405.496094 730.351562 L 1241.472656 793.402344 L 1330.195312 923.25 C 1331.464844 925.097656 1331.542969 927.507812 1330.386719 929.433594 C 1329.242188 931.347656 1327.058594 932.402344 1324.863281 932.191406 L 1206.328125 919.695312 L 1274.128906 1125.164062 C 1274.914062 1127.5625 1274.050781 1130.207031 1271.976562 1131.652344 C 1269.914062 1133.105469 1267.136719 1133.039062 1265.140625 1131.484375 L 1071.550781 980.425781 L 1053.238281 1115.449219 C 1052.925781 1117.78125 1051.222656 1119.671875 1048.949219 1120.246094 C 1046.671875 1120.816406 1044.285156 1119.941406 1042.90625 1118.039062 L 946.394531 984.792969 L 888.40625 1167.988281 C 887.714844 1170.183594 885.773438 1171.75 883.488281 1171.976562 C 881.179688 1172.164062 878.996094 1171.023438 877.894531 1169.007812 L 807.046875 1038.753906 L 701.363281 1254.753906 C 700.402344 1256.738281 698.394531 1257.96875 696.210938 1257.96875 " fill-opacity="1" fill-rule="nonzero"/></g><g clip-path="url(#2c5932c4e2)"><g clip-path="url(#fe20d4e3fe)"><g clip-path="url(#946a6e39c0)"><g clip-path="url(#d90f46e03c)"><path fill="url(#5d8d22d9ff)" d="M 187.8125 562.207031 L 190.339844 865.625 L 351.78125 864.28125 L 349.253906 560.863281 Z M 187.8125 562.207031 " fill-rule="nonzero"/></g></g></g></g><path fill="#5d1d14" d="M 279.5 645.75 C 277.976562 653.367188 276.519531 661.085938 275.140625 668.75 L 273.40625 678.421875 C 281.214844 670.0625 287.257812 660.828125 291.390625 650.859375 C 292.960938 647.207031 293.21875 645.34375 293.230469 644.570312 C 293.253906 643.867188 293.140625 643.597656 293.128906 643.597656 C 293.152344 643.699219 292.523438 643.460938 291.222656 643.441406 L 290.957031 643.429688 C 289.015625 643.429688 285.507812 643.867188 279.5 645.75 Z M 264.742188 699.867188 C 263.734375 699.867188 262.714844 699.597656 261.792969 699.046875 C 259.753906 697.828125 258.679688 695.460938 259.09375 693.109375 L 263.84375 666.722656 C 265.425781 657.882812 267.140625 648.964844 268.910156 640.214844 C 269.316406 638.230469 270.738281 636.605469 272.65625 635.945312 C 280.34375 633.265625 286.328125 631.957031 290.957031 631.957031 L 291.472656 631.96875 C 299.796875 632.144531 304.875 637.066406 304.707031 644.820312 C 304.640625 647.710938 303.753906 651.148438 301.972656 655.304688 C 295.136719 671.753906 283.804688 686.332031 268.304688 698.621094 C 267.273438 699.441406 266.007812 699.867188 264.742188 699.867188 Z M 260.863281 752.941406 C 259.609375 760.390625 258.242188 769.660156 256.808594 780.628906 C 276.667969 771.664062 286.84375 761.78125 287.066406 751.191406 C 287.089844 750.410156 286.964844 749.917969 286.730469 749.714844 C 286.226562 749.3125 284.8125 748.851562 282.40625 748.808594 L 281.878906 748.808594 C 276.957031 748.808594 269.898438 750.195312 260.863281 752.941406 Z M 249.859375 795.460938 C 248.59375 795.460938 247.347656 795.046875 246.316406 794.25 C 244.726562 793.007812 243.910156 791.023438 244.167969 789.019531 C 246.339844 771.585938 248.359375 757.625 250.160156 747.507812 C 250.542969 745.421875 252.035156 743.707031 254.050781 743.070312 C 265.976562 739.203125 275.074219 737.332031 281.878906 737.332031 L 282.652344 737.332031 C 287.46875 737.433594 291.15625 738.554688 293.914062 740.761719 C 296.089844 742.511719 298.664062 745.78125 298.542969 751.441406 C 298.171875 768.886719 282.917969 783.160156 251.910156 795.082031 C 251.25 795.339844 250.554688 795.460938 249.859375 795.460938 Z M 196.996094 857.835938 C 198.800781 857.925781 200.605469 857.992188 202.386719 858.027344 C 226.113281 858.542969 247.472656 852.089844 265.984375 838.855469 C 281.800781 827.585938 295.316406 814.273438 306.183594 799.304688 C 320.195312 780.066406 327.5 760.796875 327.90625 742.027344 C 327.984375 738.351562 327.78125 734.734375 327.308594 731.28125 C 325.160156 718.015625 317.503906 712.046875 302.476562 712.046875 C 301.140625 712.046875 299.765625 712.101562 298.339844 712.203125 C 296 712.382812 293.757812 711.058594 292.75 708.90625 C 291.738281 706.769531 292.164062 704.222656 293.800781 702.511719 C 326.03125 668.875 342.742188 634.613281 343.472656 600.683594 C 343.785156 589.996094 341.410156 581.9375 336.433594 576.707031 C 331.175781 571.171875 322.546875 568.246094 310.769531 568 C 307.632812 567.933594 304.371094 567.988281 300.929688 568.15625 C 292.074219 569.277344 280.128906 572.058594 265.414062 576.394531 C 250.800781 580.953125 240.121094 584.023438 233.050781 585.683594 C 231.683594 600.257812 229.453125 619.621094 226.425781 643.339844 C 215.542969 731.921875 205.648438 804.042969 196.996094 857.835938 Z M 205.019531 869.535156 C 204.058594 869.535156 203.105469 869.523438 202.140625 869.5 C 198.09375 869.421875 193.949219 869.1875 189.824219 868.828125 C 188.234375 868.683594 186.765625 867.886719 185.789062 866.632812 C 184.8125 865.367188 184.398438 863.765625 184.65625 862.183594 C 193.535156 807.933594 203.742188 733.828125 215.039062 641.917969 C 218.355469 615.945312 220.699219 595.273438 222.011719 580.449219 C 222.234375 577.894531 224.140625 575.789062 226.660156 575.316406 C 232.8125 574.164062 244.726562 570.835938 262.074219 565.414062 C 277.597656 560.839844 290.226562 557.929688 299.71875 556.75 C 299.855469 556.730469 299.988281 556.71875 300.132812 556.707031 C 303.921875 556.515625 307.542969 556.460938 311.003906 556.527344 C 325.953125 556.851562 337.308594 560.976562 344.75 568.796875 C 351.910156 576.335938 355.339844 587.160156 354.9375 600.976562 C 354.21875 634.632812 339.3125 668.304688 310.601562 701.15625 C 326.378906 703.539062 336.019531 713.242188 338.652344 729.589844 C 339.234375 733.769531 339.46875 737.996094 339.378906 742.273438 C 338.921875 763.429688 330.886719 784.894531 315.476562 806.050781 C 303.875 822.015625 289.464844 836.203125 272.65625 848.191406 C 252.851562 862.351562 230.101562 869.535156 205.019531 869.535156 " fill-opacity="1" fill-rule="nonzero"/><g clip-path="url(#3cff489a27)"><g clip-path="url(#23be4d5732)"><g clip-path="url(#47dc9b4c33)"><g clip-path="url(#0771c28541)"><path fill="url(#0870f35f16)" d="M 324.742188 553.433594 L 327.445312 877.886719 L 500.234375 876.449219 L 497.53125 551.996094 Z M 324.742188 553.433594 " fill-rule="nonzero"/></g></g></g></g><path fill="#5d1d14" d="M 434.414062 658.9375 C 426.210938 658.9375 415.992188 670.375 405.648438 691.148438 C 396.335938 709.46875 389.664062 727.628906 385.8125 745.175781 C 383.90625 754.320312 382.863281 762.722656 382.707031 770.09375 C 382.492188 780 384.074219 788.125 387.402344 794.230469 C 390.785156 800.246094 395.222656 803.148438 401.355469 803.273438 L 401.734375 803.28125 C 410.476562 803.28125 418.972656 796.480469 426.972656 783.058594 C 434.046875 771.238281 439.359375 756.964844 442.765625 740.617188 C 446.84375 721.277344 448.03125 701.894531 446.328125 682.992188 C 445.207031 672.144531 442.269531 659.105469 434.605469 658.949219 Z M 401.734375 814.757812 L 401.109375 814.746094 C 390.945312 814.53125 382.738281 809.355469 377.359375 799.777344 C 373.023438 791.832031 370.972656 781.78125 371.230469 769.847656 C 371.398438 761.769531 372.53125 752.671875 374.59375 742.777344 C 378.660156 724.214844 385.664062 705.132812 395.402344 685.996094 C 408.304688 660.078125 421.066406 647.460938 434.414062 647.460938 L 434.863281 647.472656 C 447.730469 647.742188 455.4375 659.328125 457.75 681.882812 C 459.5625 701.996094 458.308594 722.53125 453.992188 742.980469 C 450.328125 760.558594 444.558594 776.035156 436.824219 788.941406 C 426.605469 806.074219 414.804688 814.757812 401.734375 814.757812 Z M 446.585938 559.664062 C 424.351562 559.664062 402.21875 577.804688 380.8125 613.558594 C 362.625 644.058594 349.34375 678.164062 341.339844 714.925781 C 336.589844 736.582031 333.980469 756.953125 333.585938 775.460938 C 333.183594 794.09375 334.964844 811.160156 338.855469 826.195312 C 346.484375 855.417969 359.226562 869.804688 377.808594 870.207031 L 378.707031 870.21875 C 400.761719 870.21875 422.804688 852.210938 444.1875 816.707031 C 462.566406 786.21875 475.949219 752.257812 483.9375 715.753906 C 488.488281 694.410156 490.988281 674.296875 491.378906 656.023438 C 491.785156 637.121094 489.921875 619.507812 485.84375 603.664062 C 478.402344 574.453125 465.851562 560.066406 447.492188 559.675781 Z M 378.707031 881.691406 L 377.5625 881.679688 C 353.488281 881.164062 336.722656 863.460938 327.746094 829.085938 C 323.589844 813.019531 321.695312 794.902344 322.109375 775.214844 C 322.523438 755.964844 325.226562 734.847656 330.132812 712.472656 C 338.394531 674.511719 352.121094 639.25 370.960938 607.675781 C 394.585938 568.203125 420.027344 548.191406 446.585938 548.191406 L 447.730469 548.203125 C 471.632812 548.71875 488.199219 566.421875 496.960938 600.820312 C 501.296875 617.660156 503.28125 636.324219 502.855469 656.269531 C 502.453125 675.261719 499.863281 696.089844 495.15625 718.175781 C 486.886719 755.933594 473.046875 791.070312 454.027344 822.632812 C 430.414062 861.816406 405.0625 881.691406 378.707031 881.691406 " fill-opacity="1" fill-rule="nonzero"/><g clip-path="url(#e21b4a2506)"><g clip-path="url(#46a85ec480)"><g clip-path="url(#758bd15d08)"><g clip-path="url(#d99cc2cf03)"><path fill="url(#afb0bb0396)" d="M 472.808594 556.59375 L 475.511719 881.03125 L 648.066406 879.597656 L 645.363281 555.160156 Z M 472.808594 556.59375 " fill-rule="nonzero"/></g></g></g></g><path fill="#5d1d14" d="M 582.246094 662.097656 C 574.042969 662.097656 563.832031 673.535156 553.488281 694.308594 C 544.164062 712.628906 537.496094 730.789062 533.652344 748.335938 C 531.746094 757.480469 530.695312 765.882812 530.535156 773.242188 C 530.324219 783.160156 531.90625 791.273438 535.234375 797.390625 C 538.617188 803.40625 543.066406 806.308594 549.183594 806.429688 L 549.566406 806.441406 C 558.308594 806.441406 566.804688 799.628906 574.804688 786.207031 C 581.875 774.398438 587.1875 760.125 590.59375 743.777344 C 594.675781 724.4375 595.875 705.042969 594.160156 686.140625 C 593.050781 675.304688 590.113281 662.265625 582.449219 662.097656 Z M 549.566406 817.914062 L 548.9375 817.90625 C 538.785156 817.691406 530.570312 812.515625 525.191406 802.933594 C 520.867188 794.992188 518.816406 784.941406 519.0625 772.996094 C 519.242188 764.929688 520.371094 755.820312 522.421875 745.9375 C 526.503906 727.371094 533.496094 708.292969 543.234375 689.15625 C 556.132812 663.238281 568.910156 650.621094 582.246094 650.621094 L 582.695312 650.621094 C 595.570312 650.902344 603.269531 662.476562 605.578125 685.042969 C 607.40625 705.144531 606.140625 725.679688 601.835938 746.128906 C 598.171875 763.730469 592.386719 779.191406 584.65625 792.101562 C 574.445312 809.222656 562.632812 817.914062 549.566406 817.914062 Z M 594.429688 562.824219 C 572.183594 562.824219 550.046875 580.953125 528.644531 616.707031 C 510.453125 647.214844 497.175781 681.324219 489.183594 718.074219 C 484.421875 739.742188 481.820312 760.113281 481.417969 778.621094 C 481.023438 797.253906 482.796875 814.332031 486.695312 829.355469 C 494.316406 858.566406 507.058594 872.964844 525.652344 873.367188 L 526.535156 873.367188 C 548.601562 873.367188 570.636719 855.371094 592.03125 819.867188 C 610.410156 789.367188 623.777344 755.40625 631.78125 718.914062 C 636.320312 697.570312 638.828125 677.457031 639.222656 659.171875 C 639.625 640.28125 637.765625 622.667969 633.675781 606.824219 C 626.234375 577.613281 613.679688 563.226562 595.324219 562.835938 Z M 526.535156 884.839844 L 525.40625 884.839844 C 501.320312 884.3125 484.554688 866.621094 475.589844 832.234375 C 471.421875 816.179688 469.527344 798.0625 469.941406 778.375 C 470.355469 759.113281 473.058594 738.003906 477.964844 715.628906 C 486.226562 677.671875 499.964844 642.398438 518.792969 610.824219 C 542.417969 571.363281 567.867188 551.351562 594.429688 551.351562 L 595.570312 551.363281 C 619.464844 551.878906 636.027344 569.582031 644.792969 603.976562 C 649.128906 620.828125 651.125 639.484375 650.699219 659.417969 C 650.28125 678.421875 647.695312 699.25 643 721.34375 C 634.726562 759.09375 620.886719 794.21875 601.859375 825.792969 C 578.246094 864.972656 552.90625 884.839844 526.535156 884.839844 " fill-opacity="1" fill-rule="nonzero"/><g clip-path="url(#b2f59ff8fb)"><g clip-path="url(#5ac92347b4)"><g clip-path="url(#10abc04334)"><g clip-path="url(#420c9f7375)"><path fill="url(#2413c4e947)" d="M 601.914062 578.589844 L 604.539062 894.101562 L 832.753906 892.203125 L 830.128906 576.6875 Z M 601.914062 578.589844 " fill-rule="nonzero"/></g></g></g></g><path fill="#5d1d14" d="M 713.960938 639.777344 C 714.261719 639.777344 714.566406 639.808594 714.867188 639.855469 C 717.871094 640.324219 719.992188 643.070312 719.675781 646.097656 L 695.445312 885.367188 L 717.222656 881.859375 L 759.640625 691.921875 C 760.300781 688.976562 763.125 687.035156 766.105469 687.496094 C 769.089844 687.957031 771.207031 690.632812 770.960938 693.648438 L 757.097656 861.421875 L 806.328125 850.855469 L 807.125 814.074219 C 808.570312 746.242188 814.09375 669.492188 823.542969 585.828125 L 765.949219 597.996094 L 735.902344 729.78125 C 735.230469 732.71875 732.363281 734.632812 729.402344 734.175781 C 726.421875 733.691406 724.316406 730.992188 724.597656 727.976562 L 737.316406 588.652344 L 677 600.527344 C 661.433594 690.375 639.839844 779.765625 612.785156 866.441406 L 662.105469 858.597656 L 708.359375 644.304688 C 708.941406 641.636719 711.304688 639.777344 713.960938 639.777344 Z M 688.980469 897.960938 C 687.535156 897.960938 686.121094 897.398438 685.046875 896.390625 C 683.746094 895.171875 683.097656 893.410156 683.277344 891.640625 L 697.914062 747.09375 L 672.496094 864.863281 C 671.992188 867.171875 670.128906 868.953125 667.789062 869.320312 L 605.421875 879.226562 C 603.449219 879.527344 601.476562 878.8125 600.175781 877.300781 C 598.878906 875.796875 598.449219 873.726562 599.054688 871.820312 C 627.667969 781.636719 650.304688 688.390625 666.355469 594.691406 C 666.757812 592.347656 668.574219 590.488281 670.902344 590.027344 L 742.617188 575.910156 C 744.386719 575.554688 746.226562 576.066406 747.558594 577.277344 C 748.914062 578.488281 749.597656 580.257812 749.441406 582.050781 L 743.851562 643.292969 L 755.574219 591.855469 C 756.078125 589.679688 757.792969 587.980469 759.976562 587.519531 L 828.957031 572.953125 C 830.75 572.582031 832.640625 573.078125 834.007812 574.332031 C 835.367188 575.5625 836.050781 577.390625 835.847656 579.226562 C 825.882812 665.613281 820.078125 744.71875 818.601562 814.320312 L 817.714844 855.640625 C 817.660156 858.296875 815.777344 860.558594 813.175781 861.121094 L 751.941406 874.261719 C 750.160156 874.65625 748.320312 874.160156 746.953125 872.964844 C 745.585938 871.765625 744.871094 869.992188 745.015625 868.179688 L 752.648438 775.867188 L 727.566406 888.15625 C 727.0625 890.441406 725.203125 892.191406 722.882812 892.570312 L 689.898438 897.882812 C 689.597656 897.925781 689.285156 897.960938 688.980469 897.960938 " fill-opacity="1" fill-rule="nonzero"/><g clip-path="url(#b4b60aee29)"><g clip-path="url(#91adae7f1a)"><g clip-path="url(#ee510c73a7)"><g clip-path="url(#d677618251)"><path fill="url(#6ab4a599d9)" d="M 793.945312 582.6875 L 796.570312 898.191406 L 1024.785156 896.292969 L 1022.160156 580.789062 Z M 793.945312 582.6875 " fill-rule="nonzero"/></g></g></g></g><path fill="#5d1d14" d="M 906.003906 643.886719 C 906.292969 643.886719 906.609375 643.898438 906.898438 643.957031 C 909.914062 644.425781 912.019531 647.171875 911.71875 650.195312 L 887.476562 889.46875 L 909.253906 885.960938 L 951.683594 696.023438 C 952.332031 693.074219 955.144531 691.136719 958.136719 691.597656 C 961.128906 692.054688 963.246094 694.734375 963 697.75 L 949.128906 865.523438 L 998.371094 854.957031 L 999.15625 818.164062 C 1000.601562 750.375 1006.125 673.625 1015.574219 589.929688 L 957.980469 602.085938 L 927.933594 733.882812 C 927.273438 736.816406 924.417969 738.734375 921.445312 738.273438 C 918.453125 737.792969 916.347656 735.09375 916.628906 732.089844 L 929.347656 592.75 L 869.03125 604.628906 C 853.476562 694.453125 831.878906 783.855469 804.816406 870.53125 L 854.136719 862.699219 L 900.398438 648.414062 C 900.980469 645.738281 903.347656 643.886719 906.003906 643.886719 Z M 881.023438 902.050781 C 879.566406 902.050781 878.152344 901.5 877.089844 900.492188 C 875.789062 899.269531 875.128906 897.511719 875.308594 895.742188 L 889.953125 751.191406 L 864.539062 868.964844 C 864.03125 871.269531 862.160156 873.042969 859.820312 873.421875 L 797.464844 883.328125 C 795.503906 883.628906 793.507812 882.914062 792.21875 881.398438 C 790.90625 879.898438 790.492188 877.816406 791.097656 875.921875 C 819.710938 785.726562 842.347656 692.480469 858.394531 598.789062 C 858.800781 596.449219 860.605469 594.589844 862.945312 594.128906 L 934.648438 580.011719 C 936.429688 579.652344 938.257812 580.167969 939.601562 581.378906 C 940.945312 582.589844 941.640625 584.359375 941.472656 586.164062 L 935.890625 647.375 L 947.601562 595.957031 C 948.109375 593.78125 949.820312 592.078125 952.019531 591.621094 L 1020.996094 577.054688 C 1022.789062 576.683594 1024.671875 577.1875 1026.039062 578.421875 C 1027.40625 579.664062 1028.089844 581.492188 1027.878906 583.316406 C 1017.914062 669.75 1012.109375 748.839844 1010.632812 818.410156 L 1009.746094 859.730469 C 1009.691406 862.386719 1007.816406 864.660156 1005.21875 865.222656 L 943.984375 878.363281 C 942.203125 878.746094 940.351562 878.261719 938.984375 877.0625 C 937.617188 875.863281 936.910156 874.082031 937.058594 872.28125 L 944.6875 779.964844 L 919.609375 892.257812 C 919.09375 894.542969 917.230469 896.289062 914.914062 896.671875 L 881.929688 901.984375 C 881.628906 902.027344 881.324219 902.050781 881.023438 902.050781 " fill-opacity="1" fill-rule="nonzero"/><g clip-path="url(#40ebcbab16)"><g clip-path="url(#390d6bbc46)"><g clip-path="url(#45cb12f5e6)"><g clip-path="url(#48281127b6)"><path fill="url(#9757136390)" d="M 1060.488281 567.597656 L 1063.179688 890.710938 L 1207.414062 889.511719 L 1204.726562 566.398438 Z M 1060.488281 567.597656 " fill-rule="nonzero"/></g></g></g></g><path fill="#5d1d14" d="M 1101.742188 766.453125 L 1131.710938 768.828125 C 1140.363281 734.867188 1150.179688 702.878906 1160.914062 673.671875 C 1168.714844 652.5625 1180.753906 623.394531 1196.746094 586.878906 L 1146.875 574.542969 Z M 1136.09375 780.671875 C 1135.945312 780.671875 1135.789062 780.660156 1135.644531 780.648438 L 1094.179688 777.367188 C 1092.507812 777.222656 1090.984375 776.371094 1090 775.023438 C 1089.011719 773.667969 1088.664062 771.957031 1089.046875 770.332031 L 1137.023438 566.265625 C 1137.382812 564.773438 1138.3125 563.484375 1139.621094 562.679688 C 1140.933594 561.882812 1142.503906 561.648438 1143.992188 562.007812 L 1206.113281 577.378906 C 1207.75 577.792969 1209.140625 578.902344 1209.878906 580.425781 C 1210.628906 581.9375 1210.664062 583.710938 1209.992188 585.257812 C 1192.722656 624.484375 1179.84375 655.5625 1171.6875 677.636719 C 1160.601562 707.796875 1150.492188 741.007812 1141.664062 776.324219 C 1141.011719 778.890625 1138.703125 780.671875 1136.09375 780.671875 Z M 1108.097656 821.726562 C 1106.941406 821.726562 1105.734375 821.824219 1104.488281 822.039062 C 1096.429688 823.269531 1089.191406 827.394531 1082.289062 834.644531 C 1073.660156 843.855469 1069.332031 853.667969 1069.097656 864.617188 C 1068.953125 871.773438 1071.070312 876.839844 1075.5625 880.101562 C 1079.339844 882.753906 1084.015625 883.628906 1089.71875 882.6875 C 1097.460938 881.476562 1104.824219 877.34375 1111.648438 870.410156 C 1120.648438 861.421875 1125.132812 851.785156 1125.355469 840.929688 C 1125.511719 833.714844 1123.382812 828.804688 1118.664062 825.480469 C 1115.335938 822.902344 1111.953125 821.726562 1108.097656 821.726562 Z M 1085.480469 894.53125 C 1079.285156 894.53125 1073.703125 892.816406 1068.894531 889.445312 C 1061.164062 883.832031 1057.398438 875.417969 1057.621094 864.371094 C 1057.925781 850.667969 1063.414062 838.015625 1073.9375 826.765625 C 1082.578125 817.703125 1092.238281 812.3125 1102.664062 810.710938 C 1104.445312 810.410156 1106.304688 810.25 1108.097656 810.25 C 1114.519531 810.25 1120.371094 812.28125 1125.492188 816.269531 C 1133.179688 821.65625 1137.066406 830.105469 1136.832031 841.175781 C 1136.539062 854.945312 1130.804688 867.507812 1119.796875 878.496094 C 1111.246094 887.179688 1101.722656 892.414062 1091.535156 894.015625 C 1089.496094 894.351562 1087.441406 894.53125 1085.480469 894.53125 " fill-opacity="1" fill-rule="nonzero"/><g clip-path="url(#7cbfca64e5)"><g clip-path="url(#654f867556)"><g clip-path="url(#85b78743d9)"><g clip-path="url(#4d8b163786)"><path fill="url(#8d32a53b18)" d="M 1150.085938 569.511719 L 1152.777344 892.617188 L 1297.003906 891.417969 L 1294.3125 568.3125 Z M 1150.085938 569.511719 " fill-rule="nonzero"/></g></g></g></g><path fill="#5d1d14" d="M 1191.34375 768.371094 L 1221.308594 770.746094 C 1229.960938 736.785156 1239.777344 704.785156 1250.515625 675.574219 C 1258.328125 654.433594 1270.375 625.265625 1286.332031 588.796875 L 1236.460938 576.460938 Z M 1225.691406 782.589844 C 1225.546875 782.589844 1225.390625 782.578125 1225.234375 782.566406 L 1183.777344 779.28125 C 1182.109375 779.148438 1180.585938 778.285156 1179.597656 776.941406 C 1178.613281 775.585938 1178.265625 773.871094 1178.644531 772.246094 L 1226.621094 568.179688 C 1226.980469 566.691406 1227.910156 565.390625 1229.222656 564.59375 C 1230.535156 563.800781 1232.101562 563.554688 1233.59375 563.921875 L 1295.714844 579.296875 C 1297.347656 579.699219 1298.726562 580.808594 1299.476562 582.332031 C 1300.230469 583.855469 1300.261719 585.625 1299.578125 587.171875 C 1282.34375 626.355469 1269.457031 657.433594 1261.285156 679.542969 C 1250.203125 709.714844 1240.09375 742.925781 1231.261719 778.242188 C 1230.613281 780.804688 1228.304688 782.589844 1225.691406 782.589844 Z M 1197.695312 823.640625 C 1196.542969 823.640625 1195.332031 823.742188 1194.101562 823.953125 C 1186.03125 825.1875 1178.789062 829.3125 1171.875 836.558594 C 1163.257812 845.769531 1158.933594 855.585938 1158.695312 866.53125 C 1158.539062 873.691406 1160.65625 878.753906 1165.164062 882.015625 C 1168.941406 884.671875 1173.601562 885.535156 1179.304688 884.605469 C 1187.0625 883.382812 1194.425781 879.261719 1201.25 872.324219 C 1210.25 863.339844 1214.71875 853.703125 1214.957031 842.84375 C 1215.113281 835.628906 1212.984375 830.710938 1208.265625 827.394531 C 1204.9375 824.804688 1201.550781 823.640625 1197.695312 823.640625 Z M 1175.082031 896.4375 C 1168.882812 896.4375 1163.304688 894.734375 1158.496094 891.347656 C 1150.761719 885.746094 1146.996094 877.320312 1147.222656 866.285156 C 1147.511719 852.582031 1153.003906 839.933594 1163.539062 828.683594 C 1172.179688 819.617188 1181.828125 814.21875 1192.261719 812.628906 C 1194.042969 812.324219 1195.902344 812.167969 1197.695312 812.167969 C 1204.117188 812.167969 1209.96875 814.183594 1215.089844 818.171875 C 1222.777344 823.574219 1226.667969 832.023438 1226.433594 843.09375 C 1226.140625 856.863281 1220.402344 869.421875 1209.398438 880.414062 C 1200.835938 889.097656 1191.320312 894.328125 1181.132812 895.933594 C 1179.09375 896.269531 1177.042969 896.4375 1175.082031 896.4375 " fill-opacity="1" fill-rule="nonzero"/><path fill="#5d1d14" d="M 1290.996094 957.039062 C 1290.570312 928.929688 1288.910156 898.835938 1294.601562 871.179688 C 1299.65625 846.644531 1320.265625 832.953125 1337.929688 817.300781 C 1376.972656 782.722656 1409.652344 718.320312 1377.738281 668.382812 C 1357.878906 637.3125 1308.199219 666.050781 1328.191406 697.324219 C 1337.570312 712 1330.386719 734.769531 1321.65625 749.726562 C 1310.675781 768.550781 1291.105469 781.757812 1275.226562 796.132812 C 1229.59375 837.390625 1232.761719 900.457031 1233.617188 957.039062 C 1234.164062 993.992188 1291.542969 994.058594 1290.996094 957.039062 " fill-opacity="1" fill-rule="nonzero"/><g clip-path="url(#821410ded4)"><g clip-path="url(#10ade3855f)"><g clip-path="url(#f76023ac15)"><g clip-path="url(#23761638be)"><path fill="url(#54457ccbe8)" d="M 1362.378906 848.859375 L 1322.097656 965.957031 L 1176.753906 915.980469 L 1217.035156 798.882812 Z M 1362.378906 848.859375 " fill-rule="nonzero"/></g></g></g></g><path fill="#5d1d14" d="M 1210.238281 879.605469 L 1320.984375 917.691406 L 1329.570312 892.726562 C 1331.09375 888.300781 1327.371094 881.511719 1319.617188 874.554688 C 1310.359375 866.242188 1296.710938 858.734375 1281.175781 853.398438 C 1267.839844 848.804688 1254.179688 846.273438 1242.738281 846.273438 C 1229.761719 846.273438 1220.605469 849.480469 1218.820312 854.644531 Z M 1324.539062 930.722656 C 1323.910156 930.722656 1323.28125 930.621094 1322.675781 930.40625 L 1201.070312 888.59375 C 1199.636719 888.101562 1198.449219 887.058594 1197.785156 885.691406 C 1197.113281 884.324219 1197.023438 882.746094 1197.519531 881.308594 L 1207.972656 850.914062 C 1211.550781 840.527344 1223.886719 834.800781 1242.738281 834.800781 C 1255.601562 834.800781 1270.183594 837.480469 1284.910156 842.542969 C 1301.855469 848.371094 1316.90625 856.707031 1327.28125 866.015625 C 1338.914062 876.457031 1343.578125 887.269531 1340.429688 896.457031 L 1329.972656 926.84375 C 1329.46875 928.289062 1328.425781 929.46875 1327.058594 930.140625 C 1326.261719 930.519531 1325.398438 930.722656 1324.539062 930.722656 " fill-opacity="1" fill-rule="nonzero"/><g clip-path="url(#daccc0a419)"><g clip-path="url(#3dcdaf4e9f)"><g clip-path="url(#99b91a2c34)"><g clip-path="url(#8fc6eecbf4)"><path fill="url(#8eddf00d3a)" d="M 1446.054688 896.449219 L 1336.660156 1214.460938 L 1016.894531 1104.511719 L 1126.289062 786.5 Z M 1446.054688 896.449219 " fill-rule="nonzero"/></g></g></g></g><path fill="#5d1d14" d="M 1230.632812 874.585938 C 1176.929688 874.585938 1129.109375 908.714844 1111.640625 959.527344 C 1089.066406 1025.128906 1124.101562 1096.859375 1189.71875 1119.414062 C 1202.988281 1123.976562 1216.75 1126.296875 1230.65625 1126.296875 C 1284.347656 1126.296875 1332.167969 1092.15625 1349.640625 1041.355469 C 1360.578125 1009.578125 1358.484375 975.4375 1343.734375 945.242188 C 1328.988281 915.046875 1303.355469 892.390625 1271.574219 881.46875 C 1258.304688 876.894531 1244.53125 874.585938 1230.632812 874.585938 Z M 1230.65625 1137.769531 C 1230.644531 1137.769531 1230.65625 1137.769531 1230.65625 1137.769531 C 1215.484375 1137.769531 1200.453125 1135.234375 1185.984375 1130.261719 C 1114.382812 1105.644531 1076.15625 1027.382812 1100.78125 955.796875 C 1119.855469 900.359375 1172.035156 863.113281 1230.632812 863.113281 C 1245.796875 863.113281 1260.824219 865.636719 1275.304688 870.609375 C 1309.992188 882.542969 1337.953125 907.25 1354.046875 940.210938 C 1370.136719 973.164062 1372.425781 1010.40625 1360.5 1045.085938 C 1341.425781 1100.523438 1289.246094 1137.769531 1230.65625 1137.769531 " fill-opacity="1" fill-rule="nonzero"/></svg>