<svg xmlns="http://www.w3.org/2000/svg" xmlns:xlink="http://www.w3.org/1999/xlink" width="2000" zoomAndPan="magnify" viewBox="0 0 1500 1499.999933" height="2000" preserveAspectRatio="xMidYMid meet" version="1.0"><defs><clipPath id="d10daa179d"><path d="M 90 315.351562 L 1410 315.351562 L 1410 1184.601562 L 90 1184.601562 Z M 90 315.351562 " clip-rule="nonzero"/></clipPath></defs><path fill="#3871c1" d="M 163.632812 524.46875 L 310.394531 553.4375 L 293.835938 443.0625 L 443.074219 524.742188 L 438.65625 381.679688 L 575.753906 501.074219 L 653.765625 352.894531 L 750.363281 461.277344 L 854.394531 332.980469 L 891.96875 461.277344 L 1014.21875 359.8125 L 1000.160156 481.472656 L 1170.21875 377.988281 L 1086.324219 514.636719 L 1262.617188 425.726562 L 1149.214844 543.578125 L 1326.222656 536.296875 L 1193.074219 613.664062 L 1379.992188 627.125 L 1223.667969 727.058594 L 1378.332031 789.671875 L 1194.929688 817.242188 L 1321.984375 952.285156 L 1139.25 906.304688 L 1208.949219 1061.609375 L 1055.613281 993.726562 L 1106.042969 1142.929688 L 945.039062 1018.070312 L 913.671875 1140.972656 L 774.773438 1018.070312 L 713.589844 1126.21875 L 630.328125 1042.773438 L 547 1160.507812 L 509.570312 1071.507812 L 408.828125 1160.507812 L 425.386719 1056.15625 L 303.125 1159.433594 L 350.199219 1018.070312 L 157.605469 1121.253906 L 302.152344 985.449219 L 120.730469 964.433594 L 298.1875 882.496094 L 120.730469 828.316406 L 298.1875 766.222656 L 138.648438 697.238281 L 274.128906 646.945312 L 163.632812 524.46875 " fill-opacity="1" fill-rule="nonzero"/><path fill="#00adef" d="M 271.175781 709.300781 L 325.164062 709.300781 L 325.164062 784.699219 L 379.15625 679.902344 L 325.164062 679.902344 L 325.164062 604.507812 L 271.175781 709.300781 " fill-opacity="1" fill-rule="nonzero"/><path fill="#00adef" d="M 225.746094 734.925781 L 210.09375 728.148438 L 225.746094 697.769531 Z M 225.746094 734.925781 " fill-opacity="1" fill-rule="nonzero"/><path fill="#00adef" d="M 279.710938 773.15625 L 233.574219 862.765625 L 225.746094 860.378906 L 225.746094 802.574219 L 194.300781 802.574219 L 278.390625 773.15625 L 279.710938 773.15625 " fill-opacity="1" fill-rule="nonzero"/><path fill="#00adef" d="M 225.746094 664.902344 L 242.628906 658.644531 L 225.746094 691.410156 Z M 225.746094 664.902344 " fill-opacity="1" fill-rule="nonzero"/><path fill="#00adef" d="M 279.710938 586.640625 L 257.917969 628.953125 L 198.808594 563.492188 L 213.800781 534.40625 L 225.746094 536.765625 L 225.746094 586.640625 L 279.710938 586.640625 " fill-opacity="1" fill-rule="nonzero"/><path fill="#00adef" d="M 179.113281 682.222656 L 165.40625 708.820312 L 138.636719 697.238281 Z M 179.113281 682.222656 " fill-opacity="1" fill-rule="nonzero"/><path fill="#00adef" d="M 655.492188 679.902344 L 655.492188 604.507812 L 601.5 709.300781 L 655.492188 709.300781 L 655.492188 784.699219 L 709.480469 679.902344 L 655.492188 679.902344 " fill-opacity="1" fill-rule="nonzero"/><path fill="#00adef" d="M 556.058594 773.167969 L 556.058594 697.78125 L 502.066406 802.574219 L 556.058594 802.574219 L 556.058594 877.960938 L 610.0625 773.167969 L 556.058594 773.167969 " fill-opacity="1" fill-rule="nonzero"/><path fill="#00adef" d="M 610.0625 586.628906 L 556.058594 586.628906 L 556.058594 511.230469 L 502.066406 616.035156 L 556.058594 616.035156 L 556.058594 691.421875 L 610.0625 586.628906 " fill-opacity="1" fill-rule="nonzero"/><path fill="#00adef" d="M 510.632812 679.902344 L 456.640625 679.902344 L 456.640625 604.507812 L 402.636719 709.300781 L 456.640625 709.300781 L 456.640625 784.699219 L 510.632812 679.902344 " fill-opacity="1" fill-rule="nonzero"/><path fill="#00adef" d="M 490.328125 909.660156 L 490.328125 834.277344 L 436.335938 939.070312 L 490.328125 939.070312 L 490.328125 1014.46875 L 544.320312 909.660156 L 490.328125 909.660156 " fill-opacity="1" fill-rule="nonzero"/><path fill="#00adef" d="M 444.902344 1002.925781 L 411.367188 1067.996094 L 390.894531 1085.304688 L 390.894531 1032.34375 L 336.890625 1032.34375 L 341.972656 1022.488281 L 390.894531 927.539062 L 390.894531 1002.925781 L 444.902344 1002.925781 " fill-opacity="1" fill-rule="nonzero"/><path fill="#00adef" d="M 444.886719 816.398438 L 390.894531 816.398438 L 390.894531 741 L 336.90625 845.804688 L 390.894531 845.804688 L 390.894531 921.191406 L 444.886719 816.398438 " fill-opacity="1" fill-rule="nonzero"/><path fill="#00adef" d="M 291.453125 880.449219 L 270.925781 874.175781 L 291.453125 834.277344 Z M 291.453125 880.449219 " fill-opacity="1" fill-rule="nonzero"/><path fill="#00adef" d="M 291.453125 939.082031 L 237.484375 939.082031 L 256.792969 901.601562 L 291.453125 885.617188 L 291.453125 909.660156 L 345.457031 909.660156 L 291.453125 1014.46875 L 291.453125 939.082031 " fill-opacity="1" fill-rule="nonzero"/><path fill="#00adef" d="M 490.339844 554.925781 L 490.339844 479.554688 L 436.335938 479.554688 L 441.375 469.761719 L 471.863281 410.59375 L 490.339844 426.6875 L 490.339844 450.132812 L 517.277344 450.132812 L 535.949219 466.378906 L 490.339844 554.925781 " fill-opacity="1" fill-rule="nonzero"/><path fill="#00adef" d="M 390.894531 648.191406 L 390.894531 572.804688 L 336.890625 572.804688 L 379.558594 489.996094 L 390.894531 496.203125 L 390.894531 543.398438 L 444.902344 543.398438 L 390.894531 648.191406 " fill-opacity="1" fill-rule="nonzero"/><path fill="#00adef" d="M 291.453125 549.695312 L 293.914062 550.1875 L 291.453125 554.925781 Z M 291.453125 549.695312 " fill-opacity="1" fill-rule="nonzero"/><path fill="#00adef" d="M 336.929688 466.652344 L 306.3125 526.117188 L 294.898438 450.132812 L 306.742188 450.132812 L 336.929688 466.652344 " fill-opacity="1" fill-rule="nonzero"/><path fill="#00adef" d="M 732.378906 1093.027344 L 713.601562 1126.230469 L 671.375 1083.90625 L 705.515625 1017.652344 L 705.515625 1093.027344 L 732.378906 1093.027344 " fill-opacity="1" fill-rule="nonzero"/><path fill="#00adef" d="M 660.078125 999.777344 L 635.328125 1047.800781 L 630.316406 1042.785156 L 606.074219 1077.054688 L 606.074219 1029.160156 L 552.105469 1029.160156 L 606.074219 924.351562 L 606.074219 999.777344 L 660.078125 999.777344 " fill-opacity="1" fill-rule="nonzero"/><path fill="#00adef" d="M 453.285156 1121.214844 L 506.667969 1017.652344 L 506.667969 1074.097656 Z M 453.285156 1121.214844 " fill-opacity="1" fill-rule="nonzero"/><path fill="#00adef" d="M 560.660156 1093.027344 L 537.503906 1137.96875 L 518.640625 1093.027344 Z M 560.660156 1093.027344 " fill-opacity="1" fill-rule="nonzero"/><path fill="#00adef" d="M 1009.746094 1068.296875 L 1035.855469 1017.652344 L 1035.855469 1088.519531 Z M 1009.746094 1068.296875 " fill-opacity="1" fill-rule="nonzero"/><path fill="#00adef" d="M 1089.847656 1093.027344 L 1089.457031 1093.828125 L 1076.085938 1119.726562 L 1041.6875 1093.027344 L 1089.847656 1093.027344 " fill-opacity="1" fill-rule="nonzero"/><path fill="#00adef" d="M 990.414062 999.777344 L 970.707031 1037.980469 L 945.027344 1018.082031 L 936.410156 1051.867188 L 936.410156 1029.160156 L 882.40625 1029.160156 L 936.410156 924.351562 L 936.410156 999.777344 L 990.414062 999.777344 " fill-opacity="1" fill-rule="nonzero"/><path fill="#00adef" d="M 817.363281 1055.753906 L 837.003906 1017.652344 L 837.003906 1073.128906 Z M 817.363281 1055.753906 " fill-opacity="1" fill-rule="nonzero"/><path fill="#00adef" d="M 890.96875 1093.027344 L 881.109375 1112.175781 L 859.460938 1093.027344 Z M 890.96875 1093.027344 " fill-opacity="1" fill-rule="nonzero"/><path fill="#00adef" d="M 816.6875 892.664062 L 870.679688 892.664062 L 870.679688 968.0625 L 924.671875 863.269531 L 870.679688 863.269531 L 870.679688 787.871094 L 816.6875 892.664062 " fill-opacity="1" fill-rule="nonzero"/><path fill="#00adef" d="M 825.253906 956.519531 L 787.675781 1029.480469 L 774.773438 1018.082031 L 771.261719 1024.289062 L 771.261719 985.941406 L 717.257812 985.941406 L 771.261719 881.148438 L 771.261719 956.519531 L 825.253906 956.519531 " fill-opacity="1" fill-rule="nonzero"/><path fill="#00adef" d="M 825.238281 769.992188 L 771.25 769.992188 L 771.25 694.59375 L 717.257812 799.402344 L 771.25 799.402344 L 771.25 874.785156 L 825.238281 769.992188 " fill-opacity="1" fill-rule="nonzero"/><path fill="#00adef" d="M 725.808594 863.269531 L 671.816406 863.269531 L 671.816406 787.871094 L 617.824219 892.664062 L 671.816406 892.664062 L 671.816406 968.0625 L 725.808594 863.269531 " fill-opacity="1" fill-rule="nonzero"/><path fill="#00adef" d="M 985.699219 657.984375 L 1039.675781 657.984375 L 1039.675781 733.371094 L 1093.683594 628.578125 L 1039.675781 628.578125 L 1039.675781 553.191406 L 985.699219 657.984375 " fill-opacity="1" fill-rule="nonzero"/><path fill="#00adef" d="M 886.253906 751.261719 L 940.257812 751.261719 L 940.257812 826.644531 L 994.25 721.851562 L 940.257812 721.851562 L 940.257812 646.453125 L 886.253906 751.261719 " fill-opacity="1" fill-rule="nonzero"/><path fill="#00adef" d="M 994.25 535.300781 L 940.257812 535.300781 L 940.257812 459.914062 L 886.253906 564.707031 L 940.257812 564.707031 L 940.257812 640.105469 L 994.25 535.300781 " fill-opacity="1" fill-rule="nonzero"/><path fill="#00adef" d="M 894.820312 628.578125 L 840.828125 628.578125 L 840.828125 553.191406 L 786.835938 657.984375 L 840.828125 657.984375 L 840.828125 733.371094 L 894.820312 628.578125 " fill-opacity="1" fill-rule="nonzero"/><path fill="#00adef" d="M 1377.699219 628.589844 L 1331.726562 657.972656 L 1316.035156 657.972656 L 1333.644531 623.78125 L 1370.003906 626.398438 L 1370.003906 628.589844 L 1377.699219 628.589844 " fill-opacity="1" fill-rule="nonzero"/><path fill="#00adef" d="M 1270.597656 697.042969 L 1231.726562 721.917969 L 1270.597656 646.46875 Z M 1270.597656 697.042969 " fill-opacity="1" fill-rule="nonzero"/><path fill="#00adef" d="M 1304.957031 759.953125 L 1282.207031 804.128906 L 1270.597656 805.851562 L 1270.597656 751.273438 L 1216.59375 751.273438 L 1228.136719 728.886719 L 1304.957031 759.953125 " fill-opacity="1" fill-rule="nonzero"/><path fill="#00adef" d="M 1270.597656 619.234375 L 1280.949219 620 L 1270.597656 640.105469 Z M 1270.597656 619.234375 " fill-opacity="1" fill-rule="nonzero"/><path fill="#00adef" d="M 1324.03125 536.386719 L 1323.164062 538.046875 L 1270.597656 568.632812 L 1270.597656 564.722656 L 1216.59375 564.722656 L 1229.160156 540.300781 L 1324.03125 536.386719 " fill-opacity="1" fill-rule="nonzero"/><path fill="#00adef" d="M 1225.144531 628.578125 L 1171.152344 628.578125 L 1171.152344 553.191406 L 1117.160156 657.984375 L 1171.152344 657.984375 L 1171.152344 733.371094 L 1225.144531 628.578125 " fill-opacity="1" fill-rule="nonzero"/><path fill="#00adef" d="M 1249.929688 875.667969 L 1223.226562 927.433594 L 1204.851562 922.835938 L 1204.851562 887.742188 L 1150.847656 887.742188 L 1204.851562 782.933594 L 1204.851562 858.359375 L 1233.605469 858.359375 L 1249.929688 875.667969 " fill-opacity="1" fill-rule="nonzero"/><path fill="#00adef" d="M 1159.414062 951.621094 L 1122.460938 1023.316406 L 1105.410156 1015.789062 L 1105.410156 981.03125 L 1051.441406 981.03125 L 1105.410156 876.238281 L 1105.410156 951.621094 L 1159.414062 951.621094 " fill-opacity="1" fill-rule="nonzero"/><path fill="#00adef" d="M 1159.414062 765.070312 L 1105.421875 765.070312 L 1105.421875 689.683594 L 1051.429688 794.476562 L 1105.421875 794.476562 L 1105.421875 869.863281 L 1159.414062 765.070312 " fill-opacity="1" fill-rule="nonzero"/><path fill="#00adef" d="M 1005.988281 858.347656 L 1005.988281 782.949219 L 951.996094 887.753906 L 1005.988281 887.753906 L 1005.988281 963.140625 L 1059.980469 858.347656 L 1005.988281 858.347656 " fill-opacity="1" fill-rule="nonzero"/><path fill="#00adef" d="M 1238.789062 437.722656 L 1224.652344 465.1875 L 1224.625 465.226562 L 1204.851562 485.746094 L 1204.851562 454.835938 L 1238.789062 437.722656 " fill-opacity="1" fill-rule="nonzero"/><path fill="#00adef" d="M 1051.429688 521.492188 L 1105.421875 521.492188 L 1105.421875 596.875 L 1159.414062 492.082031 L 1105.421875 492.082031 L 1105.421875 416.683594 L 1051.429688 521.492188 " fill-opacity="1" fill-rule="nonzero"/><path fill="#00adef" d="M 1006.003906 428.214844 L 951.996094 428.214844 L 967.054688 398.988281 L 967.09375 398.960938 L 1006.003906 366.652344 L 1006.003906 398.792969 L 1009.707031 398.792969 L 1006.003906 430.960938 L 1006.003906 428.214844 " fill-opacity="1" fill-rule="nonzero"/><path fill="#00adef" d="M 1025.242188 466.210938 L 1006.003906 503.597656 L 1006.003906 477.921875 Z M 1025.242188 466.210938 " fill-opacity="1" fill-rule="nonzero"/><path fill="#00adef" d="M 857.335938 343.046875 L 846.21875 343.046875 L 854.378906 332.957031 Z M 857.335938 343.046875 " fill-opacity="1" fill-rule="nonzero"/><path fill="#00adef" d="M 825.238281 450.132812 L 825.238281 374.734375 L 771.25 479.542969 L 825.238281 479.542969 L 825.238281 554.925781 L 879.230469 450.132812 L 825.238281 450.132812 " fill-opacity="1" fill-rule="nonzero"/><path fill="#00adef" d="M 725.808594 543.398438 L 725.808594 468.011719 L 671.816406 572.804688 L 725.808594 572.804688 L 725.808594 648.203125 L 779.800781 543.398438 L 725.808594 543.398438 " fill-opacity="1" fill-rule="nonzero"/><path fill="#00adef" d="M 676.09375 377.9375 L 683.492188 386.253906 L 671.816406 386.253906 Z M 676.09375 377.9375 " fill-opacity="1" fill-rule="nonzero"/><path fill="#00adef" d="M 734.929688 443.96875 L 725.808594 461.636719 L 725.808594 433.746094 Z M 734.929688 443.96875 " fill-opacity="1" fill-rule="nonzero"/><path fill="#00adef" d="M 626.375 554.925781 L 626.375 479.554688 L 587.105469 479.554688 L 626.375 404.933594 L 626.375 450.132812 L 680.367188 450.132812 L 626.375 554.925781 " fill-opacity="1" fill-rule="nonzero"/><g clip-path="url(#d10daa179d)"><path fill="#231f20" d="M 512.742188 1057.644531 L 548.867188 1143.539062 L 629.238281 1029.949219 L 711.75 1112.640625 L 772.59375 1005.074219 L 908.992188 1125.765625 L 940.140625 1003.765625 L 1089.378906 1119.507812 L 1041.710938 978.503906 L 1192.53125 1045.273438 L 1124.6875 894.089844 L 1296.535156 937.320312 L 1178.03125 811.398438 L 1347.121094 785.980469 L 1205.683594 728.71875 L 1354.46875 633.601562 L 1165.671875 620 L 1293.089844 545.960938 L 1128.925781 552.710938 L 1222.902344 455.03125 L 1063.960938 535.195312 L 1145.171875 402.9375 L 989.976562 497.367188 L 1003.605469 379.398438 L 887.5625 475.707031 L 850.867188 350.472656 L 750.660156 474.074219 L 655.53125 367.339844 L 578.214844 514.210938 L 447.53125 400.398438 L 451.808594 538.980469 L 304.511719 458.359375 L 320.34375 563.851562 L 186.5 537.4375 L 288.472656 650.46875 L 160.898438 697.832031 L 320.96875 767.039062 L 147.371094 827.785156 L 321.40625 880.914062 L 150.996094 959.589844 L 320.839844 979.269531 L 209.085938 1084.269531 L 364.644531 1000.929688 L 320.320312 1134.054688 L 437.0625 1035.429688 L 420.632812 1139.015625 Z M 285.933594 1184.8125 L 335.75 1035.222656 L 106.140625 1158.242188 L 283.457031 991.628906 L 90.476562 969.28125 L 274.984375 884.074219 L 94.089844 828.859375 L 275.421875 765.40625 L 116.414062 696.65625 L 259.785156 643.4375 L 140.761719 511.503906 L 300.445312 543.023438 L 283.144531 427.761719 L 434.339844 510.515625 L 429.78125 362.960938 L 573.292969 487.9375 L 652.003906 338.449219 L 750.0625 448.476562 L 857.90625 315.480469 L 896.386719 446.84375 L 1024.828125 340.238281 L 1010.34375 465.5625 L 1195.265625 353.035156 L 1108.671875 494.078125 L 1302.328125 396.410156 L 1169.507812 534.445312 L 1359.351562 526.648438 L 1220.492188 607.332031 L 1405.503906 620.648438 L 1241.664062 725.402344 L 1409.546875 793.363281 L 1211.8125 823.082031 L 1347.445312 967.234375 L 1153.828125 918.523438 L 1225.363281 1077.945312 L 1069.503906 1008.949219 L 1122.707031 1166.351562 L 949.949219 1032.371094 L 918.347656 1156.183594 L 776.949219 1031.0625 L 715.441406 1139.808594 L 631.402344 1055.597656 L 545.148438 1177.492188 L 506.40625 1085.371094 L 397.011719 1182 L 413.699219 1076.882812 L 285.933594 1184.8125 " fill-opacity="1" fill-rule="nonzero"/></g><path fill="#c5ecec" d="M 614.960938 671.070312 C 599 689.929688 567.695312 730.117188 521.074219 791.617188 C 505.214844 811.734375 489.5625 831.816406 474.132812 851.894531 C 453.789062 878.234375 439.613281 898.609375 431.644531 913.042969 L 577.59375 890.835938 L 574.238281 1008.210938 C 467.097656 1020.089844 378.070312 1033.992188 307.179688 1049.925781 L 298.1875 934.832031 C 313.90625 913.082031 345.351562 872.261719 392.542969 812.371094 L 490.523438 688.351562 C 455.109375 694.234375 417.160156 702.199219 376.667969 712.253906 L 371.203125 594.375 L 621.414062 553.4375 C 619.832031 579.449219 617.683594 618.664062 614.960938 671.070312 " fill-opacity="1" fill-rule="nonzero"/><path fill="#ffffff" d="M 371.203125 594.375 L 376.667969 712.253906 C 417.160156 702.199219 455.109375 694.234375 490.523438 688.351562 L 392.542969 812.371094 C 345.351562 872.261719 313.90625 913.082031 298.1875 934.832031 L 614.960938 671.070312 C 617.683594 618.664062 619.832031 579.449219 621.414062 553.4375 L 371.203125 594.375 " fill-opacity="1" fill-rule="nonzero"/><path fill="#231f20" d="M 306.703125 937.230469 L 314.710938 1039.769531 C 382.433594 1025.039062 466.914062 1011.941406 566.152344 1000.773438 L 569.015625 900.527344 L 416.253906 923.769531 L 424.390625 909.039062 C 432.617188 894.140625 446.742188 873.789062 467.574219 846.828125 C 482.773438 827.046875 498.59375 806.746094 514.558594 786.484375 C 559.234375 727.550781 590.277344 687.636719 606.824219 667.855469 C 609.117188 623.71875 611.035156 588.625 612.523438 563.296875 L 379.832031 601.359375 L 384.484375 701.796875 C 421.460938 692.847656 456.640625 685.578125 489.160156 680.164062 L 510.332031 676.652344 L 399.058594 817.511719 C 353.957031 874.734375 322.910156 914.984375 306.703125 937.230469 Z M 299.667969 1060.109375 L 289.6875 932.449219 L 291.476562 929.976562 C 307.257812 908.132812 339.066406 866.832031 386.039062 807.238281 L 470.542969 700.269531 C 441.597656 705.621094 410.796875 712.332031 378.664062 720.296875 L 368.855469 722.746094 L 362.574219 587.378906 L 630.328125 543.578125 L 629.691406 553.941406 C 628.097656 580.113281 625.9375 619.664062 623.242188 671.496094 L 623.097656 674.28125 L 621.296875 676.417969 C 605.449219 695.152344 573.953125 735.585938 527.683594 796.628906 C 511.65625 816.957031 495.886719 837.203125 480.699219 856.949219 C 466.914062 874.785156 455.964844 889.917969 447.957031 902.171875 L 586.15625 881.148438 L 582.324219 1015.660156 L 575.15625 1016.449219 C 468.769531 1028.238281 379.222656 1042.230469 309.007812 1058.007812 L 299.667969 1060.109375 " fill-opacity="1" fill-rule="nonzero"/><path fill="#ffffff" d="M 982.824219 619.144531 C 979.90625 630.792969 977.210938 642.453125 974.710938 654.085938 L 967.84375 688.402344 C 1006.535156 669.28125 1031.5 649.097656 1042.734375 627.875 C 1044.394531 624.558594 1045.234375 621.851562 1045.234375 619.765625 C 1045.234375 612.695312 1040.027344 609.15625 1029.636719 609.15625 C 1019.644531 609.15625 1004.046875 612.5 982.824219 619.144531 Z M 904.1875 519.300781 C 968.671875 499.765625 1021.523438 489.984375 1062.714844 489.984375 C 1118.871094 489.984375 1146.535156 509.53125 1145.703125 548.632812 C 1144.460938 627.253906 1078.316406 708.585938 947.253906 792.613281 C 938.09375 843.371094 931.433594 890.371094 927.277344 933.628906 L 828.050781 961.09375 C 829.296875 951.945312 834.296875 924.066406 843.03125 877.46875 L 870.484375 729.585938 C 895.039062 593.558594 906.273438 523.472656 904.1875 519.300781 " fill-opacity="1" fill-rule="nonzero"/><path fill="#c5ecec" d="M 870.484375 729.585938 L 843.03125 877.46875 C 834.296875 924.066406 829.296875 951.945312 828.050781 961.09375 L 927.277344 933.628906 C 931.433594 890.371094 938.09375 843.371094 947.253906 792.613281 L 904.417969 520.714844 C 904.925781 531.816406 893.613281 601.421875 870.484375 729.585938 " fill-opacity="1" fill-rule="nonzero"/><path fill="#231f20" d="M 989.742188 625.6875 C 987.304688 635.648438 984.972656 645.769531 982.824219 655.820312 L 979.390625 673 C 1007.738281 657.167969 1026.550781 640.726562 1035.402344 624.003906 C 1036.890625 621.023438 1036.945312 619.820312 1036.945312 619.765625 C 1036.945312 619.042969 1036.8125 618.78125 1036.8125 618.78125 C 1036.8125 618.78125 1035.429688 617.449219 1029.636719 617.449219 C 1021.226562 617.449219 1007.828125 620.21875 989.742188 625.6875 Z M 956.417969 703.3125 L 966.574219 652.464844 C 969.125 640.574219 971.886719 628.71875 974.777344 617.125 L 975.917969 612.628906 L 980.347656 611.230469 C 1002.59375 604.261719 1018.726562 600.867188 1029.636719 600.867188 C 1051.804688 600.867188 1053.527344 615.335938 1053.527344 619.765625 C 1053.527344 623.175781 1052.425781 627.035156 1050.160156 631.582031 C 1037.875 654.773438 1012.183594 675.734375 971.523438 695.839844 Z M 912.453125 525.480469 C 911.363281 541.753906 904.484375 587.910156 878.648438 731.0625 L 851.179688 878.984375 C 845.023438 911.851562 840.710938 935.492188 838.289062 949.652344 L 919.578125 927.164062 C 923.777344 885.433594 930.332031 839.71875 939.09375 791.136719 L 939.726562 787.585938 L 942.773438 785.628906 C 1070.734375 703.597656 1136.21875 623.808594 1137.425781 548.5 C 1137.710938 534.601562 1134.109375 524.042969 1126.398438 516.164062 C 1114.777344 504.285156 1093.34375 498.273438 1062.714844 498.273438 C 1023.78125 498.273438 973.246094 507.421875 912.453125 525.480469 Z M 818.140625 972.441406 L 819.835938 959.964844 C 821.121094 950.597656 826.03125 923.109375 834.878906 875.953125 L 862.335938 728.070312 C 891.460938 566.703125 896.191406 529.082031 896.167969 521.777344 L 892.394531 514.222656 L 901.789062 511.371094 C 966.769531 491.667969 1020.902344 481.691406 1062.714844 481.691406 C 1098.464844 481.691406 1123.171875 489.167969 1138.242188 504.558594 C 1149.085938 515.632812 1154.386719 530.519531 1153.996094 548.8125 C 1152.726562 629.355469 1085.6875 713.082031 954.785156 797.625 C 946.023438 846.636719 939.546875 892.636719 935.542969 934.417969 L 935 940.105469 L 818.140625 972.441406 " fill-opacity="1" fill-rule="nonzero"/><path fill="#fff200" d="M 1187.359375 857.101562 C 1176.128906 850.859375 1163.234375 848.785156 1148.671875 850.859375 C 1129.535156 853.347656 1112.054688 861.042969 1096.246094 873.929688 C 1076.695312 890.152344 1066.898438 907.835938 1066.898438 926.96875 C 1066.898438 941.117188 1073.351562 951.519531 1086.246094 958.164062 C 1097.0625 963.566406 1109.957031 965.238281 1124.933594 963.164062 C 1143.65625 960.679688 1160.914062 953.191406 1176.738281 940.714844 C 1197.117188 924.910156 1207.328125 907.433594 1207.328125 888.296875 C 1207.328125 874.164062 1200.667969 863.761719 1187.359375 857.101562 " fill-opacity="1" fill-rule="nonzero"/><path fill="#fff200" d="M 1188.292969 475.628906 L 1121.527344 822.265625 L 1208.273438 826.023438 L 1317.667969 452.425781 L 1188.292969 475.628906 " fill-opacity="1" fill-rule="nonzero"/><path fill="#f9a72b" d="M 1067.277344 920.765625 C 1067.042969 922.8125 1066.898438 924.882812 1066.898438 926.96875 C 1066.898438 941.117188 1073.351562 951.519531 1086.246094 958.164062 C 1097.0625 963.566406 1109.957031 965.238281 1124.933594 963.164062 C 1143.65625 960.679688 1160.914062 953.191406 1176.738281 940.714844 C 1197.117188 924.910156 1207.328125 907.433594 1207.328125 888.296875 C 1207.328125 881.925781 1205.902344 876.339844 1203.195312 871.484375 C 1155.914062 932.941406 1102.3125 931.503906 1067.277344 920.765625 " fill-opacity="1" fill-rule="nonzero"/><path fill="#f9a72b" d="M 1317.667969 452.425781 L 1317.203125 452.519531 L 1121.527344 822.265625 L 1208.273438 826.023438 L 1317.667969 452.425781 " fill-opacity="1" fill-rule="nonzero"/><path fill="#231f20" d="M 1158.882812 858.476562 C 1155.851562 858.476562 1152.6875 858.710938 1149.449219 859.175781 C 1131.851562 861.46875 1115.617188 868.621094 1101.09375 880.472656 C 1083.433594 895.140625 1074.816406 910.398438 1074.816406 927.085938 C 1074.816406 938.125 1079.535156 945.6875 1089.664062 950.921875 C 1096.195312 954.175781 1103.929688 955.859375 1112.574219 955.859375 C 1116.019531 955.859375 1119.660156 955.585938 1123.417969 955.070312 C 1140.597656 952.777344 1156.667969 945.792969 1171.21875 934.316406 C 1189.695312 919.988281 1198.648438 904.984375 1198.648438 888.402344 C 1198.648438 877.429688 1193.75 869.863281 1183.253906 864.617188 L 1182.941406 864.449219 C 1175.699219 860.433594 1167.835938 858.476562 1158.882812 858.476562 Z M 1112.574219 972.441406 C 1101.339844 972.441406 1091.105469 970.175781 1082.164062 965.703125 C 1066.472656 957.609375 1058.230469 944.277344 1058.230469 927.085938 C 1058.230469 905.464844 1069.101562 885.472656 1090.558594 867.675781 C 1107.570312 853.800781 1126.605469 845.429688 1147.207031 842.734375 C 1163.054688 840.480469 1178.109375 842.839844 1190.832031 849.875 C 1206.796875 857.90625 1215.230469 871.238281 1215.230469 888.402344 C 1215.230469 910.140625 1203.855469 929.976562 1181.441406 947.375 C 1164.570312 960.679688 1145.78125 968.8125 1125.660156 971.496094 C 1121.191406 972.117188 1116.773438 972.441406 1112.574219 972.441406 " fill-opacity="1" fill-rule="nonzero"/><path fill="#231f20" d="M 1131.089844 814.507812 L 1201.742188 817.550781 L 1305.476562 463.039062 L 1194.914062 482.882812 Z M 1214.015625 834.675781 L 1111.160156 830.246094 L 1180.777344 468.570312 L 1328.929688 441.984375 L 1214.015625 834.675781 " fill-opacity="1" fill-rule="nonzero"/><path fill="#fff200" d="M 242.851562 995.851562 C 230.5 992.300781 217.46875 993.195312 203.746094 998.492188 C 185.671875 1005.242188 170.382812 1016.695312 157.890625 1032.824219 C 142.511719 1053.035156 136.964844 1072.46875 141.28125 1091.109375 C 144.480469 1104.894531 153.121094 1113.574219 167.167969 1117.136719 C 178.933594 1119.960938 191.878906 1118.675781 206 1113.273438 C 223.671875 1106.617188 238.792969 1095.421875 251.386719 1079.695312 C 267.675781 1059.707031 273.675781 1040.378906 269.347656 1021.734375 C 266.160156 1007.964844 257.324219 999.335938 242.851562 995.851562 " fill-opacity="1" fill-rule="nonzero"/><path fill="#fff200" d="M 157.605469 624.015625 L 170.847656 976.78125 L 256.207031 960.847656 L 278.402344 572.210938 L 157.605469 624.015625 " fill-opacity="1" fill-rule="nonzero"/><path fill="#f9a72b" d="M 140.242188 1084.96875 C 140.476562 1087.027344 140.8125 1089.074219 141.28125 1091.109375 C 144.480469 1104.894531 153.121094 1113.574219 167.167969 1117.136719 C 178.933594 1119.960938 191.878906 1118.675781 206 1113.273438 C 223.671875 1106.617188 238.792969 1095.421875 251.386719 1079.695312 C 267.675781 1059.707031 273.675781 1040.378906 269.347656 1021.734375 C 267.910156 1015.515625 265.265625 1010.414062 261.519531 1006.292969 C 229.347656 1076.832031 176.808594 1087.546875 140.242188 1084.96875 " fill-opacity="1" fill-rule="nonzero"/><path fill="#f9a72b" d="M 278.402344 572.210938 L 277.976562 572.402344 L 170.847656 976.78125 L 256.207031 960.847656 L 278.402344 572.210938 " fill-opacity="1" fill-rule="nonzero"/><path fill="#231f20" d="M 227.703125 1002.015625 C 221.03125 1002.015625 213.980469 1003.429688 206.738281 1006.226562 C 190.128906 1012.433594 175.925781 1023.070312 164.449219 1037.890625 C 150.542969 1056.167969 145.59375 1072.972656 149.367188 1089.242188 C 151.851562 1099.984375 158.164062 1106.292969 169.214844 1109.105469 C 172.492188 1109.882812 176.058594 1110.296875 179.699219 1110.296875 C 186.902344 1110.296875 194.753906 1108.6875 203.03125 1105.527344 C 219.242188 1099.425781 233.328125 1088.996094 244.910156 1074.515625 C 259.679688 1056.390625 265.019531 1039.753906 261.273438 1023.613281 C 258.800781 1012.914062 252.320312 1006.65625 240.917969 1003.910156 L 240.570312 1003.816406 C 236.398438 1002.613281 232.070312 1002.015625 227.703125 1002.015625 Z M 179.699219 1126.878906 C 174.75 1126.878906 169.890625 1126.320312 165.238281 1125.195312 C 148.121094 1120.855469 137.082031 1109.726562 133.207031 1092.976562 C 128.324219 1071.910156 134.414062 1049.976562 151.296875 1027.796875 C 164.730469 1010.453125 181.394531 997.988281 200.855469 990.734375 C 215.976562 984.878906 230.996094 983.867188 244.976562 987.832031 C 262.335938 992.066406 273.558594 1003.144531 277.433594 1019.871094 C 282.328125 1041.050781 275.734375 1062.933594 257.816406 1084.941406 C 244.378906 1101.71875 227.921875 1113.871094 208.914062 1121.035156 C 198.785156 1124.910156 188.9375 1126.878906 179.699219 1126.878906 " fill-opacity="1" fill-rule="nonzero"/><path fill="#231f20" d="M 166.117188 629.394531 L 178.777344 966.859375 L 248.292969 953.890625 L 269.359375 585.113281 Z M 162.917969 986.691406 L 149.121094 618.640625 L 287.433594 559.320312 L 264.113281 967.804688 L 162.917969 986.691406 " fill-opacity="1" fill-rule="nonzero"/><path fill="#ffffff" d="M 718.539062 840.78125 L 747.214844 605.246094 L 746.589844 605.246094 L 687.921875 846.726562 Z M 522.539062 1007.703125 C 583.707031 851.714844 633.203125 701.332031 671.078125 556.574219 L 860.792969 524.742188 C 839.15625 650.792969 829.375 799.917969 831.460938 972.144531 L 699.15625 1002.71875 L 708.523438 924.714844 L 666.710938 932.824219 L 653.597656 987.742188 L 522.539062 1007.703125 " fill-opacity="1" fill-rule="nonzero"/><path fill="#c5ecec" d="M 831.460938 972.144531 C 830.953125 930.402344 831.160156 890.046875 832.054688 851.015625 L 718.539062 840.78125 L 687.921875 846.726562 L 569.121094 883.738281 L 569.082031 883.777344 C 554.386719 924.6875 538.902344 965.988281 522.539062 1007.703125 L 653.597656 987.742188 L 666.710938 932.824219 L 708.523438 924.714844 L 699.15625 1002.71875 L 831.460938 972.144531 " fill-opacity="1" fill-rule="nonzero"/><path fill="#231f20" d="M 722.53125 739.394531 L 699.027344 836.117188 L 711.035156 833.796875 Z M 676.816406 857.324219 L 740.0625 596.953125 L 756.582031 596.953125 L 726.042969 847.773438 Z M 677.738281 563.851562 C 641.210938 702.589844 593.386719 848.320312 535.484375 997.355469 L 646.835938 980.382812 L 659.882812 925.710938 L 718.097656 914.414062 L 708.796875 991.976562 L 823.089844 965.5625 C 821.40625 801.617188 830.683594 656.820312 850.6875 534.847656 Z M 509.570312 1018.070312 L 514.828125 1004.6875 C 575.570312 849.746094 625.441406 698.273438 663.058594 554.472656 L 664.40625 549.277344 L 870.9375 514.636719 L 868.96875 526.140625 C 847.511719 651.132812 837.679688 801.148438 839.75 972.039062 L 839.828125 978.710938 L 689.515625 1013.457031 L 698.933594 935.027344 L 673.527344 939.949219 L 660.375 995.097656 L 509.570312 1018.070312 " fill-opacity="1" fill-rule="nonzero"/><path fill="#82d5d8" d="M 447.195312 725.699219 L 402.636719 755.082031 L 372.796875 786.367188 L 529.417969 734.832031 L 499.164062 759.1875 L 343.253906 811.332031 L 379.15625 756.585938 L 447.195312 725.699219 " fill-opacity="1" fill-rule="nonzero"/><path fill="#82d5d8" d="M 444.886719 847.089844 L 421.511719 870.304688 L 506.652344 853.175781 L 485.636719 880.449219 L 526.554688 877.960938 L 522.539062 890.824219 L 531.375 889.492188 L 540.109375 869.359375 L 509.570312 870.859375 L 529.417969 837.140625 L 444.886719 847.089844 " fill-opacity="1" fill-rule="nonzero"/><path fill="#82d5d8" d="M 717.621094 779.773438 L 690.253906 801.980469 L 680.835938 840.78125 L 750.011719 817.964844 C 750.011719 817.964844 740.152344 840.535156 743.261719 841.90625 C 746.371094 843.292969 793.015625 817.964844 793.015625 817.964844 C 793.015625 817.964844 780.886719 846.402344 785.644531 846.84375 C 790.410156 847.269531 904.964844 791.824219 904.964844 791.824219 L 810.429688 817.964844 L 812.917969 794.582031 L 760.675781 817.964844 L 771.25 787.871094 L 703.445312 817.964844 L 705.945312 807.847656 L 715.585938 796.410156 L 717.621094 779.773438 " fill-opacity="1" fill-rule="nonzero"/><path fill="#82d5d8" d="M 792.898438 689.683594 L 779.800781 708.820312 L 828.050781 684.191406 L 818.140625 703.378906 L 860.792969 670.214844 L 876.847656 646.46875 L 856.425781 612.769531 L 853.277344 634.289062 L 860.792969 646.453125 L 840.828125 675.019531 L 834.59375 660.796875 L 792.898438 689.683594 " fill-opacity="1" fill-rule="nonzero"/><path fill="#82d5d8" d="M 436.335938 575.320312 L 456.640625 553.4375 L 497.804688 573.207031 L 497.804688 604.507812 L 522.539062 601.332031 L 535.949219 616.035156 L 515.21875 658.644531 L 540.109375 648.203125 L 529.417969 691.410156 L 556.058594 633.734375 L 535.949219 640.105469 L 544.320312 616.035156 L 526.828125 581.679688 L 510.632812 588.960938 L 509.570312 554.925781 L 444.902344 534.40625 L 402.636719 580.824219 L 436.335938 575.320312 " fill-opacity="1" fill-rule="nonzero"/><path fill="#82d5d8" d="M 294.40625 992.730469 L 325.164062 1007.703125 L 370.929688 992.730469 L 399.125 972.441406 L 449.707031 950.042969 L 444.886719 978.878906 L 537.195312 946.464844 L 475.414062 985.449219 L 428.148438 993.726562 L 436.335938 968.0625 L 402.636719 986.691406 L 379.15625 1006.292969 L 313.800781 1028.160156 L 287.433594 1010.644531 L 294.40625 992.730469 " fill-opacity="1" fill-rule="nonzero"/><path fill="#82d5d8" d="M 638.777344 784.699219 L 638.230469 768.515625 L 594.539062 784.699219 L 573.539062 787.871094 L 573.539062 766.351562 L 587.105469 750.144531 L 610.0625 741 L 616.554688 716.347656 L 587.105469 734.925781 L 564.699219 766.222656 L 556.058594 802.574219 L 598.414062 795.140625 L 630.328125 784.699219 L 630.328125 799 L 669.1875 779.773438 L 638.777344 784.699219 " fill-opacity="1" fill-rule="nonzero"/><path fill="#82d5d8" d="M 962.183594 837.140625 L 963.839844 850.082031 L 968.738281 890.824219 L 955.546875 907.175781 L 947.253906 885.617188 L 909.941406 903.195312 L 909.941406 881.148438 L 875.214844 913.976562 L 876.847656 885.617188 L 834.347656 924.363281 L 825.238281 907.058594 L 792.898438 968.0625 L 776.429688 957.917969 L 734.710938 1011.476562 L 724.824219 1005.296875 L 717.257812 1007.042969 L 732.378906 1014.46875 L 745.75 1023.316406 L 774.589844 976.78125 L 797.160156 985.449219 L 825.253906 934.832031 L 840.828125 950.042969 L 860.792969 913.976562 L 869.191406 934.832031 L 898.328125 907.058594 L 904.964844 927.539062 L 940.257812 900.710938 L 951.996094 924.25 L 999.5 885.617188 L 962.183594 837.140625 " fill-opacity="1" fill-rule="nonzero"/><path fill="#82d5d8" d="M 940.257812 500.515625 L 959.695312 481.691406 L 985.699219 464.839844 L 1011.496094 485.746094 L 1005.988281 520.714844 L 1039.675781 513.691406 L 1031.839844 553.4375 L 1051.441406 543.578125 L 1034.328125 580.667969 L 1066.898438 543.578125 L 1047.59375 534.40625 L 1051.429688 503.597656 L 1025.242188 500.660156 L 1025.242188 479.929688 L 980.851562 441.984375 L 947.253906 468.011719 L 916.121094 506.773438 L 940.257812 500.515625 " fill-opacity="1" fill-rule="nonzero"/><path fill="#82d5d8" d="M 1087.632812 689.683594 L 1111.160156 675.019531 L 1109.140625 693.46875 L 977.9375 728.886719 L 1029.441406 733.371094 L 1131.347656 701.71875 L 1111.34375 660.796875 L 1087.632812 689.683594 " fill-opacity="1" fill-rule="nonzero"/></svg>