<svg xmlns="http://www.w3.org/2000/svg" xmlns:xlink="http://www.w3.org/1999/xlink" width="2000" zoomAndPan="magnify" viewBox="0 0 1500 1499.999933" height="2000" preserveAspectRatio="xMidYMid meet" version="1.0"><defs><clipPath id="417cb1ed83"><path d="M 198 283.125 L 1410 283.125 L 1410 1180 L 198 1180 Z M 198 283.125 " clip-rule="nonzero"/></clipPath><clipPath id="d311904a00"><path d="M 583 960 L 606.917969 960 L 606.917969 1216.875 L 583 1216.875 Z M 583 960 " clip-rule="nonzero"/></clipPath></defs><g clip-path="url(#417cb1ed83)"><path fill="#040606" d="M 327.671875 956.101562 C 349.03125 955.367188 372.921875 961.355469 389.566406 977.800781 C 406.976562 994.996094 414.746094 1021.902344 414.914062 1045.660156 C 415.253906 1094.902344 385.738281 1161.058594 370.152344 1179.285156 C 368.957031 1180.683594 430.984375 1111.128906 446.6875 1095.664062 C 467.578125 1075.082031 490.046875 1056.132812 513.960938 1039.480469 C 538.132812 1022.65625 565.753906 1008.949219 596.433594 1014.546875 C 626.523438 1020.03125 642.832031 1044.9375 650.871094 1074.347656 C 654.777344 1088.644531 657.679688 1103.210938 660.667969 1117.6875 C 663.234375 1130.113281 667.816406 1161.390625 668.011719 1162.058594 C 668.078125 1162.296875 687.167969 1086.332031 697.804688 1058.351562 C 708.324219 1030.6875 720.519531 1002.652344 737.429688 978.9375 C 754.214844 955.410156 782.035156 933.625 812.558594 938.707031 C 826.078125 940.957031 836.941406 950.664062 846.609375 960.679688 C 857.054688 971.511719 866.597656 983.183594 874.734375 996.015625 C 882.933594 1008.949219 889.527344 1023.027344 894.960938 1037.351562 C 897.8125 1044.859375 909.746094 1074.085938 911.128906 1081.523438 C 911.425781 1083.078125 916.535156 1016.214844 938.011719 970.195312 C 950 944.507812 967.636719 921.050781 991.410156 906.839844 C 1015.152344 892.648438 1043.566406 887.734375 1071.125 892.804688 C 1099.714844 898.0625 1125.023438 907.039062 1149.484375 918.46875 C 1174.089844 929.96875 1226.007812 964.734375 1225.5 964.128906 C 1224.722656 963.191406 1180.207031 906.855469 1173.113281 873.4375 C 1167.691406 847.894531 1171.023438 822.210938 1185.472656 801.871094 C 1198.851562 783.042969 1219.890625 771.519531 1240.992188 764.359375 C 1253.867188 759.996094 1267.492188 757.15625 1280.949219 754.96875 C 1294.207031 752.816406 1307.289062 750.136719 1320.726562 749.007812 C 1334.421875 747.859375 1410.554688 732.347656 1409.183594 732.464844 C 1402.53125 733.042969 1395.878906 733.652344 1389.207031 734.214844 C 1385.21875 734.421875 1381.21875 734.757812 1377.230469 735.15625 C 1351.699219 737.003906 1326.042969 737.511719 1300.351562 732.226562 C 1267.558594 725.480469 1237.25 711.175781 1210.074219 689.429688 C 1180.894531 666.066406 1174.605469 626.074219 1181.492188 591.703125 C 1188.335938 557.59375 1205.9375 526.523438 1225.285156 499.398438 C 1245.875 470.546875 1285.808594 424.328125 1282.328125 427.351562 C 1285.105469 424.234375 1235.167969 467.449219 1203.65625 486.507812 C 1159.722656 513.082031 1096.835938 533.882812 1056.203125 482.574219 C 1016.300781 432.179688 1031.15625 366.988281 1054.621094 315.910156 C 1056.730469 312.328125 1060.578125 304.035156 1060.183594 304.421875 C 1060.101562 304.511719 1060.003906 304.601562 1059.921875 304.695312 C 1060.203125 303.253906 1034.417969 330.785156 1026.320312 340.390625 C 1015.542969 353.167969 1004.929688 366.128906 993.917969 378.671875 C 975.121094 400.089844 952.207031 421.207031 923.871094 427.261719 C 895.84375 433.246094 871.132812 423.859375 851.472656 400.003906 C 812.035156 352.15625 802.796875 283.128906 802.777344 283.5 C 801.941406 298.730469 799.347656 314.15625 797.210938 329.1875 C 795.125 343.824219 791.453125 357.835938 787.503906 371.898438 C 780.21875 397.8125 771.066406 424.765625 752.417969 443.480469 C 733.355469 462.613281 707.792969 481.027344 680.996094 485.78125 C 608.898438 498.570312 523.3125 386.382812 523.683594 387.257812 C 540.523438 427.011719 548.773438 499.773438 497.9375 511.980469 C 477.664062 516.847656 453.285156 512.34375 433.832031 503.476562 C 400.148438 488.121094 371.855469 454.910156 372.144531 455.535156 C 373.28125 457.996094 396.847656 494.414062 406.351562 507.714844 C 418.449219 524.640625 429.957031 542.273438 438.65625 561.316406 C 452.84375 592.382812 456.941406 624.929688 442.675781 654.988281 C 428.960938 683.882812 402.683594 702.851562 374.898438 714.929688 C 347.574219 726.8125 318.746094 732.5 288.691406 733.082031 C 257.917969 733.675781 228.195312 726.613281 198.714844 715.789062 C 195.507812 714.609375 255.683594 751.828125 268.734375 762.980469 C 289.335938 780.578125 302.222656 805.203125 311.972656 830.515625 C 321.324219 854.800781 321.402344 878.625 311.421875 901.414062 C 306.160156 913.421875 298.6875 924.480469 289.496094 933.351562 C 280.023438 942.492188 247.386719 968.324219 242.722656 973.996094 C 242.496094 974.269531 287.253906 957.488281 327.671875 956.101562 " fill-opacity="1" fill-rule="nonzero"/></g><path fill="#eb1c26" d="M 340.640625 988.144531 C 361.394531 985.804688 385.125 989.75 402.613281 1004.355469 C 420.898438 1019.628906 430.550781 1045.011719 432.550781 1067.949219 C 436.691406 1115.46875 413.050781 1181.621094 399.28125 1200.414062 C 398.226562 1201.855469 453.265625 1129.933594 467.363281 1113.796875 C 486.125 1092.320312 506.550781 1072.300781 528.558594 1054.390625 C 550.796875 1036.285156 576.644531 1020.933594 606.964844 1023.984375 C 636.699219 1026.980469 654.511719 1049.78125 664.613281 1077.566406 C 669.523438 1091.070312 673.476562 1104.917969 677.507812 1118.664062 C 680.96875 1130.46875 687.851562 1160.320312 688.089844 1160.953125 C 688.179688 1161.175781 700.898438 1086.359375 709.097656 1058.519531 C 717.199219 1031 726.914062 1002.992188 741.554688 978.800781 C 756.082031 954.789062 781.503906 931.625 811.625 934.1875 C 824.972656 935.328125 836.304688 943.867188 846.492188 952.800781 C 857.507812 962.460938 867.703125 972.996094 876.625 984.765625 C 885.613281 996.628906 893.117188 1009.71875 899.527344 1023.136719 C 902.878906 1030.164062 916.765625 1057.472656 918.6875 1064.550781 C 919.09375 1066.027344 918.902344 1001.070312 936.265625 954.984375 C 945.957031 929.261719 961.320312 905.257812 983.378906 889.710938 C 1005.414062 874.1875 1032.710938 867.265625 1059.949219 870.046875 C 1088.214844 872.933594 1113.550781 879.664062 1138.265625 888.828125 C 1163.121094 898.046875 1216.382812 927.640625 1215.847656 927.09375 C 1215.011719 926.246094 1167.289062 875.257812 1157.796875 843.53125 C 1150.535156 819.28125 1151.804688 794.21875 1164.304688 773.472656 C 1175.882812 754.265625 1195.480469 741.527344 1215.488281 732.996094 C 1227.6875 727.792969 1240.738281 724.011719 1253.679688 720.863281 C 1266.421875 717.769531 1278.96875 714.179688 1291.964844 712.0625 C 1305.222656 709.90625 1378.179688 689.089844 1376.859375 689.308594 C 1370.421875 690.375 1363.980469 691.46875 1357.527344 692.53125 C 1353.660156 693.03125 1349.796875 693.664062 1345.9375 694.359375 C 1321.203125 698.097656 1296.25 700.550781 1270.824219 697.414062 C 1238.355469 693.417969 1207.726562 681.921875 1179.578125 663.003906 C 1149.34375 642.679688 1140.121094 604.546875 1144.171875 570.828125 C 1148.203125 537.363281 1162.953125 506.011719 1179.703125 478.332031 C 1197.519531 448.894531 1232.847656 401.203125 1229.6875 404.386719 C 1232.15625 401.160156 1186.851562 446.722656 1157.640625 467.539062 C 1116.886719 496.570312 1057.238281 521.480469 1013.695312 475.046875 C 970.933594 429.433594 980.359375 365.347656 999.265625 314.21875 C 1001.042969 310.601562 1004.152344 302.296875 1003.804688 302.699219 C 1003.722656 302.796875 1003.640625 302.886719 1003.5625 302.980469 C 1003.726562 301.570312 980.742188 330.132812 973.59375 340.027344 C 964.085938 353.195312 954.746094 366.519531 944.988281 379.484375 C 928.335938 401.605469 907.648438 423.753906 880.511719 431.769531 C 853.671875 439.699219 828.878906 432.523438 807.882812 410.996094 C 765.769531 367.8125 751.433594 301.863281 751.441406 302.222656 C 751.800781 316.992188 750.46875 332.089844 749.546875 346.769531 C 748.652344 361.066406 746.160156 374.878906 743.398438 388.757812 C 738.304688 414.339844 731.472656 441.070312 714.757812 460.570312 C 697.664062 480.511719 674.1875 500.25 648.453125 506.894531 C 579.214844 524.769531 487.171875 422.996094 487.597656 423.804688 C 507.078125 460.90625 520.734375 530.539062 472.160156 546.222656 C 452.785156 552.476562 428.691406 549.996094 409.0625 542.921875 C 375.058594 530.675781 344.933594 500.773438 345.261719 501.351562 C 346.558594 503.644531 372.332031 537.007812 382.617188 549.121094 C 395.707031 564.539062 408.285156 580.683594 418.226562 598.40625 C 434.453125 627.316406 440.960938 658.4375 429.390625 688.558594 C 418.261719 717.511719 394.132812 737.839844 368 751.636719 C 342.304688 765.203125 314.660156 772.90625 285.429688 775.765625 C 255.5 778.699219 226 774.160156 196.445312 765.960938 C 193.230469 765.070312 254.726562 796.402344 268.300781 806.167969 C 289.730469 821.585938 304.1875 844.375 315.640625 868.074219 C 326.628906 890.808594 328.546875 913.8125 320.585938 936.582031 C 316.386719 948.582031 309.964844 959.828125 301.699219 969.105469 C 293.179688 978.65625 263.386719 1006.101562 259.277344 1011.933594 C 259.078125 1012.21875 301.382812 992.582031 340.640625 988.144531 " fill-opacity="1" fill-rule="nonzero"/><path fill="#040606" d="M 1228.523438 410.363281 C 1230.378906 410.742188 1232.292969 410.25 1233.53125 409.226562 C 1233.441406 409.304688 1233.28125 409.445312 1233.074219 409.632812 C 1233.46875 409.398438 1233.824219 409.117188 1234.132812 408.804688 L 1224.703125 400.578125 C 1224.375 401.019531 1224.101562 401.515625 1223.894531 402.0625 C 1224.101562 401.761719 1224.246094 401.539062 1224.316406 401.398438 C 1223.070312 403.546875 1223.371094 407.148438 1226.0625 409.210938 C 1226.832031 409.804688 1227.679688 410.175781 1228.523438 410.363281 Z M 351.851562 981.242188 C 372.914062 981.242188 392.414062 987.667969 406.632812 999.542969 C 424.359375 1014.351562 436.386719 1039.71875 438.792969 1067.402344 C 441.210938 1095.105469 434.773438 1128.183594 426.070312 1155.503906 C 444.820312 1131.40625 457.078125 1116.042969 462.640625 1109.671875 C 482.136719 1087.355469 502.984375 1067.121094 524.597656 1049.527344 C 545.03125 1032.898438 572.925781 1014.238281 607.589844 1017.75 C 636.078125 1020.617188 657.832031 1040.5625 670.507812 1075.425781 C 675.042969 1087.898438 678.796875 1100.746094 682.433594 1113.171875 L 683.527344 1116.902344 C 684.554688 1120.398438 685.859375 1125.386719 687.203125 1130.742188 C 691.695312 1106.472656 698.148438 1073.5 703.082031 1056.746094 C 710.59375 1031.238281 720.402344 1001.648438 736.191406 975.550781 C 743.492188 963.488281 770.539062 924.402344 812.15625 927.945312 C 827.242188 929.230469 839.5625 938.386719 850.625 948.085938 C 862.792969 958.753906 872.929688 969.515625 881.621094 980.980469 C 890.21875 992.332031 897.929688 1005.234375 905.183594 1020.433594 C 905.878906 1021.894531 907.03125 1024.234375 908.441406 1027.085938 C 910.296875 1030.847656 912.144531 1034.613281 913.90625 1038.242188 C 916.546875 1003.539062 922.074219 974.863281 930.398438 952.773438 C 941.609375 923.023438 958.679688 899.449219 979.769531 884.585938 C 1002.976562 868.234375 1031.671875 860.855469 1060.585938 863.808594 C 1087.1875 866.527344 1112.5625 872.609375 1140.4375 882.953125 C 1153.089844 887.640625 1172.707031 897.375 1189.175781 905.910156 C 1174.652344 887.957031 1157.359375 863.9375 1151.785156 845.324219 C 1143.636719 818.078125 1146.175781 791.410156 1158.933594 770.234375 C 1169.671875 752.425781 1187.867188 737.953125 1213.03125 727.230469 C 1223.972656 722.570312 1236.414062 718.609375 1252.207031 714.773438 C 1255.425781 713.992188 1258.644531 713.175781 1261.851562 712.359375 C 1271.265625 709.96875 1281.003906 707.496094 1290.957031 705.875 C 1291.925781 705.714844 1293.230469 705.457031 1294.796875 705.109375 C 1286.675781 705.101562 1278.398438 704.664062 1270.054688 703.636719 C 1236.527344 699.507812 1204.914062 687.585938 1176.078125 668.207031 C 1142.027344 645.316406 1134.050781 602.507812 1137.953125 570.082031 C 1141.472656 540.800781 1153.371094 509.726562 1174.332031 475.089844 C 1179.378906 466.746094 1185.789062 457.011719 1192.328125 447.367188 C 1181.738281 456.714844 1170.683594 465.945312 1161.28125 472.644531 C 1125.800781 497.914062 1058.867188 532.394531 1009.121094 479.328125 C 976.523438 444.558594 968.75 394.542969 986.230469 333.757812 C 983.164062 337.6875 980.449219 341.238281 978.671875 343.699219 C 975.863281 347.597656 973.0625 351.507812 970.261719 355.417969 C 963.695312 364.59375 956.90625 374.074219 950 383.253906 C 934.4375 403.925781 912.679688 428.804688 882.292969 437.777344 C 853.320312 446.339844 826.039062 438.589844 803.394531 415.371094 C 780.378906 391.777344 765.40625 361.625 756.386719 338.367188 C 756.375 338.558594 756.363281 338.753906 756.347656 338.945312 C 756.164062 341.695312 755.976562 344.433594 755.808594 347.160156 C 754.84375 362.496094 752.070312 377.304688 749.542969 389.984375 C 744.574219 414.964844 737.742188 443.394531 719.519531 464.652344 C 707.03125 479.214844 681.402344 504.859375 650.019531 512.964844 C 643.929688 514.535156 637.695312 515.257812 631.382812 515.257812 C 585.253906 515.261719 534.785156 476.714844 504.667969 449.226562 C 512.160156 473.730469 514.832031 501.59375 506.347656 522.375 C 500.300781 537.199219 489.445312 547.230469 474.085938 552.1875 C 455 558.347656 429.898438 557.089844 406.933594 548.824219 C 397.320312 545.359375 387.992188 540.566406 379.398438 535.300781 C 382.445312 539.101562 385.226562 542.503906 387.398438 545.0625 C 398.503906 558.144531 412.664062 575.671875 423.695312 595.339844 C 442.691406 629.191406 446.574219 661.308594 435.242188 690.804688 C 424.871094 717.789062 403.234375 740.125 370.929688 757.179688 C 345.445312 770.636719 316.886719 778.988281 286.042969 782.007812 C 270.371094 783.542969 254.320312 783.207031 237.148438 780.914062 C 251.613281 788.75 266.007812 796.796875 271.964844 801.082031 C 291.0625 814.820312 306.738281 835.242188 321.285156 865.347656 C 333.164062 889.917969 334.921875 914.582031 326.5 938.652344 C 321.96875 951.625 315.007812 963.597656 306.375 973.277344 C 302.359375 977.777344 294.277344 985.640625 285.714844 993.964844 C 285.175781 994.484375 284.632812 995.019531 284.078125 995.554688 C 304.402344 988.488281 323.648438 983.757812 339.9375 981.917969 C 343.949219 981.464844 347.925781 981.242188 351.851562 981.242188 Z M 399.203125 1206.773438 C 397.558594 1206.773438 396.234375 1206 395.5 1205.449219 L 390.542969 1201.726562 L 394.222656 1196.710938 C 407.800781 1178.179688 430.167969 1112.835938 426.304688 1068.492188 C 424.175781 1044.058594 413.816406 1021.882812 398.59375 1009.167969 C 384.34375 997.265625 363.480469 991.878906 341.351562 994.375 C 319.457031 996.851562 291.710938 1004.917969 263.214844 1017.097656 C 261.472656 1017.839844 257.398438 1019.582031 254.402344 1015.882812 L 251.421875 1012.203125 L 254.148438 1008.328125 C 256.558594 1004.910156 264.378906 997.222656 276.976562 984.976562 C 285 977.171875 293.300781 969.101562 297.015625 964.933594 C 304.5625 956.46875 310.667969 945.949219 314.664062 934.515625 C 321.941406 913.699219 320.371094 892.269531 309.996094 870.800781 C 296.390625 842.652344 281.976562 823.734375 264.640625 811.257812 C 256.335938 805.28125 227.449219 789.886719 210.191406 780.6875 C 205.261719 778.066406 201.023438 775.804688 198.023438 774.175781 C 192.429688 771.136719 188.382812 768.9375 190.503906 763.628906 L 192.585938 758.410156 L 198.121094 759.921875 C 231.019531 769.046875 258.570312 772.101562 284.816406 769.527344 C 314.035156 766.671875 341.035156 758.78125 365.074219 746.089844 C 394.617188 730.496094 414.285156 710.378906 423.535156 686.304688 C 433.46875 660.460938 429.839844 631.917969 412.761719 601.476562 C 402.25 582.746094 388.578125 565.828125 377.839844 553.179688 C 367.972656 541.558594 341.570312 507.558594 339.808594 504.441406 L 337.167969 499.785156 L 341.355469 496.4375 C 344.148438 494.226562 347.195312 494.59375 350.429688 497.554688 C 370.824219 516.242188 392.398438 530.257812 411.183594 537.023438 C 431.621094 544.382812 453.699219 545.597656 470.234375 540.253906 C 481.90625 536.488281 490.152344 528.878906 494.738281 517.640625 C 504.800781 492.984375 495.972656 453.238281 482.046875 426.722656 L 479.515625 421.898438 L 483.933594 418.714844 C 486.875 416.597656 489.929688 417.160156 493.019531 420.386719 C 537.660156 466.949219 601.515625 512.53125 646.882812 500.824219 C 674.941406 493.574219 698.46875 469.941406 709.996094 456.492188 C 726.246094 437.535156 732.585938 410.957031 737.246094 387.535156 C 739.691406 375.257812 742.378906 360.933594 743.292969 346.375 C 743.464844 343.632812 743.652344 340.871094 743.835938 338.101562 C 744.636719 326.304688 745.460938 314.105469 745.171875 302.378906 L 745.03125 296.742188 L 750.625 296.003906 C 752.699219 295.738281 756.515625 296.511719 757.628906 301.140625 C 760.273438 312.089844 775.332031 368.636719 812.371094 406.617188 C 831.835938 426.574219 854.164062 433.019531 878.734375 425.757812 C 905.605469 417.820312 925.578125 394.84375 939.980469 375.710938 C 946.796875 366.65625 953.542969 357.230469 960.0625 348.121094 C 962.875 344.195312 965.6875 340.269531 968.507812 336.359375 C 972.285156 331.132812 980.039062 321.265625 986.050781 313.808594 C 989.496094 309.535156 992.511719 305.867188 994.773438 303.199219 C 996.515625 301.140625 997.941406 299.457031 999.316406 298.304688 L 1002.679688 294.4375 L 1007.285156 297.460938 C 1007.5 297.601562 1007.703125 297.75 1007.890625 297.894531 L 1010.335938 298.847656 L 1010.027344 301.582031 C 1010.269531 303.820312 1009.253906 306.441406 1008.089844 309.4375 C 1007.546875 310.84375 1006.1875 314.28125 1005.042969 316.679688 C 988.117188 362.578125 976.746094 426.46875 1018.269531 470.753906 C 1061.496094 516.859375 1121.863281 485.332031 1154 462.433594 C 1175.199219 447.332031 1205.617188 418.394531 1218.613281 406.039062 C 1220.734375 404.015625 1222.441406 402.398438 1223.625 401.289062 C 1224.148438 400.800781 1224.871094 400.128906 1225.738281 399.511719 C 1226.664062 398.722656 1227.679688 398.261719 1228.691406 398.070312 C 1229.964844 397.753906 1231.367188 397.835938 1232.804688 398.691406 C 1233.207031 398.898438 1233.570312 399.152344 1233.917969 399.433594 C 1236.382812 401.511719 1236.574219 403.773438 1235.785156 406.039062 C 1235.664062 406.449219 1235.492188 406.855469 1235.277344 407.261719 C 1234.585938 408.683594 1233.617188 410.09375 1232.679688 411.4375 C 1231.101562 413.707031 1228.824219 416.945312 1226.0625 420.855469 C 1214.976562 436.550781 1196.421875 462.824219 1185.070312 481.582031 C 1165.042969 514.664062 1153.699219 544.101562 1150.40625 571.574219 C 1146.945312 600.320312 1153.71875 638.066406 1183.078125 657.804688 C 1210.253906 676.070312 1240.035156 687.304688 1271.59375 691.191406 C 1297.464844 694.382812 1323.164062 691.457031 1344.914062 688.171875 C 1349.34375 687.375 1353.070312 686.785156 1356.617188 686.324219 C 1360.394531 685.707031 1364.171875 685.070312 1367.945312 684.4375 L 1379.398438 682.527344 L 1384.015625 688.132812 L 1382.730469 691.523438 C 1382.007812 693.457031 1381.734375 694.15625 1377.871094 695.480469 L 1377.878906 695.492188 L 1377.8125 695.503906 C 1375.625 696.246094 1372.304688 697.191406 1367.136719 698.660156 C 1362.355469 700.023438 1352.609375 702.785156 1340.984375 705.992188 C 1323.058594 710.9375 1300.171875 717.078125 1292.976562 718.25 C 1283.558594 719.78125 1274.089844 722.1875 1264.941406 724.511719 C 1261.683594 725.339844 1258.429688 726.164062 1255.164062 726.960938 C 1240.066406 730.628906 1228.238281 734.378906 1217.949219 738.765625 C 1195.257812 748.4375 1179.023438 761.203125 1169.675781 776.703125 C 1158.765625 794.816406 1156.671875 817.910156 1163.804688 841.734375 C 1171.769531 868.351562 1211.042969 913.074219 1220.328125 922.714844 L 1224.027344 926.550781 L 1220.863281 930.851562 C 1217.640625 935.179688 1212.972656 932.707031 1211.445312 931.894531 C 1210.496094 931.390625 1209.128906 930.65625 1207.402344 929.726562 C 1193.21875 922.128906 1155.558594 901.933594 1136.078125 894.703125 C 1109.21875 884.742188 1084.824219 878.890625 1059.3125 876.285156 C 1033.414062 873.632812 1007.730469 880.222656 986.992188 894.835938 C 967.960938 908.242188 952.449219 929.808594 942.132812 957.195312 C 935.535156 974.710938 927.234375 1007.007812 925.152344 1061.4375 C 925 1065.339844 924.816406 1070.1875 919.414062 1070.808594 L 914.066406 1071.414062 L 912.640625 1066.195312 C 911.277344 1061.191406 901.765625 1041.902344 897.195312 1032.632812 C 895.753906 1029.71875 894.578125 1027.328125 893.867188 1025.835938 C 886.980469 1011.414062 879.707031 999.21875 871.625 988.554688 C 863.453125 977.769531 853.878906 967.617188 842.355469 957.511719 C 832.902344 949.222656 822.570312 941.417969 811.09375 940.4375 C 776.683594 937.539062 753.277344 971.539062 746.921875 982.042969 C 731.871094 1006.914062 722.394531 1035.554688 715.113281 1060.292969 C 708.355469 1083.222656 698.492188 1138.476562 695.253906 1156.632812 L 694.53125 1160.648438 C 694.199219 1162.472656 693.425781 1166.75 688.675781 1167.199219 L 683.921875 1167.640625 L 682.230469 1163.175781 C 682.023438 1162.640625 682.019531 1162.628906 680.53125 1156.394531 C 678.242188 1146.777344 673.972656 1128.875 671.492188 1120.429688 L 670.398438 1116.695312 C 666.820312 1104.457031 663.117188 1091.804688 658.71875 1079.710938 C 647.648438 1049.261719 630.027344 1032.609375 606.335938 1030.222656 C 576.242188 1027.1875 551.078125 1044.144531 532.515625 1059.25 C 511.449219 1076.394531 491.117188 1096.136719 472.085938 1117.921875 C 464.222656 1126.925781 442.402344 1154.664062 407.234375 1200.367188 L 405.023438 1203.246094 C 404.867188 1203.445312 404.71875 1203.632812 404.5625 1203.808594 C 404.492188 1203.914062 404.414062 1204.015625 404.339844 1204.121094 L 404.3125 1204.097656 C 402.472656 1206.132812 400.703125 1206.773438 399.203125 1206.773438 " fill-opacity="1" fill-rule="nonzero"/><path fill="#ffffff" d="M 1094.226562 722.1875 C 1086.742188 699.101562 1072.128906 680.320312 1053.617188 667.484375 C 1054.835938 646.546875 1048.773438 624.78125 1037.90625 607.363281 C 1022.769531 583.113281 989.421875 563.191406 960.210938 566.492188 C 953.277344 567.277344 946.574219 568.957031 940.203125 571.476562 C 940.976562 561.957031 937.75 552.25 933.359375 543.199219 C 925.457031 526.925781 912.105469 511.945312 895.417969 504.386719 C 884.582031 499.480469 872.464844 497.707031 860.273438 498.496094 C 835.300781 467.332031 793.789062 451.507812 752.335938 461.304688 C 729.171875 466.78125 709.59375 479.425781 695.355469 496.320312 C 689.878906 490.0625 683.398438 484.789062 675.761719 481.175781 C 657.339844 472.46875 634.847656 472.796875 617.152344 483.207031 C 607.800781 488.707031 600.070312 496.136719 594.8125 504.90625 C 575.433594 497.367188 554.683594 496.578125 535.289062 504.851562 C 513.523438 514.140625 497.472656 532.414062 490.355469 554.835938 C 464.898438 548.890625 437.894531 556.691406 416.609375 571.90625 C 392.769531 588.945312 375.871094 615.140625 371.582031 644.292969 C 368.1875 667.371094 370.640625 695.695312 387.007812 713.546875 C 369.855469 764.613281 393.648438 821.445312 443.714844 844.429688 C 451.214844 847.871094 458.902344 850.347656 466.652344 851.953125 C 465.050781 854.355469 464.1875 857.183594 464.644531 860.164062 C 469.074219 889.359375 491.183594 914.507812 515.695312 929.542969 C 538.890625 943.765625 568.597656 947.84375 595.21875 943.964844 C 612.640625 941.421875 630.261719 934.921875 645.910156 925.273438 C 655.441406 933.675781 667.527344 939.816406 680.699219 943.5 C 694.707031 947.421875 710.074219 945.6875 722.757812 938.566406 C 722.96875 938.445312 723.167969 938.316406 723.378906 938.195312 C 724.988281 941.761719 726.796875 945.277344 728.839844 948.722656 C 758.890625 999.453125 824.382812 1016.214844 875.113281 986.167969 C 896 973.796875 911.121094 955.421875 919.585938 934.542969 C 940.421875 941.230469 963.734375 936.820312 981.617188 924.484375 C 998.175781 913.058594 1010.179688 895.890625 1013.523438 875.886719 C 1014.472656 870.207031 1014.699219 864.828125 1014.285156 859.65625 C 1018.070312 858.867188 1021.84375 857.894531 1025.601562 856.671875 C 1081.691406 838.484375 1112.414062 778.273438 1094.226562 722.1875 " fill-opacity="1" fill-rule="nonzero"/><path fill="#c7c8c6" d="M 1016.148438 778.308594 C 1008.5625 785.5 999.273438 791.074219 989.3125 794.273438 C 983.96875 795.996094 978.410156 797.195312 972.808594 797.621094 C 971.105469 797.753906 969.410156 797.785156 967.722656 797.835938 C 968.117188 787.6875 964.964844 778.980469 957.96875 770.136719 C 944.449219 753.042969 926.863281 740.503906 906.429688 738.933594 C 918.628906 744.589844 928.589844 754.773438 933.726562 767.058594 C 933.972656 767.476562 934.226562 767.890625 934.453125 768.320312 C 939.894531 778.539062 937.046875 794.082031 932.386719 804.019531 C 925.730469 818.222656 919.390625 827.929688 906.53125 837.085938 C 883.96875 853.148438 849.550781 848.078125 831.59375 828.050781 C 829.222656 825.414062 825.109375 819.679688 823.144531 816.742188 C 827.238281 828.355469 828.535156 839.359375 840.324219 850.730469 C 840.980469 851.53125 841.625 852.414062 842.261719 853.328125 C 840.933594 852.03125 839.664062 850.691406 838.453125 849.296875 C 844.890625 861.152344 854.980469 871.066406 867.605469 877.371094 C 849.949219 913.472656 804.734375 925.671875 770.402344 906.585938 C 753.910156 897.421875 740.84375 882.878906 735.160156 864.761719 C 728.691406 844.128906 734.722656 820.832031 740.089844 800.59375 C 740.308594 799.78125 740.726562 799.015625 740.308594 799.78125 C 731.226562 816.417969 722.726562 841.472656 720.085938 856.84375 C 720.058594 857.640625 719.992188 858.457031 719.886719 859.277344 C 718.996094 861.851562 718.207031 864.457031 717.511719 867.089844 C 715.878906 870.117188 713.414062 872.523438 709.882812 873.304688 C 705.660156 874.242188 700.738281 872.289062 698.023438 869.011719 C 696.636719 867.347656 695.769531 865.199219 695.628906 863.109375 C 697.359375 856.855469 698.410156 850.34375 698.675781 843.613281 C 706.144531 823.15625 707.195312 801.753906 701.507812 789.082031 C 701.46875 788.992188 701.445312 788.921875 701.402344 788.832031 C 705.132812 809.773438 686.265625 858.863281 653.523438 860.679688 C 633.59375 861.78125 610.460938 856.070312 595.464844 842.019531 C 595.507812 842.015625 595.554688 842.003906 595.597656 842 C 595.339844 841.699219 594.832031 841.214844 594.582031 840.828125 C 599.355469 839.160156 603.875 836.957031 608.070312 834.265625 C 632.253906 819.785156 648.738281 788.992188 652.992188 766.1875 C 647.140625 778.871094 634.75 791.574219 622.816406 797.011719 C 604.664062 805.285156 586.066406 804.625 566.894531 795.554688 C 552.324219 788.667969 537.777344 774.242188 532.902344 758.144531 C 529.453125 746.734375 531.351562 734.175781 535.710938 722.667969 C 533.371094 724.546875 531.113281 726.488281 528.972656 728.535156 C 529.21875 728.160156 529.457031 727.785156 529.714844 727.414062 C 516.757812 739.421875 508.542969 756.660156 508.171875 775.808594 C 508.03125 775.796875 507.886719 775.789062 507.75 775.78125 C 507.714844 775.945312 507.667969 776.109375 507.636719 776.273438 C 507.273438 776.070312 506.914062 775.882812 506.554688 775.707031 C 499.503906 775.199219 492.304688 772.96875 485.59375 769.632812 C 479.273438 767.097656 473.28125 763.628906 468.113281 759.226562 C 457.605469 750.28125 449.671875 737.152344 448.121094 723.28125 C 446.335938 707.304688 450.8125 688.429688 456.28125 673.519531 C 462.390625 656.859375 474.425781 644.183594 491.648438 638.484375 C 479.613281 639.539062 470.1875 640.433594 460.371094 644.992188 C 461.246094 644.554688 462.117188 644.105469 463.007812 643.699219 C 453 646.144531 443.386719 650.039062 434.476562 655.234375 C 429.359375 645.632812 429.046875 632.695312 431.273438 621.742188 C 433.957031 608.539062 440.09375 594.96875 451.269531 586.882812 C 468.644531 574.308594 485.214844 572.851562 500.03125 576.238281 C 523.027344 583.460938 546.457031 601.136719 556.691406 622.390625 C 557.339844 623.734375 558.101562 624.015625 557.753906 622.683594 C 553.710938 606.9375 545.6875 592.703125 534.71875 581.140625 C 529.761719 562.53125 535.671875 540.945312 552.183594 530.136719 C 560.96875 524.378906 571.429688 522.589844 581.949219 523.34375 C 585.554688 523.726562 589.140625 524.40625 592.660156 525.429688 C 619.332031 533.164062 640.292969 559.371094 645.722656 587.058594 C 645.515625 588.027344 645.332031 589.003906 645.191406 589.992188 C 643.109375 604.183594 647.550781 617.863281 656.289062 628.148438 C 651.664062 619.355469 649.667969 609.160156 651.207031 598.679688 C 655.140625 571.804688 680.726562 553.296875 708.34375 557.34375 C 719.566406 558.984375 729.394531 564.101562 736.851562 571.394531 C 729.277344 559.777344 716.78125 551.277344 701.75 549.074219 C 699.84375 548.796875 697.953125 548.664062 696.074219 548.597656 C 691.886719 529.996094 699.03125 509.710938 713.636719 497.117188 C 722.347656 489.605469 734.546875 484.277344 746.359375 481.484375 C 801.269531 468.503906 856.46875 503.167969 869.644531 558.910156 C 875.691406 584.464844 871.828125 610.003906 860.597656 631.433594 C 880.128906 606.722656 888.609375 573.667969 880.804688 540.640625 C 879.136719 533.59375 876.800781 526.882812 873.894531 520.546875 C 876.792969 520.890625 879.714844 521.449219 882.652344 522.285156 C 884.355469 522.769531 886.0625 523.347656 887.761719 523.988281 C 899.722656 531.039062 910.230469 540.695312 915.265625 553.863281 C 918.46875 562.246094 918.207031 571.429688 916.617188 580.136719 C 915.941406 583.855469 914.84375 587.105469 913.515625 590.167969 C 908.089844 597.222656 904.464844 605.757812 901.617188 614.132812 C 901.53125 614.382812 901.886719 614.535156 902.046875 614.363281 C 910.183594 605.820312 919.808594 598.71875 929.949219 593.007812 C 940.105469 592.691406 950.429688 595.6875 959.085938 601.128906 C 971.976562 609.230469 986.679688 631.875 983.699219 648.21875 C 983.394531 647.550781 983.269531 647.839844 983.257812 648.234375 C 963.144531 648.71875 939.125 652.640625 924.089844 665.8125 C 945.808594 652.796875 978.664062 652.027344 1002.847656 661.480469 C 1025.777344 670.441406 1036.875 697.0625 1038.121094 720.265625 C 1039.277344 741.855469 1032 763.285156 1016.148438 778.308594 Z M 520.402344 746.9375 C 520.980469 744.976562 521.640625 743.046875 522.382812 741.164062 C 521.949219 742.679688 521.550781 744.183594 521.25 745.671875 C 520.957031 746.09375 520.683594 746.515625 520.402344 746.9375 Z M 649.519531 506.652344 C 657.359375 498 667.910156 494.765625 681.929688 500.667969 C 684.242188 502.066406 686.464844 503.632812 688.503906 505.386719 C 680.5625 517.136719 674.964844 530.4375 672.171875 544.53125 C 672.046875 544.542969 671.933594 544.527344 671.796875 544.566406 C 658.664062 548.441406 644.101562 537.34375 644.046875 523.910156 C 644.023438 518.757812 646.164062 510.355469 649.519531 506.652344 Z M 1094.226562 722.1875 C 1086.742188 699.101562 1072.128906 680.320312 1053.617188 667.480469 C 1054.835938 646.542969 1048.773438 624.78125 1037.90625 607.359375 C 1037.816406 607.210938 1037.710938 607.0625 1037.617188 606.914062 C 1037.195312 606.261719 1036.773438 605.605469 1036.328125 604.957031 C 1036.105469 604.636719 1035.878906 604.320312 1035.65625 603.996094 C 1035.308594 603.515625 1034.96875 603.035156 1034.621094 602.558594 C 1034.363281 602.214844 1034.097656 601.871094 1033.835938 601.53125 C 1033.488281 601.078125 1033.140625 600.628906 1032.785156 600.179688 C 1032.511719 599.839844 1032.234375 599.507812 1031.957031 599.167969 C 1031.582031 598.71875 1031.203125 598.269531 1030.816406 597.820312 C 1030.542969 597.503906 1030.265625 597.1875 1029.984375 596.867188 C 1029.5625 596.398438 1029.136719 595.929688 1028.703125 595.464844 C 1028.441406 595.1875 1028.183594 594.898438 1027.914062 594.621094 C 1027.398438 594.078125 1026.867188 593.542969 1026.332031 593.011719 C 1026.136719 592.816406 1025.949219 592.625 1025.753906 592.433594 C 1024.246094 590.953125 1022.667969 589.515625 1021.039062 588.125 C 1020.898438 588.007812 1020.757812 587.890625 1020.621094 587.773438 C 1019.9375 587.199219 1019.25 586.628906 1018.550781 586.070312 C 1018.359375 585.921875 1018.167969 585.769531 1017.976562 585.625 C 1017.308594 585.097656 1016.636719 584.578125 1015.953125 584.070312 C 1015.757812 583.921875 1015.558594 583.777344 1015.359375 583.632812 C 1014.65625 583.117188 1013.941406 582.609375 1013.222656 582.109375 C 1013.054688 581.992188 1012.886719 581.875 1012.71875 581.757812 C 1011.917969 581.210938 1011.113281 580.675781 1010.296875 580.152344 C 1010.203125 580.089844 1010.113281 580.03125 1010.023438 579.972656 C 1006.253906 577.566406 1002.320312 575.417969 998.277344 573.5625 C 998.246094 573.546875 998.222656 573.53125 998.191406 573.523438 C 998.1875 573.523438 998.1875 573.523438 998.1875 573.523438 C 985.933594 567.921875 972.695312 565.082031 960.210938 566.492188 C 953.277344 567.277344 946.574219 568.957031 940.203125 571.476562 C 940.976562 561.957031 937.75 552.246094 933.359375 543.199219 C 925.457031 526.925781 912.105469 511.945312 895.417969 504.386719 C 884.582031 499.480469 872.464844 497.707031 860.273438 498.496094 C 835.300781 467.332031 793.789062 451.507812 752.335938 461.304688 C 729.171875 466.78125 709.59375 479.425781 695.355469 496.320312 C 689.878906 490.0625 683.398438 484.789062 675.761719 481.175781 C 657.339844 472.46875 634.847656 472.796875 617.152344 483.203125 C 607.800781 488.707031 600.070312 496.136719 594.8125 504.90625 C 575.433594 497.367188 554.683594 496.578125 535.289062 504.851562 C 513.523438 514.140625 497.472656 532.414062 490.355469 554.835938 C 477.816406 551.90625 464.898438 552.328125 452.476562 555.3125 C 452.476562 555.3125 452.472656 555.3125 452.472656 555.3125 C 452.460938 555.3125 452.449219 555.320312 452.433594 555.324219 C 450.886719 555.695312 449.347656 556.109375 447.816406 556.558594 C 447.773438 556.574219 447.730469 556.585938 447.691406 556.597656 C 446.140625 557.054688 444.605469 557.554688 443.074219 558.089844 C 443.046875 558.097656 443.015625 558.109375 442.984375 558.121094 C 441.488281 558.644531 440.003906 559.210938 438.535156 559.808594 C 438.46875 559.835938 438.398438 559.859375 438.332031 559.882812 C 436.953125 560.453125 435.582031 561.054688 434.21875 561.679688 C 434.066406 561.75 433.914062 561.8125 433.757812 561.882812 C 432.519531 562.460938 431.296875 563.078125 430.078125 563.703125 C 429.816406 563.839844 429.546875 563.964844 429.28125 564.097656 C 428.21875 564.65625 427.171875 565.253906 426.132812 565.847656 C 425.726562 566.074219 425.316406 566.285156 424.917969 566.519531 C 424.070312 567.015625 423.246094 567.542969 422.414062 568.0625 C 421.839844 568.421875 421.25 568.761719 420.679688 569.132812 C 420.210938 569.433594 419.761719 569.761719 419.296875 570.074219 C 418.402344 570.675781 417.492188 571.269531 416.609375 571.902344 C 395.753906 586.8125 380.203125 608.734375 373.769531 633.511719 C 372.851562 637.050781 372.117188 640.652344 371.582031 644.292969 C 368.1875 667.371094 370.640625 695.695312 387.007812 713.546875 C 386.46875 715.144531 385.972656 716.746094 385.519531 718.351562 C 371.371094 768.136719 395.214844 822.164062 443.714844 844.429688 C 451.214844 847.871094 458.902344 850.347656 466.652344 851.953125 C 465.847656 853.15625 465.234375 854.460938 464.878906 855.839844 C 464.519531 857.21875 464.417969 858.675781 464.644531 860.164062 C 469.074219 889.359375 491.183594 914.507812 515.695312 929.542969 C 538.890625 943.765625 568.597656 947.84375 595.21875 943.964844 C 612.640625 941.421875 630.261719 934.921875 645.910156 925.273438 C 655.441406 933.675781 667.527344 939.816406 680.699219 943.5 C 694.707031 947.421875 710.074219 945.6875 722.757812 938.566406 C 722.96875 938.445312 723.167969 938.316406 723.378906 938.195312 C 724.988281 941.761719 726.796875 945.277344 728.839844 948.722656 C 758.890625 999.453125 824.382812 1016.214844 875.113281 986.167969 C 896 973.796875 911.121094 955.421875 919.585938 934.542969 C 940.421875 941.230469 963.734375 936.820312 981.617188 924.484375 C 998.175781 913.058594 1010.179688 895.890625 1013.523438 875.886719 C 1014.472656 870.207031 1014.699219 864.828125 1014.289062 859.65625 C 1018.070312 858.867188 1021.84375 857.894531 1025.601562 856.671875 C 1060.660156 845.304688 1085.808594 817.519531 1095.296875 784.589844 C 1100.992188 764.832031 1101.050781 743.21875 1094.226562 722.1875 " fill-opacity="1" fill-rule="nonzero"/><path fill="#040606" d="M 1006.484375 847.042969 C 989.828125 852.445312 972.832031 853.433594 956.742188 850.703125 C 959.527344 845.636719 961.675781 840.128906 963.027344 834.230469 C 967.324219 815.476562 962.851562 796.707031 952.261719 782.015625 C 957.507812 794.269531 959.085938 808.121094 955.910156 821.972656 C 947.769531 857.492188 911.578125 879.507812 875.074219 871.140625 C 860.242188 867.746094 847.640625 859.855469 838.453125 849.296875 C 847.335938 865.648438 863.144531 878.351562 883.007812 882.902344 C 897.46875 886.214844 911.875 884.703125 924.476562 879.453125 C 923.726562 913.691406 906.109375 946.582031 874.804688 965.125 C 826.257812 993.878906 763.234375 977.242188 734.039062 927.960938 C 720.652344 905.367188 716.730469 879.835938 721.058594 856.035156 C 712.929688 877.230469 711.617188 900.847656 717.972656 923.320312 C 706.636719 928.046875 694.042969 929.238281 681.566406 925.390625 C 673.738281 922.976562 666.128906 919.882812 659.191406 915.933594 C 682.949219 896.898438 699.46875 869.765625 698.722656 838.148438 C 698.710938 837.738281 698.179688 837.75 698.058594 838.085938 C 689.589844 861.34375 678.203125 882.097656 659.355469 898.578125 C 641.285156 914.375 618.410156 922.699219 594.519531 923.085938 C 571.871094 923.453125 551.019531 916.425781 532.152344 904.203125 C 523.710938 898.734375 515.976562 891.945312 509.660156 884.09375 C 502.472656 875.175781 498.710938 865.65625 494.214844 855.34375 C 494.023438 854.890625 493.816406 854.457031 493.597656 854.027344 C 511.90625 853.089844 529.65625 847.410156 545.101562 837.707031 C 554.160156 842.214844 564.355469 844.652344 575.105469 844.386719 C 594.34375 843.917969 611.425781 834.945312 623.042969 821.050781 C 612.464844 829.167969 599.429688 834.117188 585.222656 834.464844 C 548.789062 835.351562 518.515625 805.730469 517.597656 768.292969 C 517.226562 753.082031 521.757812 738.925781 529.714844 727.414062 C 516.066406 740.058594 507.664062 758.515625 508.164062 778.886719 C 508.738281 802.558594 521.191406 823.058594 539.5 834.5625 C 514.78125 844.039062 486.597656 844.015625 460.839844 832.191406 C 409.558594 808.652344 387.363281 747.375 411.261719 695.324219 C 422.214844 671.453125 440.976562 653.695312 463.007812 643.699219 C 437.292969 649.976562 414.136719 665.734375 398.984375 688.902344 C 396.398438 676.503906 394.453125 664.023438 395.964844 651.15625 C 398.644531 628.324219 410.738281 607.6875 428.46875 593.175781 C 446.460938 578.453125 472.164062 569.082031 495.277344 574.890625 C 519.726562 581.03125 545.746094 599.667969 556.691406 622.390625 C 557.339844 623.734375 558.101562 624.015625 557.757812 622.683594 C 551.605469 598.730469 536.289062 578.25 515.324219 565.410156 C 515.910156 564.386719 516.421875 563.308594 516.832031 562.175781 C 527.730469 531.945312 562.496094 516.675781 592.660156 525.429688 C 619.332031 533.164062 640.292969 559.371094 645.722656 587.058594 C 645.515625 588.027344 645.332031 589.003906 645.1875 589.992188 C 643.109375 604.183594 647.550781 617.863281 656.289062 628.148438 C 651.664062 619.355469 649.667969 609.160156 651.207031 598.679688 C 655.140625 571.804688 680.726562 553.296875 708.34375 557.34375 C 719.566406 558.984375 729.394531 564.101562 736.851562 571.394531 C 729.277344 559.777344 716.78125 551.277344 701.75 549.074219 C 691.050781 547.511719 680.671875 549.371094 671.753906 553.800781 C 681.449219 518.890625 709.023438 490.308594 746.359375 481.484375 C 801.269531 468.503906 856.46875 503.167969 869.644531 558.910156 C 875.691406 584.464844 871.828125 610.003906 860.597656 631.433594 C 880.128906 606.722656 888.609375 573.667969 880.804688 540.640625 C 879.136719 533.59375 876.800781 526.882812 873.894531 520.546875 C 876.792969 520.890625 879.714844 521.449219 882.652344 522.285156 C 905.714844 528.839844 928.84375 550.25 932.554688 575.027344 C 928.644531 577.097656 924.875 579.472656 921.324219 582.230469 C 911.226562 590.066406 905.652344 602.269531 901.617188 614.132812 C 901.53125 614.382812 901.886719 614.535156 902.046875 614.363281 C 910.414062 605.578125 920.351562 598.304688 930.804688 592.515625 C 940.617188 587.082031 951.15625 584.457031 962.445312 584.296875 C 986.609375 583.953125 1013.605469 602.523438 1024.652344 623.238281 C 1030.089844 633.4375 1033.625 645.144531 1034.554688 656.960938 C 1020.484375 650.957031 1005.101562 647.933594 989.398438 648.421875 C 1027.527344 653.414062 1061.121094 679.328125 1073.621094 717.878906 C 1091.027344 771.542969 1060.972656 829.371094 1006.484375 847.042969 Z M 972.546875 906.960938 C 957.210938 916.003906 941.320312 915.96875 926.078125 911.265625 C 927.800781 900.558594 927.871094 889.566406 926.253906 878.679688 C 937.675781 873.53125 947.5 865.269531 954.351562 854.710938 C 969.464844 860.535156 985.949219 862.980469 1002.636719 861.40625 C 999.460938 880 988.847656 897.351562 972.546875 906.960938 Z M 623.605469 512.230469 C 625.285156 510.074219 627.140625 507.984375 629.25 506 C 641.40625 494.546875 657.800781 490.476562 673.519531 496.523438 C 678.875 498.578125 684.078125 501.585938 688.503906 505.386719 C 678.742188 519.824219 672.519531 536.609375 670.703125 554.320312 C 661.964844 558.917969 654.734375 566.03125 650.128906 574.820312 C 646.769531 553.472656 635.015625 533.109375 618.480469 519.074219 C 619.820312 516.660156 621.5 514.378906 623.605469 512.230469 Z M 1094.226562 722.1875 C 1086.742188 699.101562 1072.128906 680.320312 1053.617188 667.484375 C 1054.835938 646.546875 1048.773438 624.78125 1037.90625 607.363281 C 1022.769531 583.113281 989.421875 563.191406 960.210938 566.492188 C 953.277344 567.277344 946.574219 568.957031 940.203125 571.476562 C 940.976562 561.957031 937.75 552.25 933.359375 543.199219 C 925.457031 526.925781 912.105469 511.945312 895.417969 504.386719 C 884.582031 499.480469 872.464844 497.707031 860.273438 498.496094 C 835.300781 467.332031 793.789062 451.507812 752.335938 461.304688 C 729.171875 466.78125 709.59375 479.425781 695.355469 496.320312 C 689.878906 490.0625 683.398438 484.789062 675.761719 481.175781 C 657.339844 472.46875 634.847656 472.796875 617.152344 483.207031 C 607.800781 488.707031 600.070312 496.136719 594.8125 504.90625 C 575.433594 497.367188 554.683594 496.578125 535.289062 504.851562 C 513.523438 514.140625 497.472656 532.414062 490.355469 554.835938 C 464.898438 548.890625 437.894531 556.691406 416.609375 571.90625 C 392.769531 588.945312 375.871094 615.140625 371.582031 644.292969 C 368.1875 667.371094 370.640625 695.695312 387.007812 713.546875 C 369.855469 764.613281 393.648438 821.445312 443.714844 844.429688 C 451.214844 847.871094 458.902344 850.347656 466.652344 851.953125 C 465.050781 854.355469 464.1875 857.183594 464.644531 860.164062 C 469.074219 889.359375 491.183594 914.507812 515.695312 929.542969 C 538.890625 943.765625 568.597656 947.84375 595.21875 943.964844 C 612.640625 941.421875 630.261719 934.921875 645.910156 925.273438 C 655.441406 933.675781 667.527344 939.816406 680.699219 943.5 C 694.707031 947.421875 710.074219 945.6875 722.757812 938.566406 C 722.96875 938.445312 723.167969 938.316406 723.378906 938.195312 C 724.988281 941.761719 726.796875 945.277344 728.839844 948.722656 C 758.890625 999.453125 824.382812 1016.214844 875.113281 986.167969 C 896 973.796875 911.121094 955.421875 919.585938 934.542969 C 940.421875 941.230469 963.734375 936.820312 981.617188 924.484375 C 998.175781 913.058594 1010.179688 895.890625 1013.523438 875.886719 C 1014.472656 870.207031 1014.699219 864.828125 1014.285156 859.65625 C 1018.070312 858.867188 1021.84375 857.894531 1025.601562 856.671875 C 1081.691406 838.484375 1112.414062 778.273438 1094.226562 722.1875 " fill-opacity="1" fill-rule="nonzero"/><path fill="#040606" d="M 1071.980469 769.21875 C 1037.917969 775.265625 978.078125 776.9375 952.609375 780.769531 C 969.339844 703.09375 989.421875 626.171875 1012.875 550.25 C 1014.09375 546.300781 1010.851562 543.34375 1007.296875 542.925781 C 987.785156 540.625 968.34375 542.175781 948.980469 545.042969 C 932.273438 547.523438 914.371094 550.671875 898.339844 556.550781 C 890.757812 559.332031 884.960938 562.679688 880.625 566.527344 C 876.347656 579.269531 876.46875 595.65625 876.332031 605.339844 C 876.042969 626.09375 878.105469 646.722656 879.441406 667.40625 C 881.515625 699.335938 880.976562 731.632812 882.117188 763.632812 C 882.738281 781.167969 882.492188 799.246094 885.046875 816.734375 C 886.28125 818.207031 887.601562 819.609375 889.023438 820.933594 C 896.894531 825.492188 907.859375 826.96875 915.765625 829.320312 C 952.683594 840.300781 989.464844 852.441406 1026.695312 862.316406 C 1032.605469 863.886719 1038.910156 864.570312 1043.433594 859.566406 C 1049.542969 852.816406 1052.628906 841.300781 1056.128906 833.023438 C 1064.070312 814.269531 1070.957031 795.117188 1076.867188 775.636719 C 1077.824219 772.460938 1075.152344 768.65625 1071.980469 769.21875 " fill-opacity="1" fill-rule="nonzero"/><path fill="#040606" d="M 659.660156 732.128906 C 634.910156 724.625 609.933594 718.210938 584.550781 713.210938 C 578.285156 711.980469 573.878906 716.808594 574.867188 722.898438 C 577.632812 739.972656 579.042969 761.023438 566.199219 774.628906 C 555.832031 785.613281 538.949219 790.039062 524.34375 786.574219 C 493.472656 779.253906 472.390625 737.292969 488.042969 708.648438 C 496.640625 692.902344 515.910156 690.488281 531.164062 697.191406 C 535.261719 698.992188 538.59375 699.953125 541.835938 699.917969 C 548.339844 700.859375 555.566406 697.765625 561.753906 693.8125 C 577.839844 683.519531 593.523438 672.550781 609.367188 661.898438 C 616.964844 656.789062 624.578125 651.703125 632.148438 646.5625 C 637.640625 642.832031 642.851562 639.105469 642.992188 631.78125 C 643.128906 624.425781 638.402344 617.171875 634.789062 611.109375 C 630.828125 604.472656 626.292969 598.179688 621.363281 592.226562 C 582.558594 545.351562 496.601562 534.351562 450.652344 567.570312 C 449.375 568.488281 448.472656 569.84375 447.421875 571.011719 C 442.171875 575.402344 437.347656 580.386719 433.058594 585.910156 C 414.339844 609.996094 407.304688 635.730469 406.433594 665.75 C 405.960938 681.972656 407.363281 698.15625 409.386719 714.238281 C 411.445312 730.636719 417.40625 750.117188 423.460938 765.578125 C 441.960938 812.804688 487.949219 849.035156 539.144531 852.152344 C 604.859375 856.15625 659.871094 802.871094 664.707031 738.757812 C 664.9375 735.722656 662.398438 732.957031 659.660156 732.128906 " fill-opacity="1" fill-rule="nonzero"/><path fill="#040606" d="M 733.644531 781.296875 C 718.144531 804.523438 701.503906 780.832031 693.136719 771.238281 C 677.035156 752.769531 664.867188 731.921875 657.203125 708.613281 C 653.792969 698.234375 649.261719 682.148438 658.027344 673.050781 C 661.910156 669.027344 666.355469 669.152344 670.703125 668.234375 C 682.792969 665.671875 697.046875 676.292969 703.566406 683.039062 C 716.976562 696.910156 725.566406 715.085938 730.5625 733.554688 C 734.46875 748.015625 742.234375 768.429688 733.644531 781.296875 Z M 751.679688 701.855469 C 738.984375 677.035156 721.609375 652.449219 694.5625 642.285156 C 663.351562 630.558594 630.476562 648.21875 613.652344 674.859375 C 607.453125 684.683594 603.492188 695.914062 601.785156 707.445312 C 597.078125 728.695312 598.234375 751.183594 602.089844 772.507812 C 607.550781 802.675781 621.726562 831.808594 646.878906 850.25 C 669.335938 866.71875 700.347656 872.992188 726.445312 861.878906 C 752.390625 850.824219 768.785156 824.628906 773.089844 797.414062 C 778.378906 763.992188 766.71875 731.238281 751.679688 701.855469 " fill-opacity="1" fill-rule="nonzero"/><path fill="#040606" d="M 838.363281 744.296875 C 817.570312 754.273438 808.160156 734.410156 805.894531 716.8125 C 803.261719 696.394531 805.503906 675.449219 809.140625 655.292969 C 811.503906 642.171875 815.082031 625.75 826.207031 617.054688 C 830.75 613.503906 836.042969 612.101562 841.015625 612.542969 C 841.324219 612.53125 841.625 612.511719 841.929688 612.523438 C 848.730469 612.707031 853.988281 617.75 857.492188 623.132812 C 866.074219 636.296875 866.476562 653.308594 866.789062 668.515625 C 867.328125 694.140625 865.046875 731.492188 838.363281 744.296875 Z M 864.515625 589.90625 C 844.402344 579.738281 820.875 577.140625 800.023438 584.019531 C 775.828125 592.003906 758.144531 610.9375 747.757812 632.804688 C 736.332031 656.835938 733.628906 684.148438 732.894531 710.699219 C 732.195312 736.136719 734.464844 761.855469 749.078125 784.554688 C 762.652344 805.640625 785.664062 818.375 810.914062 818.652344 C 836.222656 818.921875 859.289062 806.253906 874.695312 788.285156 C 892.925781 767.035156 902.578125 739.089844 906.09375 711.5625 C 906.894531 705.292969 907.464844 698.8125 907.65625 692.304688 C 911.121094 648.359375 901.859375 608.78125 864.515625 589.90625 " fill-opacity="1" fill-rule="nonzero"/><path fill="#fcca17" d="M 1059.835938 757.945312 C 1025.769531 763.992188 965.9375 765.664062 940.46875 769.496094 C 957.199219 691.820312 977.28125 614.898438 1000.730469 538.972656 C 1001.949219 535.023438 998.707031 532.070312 995.152344 531.652344 C 975.640625 529.351562 956.199219 530.902344 936.835938 533.769531 C 920.132812 536.25 902.226562 539.398438 886.195312 545.273438 C 878.613281 548.058594 872.816406 551.402344 868.484375 555.253906 C 864.207031 567.996094 864.324219 584.382812 864.1875 594.0625 C 863.898438 614.820312 865.960938 635.445312 867.300781 656.128906 C 869.371094 688.058594 868.832031 720.359375 869.972656 752.359375 C 870.597656 769.890625 870.351562 787.972656 872.902344 805.460938 C 874.140625 806.933594 875.457031 808.332031 876.878906 809.65625 C 884.75 814.21875 895.714844 815.695312 903.617188 818.046875 C 940.542969 829.027344 977.320312 841.167969 1014.550781 851.042969 C 1020.460938 852.613281 1026.769531 853.296875 1031.296875 848.289062 C 1037.398438 841.542969 1040.488281 830.027344 1043.988281 821.75 C 1051.925781 802.996094 1058.800781 783.84375 1064.726562 764.359375 C 1065.683594 761.183594 1063.007812 757.378906 1059.835938 757.945312 " fill-opacity="1" fill-rule="nonzero"/><path fill="#fcca17" d="M 647.519531 720.855469 C 622.765625 713.351562 597.789062 706.9375 572.410156 701.9375 C 566.140625 700.703125 561.738281 705.535156 562.722656 711.625 C 565.488281 728.695312 566.902344 749.75 554.058594 763.355469 C 543.6875 774.339844 526.804688 778.765625 512.203125 775.300781 C 481.328125 767.976562 460.25 726.015625 475.898438 697.371094 C 484.5 681.625 503.769531 679.214844 519.019531 685.914062 C 523.117188 687.71875 526.449219 688.679688 529.695312 688.640625 C 536.199219 689.585938 543.425781 686.492188 549.609375 682.535156 C 565.695312 672.246094 581.382812 661.273438 597.226562 650.621094 C 604.820312 645.515625 612.4375 640.429688 620.003906 635.289062 C 625.496094 631.558594 630.707031 627.832031 630.847656 620.507812 C 630.988281 613.152344 626.257812 605.898438 622.644531 599.835938 C 618.6875 593.195312 614.148438 586.90625 609.21875 580.953125 C 570.417969 534.078125 484.457031 523.074219 438.507812 556.292969 C 437.230469 557.214844 436.328125 558.570312 435.28125 559.738281 C 430.027344 564.128906 425.207031 569.113281 420.910156 574.636719 C 402.195312 598.722656 395.160156 624.453125 394.289062 654.476562 C 393.816406 670.695312 395.21875 686.882812 397.242188 702.964844 C 399.304688 719.363281 405.265625 738.84375 411.320312 754.304688 C 429.816406 801.53125 475.804688 837.761719 527 840.878906 C 592.714844 844.882812 647.726562 791.597656 652.566406 727.484375 C 652.792969 724.449219 650.257812 721.683594 647.519531 720.855469 " fill-opacity="1" fill-rule="nonzero"/><path fill="#fcca17" d="M 721.5 770.023438 C 706 793.25 689.359375 769.554688 680.996094 759.964844 C 664.890625 741.496094 652.722656 720.644531 645.058594 697.339844 C 641.648438 686.960938 637.121094 670.875 645.882812 661.777344 C 649.765625 657.753906 654.210938 657.878906 658.5625 656.957031 C 670.652344 654.398438 684.902344 665.019531 691.421875 671.761719 C 704.835938 685.632812 713.421875 703.8125 718.417969 722.28125 C 722.324219 736.742188 730.09375 757.152344 721.5 770.023438 Z M 739.542969 690.582031 C 726.839844 665.761719 709.46875 641.175781 682.421875 631.011719 C 651.210938 619.285156 618.335938 636.945312 601.511719 663.585938 C 595.308594 673.40625 591.351562 684.636719 589.640625 696.167969 C 584.933594 717.417969 586.089844 739.910156 589.945312 761.230469 C 595.40625 791.402344 609.589844 820.53125 634.738281 838.976562 C 657.191406 855.445312 688.207031 861.71875 714.300781 850.601562 C 740.246094 839.550781 756.640625 813.355469 760.949219 786.140625 C 766.238281 752.71875 754.570312 719.964844 739.542969 690.582031 " fill-opacity="1" fill-rule="nonzero"/><path fill="#fcca17" d="M 826.226562 733.019531 C 805.425781 743 796.015625 723.136719 793.75 705.535156 C 791.121094 685.117188 793.359375 664.175781 796.996094 644.019531 C 799.359375 630.898438 802.9375 614.476562 814.066406 605.777344 C 818.609375 602.230469 823.898438 600.828125 828.871094 601.269531 C 829.179688 601.257812 829.480469 601.238281 829.792969 601.246094 C 836.585938 601.433594 841.839844 606.476562 845.347656 611.859375 C 853.933594 625.023438 854.332031 642.035156 854.648438 657.238281 C 855.183594 682.867188 852.902344 720.214844 826.226562 733.019531 Z M 852.375 578.632812 C 832.257812 568.460938 808.730469 565.863281 787.882812 572.746094 C 763.6875 580.730469 746.003906 599.664062 735.613281 621.527344 C 724.1875 645.5625 721.484375 672.875 720.753906 699.421875 C 720.054688 724.859375 722.320312 750.582031 736.9375 773.28125 C 750.507812 794.367188 773.523438 807.101562 798.769531 807.378906 C 824.082031 807.648438 847.148438 794.976562 862.554688 777.011719 C 880.777344 755.761719 890.4375 727.816406 893.949219 700.289062 C 894.75 694.015625 895.320312 687.539062 895.511719 681.027344 C 898.976562 637.085938 889.722656 597.507812 852.375 578.632812 " fill-opacity="1" fill-rule="nonzero"/><path fill="#ffffff" d="M 884.730469 614.96875 C 881.632812 612.945312 878.398438 612.875 875.277344 614.96875 C 868.796875 619.324219 871.011719 627.101562 871.5 633.324219 C 872.078125 640.738281 872.84375 648.136719 873.265625 655.5625 C 874.132812 670.824219 874.910156 686.082031 875.511719 701.351562 C 876.695312 731.5 878.601562 761.546875 881.34375 791.625 C 881.375 791.9375 881.910156 791.941406 881.9375 791.625 C 884.109375 761.535156 885.445312 731.488281 886.058594 701.351562 C 886.359375 686.519531 886.824219 671.699219 887.386719 656.871094 C 887.667969 649.449219 888.21875 642.046875 888.691406 634.628906 C 889.101562 628.136719 891.605469 619.460938 884.730469 614.96875 " fill-opacity="1" fill-rule="nonzero"/><path fill="#ffffff" d="M 604.644531 601.007812 C 594.765625 588.496094 581.996094 578.402344 569.417969 568.742188 C 555.929688 558.386719 541.515625 551.21875 524.570312 548.8125 C 508.8125 546.570312 507.417969 570.378906 521.796875 569.304688 C 536.578125 568.199219 551.875 572.53125 565.195312 578.746094 C 571.550781 581.707031 577.546875 585.390625 583.578125 588.941406 C 590.511719 593.023438 597.8125 596.441406 604.019531 601.632812 C 604.460938 602.003906 604.992188 601.453125 604.644531 601.007812 " fill-opacity="1" fill-rule="nonzero"/><path fill="#ffffff" d="M 477.136719 552.027344 C 457.113281 555.960938 440.386719 568.019531 428.148438 584.070312 C 414.78125 601.59375 409.46875 623.453125 407.371094 645.0625 C 403.183594 688.265625 411.683594 734.203125 434.109375 771.519531 C 434.277344 771.792969 434.765625 771.613281 434.644531 771.292969 C 420.601562 733.839844 413.914062 693.441406 421.339844 653.800781 C 427.722656 619.71875 446.0625 581.394531 482.878906 572.855469 C 496.511719 569.691406 490.667969 549.367188 477.136719 552.027344 " fill-opacity="1" fill-rule="nonzero"/><path fill="#ffffff" d="M 638.292969 794.769531 C 627.492188 767.796875 613.636719 741.667969 612.375 711.964844 C 611.351562 687.933594 617.292969 662.207031 636.191406 645.871094 C 636.648438 645.46875 636.0625 644.800781 635.570312 645.058594 C 612.234375 657.238281 598.902344 681.671875 596.433594 707.46875 C 593.332031 739.851562 606.222656 773.785156 620.832031 802.132812 C 622.339844 805.066406 625.859375 806.878906 629.078125 806.859375 C 631.859375 806.847656 633.996094 806.191406 635.832031 804.066406 C 637.90625 801.664062 639.582031 798.003906 638.292969 794.769531 " fill-opacity="1" fill-rule="nonzero"/><path fill="#ffffff" d="M 729.949219 806.207031 C 721.820312 819.042969 705.769531 827.601562 690.722656 828.546875 C 675.464844 829.507812 661.140625 822.226562 651.332031 810.863281 C 644.0625 802.449219 631.648438 814.796875 639.085938 823.109375 C 652.699219 838.320312 673.511719 845.476562 693.574219 841.214844 C 712.152344 837.265625 724.589844 823.882812 731.5625 806.886719 C 731.953125 805.933594 730.460938 805.402344 729.949219 806.207031 " fill-opacity="1" fill-rule="nonzero"/><path fill="#ffffff" d="M 754.875 749.695312 C 744.332031 728.300781 740.921875 704.882812 741.113281 681.1875 C 741.304688 657.839844 742.640625 632.882812 751.613281 611.070312 C 751.648438 610.976562 751.5 610.933594 751.457031 611.027344 C 741.871094 634.539062 731.476562 656.773438 729.457031 682.515625 C 727.523438 707.207031 732.015625 732.496094 741.445312 755.355469 C 745.464844 765.109375 759.609375 759.3125 754.875 749.695312 " fill-opacity="1" fill-rule="nonzero"/><path fill="#ffffff" d="M 839.433594 774.117188 C 817.96875 791.140625 784.71875 783.867188 768.53125 763.117188 C 762.328125 755.167969 751.191406 766.359375 757.414062 774.238281 C 767.472656 786.972656 783.453125 796.417969 800.066406 795.722656 C 816.015625 795.054688 829.738281 786.441406 840.160156 774.84375 C 840.617188 774.339844 839.945312 773.710938 839.433594 774.117188 " fill-opacity="1" fill-rule="nonzero"/><path fill="#ffffff" d="M 887.628906 591.265625 C 885.453125 578.867188 883.269531 566.765625 879.648438 554.976562 C 879.40625 554.1875 878.449219 553.820312 878.164062 554.769531 C 874.292969 567.644531 872.984375 580.796875 872.160156 594.71875 C 871.316406 608.910156 890.589844 608.152344 887.628906 591.265625 " fill-opacity="1" fill-rule="nonzero"/><path fill="#040606" d="M 1329.28125 559.671875 C 1320.113281 556.554688 1307.355469 560.09375 1297.855469 561.117188 C 1287.347656 562.246094 1276.859375 563.542969 1266.386719 564.957031 C 1244.558594 567.90625 1222.84375 571.535156 1201.238281 575.78125 C 1158.023438 584.265625 1114.851562 594.449219 1073.292969 609.085938 C 1071.78125 609.617188 1072.371094 611.863281 1073.949219 611.5 C 1116.550781 601.738281 1159.035156 591.847656 1202.242188 585.066406 C 1224.058594 581.644531 1245.976562 578.8125 1267.945312 576.484375 C 1278.890625 575.320312 1289.871094 574.308594 1300.851562 573.425781 C 1310.261719 572.667969 1322.074219 573.933594 1330.578125 569.609375 C 1335.015625 567.355469 1333.417969 561.078125 1329.28125 559.671875 " fill-opacity="1" fill-rule="nonzero"/><path fill="#040606" d="M 1246.667969 634.261719 C 1243.226562 628.535156 1237.410156 628.855469 1231.269531 628.089844 C 1223.277344 627.089844 1215.265625 626.25 1207.242188 625.574219 C 1192.171875 624.296875 1177.054688 623.574219 1161.929688 623.453125 C 1131.3125 623.210938 1100.984375 625.867188 1070.976562 631.824219 C 1069.59375 632.097656 1069.90625 634.34375 1071.300781 634.277344 C 1101.441406 632.855469 1131.78125 632.402344 1161.929688 633.753906 C 1177.074219 634.425781 1192.191406 635.636719 1207.242188 637.429688 C 1214.710938 638.320312 1222.164062 639.363281 1229.59375 640.554688 C 1235.824219 641.550781 1240.929688 643.453125 1246.050781 639.070312 C 1247.355469 637.949219 1247.523438 635.683594 1246.667969 634.261719 " fill-opacity="1" fill-rule="nonzero"/><path fill="#040606" d="M 1073.058594 1004.699219 C 1060.316406 975.730469 1044.382812 942.613281 1019.078125 922.421875 C 1018.511719 921.96875 1017.4375 922.363281 1017.726562 923.203125 C 1022.898438 938.25 1031.140625 952.476562 1038.386719 966.589844 C 1046.089844 981.578125 1053.472656 996.78125 1060.109375 1012.269531 C 1063.890625 1021.074219 1076.925781 1013.488281 1073.058594 1004.699219 " fill-opacity="1" fill-rule="nonzero"/><path fill="#040606" d="M 1163.34375 1029.433594 C 1162.332031 1021.914062 1154.824219 1015.648438 1150.117188 1009.96875 C 1144.230469 1002.886719 1138.355469 995.804688 1132.472656 988.726562 C 1121.550781 975.558594 1110.769531 962.253906 1099.078125 949.746094 C 1077.953125 927.136719 1052.394531 904.738281 1022.824219 894.152344 C 1021.621094 893.71875 1020.75 895.40625 1021.605469 896.238281 C 1032.882812 907.203125 1045.195312 917.035156 1056.5625 927.957031 C 1068.214844 939.164062 1079.597656 950.515625 1090.128906 962.796875 C 1100.648438 975.070312 1110.808594 987.65625 1121.015625 1000.179688 C 1126.515625 1006.925781 1132.003906 1013.667969 1137.503906 1020.414062 C 1142.722656 1026.820312 1147.121094 1034.859375 1155.210938 1037.566406 C 1160.550781 1039.355469 1163.957031 1033.992188 1163.34375 1029.433594 " fill-opacity="1" fill-rule="nonzero"/><path fill="#040606" d="M 578.972656 961.09375 C 574.109375 977.234375 568.871094 993.0625 565.09375 1009.539062 C 561.21875 1026.398438 558.519531 1043.628906 555.65625 1060.6875 C 552.867188 1077.296875 550.527344 1094 548.234375 1110.6875 C 545.988281 1127.015625 541.6875 1144.640625 542.996094 1161.074219 C 543.472656 1167.09375 551.742188 1168.5625 553.675781 1162.519531 C 558.570312 1147.230469 558.714844 1129.859375 560.816406 1113.933594 C 563.152344 1096.273438 565.835938 1078.664062 568.34375 1061.023438 C 570.648438 1044.839844 573.53125 1028.710938 575.601562 1012.492188 C 577.78125 995.433594 578.722656 978.363281 580.414062 961.289062 C 580.496094 960.441406 579.203125 960.328125 578.972656 961.09375 " fill-opacity="1" fill-rule="nonzero"/><g clip-path="url(#d311904a00)"><path fill="#040606" d="M 603.792969 1183.875 C 602.507812 1173.554688 601.226562 1163.226562 600.109375 1152.886719 C 597.824219 1131.730469 596.230469 1110.488281 595.722656 1089.214844 C 595.222656 1068.609375 595.703125 1047.890625 597.320312 1027.335938 C 599.054688 1005.265625 600.816406 982.777344 604.039062 960.882812 C 604.121094 960.320312 603.398438 960.117188 603.1875 960.648438 C 595.304688 980.601562 589.492188 1000.117188 586.796875 1021.488281 C 584.023438 1043.492188 583.109375 1065.566406 583.503906 1087.730469 C 583.898438 1109.503906 585.429688 1131.238281 587.695312 1152.886719 C 588.78125 1163.292969 590.042969 1173.679688 591.539062 1184.035156 C 593.070312 1194.65625 593.957031 1205.375 598.703125 1215.105469 C 600.03125 1217.835938 605.082031 1217.386719 605.550781 1214.210938 C 607.054688 1203.980469 605.0625 1194.066406 603.792969 1183.875 " fill-opacity="1" fill-rule="nonzero"/></g><path fill="#040606" d="M 383.238281 833.085938 C 339.953125 845.910156 293.460938 849.253906 248.492188 850.1875 C 201.832031 851.152344 155.058594 846.714844 109.484375 836.664062 C 95.421875 833.566406 89.5 855.414062 103.546875 858.199219 C 152.257812 867.863281 201.875 871.734375 251.464844 868.613281 C 275.925781 867.074219 300.367188 863.9375 324.234375 858.3125 C 345.371094 853.332031 366.292969 847.109375 383.597656 833.699219 C 383.894531 833.46875 383.566406 832.988281 383.238281 833.085938 " fill-opacity="1" fill-rule="nonzero"/><path fill="#040606" d="M 384.261719 852.074219 C 372.558594 860.910156 358.464844 864.640625 344.46875 868.21875 C 328.8125 872.222656 312.9375 875.414062 297.167969 878.957031 C 281.5 882.476562 265.769531 885.71875 250.011719 888.816406 C 241.640625 890.457031 233.242188 891.953125 224.847656 893.480469 C 221.167969 894.152344 216.746094 894.332031 213.328125 895.847656 C 209.738281 897.4375 208.898438 900.246094 206.890625 903.285156 C 205.324219 905.667969 206.609375 908.519531 208.660156 910.019531 C 212.128906 912.558594 213.550781 914.507812 218.351562 914.230469 C 222.199219 914.003906 226.199219 912.824219 229.96875 912.0625 C 238.3125 910.378906 246.613281 908.476562 254.898438 906.535156 C 271.953125 902.539062 288.953125 898.078125 305.675781 892.835938 C 333.292969 884.1875 365.539062 876.113281 385.683594 853.917969 C 386.527344 852.988281 385.378906 851.226562 384.261719 852.074219 " fill-opacity="1" fill-rule="nonzero"/><path fill="#040606" d="M 351.355469 668.867188 C 340.1875 651.683594 325.117188 637.578125 309.167969 624.8125 C 292.753906 611.667969 275.625 599.699219 257.457031 589.082031 C 239.527344 578.613281 220.570312 569.949219 201.261719 562.367188 C 191.625 558.578125 181.855469 555.140625 171.976562 552.058594 C 162.449219 549.085938 151.957031 544.976562 141.855469 545.273438 C 141.042969 545.238281 140.226562 545.289062 139.414062 545.4375 C 139.105469 545.46875 138.792969 545.488281 138.484375 545.527344 C 138.511719 545.5625 138.53125 545.589844 138.554688 545.625 C 137.222656 545.980469 135.9375 546.582031 134.773438 547.480469 C 128.515625 552.3125 129.550781 561.242188 135.878906 565.453125 C 144.015625 570.863281 156.425781 571.742188 165.816406 574.390625 C 174.9375 576.964844 183.96875 579.839844 192.898438 583.011719 C 211.9375 589.769531 230.355469 598.054688 248.382812 607.160156 C 266.019531 616.066406 283.25 626.125 299.597656 637.214844 C 316.15625 648.453125 331.84375 660.855469 348.84375 671.378906 C 350.378906 672.328125 352.363281 670.414062 351.355469 668.867188 " fill-opacity="1" fill-rule="nonzero"/><path fill="#040606" d="M 359.542969 641.429688 C 331.339844 594.242188 288.769531 558.378906 238.964844 535.46875 C 226.574219 529.769531 218.886719 547.605469 231.664062 552.792969 C 279.820312 572.339844 322.976562 604.511719 358.386719 642.320312 C 358.957031 642.933594 359.964844 642.144531 359.542969 641.429688 " fill-opacity="1" fill-rule="nonzero"/><path fill="#65cde6" d="M 1059.835938 757.945312 C 1025.769531 763.992188 965.9375 765.664062 940.46875 769.496094 C 957.199219 691.820312 977.28125 614.898438 1000.730469 538.972656 C 1001.949219 535.023438 998.707031 532.070312 995.152344 531.652344 C 975.640625 529.351562 956.199219 530.902344 936.835938 533.769531 C 920.132812 536.25 902.226562 539.398438 886.195312 545.273438 C 878.613281 548.058594 872.816406 551.402344 868.484375 555.253906 C 864.207031 567.996094 864.324219 584.382812 864.1875 594.0625 C 863.898438 614.820312 865.960938 635.445312 867.300781 656.128906 C 869.371094 688.058594 868.832031 720.359375 869.972656 752.359375 C 870.597656 769.890625 870.351562 787.972656 872.902344 805.460938 C 874.140625 806.933594 875.457031 808.332031 876.878906 809.65625 C 884.75 814.21875 895.714844 815.695312 903.617188 818.046875 C 940.542969 829.027344 977.320312 841.167969 1014.550781 851.042969 C 1020.460938 852.613281 1026.769531 853.296875 1031.296875 848.289062 C 1037.398438 841.542969 1040.488281 830.027344 1043.988281 821.75 C 1051.925781 802.996094 1058.800781 783.84375 1064.726562 764.359375 C 1065.683594 761.183594 1063.007812 757.378906 1059.835938 757.945312 " fill-opacity="1" fill-rule="nonzero"/><path fill="#65cde6" d="M 647.519531 720.855469 C 622.765625 713.351562 597.789062 706.9375 572.410156 701.9375 C 566.140625 700.703125 561.738281 705.535156 562.722656 711.625 C 565.488281 728.695312 566.902344 749.75 554.058594 763.355469 C 543.6875 774.339844 526.804688 778.765625 512.203125 775.300781 C 481.328125 767.976562 460.25 726.015625 475.898438 697.371094 C 484.5 681.625 503.769531 679.214844 519.019531 685.914062 C 523.117188 687.71875 526.449219 688.679688 529.695312 688.640625 C 536.199219 689.585938 543.425781 686.492188 549.609375 682.535156 C 565.695312 672.246094 581.382812 661.273438 597.226562 650.621094 C 604.820312 645.515625 612.4375 640.429688 620.003906 635.289062 C 625.496094 631.558594 630.707031 627.832031 630.847656 620.507812 C 630.988281 613.152344 626.257812 605.898438 622.644531 599.835938 C 618.6875 593.195312 614.148438 586.90625 609.21875 580.953125 C 570.417969 534.078125 484.457031 523.074219 438.507812 556.292969 C 437.230469 557.214844 436.328125 558.570312 435.28125 559.738281 C 430.027344 564.128906 425.207031 569.113281 420.910156 574.636719 C 402.195312 598.722656 395.160156 624.453125 394.289062 654.476562 C 393.816406 670.695312 395.21875 686.882812 397.242188 702.964844 C 399.304688 719.363281 405.265625 738.84375 411.320312 754.304688 C 429.816406 801.53125 475.804688 837.761719 527 840.878906 C 592.714844 844.882812 647.726562 791.597656 652.566406 727.484375 C 652.792969 724.449219 650.257812 721.683594 647.519531 720.855469 " fill-opacity="1" fill-rule="nonzero"/><path fill="#65cde6" d="M 721.5 770.023438 C 706 793.25 689.359375 769.554688 680.996094 759.964844 C 664.890625 741.496094 652.722656 720.644531 645.058594 697.339844 C 641.648438 686.960938 637.121094 670.875 645.882812 661.777344 C 649.765625 657.753906 654.210938 657.878906 658.5625 656.957031 C 670.652344 654.398438 684.902344 665.019531 691.421875 671.761719 C 704.835938 685.632812 713.421875 703.8125 718.417969 722.28125 C 722.324219 736.742188 730.09375 757.152344 721.5 770.023438 Z M 739.542969 690.582031 C 726.839844 665.761719 709.46875 641.175781 682.421875 631.011719 C 651.210938 619.285156 618.335938 636.945312 601.511719 663.585938 C 595.308594 673.40625 591.351562 684.636719 589.640625 696.167969 C 584.933594 717.417969 586.089844 739.910156 589.945312 761.230469 C 595.40625 791.402344 609.589844 820.53125 634.738281 838.976562 C 657.191406 855.445312 688.207031 861.71875 714.300781 850.601562 C 740.246094 839.550781 756.640625 813.355469 760.949219 786.140625 C 766.238281 752.71875 754.570312 719.964844 739.542969 690.582031 " fill-opacity="1" fill-rule="nonzero"/><path fill="#65cde6" d="M 826.226562 733.019531 C 805.425781 743 796.015625 723.136719 793.75 705.535156 C 791.121094 685.117188 793.359375 664.175781 796.996094 644.019531 C 799.359375 630.898438 802.9375 614.476562 814.066406 605.777344 C 818.609375 602.230469 823.898438 600.828125 828.871094 601.269531 C 829.179688 601.257812 829.480469 601.238281 829.792969 601.246094 C 836.585938 601.433594 841.839844 606.476562 845.347656 611.859375 C 853.933594 625.023438 854.332031 642.035156 854.648438 657.238281 C 855.183594 682.867188 852.902344 720.214844 826.226562 733.019531 Z M 852.375 578.632812 C 832.257812 568.460938 808.730469 565.863281 787.882812 572.746094 C 763.6875 580.730469 746.003906 599.664062 735.613281 621.527344 C 724.1875 645.5625 721.484375 672.875 720.753906 699.421875 C 720.054688 724.859375 722.320312 750.582031 736.9375 773.28125 C 750.507812 794.367188 773.523438 807.101562 798.769531 807.378906 C 824.082031 807.648438 847.148438 794.976562 862.554688 777.011719 C 880.777344 755.761719 890.4375 727.816406 893.949219 700.289062 C 894.75 694.015625 895.320312 687.539062 895.511719 681.027344 C 898.976562 637.085938 889.722656 597.507812 852.375 578.632812 " fill-opacity="1" fill-rule="nonzero"/><path fill="#171717" d="M 827.09375 604.328125 C 823.160156 604.328125 819.269531 605.695312 815.996094 608.25 C 805.9375 616.105469 802.507812 631.117188 800.078125 644.578125 C 797.320312 659.882812 793.984375 682.8125 796.859375 705.136719 C 798.5 717.890625 803.285156 727.570312 809.65625 731.03125 C 813.851562 733.3125 818.964844 733.027344 824.863281 730.195312 C 849.871094 718.195312 852.046875 682.851562 851.515625 657.304688 C 851.207031 642.65625 850.859375 626.054688 842.722656 613.570312 C 840.046875 609.46875 835.617188 604.542969 829.703125 604.378906 C 829.5625 604.378906 829.410156 604.386719 829.261719 604.390625 L 828.789062 604.410156 L 828.597656 604.390625 C 828.09375 604.347656 827.597656 604.328125 827.09375 604.328125 Z M 815.773438 738.84375 C 812.539062 738.84375 809.496094 738.078125 806.667969 736.539062 C 794.9375 730.167969 791.554688 713.015625 790.640625 705.9375 C 787.652344 682.753906 791.078125 659.179688 793.910156 643.460938 C 796.542969 628.867188 800.339844 612.527344 812.136719 603.308594 C 817.023438 599.492188 822.980469 597.660156 828.941406 598.128906 L 828.976562 598.128906 C 829.273438 598.113281 829.566406 598.105469 829.867188 598.109375 C 838.507812 598.351562 844.484375 604.789062 847.972656 610.148438 C 857.089844 624.128906 857.457031 641.6875 857.785156 657.171875 C 858.355469 684.449219 855.84375 722.28125 827.578125 735.84375 C 823.414062 737.84375 819.464844 738.84375 815.773438 738.84375 Z M 662.421875 659.703125 C 661.332031 659.703125 660.257812 659.800781 659.210938 660.027344 C 658.285156 660.222656 657.363281 660.371094 656.441406 660.523438 C 653.128906 661.0625 650.519531 661.484375 648.140625 663.953125 C 641.035156 671.328125 644.351562 685.144531 648.039062 696.359375 C 655.40625 718.765625 667.285156 739.472656 683.355469 757.898438 C 684.082031 758.730469 684.863281 759.667969 685.707031 760.667969 C 691.238281 767.253906 699.5625 777.195312 707.550781 776.765625 C 711.464844 776.546875 715.28125 773.695312 718.894531 768.28125 C 725.550781 758.304688 720.863281 742.113281 717.089844 729.101562 C 716.488281 727.019531 715.90625 725.007812 715.390625 723.101562 C 709.980469 703.085938 700.910156 686.085938 689.167969 673.941406 C 684.089844 668.6875 672.585938 659.703125 662.421875 659.703125 Z M 707.035156 783.050781 C 696.324219 783.050781 687.078125 772.046875 680.90625 764.703125 C 680.09375 763.734375 679.332031 762.824219 678.628906 762.023438 C 662.007812 742.957031 649.710938 721.523438 642.082031 698.316406 C 639.359375 690.039062 632.984375 670.644531 643.625 659.601562 C 647.453125 655.628906 651.691406 654.945312 655.429688 654.332031 C 656.261719 654.199219 657.089844 654.066406 657.910156 653.894531 C 671.410156 651.042969 686.742188 662.414062 693.675781 669.582031 C 706.152344 682.488281 715.757812 700.429688 721.441406 721.460938 C 721.953125 723.339844 722.519531 725.308594 723.113281 727.355469 C 727.246094 741.617188 732.386719 759.367188 724.109375 771.765625 C 719.339844 778.902344 713.882812 782.695312 707.894531 783.027344 C 707.609375 783.042969 707.324219 783.050781 707.035156 783.050781 Z M 502.609375 685.554688 C 493.046875 685.554688 483.769531 689.507812 478.648438 698.878906 C 472.035156 710.980469 472.066406 726.496094 478.726562 741.449219 C 485.695312 757.101562 498.800781 768.902344 512.929688 772.25 C 526.820312 775.550781 542.429688 771.109375 551.777344 761.207031 C 563.734375 748.539062 562.253906 728.324219 559.628906 712.125 C 558.96875 708.050781 560.132812 704.222656 562.835938 701.617188 C 565.429688 699.101562 569.144531 698.097656 573.015625 698.863281 C 576.890625 699.625 580.972656 700.472656 585.425781 701.441406 C 585.765625 699.421875 586.140625 697.492188 586.558594 695.601562 C 588.375 683.421875 592.628906 671.773438 598.859375 661.910156 C 604.679688 652.699219 612.675781 644.246094 622.042969 637.691406 C 621.953125 637.753906 621.859375 637.816406 621.769531 637.878906 C 616.375 641.546875 610.960938 645.175781 605.550781 648.804688 L 598.972656 653.222656 C 594.09375 656.507812 589.222656 659.820312 584.355469 663.132812 C 573.589844 670.457031 562.457031 678.039062 551.300781 685.175781 C 543.140625 690.398438 535.804688 692.605469 529.484375 691.777344 C 526.035156 691.773438 522.507812 690.875 517.757812 688.789062 C 513.035156 686.710938 507.78125 685.554688 502.609375 685.554688 Z M 610.347656 807.578125 L 612.316406 810.574219 C 619.109375 820.917969 627.277344 829.621094 636.585938 836.449219 C 659.566406 853.300781 689.589844 857.726562 713.074219 847.71875 C 733.46875 839.027344 749.492188 819.183594 755.949219 794.625 L 757.046875 790.429688 L 760.683594 792.789062 C 772.011719 800.136719 785.191406 804.09375 798.804688 804.242188 C 821.582031 804.445312 844.007812 793.816406 860.175781 774.972656 C 862.78125 771.933594 865.261719 768.65625 867.765625 764.953125 L 873.261719 756.816406 L 873.496094 766.632812 C 873.757812 777.652344 874.085938 791.308594 875.875 804.117188 C 876.792969 805.164062 877.761719 806.171875 878.757812 807.121094 C 883.871094 809.992188 890.675781 811.605469 896.6875 813.035156 C 899.46875 813.695312 902.089844 814.320312 904.511719 815.042969 C 916.820312 818.703125 929.3125 822.550781 941.390625 826.277344 C 965.574219 833.734375 990.578125 841.441406 1015.351562 848.011719 C 1022.210938 849.832031 1026.15625 849.300781 1028.96875 846.191406 C 1033.125 841.59375 1035.9375 834.066406 1038.414062 827.429688 C 1039.324219 824.988281 1040.1875 822.683594 1041.097656 820.523438 C 1048.847656 802.222656 1055.78125 783.015625 1061.722656 763.449219 C 1061.910156 762.84375 1061.683594 762.027344 1061.1875 761.460938 C 1061.085938 761.34375 1060.71875 760.984375 1060.382812 761.03125 C 1040.703125 764.523438 1012.402344 766.574219 987.429688 768.386719 C 969.050781 769.71875 951.6875 770.976562 940.933594 772.597656 L 936.449219 773.269531 L 937.402344 768.835938 C 954.140625 691.121094 974.441406 613.472656 997.738281 538.046875 C 997.945312 537.367188 997.886719 536.808594 997.550781 536.289062 C 997.03125 535.5 995.953125 534.902344 994.785156 534.765625 C 978.125 532.796875 960.390625 533.449219 937.296875 536.871094 C 920.660156 539.335938 903.089844 542.421875 887.273438 548.21875 C 880.667969 550.640625 875.261719 553.613281 871.191406 557.054688 C 868.253906 566.328125 867.640625 577.429688 867.441406 586.140625 L 867.300781 592.273438 L 862.414062 588.566406 C 858.871094 585.875 855.011719 583.476562 850.960938 581.425781 C 831.03125 571.355469 808.398438 569.269531 788.863281 575.722656 C 767.4375 582.789062 749.535156 599.535156 738.441406 622.871094 C 732.765625 634.824219 728.878906 648.460938 726.570312 664.574219 L 725.484375 672.140625 L 720.945312 665.988281 C 709.160156 650.019531 696.195312 639.535156 681.316406 633.945312 C 650.871094 622.503906 619.457031 641.039062 604.160156 665.261719 C 598.375 674.421875 594.429688 685.269531 592.742188 696.632812 L 592.703125 696.851562 C 592.085938 699.636719 591.5625 702.519531 591.105469 705.660156 L 590.625 709 L 587.332031 708.269531 C 581.636719 707.019531 576.554688 705.949219 571.800781 705.011719 C 569.949219 704.648438 568.308594 705.042969 567.191406 706.121094 C 565.992188 707.28125 565.488281 709.101562 565.816406 711.121094 C 568.671875 728.742188 570.179688 750.84375 556.335938 765.507812 C 545.507812 776.984375 527.480469 782.140625 511.480469 778.351562 C 495.25 774.503906 480.863281 761.660156 472.996094 744 C 465.535156 727.25 465.589844 709.703125 473.148438 695.867188 C 482.847656 678.113281 504.199219 675.980469 520.28125 683.046875 C 524.273438 684.800781 527.097656 685.496094 529.660156 685.507812 L 529.90625 685.503906 L 530.148438 685.539062 C 534.914062 686.234375 541.0625 684.28125 547.921875 679.894531 C 559.003906 672.804688 570.101562 665.253906 580.828125 657.949219 C 585.707031 654.628906 590.582031 651.308594 595.476562 648.019531 L 602.054688 643.601562 C 607.457031 639.976562 612.863281 636.351562 618.242188 632.695312 C 623.898438 628.855469 627.609375 625.929688 627.714844 620.445312 C 627.824219 614.542969 624.082031 608.3125 620.777344 602.824219 L 619.949219 601.441406 C 616.257812 595.25 611.835938 589.03125 606.804688 582.953125 C 569.753906 538.191406 485.742188 526.019531 440.34375 558.835938 C 439.761719 559.257812 439.191406 559.949219 438.582031 560.6875 C 438.261719 561.074219 437.945312 561.460938 437.613281 561.832031 L 437.289062 562.140625 C 432.179688 566.414062 427.5 571.265625 423.390625 576.558594 C 406.363281 598.46875 398.355469 622.527344 397.421875 654.5625 C 397.019531 668.4375 397.921875 683.246094 400.355469 702.570312 C 402.136719 716.742188 407.195312 735.179688 414.242188 753.160156 C 432.890625 800.777344 478.28125 834.769531 527.191406 837.75 C 556.316406 839.53125 584.882812 829.644531 607.640625 809.925781 Z M 686.191406 859.261719 C 667.832031 859.261719 648.765625 853.15625 632.882812 841.503906 C 623.859375 834.886719 615.855469 826.628906 609.058594 816.933594 C 585.511719 836.21875 556.441406 845.820312 526.808594 844.007812 C 475.511719 840.882812 427.925781 805.292969 408.402344 755.449219 C 401.175781 737.003906 395.976562 718.015625 394.132812 703.351562 C 391.660156 683.695312 390.742188 668.59375 391.15625 654.382812 C 392.125 620.929688 400.542969 595.738281 418.4375 572.710938 C 422.777344 567.128906 427.703125 562.007812 433.085938 557.488281 C 433.3125 557.226562 433.527344 556.964844 433.742188 556.699219 C 434.539062 555.738281 435.4375 554.648438 436.671875 553.753906 C 459.398438 537.324219 492.3125 530.667969 526.976562 535.484375 C 561.929688 540.34375 592.785156 556.1875 611.632812 578.953125 C 616.871094 585.277344 621.484375 591.765625 625.339844 598.230469 L 626.152344 599.589844 C 629.703125 605.503906 634.128906 612.855469 633.980469 620.566406 C 633.828125 628.824219 628.351562 633.324219 623.339844 636.804688 C 640.570312 625.226562 662.210938 620.066406 683.523438 628.074219 C 697.6875 633.398438 710.171875 642.734375 721.519531 656.523438 C 723.988281 642.832031 727.691406 630.882812 732.777344 620.179688 C 744.609375 595.285156 763.832031 577.378906 786.898438 569.769531 C 808 562.800781 832.382812 565.011719 853.789062 575.832031 C 856.398438 577.152344 858.933594 578.609375 861.371094 580.183594 C 861.765625 571.914062 862.75 562.480469 865.511719 554.257812 L 865.773438 553.464844 L 866.398438 552.914062 C 871.191406 548.65625 877.308594 545.195312 885.113281 542.332031 C 901.457031 536.339844 919.410156 533.183594 936.375 530.671875 C 960.042969 527.164062 978.28125 526.503906 995.519531 528.535156 C 998.546875 528.894531 1001.269531 530.515625 1002.800781 532.867188 C 1004.15625 534.945312 1004.484375 537.441406 1003.726562 539.898438 C 980.921875 613.734375 960.996094 689.707031 944.480469 765.785156 C 955.4375 764.417969 970.816406 763.304688 986.976562 762.132812 C 1011.792969 760.332031 1039.925781 758.292969 1059.28125 754.859375 C 1061.675781 754.433594 1064.144531 755.34375 1065.871094 757.300781 C 1067.839844 759.507812 1068.546875 762.566406 1067.71875 765.269531 C 1061.722656 785.046875 1054.703125 804.460938 1046.878906 822.96875 C 1046.015625 825.003906 1045.179688 827.246094 1044.289062 829.621094 C 1041.617188 836.785156 1038.585938 844.90625 1033.621094 850.390625 C 1027.832031 856.792969 1019.960938 855.722656 1013.742188 854.070312 C 988.851562 847.46875 963.785156 839.742188 939.542969 832.265625 C 927.476562 828.546875 915 824.703125 902.722656 821.046875 C 900.472656 820.378906 897.929688 819.777344 895.242188 819.136719 C 888.683594 817.578125 881.25 815.816406 875.308594 812.375 L 874.996094 812.195312 L 874.738281 811.953125 C 873.253906 810.558594 871.828125 809.054688 870.503906 807.476562 L 869.929688 806.796875 L 869.800781 805.914062 C 868.335938 795.882812 867.78125 785.40625 867.476562 775.976562 C 866.636719 777.027344 865.792969 778.050781 864.933594 779.050781 C 847.558594 799.3125 823.414062 810.753906 798.738281 810.511719 C 785.347656 810.363281 772.339844 806.828125 760.859375 800.238281 C 753.277344 824.796875 736.558594 844.527344 715.53125 853.484375 C 706.417969 857.371094 696.414062 859.261719 686.191406 859.261719 " fill-opacity="1" fill-rule="nonzero"/></svg>