<svg xmlns="http://www.w3.org/2000/svg" xmlns:xlink="http://www.w3.org/1999/xlink" width="2000" zoomAndPan="magnify" viewBox="0 0 1500 1499.999933" height="2000" preserveAspectRatio="xMidYMid meet" version="1.0"><defs><clipPath id="ee9efa73e8"><path d="M 89 296.210938 L 1411 296.210938 L 1411 1203.710938 L 89 1203.710938 Z M 89 296.210938 " clip-rule="nonzero"/></clipPath><clipPath id="425194543d"><path d="M 88.9375 296.210938 L 1411.1875 296.210938 L 1411.1875 1203.710938 L 88.9375 1203.710938 Z M 88.9375 296.210938 " clip-rule="nonzero"/></clipPath></defs><g clip-path="url(#ee9efa73e8)"><path fill="#000000" d="M 314.867188 701.019531 L 391.652344 681.828125 L 255.675781 521.882812 L 446.046875 561.867188 L 446.046875 528.28125 L 516.4375 558.671875 L 514.835938 425.917969 L 614.019531 513.886719 L 665.210938 321.949219 L 729.199219 528.277344 L 767.59375 422.714844 L 801.1875 515.480469 L 866.777344 296.363281 L 893.972656 499.492188 L 964.359375 453.109375 L 969.160156 533.082031 L 1068.34375 443.511719 L 1068.34375 555.472656 L 1279.503906 438.714844 L 1154.722656 611.449219 L 1231.511719 608.25 L 1199.515625 694.621094 L 1410.675781 731.40625 L 1185.109375 796.984375 L 1258.695312 872.160156 L 1156.3125 907.347656 C 1156.3125 907.347656 1247.5 1078.484375 1241.097656 1078.484375 C 1234.699219 1078.484375 1105.121094 1016.105469 1105.121094 1016.105469 L 1138.714844 1203.246094 L 1007.539062 1016.105469 L 993.140625 1094.476562 L 925.953125 1025.703125 L 909.953125 1163.253906 L 841.164062 1040.097656 L 805.972656 1088.078125 L 764.378906 1028.898438 L 671.59375 1150.457031 L 655.597656 1041.695312 L 535.617188 1081.679688 L 543.617188 992.113281 C 543.617188 992.113281 393.238281 1129.664062 394.835938 1120.070312 C 396.4375 1110.472656 434.832031 923.335938 434.832031 923.335938 L 314.851562 953.726562 C 314.851562 953.726562 407.636719 849.761719 399.636719 846.5625 C 391.636719 843.363281 89.285156 812.972656 89.285156 812.972656 C 89.285156 812.972656 385.230469 745.796875 378.832031 742.597656 C 372.4375 739.402344 310.046875 704.210938 314.84375 701.015625 Z M 314.867188 701.019531 " fill-opacity="1" fill-rule="nonzero"/></g><g clip-path="url(#425194543d)"><path stroke-linecap="butt" transform="matrix(1.480683, 0, 0, 1.480424, 169.292479, 306.399242)" fill="none" stroke-linejoin="miter" d="M 98.315916 266.558955 L 150.173845 253.595503 L 58.340171 145.555302 L 186.909952 172.564033 L 186.909952 149.877332 L 234.449245 170.405657 L 233.367608 80.732765 L 300.352635 140.154084 L 334.925467 10.503732 L 378.140848 149.874694 L 404.071131 78.569111 L 426.75914 141.230633 L 471.056158 -6.779112 L 489.422893 130.430835 L 536.959548 99.100074 L 540.201823 153.120174 L 607.18685 92.617029 L 607.18685 168.244641 L 749.796815 89.376825 L 665.524052 206.055809 L 717.38462 203.894794 L 695.77561 262.236925 L 838.385575 287.084641 L 686.046148 331.381493 L 735.74344 382.16139 L 666.597776 405.929917 C 666.597776 405.929917 728.182529 521.529713 723.858617 521.529713 C 719.537342 521.529713 632.024943 479.393876 632.024943 479.393876 L 654.712952 605.804025 L 566.121554 479.393876 L 556.397368 532.33215 L 511.02135 485.876922 L 500.215526 578.790017 L 453.757871 495.60017 L 429.990862 528.01012 L 401.899942 488.035298 L 339.236189 570.145956 L 328.433003 496.679359 L 247.402515 523.68809 L 252.805427 463.187582 C 252.805427 463.187582 151.24493 556.100678 152.323929 549.620271 C 153.405567 543.137226 179.335851 416.729716 179.335851 416.729716 L 98.305363 437.25804 C 98.305363 437.25804 160.969116 367.031645 155.566204 364.87063 C 150.163292 362.709615 -54.034064 342.181291 -54.034064 342.181291 C -54.034064 342.181291 145.836742 296.805251 141.515467 294.644236 C 137.196831 292.485859 95.06045 268.714693 98.300087 266.556317 Z M 98.315916 266.558955 " stroke="#000000" stroke-width="1" stroke-opacity="1" stroke-miterlimit="4"/></g><path stroke-linecap="butt" transform="matrix(1.480683, 0, 0, 1.480424, 169.292479, 306.399242)" fill-opacity="1" fill="#ffffff" fill-rule="nonzero" stroke-linejoin="miter" d="M 237.219293 200.839293 C 218.752309 200.760135 195.212181 204.971344 165.8444 215.24606 L 222.564422 431.864737 C 278.287227 404.882392 317.550673 330.666431 251.188247 295.704954 C 301.888033 281.791605 317.249925 201.177034 237.219293 200.831377 Z M 205.814867 241.151856 L 246.874887 241.151856 C 252.641863 247.439644 254.448989 255.875255 245.439739 267.213328 C 241.247733 272.487894 238.738862 271.445646 233.375522 274.651548 C 208.859282 289.306344 198.871281 245.911894 205.814867 241.151856 Z M 239.002676 336.996438 C 267.014452 335.938358 267.819085 378.493733 235.844822 378.090027 L 223.094688 341.402903 C 229.112287 338.513634 234.417588 337.167947 239.002676 336.996438 Z M 239.002676 336.996438 " stroke="#ffffff" stroke-width="1" stroke-opacity="1" stroke-miterlimit="4"/><path stroke-linecap="butt" transform="matrix(1.480683, 0, 0, 1.480424, 169.292479, 306.399242)" fill-opacity="1" fill="#ffffff" fill-rule="nonzero" stroke-linejoin="miter" d="M 332.218735 221.190831 C 315.025973 292.206167 305.130307 368.699242 293.314076 443.749001 L 312.253287 452.374591 C 320.436799 456.116129 323.243781 438.155164 326.282918 431.313269 C 328.235142 425.131025 332.84925 424.276117 337.626923 423.751036 L 347.345833 425.376415 C 353.358155 427.059843 357.887842 426.730017 360.845198 439.437525 L 366.250748 460.498847 L 394.346945 461.031844 C 394.697818 455.947258 395.486622 450.896974 394.972184 445.936402 C 387.282005 372.124147 363.636351 301.987465 350.065756 229.275508 L 332.221373 221.182915 Z M 341.594686 343.278949 C 344.960954 343.197153 348.345688 346.980908 348.970927 355.155297 C 349.139768 357.377 354.563785 383.649561 356.001572 385.937229 C 359.217465 391.048201 355.911875 396.747582 352.751383 396.747582 L 339.252017 396.747582 C 328.403983 396.747582 331.939092 390.597 332.218735 386.467588 L 334.376734 354.6223 C 334.870066 347.318649 338.228419 343.360746 341.594686 343.278949 Z M 341.594686 343.278949 " stroke="#ffffff" stroke-width="1" stroke-opacity="1" stroke-miterlimit="4"/><path stroke-linecap="butt" transform="matrix(1.480683, 0, 0, 1.480424, 169.292479, 306.399242)" fill-opacity="1" fill="#ffffff" fill-rule="nonzero" stroke-linejoin="miter" d="M 375.98021 183.369109 L 433.241052 408.090932 L 455.388242 411.331136 C 454.691773 407.726805 465.33667 411.141156 460.318926 397.272664 C 457.667595 362.617264 443.933435 318.72148 433.241052 277.364031 L 490.501893 398.362406 C 490.501893 398.362406 512.786266 407.676672 517.511176 404.845452 C 524.584031 400.607857 531.292822 189.965614 530.477637 189.846877 C 522.790095 188.034157 518.344828 184.677855 507.41765 184.279426 L 499.144441 192.546167 L 496.983804 322.737432 L 420.277229 182.287282 C 405.142216 180.809665 389.738114 177.970529 375.98021 183.36647 Z M 375.98021 183.369109 " stroke="#ffffff" stroke-width="1" stroke-opacity="1" stroke-miterlimit="4"/><path stroke-linecap="butt" transform="matrix(1.480683, 0, 0, 1.480424, 169.292479, 306.399242)" fill-opacity="1" fill="#ffffff" fill-rule="nonzero" stroke-linejoin="miter" d="M 627.590229 295.649543 C 637.103364 292.488498 650.24658 295.383044 655.855267 285.717845 C 666.270646 257.550768 588.973128 167.318492 551.954739 276.551341 C 514.938989 385.78419 597.370329 505.442156 635.610177 398.781944 C 641.90478 381.222047 645.922668 343.775006 645.922668 343.775006 L 603.522473 343.395048 L 601.229929 359.820346 C 606.7753 362.311186 609.827629 362.833629 613.452434 372.042351 C 614.30983 432.429398 561.605057 402.710823 571.67484 315.119788 C 577.15162 267.479827 619.219409 230.425938 627.584953 295.646904 Z M 627.590229 295.649543 " stroke="#ffffff" stroke-width="1" stroke-opacity="1" stroke-miterlimit="4"/></svg>