<svg xmlns="http://www.w3.org/2000/svg" xmlns:xlink="http://www.w3.org/1999/xlink" width="2000" zoomAndPan="magnify" viewBox="0 0 1500 1499.999933" height="2000" preserveAspectRatio="xMidYMid meet" version="1.0"><defs><clipPath id="f5b457e2e4"><path d="M 842 557 L 1411.1875 557 L 1411.1875 1050 L 842 1050 Z M 842 557 " clip-rule="nonzero"/></clipPath></defs><path fill="#ffe02e" d="M 227.621094 447.804688 C 227.621094 447.804688 378.695312 527.527344 456.273438 483.734375 C 561.402344 424.398438 509.410156 256.230469 509.410156 256.230469 C 509.410156 256.230469 577.171875 356.082031 665.214844 354.765625 C 755.960938 353.414062 778.226562 247.035156 778.226562 247.035156 C 778.226562 247.035156 796.179688 369.21875 862.328125 391.550781 C 946.90625 420.109375 1039.730469 333.746094 1039.730469 333.746094 C 1039.730469 333.746094 980.273438 451.550781 1034.476562 509.792969 C 1088.675781 568.03125 1239.136719 521.53125 1239.136719 521.53125 C 1239.136719 521.53125 1150.5 668.710938 1219.519531 776.179688 C 1277.183594 865.964844 1391.945312 920.914062 1391.945312 920.914062 C 1391.945312 920.914062 1216.847656 924.289062 1177.425781 997.878906 C 1135.140625 1076.816406 1160.507812 1165.371094 1160.507812 1165.371094 C 1160.507812 1165.371094 1014.90625 1081.683594 937.109375 1142.246094 C 859.316406 1202.808594 882.503906 1321.5625 882.503906 1321.5625 C 882.503906 1321.5625 800.882812 1196.613281 724.363281 1198.523438 C 647.84375 1200.4375 621.847656 1262.589844 621.847656 1262.589844 C 621.847656 1262.589844 602.570312 1197.25 542.632812 1173.660156 C 482.691406 1150.074219 402.445312 1230.542969 402.445312 1230.542969 C 402.445312 1230.542969 448.390625 1123.25 398.523438 1068.472656 C 351.371094 1016.675781 234.644531 1041.695312 234.644531 1041.695312 C 234.644531 1041.695312 353.25 936.507812 330.929688 848.535156 C 308.613281 760.558594 211.6875 710.195312 211.6875 710.195312 C 211.6875 710.195312 285.019531 698.082031 305.421875 634.96875 C 325.828125 571.855469 227.621094 447.804688 227.621094 447.804688 Z M 227.621094 447.804688 " fill-opacity="1" fill-rule="nonzero"/><path fill="#303030" d="M 882.503906 1327.050781 C 880.691406 1327.050781 878.949219 1326.15625 877.90625 1324.5625 C 877.109375 1323.347656 798.25 1203.988281 726.117188 1203.988281 C 725.578125 1203.988281 725.039062 1203.992188 724.5 1204.011719 C 652.371094 1205.8125 627.15625 1264.121094 626.914062 1264.707031 C 626.015625 1266.851562 623.808594 1268.179688 621.550781 1268.070312 C 619.234375 1267.945312 617.246094 1266.371094 616.582031 1264.144531 C 616.394531 1263.519531 597.257812 1201.054688 540.613281 1178.769531 C 484.730469 1156.773438 407.109375 1233.636719 406.328125 1234.417969 C 404.476562 1236.277344 401.554688 1236.566406 399.375 1235.089844 C 397.1875 1233.617188 396.359375 1230.804688 397.394531 1228.382812 C 397.84375 1227.34375 441.351562 1123.679688 394.457031 1072.171875 C 349.949219 1023.265625 236.9375 1046.832031 235.792969 1047.070312 C 233.371094 1047.578125 230.871094 1046.398438 229.742188 1044.179688 C 228.617188 1041.953125 229.136719 1039.25 230.996094 1037.597656 C 232.160156 1036.5625 346.839844 933.589844 325.601562 849.890625 C 304.144531 765.269531 210.101562 715.5625 209.15625 715.070312 C 207.058594 713.980469 205.894531 711.675781 206.265625 709.339844 C 206.632812 707.007812 208.457031 705.171875 210.785156 704.78125 C 211.484375 704.664062 281.089844 692.378906 300.195312 633.28125 C 319.464844 573.683594 224.28125 452.429688 223.316406 451.210938 C 221.707031 449.179688 221.742188 446.292969 223.402344 444.300781 C 225.0625 442.304688 227.890625 441.742188 230.183594 442.953125 C 231.671875 443.738281 379.488281 520.777344 453.574219 478.953125 C 553.6875 422.449219 504.671875 259.492188 504.164062 257.855469 C 503.363281 255.253906 504.578125 252.460938 507.03125 251.289062 C 509.476562 250.105469 512.425781 250.902344 513.953125 253.148438 C 514.609375 254.117188 580.265625 349.289062 663.503906 349.289062 C 664.050781 349.289062 664.585938 349.285156 665.128906 349.277344 C 750.355469 348 771.972656 250.078125 772.847656 245.910156 C 773.398438 243.304688 775.679688 241.457031 778.390625 241.550781 C 781.050781 241.632812 783.269531 243.605469 783.652344 246.238281 C 783.828125 247.425781 801.902344 365.359375 864.085938 386.347656 C 944.621094 413.535156 1035.089844 330.570312 1035.992188 329.726562 C 1037.933594 327.914062 1040.90625 327.761719 1043.027344 329.359375 C 1045.152344 330.953125 1045.832031 333.84375 1044.632812 336.214844 C 1044.054688 337.359375 987.539062 451.296875 1038.492188 506.050781 C 1089.722656 561.09375 1236.039062 516.746094 1237.507812 516.285156 C 1239.683594 515.625 1242.054688 516.355469 1243.453125 518.148438 C 1244.859375 519.941406 1245.007812 522.410156 1243.835938 524.359375 C 1242.964844 525.800781 1157.789062 669.902344 1224.140625 773.207031 C 1280.308594 860.671875 1393.1875 915.417969 1394.320312 915.960938 C 1396.617188 917.058594 1397.855469 919.585938 1397.316406 922.070312 C 1396.773438 924.558594 1394.601562 926.347656 1392.054688 926.398438 C 1390.335938 926.433594 1219.714844 930.558594 1182.261719 1000.46875 C 1141.570312 1076.433594 1165.535156 1162.992188 1165.785156 1163.859375 C 1166.398438 1166.007812 1165.648438 1168.316406 1163.886719 1169.691406 C 1162.125 1171.070312 1159.703125 1171.246094 1157.769531 1170.128906 C 1156.347656 1169.304688 1014.453125 1088.988281 940.480469 1146.578125 C 866.3125 1204.316406 887.667969 1319.355469 887.890625 1320.507812 C 888.394531 1323.085938 887 1325.660156 884.566406 1326.644531 C 883.894531 1326.917969 883.195312 1327.050781 882.503906 1327.050781 Z M 726.109375 1193.015625 C 786.808594 1193.015625 848.386719 1265.765625 874.382812 1300.582031 C 871.5 1262.53125 873.960938 1184.453125 933.738281 1137.921875 C 1001.867188 1084.875 1116.582031 1136.4375 1152.410156 1154.800781 C 1146.980469 1127.492188 1138.515625 1058.886719 1172.585938 995.289062 C 1205.292969 934.230469 1323.5625 919.792969 1371.59375 916.429688 C 1336.667969 897.015625 1259.589844 848.730469 1214.902344 779.148438 C 1155.398438 686.5 1208.378906 567.800781 1227.972656 530.359375 C 1189.753906 540.328125 1077.484375 564.0625 1030.453125 513.535156 C 988.046875 467.96875 1010.757812 390.113281 1025.496094 352.585938 C 993.847656 376.539062 925.621094 418.71875 860.570312 396.753906 C 808.820312 379.28125 785.609375 306.222656 777.015625 269.273438 C 764.800781 301.46875 733.417969 359.238281 665.292969 360.253906 C 599.636719 361.410156 546 309.371094 520.609375 279.5625 C 530.503906 329.6875 541.792969 441.773438 458.972656 488.515625 C 396.152344 523.984375 289.929688 482.796875 245.433594 462.527344 C 272.09375 499.875 327.136719 585.65625 310.648438 636.660156 C 294.75 685.820312 249.285156 705.363281 226.238281 712.277344 C 253.402344 729.09375 318.113281 775.667969 336.253906 847.1875 C 354.785156 920.242188 282.242188 1002.40625 251.398438 1033.304688 C 286.726562 1028.425781 364.765625 1023.234375 402.589844 1064.777344 C 441.066406 1107.046875 426.007812 1177.035156 415.027344 1211.84375 C 442.320312 1189.125 498.300781 1150.332031 544.644531 1168.554688 C 591.429688 1186.964844 614.203125 1229.007812 622.84375 1249.484375 C 634.753906 1230.75 665.339844 1194.507812 724.230469 1193.03125 C 724.855469 1193.023438 725.484375 1193.015625 726.109375 1193.015625 Z M 726.109375 1193.015625 " fill-opacity="1" fill-rule="nonzero"/><path fill="#303030" d="M 1101.148438 416.367188 C 1093.347656 419.664062 1091.710938 439.347656 1107.027344 436.613281 C 1122.34375 433.878906 1118.398438 409.085938 1101.148438 416.367188 Z M 1101.148438 416.367188 " fill-opacity="1" fill-rule="nonzero"/><path fill="#303030" d="M 588.664062 501.03125 C 580.859375 504.324219 579.222656 524.011719 594.539062 521.273438 C 609.855469 518.539062 605.910156 493.746094 588.664062 501.03125 Z M 588.664062 501.03125 " fill-opacity="1" fill-rule="nonzero"/><path fill="#303030" d="M 465.679688 1286.460938 C 457.875 1289.753906 456.242188 1309.441406 471.558594 1306.703125 C 486.875 1303.96875 482.929688 1279.179688 465.679688 1286.460938 Z M 465.679688 1286.460938 " fill-opacity="1" fill-rule="nonzero"/><path fill="#303030" d="M 1012.410156 1024.253906 C 1004.609375 1027.546875 1002.972656 1047.230469 1018.289062 1044.496094 C 1033.605469 1041.761719 1029.660156 1016.96875 1012.410156 1024.253906 Z M 1012.410156 1024.253906 " fill-opacity="1" fill-rule="nonzero"/><path fill="#ffffff" d="M 554.449219 727.789062 C 554.449219 770.964844 539.355469 805.492188 509.167969 831.378906 C 478.972656 857.269531 441.308594 870.203125 396.167969 870.203125 C 374.480469 870.203125 355.824219 867.375 340.1875 861.707031 L 363.636719 969.253906 L 205.0625 987.125 L 166.667969 566.328125 C 187.1875 561.246094 208.925781 557.097656 231.886719 553.875 C 254.84375 550.648438 277.757812 549.035156 300.621094 549.035156 C 376.632812 549.035156 437.105469 563.394531 482.046875 592.109375 C 530.3125 623.375 554.449219 668.597656 554.449219 727.789062 Z M 411.121094 685.296875 C 411.121094 672.40625 406.140625 661.761719 396.167969 653.359375 C 386.207031 644.960938 373.601562 640.757812 358.359375 640.757812 C 351.128906 640.757812 342.332031 642.421875 331.976562 645.738281 L 331.976562 767.347656 C 357.1875 757.78125 375.945312 747.226562 388.257812 735.703125 C 403.5 721.632812 411.121094 704.839844 411.121094 685.296875 Z M 411.121094 685.296875 " fill-opacity="1" fill-rule="nonzero"/><path fill="#303030" d="M 205.0625 992.617188 C 203.804688 992.617188 202.582031 992.1875 201.59375 991.382812 C 200.453125 990.453125 199.730469 989.097656 199.59375 987.625 L 161.199219 566.824219 C 160.953125 564.128906 162.71875 561.65625 165.347656 561.003906 C 185.917969 555.90625 208.046875 551.679688 231.128906 548.4375 C 254.242188 545.191406 277.625 543.542969 300.625 543.542969 C 377.332031 543.542969 439.367188 558.328125 485.003906 587.484375 C 534.738281 619.699219 559.9375 666.894531 559.9375 727.785156 C 559.9375 772.429688 544.058594 808.6875 512.742188 835.546875 C 481.675781 862.179688 442.453125 875.691406 396.167969 875.691406 C 378.027344 875.691406 361.730469 873.714844 347.574219 869.808594 L 369.007812 968.082031 C 369.335938 969.601562 369.007812 971.1875 368.101562 972.453125 C 367.195312 973.714844 365.796875 974.535156 364.253906 974.710938 L 205.675781 992.582031 C 205.476562 992.605469 205.269531 992.617188 205.0625 992.617188 Z M 172.566406 570.542969 L 210.023438 981.046875 L 356.976562 964.480469 L 334.820312 862.882812 C 334.394531 860.925781 335.066406 858.898438 336.570312 857.582031 C 338.074219 856.261719 340.183594 855.863281 342.054688 856.550781 C 357 861.96875 375.203125 864.714844 396.164062 864.714844 C 439.75 864.714844 476.566406 852.097656 505.589844 827.210938 C 534.363281 802.539062 548.953125 769.085938 548.953125 727.789062 C 548.953125 670.859375 525.4375 626.757812 479.0625 596.71875 C 435.25 568.726562 375.203125 554.523438 300.621094 554.523438 C 278.132812 554.523438 255.265625 556.136719 232.652344 559.316406 C 211.652344 562.257812 191.460938 566.035156 172.566406 570.542969 Z M 331.976562 772.839844 C 330.878906 772.839844 329.789062 772.507812 328.859375 771.871094 C 327.375 770.84375 326.488281 769.15625 326.488281 767.347656 L 326.488281 645.738281 C 326.488281 643.355469 328.027344 641.242188 330.300781 640.511719 C 341.15625 637.03125 350.597656 635.265625 358.359375 635.265625 C 374.859375 635.265625 388.773438 639.941406 399.707031 649.164062 C 410.921875 658.617188 416.609375 670.769531 416.609375 685.296875 C 416.609375 706.332031 408.324219 724.648438 391.980469 739.734375 C 379.21875 751.683594 359.679688 762.710938 333.925781 772.484375 C 333.296875 772.722656 332.636719 772.839844 331.976562 772.839844 Z M 337.46875 649.800781 L 337.46875 759.289062 C 358.1875 750.804688 373.992188 741.542969 384.503906 731.699219 C 398.730469 718.5625 405.632812 703.394531 405.632812 685.296875 C 405.632812 674.003906 401.378906 664.929688 392.628906 657.558594 C 383.605469 649.949219 372.394531 646.246094 358.359375 646.246094 C 352.621094 646.246094 345.605469 647.441406 337.46875 649.800781 Z M 337.46875 649.800781 " fill-opacity="1" fill-rule="nonzero"/><path fill="#ffffff" d="M 1405.644531 664.210938 L 1205.746094 1021.421875 L 1090.550781 808.382812 L 924.070312 1044.277344 L 848.453125 610.875 L 1017.867188 563.402344 L 1017.867188 795.78125 L 1094.070312 613.804688 L 1181.710938 786.699219 L 1272.28125 601.207031 Z M 1405.644531 664.210938 " fill-opacity="1" fill-rule="nonzero"/><g clip-path="url(#f5b457e2e4)"><path fill="#303030" d="M 924.070312 1049.769531 C 923.671875 1049.769531 923.269531 1049.726562 922.867188 1049.636719 C 920.703125 1049.152344 919.042969 1047.410156 918.660156 1045.222656 L 843.042969 611.816406 C 842.554688 609.042969 844.253906 606.347656 846.96875 605.589844 L 1016.386719 558.113281 C 1018.019531 557.65625 1019.808594 557.984375 1021.183594 559.023438 C 1022.554688 560.0625 1023.355469 561.679688 1023.355469 563.398438 L 1023.355469 768.453125 L 1089.003906 611.6875 C 1089.832031 609.710938 1091.730469 608.398438 1093.871094 608.320312 C 1096.023438 608.113281 1097.996094 609.414062 1098.964844 611.324219 L 1181.617188 774.375 L 1267.34375 598.800781 C 1268.660156 596.097656 1271.898438 594.953125 1274.621094 596.246094 L 1407.988281 659.246094 C 1409.363281 659.894531 1410.40625 661.085938 1410.871094 662.539062 C 1411.335938 663.988281 1411.175781 665.558594 1410.433594 666.890625 L 1210.53125 1024.097656 C 1209.558594 1025.847656 1207.636719 1027.132812 1205.703125 1026.910156 C 1203.699219 1026.894531 1201.863281 1025.789062 1200.910156 1024.03125 L 1089.929688 818.78125 L 928.554688 1047.441406 C 927.515625 1048.917969 925.828125 1049.769531 924.070312 1049.769531 Z M 854.710938 614.820312 L 927.207031 1030.3125 L 1086.0625 805.21875 C 1087.164062 803.671875 1089.003906 802.871094 1090.878906 802.902344 C 1092.773438 803.019531 1094.476562 804.101562 1095.382812 805.769531 L 1205.824219 1010.03125 L 1397.984375 666.664062 L 1274.835938 608.484375 L 1186.644531 789.109375 C 1185.730469 790.980469 1183.832031 792.171875 1181.75 792.1875 C 1181.734375 792.1875 1181.722656 792.1875 1181.710938 792.1875 C 1179.640625 792.1875 1177.746094 791.027344 1176.8125 789.183594 L 1094.546875 626.886719 L 1022.933594 797.898438 C 1021.921875 800.3125 1019.316406 801.675781 1016.785156 801.164062 C 1014.21875 800.648438 1012.375 798.398438 1012.375 795.78125 L 1012.375 570.636719 Z M 854.710938 614.820312 " fill-opacity="1" fill-rule="nonzero"/></g><path fill="#ffffff" d="M 884.527344 829.96875 C 884.527344 850.480469 881.300781 874.113281 874.851562 900.878906 C 864.488281 944.0625 848.660156 978.636719 827.367188 1004.617188 C 798.058594 1040.367188 760.636719 1058.242188 715.113281 1058.242188 C 663.910156 1058.242188 620.679688 1037.628906 585.410156 996.410156 C 550.136719 955.191406 532.503906 905.566406 532.503906 847.546875 C 532.503906 782.691406 548.914062 727.699219 581.75 682.570312 C 616.726562 634.511719 661.175781 610.480469 715.113281 610.480469 C 763.570312 610.480469 803.917969 631.871094 836.164062 674.65625 C 868.402344 717.4375 884.527344 769.210938 884.527344 829.96875 Z M 749.027344 736.191406 C 749.027344 723.109375 744.628906 711.777344 735.839844 702.203125 C 727.046875 692.628906 716.496094 687.839844 704.183594 687.839844 C 686.402344 687.839844 670.183594 694.972656 655.53125 709.230469 C 638.71875 725.640625 630.324219 746.644531 630.324219 772.234375 C 630.324219 787.082031 634.613281 799.394531 643.21875 809.15625 C 651.8125 818.925781 662.660156 823.8125 675.753906 823.8125 C 692.554688 823.8125 708.96875 814.238281 724.992188 795.089844 C 741.011719 775.949219 749.027344 756.316406 749.027344 736.191406 Z M 749.027344 736.191406 " fill-opacity="1" fill-rule="nonzero"/><path fill="#303030" d="M 715.113281 1063.730469 C 662.476562 1063.730469 617.433594 1042.28125 581.234375 999.976562 C 545.253906 957.933594 527.011719 906.648438 527.011719 847.550781 C 527.011719 781.804688 543.933594 725.210938 577.304688 679.339844 C 613.210938 630.003906 659.574219 604.988281 715.113281 604.988281 C 765.15625 604.988281 807.363281 627.316406 840.546875 671.355469 C 873.371094 714.914062 890.011719 768.277344 890.011719 829.964844 C 890.011719 850.828125 886.707031 875.117188 880.183594 902.160156 C 869.675781 945.953125 853.332031 981.597656 831.609375 1008.09375 C 801.351562 1045.011719 762.152344 1063.730469 715.113281 1063.730469 Z M 715.113281 615.96875 C 663.285156 615.96875 619.90625 639.460938 586.183594 685.796875 C 554.207031 729.753906 537.992188 784.175781 537.992188 847.550781 C 537.992188 903.957031 555.34375 952.839844 589.582031 992.839844 C 623.597656 1032.59375 665.832031 1052.753906 715.109375 1052.753906 C 758.703125 1052.753906 795.042969 1035.390625 823.117188 1001.140625 C 843.777344 975.929688 859.390625 941.769531 869.507812 899.59375 C 875.824219 873.386719 879.03125 849.964844 879.03125 829.964844 C 879.03125 770.714844 863.132812 719.574219 831.777344 677.957031 C 800.777344 636.824219 761.527344 615.96875 715.113281 615.96875 Z M 675.753906 829.304688 C 661.066406 829.304688 648.734375 823.746094 639.09375 812.777344 C 629.628906 802.039062 624.828125 788.398438 624.828125 772.234375 C 624.828125 745.21875 633.867188 722.703125 651.695312 705.304688 C 667.351562 690.070312 685.007812 682.351562 704.183594 682.351562 C 718.035156 682.351562 730.042969 687.78125 739.882812 698.488281 C 749.589844 709.0625 754.515625 721.75 754.515625 736.195312 C 754.515625 757.546875 745.996094 778.546875 729.203125 798.613281 C 712.15625 818.980469 694.175781 829.304688 675.753906 829.304688 Z M 704.183594 693.328125 C 687.742188 693.328125 673.078125 699.816406 659.363281 713.164062 C 643.515625 728.628906 635.8125 747.953125 635.8125 772.234375 C 635.8125 785.839844 639.582031 796.726562 647.332031 805.527344 C 654.910156 814.136719 664.207031 818.324219 675.753906 818.324219 C 690.769531 818.324219 705.917969 809.320312 720.78125 791.566406 C 735.878906 773.535156 743.535156 754.898438 743.535156 736.195312 C 743.535156 724.421875 739.695312 714.519531 731.796875 705.917969 C 724.011719 697.445312 714.984375 693.328125 704.183594 693.328125 Z M 704.183594 693.328125 " fill-opacity="1" fill-rule="nonzero"/><path fill="#303030" d="M 926.980469 228.671875 L 971.867188 159.96875 C 973.796875 157.011719 969.757812 153.839844 967.34375 156.410156 L 878.828125 250.601562 C 877.285156 252.246094 878.132812 254.945312 880.339844 255.40625 L 925.378906 264.875 C 927.191406 265.257812 928.183594 267.214844 927.414062 268.902344 L 887.472656 356.671875 C 886.015625 359.878906 890.472656 362.410156 892.480469 359.515625 L 972.824219 243.773438 C 974.046875 242.015625 972.992188 239.582031 970.871094 239.269531 L 928.980469 233.109375 C 926.894531 232.800781 925.828125 230.433594 926.980469 228.671875 Z M 926.980469 228.671875 " fill-opacity="1" fill-rule="nonzero"/><path fill="#303030" d="M 1224.6875 371.621094 L 1291.636719 324.148438 C 1294.515625 322.105469 1291.921875 317.671875 1288.730469 319.179688 L 1171.84375 374.382812 C 1169.804688 375.347656 1169.605469 378.167969 1171.488281 379.410156 L 1209.921875 404.722656 C 1211.46875 405.742188 1211.671875 407.929688 1210.34375 409.214844 L 1141 476.242188 C 1138.46875 478.691406 1141.6875 482.679688 1144.617188 480.722656 L 1261.800781 402.476562 C 1263.582031 401.285156 1263.492188 398.636719 1261.632812 397.570312 L 1224.917969 376.488281 C 1223.089844 375.433594 1222.964844 372.84375 1224.6875 371.621094 Z M 1224.6875 371.621094 " fill-opacity="1" fill-rule="nonzero"/><path fill="#303030" d="M 272.648438 1178.449219 L 333.882812 1127.535156 C 336.515625 1125.347656 333.675781 1121.25 330.699219 1122.945312 L 221.734375 1185.054688 C 219.832031 1186.136719 219.851562 1188.882812 221.761719 1189.941406 L 260.832031 1211.570312 C 262.398438 1212.4375 262.761719 1214.539062 261.570312 1215.882812 L 199.480469 1285.890625 C 197.210938 1288.445312 200.621094 1292.066406 203.308594 1289.957031 L 310.851562 1205.535156 C 312.488281 1204.25 312.203125 1201.691406 310.324219 1200.800781 L 273.234375 1183.136719 C 271.386719 1182.253906 271.074219 1179.757812 272.648438 1178.449219 Z M 272.648438 1178.449219 " fill-opacity="1" fill-rule="nonzero"/><path fill="#303030" d="M 1013.902344 1232.507812 L 975.792969 1161.742188 C 974.152344 1158.699219 969.53125 1160.6875 970.613281 1163.972656 L 1010.238281 1284.1875 C 1010.929688 1286.28125 1013.648438 1286.816406 1015.082031 1285.136719 L 1044.308594 1250.832031 C 1045.484375 1249.453125 1047.632812 1249.515625 1048.726562 1250.964844 L 1105.554688 1326.402344 C 1107.632812 1329.15625 1111.894531 1326.507812 1110.34375 1323.429688 L 1048.355469 1200.152344 C 1047.414062 1198.277344 1044.828125 1198.042969 1043.5625 1199.722656 L 1018.65625 1232.867188 C 1017.417969 1234.515625 1014.882812 1234.328125 1013.902344 1232.507812 Z M 1013.902344 1232.507812 " fill-opacity="1" fill-rule="nonzero"/><path fill="#303030" d="M 312.304688 316.546875 L 272.476562 230.324219 C 270.765625 226.617188 265.167969 228.625 266.207031 232.574219 L 304.242188 377.238281 C 304.90625 379.761719 308.074219 380.585938 309.886719 378.707031 L 346.84375 340.359375 C 348.328125 338.820312 350.863281 339.050781 352.042969 340.835938 L 413.613281 433.921875 C 415.863281 437.320312 421.082031 434.507812 419.480469 430.761719 L 355.285156 280.875 C 354.308594 278.59375 351.277344 278.132812 349.664062 280.019531 L 317.886719 317.3125 C 316.304688 319.167969 313.328125 318.761719 312.304688 316.546875 Z M 312.304688 316.546875 " fill-opacity="1" fill-rule="nonzero"/><path fill="#303030" d="M 879.714844 506.789062 C 871.910156 510.082031 870.277344 529.769531 885.59375 527.03125 C 900.910156 524.296875 896.964844 499.503906 879.714844 506.789062 Z M 879.714844 506.789062 " fill-opacity="1" fill-rule="nonzero"/><path fill="#303030" d="M 1077.214844 1024.253906 C 1069.410156 1027.546875 1067.773438 1047.230469 1083.089844 1044.496094 C 1098.410156 1041.761719 1094.464844 1016.96875 1077.214844 1024.253906 Z M 1077.214844 1024.253906 " fill-opacity="1" fill-rule="nonzero"/><path fill="#303030" d="M 724.277344 1322.898438 C 716.472656 1326.191406 714.839844 1345.875 730.15625 1343.140625 C 745.472656 1340.40625 741.527344 1315.617188 724.277344 1322.898438 Z M 724.277344 1322.898438 " fill-opacity="1" fill-rule="nonzero"/><path fill="#303030" d="M 1277.457031 1099.953125 C 1269.652344 1103.25 1268.015625 1122.933594 1283.335938 1120.199219 C 1298.652344 1117.460938 1294.707031 1092.671875 1277.457031 1099.953125 Z M 1277.457031 1099.953125 " fill-opacity="1" fill-rule="nonzero"/><path fill="#303030" d="M 567.429688 1069.214844 C 559.625 1072.511719 557.988281 1092.195312 573.304688 1089.460938 C 588.625 1086.722656 584.679688 1061.933594 567.429688 1069.214844 Z M 567.429688 1069.214844 " fill-opacity="1" fill-rule="nonzero"/><path fill="#303030" d="M 578.042969 413.59375 C 570.242188 416.890625 568.605469 436.574219 583.921875 433.839844 C 599.238281 431.101562 595.296875 406.3125 578.042969 413.59375 Z M 578.042969 413.59375 " fill-opacity="1" fill-rule="nonzero"/><path fill="#303030" d="M 829.355469 1125.453125 C 821.550781 1128.746094 819.917969 1148.429688 835.234375 1145.695312 C 850.550781 1142.960938 846.609375 1118.167969 829.355469 1125.453125 Z M 829.355469 1125.453125 " fill-opacity="1" fill-rule="nonzero"/><path fill="#303030" d="M 516.632812 1003.984375 C 508.828125 1007.28125 507.195312 1026.964844 522.507812 1024.230469 C 537.828125 1021.492188 533.882812 996.703125 516.632812 1003.984375 Z M 516.632812 1003.984375 " fill-opacity="1" fill-rule="nonzero"/><path fill="#303030" d="M 625.511719 206.78125 C 617.707031 210.078125 616.074219 229.761719 631.386719 227.023438 C 646.707031 224.289062 642.761719 199.496094 625.511719 206.78125 Z M 625.511719 206.78125 " fill-opacity="1" fill-rule="nonzero"/><path fill="#303030" d="M 109.078125 882.5625 C 101.273438 885.859375 99.636719 905.542969 114.953125 902.808594 C 130.273438 900.070312 126.328125 875.277344 109.078125 882.5625 Z M 109.078125 882.5625 " fill-opacity="1" fill-rule="nonzero"/><path fill="#303030" d="M 169.425781 495.867188 C 161.621094 499.164062 159.984375 518.847656 175.304688 516.113281 C 190.621094 513.378906 186.675781 488.585938 169.425781 495.867188 Z M 169.425781 495.867188 " fill-opacity="1" fill-rule="nonzero"/><path fill="#303030" d="M 98.460938 1003.984375 C 90.65625 1007.28125 89.023438 1026.964844 104.339844 1024.230469 C 119.65625 1021.492188 115.714844 996.703125 98.460938 1003.984375 Z M 98.460938 1003.984375 " fill-opacity="1" fill-rule="nonzero"/></svg>