<svg xmlns="http://www.w3.org/2000/svg" xmlns:xlink="http://www.w3.org/1999/xlink" width="2000" zoomAndPan="magnify" viewBox="0 0 1500 1499.999933" height="2000" preserveAspectRatio="xMidYMid meet" version="1.0"><defs><clipPath id="4f27d1feeb"><path d="M 88.9375 254.203125 L 1411.1875 254.203125 L 1411.1875 1245.703125 L 88.9375 1245.703125 Z M 88.9375 254.203125 " clip-rule="nonzero"/></clipPath></defs><g clip-path="url(#4f27d1feeb)"><path fill="#ed1c24" d="M 1411.226562 689.648438 C 1330.019531 710.503906 1328.195312 727.203125 1384.152344 760.863281 C 1321.148438 759.949219 1315.917969 775.972656 1355.960938 794.855469 C 1302.285156 807.195312 1293.882812 822.40625 1340.066406 852.90625 C 1274.140625 851.828125 1262.796875 866.046875 1313.492188 897.179688 C 1237.390625 893.375 1223.347656 906.480469 1271.078125 944.226562 C 1192.75 931.417969 1176.226562 943.246094 1181.6875 1015.871094 C 1140.914062 965.5 1122.136719 975.914062 1128.214844 1019.789062 C 1082.574219 995.199219 1061.785156 1004.054688 1101.292969 1045.515625 C 1018.425781 1020.066406 995.855469 1027.210938 1070.910156 1078.503906 C 949.15625 1039.660156 925.039062 1044.957031 977.890625 1142.429688 C 887.878906 1051.390625 875.324219 1053.292969 849.507812 1164.664062 C 850.183594 1056.640625 837.585938 1058.097656 784.578125 1114.578125 C 811.621094 1060.324219 798.234375 1061.09375 766.707031 1084.78125 C 786.492188 1066.253906 788.128906 1070.671875 777.078125 1105.132812 C 787.273438 1075.613281 772.304688 1072.929688 755.488281 1074.632812 C 746.660156 1071.507812 735.988281 1072.765625 727.195312 1077.347656 C 700.84375 1091.101562 691.429688 1134.808594 691.761719 1245.109375 C 660.253906 1132.148438 638.496094 1085.773438 607.691406 1068.113281 C 597.421875 1062.214844 586.144531 1059.523438 579.601562 1066.445312 C 560.191406 1057.699219 545.515625 1058.578125 537.089844 1086.773438 C 546.359375 1052.390625 549.285156 1047.351562 561.515625 1074.679688 C 540.351562 1039.425781 528.484375 1036.546875 527.808594 1087.53125 C 505.871094 1030.515625 495.097656 1027.398438 469.644531 1088.542969 C 473.917969 1020.769531 463.523438 1017.261719 414.859375 1062.425781 C 443.09375 1009.863281 433.066406 1005.96875 387.335938 1032.40625 C 417.140625 1007.949219 411.242188 1013.824219 391.753906 1043 C 398.0625 1013.203125 388.605469 1001.160156 367.949219 998.136719 C 369.671875 989.222656 360.203125 989.324219 348.984375 997.113281 C 337.753906 1004.902344 324.777344 1020.390625 308.296875 1045.226562 C 323.855469 950.378906 307.882812 939.5625 215.421875 946.628906 C 278.058594 916.785156 264.214844 904.824219 218.605469 881.457031 C 238.839844 879.878906 227.296875 866.890625 216.859375 853.339844 C 210.859375 845.394531 205.152344 837.160156 199.785156 829.484375 C 194.421875 821.804688 189.402344 814.671875 184.640625 808.796875 C 177.070312 785.886719 170.496094 768.015625 141.167969 784.429688 C 161.601562 731.375 159.308594 712.617188 88.839844 710.957031 C 159.308594 676.542969 161.125 659.828125 105.746094 608.546875 C 168.167969 627.09375 173.398438 611.058594 163.226562 560.621094 C 183.628906 587.636719 187.421875 579.9375 184.351562 552.363281 C 191.828125 566.128906 192.429688 560.019531 188.246094 548.015625 C 202.300781 545.308594 211.582031 536.699219 212.085938 527.953125 C 212.585938 519.195312 204.316406 510.292969 182.113281 499.589844 C 251.925781 493.660156 265.972656 480.5625 231.449219 403.261719 C 288.921875 461.859375 296.878906 455.78125 289.5 376.378906 C 313.347656 443.964844 321.875 438.222656 339.589844 376.359375 C 339.523438 427.097656 348.660156 421.710938 365.320312 383.46875 C 357.085938 408.226562 356.386719 400.125 349.25 375.835938 C 365.96875 390.03125 381.871094 389.644531 393.46875 386.050781 C 416.648438 378.851562 422.582031 358.765625 412.675781 310.320312 C 470.902344 366.976562 493.472656 359.824219 534.742188 309.941406 C 540.160156 347.382812 564.277344 342.085938 589.050781 337.792969 C 613.824219 333.496094 639.253906 330.203125 642.328125 298.625 C 691.207031 325.761719 717.726562 324.617188 755.644531 277.195312 C 768.609375 324.617188 792.214844 325.519531 811.488281 305.855469 C 838.601562 329.046875 861.382812 331.660156 822.507812 275.523438 C 905.929688 338.492188 927.710938 342.722656 1008.699219 254.738281 C 970.101562 352.667969 990.722656 358.398438 1057.34375 356.183594 C 1030.632812 371.25 1049.921875 378.371094 1059.878906 362.304688 C 1087.011719 393.925781 1104.820312 402.351562 1099.578125 309.394531 C 1138.773438 420.398438 1154.921875 430.023438 1303.121094 402.695312 C 1185.417969 450.351562 1199.75 461.066406 1322.304688 446.859375 C 1226.449219 483.476562 1238.804688 495.183594 1329.851562 453.390625 C 1256.445312 514.15625 1262.453125 521.132812 1341.101562 463.949219 C 1273.714844 533.960938 1278.957031 539.824219 1369.515625 509.714844 C 1288.839844 554.535156 1293.460938 563.378906 1376.636719 570.601562 C 1304.945312 570.222656 1311.789062 568.210938 1378.296875 555.011719 C 1319.5 574.753906 1318.890625 588.640625 1362.75 617.144531 C 1323.207031 607.144531 1328.136719 611.761719 1359.644531 624.46875 C 1346.722656 611.027344 1360.390625 605.664062 1380.523438 595.125 C 1362.738281 616.578125 1351.429688 632.859375 1348.480469 646.753906 C 1342.628906 657.992188 1345.144531 666.871094 1355.527344 673.695312 C 1365.910156 680.515625 1384.152344 685.277344 1411.226562 689.648438 " fill-opacity="1" fill-rule="nonzero"/></g><path fill="#231f20" d="M 1125.5 733.769531 C 1111.566406 683.910156 1096.929688 633.359375 1082.785156 584.464844 L 1080.125 575.265625 C 1072.847656 621.332031 1065.878906 666.660156 1059.992188 712.28125 L 1059.257812 717.992188 L 1053.570312 717.144531 C 1025.726562 712.960938 1012.070312 711.246094 983.992188 708.410156 L 978.015625 707.808594 L 978.992188 701.878906 C 980.320312 693.84375 985.148438 662.832031 990.46875 628.140625 L 990.644531 627.027344 C 990.644531 627.027344 996.199219 617.925781 998.460938 614.207031 L 991.335938 622.621094 L 994.332031 602.925781 C 996.734375 587.082031 999.117188 571.304688 1001.175781 557.292969 C 1004.078125 537.519531 1005.546875 527.617188 1008.496094 507.777344 C 1010.1875 496.386719 1012.414062 480.75 1014.796875 463.894531 L 1021.832031 413.800781 C 1025.570312 387.09375 1028.53125 366 1029.277344 361.125 L 1029.976562 356.519531 L 1034.617188 356.339844 C 1060.882812 355.285156 1075.316406 354.960938 1096.394531 354.960938 C 1100.902344 354.960938 1105.710938 354.984375 1110.964844 355.003906 L 1117.730469 355.039062 L 1116.484375 361.691406 C 1108.769531 402.671875 1101.179688 445.890625 1092.734375 496.917969 C 1103.105469 482.054688 1115.460938 464.484375 1128.058594 446.679688 L 1145.742188 421.699219 L 1145.71875 421.8125 C 1168.34375 390.03125 1188.34375 362.28125 1192.695312 356.453125 L 1198.027344 349.308594 L 1202.199219 357.1875 C 1218.515625 387.953125 1226.273438 403.363281 1241.71875 435.730469 L 1243.289062 439.023438 L 1240.929688 441.808594 C 1230.066406 454.648438 1219.140625 467.445312 1208.210938 480.226562 C 1191.328125 500 1173.886719 520.40625 1156.9375 540.726562 C 1170.871094 577.644531 1186.988281 620.953125 1201.933594 664.914062 L 1203.070312 668.242188 L 1200.574219 670.722656 C 1188.746094 682.484375 1182.878906 688.335938 1171.207031 699.988281 C 1171.207031 699.988281 1145.796875 725.355469 1134.914062 736.238281 L 1128.089844 743.058594 Z M 1251.144531 755.554688 C 1234.941406 754.554688 1227.0625 754.140625 1210.980469 753.472656 L 1205.015625 753.230469 L 1205.605469 747.277344 C 1209.042969 712.960938 1212.292969 678.035156 1215.433594 644.25 C 1216.867188 628.863281 1218.292969 613.472656 1219.75 598.074219 L 1222.011719 574.21875 L 1222.042969 574.296875 C 1225.25 541.328125 1227.773438 517.4375 1229.902344 499.800781 L 1230.570312 494.269531 L 1236.109375 494.871094 C 1266.78125 498.1875 1281.707031 500.144531 1312.132812 504.886719 L 1318.132812 505.820312 L 1316.765625 511.730469 C 1313.402344 526.214844 1307.839844 548.101562 1302.308594 569.667969 L 1302.328125 569.644531 L 1294.496094 599.957031 C 1281.695312 649.414062 1268.464844 700.554688 1256.988281 751.171875 L 1255.933594 755.855469 Z M 714.132812 625.757812 C 708.097656 642.925781 701.300781 662.878906 695.824219 679.15625 C 708.855469 675.085938 718.28125 672.226562 732.328125 668.085938 C 728.820312 659.617188 724.9375 650.707031 721.164062 642.039062 C 718.695312 636.363281 716.300781 630.84375 714.132812 625.757812 Z M 940.121094 852.195312 C 909.636719 852.195312 883.394531 845.339844 862.117188 831.832031 L 859.945312 830.460938 L 859.921875 831.097656 L 851.140625 823.886719 C 833.4375 809.367188 820.769531 789.75 814.160156 766.75 L 784.824219 794.253906 L 781.664062 786.832031 C 771.914062 763.945312 766.761719 752.207031 757.257812 731.421875 C 754.652344 732.097656 743.523438 735.070312 743.523438 735.070312 C 714.519531 742.847656 699.898438 746.976562 671.75 755.378906 C 668.613281 764.113281 660.757812 788.011719 655.359375 804.425781 L 651.175781 817.144531 L 645.34375 814.261719 C 622.003906 802.710938 610.484375 797.515625 586.65625 787.757812 L 581.449219 785.632812 L 583.5625 780.414062 C 600.824219 737.886719 618.730469 694.492188 634.15625 657.148438 L 640.121094 642.683594 L 640.144531 642.738281 L 642.316406 637.519531 C 663.648438 586.300781 685.707031 533.335938 708.613281 481.730469 L 709.625 479.4375 L 719.417969 476.234375 L 721.789062 479.859375 C 744.390625 514.609375 766.472656 552.199219 789.0625 594.449219 L 789.0625 594.226562 L 799.226562 613.6875 C 806.914062 628.394531 814.816406 643.972656 822.796875 660.128906 C 830.242188 640.589844 840.515625 621.496094 853.414062 603.214844 L 860.589844 593.046875 L 860.667969 593.355469 L 860.734375 593.269531 C 890.953125 554.355469 931.316406 522.488281 977.457031 501.136719 L 984.636719 497.808594 L 985.4375 505.6875 C 988.910156 540.136719 990.546875 557.070312 993.761719 591.953125 L 994.164062 596.273438 L 990.101562 597.761719 C 946.71875 613.753906 899.175781 650.382812 895.835938 705.285156 C 895.003906 719.046875 899.253906 731.644531 907.8125 740.734375 C 917.304688 750.816406 931.171875 756.144531 947.933594 756.144531 C 949.523438 756.144531 951.148438 756.101562 952.796875 756 C 963.445312 755.355469 972.195312 753.832031 979.226562 752.605469 L 988.164062 751.058594 L 987.941406 757.96875 C 986.875 791.761719 986.316406 808.6875 985.191406 842.578125 L 985.039062 847.128906 L 980.5625 847.941406 C 970.480469 849.769531 959.050781 851.835938 944.550781 852.148438 C 943.070312 852.171875 941.589844 852.195312 940.121094 852.195312 Z M 1234.375 883.238281 C 1228.277344 881.757812 1225.226562 881.035156 1219.105469 879.621094 L 1215.898438 878.875 C 1204.191406 876.195312 1198.503906 874.9375 1186.910156 872.511719 L 1181.699219 871.410156 L 1182.480469 866.15625 C 1187.019531 835.503906 1189.289062 820.167969 1193.863281 789.449219 L 1194.710938 783.730469 L 1200.410156 784.71875 C 1220.039062 788.136719 1229.632812 789.949219 1249.265625 793.988281 L 1254.550781 795.066406 L 1253.707031 800.398438 C 1248.710938 831.71875 1246.226562 847.363281 1241.273438 878.632812 L 1240.316406 884.671875 Z M 466.328125 715.332031 C 469.667969 742.949219 471.707031 760.015625 474.65625 785.085938 C 482.921875 775.507812 504.703125 747.855469 502.308594 725.234375 C 500.917969 712.046875 492.816406 710.523438 486.828125 710.523438 C 481.277344 710.523438 474.398438 712.136719 466.328125 715.332031 Z M 412.1875 927.703125 C 412.199219 926.921875 411.964844 922.328125 408.515625 896.101562 L 408.414062 895.332031 L 408.445312 895.121094 L 405.421875 873.15625 C 402.292969 850.414062 398.863281 826.710938 397.394531 816.597656 L 396.617188 811.203125 L 392.886719 784.820312 C 391.621094 775.851562 386.1875 740.621094 382.539062 718.824219 L 377.128906 722.273438 C 340.636719 745.519531 290.667969 777.351562 290.746094 822.328125 C 290.746094 826.632812 292.3125 830.875 295.128906 834.289062 L 296.265625 835.648438 L 298.078125 837.09375 C 303.644531 841.523438 312.113281 843.871094 322.5625 843.871094 C 331.445312 843.871094 341.472656 842.203125 352.355469 838.917969 C 363.195312 835.660156 372.042969 832.320312 379.144531 829.648438 L 388.757812 826.046875 L 393.691406 897.660156 L 389.726562 899.128906 C 379.980469 902.742188 368.316406 906.9375 353.347656 911.089844 C 343.753906 913.738281 318.34375 919.914062 289.632812 919.914062 C 236.769531 919.914062 206.242188 898.59375 203.671875 859.871094 C 202.089844 836.058594 211.128906 807.25 229.8125 776.574219 L 230.671875 775.171875 L 230.648438 775.128906 L 231.269531 774.183594 L 235.757812 766.816406 L 235.910156 767.214844 C 266.527344 722.429688 309.84375 681.816406 358.542969 652.351562 L 365.03125 648.425781 L 366.933594 655.757812 C 372.910156 678.789062 375.859375 690.351562 381.527344 712.882812 C 380.480469 706.839844 379.679688 702.578125 379.3125 701.421875 L 377.875 696.859375 L 382.136719 694.636719 C 394.523438 688.382812 406.398438 682.550781 417.4375 677.308594 L 424.441406 673.972656 L 424.441406 673.996094 C 454.976562 659.683594 480.929688 649.113281 499.515625 643.417969 C 513.882812 639.011719 526.738281 636.785156 537.722656 636.785156 C 565.746094 636.785156 582.394531 651.40625 584.621094 677.957031 C 586.878906 704.996094 576.53125 733.480469 552.980469 764.890625 C 555.464844 766.925781 558.589844 769.484375 562.140625 772.390625 C 587.882812 793.433594 613.558594 814.574219 619.945312 821.648438 L 623.082031 825.121094 L 620.246094 828.847656 C 599.546875 856.011719 589.351562 869.375 569.21875 895.601562 L 564.488281 901.785156 L 560.09375 895.355469 C 558.035156 892.363281 551.632812 883.917969 543.367188 873.578125 L 542.085938 871.976562 L 539.660156 868.984375 C 522.753906 848.109375 499.082031 821.90625 484.949219 806.25 C 481.175781 802.078125 478.125 798.707031 475.96875 796.269531 C 476.144531 797.78125 476.335938 799.328125 476.511719 800.898438 L 477.492188 808.785156 C 481.367188 840.144531 485.371094 872.578125 490.023438 904.335938 L 490.703125 909.03125 L 486.183594 910.511719 C 459.394531 919.257812 446.34375 923.683594 419.710938 933.109375 L 412.054688 935.8125 L 412.1875 927.703125 " fill-opacity="1" fill-rule="nonzero"/><path fill="#231f20" d="M 1189.992188 777.1875 L 1188.289062 788.613281 C 1183.714844 819.335938 1181.433594 834.679688 1176.902344 865.335938 L 1175.347656 875.847656 L 1185.742188 878.03125 C 1197.371094 880.46875 1203.035156 881.714844 1214.644531 884.371094 L 1216.179688 884.730469 L 1217.835938 885.105469 C 1223.925781 886.519531 1226.960938 887.242188 1233.050781 888.710938 L 1244.9375 891.59375 L 1246.851562 879.519531 C 1251.804688 848.253906 1254.285156 832.609375 1259.269531 801.289062 L 1260.972656 790.628906 L 1250.402344 788.457031 C 1230.980469 784.472656 1220.898438 782.5625 1201.375 779.167969 Z M 300.226562 831.597656 L 299.480469 830.683594 C 297.488281 828.28125 296.386719 825.3125 296.386719 822.316406 C 296.320312 781.148438 343.164062 750.613281 378.363281 728.171875 C 381.871094 749.636719 386.210938 777.941406 387.300781 785.621094 C 388.804688 796.15625 389.539062 801.433594 391.03125 811.992188 C 391.140625 812.738281 391.410156 814.628906 391.820312 817.433594 C 391.875 817.867188 391.941406 818.324219 392.007812 818.800781 L 379.679688 823.417969 L 377.183594 824.363281 C 370.152344 827.011719 361.402344 830.304688 350.730469 833.523438 C 340.371094 836.648438 330.898438 838.230469 322.5625 838.230469 C 313.402344 838.230469 306.148438 836.316406 301.597656 832.675781 Z M 472.472656 719.082031 C 479.304688 716.746094 483.9375 716.164062 486.828125 716.164062 C 492.4375 716.164062 495.855469 717.746094 496.703125 725.824219 C 498.101562 739.078125 489.402344 756.3125 478.671875 770.988281 C 476.65625 753.941406 474.910156 739.386719 472.472656 719.082031 Z M 704.703125 670.5 C 707.875 661.109375 711.316406 651.039062 714.6875 641.292969 C 715.121094 642.292969 715.554688 643.292969 716 644.296875 C 718.90625 650.984375 721.878906 657.816406 724.691406 664.457031 C 717.460938 666.605469 711.28125 668.476562 704.703125 670.5 Z M 1198.828125 338.78125 L 1188.167969 353.082031 C 1184.996094 357.332031 1173.5 373.253906 1158.707031 393.90625 L 1158.820312 393.472656 L 1123.460938 443.429688 C 1116.25 453.613281 1109.128906 463.714844 1102.394531 473.296875 C 1109.226562 432.714844 1115.582031 396.953125 1122.027344 362.738281 L 1124.53125 349.441406 L 1110.996094 349.363281 C 1105.734375 349.339844 1100.914062 349.320312 1096.382812 349.320312 C 1075.207031 349.320312 1060.726562 349.640625 1034.394531 350.699219 L 1025.101562 351.078125 L 1023.6875 360.277344 C 1022.941406 365.1875 1019.984375 386.292969 1016.242188 413.011719 C 1014.417969 426.0625 1012.425781 440.214844 1010.5 453.933594 L 1010.121094 456.628906 L 1010.121094 456.640625 L 1009.210938 463.105469 C 1006.359375 483.234375 1004.367188 497.164062 1002.910156 506.957031 C 1000.074219 526.0625 998.613281 535.953125 995.910156 554.335938 C 994.464844 539.203125 993.0625 525.113281 991.046875 505.121094 L 989.457031 489.363281 L 975.085938 496.019531 C 931.695312 516.101562 893.320312 545.320312 863.484375 580.894531 L 863.171875 579.613281 L 848.804688 599.964844 C 838.199219 614.988281 829.339844 630.554688 822.308594 646.476562 C 816.1875 634.238281 810.144531 622.398438 804.234375 611.070312 L 783.910156 572.160156 L 783.890625 573.0625 C 764.722656 538.167969 745.816406 506.445312 726.519531 476.777344 L 721.789062 469.511719 L 713.542969 472.21875 L 710.234375 473.308594 L 705.484375 474.867188 L 703.449219 479.4375 C 681.890625 528.03125 661.089844 577.800781 640.925781 626.191406 L 640.890625 626.070312 L 628.9375 654.988281 C 613.5 692.375 595.574219 735.816406 578.332031 778.300781 L 578.3125 778.34375 C 574.203125 774.960938 569.964844 771.5 565.667969 767.984375 C 563.886719 766.539062 562.21875 765.167969 560.695312 763.921875 C 582.839844 733.046875 592.511719 704.695312 590.242188 677.488281 C 587.78125 648.035156 568.640625 631.144531 537.722656 631.144531 C 526.183594 631.144531 512.773438 633.457031 497.871094 638.019531 C 480.464844 643.363281 456.78125 652.863281 429.023438 665.648438 L 429.015625 665.550781 L 418.453125 670.578125 L 414.601562 672.390625 L 414.601562 672.414062 C 404.164062 677.375 392.957031 682.875 381.246094 688.769531 C 378.554688 678.144531 376.027344 668.375 372.386719 654.34375 L 368.582031 639.679688 L 355.628906 647.523438 C 309.398438 675.484375 267.964844 713.363281 237.371094 755.367188 L 236.890625 754.109375 L 226.496094 771.175781 L 224.515625 774.191406 L 224.558594 774.347656 C 205.5625 805.761719 196.390625 835.445312 198.039062 860.25 C 200.84375 902.355469 233.363281 925.554688 289.632812 925.554688 C 319.035156 925.554688 345.03125 919.234375 354.847656 916.519531 C 370.019531 912.324219 381.816406 908.074219 391.6875 904.414062 L 399.609375 901.484375 L 399.019531 893.0625 C 397.640625 873.046875 396.839844 861.40625 395.648438 844.105469 C 396.972656 853.363281 398.429688 863.742188 399.832031 873.9375 L 402.75 895.097656 L 402.714844 895.289062 L 402.925781 896.835938 C 406.320312 922.628906 406.53125 927.066406 406.542969 927.703125 L 406.289062 943.925781 L 421.589844 938.429688 C 448.246094 929.003906 461.253906 924.574219 487.929688 915.875 L 496.980469 912.925781 L 495.597656 903.511719 C 491.226562 873.578125 487.410156 843.023438 483.734375 813.328125 C 498.015625 829.136719 519.59375 853.183594 535.273438 872.542969 L 537.144531 874.835938 L 538.957031 877.105469 C 547.136719 887.320312 553.4375 895.621094 555.429688 898.539062 L 564.222656 911.390625 L 573.691406 899.039062 C 594.015625 872.554688 604.265625 859.136719 624.730469 832.265625 L 630.40625 824.820312 L 624.128906 817.867188 C 621.347656 814.785156 615.40625 809.433594 607.457031 802.632812 C 618.554688 807.484375 628.425781 812.179688 642.839844 819.3125 L 654.5 825.089844 L 658.5625 812.726562 L 660.699219 806.214844 C 665.621094 791.25 672.597656 770.066406 676.113281 759.960938 C 702.402344 752.128906 716.957031 748.035156 744.992188 740.511719 L 747.832031 739.742188 L 750.492188 739.042969 C 751.835938 738.6875 753.003906 738.375 754.097656 738.085938 C 762.363281 756.234375 767.453125 767.851562 776.464844 789.035156 L 782.796875 803.890625 L 794.574219 792.851562 L 811.542969 776.929688 C 818.980469 797.335938 831.222656 814.839844 847.558594 828.25 L 865.132812 842.667969 L 865.222656 840.242188 C 886.242188 851.914062 911.40625 857.835938 940.132812 857.835938 C 941.632812 857.835938 943.148438 857.8125 944.671875 857.777344 C 959.617188 857.46875 971.28125 855.351562 981.566406 853.484375 L 990.523438 851.871094 L 990.824219 842.769531 C 991.960938 808.875 992.503906 791.953125 993.585938 758.148438 L 994.019531 744.328125 L 980.386719 746.675781 L 978.28125 747.042969 C 971.394531 748.246094 962.800781 749.746094 952.449219 750.371094 C 950.9375 750.460938 949.414062 750.515625 947.933594 750.515625 C 932.773438 750.515625 920.320312 745.796875 911.929688 736.871094 C 904.328125 728.804688 900.722656 718 901.46875 705.617188 C 904.539062 654.96875 947.710938 620.484375 988.386719 604.449219 L 985.261719 625.023438 L 985.238281 625.058594 L 984.890625 627.28125 C 979.582031 661.921875 974.753906 692.910156 973.429688 700.953125 L 971.460938 712.804688 L 983.421875 714.019531 C 1011.425781 716.855469 1025.023438 718.570312 1052.726562 722.71875 L 1064.121094 724.421875 L 1065.589844 713.003906 C 1070.398438 675.753906 1075.929688 638.675781 1081.761719 601.222656 C 1094.527344 645.34375 1107.570312 690.597656 1120.066406 735.28125 L 1125.253906 753.875 L 1138.910156 740.222656 C 1149.78125 729.339844 1155.257812 723.875 1166.265625 712.894531 L 1169.625 709.535156 L 1175.191406 703.980469 C 1186.863281 692.332031 1192.730469 686.480469 1204.546875 674.71875 L 1207.175781 672.101562 C 1204.859375 696.859375 1202.46875 721.953125 1199.984375 746.710938 L 1198.792969 758.617188 L 1210.746094 759.105469 C 1226.875 759.785156 1234.730469 760.183594 1250.789062 761.1875 L 1260.371094 761.773438 L 1262.5 752.417969 C 1273.9375 701.910156 1287.148438 650.851562 1299.9375 601.457031 L 1304.121094 585.289062 L 1311.476562 556.828125 L 1311.398438 556.871094 C 1315.660156 540.179688 1319.625 524.335938 1322.25 513.007812 L 1325 501.179688 L 1313.003906 499.3125 C 1282.84375 494.617188 1267.148438 492.546875 1236.710938 489.261719 L 1225.628906 488.0625 L 1224.304688 499.121094 C 1222.710938 512.285156 1220.910156 528.898438 1218.761719 550.140625 L 1218.636719 549.816406 L 1214.128906 597.550781 C 1212.683594 612.941406 1211.25 628.339844 1209.8125 643.738281 C 1209.167969 650.714844 1208.511719 657.738281 1207.855469 664.804688 L 1207.273438 663.089844 C 1192.71875 620.285156 1177.058594 578.101562 1163.382812 541.816406 C 1179.652344 522.355469 1196.335938 502.816406 1212.515625 483.878906 C 1223.257812 471.304688 1234.363281 458.296875 1245.238281 445.457031 L 1249.945312 439.882812 L 1246.804688 433.304688 C 1231.324219 400.871094 1223.558594 385.414062 1207.1875 354.539062 Z M 1199.441406 790.28125 C 1218.984375 793.675781 1228.722656 795.523438 1248.128906 799.507812 C 1243.144531 830.839844 1240.652344 846.484375 1235.710938 877.753906 C 1229.578125 876.273438 1226.515625 875.550781 1220.375 874.125 C 1214.820312 849.589844 1211.972656 837.460938 1206.117188 813.449219 C 1210.660156 837.207031 1212.875 849.199219 1217.167969 873.378906 C 1205.550781 870.71875 1199.730469 869.441406 1188.066406 866.980469 C 1192.597656 836.335938 1194.867188 820.992188 1199.441406 790.28125 M 361.472656 657.171875 C 367.535156 680.527344 370.542969 692.289062 376.484375 715.988281 C 338.777344 740.042969 285.023438 773.234375 285.101562 822.339844 C 285.113281 828.269531 287.328125 833.710938 290.789062 837.882812 C 275.832031 847.898438 268.363281 852.9375 253.496094 863.03125 C 269.890625 854.296875 278.101562 849.992188 294.5625 841.5 C 301.015625 846.652344 310.542969 849.511719 322.5625 849.511719 C 331.6875 849.511719 342.238281 847.863281 353.992188 844.328125 C 366.355469 840.597656 376.238281 836.761719 383.640625 833.976562 C 385.289062 857.945312 386.109375 869.917969 387.769531 893.84375 C 377.117188 897.78125 365.988281 901.730469 351.84375 905.648438 C 335.617188 910.144531 312.515625 914.269531 289.632812 914.269531 C 250.589844 914.269531 212.140625 902.253906 209.300781 859.503906 C 207.878906 838.050781 215.855469 810.332031 234.621094 779.511719 C 239.550781 792.230469 242 798.628906 246.875 811.535156 C 242.855469 797.269531 240.84375 790.171875 236.792969 776.050781 C 268.097656 728.183594 312.546875 686.769531 361.472656 657.171875 M 537.722656 642.425781 C 562.753906 642.425781 577.007812 654.710938 579 678.421875 C 581.496094 708.308594 567.425781 737.328125 545.203125 765.769531 C 555.597656 774.515625 607.023438 815.761719 615.761719 825.433594 C 595.0625 852.59375 584.867188 865.945312 564.746094 892.171875 C 562.585938 889.023438 556.207031 880.601562 547.761719 870.050781 C 548.25 844.773438 548.507812 832.109375 549.042969 806.707031 C 547.003906 830.296875 546.003906 842.046875 544.042969 865.433594 C 520.707031 836.625 484.871094 798.058594 477.914062 789.9375 C 490.425781 775.730469 510.378906 747.945312 507.929688 724.644531 C 506.761719 713.640625 500.90625 704.882812 486.828125 704.882812 C 480.019531 704.882812 471.28125 706.929688 460.21875 711.769531 C 464.539062 747.566406 466.6875 765.523438 470.914062 801.566406 C 475.1875 836.113281 479.394531 870.699219 484.4375 905.148438 C 457.769531 913.847656 444.449219 918.375 417.828125 927.789062 C 417.875 925.0625 416.28125 911.910156 414.113281 895.367188 C 419.277344 859.804688 421.9375 841.8125 427.421875 805.382812 C 420.734375 832.507812 417.449219 845.90625 411.007812 872.390625 C 407.054688 843.625 402.703125 813.960938 402.203125 810.421875 C 400.710938 799.851562 399.964844 794.578125 398.476562 784.03125 C 397.105469 774.394531 386.511719 705.25 384.675781 699.675781 C 396.449219 693.734375 408.28125 687.914062 419.867188 682.394531 C 423.382812 708.933594 425.117188 722.242188 428.589844 748.921875 C 427.589844 721.171875 427.097656 707.273438 426.132812 679.433594 C 454.753906 665.992188 481.53125 654.832031 501.175781 648.8125 C 515.132812 644.53125 527.351562 642.425781 537.722656 642.425781 M 1235.5 500.480469 C 1265.9375 503.761719 1281.082031 505.753906 1311.265625 510.460938 C 1308.0625 524.292969 1302.820312 544.964844 1296.71875 568.753906 C 1287.761719 579.257812 1283.296875 584.5 1274.441406 594.925781 C 1281.917969 589.953125 1285.667969 587.460938 1293.191406 582.476562 C 1278.800781 638.152344 1264.199219 693.824219 1251.492188 749.925781 C 1235.398438 748.921875 1227.351562 748.511719 1211.214844 747.832031 C 1216.199219 698.117188 1220.664062 648.347656 1225.371094 598.609375 C 1232.804688 617.878906 1236.457031 627.640625 1243.632812 647.402344 C 1236.890625 623.367188 1233.441406 611.484375 1226.382812 588.027344 C 1229.578125 554.679688 1232.726562 523.492188 1235.5 500.480469 M 686.964844 687.859375 C 708.132812 681.183594 718.714844 677.957031 739.917969 671.722656 C 731.359375 650.492188 719.460938 624.867188 713.765625 609.957031 C 706.074219 631.289062 695.023438 663.679688 686.964844 687.859375 M 717.058594 482.933594 C 743.367188 523.355469 767.363281 565.285156 789.84375 607.945312 C 791.132812 633.582031 791.769531 646.433594 793.003906 672.191406 C 793.492188 649.835938 793.738281 638.65625 794.226562 616.289062 C 805.035156 636.976562 815.128906 657.203125 823.675781 674.75 C 830.71875 652.363281 842.027344 629.128906 858.019531 606.464844 C 864.609375 633.859375 867.835938 647.710938 874.144531 675.71875 C 870.664062 643.90625 868.871094 628.117188 865.199219 596.726562 C 895.378906 557.851562 935.199219 526.917969 979.828125 506.253906 C 983.277344 540.492188 984.9375 557.738281 988.152344 592.464844 C 938.730469 610.679688 893.488281 650.785156 890.207031 704.9375 C 888.269531 736.882812 910.792969 761.785156 947.933594 761.785156 C 949.636719 761.785156 951.371094 761.730469 953.140625 761.628906 C 965.238281 760.894531 975 759.058594 982.300781 757.792969 C 981.230469 791.585938 980.6875 808.496094 979.550781 842.390625 C 969.089844 844.28125 958.339844 846.207031 944.4375 846.507812 C 942.992188 846.539062 941.554688 846.550781 940.132812 846.550781 C 908.492188 846.550781 883.941406 838.996094 865.132812 827.078125 C 862.273438 792.175781 860.78125 774.828125 857.71875 740.332031 C 856.519531 772.011719 855.917969 787.847656 854.714844 819.523438 C 834.148438 802.65625 822.25 779.789062 817.320312 756.042969 C 805.054688 767.539062 798.96875 773.257812 786.847656 784.617188 C 776.453125 760.21875 771.167969 748.246094 760.417969 724.765625 C 755.285156 726.101562 752.714844 726.78125 747.585938 728.136719 C 751.769531 696.605469 753.894531 680.757812 758.226562 648.925781 C 751.636719 681.4375 748.410156 697.574219 742.066406 729.617188 C 712.183594 737.628906 697.257812 741.867188 667.445312 750.769531 C 665.03125 756.800781 654.277344 789.648438 647.847656 809.199219 C 624.464844 797.636719 612.644531 792.296875 588.796875 782.539062 C 605.488281 741.390625 622.417969 700.34375 639.367188 659.296875 C 643.070312 671.246094 644.90625 677.253906 648.558594 689.347656 C 645.933594 674.804688 644.609375 667.5625 641.925781 653.121094 C 665.484375 596.59375 688.925781 539.992188 713.765625 484.011719 C 715.078125 483.578125 715.746094 483.367188 717.058594 482.933594 M 1197.214844 359.824219 C 1213.375 390.3125 1221.265625 405.988281 1236.621094 438.167969 C 1207.964844 472.039062 1178.886719 505.554688 1150.496094 539.648438 C 1166.429688 581.796875 1182.078125 624.054688 1196.589844 666.71875 C 1184.773438 678.488281 1178.894531 684.34375 1167.222656 695.992188 C 1163.28125 661.578125 1161.234375 644.53125 1156.949219 610.75 C 1157.59375 648.222656 1157.863281 667.050781 1158.285156 704.90625 C 1147.277344 715.898438 1141.800781 721.363281 1130.929688 732.246094 C 1113.867188 671.179688 1096.117188 610.347656 1078.523438 549.425781 C 1077.933594 553.078125 1077.644531 554.902344 1077.0625 558.550781 C 1068.972656 609.445312 1060.992188 660.441406 1054.40625 711.558594 C 1026.605469 707.398438 1012.625 705.640625 984.558594 702.800781 C 985.871094 694.835938 990.679688 663.96875 996.054688 628.996094 C 1013.894531 599.722656 1022.953125 584.910156 1041.363281 554.925781 C 1024.613281 574.640625 1016.320312 584.410156 999.90625 603.78125 C 1002.320312 587.914062 1004.691406 572.136719 1006.761719 558.117188 C 1009.667969 538.34375 1011.125 528.441406 1014.074219 508.601562 C 1015.765625 497.207031 1018 481.550781 1020.382812 464.683594 C 1025.046875 473.007812 1027.363281 477.203125 1031.96875 485.660156 C 1027.882812 473.507812 1025.824219 467.476562 1021.675781 455.503906 C 1027.460938 414.355469 1033.738281 369.238281 1034.851562 361.96875 C 1060.09375 360.957031 1074.859375 360.601562 1096.382812 360.601562 C 1100.890625 360.601562 1105.6875 360.625 1110.941406 360.644531 C 1101.792969 409.195312 1093.414062 457.90625 1085.410156 506.65625 C 1084.507812 512.242188 1084.0625 515.023438 1083.164062 520.597656 C 1095.449219 502.773438 1113.925781 476.421875 1132.664062 449.941406 C 1125.507812 477.824219 1121.96875 491.699219 1114.957031 519.351562 C 1125.664062 486.492188 1131.085938 469.945312 1142.101562 436.644531 C 1167.933594 400.238281 1192.296875 366.421875 1197.214844 359.824219 " fill-opacity="1" fill-rule="nonzero"/><path fill="#ffffff" d="M 1188.066406 866.980469 C 1199.730469 869.441406 1205.550781 870.71875 1217.167969 873.378906 C 1212.875 849.199219 1210.660156 837.207031 1206.117188 813.449219 C 1211.972656 837.460938 1214.820312 849.589844 1220.375 874.125 C 1226.515625 875.550781 1229.578125 876.273438 1235.710938 877.753906 C 1240.652344 846.484375 1243.144531 830.839844 1248.128906 799.507812 C 1228.722656 795.523438 1218.984375 793.675781 1199.441406 790.28125 C 1194.867188 820.992188 1192.597656 836.335938 1188.066406 866.980469 Z M 739.917969 671.722656 C 731.359375 650.492188 719.460938 624.867188 713.765625 609.957031 C 706.074219 631.289062 695.023438 663.679688 686.964844 687.859375 C 708.132812 681.183594 718.714844 677.957031 739.917969 671.722656 Z M 982.300781 757.792969 C 981.230469 791.585938 980.6875 808.496094 979.550781 842.390625 C 969.089844 844.28125 958.339844 846.207031 944.4375 846.507812 C 910.707031 847.21875 884.773438 839.542969 865.144531 827.078125 C 862.273438 792.175781 860.792969 774.828125 857.71875 740.332031 C 856.519531 772.011719 855.917969 787.847656 854.714844 819.523438 C 834.148438 802.65625 822.25 779.789062 817.320312 756.042969 C 805.054688 767.539062 798.96875 773.257812 786.847656 784.617188 C 776.464844 760.21875 771.167969 748.246094 760.417969 724.765625 C 755.285156 726.101562 752.714844 726.78125 747.585938 728.136719 C 751.769531 696.605469 753.894531 680.757812 758.226562 648.925781 C 751.636719 681.4375 748.410156 697.574219 742.066406 729.617188 C 712.183594 737.628906 697.257812 741.867188 667.445312 750.769531 C 665.03125 756.800781 654.277344 789.648438 647.847656 809.199219 C 624.464844 797.636719 612.644531 792.296875 588.796875 782.539062 C 605.488281 741.390625 622.417969 700.34375 639.367188 659.296875 C 643.070312 671.246094 644.90625 677.253906 648.558594 689.347656 C 645.933594 674.804688 644.609375 667.5625 641.925781 653.121094 C 665.484375 596.59375 688.925781 539.992188 713.765625 484.011719 C 715.078125 483.578125 715.746094 483.367188 717.058594 482.933594 C 743.367188 523.355469 767.363281 565.285156 789.84375 607.945312 C 791.132812 633.582031 791.769531 646.433594 793.003906 672.191406 C 793.492188 649.835938 793.738281 638.65625 794.226562 616.289062 C 805.035156 636.976562 815.128906 657.203125 823.675781 674.75 C 830.71875 652.363281 842.027344 629.128906 858.019531 606.464844 C 864.609375 633.859375 867.835938 647.710938 874.144531 675.71875 C 870.664062 643.90625 868.871094 628.117188 865.199219 596.726562 C 895.378906 557.851562 935.199219 526.917969 979.816406 506.253906 C 983.277344 540.492188 984.949219 557.738281 988.152344 592.464844 C 938.730469 610.679688 893.5 650.785156 890.207031 704.9375 C 888.179688 738.34375 912.910156 764.054688 953.140625 761.628906 C 965.238281 760.894531 975 759.058594 982.300781 757.792969 Z M 545.203125 765.769531 C 567.425781 737.328125 581.496094 708.320312 579 678.421875 C 576.1875 644.886719 548.832031 634.203125 501.175781 648.8125 C 481.53125 654.832031 454.753906 665.992188 426.132812 679.433594 C 427.097656 707.273438 427.589844 721.171875 428.589844 748.921875 C 425.117188 722.242188 423.382812 708.933594 419.867188 682.394531 C 408.28125 687.914062 396.449219 693.734375 384.675781 699.675781 C 386.511719 705.25 397.105469 774.394531 398.476562 784.03125 C 399.964844 794.578125 400.710938 799.851562 402.203125 810.421875 C 402.703125 813.960938 407.054688 843.625 411.007812 872.390625 C 417.449219 845.90625 420.734375 832.507812 427.421875 805.382812 C 421.9375 841.8125 419.277344 859.816406 414.113281 895.367188 C 416.28125 911.910156 417.875 925.0625 417.828125 927.789062 C 444.449219 918.375 457.769531 913.847656 484.4375 905.148438 C 479.394531 870.699219 475.1875 836.113281 470.914062 801.566406 C 466.675781 765.523438 464.539062 747.566406 460.21875 711.769531 C 494.128906 696.9375 506.207031 708.300781 507.929688 724.644531 C 510.378906 747.945312 490.425781 775.730469 477.914062 789.9375 C 484.871094 798.058594 520.707031 836.625 544.042969 865.433594 C 546.003906 842.046875 547.003906 830.296875 549.042969 806.707031 C 548.507812 832.109375 548.25 844.773438 547.761719 870.050781 C 556.207031 880.601562 562.585938 889.023438 564.746094 892.171875 C 584.867188 865.945312 595.0625 852.59375 615.761719 825.433594 C 607.023438 815.761719 555.597656 774.515625 545.203125 765.769531 Z M 1243.632812 647.402344 C 1236.457031 627.640625 1232.804688 617.878906 1225.371094 598.609375 C 1220.664062 648.359375 1216.199219 698.117188 1211.214844 747.832031 C 1227.351562 748.511719 1235.398438 748.921875 1251.492188 749.925781 C 1264.199219 693.824219 1278.800781 638.152344 1293.191406 582.476562 C 1285.667969 587.460938 1281.917969 589.953125 1274.441406 594.925781 C 1283.296875 584.5 1287.761719 579.257812 1296.71875 568.753906 C 1302.820312 544.964844 1308.0625 524.292969 1311.265625 510.460938 C 1281.082031 505.753906 1265.9375 503.761719 1235.5 500.480469 C 1232.726562 523.492188 1229.578125 554.679688 1226.382812 588.027344 C 1233.441406 611.484375 1236.890625 623.367188 1243.632812 647.402344 Z M 1236.621094 438.167969 C 1221.265625 405.988281 1213.375 390.3125 1197.214844 359.824219 C 1192.296875 366.421875 1167.933594 400.238281 1142.101562 436.644531 C 1131.085938 469.945312 1125.664062 486.492188 1114.957031 519.351562 C 1121.96875 491.699219 1125.507812 477.824219 1132.664062 449.941406 C 1113.925781 476.421875 1095.449219 502.773438 1083.164062 520.597656 C 1084.0625 515.023438 1084.507812 512.242188 1085.410156 506.65625 C 1093.414062 457.90625 1101.792969 409.195312 1110.941406 360.644531 C 1080.59375 360.480469 1065.367188 360.746094 1034.851562 361.96875 C 1033.738281 369.238281 1027.460938 414.355469 1021.675781 455.503906 C 1025.824219 467.476562 1027.882812 473.507812 1031.96875 485.660156 C 1027.363281 477.203125 1025.046875 473.007812 1020.382812 464.683594 C 1018 481.550781 1015.765625 497.207031 1014.074219 508.601562 C 1011.125 528.441406 1009.667969 538.34375 1006.761719 558.117188 C 1004.691406 572.136719 1002.320312 587.914062 999.90625 603.78125 C 1016.320312 584.410156 1024.613281 574.640625 1041.363281 554.925781 C 1022.953125 584.910156 1013.894531 599.722656 996.054688 628.996094 C 990.679688 663.96875 985.871094 694.835938 984.558594 702.800781 C 1012.625 705.640625 1026.605469 707.398438 1054.40625 711.558594 C 1060.992188 660.441406 1068.972656 609.445312 1077.0625 558.550781 C 1077.644531 554.902344 1077.933594 553.078125 1078.523438 549.425781 C 1096.117188 610.335938 1113.855469 671.179688 1130.929688 732.246094 C 1141.800781 721.363281 1147.277344 715.898438 1158.285156 704.90625 C 1157.863281 667.050781 1157.59375 648.222656 1156.949219 610.75 C 1161.234375 644.53125 1163.28125 661.578125 1167.222656 695.992188 C 1178.894531 684.34375 1184.773438 678.488281 1196.589844 666.726562 C 1182.078125 624.054688 1166.429688 581.796875 1150.496094 539.648438 C 1178.886719 505.554688 1207.964844 472.039062 1236.621094 438.167969 Z M 376.484375 715.988281 C 338.777344 740.042969 285.023438 773.234375 285.101562 822.339844 C 285.113281 828.269531 287.328125 833.710938 290.789062 837.882812 C 275.832031 847.910156 268.363281 852.9375 253.484375 863.03125 C 269.890625 854.296875 278.101562 849.992188 294.5625 841.5 C 305.914062 850.546875 326.738281 852.539062 353.992188 844.328125 C 366.355469 840.597656 376.238281 836.761719 383.640625 833.976562 C 385.289062 857.945312 386.109375 869.917969 387.769531 893.84375 C 377.117188 897.78125 365.988281 901.730469 351.84375 905.648438 C 307.929688 917.796875 213.808594 927.324219 209.300781 859.503906 C 207.878906 838.050781 215.855469 810.332031 234.621094 779.511719 C 239.550781 792.230469 242 798.628906 246.875 811.535156 C 242.855469 797.269531 240.84375 790.171875 236.792969 776.050781 C 268.097656 728.183594 312.546875 686.769531 361.472656 657.171875 C 367.535156 680.527344 370.53125 692.289062 376.484375 715.988281 " fill-opacity="1" fill-rule="nonzero"/></svg>