<svg xmlns="http://www.w3.org/2000/svg" xmlns:xlink="http://www.w3.org/1999/xlink" width="2000" zoomAndPan="magnify" viewBox="0 0 1500 1499.999933" height="2000" preserveAspectRatio="xMidYMid meet" version="1.0"><defs><clipPath id="599ab296c5"><path d="M 146 408 L 538 408 L 538 687 L 146 687 Z M 146 408 " clip-rule="nonzero"/></clipPath><clipPath id="acce3bd93e"><path d="M 341.835938 408.445312 C 343.488281 411.085938 345.023438 413.996094 346.421875 417.214844 C 366.355469 463.109375 339.777344 486.695312 330.285156 493.328125 C 317.523438 482.296875 309.6875 475.226562 309.6875 475.226562 C 354.136719 557.964844 475.304688 618.484375 537.414062 645.109375 L 508.734375 686.285156 C 492.226562 667.246094 448.992188 621.65625 386.347656 586.910156 C 305.136719 541.871094 255.421875 545.875 255.421875 545.875 C 268.257812 549.671875 280.558594 553.75 292.328125 558.054688 C 294.757812 563.039062 305.179688 587.371094 287.910156 606.558594 C 268.566406 628.046875 251.4375 628.316406 220.21875 619.140625 C 220.21875 619.140625 224.6875 623.066406 231.988281 626.945312 C 218.257812 630.613281 190.609375 635.480469 165.65625 624.46875 C 172.792969 624.273438 182.175781 622.304688 188.847656 614.601562 C 201.066406 600.492188 199.441406 585.132812 199.441406 585.132812 C 199.441406 585.132812 224.230469 593.503906 237.539062 568.601562 C 250.847656 543.695312 227.917969 518.128906 227.917969 518.128906 C 227.917969 518.128906 260.359375 530.101562 282.085938 502.402344 C 303.8125 474.703125 278.039062 447.859375 278.039062 447.859375 C 278.039062 447.859375 334.757812 462.816406 341.835938 408.445312 Z M 160.585938 608.910156 C 160.585938 608.910156 145.996094 592.53125 146.804688 576.457031 C 147.613281 560.378906 159.730469 547.253906 159.730469 547.253906 C 159.730469 547.253906 145.421875 577.746094 160.585938 608.910156 Z M 178.382812 490.863281 C 178.382812 490.863281 165.960938 447.234375 202.117188 422.851562 C 238.273438 398.46875 265.722656 419.660156 265.722656 419.660156 C 265.722656 419.660156 192.535156 405.144531 178.382812 490.863281 Z M 178.382812 490.863281 " clip-rule="nonzero"/></clipPath><clipPath id="9547859447"><path d="M 962 408 L 1354 408 L 1354 687 L 962 687 Z M 962 408 " clip-rule="nonzero"/></clipPath><clipPath id="299bcf3e3f"><path d="M 1158.285156 408.445312 C 1156.632812 411.085938 1155.09375 413.996094 1153.695312 417.214844 C 1133.765625 463.109375 1160.34375 486.695312 1169.835938 493.328125 C 1182.597656 482.296875 1190.433594 475.226562 1190.433594 475.226562 C 1145.988281 557.964844 1024.816406 618.484375 962.707031 645.109375 L 991.386719 686.285156 C 1007.890625 667.246094 1051.128906 621.65625 1113.769531 586.910156 C 1194.984375 541.871094 1244.699219 545.875 1244.699219 545.875 C 1231.863281 549.671875 1219.566406 553.75 1207.792969 558.054688 C 1205.363281 563.039062 1194.9375 587.371094 1212.210938 606.558594 C 1231.550781 628.046875 1248.683594 628.316406 1279.902344 619.140625 C 1279.902344 619.140625 1275.429688 623.066406 1268.132812 626.945312 C 1281.863281 630.613281 1309.511719 635.480469 1334.464844 624.46875 C 1327.328125 624.273438 1317.941406 622.304688 1311.269531 614.601562 C 1299.054688 600.492188 1300.679688 585.132812 1300.679688 585.132812 C 1300.679688 585.132812 1275.890625 593.503906 1262.582031 568.601562 C 1249.273438 543.695312 1272.203125 518.128906 1272.203125 518.128906 C 1272.203125 518.128906 1239.761719 530.101562 1218.035156 502.402344 C 1196.308594 474.703125 1222.082031 447.859375 1222.082031 447.859375 C 1222.082031 447.859375 1165.363281 462.816406 1158.285156 408.445312 Z M 1339.535156 608.910156 C 1339.535156 608.910156 1354.125 592.53125 1353.316406 576.457031 C 1352.507812 560.378906 1340.390625 547.253906 1340.390625 547.253906 C 1340.390625 547.253906 1354.699219 577.746094 1339.535156 608.910156 Z M 1321.738281 490.863281 C 1321.738281 490.863281 1334.15625 447.234375 1298.003906 422.851562 C 1261.847656 398.46875 1234.398438 419.660156 1234.398438 419.660156 C 1234.398438 419.660156 1307.585938 405.144531 1321.738281 490.863281 Z M 1321.738281 490.863281 " clip-rule="nonzero"/></clipPath><clipPath id="ca560a1873"><path d="M 146 813 L 538 813 L 538 1092 L 146 1092 Z M 146 813 " clip-rule="nonzero"/></clipPath><clipPath id="6f32c9a1ab"><path d="M 341.835938 1091.820312 C 343.488281 1089.179688 345.023438 1086.269531 346.421875 1083.050781 C 366.355469 1037.15625 339.777344 1013.570312 330.285156 1006.9375 C 317.523438 1017.964844 309.6875 1025.039062 309.6875 1025.039062 C 354.136719 942.296875 475.304688 881.78125 537.414062 855.15625 L 508.734375 813.980469 C 492.226562 833.019531 448.992188 878.609375 386.347656 913.351562 C 305.136719 958.394531 255.421875 954.386719 255.421875 954.386719 C 268.257812 950.59375 280.558594 946.511719 292.328125 942.210938 C 294.757812 937.226562 305.179688 912.894531 287.910156 893.707031 C 268.566406 872.21875 251.4375 871.945312 220.21875 881.125 C 220.21875 881.125 224.6875 877.199219 231.988281 873.316406 C 218.257812 869.648438 190.609375 864.785156 165.65625 875.792969 C 172.792969 875.992188 182.175781 877.957031 188.847656 885.664062 C 201.066406 899.769531 199.441406 915.128906 199.441406 915.128906 C 199.441406 915.128906 224.230469 906.761719 237.539062 931.664062 C 250.847656 956.566406 227.917969 982.132812 227.917969 982.132812 C 227.917969 982.132812 260.359375 970.160156 282.085938 997.863281 C 303.8125 1025.558594 278.039062 1052.40625 278.039062 1052.40625 C 278.039062 1052.40625 334.757812 1037.445312 341.835938 1091.820312 Z M 160.585938 891.351562 C 160.585938 891.351562 145.996094 907.734375 146.804688 923.8125 C 147.613281 939.886719 159.730469 953.011719 159.730469 953.011719 C 159.730469 953.011719 145.421875 922.523438 160.585938 891.351562 Z M 178.382812 1009.402344 C 178.382812 1009.402344 165.960938 1053.027344 202.117188 1077.410156 C 238.273438 1101.792969 265.722656 1080.601562 265.722656 1080.601562 C 265.722656 1080.601562 192.535156 1095.125 178.382812 1009.402344 Z M 178.382812 1009.402344 " clip-rule="nonzero"/></clipPath><clipPath id="09ca6f7af2"><path d="M 962 813 L 1354 813 L 1354 1092 L 962 1092 Z M 962 813 " clip-rule="nonzero"/></clipPath><clipPath id="aed2474b05"><path d="M 1158.285156 1091.820312 C 1156.632812 1089.179688 1155.09375 1086.269531 1153.695312 1083.050781 C 1133.765625 1037.15625 1160.34375 1013.570312 1169.835938 1006.9375 C 1182.597656 1017.964844 1190.433594 1025.039062 1190.433594 1025.039062 C 1145.988281 942.296875 1024.816406 881.78125 962.707031 855.15625 L 991.386719 813.980469 C 1007.890625 833.019531 1051.128906 878.609375 1113.769531 913.351562 C 1194.984375 958.394531 1244.699219 954.386719 1244.699219 954.386719 C 1231.863281 950.59375 1219.566406 946.511719 1207.792969 942.210938 C 1205.363281 937.226562 1194.9375 912.894531 1212.210938 893.707031 C 1231.550781 872.21875 1248.683594 871.945312 1279.902344 881.125 C 1279.902344 881.125 1275.429688 877.199219 1268.132812 873.316406 C 1281.863281 869.648438 1309.511719 864.785156 1334.464844 875.792969 C 1327.328125 875.992188 1317.941406 877.957031 1311.269531 885.664062 C 1299.054688 899.769531 1300.679688 915.128906 1300.679688 915.128906 C 1300.679688 915.128906 1275.890625 906.761719 1262.582031 931.664062 C 1249.273438 956.566406 1272.203125 982.132812 1272.203125 982.132812 C 1272.203125 982.132812 1239.761719 970.160156 1218.035156 997.863281 C 1196.308594 1025.558594 1222.082031 1052.40625 1222.082031 1052.40625 C 1222.082031 1052.40625 1165.363281 1037.445312 1158.285156 1091.820312 Z M 1339.535156 891.351562 C 1339.535156 891.351562 1354.125 907.734375 1353.316406 923.8125 C 1352.507812 939.886719 1340.390625 953.011719 1340.390625 953.011719 C 1340.390625 953.011719 1354.699219 922.523438 1339.535156 891.351562 Z M 1321.738281 1009.402344 C 1321.738281 1009.402344 1334.15625 1053.027344 1298.003906 1077.410156 C 1261.847656 1101.792969 1234.398438 1080.601562 1234.398438 1080.601562 C 1234.398438 1080.601562 1307.585938 1095.125 1321.738281 1009.402344 Z M 1321.738281 1009.402344 " clip-rule="nonzero"/></clipPath></defs><path fill="#010101" d="M 519.390625 478.792969 C 519.390625 478.792969 580.558594 556.4375 657.550781 548.511719 C 734.539062 540.585938 755.828125 448.0625 755.828125 448.0625 C 755.828125 448.0625 769.613281 509.671875 832.097656 522.089844 C 894.585938 534.503906 922.40625 506.136719 922.40625 506.136719 C 922.40625 506.136719 915.367188 562.113281 963.882812 577.039062 C 1012.398438 591.960938 1059.554688 556.804688 1059.554688 556.804688 C 1059.554688 556.804688 1026.078125 610.480469 1070.40625 634.859375 C 1114.726562 659.238281 1197.871094 660.65625 1197.871094 660.65625 C 1197.871094 660.65625 1124.859375 681.960938 1119.820312 734.757812 C 1114.785156 787.558594 1141.480469 806.066406 1141.480469 806.066406 C 1141.480469 806.066406 1079.375 817.953125 1074.832031 874.890625 C 1070.289062 931.828125 1110.894531 974.285156 1110.894531 974.285156 C 1110.894531 974.285156 1049.394531 939.640625 1009.753906 955.707031 C 970.113281 971.773438 973.328125 1028.0625 973.328125 1028.0625 C 973.328125 1028.0625 913.828125 974.988281 857.039062 976.304688 C 800.25 977.625 779.835938 1083.335938 779.835938 1083.335938 C 779.835938 1083.335938 754.265625 987.449219 667.835938 973.691406 C 581.402344 959.929688 523.296875 1041.734375 523.296875 1041.734375 C 523.296875 1041.734375 577.824219 938.109375 521.144531 919.261719 C 464.46875 900.417969 410.296875 941.304688 410.296875 941.304688 C 410.296875 941.304688 474.417969 878.238281 455.898438 830.910156 C 437.382812 783.578125 338.796875 770.007812 338.796875 770.007812 C 338.796875 770.007812 426.914062 775.59375 450.59375 717.210938 C 474.273438 658.824219 397.34375 609.789062 397.34375 609.789062 C 397.34375 609.789062 595.992188 710.355469 519.390625 478.792969 Z M 519.390625 478.792969 " fill-opacity="1" fill-rule="nonzero"/><path fill="#010101" d="M 556.609375 640.585938 C 526.898438 630.546875 494 614.394531 472.265625 601.371094 C 427.449219 574.511719 370.878906 528.074219 337.65625 499.660156 C 353.457031 485.511719 395.304688 442.066406 372.007812 396.507812 C 345.738281 345.128906 282.761719 366.0625 262.476562 389.964844 C 253.765625 383.367188 241.71875 377.769531 225.085938 375.414062 C 178.699219 368.847656 112.109375 443.738281 149.964844 506.816406 C 134.335938 523.332031 88.96875 578.90625 135.3125 625.84375 C 180.386719 671.496094 222.21875 641.40625 235.976562 628.917969 C 250.273438 635.441406 272.296875 639.777344 293.460938 621.054688 C 317.914062 599.425781 315.234375 577.085938 311.230469 565.320312 C 394.929688 599.121094 450.71875 639.941406 509.894531 705.222656 C 521.445312 688.839844 541.019531 661.304688 556.609375 640.585938 Z M 556.609375 640.585938 " fill-opacity="1" fill-rule="nonzero"/><path fill="#fefefe" d="M 175.785156 535.148438 C 175.785156 535.148438 132.261719 467.476562 188.785156 418.722656 C 245.3125 369.96875 284.726562 424.300781 284.726562 424.300781 C 284.726562 424.300781 282.183594 406.867188 265.6875 392.574219 C 283.148438 385.664062 327.40625 373.445312 346.421875 417.21875 C 366.355469 463.109375 339.773438 486.699219 330.285156 493.328125 C 317.519531 482.300781 309.683594 475.230469 309.683594 475.230469 C 354.128906 557.96875 475.300781 618.488281 537.414062 645.109375 L 508.730469 686.289062 C 492.226562 667.25 448.988281 621.65625 386.347656 586.914062 C 305.132812 541.875 255.417969 545.878906 255.417969 545.878906 C 268.257812 549.675781 280.554688 553.753906 292.324219 558.054688 C 294.753906 563.042969 305.179688 587.371094 287.90625 606.558594 C 268.5625 628.046875 251.4375 628.320312 220.214844 619.140625 C 220.214844 619.140625 224.683594 623.070312 231.988281 626.949219 C 215.078125 631.464844 177.070312 637.796875 148.972656 614.074219 C 116.855469 586.945312 150.425781 534.441406 160.175781 520.632812 C 164.597656 525.609375 169.761719 530.46875 175.785156 535.144531 Z M 175.785156 535.148438 " fill-opacity="1" fill-rule="nonzero"/><g clip-path="url(#599ab296c5)"><g clip-path="url(#acce3bd93e)"><path fill="#000000" d="M 145.421875 398.46875 L 145.421875 686.285156 L 537.414062 686.285156 L 537.414062 398.46875 Z M 145.421875 398.46875 " fill-opacity="1" fill-rule="nonzero"/></g></g><path fill="#010101" d="M 943.507812 640.585938 C 973.222656 630.546875 1006.121094 614.394531 1027.851562 601.371094 C 1072.671875 574.511719 1129.242188 528.074219 1162.464844 499.660156 C 1146.664062 485.511719 1104.816406 442.066406 1128.113281 396.507812 C 1154.382812 345.128906 1217.359375 366.0625 1237.644531 389.964844 C 1246.351562 383.367188 1258.402344 377.769531 1275.035156 375.414062 C 1321.421875 368.847656 1388.011719 443.738281 1350.15625 506.816406 C 1365.785156 523.332031 1411.15625 578.90625 1364.8125 625.84375 C 1319.734375 671.496094 1277.902344 641.40625 1264.144531 628.917969 C 1249.847656 635.441406 1227.824219 639.777344 1206.65625 621.054688 C 1182.207031 599.425781 1184.886719 577.085938 1188.886719 565.320312 C 1105.191406 599.121094 1049.402344 639.941406 990.226562 705.222656 C 978.675781 688.839844 959.101562 661.304688 943.511719 640.585938 Z M 943.507812 640.585938 " fill-opacity="1" fill-rule="nonzero"/><path fill="#fefefe" d="M 1324.335938 535.148438 C 1324.335938 535.148438 1367.859375 467.476562 1311.335938 418.722656 C 1254.808594 369.96875 1215.394531 424.300781 1215.394531 424.300781 C 1215.394531 424.300781 1217.9375 406.867188 1234.429688 392.574219 C 1216.972656 385.664062 1172.714844 373.445312 1153.699219 417.21875 C 1133.765625 463.109375 1160.34375 486.699219 1169.835938 493.328125 C 1182.601562 482.300781 1190.4375 475.230469 1190.4375 475.230469 C 1145.988281 557.96875 1024.816406 618.488281 962.707031 645.109375 L 991.390625 686.289062 C 1007.890625 667.25 1051.132812 621.65625 1113.773438 586.914062 C 1194.988281 541.875 1244.699219 545.878906 1244.699219 545.878906 C 1231.863281 549.675781 1219.566406 553.753906 1207.792969 558.054688 C 1205.363281 563.042969 1194.941406 587.371094 1212.214844 606.558594 C 1231.554688 628.046875 1248.683594 628.320312 1279.902344 619.140625 C 1279.902344 619.140625 1275.433594 623.070312 1268.132812 626.949219 C 1285.039062 631.464844 1323.050781 637.796875 1351.148438 614.074219 C 1383.265625 586.945312 1349.691406 534.441406 1339.945312 520.632812 C 1335.519531 525.609375 1330.359375 530.46875 1324.335938 535.148438 Z M 1324.335938 535.148438 " fill-opacity="1" fill-rule="nonzero"/><g clip-path="url(#9547859447)"><g clip-path="url(#299bcf3e3f)"><path fill="#000000" d="M 962.707031 398.46875 L 962.707031 686.285156 L 1354.699219 686.285156 L 1354.699219 398.46875 Z M 962.707031 398.46875 " fill-opacity="1" fill-rule="nonzero"/></g></g><path fill="#010101" d="M 556.609375 859.675781 C 526.898438 869.71875 494 885.867188 472.265625 898.894531 C 427.449219 925.75 370.878906 972.1875 337.65625 1000.605469 C 353.457031 1014.753906 395.304688 1058.199219 372.007812 1103.753906 C 345.738281 1155.132812 282.761719 1134.203125 262.476562 1110.296875 C 253.765625 1116.898438 241.71875 1122.488281 225.085938 1124.847656 C 178.699219 1131.414062 112.109375 1056.527344 149.964844 993.445312 C 134.335938 976.933594 88.96875 921.359375 135.3125 874.421875 C 180.386719 828.769531 222.21875 858.855469 235.976562 871.347656 C 250.273438 864.824219 272.296875 860.488281 293.460938 879.207031 C 317.914062 900.832031 315.234375 923.175781 311.230469 934.941406 C 394.929688 901.140625 450.71875 860.320312 509.894531 795.039062 C 521.445312 811.425781 541.019531 838.957031 556.609375 859.675781 Z M 556.609375 859.675781 " fill-opacity="1" fill-rule="nonzero"/><path fill="#fefefe" d="M 175.785156 965.125 C 175.785156 965.125 132.261719 1032.796875 188.785156 1081.550781 C 245.3125 1130.304688 284.726562 1075.972656 284.726562 1075.972656 C 284.726562 1075.972656 282.183594 1093.40625 265.6875 1107.699219 C 283.148438 1114.605469 327.40625 1126.828125 346.421875 1083.054688 C 366.355469 1037.164062 339.773438 1013.574219 330.285156 1006.941406 C 317.519531 1017.96875 309.683594 1025.042969 309.683594 1025.042969 C 354.128906 942.304688 475.300781 881.78125 537.414062 855.160156 L 508.730469 813.984375 C 492.226562 833.023438 448.988281 878.617188 386.347656 913.355469 C 305.132812 958.398438 255.417969 954.394531 255.417969 954.394531 C 268.257812 950.597656 280.554688 946.519531 292.324219 942.214844 C 294.753906 937.230469 305.179688 912.902344 287.90625 893.710938 C 268.5625 872.222656 251.4375 871.949219 220.214844 881.128906 C 220.214844 881.128906 224.683594 877.203125 231.988281 873.320312 C 215.078125 868.804688 177.070312 862.472656 148.972656 886.199219 C 116.855469 913.324219 150.425781 965.832031 160.175781 979.640625 C 164.597656 974.664062 169.761719 969.804688 175.785156 965.125 Z M 175.785156 965.125 " fill-opacity="1" fill-rule="nonzero"/><g clip-path="url(#ca560a1873)"><g clip-path="url(#6f32c9a1ab)"><path fill="#000000" d="M 145.421875 813.980469 L 145.421875 1101.792969 L 537.414062 1101.792969 L 537.414062 813.980469 Z M 145.421875 813.980469 " fill-opacity="1" fill-rule="nonzero"/></g></g><path fill="#010101" d="M 943.507812 859.675781 C 973.222656 869.71875 1006.121094 885.867188 1027.851562 898.894531 C 1072.671875 925.75 1129.242188 972.1875 1162.464844 1000.605469 C 1146.664062 1014.753906 1104.816406 1058.199219 1128.113281 1103.753906 C 1154.382812 1155.132812 1217.359375 1134.203125 1237.644531 1110.296875 C 1246.351562 1116.898438 1258.402344 1122.488281 1275.035156 1124.847656 C 1321.421875 1131.414062 1388.011719 1056.527344 1350.15625 993.445312 C 1365.785156 976.933594 1411.15625 921.359375 1364.8125 874.421875 C 1319.734375 828.769531 1277.902344 858.855469 1264.144531 871.347656 C 1249.847656 864.824219 1227.824219 860.488281 1206.65625 879.207031 C 1182.207031 900.832031 1184.886719 923.175781 1188.886719 934.941406 C 1105.191406 901.140625 1049.402344 860.320312 990.226562 795.039062 C 978.675781 811.421875 959.101562 838.957031 943.511719 859.675781 Z M 943.507812 859.675781 " fill-opacity="1" fill-rule="nonzero"/><path fill="#fefefe" d="M 1324.335938 965.125 C 1324.335938 965.125 1367.859375 1032.796875 1311.335938 1081.550781 C 1254.808594 1130.304688 1215.394531 1075.972656 1215.394531 1075.972656 C 1215.394531 1075.972656 1217.9375 1093.40625 1234.429688 1107.699219 C 1216.972656 1114.605469 1172.714844 1126.828125 1153.699219 1083.054688 C 1133.765625 1037.164062 1160.34375 1013.574219 1169.835938 1006.941406 C 1182.601562 1017.96875 1190.4375 1025.042969 1190.4375 1025.042969 C 1145.988281 942.304688 1024.816406 881.78125 962.707031 855.160156 L 991.390625 813.984375 C 1007.890625 833.023438 1051.132812 878.617188 1113.773438 913.355469 C 1194.988281 958.398438 1244.699219 954.394531 1244.699219 954.394531 C 1231.863281 950.597656 1219.566406 946.519531 1207.792969 942.214844 C 1205.363281 937.230469 1194.941406 912.902344 1212.214844 893.710938 C 1231.554688 872.222656 1248.683594 871.949219 1279.902344 881.128906 C 1279.902344 881.128906 1275.433594 877.203125 1268.132812 873.320312 C 1285.039062 868.804688 1323.050781 862.472656 1351.148438 886.199219 C 1383.265625 913.324219 1349.691406 965.832031 1339.945312 979.640625 C 1335.519531 974.664062 1330.359375 969.804688 1324.335938 965.125 Z M 1324.335938 965.125 " fill-opacity="1" fill-rule="nonzero"/><g clip-path="url(#09ca6f7af2)"><g clip-path="url(#aed2474b05)"><path fill="#000000" d="M 962.707031 813.980469 L 962.707031 1101.792969 L 1354.699219 1101.792969 L 1354.699219 813.980469 Z M 962.707031 813.980469 " fill-opacity="1" fill-rule="nonzero"/></g></g><path fill="#010101" d="M 501.121094 463.222656 C 501.121094 463.222656 562.292969 540.871094 639.28125 532.945312 C 716.269531 525.019531 737.558594 432.496094 737.558594 432.496094 C 737.558594 432.496094 751.34375 494.105469 813.828125 506.523438 C 876.316406 518.9375 904.136719 490.570312 904.136719 490.570312 C 904.136719 490.570312 897.101562 546.546875 945.613281 561.472656 C 994.128906 576.394531 1041.285156 541.242188 1041.285156 541.242188 C 1041.285156 541.242188 1007.8125 594.914062 1052.136719 619.292969 C 1096.460938 643.671875 1179.601562 645.089844 1179.601562 645.089844 C 1179.601562 645.089844 1106.589844 666.394531 1101.550781 719.191406 C 1096.515625 771.992188 1123.210938 790.5 1123.210938 790.5 C 1123.210938 790.5 1061.105469 802.386719 1056.5625 859.324219 C 1052.023438 916.261719 1092.625 958.71875 1092.625 958.71875 C 1092.625 958.71875 1031.125 924.074219 991.484375 940.140625 C 951.84375 956.203125 955.058594 1012.496094 955.058594 1012.496094 C 955.058594 1012.496094 895.5625 959.421875 838.769531 960.738281 C 781.980469 962.058594 761.566406 1067.769531 761.566406 1067.769531 C 761.566406 1067.769531 735.996094 971.882812 649.566406 958.125 C 563.132812 944.363281 505.027344 1026.164062 505.027344 1026.164062 C 505.027344 1026.164062 559.554688 922.542969 502.875 903.695312 C 446.195312 884.847656 392.027344 925.738281 392.027344 925.738281 C 392.027344 925.738281 456.144531 862.671875 437.628906 815.34375 C 419.109375 768.007812 320.527344 754.441406 320.527344 754.441406 C 320.527344 754.441406 408.644531 760.027344 432.324219 701.644531 C 456.003906 643.261719 379.074219 594.222656 379.074219 594.222656 C 379.074219 594.222656 577.726562 694.789062 501.121094 463.222656 Z M 501.121094 463.222656 " fill-opacity="1" fill-rule="nonzero"/><path fill="#f4cf06" d="M 525.566406 503.222656 C 556.246094 641.019531 500.910156 646.101562 421.554688 619.417969 C 454.058594 661.90625 489.679688 716.945312 379.648438 758.332031 C 457.832031 784.199219 486.238281 830.695312 427.046875 895.671875 C 490.25 877.796875 551.410156 861.332031 537.511719 978.601562 C 600.363281 913.234375 710.769531 901.683594 758.996094 1033.148438 C 779.113281 922.214844 855.589844 904.296875 946.375 992.21875 C 950.101562 926.703125 993.722656 898.675781 1060.5 933.671875 C 1024.921875 873.214844 1022.871094 813.480469 1101.375 785.507812 C 1078.433594 737.058594 1058.945312 698.308594 1133.128906 654.191406 C 1084.835938 645.671875 997.039062 659.171875 1020.527344 564.898438 C 971.011719 592.367188 893.285156 591.414062 892.152344 509.660156 C 842.257812 537.566406 776.921875 543.722656 739.566406 458.761719 C 689.105469 549.789062 646.929688 588.507812 525.566406 503.222656 Z M 525.566406 503.222656 " fill-opacity="1" fill-rule="nonzero"/><path fill="#010101" d="M 452.996094 521.996094 L 393.441406 496.277344 L 391.75 526.398438 Z M 452.996094 978.273438 L 393.441406 1003.992188 L 391.75 973.875 Z M 1047.128906 978.273438 L 1106.679688 1003.992188 L 1108.371094 973.875 Z M 1024.792969 1004.671875 L 1039.34375 1050.015625 L 1018.027344 1054.417969 Z M 1101.605469 1029.035156 L 1078.664062 1056.089844 L 1000.511719 958.738281 Z M 475.328125 1004.671875 L 460.777344 1050.015625 L 482.097656 1054.417969 Z M 398.519531 1029.035156 L 421.460938 1056.089844 L 499.609375 958.738281 Z M 1047.128906 521.996094 L 1106.679688 496.277344 L 1108.371094 526.398438 Z M 1024.792969 495.601562 L 1039.34375 450.253906 L 1018.027344 445.851562 Z M 1101.605469 471.234375 L 1078.664062 444.179688 L 1000.511719 541.53125 Z M 475.328125 495.601562 L 460.777344 450.253906 L 482.097656 445.851562 Z M 398.519531 471.234375 L 421.460938 444.179688 L 499.609375 541.53125 Z M 398.519531 471.234375 " fill-opacity="1" fill-rule="nonzero"/><path fill="#010101" d="M 1136.277344 839.035156 C 1138.714844 842.496094 1140.761719 846.152344 1142.378906 850 C 1153.378906 861.109375 1159.890625 874.859375 1159.890625 890.738281 C 1159.890625 899.464844 1157.914062 907.910156 1154.355469 915.859375 C 1150.652344 924.136719 1145.308594 931.382812 1138.589844 937.472656 C 1131.445312 943.945312 1122.992188 948.589844 1113.933594 951.796875 C 1103.878906 955.359375 1093.203125 956.757812 1082.566406 956.757812 C 1073.742188 956.757812 1065.117188 955.058594 1057.113281 951.289062 C 1049.476562 947.695312 1042.808594 942.59375 1037.617188 935.917969 C 1034.238281 931.574219 1031.449219 926.855469 1029.234375 921.851562 C 1027.488281 920.179688 1025.855469 918.371094 1024.34375 916.429688 C 1019.820312 910.613281 1016.351562 904.117188 1013.898438 897.171875 C 1011.414062 890.132812 1010.078125 882.800781 1010.078125 875.328125 C 1010.078125 867.546875 1011.320312 859.875 1013.84375 852.515625 C 1016.523438 844.699219 1020.714844 837.660156 1026.328125 831.59375 C 1031.949219 825.527344 1038.683594 820.761719 1046.105469 817.148438 C 1046.300781 817.050781 1046.496094 816.960938 1046.691406 816.867188 L 1051.40625 798.144531 L 1052.210938 794.960938 C 1043.707031 802.726562 1034.328125 809.457031 1024.085938 814.980469 C 1011.375 821.835938 997.871094 826.160156 983.734375 827.621094 C 982.511719 833.609375 981.382812 839.617188 980.328125 845.632812 C 978.394531 856.695312 976.722656 867.792969 974.9375 878.878906 C 973.007812 890.886719 970.890625 902.863281 969.089844 914.894531 L 967.0625 928.402344 L 846.257812 952.148438 L 849.695312 936.660156 C 848.472656 936.8125 847.25 936.964844 846.03125 937.125 C 837.945312 938.175781 829.867188 939.757812 821.824219 941.097656 C 813.675781 942.457031 805.523438 943.816406 797.375 945.175781 L 771.835938 949.433594 L 774.519531 927.285156 L 760.839844 929.566406 L 760.105469 932.214844 L 747.464844 933.941406 C 739.503906 935.027344 731.527344 936 723.550781 936.929688 C 715.121094 937.914062 706.6875 938.851562 698.265625 939.867188 C 688.804688 941.003906 679.363281 942.25 669.914062 943.46875 L 640.265625 947.292969 L 646.832031 925.457031 C 643.429688 926.214844 640.03125 926.984375 636.628906 927.753906 C 628.726562 929.542969 620.839844 931.40625 612.972656 933.332031 C 607.382812 934.703125 601.671875 936.097656 596.171875 937.789062 L 573.230469 944.847656 L 571.246094 921.886719 L 559.960938 925.359375 L 559.410156 919 L 557.296875 929.859375 L 449.71875 954.914062 L 454.421875 931.242188 L 436.449219 935.429688 L 438.863281 923.277344 C 429.714844 929.289062 419.851562 934.144531 409.449219 937.929688 C 391.816406 944.34375 373.347656 947.246094 354.613281 947.246094 C 338.546875 947.246094 323.3125 942.777344 309.222656 935.203125 C 293.082031 926.523438 279.574219 913.414062 268.3125 899.105469 L 260.636719 889.355469 L 261.589844 887.488281 C 259.328125 884.921875 257.144531 882.292969 255.039062 879.617188 L 247.367188 869.871094 L 303.308594 760.238281 L 315.226562 782.378906 L 316.582031 779.726562 L 328.277344 801.457031 C 331.003906 803.871094 333.980469 805.976562 337.152344 807.785156 C 341.308594 810.164062 345.640625 812.25 350.128906 813.917969 C 352.324219 814.734375 355.265625 815.648438 357.640625 815.648438 C 359.53125 815.648438 361.460938 815.246094 363.257812 814.695312 C 365.132812 814.117188 366.839844 813.261719 368.425781 812.109375 C 369.496094 811.332031 370.511719 810.398438 371.226562 809.273438 C 371.289062 809.054688 371.304688 808.6875 371.308594 808.4375 C 370.023438 807.289062 368.707031 806.175781 367.367188 805.097656 C 360.339844 799.445312 353.097656 794.054688 345.726562 788.867188 C 337.140625 782.824219 328.925781 776.242188 321.246094 769.074219 C 313.226562 761.589844 306.28125 753.125 300.535156 743.78125 C 299.539062 742.164062 298.617188 740.519531 297.773438 738.851562 C 293.925781 734.273438 290.414062 729.414062 287.261719 724.296875 C 280.445312 713.214844 277.144531 700.890625 277.144531 687.878906 C 277.144531 667.867188 283.257812 649.433594 294.601562 632.960938 C 305.421875 617.253906 318.910156 603.90625 334.542969 592.980469 C 350.1875 582.046875 367.226562 573.464844 385.269531 567.230469 C 402.449219 561.292969 420.449219 557.5625 438.675781 557.5625 C 448.183594 557.5625 457.644531 558.695312 466.828125 561.183594 C 476.40625 563.773438 485.261719 568.128906 492.917969 574.472656 C 495.460938 576.582031 497.8125 578.863281 499.980469 581.296875 C 500.136719 579.902344 500.292969 578.511719 500.445312 577.117188 L 502.203125 560.917969 L 518.464844 559.867188 C 527.464844 559.289062 536.46875 558.722656 545.464844 558.066406 C 553.570312 557.476562 561.679688 556.914062 569.792969 556.460938 C 576.789062 556.074219 583.785156 555.601562 590.761719 554.933594 L 608.707031 553.226562 L 611.707031 571.003906 L 612.148438 573.648438 L 621.976562 572.714844 L 624.976562 590.488281 C 626.148438 597.410156 627.265625 604.339844 628.359375 611.273438 C 631.246094 597.746094 634.167969 584.226562 637.011719 570.691406 L 639.867188 557.136719 L 736.203125 545.292969 L 731.277344 567.011719 L 749.472656 564.777344 L 749.070312 566.546875 C 769.257812 565.046875 789.425781 563.28125 809.566406 561.28125 C 829.910156 559.261719 850.183594 556.492188 870.3125 552.886719 L 895.402344 548.394531 L 893.320312 570.632812 L 908.671875 567.878906 L 908.300781 571.824219 L 916.421875 569.304688 C 925.390625 566.519531 934.445312 564.039062 943.589844 561.914062 C 952.589844 559.828125 961.65625 558.023438 970.765625 556.480469 C 980.125 554.890625 989.628906 553.941406 999.128906 553.941406 C 1013.761719 553.941406 1028.628906 556.214844 1041.859375 562.722656 C 1053.492188 568.445312 1063.496094 576.457031 1071.257812 586.875 C 1074.394531 591.085938 1077.097656 595.53125 1079.398438 600.167969 C 1081.199219 602.128906 1082.914062 604.191406 1084.527344 606.359375 C 1088.546875 611.753906 1091.859375 617.539062 1094.511719 623.617188 C 1098.511719 607.78125 1102.566406 591.953125 1106.679688 576.144531 L 1109.875 563.855469 L 1122.410156 561.878906 C 1129.175781 560.808594 1135.972656 559.898438 1142.773438 559.066406 C 1150.023438 558.179688 1157.257812 557.152344 1164.476562 556 C 1171.976562 554.796875 1179.5 553.703125 1187.035156 552.742188 C 1192.632812 552.027344 1198.257812 551.242188 1203.804688 550.203125 L 1239.488281 543.507812 L 1229.25 567.402344 L 1252.761719 562.992188 L 1238.457031 596.371094 C 1222.464844 633.695312 1207.730469 671.5625 1194.347656 709.902344 C 1180.875 748.523438 1167.535156 787.191406 1154.328125 825.910156 L 1149.851562 839.035156 Z M 480.796875 704.660156 L 453.511719 712.5625 C 454.992188 714.089844 456.429688 715.660156 457.828125 717.269531 C 462.859375 723.050781 467.082031 729.453125 470.632812 736.21875 L 471.097656 736.753906 C 472.175781 737.988281 473.210938 739.25 474.210938 740.539062 C 474.949219 736.511719 475.691406 732.484375 476.445312 728.460938 C 477.925781 720.535156 479.375 712.597656 480.796875 704.660156 Z M 480.796875 704.660156 " fill-opacity="1" fill-rule="nonzero"/><path fill="#fefefe" d="M 870.300781 807.261719 C 871.761719 800.320312 873.210938 793.378906 874.644531 786.433594 C 878.191406 769.265625 881.605469 752.070312 885.046875 734.878906 C 888.597656 717.117188 892.0625 699.339844 895.441406 681.542969 C 898.640625 664.664062 901.808594 647.773438 904.9375 630.875 C 907.683594 616.0625 910.269531 601.210938 912.585938 586.324219 L 913.515625 580.351562 L 919.289062 578.558594 C 928.03125 575.847656 936.863281 573.425781 945.773438 571.355469 C 954.585938 569.3125 963.460938 567.546875 972.378906 566.035156 C 981.203125 564.539062 990.164062 563.632812 999.121094 563.632812 C 1012.234375 563.632812 1025.714844 565.585938 1037.578125 571.421875 C 1047.832031 576.464844 1056.640625 583.480469 1063.480469 592.664062 C 1070.273438 601.785156 1074.765625 612.132812 1077.363281 623.175781 C 1080.082031 634.726562 1081.246094 646.59375 1081.246094 658.445312 C 1081.246094 676.527344 1077.921875 694.082031 1071.289062 710.902344 C 1064.878906 727.160156 1056.09375 742.199219 1044.753906 755.511719 C 1033.855469 768.304688 1021.007812 778.980469 1006.210938 786.964844 C 992.550781 794.332031 977.929688 798.507812 962.503906 798.953125 C 960.644531 807.421875 959.003906 815.9375 957.511719 824.476562 C 955.570312 835.582031 953.890625 846.722656 952.101562 857.851562 C 950.160156 869.890625 948.039062 881.90625 946.234375 893.96875 L 945.21875 900.726562 L 845.65625 920.296875 L 848.863281 905.855469 C 843.085938 906.617188 837.292969 907.277344 831.511719 908.027344 C 823.304688 909.09375 815.121094 910.691406 806.957031 912.054688 C 798.808594 913.410156 790.660156 914.769531 782.511719 916.128906 L 769.738281 918.257812 L 771.296875 905.402344 C 772.484375 895.605469 773.773438 885.820312 774.914062 876.023438 C 775.882812 867.667969 776.628906 859.296875 777.378906 850.921875 C 777.710938 847.195312 778.046875 843.464844 778.394531 839.742188 L 757.046875 839.742188 L 739.199219 903.992188 L 732.882812 904.851562 C 724.984375 905.929688 717.070312 906.894531 709.15625 907.820312 C 700.714844 908.804688 692.269531 909.742188 683.835938 910.757812 C 674.351562 911.898438 664.875 913.148438 655.398438 914.371094 L 640.574219 916.28125 L 644.878906 901.96875 C 645.785156 898.949219 646.695312 895.929688 647.605469 892.914062 C 645.820312 893.289062 644.007812 893.730469 642.429688 894.078125 C 635.351562 895.628906 628.28125 897.214844 621.214844 898.816406 C 613.257812 900.617188 605.316406 902.492188 597.386719 904.4375 C 591.621094 905.851562 585.726562 907.292969 580.046875 909.039062 L 568.578125 912.570312 L 567.542969 900.613281 C 565.539062 877.398438 563.160156 854.222656 560.769531 831.046875 C 559.777344 821.4375 558.78125 811.828125 557.621094 802.242188 C 557.160156 798.453125 556.703125 794.667969 556.253906 790.878906 C 555.703125 794.253906 555.164062 797.632812 554.625 801.007812 C 553.132812 810.425781 551.386719 819.796875 549.59375 829.15625 C 545.316406 851.496094 541.261719 873.875 536.914062 896.199219 L 535.710938 902.359375 L 448.875 922.585938 L 451.800781 907.851562 C 456.089844 886.257812 460.441406 864.667969 464.71875 843.070312 C 464.324219 843.964844 463.921875 844.851562 463.503906 845.738281 C 456.550781 860.449219 447.046875 873.417969 434.984375 884.328125 C 422.683594 895.453125 408.429688 903.679688 392.863281 909.339844 C 376.292969 915.363281 358.945312 918.070312 341.339844 918.070312 C 326.886719 918.070312 313.207031 913.992188 300.535156 907.179688 C 285.601562 899.152344 273.066406 886.859375 262.652344 873.625 L 258.8125 868.75 L 303.535156 781.109375 L 312.296875 797.382812 C 314.210938 800.941406 317.105469 804.210938 319.996094 807 C 323.710938 810.582031 327.859375 813.644531 332.339844 816.203125 C 336.953125 818.839844 341.765625 821.148438 346.75 823.003906 C 350.125 824.257812 354.011719 825.339844 357.636719 825.339844 C 360.507812 825.339844 363.367188 824.800781 366.101562 823.957031 C 368.996094 823.066406 371.671875 821.730469 374.121094 819.949219 C 376.246094 818.402344 378.113281 816.550781 379.503906 814.308594 C 380.625 812.496094 380.996094 810.425781 380.996094 808.320312 C 380.996094 802.941406 379.171875 798.289062 375.9375 794.011719 C 371.421875 788.035156 365.992188 782.75 360.164062 778.0625 C 352.976562 772.28125 345.570312 766.765625 338.027344 761.457031 C 329.804688 755.667969 321.933594 749.367188 314.582031 742.503906 C 307.199219 735.613281 300.804688 727.820312 295.511719 719.21875 C 289.632812 709.664062 286.832031 699.097656 286.832031 687.878906 C 286.832031 669.832031 292.347656 653.3125 302.574219 638.460938 C 312.742188 623.707031 325.40625 611.191406 340.089844 600.925781 C 355 590.507812 371.234375 582.332031 388.425781 576.390625 C 404.578125 570.8125 421.535156 567.257812 438.671875 567.257812 C 447.320312 567.257812 455.933594 568.277344 464.292969 570.539062 C 472.527344 572.769531 480.144531 576.480469 486.730469 581.9375 C 493.269531 587.359375 498.3125 594.09375 501.96875 601.753906 C 503.597656 605.171875 504.8125 608.765625 505.691406 612.449219 C 507.339844 601.046875 508.828125 589.617188 510.074219 578.164062 L 510.953125 570.066406 L 519.082031 569.542969 C 528.109375 568.960938 537.140625 568.394531 546.164062 567.738281 C 554.214844 567.148438 562.261719 566.589844 570.324219 566.144531 C 577.445312 565.746094 584.574219 565.261719 591.671875 564.585938 L 600.644531 563.734375 L 602.148438 572.621094 C 605.894531 594.8125 609.140625 617.070312 612.578125 639.308594 C 614.035156 648.714844 615.722656 658.085938 617.308594 667.472656 C 618.746094 675.945312 620.171875 684.417969 621.585938 692.890625 C 623.292969 684.234375 625.023438 675.582031 626.78125 666.933594 C 628.683594 657.566406 630.511719 648.1875 632.445312 638.828125 C 637.019531 616.757812 641.847656 594.742188 646.488281 572.691406 L 647.914062 565.910156 L 723.695312 556.59375 L 720.648438 570.039062 C 710.984375 612.691406 702.132812 655.507812 693.539062 698.386719 C 690.003906 716.03125 686.351562 733.652344 682.914062 751.3125 C 679.566406 768.457031 676.324219 785.621094 673.203125 802.808594 C 672.410156 807.152344 671.632812 811.507812 670.875 815.863281 C 674.140625 805.027344 677.398438 794.195312 680.640625 783.355469 C 685.738281 766.320312 690.746094 749.257812 695.800781 732.210938 C 701.0625 714.46875 706.347656 696.726562 711.652344 678.992188 C 716.726562 662.027344 721.78125 645.054688 726.8125 628.078125 C 731.195312 613.277344 735.4375 598.425781 739.414062 583.511719 L 741.1875 576.847656 L 748.066406 576.339844 C 768.90625 574.808594 789.722656 572.996094 810.519531 570.929688 C 831.117188 568.886719 851.640625 566.082031 872.015625 562.433594 L 884.558594 560.183594 L 883.371094 572.875 C 882.253906 584.796875 881.324219 596.742188 880.445312 608.679688 C 879.300781 624.222656 878.347656 639.785156 877.511719 655.347656 C 876.566406 672.988281 875.667969 690.632812 874.796875 708.277344 C 873.910156 726.371094 872.875 744.457031 872.085938 762.558594 C 871.433594 777.453125 870.855469 792.355469 870.300781 807.261719 Z M 497.1875 666.488281 L 415.675781 690.105469 L 419.765625 673.753906 C 420.316406 671.542969 420.804688 669.316406 421.222656 667.074219 C 421.5625 665.273438 421.738281 663.449219 421.738281 661.617188 C 421.738281 657.988281 421.386719 650.90625 419.023438 647.871094 C 417.707031 646.175781 416.375 645.5 414.226562 645.5 C 413.171875 645.503906 410.789062 646.644531 409.878906 647.117188 C 406.765625 648.742188 403.855469 650.78125 401.15625 653.015625 C 398.472656 655.230469 396.230469 657.847656 394.410156 660.8125 C 392.957031 663.171875 392.222656 665.636719 392.222656 668.410156 C 392.222656 672.789062 393.1875 676.878906 396.054688 680.269531 C 399.894531 684.824219 404.496094 688.753906 409.371094 692.164062 C 415.644531 696.558594 422.074219 700.738281 428.59375 704.761719 C 436.859375 709.859375 444.144531 716.308594 450.511719 723.625 C 457.871094 732.09375 463.3125 742.074219 467.386719 752.488281 C 472.503906 765.570312 474.078125 780.449219 474.160156 794.449219 C 474.855469 790.785156 475.542969 787.117188 476.226562 783.449219 C 479.527344 765.722656 482.648438 747.964844 485.960938 730.242188 C 489.359375 712.066406 492.601562 693.863281 495.660156 675.632812 C 496.175781 672.585938 496.683594 669.535156 497.1875 666.488281 Z M 1122.710938 809.855469 C 1114.175781 809.855469 1105.636719 810.152344 1097.121094 810.738281 C 1088.367188 811.34375 1079.613281 811.945312 1070.863281 812.550781 L 1057.535156 813.472656 L 1060.800781 800.511719 C 1070.101562 763.613281 1079.222656 726.667969 1088.167969 689.675781 C 1097.136719 652.5625 1106.4375 615.535156 1116.046875 578.582031 L 1117.644531 572.441406 L 1123.914062 571.453125 C 1130.570312 570.402344 1137.253906 569.507812 1143.941406 568.6875 C 1151.308594 567.785156 1158.664062 566.742188 1165.996094 565.570312 C 1173.398438 564.382812 1180.820312 563.304688 1188.253906 562.355469 C 1194.039062 561.617188 1199.851562 560.800781 1205.582031 559.726562 L 1223.425781 556.378906 L 1216.273438 573.066406 C 1200.191406 610.597656 1185.375 648.671875 1171.925781 687.222656 C 1158.4375 725.867188 1145.09375 764.558594 1131.882812 803.292969 L 1129.644531 809.855469 Z M 1136.925781 871.25 C 1136.925781 878.613281 1135.234375 885.710938 1132.234375 892.414062 C 1129.082031 899.46875 1124.53125 905.617188 1118.804688 910.804688 C 1112.621094 916.410156 1105.261719 920.398438 1097.425781 923.175781 C 1088.417969 926.363281 1078.816406 927.578125 1069.292969 927.578125 C 1061.894531 927.578125 1054.671875 926.191406 1047.960938 923.035156 C 1041.707031 920.089844 1036.246094 915.949219 1031.988281 910.480469 C 1028.101562 905.484375 1025.136719 899.914062 1023.03125 893.949219 C 1020.914062 887.945312 1019.761719 881.699219 1019.761719 875.328125 C 1019.761719 868.613281 1020.828125 862.007812 1023.003906 855.65625 C 1025.242188 849.117188 1028.738281 843.253906 1033.433594 838.179688 C 1038.230469 832.996094 1044 828.945312 1050.339844 825.863281 C 1057.925781 822.171875 1066.34375 820.8125 1074.722656 820.8125 C 1091.207031 820.8125 1108.429688 824.210938 1120.777344 835.921875 C 1130.835938 845.460938 1136.925781 857.265625 1136.925781 871.25 Z M 773.113281 774.570312 C 774.289062 774.511719 775.46875 774.460938 776.648438 774.410156 C 779.132812 774.300781 781.617188 774.191406 784.101562 774.070312 C 784.113281 773.820312 784.125 773.570312 784.136719 773.324219 L 785.964844 723.597656 Z M 992.226562 641.367188 C 989.667969 656.425781 987 671.46875 984.203125 686.484375 C 982.035156 698.109375 979.835938 709.726562 977.613281 721.339844 C 980.578125 718.148438 983.203125 714.597656 985.519531 710.960938 C 989.875 704.136719 992.996094 696.554688 995.25 688.796875 C 997.777344 680.097656 998.9375 671.125 998.9375 662.070312 C 998.9375 655.898438 998.074219 647.941406 993.84375 643.070312 C 993.335938 642.484375 992.796875 641.910156 992.226562 641.367188 Z M 992.226562 641.367188 " fill-opacity="1" fill-rule="nonzero"/><path fill="#00a2e9" d="M 464.480469 795.644531 C 464.480469 812.546875 461.234375 827.863281 454.746094 841.597656 C 448.257812 855.332031 439.503906 867.179688 428.488281 877.140625 C 417.472656 887.101562 404.496094 894.800781 389.558594 900.230469 C 374.617188 905.667969 358.546875 908.382812 341.34375 908.382812 C 329.273438 908.382812 317.199219 905.136719 305.128906 898.648438 C 293.054688 892.160156 281.433594 881.820312 270.269531 867.632812 L 303.769531 801.980469 C 305.882812 805.90625 309.050781 809.90625 313.273438 813.980469 C 317.5 818.054688 322.253906 821.601562 327.535156 824.621094 C 332.816406 827.636719 338.097656 830.128906 343.378906 832.089844 C 348.660156 834.054688 353.414062 835.03125 357.640625 835.03125 C 361.261719 835.03125 365.035156 834.429688 368.957031 833.222656 C 372.882812 832.015625 376.503906 830.203125 379.824219 827.789062 C 383.144531 825.375 385.78125 822.582031 387.746094 819.414062 C 389.707031 816.242188 390.6875 812.546875 390.6875 808.320312 C 390.6875 801.078125 388.347656 794.359375 383.671875 788.171875 C 378.992188 781.984375 373.183594 776.097656 366.242188 770.511719 C 359.296875 764.929688 351.757812 759.269531 343.605469 753.535156 C 335.457031 747.800781 327.988281 741.761719 321.195312 735.421875 C 314.40625 729.085938 308.597656 721.988281 303.765625 714.140625 C 298.9375 706.292969 296.523438 697.539062 296.523438 687.882812 C 296.523438 672.183594 301.203125 657.542969 310.558594 643.960938 C 319.914062 630.378906 331.609375 618.679688 345.644531 608.871094 C 359.679688 599.0625 374.996094 591.289062 391.59375 585.554688 C 408.191406 579.820312 423.886719 576.953125 438.675781 576.953125 C 446.824219 576.953125 454.519531 577.933594 461.761719 579.894531 C 469.003906 581.855469 475.269531 585.027344 480.550781 589.402344 C 485.832031 593.78125 490.054688 599.289062 493.226562 605.929688 C 496.394531 612.570312 497.980469 620.871094 497.980469 630.832031 C 497.980469 635.058594 497.601562 639.285156 496.847656 643.507812 C 496.09375 647.734375 495.414062 652.261719 494.808594 657.09375 L 429.167969 676.109375 C 429.769531 673.695312 430.300781 671.28125 430.753906 668.863281 C 431.203125 666.449219 431.433594 664.035156 431.433594 661.621094 C 431.433594 652.566406 429.847656 646 426.675781 641.925781 C 423.507812 637.851562 419.359375 635.8125 414.230469 635.8125 C 411.816406 635.8125 408.871094 636.71875 405.398438 638.53125 C 401.929688 640.339844 398.457031 642.679688 394.988281 645.546875 C 391.515625 648.414062 388.574219 651.8125 386.160156 655.734375 C 383.746094 659.660156 382.539062 663.886719 382.539062 668.414062 C 382.539062 675.65625 384.574219 681.695312 388.648438 686.523438 C 392.722656 691.351562 397.78125 695.882812 403.816406 700.105469 C 409.851562 704.332031 416.417969 708.632812 423.507812 713.011719 C 430.601562 717.386719 437.164062 723.046875 443.203125 729.992188 C 449.238281 736.933594 454.292969 745.613281 458.367188 756.023438 C 462.441406 766.4375 464.480469 779.644531 464.480469 795.644531 Z M 461.308594 909.738281 C 469.761719 867.179688 477.910156 825.675781 485.757812 785.226562 C 488.773438 768.324219 492.019531 750.589844 495.488281 732.027344 C 498.960938 713.460938 502.203125 695.199219 505.222656 677.242188 C 508.242188 659.28125 511.035156 641.925781 513.597656 625.171875 C 516.164062 608.417969 518.203125 593.097656 519.710938 579.214844 C 529.066406 578.609375 538.121094 578.007812 546.875 577.402344 C 554.71875 576.800781 562.714844 576.269531 570.863281 575.816406 C 579.015625 575.367188 586.257812 574.835938 592.59375 574.234375 C 596.519531 597.476562 599.992188 619.660156 603.007812 640.792969 C 604.519531 649.847656 606.101562 659.28125 607.761719 669.089844 C 609.421875 678.898438 611.003906 688.332031 612.515625 697.390625 C 614.023438 706.445312 615.53125 715.121094 617.042969 723.421875 C 618.550781 731.722656 620.058594 739.042969 621.570312 745.382812 C 622.777344 739.042969 624.136719 731.722656 625.644531 723.421875 C 627.152344 715.121094 628.8125 706.371094 630.625 697.164062 C 632.433594 687.953125 634.320312 678.523438 636.28125 668.863281 C 638.246094 659.203125 640.128906 649.847656 641.941406 640.792969 C 646.46875 619.664062 651.148438 597.628906 655.976562 574.6875 L 711.207031 567.894531 C 700.945312 613.171875 691.890625 656.03125 684.042969 696.484375 C 680.421875 713.988281 676.875 731.648438 673.402344 749.457031 C 669.933594 767.265625 666.6875 784.472656 663.671875 801.074219 C 660.652344 817.675781 658.089844 832.992188 655.976562 847.03125 C 653.863281 861.066406 652.203125 872.914062 650.996094 882.574219 C 650.089844 882.574219 646.542969 883.25 640.359375 884.609375 C 634.167969 885.96875 627.078125 887.554688 619.078125 889.363281 C 611.082031 891.175781 603.082031 893.0625 595.085938 895.023438 C 587.085938 896.988281 581.125 898.570312 577.203125 899.777344 C 575.089844 875.328125 572.828125 852.085938 570.410156 830.050781 C 569.507812 820.691406 568.449219 811.03125 567.242188 801.074219 C 566.035156 791.113281 564.902344 781.605469 563.847656 772.550781 C 562.792969 763.496094 561.734375 754.964844 560.679688 746.96875 C 559.625 738.96875 558.644531 732.25 557.734375 726.816406 C 556.832031 732.25 555.621094 738.890625 554.117188 746.738281 C 552.605469 754.589844 551.097656 762.964844 549.589844 771.871094 C 548.078125 780.773438 546.570312 789.980469 545.058594 799.488281 C 543.550781 808.996094 541.890625 818.28125 540.078125 827.335938 C 536.15625 848.765625 531.929688 871.105469 527.40625 894.34375 Z M 830.265625 898.421875 C 822.722656 899.628906 814.421875 900.988281 805.367188 902.496094 C 796.3125 904.003906 788.164062 905.363281 780.921875 906.570312 C 782.128906 896.609375 783.335938 886.800781 784.542969 877.140625 C 785.449219 868.6875 786.28125 860.238281 787.03125 851.785156 C 787.789062 843.332031 788.464844 836.089844 789.070312 830.050781 L 749.6875 830.050781 L 731.578125 895.25 C 724.9375 896.15625 717.09375 897.136719 708.035156 898.195312 C 698.980469 899.25 690.53125 900.230469 682.683594 901.140625 C 673.027344 902.347656 663.519531 903.554688 654.164062 904.761719 C 666.238281 864.613281 678.15625 825.070312 689.925781 786.132812 C 694.757812 769.832031 699.8125 752.78125 705.09375 734.96875 C 710.375 717.160156 715.660156 699.425781 720.9375 681.769531 C 726.222656 664.109375 731.273438 647.132812 736.105469 630.832031 C 740.933594 614.53125 745.15625 599.589844 748.777344 586.007812 C 769.304688 584.496094 790.203125 582.6875 811.480469 580.574219 C 832.757812 578.460938 853.507812 575.59375 873.726562 571.972656 C 872.820312 581.632812 871.84375 593.628906 870.785156 607.964844 C 869.730469 622.304688 868.746094 637.925781 867.84375 654.828125 C 866.933594 671.730469 866.03125 689.390625 865.125 707.804688 C 864.21875 726.214844 863.316406 744.328125 862.410156 762.136719 C 860.902344 803.792969 859.242188 848.011719 857.429688 894.800781 C 848.375 896.308594 839.320312 897.515625 830.265625 898.421875 Z M 760.550781 784.773438 C 761.757812 784.773438 763.945312 784.699219 767.113281 784.546875 C 770.285156 784.394531 773.605469 784.246094 777.074219 784.09375 C 780.546875 783.945312 783.789062 783.792969 786.804688 783.644531 C 789.824219 783.492188 791.9375 783.265625 793.144531 782.964844 C 793.144531 781.152344 793.660156 778.078125 793.824219 773.683594 L 799.03125 632.1875 Z M 858.335938 907.929688 C 867.390625 867.179688 875.988281 827.335938 884.136719 788.394531 C 887.457031 772.097656 890.929688 754.890625 894.550781 736.78125 C 898.171875 718.667969 901.644531 700.859375 904.960938 683.351562 C 908.28125 665.84375 911.453125 648.941406 914.46875 632.640625 C 917.488281 616.34375 920.050781 601.398438 922.167969 587.816406 C 930.917969 585.101562 939.519531 582.761719 947.96875 580.800781 C 956.421875 578.835938 965.097656 577.101562 974 575.59375 C 982.902344 574.082031 991.28125 573.328125 999.125 573.328125 C 1012.707031 573.328125 1024.101562 575.59375 1033.304688 580.121094 C 1042.511719 584.648438 1049.980469 590.761719 1055.714844 598.457031 C 1061.449219 606.15625 1065.523438 615.136719 1067.9375 625.398438 C 1070.351562 635.660156 1071.558594 646.675781 1071.558594 658.449219 C 1071.558594 675.355469 1068.464844 691.652344 1062.277344 707.351562 C 1056.09375 723.046875 1047.792969 737.007812 1037.378906 749.234375 C 1026.96875 761.457031 1015.046875 771.191406 1001.617188 778.4375 C 988.1875 785.679688 974.226562 789.304688 959.742188 789.304688 L 954.761719 789.304688 C 952.347656 799.566406 950.082031 810.734375 947.96875 822.808594 C 945.855469 834.882812 944.046875 846.050781 942.539062 856.3125 C 940.425781 868.386719 938.464844 880.460938 936.652344 892.535156 Z M 984.640625 628.113281 C 981.320312 648.035156 978 666.902344 974.679688 684.710938 C 971.359375 702.523438 967.738281 721.539062 963.816406 741.761719 C 968.644531 740.554688 973.699219 737.761719 978.980469 733.382812 C 984.261719 729.007812 989.167969 723.273438 993.695312 716.179688 C 998.222656 709.085938 1001.84375 700.859375 1004.558594 691.5 C 1007.277344 682.144531 1008.632812 672.335938 1008.632812 662.070312 C 1008.632812 650.902344 1006.144531 642.449219 1001.164062 636.714844 C 996.183594 630.980469 990.675781 628.113281 984.640625 628.113281 Z M 1122.714844 800.167969 C 1113.960938 800.167969 1105.210938 800.472656 1096.457031 801.074219 C 1087.707031 801.679688 1078.953125 802.285156 1070.203125 802.886719 C 1079.558594 765.757812 1088.6875 728.78125 1097.589844 691.957031 C 1106.492188 655.132812 1115.773438 618.15625 1125.433594 581.027344 C 1131.167969 580.121094 1137.730469 579.214844 1145.125 578.308594 C 1152.519531 577.40625 1159.988281 576.347656 1167.535156 575.140625 C 1175.082031 573.933594 1182.398438 572.875 1189.488281 571.972656 C 1196.582031 571.0625 1202.542969 570.160156 1207.371094 569.253906 C 1191.078125 607.289062 1176.210938 645.546875 1162.78125 684.03125 C 1149.347656 722.519531 1135.996094 761.230469 1122.714844 800.167969 Z M 1127.242188 871.253906 C 1127.242188 876.992188 1125.960938 882.722656 1123.394531 888.460938 C 1120.828125 894.195312 1117.128906 899.25 1112.300781 903.628906 C 1107.472656 908.003906 1101.4375 911.476562 1094.195312 914.042969 C 1086.949219 916.609375 1078.652344 917.890625 1069.296875 917.890625 C 1062.957031 917.890625 1057.222656 916.683594 1052.089844 914.269531 C 1046.960938 911.855469 1042.8125 908.609375 1039.644531 904.535156 C 1036.472656 900.460938 1033.984375 895.855469 1032.171875 890.722656 C 1030.363281 885.59375 1029.457031 880.460938 1029.457031 875.332031 C 1029.457031 869.59375 1030.363281 864.085938 1032.171875 858.804688 C 1033.984375 853.523438 1036.777344 848.84375 1040.546875 844.769531 C 1044.324219 840.695312 1049 837.296875 1054.585938 834.582031 C 1060.167969 831.863281 1066.882812 830.503906 1074.730469 830.503906 C 1092.234375 830.503906 1105.359375 834.65625 1114.113281 842.957031 C 1122.867188 851.257812 1127.242188 860.691406 1127.242188 871.253906 Z M 1127.242188 871.253906 " fill-opacity="1" fill-rule="nonzero"/><path fill="#010101" d="M 935.390625 1006.605469 L 898.734375 1022.042969 L 906.921875 983.117188 L 880.910156 953.019531 L 920.457031 948.777344 L 941.042969 914.734375 L 957.296875 951.042969 L 996.027344 960.097656 L 966.523438 986.78125 L 969.878906 1026.417969 Z M 935.390625 1006.605469 " fill-opacity="1" fill-rule="nonzero"/><path fill="#e61f24" d="M 956.894531 1006.015625 L 936.164062 994.105469 L 914.121094 1003.386719 L 919.046875 979.988281 L 903.402344 961.890625 L 927.183594 959.34375 L 939.558594 938.878906 L 949.328125 960.699219 L 972.613281 966.148438 L 954.878906 982.1875 Z M 956.894531 1006.015625 " fill-opacity="1" fill-rule="nonzero"/><path fill="#010101" d="M 762.484375 547.5 L 783.867188 540.414062 L 777.511719 562.03125 L 790.855469 580.183594 L 768.335938 580.816406 L 755.203125 599.113281 L 747.644531 577.894531 L 726.183594 571.054688 L 744.023438 557.304688 L 743.894531 534.777344 Z M 762.484375 547.5 " fill-opacity="1" fill-rule="nonzero"/><path fill="#e61f24" d="M 750.316406 546.875 L 761.492188 554.523438 L 774.34375 550.265625 L 770.527344 563.257812 L 778.546875 574.171875 L 765.011719 574.546875 L 757.113281 585.554688 L 752.574219 572.796875 L 739.667969 568.683594 L 750.394531 560.417969 Z M 750.316406 546.875 " fill-opacity="1" fill-rule="nonzero"/><path fill="#010101" d="M 956.765625 447.867188 L 919.007812 435.359375 L 930.230469 473.519531 L 906.664062 505.574219 L 946.425781 506.6875 L 969.617188 539.003906 L 982.96875 501.53125 L 1020.867188 489.457031 L 989.359375 465.179688 L 989.585938 425.394531 Z M 956.765625 447.867188 " fill-opacity="1" fill-rule="nonzero"/><path fill="#e61f24" d="M 978.246094 446.753906 L 958.511719 460.261719 L 935.8125 452.75 L 942.5625 475.6875 L 928.394531 494.957031 L 952.296875 495.628906 L 966.242188 515.058594 L 974.265625 492.527344 L 997.050781 485.269531 L 978.109375 470.671875 Z M 978.246094 446.753906 " fill-opacity="1" fill-rule="nonzero"/><path fill="#010101" d="M 1273.710938 805.765625 L 1277.726562 827.371094 L 1257.6875 818.363281 L 1238.390625 828.851562 L 1240.757812 807.011719 L 1224.8125 791.894531 L 1246.316406 787.398438 L 1255.769531 767.566406 L 1266.691406 786.628906 L 1288.46875 789.488281 Z M 1273.710938 805.765625 " fill-opacity="1" fill-rule="nonzero"/><path fill="#e61f24" d="M 1275.929688 794.09375 L 1267.0625 803.878906 L 1269.472656 816.871094 L 1257.425781 811.449219 L 1245.828125 817.757812 L 1247.246094 804.625 L 1237.667969 795.539062 L 1250.589844 792.839844 L 1256.273438 780.914062 L 1262.832031 792.371094 Z M 1275.929688 794.09375 " fill-opacity="1" fill-rule="nonzero"/><path fill="#010101" d="M 653.550781 1025.144531 L 638.773438 1011.816406 L 658.140625 1007.257812 L 666.242188 989.082031 L 676.570312 1006.09375 L 696.351562 1008.183594 L 683.367188 1023.265625 L 687.492188 1042.734375 L 669.136719 1035.039062 L 651.898438 1044.976562 Z M 653.550781 1025.144531 " fill-opacity="1" fill-rule="nonzero"/><path fill="#e61f24" d="M 658.382812 1034.765625 L 659.375 1022.835938 L 650.488281 1014.828125 L 662.128906 1012.085938 L 667.003906 1001.15625 L 673.214844 1011.382812 L 685.105469 1012.640625 L 677.296875 1021.707031 L 679.78125 1033.414062 L 668.75 1028.785156 Z M 658.382812 1034.765625 " fill-opacity="1" fill-rule="nonzero"/><path fill="#010101" d="M 1301.457031 613.753906 L 1308.71875 652.867188 L 1272.4375 636.5625 L 1237.492188 655.558594 L 1241.785156 616.007812 L 1212.917969 588.636719 L 1251.851562 580.503906 L 1268.960938 544.585938 L 1288.730469 579.101562 L 1328.171875 584.28125 Z M 1301.457031 613.753906 " fill-opacity="1" fill-rule="nonzero"/><path fill="#f4cf00" d="M 1305.472656 592.621094 L 1289.410156 610.335938 L 1293.773438 633.851562 L 1271.96875 624.046875 L 1250.960938 635.46875 L 1253.535156 611.691406 L 1236.183594 595.238281 L 1259.59375 590.34375 L 1269.875 568.753906 L 1281.761719 589.507812 Z M 1305.472656 592.621094 " fill-opacity="1" fill-rule="nonzero"/><path fill="#010101" d="M 609.5625 923.933594 L 580.019531 897.296875 L 618.738281 888.183594 L 634.9375 851.851562 L 655.570312 885.855469 L 695.125 890.035156 L 669.15625 920.171875 L 677.410156 959.089844 L 640.730469 943.707031 L 606.269531 963.578125 Z M 609.5625 923.933594 " fill-opacity="1" fill-rule="nonzero"/><path fill="#f4cf00" d="M 619.222656 943.15625 L 621.207031 919.324219 L 603.441406 903.308594 L 626.71875 897.828125 L 636.457031 875.988281 L 648.863281 896.433594 L 672.644531 898.949219 L 657.035156 917.066406 L 661.988281 940.457031 L 639.941406 931.210938 Z M 619.222656 943.15625 " fill-opacity="1" fill-rule="nonzero"/><path fill="#010101" d="M 232.585938 746.953125 L 243.382812 708.664062 L 268.695312 739.347656 L 308.441406 737.78125 L 287.09375 771.34375 L 300.859375 808.667969 L 262.347656 798.730469 L 231.117188 823.367188 L 228.660156 783.65625 L 195.589844 761.5625 Z M 232.585938 746.953125 " fill-opacity="1" fill-rule="nonzero"/><path fill="#e61f24" d="M 219.632812 764.132812 L 241.871094 755.351562 L 248.363281 732.332031 L 263.585938 750.777344 L 287.476562 749.839844 L 274.644531 770.015625 L 282.921875 792.449219 L 259.769531 786.476562 L 240.988281 801.289062 L 239.511719 777.414062 Z M 219.632812 764.132812 " fill-opacity="1" fill-rule="nonzero"/><path fill="#010101" d="M 605.234375 554.417969 L 642.992188 541.90625 L 631.769531 580.074219 L 655.335938 612.121094 L 615.574219 613.238281 L 592.382812 645.554688 L 579.03125 608.078125 L 541.128906 596.003906 L 572.640625 571.726562 L 572.410156 531.949219 Z M 605.234375 554.417969 " fill-opacity="1" fill-rule="nonzero"/><path fill="#f4cf00" d="M 583.753906 553.308594 L 603.488281 566.816406 L 626.1875 559.292969 L 619.441406 582.242188 L 633.605469 601.503906 L 609.703125 602.175781 L 595.753906 621.605469 L 587.730469 599.082031 L 564.949219 591.816406 L 583.890625 577.222656 Z M 583.753906 553.308594 " fill-opacity="1" fill-rule="nonzero"/><path fill="#010101" d="M 1065.675781 579.964844 L 1044.292969 572.878906 L 1050.648438 594.488281 L 1037.304688 612.640625 L 1059.816406 613.273438 L 1072.953125 631.574219 L 1080.515625 610.355469 L 1101.976562 603.511719 L 1084.128906 589.769531 L 1084.265625 567.238281 Z M 1065.675781 579.964844 " fill-opacity="1" fill-rule="nonzero"/><path fill="#f4cf00" d="M 1077.835938 579.339844 L 1066.667969 586.988281 L 1053.808594 582.726562 L 1057.632812 595.714844 L 1049.605469 606.625 L 1063.144531 607.011719 L 1071.039062 618.011719 L 1075.585938 605.257812 L 1088.492188 601.148438 L 1077.761719 592.875 Z M 1077.835938 579.339844 " fill-opacity="1" fill-rule="nonzero"/><path fill="#010101" d="M 292.671875 659.742188 L 298.820312 637.933594 L 313.246094 655.410156 L 335.882812 654.515625 L 323.71875 673.636719 L 331.5625 694.890625 L 309.625 689.234375 L 291.835938 703.261719 L 290.4375 680.648438 L 271.597656 668.058594 Z M 292.671875 659.742188 " fill-opacity="1" fill-rule="nonzero"/><path fill="#f4cf00" d="M 285.296875 669.523438 L 297.964844 664.523438 L 301.660156 651.414062 L 310.332031 661.921875 L 323.941406 661.382812 L 316.628906 672.878906 L 321.347656 685.65625 L 308.15625 682.25 L 297.460938 690.6875 L 296.621094 677.089844 Z M 285.296875 669.523438 " fill-opacity="1" fill-rule="nonzero"/></svg>