<svg xmlns="http://www.w3.org/2000/svg" xmlns:xlink="http://www.w3.org/1999/xlink" width="2000" zoomAndPan="magnify" viewBox="0 0 1500 1499.999933" height="2000" preserveAspectRatio="xMidYMid meet" version="1.0"><defs><clipPath id="f0b8509b94"><path d="M 146 408 L 538 408 L 538 687 L 146 687 Z M 146 408 " clip-rule="nonzero"/></clipPath><clipPath id="9d59bdd7e4"><path d="M 341.835938 408.449219 C 343.488281 411.085938 345.027344 413.996094 346.421875 417.214844 C 366.355469 463.105469 339.773438 486.695312 330.285156 493.328125 C 317.523438 482.296875 309.6875 475.226562 309.6875 475.226562 C 354.132812 557.964844 475.304688 618.484375 537.414062 645.105469 L 508.730469 686.285156 C 492.230469 667.246094 448.992188 621.652344 386.347656 586.914062 C 305.136719 541.871094 255.417969 545.875 255.417969 545.875 C 268.257812 549.671875 280.554688 553.75 292.328125 558.054688 C 294.757812 563.039062 305.179688 587.367188 287.910156 606.558594 C 268.566406 628.046875 251.4375 628.316406 220.21875 619.140625 C 220.21875 619.140625 224.6875 623.066406 231.988281 626.949219 C 218.257812 630.613281 190.609375 635.480469 165.65625 624.46875 C 172.796875 624.269531 182.175781 622.304688 188.851562 614.601562 C 201.066406 600.496094 199.441406 585.136719 199.441406 585.136719 C 199.441406 585.136719 224.230469 593.503906 237.539062 568.597656 C 250.847656 543.695312 227.914062 518.128906 227.914062 518.128906 C 227.914062 518.128906 260.359375 530.101562 282.085938 502.402344 C 303.8125 474.703125 278.035156 447.859375 278.035156 447.859375 C 278.035156 447.859375 334.757812 462.816406 341.835938 408.449219 Z M 160.582031 608.910156 C 160.582031 608.910156 145.996094 592.53125 146.804688 576.453125 C 147.613281 560.375 159.734375 547.253906 159.734375 547.253906 C 159.734375 547.253906 145.421875 577.742188 160.582031 608.910156 Z M 178.382812 490.859375 C 178.382812 490.859375 165.964844 447.238281 202.117188 422.851562 C 238.273438 398.46875 265.722656 419.660156 265.722656 419.660156 C 265.722656 419.660156 192.535156 405.140625 178.382812 490.859375 Z M 178.382812 490.859375 " clip-rule="nonzero"/></clipPath><clipPath id="9dc032f48b"><path d="M 962 408 L 1354 408 L 1354 687 L 962 687 Z M 962 408 " clip-rule="nonzero"/></clipPath><clipPath id="8142729f19"><path d="M 1158.285156 408.449219 C 1156.632812 411.085938 1155.09375 413.996094 1153.695312 417.214844 C 1133.761719 463.105469 1160.34375 486.695312 1169.835938 493.328125 C 1182.597656 482.296875 1190.433594 475.226562 1190.433594 475.226562 C 1145.988281 557.964844 1024.816406 618.484375 962.703125 645.105469 L 991.386719 686.285156 C 1007.890625 667.246094 1051.128906 621.652344 1113.769531 586.914062 C 1194.984375 541.871094 1244.699219 545.875 1244.699219 545.875 C 1231.863281 549.671875 1219.566406 553.75 1207.792969 558.054688 C 1205.363281 563.039062 1194.9375 587.367188 1212.210938 606.558594 C 1231.550781 628.046875 1248.683594 628.316406 1279.902344 619.140625 C 1279.902344 619.140625 1275.433594 623.066406 1268.132812 626.949219 C 1281.863281 630.613281 1309.511719 635.480469 1334.464844 624.46875 C 1327.324219 624.269531 1317.941406 622.304688 1311.269531 614.601562 C 1299.054688 600.496094 1300.679688 585.136719 1300.679688 585.136719 C 1300.679688 585.136719 1275.890625 593.503906 1262.582031 568.597656 C 1249.273438 543.695312 1272.203125 518.128906 1272.203125 518.128906 C 1272.203125 518.128906 1239.761719 530.101562 1218.03125 502.402344 C 1196.308594 474.703125 1222.085938 447.859375 1222.085938 447.859375 C 1222.085938 447.859375 1165.359375 462.816406 1158.285156 408.449219 Z M 1339.535156 608.910156 C 1339.535156 608.910156 1354.125 592.53125 1353.316406 576.453125 C 1352.503906 560.375 1340.390625 547.253906 1340.390625 547.253906 C 1340.390625 547.253906 1354.699219 577.742188 1339.535156 608.910156 Z M 1321.738281 490.859375 C 1321.738281 490.859375 1334.15625 447.238281 1298.003906 422.851562 C 1261.847656 398.46875 1234.394531 419.660156 1234.394531 419.660156 C 1234.394531 419.660156 1307.585938 405.140625 1321.738281 490.859375 Z M 1321.738281 490.859375 " clip-rule="nonzero"/></clipPath><clipPath id="69436bc96d"><path d="M 146 813 L 538 813 L 538 1092 L 146 1092 Z M 146 813 " clip-rule="nonzero"/></clipPath><clipPath id="2138a84dbd"><path d="M 341.835938 1091.816406 C 343.488281 1089.179688 345.027344 1086.269531 346.421875 1083.046875 C 366.355469 1037.15625 339.773438 1013.566406 330.285156 1006.9375 C 317.523438 1017.964844 309.6875 1025.035156 309.6875 1025.035156 C 354.132812 942.296875 475.304688 881.78125 537.414062 855.15625 L 508.730469 813.980469 C 492.230469 833.019531 448.992188 878.609375 386.347656 913.351562 C 305.136719 958.390625 255.417969 954.386719 255.417969 954.386719 C 268.257812 950.59375 280.554688 946.511719 292.328125 942.210938 C 294.757812 937.226562 305.179688 912.894531 287.910156 893.707031 C 268.566406 872.214844 251.4375 871.945312 220.21875 881.125 C 220.21875 881.125 224.6875 877.199219 231.988281 873.316406 C 218.257812 869.648438 190.609375 864.785156 165.65625 875.792969 C 172.796875 875.992188 182.175781 877.957031 188.851562 885.660156 C 201.066406 899.769531 199.441406 915.128906 199.441406 915.128906 C 199.441406 915.128906 224.230469 906.757812 237.539062 931.664062 C 250.847656 956.566406 227.914062 982.132812 227.914062 982.132812 C 227.914062 982.132812 260.359375 970.160156 282.085938 997.859375 C 303.8125 1025.558594 278.035156 1052.402344 278.035156 1052.402344 C 278.035156 1052.402344 334.757812 1037.445312 341.835938 1091.816406 Z M 160.582031 891.351562 C 160.582031 891.351562 145.996094 907.730469 146.804688 923.808594 C 147.613281 939.886719 159.734375 953.011719 159.734375 953.011719 C 159.734375 953.011719 145.421875 922.519531 160.582031 891.351562 Z M 178.382812 1009.402344 C 178.382812 1009.402344 165.964844 1053.027344 202.117188 1077.410156 C 238.273438 1101.792969 265.722656 1080.601562 265.722656 1080.601562 C 265.722656 1080.601562 192.535156 1095.121094 178.382812 1009.402344 Z M 178.382812 1009.402344 " clip-rule="nonzero"/></clipPath><clipPath id="013576fd12"><path d="M 962 813 L 1354 813 L 1354 1092 L 962 1092 Z M 962 813 " clip-rule="nonzero"/></clipPath><clipPath id="6af50bc2de"><path d="M 1158.285156 1091.816406 C 1156.632812 1089.179688 1155.09375 1086.269531 1153.695312 1083.046875 C 1133.761719 1037.15625 1160.34375 1013.566406 1169.835938 1006.9375 C 1182.597656 1017.964844 1190.433594 1025.035156 1190.433594 1025.035156 C 1145.988281 942.296875 1024.816406 881.78125 962.703125 855.15625 L 991.386719 813.980469 C 1007.890625 833.019531 1051.128906 878.609375 1113.769531 913.351562 C 1194.984375 958.390625 1244.699219 954.386719 1244.699219 954.386719 C 1231.863281 950.59375 1219.566406 946.511719 1207.792969 942.210938 C 1205.363281 937.226562 1194.9375 912.894531 1212.210938 893.707031 C 1231.550781 872.214844 1248.683594 871.945312 1279.902344 881.125 C 1279.902344 881.125 1275.433594 877.199219 1268.132812 873.316406 C 1281.863281 869.648438 1309.511719 864.785156 1334.464844 875.792969 C 1327.324219 875.992188 1317.941406 877.957031 1311.269531 885.660156 C 1299.054688 899.769531 1300.679688 915.128906 1300.679688 915.128906 C 1300.679688 915.128906 1275.890625 906.757812 1262.582031 931.664062 C 1249.273438 956.566406 1272.203125 982.132812 1272.203125 982.132812 C 1272.203125 982.132812 1239.761719 970.160156 1218.03125 997.859375 C 1196.308594 1025.558594 1222.085938 1052.402344 1222.085938 1052.402344 C 1222.085938 1052.402344 1165.359375 1037.445312 1158.285156 1091.816406 Z M 1339.535156 891.351562 C 1339.535156 891.351562 1354.125 907.730469 1353.316406 923.808594 C 1352.503906 939.886719 1340.390625 953.011719 1340.390625 953.011719 C 1340.390625 953.011719 1354.699219 922.519531 1339.535156 891.351562 Z M 1321.738281 1009.402344 C 1321.738281 1009.402344 1334.15625 1053.027344 1298.003906 1077.410156 C 1261.847656 1101.792969 1234.394531 1080.601562 1234.394531 1080.601562 C 1234.394531 1080.601562 1307.585938 1095.121094 1321.738281 1009.402344 Z M 1321.738281 1009.402344 " clip-rule="nonzero"/></clipPath></defs><path fill="#010101" d="M 519.390625 478.789062 C 519.390625 478.789062 580.558594 556.4375 657.550781 548.511719 C 734.539062 540.585938 755.828125 448.0625 755.828125 448.0625 C 755.828125 448.0625 769.609375 509.671875 832.097656 522.089844 C 894.585938 534.503906 922.40625 506.136719 922.40625 506.136719 C 922.40625 506.136719 915.371094 562.113281 963.882812 577.039062 C 1012.398438 591.960938 1059.554688 556.808594 1059.554688 556.808594 C 1059.554688 556.808594 1026.078125 610.480469 1070.40625 634.859375 C 1114.730469 659.238281 1197.871094 660.65625 1197.871094 660.65625 C 1197.871094 660.65625 1124.855469 681.960938 1119.820312 734.761719 C 1114.785156 787.558594 1141.476562 806.066406 1141.476562 806.066406 C 1141.476562 806.066406 1079.375 817.953125 1074.832031 874.890625 C 1070.289062 931.828125 1110.894531 974.285156 1110.894531 974.285156 C 1110.894531 974.285156 1049.394531 939.640625 1009.753906 955.707031 C 970.113281 971.769531 973.328125 1028.0625 973.328125 1028.0625 C 973.328125 1028.0625 913.828125 974.988281 857.039062 976.308594 C 800.25 977.625 779.835938 1083.335938 779.835938 1083.335938 C 779.835938 1083.335938 754.265625 987.449219 667.832031 973.691406 C 581.402344 959.933594 523.292969 1041.734375 523.292969 1041.734375 C 523.292969 1041.734375 577.820312 938.113281 521.144531 919.261719 C 464.464844 900.414062 410.296875 941.304688 410.296875 941.304688 C 410.296875 941.304688 474.414062 878.238281 455.898438 830.910156 C 437.378906 783.578125 338.796875 770.007812 338.796875 770.007812 C 338.796875 770.007812 426.914062 775.589844 450.589844 717.210938 C 474.269531 658.828125 397.34375 609.789062 397.34375 609.789062 C 397.34375 609.789062 595.992188 710.355469 519.390625 478.789062 Z M 519.390625 478.789062 " fill-opacity="1" fill-rule="nonzero"/><path fill="#010101" d="M 556.609375 640.582031 C 526.894531 630.542969 494 614.394531 472.269531 601.367188 C 427.445312 574.511719 370.878906 528.074219 337.65625 499.65625 C 353.457031 485.507812 395.300781 442.0625 372.007812 396.507812 C 345.738281 345.128906 282.761719 366.058594 262.476562 389.964844 C 253.765625 383.367188 241.714844 377.769531 225.085938 375.414062 C 178.699219 368.847656 112.109375 443.734375 149.964844 506.816406 C 134.335938 523.328125 88.96875 578.90625 135.3125 625.84375 C 180.386719 671.492188 222.214844 641.40625 235.972656 628.914062 C 250.273438 635.4375 272.296875 639.773438 293.460938 621.054688 C 317.914062 599.425781 315.234375 577.085938 311.234375 565.320312 C 394.929688 599.121094 450.71875 639.941406 509.894531 705.222656 C 521.445312 688.839844 541.023438 661.304688 556.609375 640.582031 Z M 556.609375 640.582031 " fill-opacity="1" fill-rule="nonzero"/><path fill="#fefefe" d="M 175.789062 535.140625 C 175.789062 535.140625 132.265625 467.472656 188.792969 418.71875 C 245.316406 369.964844 284.734375 424.296875 284.734375 424.296875 C 284.734375 424.296875 282.1875 406.863281 265.695312 392.570312 C 283.15625 385.660156 327.414062 373.441406 346.425781 417.214844 C 366.363281 463.105469 339.777344 486.695312 330.289062 493.328125 C 317.523438 482.296875 309.691406 475.226562 309.691406 475.226562 C 354.136719 557.964844 475.308594 618.484375 537.417969 645.105469 L 508.734375 686.28125 C 492.234375 667.246094 448.996094 621.652344 386.355469 586.910156 C 305.140625 541.871094 255.425781 545.875 255.425781 545.875 C 268.261719 549.667969 280.558594 553.75 292.332031 558.050781 C 294.761719 563.039062 305.183594 587.367188 287.914062 606.554688 C 268.574219 628.046875 251.441406 628.316406 220.222656 619.140625 C 220.222656 619.140625 224.691406 623.066406 231.992188 626.949219 C 215.085938 631.460938 177.074219 637.792969 148.980469 614.070312 C 116.859375 586.945312 150.433594 534.4375 160.183594 520.625 C 164.605469 525.605469 169.769531 530.464844 175.789062 535.140625 Z M 175.789062 535.140625 " fill-opacity="1" fill-rule="nonzero"/><g clip-path="url(#f0b8509b94)"><g clip-path="url(#9d59bdd7e4)"><path fill="#000000" d="M 145.421875 398.46875 L 145.421875 686.285156 L 537.414062 686.285156 L 537.414062 398.46875 Z M 145.421875 398.46875 " fill-opacity="1" fill-rule="nonzero"/></g></g><path fill="#010101" d="M 943.511719 640.582031 C 973.222656 630.542969 1006.121094 614.394531 1027.851562 601.367188 C 1072.671875 574.511719 1129.242188 528.074219 1162.464844 499.65625 C 1146.664062 485.507812 1104.816406 442.0625 1128.113281 396.507812 C 1154.382812 345.128906 1217.359375 366.058594 1237.644531 389.964844 C 1246.355469 383.367188 1258.402344 377.769531 1275.035156 375.414062 C 1321.421875 368.847656 1388.011719 443.734375 1350.15625 506.816406 C 1365.785156 523.328125 1411.15625 578.90625 1364.8125 625.84375 C 1319.734375 671.492188 1277.902344 641.40625 1264.144531 628.914062 C 1249.847656 635.4375 1227.828125 639.773438 1206.65625 621.054688 C 1182.210938 599.425781 1184.886719 577.085938 1188.886719 565.320312 C 1105.191406 599.121094 1049.402344 639.941406 990.226562 705.222656 C 978.675781 688.839844 959.097656 661.304688 943.511719 640.582031 Z M 943.511719 640.582031 " fill-opacity="1" fill-rule="nonzero"/><path fill="#fefefe" d="M 1324.335938 535.140625 C 1324.335938 535.140625 1367.859375 467.472656 1311.335938 418.71875 C 1254.808594 369.964844 1215.394531 424.296875 1215.394531 424.296875 C 1215.394531 424.296875 1217.9375 406.863281 1234.429688 392.570312 C 1216.972656 385.660156 1172.714844 373.441406 1153.699219 417.214844 C 1133.765625 463.105469 1160.347656 486.695312 1169.835938 493.328125 C 1182.601562 482.296875 1190.4375 475.226562 1190.4375 475.226562 C 1145.988281 557.964844 1024.816406 618.484375 962.707031 645.105469 L 991.390625 686.28125 C 1007.894531 667.246094 1051.128906 621.652344 1113.773438 586.910156 C 1194.984375 541.871094 1244.703125 545.875 1244.703125 545.875 C 1231.863281 549.667969 1219.566406 553.75 1207.792969 558.050781 C 1205.367188 563.039062 1194.941406 587.367188 1212.214844 606.554688 C 1231.554688 628.046875 1248.683594 628.316406 1279.902344 619.140625 C 1279.902344 619.140625 1275.433594 623.066406 1268.132812 626.949219 C 1285.039062 631.460938 1323.050781 637.792969 1351.148438 614.070312 C 1383.265625 586.945312 1349.691406 534.4375 1339.941406 520.625 C 1335.523438 525.605469 1330.355469 530.464844 1324.335938 535.140625 Z M 1324.335938 535.140625 " fill-opacity="1" fill-rule="nonzero"/><g clip-path="url(#9dc032f48b)"><g clip-path="url(#8142729f19)"><path fill="#000000" d="M 962.703125 398.46875 L 962.703125 686.285156 L 1354.699219 686.285156 L 1354.699219 398.46875 Z M 962.703125 398.46875 " fill-opacity="1" fill-rule="nonzero"/></g></g><path fill="#010101" d="M 556.609375 859.679688 C 526.894531 869.722656 494 885.871094 472.269531 898.898438 C 427.445312 925.753906 370.878906 972.191406 337.65625 1000.605469 C 353.457031 1014.757812 395.300781 1058.199219 372.007812 1103.757812 C 345.738281 1155.136719 282.761719 1134.207031 262.476562 1110.300781 C 253.765625 1116.898438 241.714844 1122.496094 225.085938 1124.847656 C 178.699219 1131.417969 112.109375 1056.53125 149.964844 993.449219 C 134.335938 976.933594 88.96875 921.359375 135.3125 874.421875 C 180.386719 828.773438 222.214844 858.859375 235.972656 871.351562 C 250.273438 864.828125 272.296875 860.492188 293.460938 879.210938 C 317.914062 900.835938 315.234375 923.179688 311.234375 934.945312 C 394.929688 901.144531 450.71875 860.324219 509.894531 795.042969 C 521.445312 811.425781 541.023438 838.960938 556.609375 859.679688 Z M 556.609375 859.679688 " fill-opacity="1" fill-rule="nonzero"/><path fill="#fefefe" d="M 175.789062 965.121094 C 175.789062 965.121094 132.265625 1032.792969 188.792969 1081.546875 C 245.316406 1130.300781 284.734375 1075.96875 284.734375 1075.96875 C 284.734375 1075.96875 282.1875 1093.402344 265.695312 1107.695312 C 283.15625 1114.601562 327.414062 1126.824219 346.425781 1083.050781 C 366.363281 1037.160156 339.777344 1013.570312 330.289062 1006.941406 C 317.523438 1017.96875 309.691406 1025.039062 309.691406 1025.039062 C 354.136719 942.300781 475.308594 881.78125 537.417969 855.160156 L 508.734375 813.980469 C 492.234375 833.019531 448.996094 878.613281 386.355469 913.355469 C 305.140625 958.394531 255.425781 954.390625 255.425781 954.390625 C 268.261719 950.59375 280.558594 946.515625 292.332031 942.214844 C 294.761719 937.226562 305.183594 912.894531 287.914062 893.707031 C 268.574219 872.21875 251.441406 871.949219 220.222656 881.125 C 220.222656 881.125 224.691406 877.199219 231.992188 873.320312 C 215.085938 868.804688 177.074219 862.472656 148.980469 886.195312 C 116.859375 913.320312 150.433594 965.828125 160.183594 979.636719 C 164.605469 974.65625 169.769531 969.800781 175.789062 965.121094 Z M 175.789062 965.121094 " fill-opacity="1" fill-rule="nonzero"/><g clip-path="url(#69436bc96d)"><g clip-path="url(#2138a84dbd)"><path fill="#000000" d="M 145.421875 813.980469 L 145.421875 1101.792969 L 537.414062 1101.792969 L 537.414062 813.980469 Z M 145.421875 813.980469 " fill-opacity="1" fill-rule="nonzero"/></g></g><path fill="#010101" d="M 943.511719 859.679688 C 973.222656 869.722656 1006.121094 885.871094 1027.851562 898.898438 C 1072.671875 925.753906 1129.242188 972.191406 1162.464844 1000.605469 C 1146.664062 1014.757812 1104.816406 1058.199219 1128.113281 1103.757812 C 1154.382812 1155.136719 1217.359375 1134.207031 1237.644531 1110.300781 C 1246.355469 1116.898438 1258.402344 1122.496094 1275.035156 1124.847656 C 1321.421875 1131.417969 1388.011719 1056.53125 1350.15625 993.449219 C 1365.785156 976.933594 1411.15625 921.359375 1364.8125 874.421875 C 1319.734375 828.773438 1277.902344 858.859375 1264.144531 871.351562 C 1249.847656 864.828125 1227.828125 860.492188 1206.65625 879.210938 C 1182.210938 900.835938 1184.886719 923.179688 1188.886719 934.945312 C 1105.191406 901.144531 1049.402344 860.324219 990.226562 795.042969 C 978.675781 811.425781 959.097656 838.960938 943.511719 859.679688 Z M 943.511719 859.679688 " fill-opacity="1" fill-rule="nonzero"/><path fill="#fefefe" d="M 1324.335938 965.121094 C 1324.335938 965.121094 1367.859375 1032.792969 1311.335938 1081.546875 C 1254.808594 1130.300781 1215.394531 1075.96875 1215.394531 1075.96875 C 1215.394531 1075.96875 1217.9375 1093.402344 1234.429688 1107.695312 C 1216.972656 1114.601562 1172.714844 1126.824219 1153.699219 1083.050781 C 1133.765625 1037.160156 1160.347656 1013.570312 1169.835938 1006.941406 C 1182.601562 1017.96875 1190.4375 1025.039062 1190.4375 1025.039062 C 1145.988281 942.300781 1024.816406 881.78125 962.707031 855.160156 L 991.390625 813.980469 C 1007.894531 833.019531 1051.128906 878.613281 1113.773438 913.355469 C 1194.984375 958.394531 1244.703125 954.390625 1244.703125 954.390625 C 1231.863281 950.59375 1219.566406 946.515625 1207.792969 942.214844 C 1205.367188 937.226562 1194.941406 912.894531 1212.214844 893.707031 C 1231.554688 872.21875 1248.683594 871.949219 1279.902344 881.125 C 1279.902344 881.125 1275.433594 877.199219 1268.132812 873.320312 C 1285.039062 868.804688 1323.050781 862.472656 1351.148438 886.195312 C 1383.265625 913.320312 1349.691406 965.828125 1339.941406 979.636719 C 1335.523438 974.65625 1330.355469 969.800781 1324.335938 965.121094 Z M 1324.335938 965.121094 " fill-opacity="1" fill-rule="nonzero"/><g clip-path="url(#013576fd12)"><g clip-path="url(#6af50bc2de)"><path fill="#000000" d="M 962.703125 813.980469 L 962.703125 1101.792969 L 1354.699219 1101.792969 L 1354.699219 813.980469 Z M 962.703125 813.980469 " fill-opacity="1" fill-rule="nonzero"/></g></g><path fill="#010101" d="M 501.121094 463.222656 C 501.121094 463.222656 562.292969 540.871094 639.28125 532.945312 C 716.273438 525.019531 737.558594 432.496094 737.558594 432.496094 C 737.558594 432.496094 751.34375 494.105469 813.828125 506.523438 C 876.316406 518.9375 904.136719 490.570312 904.136719 490.570312 C 904.136719 490.570312 897.101562 546.546875 945.613281 561.46875 C 994.128906 576.394531 1041.285156 541.238281 1041.285156 541.238281 C 1041.285156 541.238281 1007.8125 594.914062 1052.132812 619.292969 C 1096.460938 643.671875 1179.601562 645.085938 1179.601562 645.085938 C 1179.601562 645.085938 1106.589844 666.394531 1101.554688 719.191406 C 1096.515625 771.992188 1123.210938 790.5 1123.210938 790.5 C 1123.210938 790.5 1061.105469 802.386719 1056.5625 859.324219 C 1052.019531 916.261719 1092.625 958.71875 1092.625 958.71875 C 1092.625 958.71875 1031.125 924.074219 991.484375 940.140625 C 951.84375 956.203125 955.058594 1012.496094 955.058594 1012.496094 C 955.058594 1012.496094 895.5625 959.421875 838.773438 960.738281 C 781.980469 962.058594 761.566406 1067.769531 761.566406 1067.769531 C 761.566406 1067.769531 735.996094 971.882812 649.566406 958.125 C 563.132812 944.363281 505.027344 1026.164062 505.027344 1026.164062 C 505.027344 1026.164062 559.554688 922.542969 502.875 903.695312 C 446.199219 884.847656 392.03125 925.738281 392.03125 925.738281 C 392.03125 925.738281 456.144531 862.671875 437.628906 815.339844 C 419.109375 768.011719 320.527344 754.441406 320.527344 754.441406 C 320.527344 754.441406 408.644531 760.023438 432.324219 701.644531 C 456.003906 643.257812 379.074219 594.222656 379.074219 594.222656 C 379.074219 594.222656 577.726562 694.789062 501.121094 463.222656 Z M 501.121094 463.222656 " fill-opacity="1" fill-rule="nonzero"/><path fill="#f4cf00" d="M 525.566406 503.222656 C 556.246094 641.019531 500.910156 646.105469 421.554688 619.421875 C 454.058594 661.90625 489.679688 716.949219 379.648438 758.332031 C 457.832031 784.203125 486.238281 830.699219 427.046875 895.671875 C 490.25 877.796875 551.40625 861.335938 537.511719 978.605469 C 600.363281 913.234375 710.769531 901.6875 758.996094 1033.152344 C 779.117188 922.21875 855.59375 904.300781 946.375 992.21875 C 950.101562 926.707031 993.726562 898.675781 1060.5 933.671875 C 1024.921875 873.21875 1022.875 813.484375 1101.378906 785.507812 C 1078.433594 737.0625 1058.945312 698.3125 1133.128906 654.195312 C 1084.832031 645.675781 997.039062 659.175781 1020.527344 564.898438 C 971.015625 592.371094 893.285156 591.417969 892.152344 509.660156 C 842.261719 537.570312 776.921875 543.726562 739.570312 458.765625 C 689.105469 549.792969 646.929688 588.511719 525.566406 503.222656 Z M 525.566406 503.222656 " fill-opacity="1" fill-rule="nonzero"/><path fill="#010101" d="M 452.996094 521.992188 L 393.441406 496.273438 L 391.75 526.394531 Z M 452.996094 978.269531 L 393.441406 1003.992188 L 391.75 973.871094 Z M 1047.128906 978.269531 L 1106.679688 1003.992188 L 1108.371094 973.871094 Z M 1024.796875 1004.667969 L 1039.34375 1050.015625 L 1018.027344 1054.414062 Z M 1101.605469 1029.035156 L 1078.664062 1056.089844 L 1000.511719 958.738281 Z M 475.324219 1004.667969 L 460.777344 1050.015625 L 482.09375 1054.414062 Z M 398.515625 1029.035156 L 421.460938 1056.089844 L 499.609375 958.738281 Z M 1047.128906 521.992188 L 1106.679688 496.273438 L 1108.371094 526.394531 Z M 1024.796875 495.597656 L 1039.34375 450.25 L 1018.027344 445.851562 Z M 1101.605469 471.230469 L 1078.664062 444.175781 L 1000.511719 541.527344 Z M 475.324219 495.597656 L 460.777344 450.25 L 482.09375 445.851562 Z M 398.515625 471.230469 L 421.460938 444.175781 L 499.609375 541.527344 Z M 398.515625 471.230469 " fill-opacity="1" fill-rule="nonzero"/><path fill="#010101" d="M 1193.558594 823.050781 C 1195.398438 825.546875 1196.988281 828.171875 1198.308594 830.914062 C 1208.039062 840.230469 1213.847656 851.917969 1213.847656 865.503906 C 1213.847656 872.671875 1212.222656 879.605469 1209.300781 886.132812 C 1206.261719 892.929688 1201.871094 898.878906 1196.355469 903.878906 C 1190.492188 909.195312 1183.550781 913.003906 1176.113281 915.636719 C 1167.855469 918.5625 1159.089844 919.710938 1150.355469 919.710938 C 1143.109375 919.710938 1136.03125 918.316406 1129.457031 915.222656 C 1123.1875 912.273438 1117.714844 908.082031 1113.453125 902.601562 C 1111.132812 899.621094 1109.152344 896.425781 1107.503906 893.0625 C 1107.113281 892.714844 1106.730469 892.359375 1106.355469 892 L 995.644531 910.617188 L 996.722656 897.644531 L 892.894531 916.113281 L 894.757812 898.730469 L 881.769531 901.042969 L 887.574219 846.785156 C 886.441406 848.265625 885.292969 849.730469 884.121094 851.175781 C 874.476562 863.074219 863.738281 874.152344 851.757812 883.710938 C 840.933594 892.34375 829.082031 899.742188 816.234375 904.96875 C 804.625 909.695312 792.339844 912.648438 779.757812 912.648438 C 769.714844 912.648438 759.90625 910.761719 750.765625 906.53125 C 741.6875 902.328125 733.972656 896.136719 727.65625 888.398438 C 724.984375 885.121094 722.648438 881.597656 720.617188 877.914062 C 719.195312 876.453125 717.832031 874.921875 716.53125 873.324219 C 709.625 864.867188 705.007812 854.800781 701.902344 844.394531 C 698.167969 831.894531 696.960938 818.449219 696.960938 805.449219 C 696.960938 804.496094 696.96875 803.542969 696.980469 802.589844 C 696.550781 802.828125 696.117188 803.066406 695.683594 803.300781 C 685.25 808.929688 674.160156 812.480469 662.554688 813.679688 C 661.546875 818.59375 660.621094 823.527344 659.757812 828.46875 C 658.164062 837.550781 656.796875 846.664062 655.328125 855.769531 C 653.746094 865.625 652.007812 875.464844 650.527344 885.339844 L 648.863281 896.433594 L 549.667969 915.929688 L 552.496094 903.210938 C 551.492188 903.335938 550.488281 903.464844 549.488281 903.59375 C 542.847656 904.457031 536.214844 905.753906 529.609375 906.855469 C 522.917969 907.972656 516.226562 909.085938 509.535156 910.203125 L 488.566406 913.699219 L 490.660156 896.421875 L 479.277344 898.320312 L 478.929688 899.5625 L 468.554688 900.980469 C 462.015625 901.871094 455.46875 902.671875 448.917969 903.433594 C 441.996094 904.242188 435.070312 905.015625 428.15625 905.84375 C 420.390625 906.777344 412.636719 907.800781 404.878906 908.804688 L 380.53125 911.945312 L 384.230469 899.640625 C 383.992188 899.640625 383.75 899.640625 383.511719 899.640625 C 376.671875 899.640625 369.828125 899.695312 362.992188 899.824219 C 356.132812 899.949219 349.28125 900.136719 342.425781 900.375 L 328.085938 900.867188 L 326.117188 886.652344 L 325.957031 885.484375 L 318.128906 885.753906 L 317.347656 889.761719 L 315.183594 900.796875 L 221.148438 914.726562 L 224.847656 897.457031 L 210.019531 899.65625 L 214.828125 877.214844 C 222.003906 843.710938 229.289062 810.203125 235.558594 776.515625 C 238.273438 761.945312 240.71875 747.320312 243.347656 732.734375 C 246.027344 717.878906 248.550781 702.996094 250.910156 688.085938 C 253.175781 673.804688 255.273438 659.5 257.175781 645.167969 C 258.824219 632.738281 260.285156 620.269531 261.367188 607.777344 L 262.746094 591.921875 L 278.601562 593.300781 C 284.847656 593.84375 291.109375 594.238281 297.375 594.5625 C 304.183594 594.917969 310.984375 595.386719 317.789062 595.886719 C 324.820312 596.402344 331.875 596.585938 338.925781 596.585938 L 359.308594 596.585938 L 355.539062 611.660156 L 358.160156 611.660156 C 360.144531 608.539062 362.109375 605.410156 364.054688 602.269531 L 368.289062 595.421875 L 376.316406 594.777344 C 388.613281 593.796875 400.898438 592.691406 413.171875 591.460938 C 425.296875 590.25 437.382812 588.675781 449.414062 586.75 L 488.121094 580.554688 L 473.847656 599.691406 L 499.25 595.628906 L 497.503906 597.972656 C 504.777344 597.328125 512.042969 596.644531 519.308594 595.921875 C 536.015625 594.261719 552.660156 591.988281 569.1875 589.03125 L 589.789062 585.339844 L 588.164062 602.695312 L 600.917969 600.410156 L 600.53125 604.53125 L 607.050781 602.507812 C 614.410156 600.222656 621.847656 598.183594 629.351562 596.441406 C 636.746094 594.726562 644.1875 593.246094 651.667969 591.976562 C 659.355469 590.675781 667.15625 589.894531 674.957031 589.894531 C 686.972656 589.894531 699.175781 591.757812 710.046875 597.105469 C 719.59375 601.800781 727.808594 608.378906 734.179688 616.933594 C 736.167969 619.601562 737.945312 622.386719 739.519531 625.269531 C 741.589844 627.363281 743.523438 629.605469 745.308594 632.007812 C 748.570312 636.382812 751.261719 641.066406 753.425781 645.992188 C 759.003906 638.738281 765 631.808594 771.4375 625.292969 C 782.464844 614.132812 794.917969 604.53125 808.859375 597.269531 C 822.769531 590.023438 837.695312 586.175781 853.382812 586.175781 C 866.0625 586.175781 878.667969 588.675781 889.527344 595.488281 C 898.929688 601.382812 906.523438 609.214844 911.96875 618.878906 L 913.734375 602.386719 L 927.417969 601.804688 C 937.714844 601.367188 948.019531 600.347656 958.164062 598.511719 C 968.859375 596.578125 979.65625 595.191406 990.5 594.398438 L 1007.570312 593.148438 L 1007.570312 599.558594 L 1019.910156 599.558594 C 1023.871094 599.558594 1027.828125 599.335938 1031.769531 598.910156 C 1035.890625 598.464844 1040.003906 597.945312 1044.105469 597.324219 C 1048.046875 596.726562 1051.96875 595.972656 1055.859375 595.105469 L 1080.269531 589.679688 L 1078.011719 599.832031 L 1083.761719 598.984375 C 1092.136719 597.753906 1100.539062 596.691406 1108.933594 595.601562 C 1116.375 594.640625 1123.808594 593.585938 1131.25 592.628906 C 1137.679688 591.796875 1144.128906 590.808594 1150.480469 589.484375 L 1178.253906 583.699219 L 1173.171875 597.9375 L 1182.839844 596.40625 C 1188.398438 595.53125 1193.976562 594.785156 1199.558594 594.101562 C 1205.515625 593.371094 1211.453125 592.527344 1217.378906 591.582031 C 1223.539062 590.59375 1229.714844 589.695312 1235.90625 588.90625 C 1240.5 588.320312 1245.117188 587.671875 1249.671875 586.820312 L 1278.972656 581.328125 L 1270.976562 599.984375 L 1290.101562 596.398438 L 1278.359375 623.804688 C 1265.226562 654.453125 1253.128906 685.542969 1242.140625 717.023438 C 1231.078125 748.734375 1220.121094 780.488281 1209.28125 812.277344 L 1205.605469 823.054688 L 1194.222656 823.054688 Z M 432.4375 686.449219 C 430.941406 688.5625 429.453125 690.679688 427.972656 692.804688 C 423.207031 699.652344 418.421875 706.488281 413.617188 713.3125 C 409.21875 719.566406 404.902344 725.875 400.691406 732.253906 C 398.230469 735.988281 395.792969 739.738281 393.390625 743.515625 C 396.433594 756.960938 399.808594 770.335938 403.542969 783.605469 C 404.304688 781.0625 405.066406 778.519531 405.832031 775.976562 C 410.011719 761.996094 414.121094 747.992188 418.269531 734.003906 C 422.59375 719.425781 426.933594 704.851562 431.292969 690.285156 Z M 841.894531 712.839844 C 840.457031 713.378906 839.054688 714.054688 837.679688 714.875 C 832.34375 718.035156 827.792969 722.203125 823.894531 727.007812 C 819.140625 732.871094 815.207031 739.34375 811.957031 746.148438 C 808.320312 753.761719 805.140625 761.59375 802.472656 769.601562 C 800.035156 776.917969 798.132812 784.421875 796.976562 792.046875 C 796.402344 795.832031 795.898438 799.714844 795.597656 803.59375 C 800.105469 802.476562 804.117188 800.21875 807.886719 796.882812 C 815.394531 790.230469 821.273438 782.207031 825.828125 773.296875 C 831.066406 763.050781 835 752.234375 837.738281 741.0625 C 839.984375 731.902344 841.632812 722.316406 841.894531 712.839844 Z M 841.894531 712.839844 " fill-opacity="1" fill-rule="nonzero"/><path fill="#fefefe" d="M 915.886719 657.03125 L 920.914062 610.042969 L 927.757812 609.753906 C 938.417969 609.300781 949.078125 608.238281 959.578125 606.34375 C 970 604.457031 980.515625 603.105469 991.078125 602.332031 L 999.613281 601.707031 L 999.613281 610.269531 C 999.613281 612.691406 998.78125 616.667969 998.410156 619.101562 C 997.433594 625.433594 996.433594 631.769531 995.429688 638.097656 C 994.050781 646.792969 992.355469 655.351562 991.390625 664.117188 L 989.355469 682.574219 C 989.496094 682.089844 989.636719 681.605469 989.773438 681.121094 C 992.277344 672.414062 994.753906 663.699219 997.191406 654.96875 C 999.386719 647.117188 1001.617188 639.273438 1003.910156 631.449219 C 1005.648438 625.515625 1007.34375 619.542969 1008.84375 613.542969 L 1010.351562 607.515625 L 1019.910156 607.515625 C 1024.15625 607.515625 1028.402344 607.273438 1032.621094 606.820312 C 1036.855469 606.359375 1041.082031 605.828125 1045.296875 605.1875 C 1049.417969 604.566406 1053.515625 603.777344 1057.585938 602.875 L 1069.789062 600.160156 L 1067.078125 612.367188 C 1066.222656 616.214844 1065.914062 621.164062 1065.5625 625.105469 C 1064.8125 633.503906 1063.988281 641.902344 1063.140625 650.292969 C 1062.078125 660.769531 1061.128906 671.253906 1060.242188 681.742188 L 1079.71875 607.625 L 1084.917969 606.855469 C 1093.25 605.632812 1101.609375 604.574219 1109.957031 603.492188 C 1117.398438 602.527344 1124.824219 601.480469 1132.265625 600.515625 C 1138.902344 599.660156 1145.550781 598.640625 1152.105469 597.273438 L 1165.988281 594.378906 L 1161.222656 607.738281 C 1157.183594 619.046875 1153.570312 630.523438 1150.214844 642.050781 C 1146.3125 655.453125 1142.484375 668.875 1138.714844 682.3125 C 1134.746094 696.433594 1130.992188 710.613281 1127.433594 724.84375 C 1123.957031 738.75 1120.367188 752.625 1116.832031 766.515625 C 1108.589844 798.886719 1101.085938 831.449219 1093.839844 864.054688 L 1092.679688 869.289062 L 993.292969 886 L 998.890625 818.464844 L 983.511719 874.859375 L 890.808594 891.351562 L 904.988281 758.855469 C 901.628906 769.28125 897.628906 779.492188 892.894531 789.371094 C 885.785156 804.203125 877.175781 818.300781 866.8125 831.089844 C 857.53125 842.542969 847.199219 853.214844 835.667969 862.414062 C 825.441406 870.574219 814.246094 877.585938 802.109375 882.527344 C 791.460938 886.859375 780.171875 889.617188 768.628906 889.617188 C 759.746094 889.617188 751.070312 887.980469 742.984375 884.234375 C 735 880.539062 728.25 875.09375 722.691406 868.289062 C 716.46875 860.664062 712.328125 851.496094 709.523438 842.113281 C 706.019531 830.375 704.917969 817.65625 704.917969 805.449219 C 704.917969 790.097656 706.941406 774.78125 710.316406 759.824219 C 710.519531 758.917969 710.730469 758.011719 710.945312 757.105469 C 702.320312 766.855469 692.265625 775.027344 680.777344 781.222656 C 669.5625 787.273438 657.558594 790.699219 644.890625 791.066406 C 643.367188 798.019531 642.019531 805.015625 640.789062 812.023438 C 639.195312 821.144531 637.820312 830.289062 636.347656 839.425781 C 634.753906 849.316406 633.015625 859.179688 631.53125 869.085938 L 630.699219 874.632812 L 548.945312 890.699219 L 551.582031 878.84375 C 546.835938 879.472656 542.078125 880.011719 537.332031 880.628906 C 530.59375 881.503906 523.875 882.816406 517.171875 883.933594 C 510.480469 885.046875 503.789062 886.164062 497.097656 887.28125 L 486.613281 889.027344 L 487.890625 878.472656 C 488.867188 870.429688 489.925781 862.394531 490.859375 854.347656 C 491.65625 847.492188 492.269531 840.613281 492.882812 833.738281 C 493.15625 830.675781 493.433594 827.617188 493.71875 824.558594 L 476.191406 824.558594 L 461.539062 877.3125 L 456.347656 878.019531 C 449.863281 878.902344 443.367188 879.699219 436.867188 880.457031 C 429.9375 881.265625 423.003906 882.035156 416.078125 882.867188 C 408.289062 883.804688 400.511719 884.832031 392.730469 885.835938 L 380.558594 887.40625 L 383.78125 876.6875 C 379.980469 876.632812 376.179688 876.605469 372.382812 876.605469 C 365.492188 876.605469 358.601562 876.664062 351.714844 876.792969 C 344.8125 876.917969 337.917969 877.105469 331.023438 877.34375 L 323.851562 877.59375 L 322.867188 870.484375 C 320.527344 853.578125 318.105469 836.6875 315.628906 819.800781 C 314.628906 812.988281 313.636719 806.175781 312.65625 799.359375 C 312.304688 801.148438 311.957031 802.9375 311.609375 804.726562 C 309.578125 815.257812 307.496094 825.777344 305.480469 836.3125 C 303.132812 848.59375 300.816406 860.882812 298.410156 873.152344 L 297.328125 878.671875 L 220.203125 890.097656 L 222.605469 878.878906 C 229.796875 845.304688 237.09375 811.726562 243.378906 777.96875 C 246.09375 763.378906 248.546875 748.746094 251.179688 734.144531 C 253.867188 719.230469 256.402344 704.292969 258.769531 689.324219 C 261.042969 674.980469 263.148438 660.609375 265.058594 646.210938 C 266.726562 633.664062 268.199219 621.074219 269.292969 608.464844 L 269.984375 600.535156 L 277.910156 601.226562 C 284.25 601.777344 290.605469 602.179688 296.960938 602.507812 C 303.714844 602.855469 310.460938 603.324219 317.207031 603.820312 C 324.429688 604.347656 331.683594 604.542969 338.925781 604.542969 L 349.117188 604.542969 L 346.644531 614.429688 C 346.234375 616.070312 345.941406 617.835938 345.640625 619.5 C 345.035156 622.816406 344.402344 626.128906 343.765625 629.4375 C 342.941406 633.6875 342.144531 637.9375 341.363281 642.195312 C 340.488281 646.945312 339.488281 651.671875 338.558594 656.410156 C 338.460938 656.898438 338.363281 657.382812 338.269531 657.867188 C 340.339844 654.605469 342.398438 651.335938 344.449219 648.058594 C 349.246094 640.375 354.097656 632.722656 359 625.105469 C 362.988281 618.917969 366.949219 612.710938 370.820312 606.449219 L 372.9375 603.027344 L 376.949219 602.707031 C 389.300781 601.71875 401.636719 600.609375 413.964844 599.375 C 426.242188 598.148438 438.488281 596.550781 450.671875 594.601562 L 470.027344 591.507812 L 458.304688 607.21875 C 446.929688 622.46875 435.71875 637.839844 424.539062 653.234375 C 419.746094 659.84375 414.984375 666.480469 410.320312 673.183594 C 405.558594 680.019531 400.78125 686.847656 395.988281 693.660156 C 391.542969 699.976562 387.175781 706.351562 382.925781 712.796875 C 379.828125 717.492188 376.769531 722.210938 373.785156 726.972656 C 378.914062 750.105469 385.027344 773.019531 392.226562 795.59375 C 394.972656 804.191406 397.710938 812.792969 400.445312 821.394531 C 404.796875 807.019531 409.148438 792.644531 413.453125 778.257812 C 417.640625 764.269531 421.75 750.261719 425.898438 736.265625 C 430.21875 721.695312 434.5625 707.128906 438.914062 692.566406 C 443.082031 678.636719 447.230469 664.703125 451.363281 650.761719 C 454.964844 638.605469 458.445312 626.414062 461.710938 614.167969 L 463.171875 608.695312 L 468.816406 608.277344 C 485.925781 607.019531 503.019531 605.53125 520.097656 603.835938 C 537.007812 602.15625 553.859375 599.855469 570.589844 596.859375 L 580.890625 595.011719 L 579.914062 605.433594 C 579 615.222656 578.234375 625.027344 577.511719 634.832031 C 576.570312 647.59375 575.789062 660.371094 575.105469 673.148438 C 574.328125 687.636719 573.589844 702.125 572.875 716.613281 C 572.148438 731.46875 571.296875 746.320312 570.648438 761.179688 C 570.117188 773.414062 569.636719 785.652344 569.183594 797.890625 C 570.382812 792.191406 571.574219 786.492188 572.75 780.789062 C 575.660156 766.691406 578.46875 752.570312 581.289062 738.457031 C 584.207031 723.871094 587.054688 709.277344 589.824219 694.664062 C 592.453125 680.800781 595.054688 666.933594 597.625 653.058594 C 599.875 640.894531 602.003906 628.707031 603.90625 616.480469 L 604.667969 611.578125 L 609.410156 610.105469 C 616.585938 607.875 623.835938 605.890625 631.15625 604.191406 C 638.386719 602.511719 645.675781 601.0625 652.996094 599.820312 C 660.242188 598.59375 667.605469 597.851562 674.960938 597.851562 C 685.722656 597.851562 696.792969 599.453125 706.535156 604.246094 C 714.949219 608.386719 722.1875 614.148438 727.800781 621.6875 C 733.382812 629.175781 737.066406 637.671875 739.203125 646.738281 C 741.433594 656.222656 742.386719 665.964844 742.386719 675.703125 C 742.386719 676.035156 742.386719 676.375 742.382812 676.707031 C 744.011719 673.925781 745.691406 671.175781 747.421875 668.457031 C 756.007812 654.960938 765.847656 642.269531 777.09375 630.886719 C 787.542969 620.3125 799.332031 611.203125 812.535156 604.328125 C 825.3125 597.671875 838.976562 594.132812 853.382812 594.132812 C 864.535156 594.132812 875.738281 596.230469 885.300781 602.226562 C 893.628906 607.449219 900.320312 614.351562 905.117188 622.929688 C 909.84375 631.378906 912.929688 640.5625 914.726562 650.054688 C 915.164062 652.375 915.550781 654.699219 915.886719 657.03125 Z M 1183.09375 800.019531 C 1176.085938 800.019531 1169.074219 800.261719 1162.082031 800.746094 C 1154.894531 801.242188 1147.707031 801.738281 1140.523438 802.230469 L 1129.578125 802.988281 L 1132.261719 792.351562 C 1139.894531 762.050781 1147.386719 731.710938 1154.730469 701.339844 C 1162.097656 670.871094 1169.730469 640.460938 1177.625 610.125 L 1178.933594 605.082031 L 1184.085938 604.265625 C 1189.546875 603.402344 1195.035156 602.671875 1200.527344 602 C 1206.578125 601.257812 1212.617188 600.398438 1218.636719 599.4375 C 1224.714844 598.464844 1230.808594 597.578125 1236.910156 596.796875 C 1241.660156 596.191406 1246.433594 595.523438 1251.136719 594.640625 L 1265.789062 591.890625 L 1259.917969 605.597656 C 1246.710938 636.414062 1234.546875 667.671875 1223.503906 699.328125 C 1212.425781 731.058594 1201.46875 762.828125 1190.625 794.632812 L 1188.785156 800.023438 L 1183.09375 800.023438 Z M 1194.765625 850.433594 C 1194.765625 856.476562 1193.375 862.304688 1190.914062 867.808594 C 1188.324219 873.601562 1184.585938 878.648438 1179.886719 882.910156 C 1174.808594 887.511719 1168.769531 890.785156 1162.332031 893.066406 C 1154.9375 895.683594 1147.046875 896.683594 1139.230469 896.683594 C 1133.160156 896.683594 1127.226562 895.542969 1121.71875 892.949219 C 1116.582031 890.535156 1112.097656 887.136719 1108.601562 882.640625 C 1105.414062 878.542969 1102.976562 873.964844 1101.246094 869.066406 C 1099.507812 864.136719 1098.5625 859.011719 1098.5625 853.777344 C 1098.5625 848.265625 1099.433594 842.84375 1101.222656 837.628906 C 1103.066406 832.257812 1105.933594 827.441406 1109.789062 823.277344 C 1113.730469 819.023438 1118.460938 815.695312 1123.667969 813.164062 C 1129.898438 810.132812 1136.808594 809.015625 1143.691406 809.015625 C 1157.226562 809.015625 1171.363281 811.808594 1181.503906 821.425781 C 1189.765625 829.257812 1194.765625 838.949219 1194.765625 850.433594 Z M 489.382812 771.046875 C 490.351562 771.003906 491.320312 770.957031 492.289062 770.917969 C 494.328125 770.828125 496.367188 770.734375 498.40625 770.636719 C 498.421875 770.433594 498.429688 770.226562 498.4375 770.023438 L 499.9375 729.195312 Z M 669.304688 661.675781 C 667.195312 674.039062 665.007812 686.390625 662.710938 698.722656 C 660.929688 708.265625 659.125 717.804688 657.300781 727.34375 C 659.738281 724.71875 661.890625 721.804688 663.796875 718.820312 C 667.371094 713.21875 669.933594 706.992188 671.78125 700.621094 C 673.855469 693.476562 674.808594 686.109375 674.808594 678.675781 C 674.808594 673.605469 674.101562 667.074219 670.625 663.074219 C 670.210938 662.59375 669.769531 662.121094 669.304688 661.675781 Z M 776.21875 795.78125 C 776.21875 797.832031 776.648438 799.878906 777.296875 801.816406 C 777.945312 803.765625 778.851562 805.628906 780.117188 807.253906 C 781.335938 808.820312 782.847656 810.09375 784.53125 811.136719 C 785.835938 811.945312 787.171875 812.359375 788.707031 812.359375 C 798.132812 812.359375 806.125 809.074219 813.167969 802.835938 C 821.421875 795.527344 827.910156 786.71875 832.917969 776.917969 C 838.4375 766.121094 842.585938 754.726562 845.472656 742.953125 C 848.070312 732.339844 849.886719 721.226562 849.886719 710.273438 C 849.886719 707.332031 849.6875 704.382812 849.375 701.457031 C 849.09375 698.824219 848.539062 696.21875 847.609375 693.734375 C 846.945312 691.976562 845.949219 690.503906 844.546875 689.25 C 843.480469 688.292969 841.738281 688.117188 840.375 688.117188 C 833.953125 688.117188 828.019531 689.679688 822.5 692.953125 C 816.351562 696.597656 811.085938 701.382812 806.59375 706.921875 C 801.441406 713.269531 797.175781 720.273438 793.652344 727.644531 C 789.875 735.558594 786.574219 743.691406 783.800781 752.011719 C 781.21875 759.757812 779.210938 767.707031 777.988281 775.78125 C 776.992188 782.339844 776.21875 789.144531 776.21875 795.78125 Z M 776.21875 795.78125 " fill-opacity="1" fill-rule="nonzero"/><path fill="#e62129" d="M 230.386719 880.546875 C 237.820312 845.847656 244.757812 812.140625 251.203125 779.425781 C 253.679688 765.296875 256.28125 750.675781 259.007812 735.554688 C 261.734375 720.4375 264.273438 705.441406 266.628906 690.570312 C 268.980469 675.699219 271.089844 661.265625 272.945312 647.257812 C 274.804688 633.253906 276.230469 620.554688 277.222656 609.152344 C 282.921875 609.648438 289.363281 610.082031 296.550781 610.453125 C 303.738281 610.828125 310.425781 611.261719 316.625 611.757812 C 324.058594 612.253906 331.492188 612.5 338.925781 612.5 C 338.679688 613.492188 338.308594 615.351562 337.8125 618.074219 C 337.316406 620.800781 336.699219 624.085938 335.953125 627.929688 C 335.210938 631.769531 334.402344 636.046875 333.535156 640.753906 C 332.671875 645.460938 331.738281 650.171875 330.75 654.878906 C 328.765625 665.785156 326.535156 678.054688 324.058594 691.6875 L 326.289062 691.316406 C 328.765625 687.347656 332.296875 681.835938 336.882812 674.769531 C 341.46875 667.707031 346.238281 660.210938 351.191406 652.277344 C 356.148438 644.347656 360.984375 636.726562 365.691406 629.414062 C 370.398438 622.101562 374.367188 615.84375 377.585938 610.640625 C 389.972656 609.648438 402.367188 608.535156 414.757812 607.292969 C 427.148438 606.054688 439.535156 604.441406 451.929688 602.460938 C 440.28125 618.074219 429.007812 633.441406 418.101562 648.558594 C 413.394531 655.003906 408.621094 661.699219 403.792969 668.636719 C 398.957031 675.574219 394.1875 682.390625 389.480469 689.082031 C 384.773438 695.773438 380.371094 702.21875 376.285156 708.414062 C 372.195312 714.613281 368.539062 720.3125 365.320312 725.515625 C 370.769531 750.550781 377.214844 774.714844 384.648438 798.011719 C 392.082031 821.308594 399.640625 845.101562 407.320312 869.390625 C 401.625 869.144531 395.800781 868.957031 389.851562 868.835938 C 383.902344 868.710938 378.082031 868.648438 372.382812 868.648438 C 365.195312 868.648438 358.257812 868.710938 351.566406 868.835938 C 344.875 868.957031 337.933594 869.144531 330.75 869.390625 C 328.515625 853.28125 326.101562 836.367188 323.5 818.644531 C 320.898438 800.925781 318.480469 784.007812 316.25 767.898438 L 309.5625 775.707031 C 307.828125 783.140625 305.90625 792.3125 303.800781 803.214844 C 301.695312 814.121094 299.648438 824.65625 297.664062 834.816406 C 295.4375 846.710938 293.082031 858.980469 290.605469 871.621094 Z M 536.308594 872.738281 C 530.113281 873.730469 523.296875 874.84375 515.863281 876.085938 C 508.429688 877.324219 501.738281 878.441406 495.792969 879.429688 C 496.78125 871.25 497.773438 863.195312 498.765625 855.265625 C 499.507812 848.328125 500.1875 841.386719 500.808594 834.445312 C 501.429688 827.507812 501.988281 821.558594 502.480469 816.601562 L 470.144531 816.601562 L 455.277344 870.136719 C 449.824219 870.878906 443.378906 871.6875 435.945312 872.554688 C 428.511719 873.421875 421.570312 874.226562 415.128906 874.96875 C 407.199219 875.960938 399.394531 876.953125 391.710938 877.945312 C 401.621094 844.980469 411.414062 812.511719 421.078125 780.539062 C 425.042969 767.15625 429.191406 753.152344 433.527344 738.53125 C 437.867188 723.90625 442.203125 709.347656 446.539062 694.847656 C 450.875 680.347656 455.027344 666.40625 458.992188 653.023438 C 462.953125 639.640625 466.425781 627.371094 469.402344 616.21875 C 486.25 614.976562 503.410156 613.492188 520.882812 611.757812 C 538.351562 610.019531 555.390625 607.667969 571.992188 604.695312 C 571.25 612.625 570.445312 622.476562 569.578125 634.25 C 568.710938 646.023438 567.902344 658.847656 567.160156 672.726562 C 566.417969 686.605469 565.671875 701.105469 564.929688 716.222656 C 564.1875 731.34375 563.445312 746.214844 562.699219 760.835938 C 561.460938 795.039062 560.097656 831.351562 558.613281 869.765625 C 551.175781 871.003906 543.738281 871.996094 536.308594 872.738281 Z M 479.066406 779.425781 C 480.054688 779.425781 481.851562 779.363281 484.453125 779.238281 C 487.054688 779.113281 489.78125 778.992188 492.632812 778.867188 C 495.480469 778.742188 498.144531 778.617188 500.621094 778.496094 C 503.101562 778.371094 504.835938 778.183594 505.828125 777.9375 C 505.828125 776.449219 506.25 773.925781 506.386719 770.316406 L 510.660156 654.136719 Z M 559.355469 880.546875 C 566.785156 847.085938 573.851562 814.371094 580.542969 782.398438 C 583.269531 769.015625 586.117188 754.886719 589.089844 740.019531 C 592.066406 725.144531 594.914062 710.523438 597.640625 696.148438 C 600.363281 681.773438 602.96875 667.894531 605.449219 654.507812 C 607.925781 641.125 610.03125 628.859375 611.765625 617.703125 C 618.953125 615.472656 626.015625 613.554688 632.953125 611.941406 C 639.890625 610.332031 647.015625 608.90625 654.328125 607.667969 C 661.636719 606.425781 668.515625 605.808594 674.957031 605.808594 C 686.109375 605.808594 695.464844 607.667969 703.019531 611.386719 C 710.582031 615.101562 716.714844 620.121094 721.421875 626.441406 C 726.128906 632.761719 729.472656 640.136719 731.457031 648.5625 C 733.441406 656.988281 734.429688 666.035156 734.429688 675.703125 C 734.429688 689.582031 731.890625 702.964844 726.8125 715.851562 C 721.734375 728.738281 714.917969 740.203125 706.367188 750.242188 C 697.820312 760.277344 688.027344 768.269531 677 774.21875 C 665.972656 780.167969 654.511719 783.144531 642.617188 783.144531 L 638.527344 783.144531 C 636.546875 791.570312 634.6875 800.738281 632.953125 810.652344 C 631.21875 820.566406 629.734375 829.738281 628.492188 838.164062 C 626.757812 848.078125 625.148438 857.992188 623.660156 867.90625 Z M 663.0625 650.792969 C 660.335938 667.148438 657.609375 682.640625 654.882812 697.261719 C 652.160156 711.886719 649.183594 727.5 645.960938 744.105469 C 649.925781 743.113281 654.078125 740.820312 658.414062 737.226562 C 662.75 733.632812 666.777344 728.925781 670.496094 723.101562 C 674.214844 717.277344 677.1875 710.519531 679.417969 702.839844 C 681.648438 695.15625 682.761719 687.101562 682.761719 678.671875 C 682.761719 669.503906 680.71875 662.5625 676.628906 657.855469 C 672.542969 653.148438 668.015625 650.792969 663.0625 650.792969 Z M 909.507812 679.046875 C 909.507812 699.367188 907.339844 718.515625 903.003906 736.484375 C 898.667969 754.453125 892.90625 770.9375 885.71875 785.929688 C 878.53125 800.925781 870.167969 814.308594 860.628906 826.082031 C 851.089844 837.855469 841.113281 847.890625 830.707031 856.195312 C 820.296875 864.5 809.765625 870.820312 799.109375 875.15625 C 788.457031 879.492188 778.292969 881.664062 768.628906 881.664062 C 760.453125 881.664062 753.015625 880.113281 746.328125 877.015625 C 739.636719 873.917969 733.8125 869.332031 728.859375 863.261719 C 723.898438 857.1875 719.996094 849.378906 717.148438 839.839844 C 714.296875 830.296875 712.875 818.832031 712.875 805.449219 C 712.875 791.570312 714.609375 776.945312 718.078125 761.582031 C 721.546875 746.214844 726.253906 730.972656 732.203125 715.851562 C 738.148438 700.734375 745.460938 686.359375 754.132812 672.726562 C 762.808594 659.09375 772.347656 647.011719 782.753906 636.476562 C 793.164062 625.945312 804.316406 617.578125 816.207031 611.382812 C 828.105469 605.1875 840.496094 602.089844 853.382812 602.089844 C 864.53125 602.089844 873.761719 604.382812 881.074219 608.96875 C 888.386719 613.554688 894.082031 619.5 898.171875 626.8125 C 902.261719 634.125 905.171875 642.363281 906.90625 651.535156 C 908.640625 660.703125 909.507812 669.875 909.507812 679.046875 Z M 768.257812 795.78125 C 768.257812 798.507812 768.753906 801.359375 769.742188 804.332031 C 770.734375 807.308594 772.097656 809.910156 773.832031 812.140625 C 775.570312 814.371094 777.734375 816.292969 780.339844 817.902344 C 782.941406 819.515625 785.730469 820.320312 788.703125 820.320312 C 799.851562 820.320312 809.765625 816.476562 818.4375 808.796875 C 827.113281 801.113281 834.296875 791.695312 839.996094 780.539062 C 845.699219 769.386719 850.097656 757.492188 853.195312 744.851562 C 856.292969 732.210938 857.839844 720.683594 857.839844 710.277344 C 857.839844 707.300781 857.652344 704.078125 857.285156 700.609375 C 856.910156 697.140625 856.167969 693.917969 855.050781 690.945312 C 853.9375 687.96875 852.203125 685.429688 849.847656 683.320312 C 847.492188 681.214844 844.335938 680.160156 840.367188 680.160156 C 832.4375 680.160156 825.128906 682.144531 818.4375 686.109375 C 811.746094 690.074219 805.738281 695.339844 800.410156 701.910156 C 795.082031 708.476562 790.4375 715.914062 786.472656 724.214844 C 782.507812 732.519531 779.097656 740.945312 776.25 749.496094 C 773.398438 758.046875 771.355469 766.414062 770.117188 774.589844 C 768.875 782.769531 768.257812 789.832031 768.257812 795.78125 Z M 899.84375 881.660156 L 928.09375 617.703125 C 939.742188 617.207031 950.707031 616.03125 960.992188 614.171875 C 971.277344 612.316406 981.5 611.011719 991.660156 610.269531 C 991.660156 610.515625 991.285156 613.058594 990.542969 617.890625 C 989.800781 622.722656 988.808594 629.042969 987.570312 636.851562 C 986.332031 644.660156 984.566406 653.402344 983.480469 663.246094 L 971.214844 774.589844 C 977.65625 751.789062 982.988281 733.140625 987.199219 718.640625 C 991.410156 704.140625 994.820312 692.367188 997.421875 683.320312 C 1000.023438 674.277344 1002.5 665.539062 1004.855469 657.113281 C 1007.210938 648.6875 1009.441406 640.878906 1011.542969 633.691406 C 1013.652344 626.503906 1015.324219 620.429688 1016.5625 615.472656 L 1019.910156 615.472656 C 1024.371094 615.472656 1028.894531 615.226562 1033.476562 614.730469 C 1038.0625 614.234375 1042.398438 613.675781 1046.484375 613.054688 C 1050.578125 612.4375 1054.851562 611.632812 1059.3125 610.640625 C 1058.816406 612.871094 1058.257812 617.457031 1057.640625 624.394531 C 1057.019531 631.335938 1056.214844 639.699219 1055.222656 649.492188 C 1054.230469 659.28125 1053.238281 670.0625 1052.246094 681.832031 C 1051.257812 693.605469 1050.265625 705.132812 1049.273438 716.410156 C 1048.28125 727.683594 1047.351562 738.40625 1046.488281 748.566406 C 1045.621094 758.730469 1044.816406 767.402344 1044.070312 774.589844 L 1086.078125 614.730469 C 1094.5 613.488281 1102.800781 612.375 1110.976562 611.382812 C 1118.167969 610.390625 1125.601562 609.398438 1133.28125 608.410156 C 1140.964844 607.417969 1147.78125 606.300781 1153.726562 605.0625 C 1150.007812 615.472656 1146.292969 627.058594 1142.574219 639.824219 C 1138.859375 652.585938 1135.015625 666.035156 1131.050781 680.160156 C 1127.085938 694.285156 1123.308594 708.539062 1119.714844 722.914062 C 1116.121094 737.289062 1112.589844 751.167969 1109.121094 764.550781 C 1101.191406 796.273438 1093.507812 828.867188 1086.074219 862.324219 L 1002.066406 876.453125 L 1013.960938 732.949219 L 977.164062 867.902344 Z M 1183.089844 792.066406 C 1175.90625 792.066406 1168.71875 792.3125 1161.53125 792.808594 C 1154.34375 793.304688 1147.160156 793.796875 1139.972656 794.292969 C 1147.65625 763.808594 1155.152344 733.449219 1162.460938 703.210938 C 1169.773438 672.972656 1177.394531 642.613281 1185.324219 612.125 C 1190.03125 611.382812 1195.421875 610.640625 1201.492188 609.898438 C 1207.566406 609.152344 1213.699219 608.285156 1219.890625 607.292969 C 1226.085938 606.300781 1232.097656 605.4375 1237.921875 604.691406 C 1243.742188 603.949219 1248.640625 603.203125 1252.601562 602.460938 C 1239.21875 633.6875 1227.015625 665.105469 1215.988281 696.703125 C 1204.960938 728.304688 1193.996094 760.09375 1183.089844 792.066406 Z M 1186.808594 850.433594 C 1186.808594 855.140625 1185.753906 859.851562 1183.648438 864.558594 C 1181.542969 869.269531 1178.507812 873.421875 1174.542969 877.015625 C 1170.578125 880.609375 1165.621094 883.457031 1159.675781 885.566406 C 1153.726562 887.671875 1146.914062 888.726562 1139.230469 888.726562 C 1134.027344 888.726562 1129.316406 887.734375 1125.105469 885.75 C 1120.890625 883.769531 1117.484375 881.105469 1114.882812 877.757812 C 1112.28125 874.410156 1110.234375 870.632812 1108.75 866.417969 C 1107.261719 862.207031 1106.519531 857.992188 1106.519531 853.777344 C 1106.519531 849.070312 1107.261719 844.546875 1108.75 840.207031 C 1110.234375 835.871094 1112.527344 832.03125 1115.625 828.683594 C 1118.722656 825.339844 1122.5625 822.550781 1127.148438 820.320312 C 1131.734375 818.089844 1137.246094 816.972656 1143.691406 816.972656 C 1158.0625 816.972656 1168.84375 820.382812 1176.027344 827.195312 C 1183.214844 834.011719 1186.808594 841.757812 1186.808594 850.433594 Z M 1186.808594 850.433594 " fill-opacity="1" fill-rule="nonzero"/><path fill="#010101" d="M 935.394531 1006.605469 L 898.734375 1022.042969 L 906.921875 983.117188 L 880.914062 953.019531 L 920.457031 948.777344 L 941.042969 914.734375 L 957.296875 951.039062 L 996.027344 960.097656 L 966.53125 986.78125 L 969.882812 1026.417969 Z M 935.394531 1006.605469 " fill-opacity="1" fill-rule="nonzero"/><path fill="#00a2e9" d="M 956.894531 1006.015625 L 936.164062 994.105469 L 914.128906 1003.386719 L 919.046875 979.984375 L 903.410156 961.890625 L 927.183594 959.339844 L 939.558594 938.875 L 949.328125 960.703125 L 972.613281 966.148438 L 954.878906 982.1875 Z M 956.894531 1006.015625 " fill-opacity="1" fill-rule="nonzero"/><path fill="#010101" d="M 762.484375 547.5 L 783.867188 540.417969 L 777.511719 562.03125 L 790.855469 580.179688 L 768.34375 580.8125 L 755.199219 599.113281 L 747.644531 577.890625 L 726.183594 571.054688 L 744.023438 557.304688 L 743.894531 534.777344 Z M 762.484375 547.5 " fill-opacity="1" fill-rule="nonzero"/><path fill="#e61f24" d="M 750.324219 546.875 L 761.492188 554.523438 L 774.347656 550.265625 L 770.527344 563.257812 L 778.546875 574.167969 L 765.015625 574.550781 L 757.117188 585.550781 L 752.574219 572.792969 L 739.667969 568.683594 L 750.398438 560.417969 Z M 750.324219 546.875 " fill-opacity="1" fill-rule="nonzero"/><path fill="#010101" d="M 956.765625 447.867188 L 919.007812 435.355469 L 930.226562 473.519531 L 906.664062 505.570312 L 946.425781 506.6875 L 969.625 539.003906 L 982.972656 501.53125 L 1020.867188 489.457031 L 989.363281 465.175781 L 989.585938 425.394531 Z M 956.765625 447.867188 " fill-opacity="1" fill-rule="nonzero"/><path fill="#e61f24" d="M 978.246094 446.757812 L 958.519531 460.265625 L 935.820312 452.746094 L 942.5625 475.6875 L 928.398438 494.957031 L 952.304688 495.628906 L 966.242188 515.054688 L 974.269531 492.527344 L 997.050781 485.269531 L 978.109375 470.671875 Z M 978.246094 446.757812 " fill-opacity="1" fill-rule="nonzero"/><path fill="#010101" d="M 1273.71875 805.765625 L 1277.726562 827.367188 L 1257.6875 818.363281 L 1238.386719 828.855469 L 1240.761719 807.011719 L 1224.820312 791.894531 L 1246.320312 787.398438 L 1255.769531 767.566406 L 1266.691406 786.628906 L 1288.46875 789.488281 Z M 1273.71875 805.765625 " fill-opacity="1" fill-rule="nonzero"/><path fill="#00a2e9" d="M 1275.929688 794.09375 L 1267.0625 803.878906 L 1269.476562 816.863281 L 1257.429688 811.453125 L 1245.824219 817.757812 L 1247.253906 804.628906 L 1237.664062 795.539062 L 1250.597656 792.835938 L 1256.273438 780.914062 L 1262.839844 792.375 Z M 1275.929688 794.09375 " fill-opacity="1" fill-rule="nonzero"/><path fill="#010101" d="M 653.550781 1025.144531 L 638.769531 1011.816406 L 658.140625 1007.257812 L 666.25 989.082031 L 676.570312 1006.09375 L 696.359375 1008.183594 L 683.367188 1023.265625 L 687.492188 1042.730469 L 669.144531 1035.039062 L 651.90625 1044.976562 Z M 653.550781 1025.144531 " fill-opacity="1" fill-rule="nonzero"/><path fill="#e61f24" d="M 658.382812 1034.761719 L 659.375 1022.835938 L 650.492188 1014.828125 L 662.136719 1012.085938 L 667.007812 1001.15625 L 673.210938 1011.390625 L 685.113281 1012.640625 L 677.296875 1021.703125 L 679.78125 1033.414062 L 668.75 1028.78125 Z M 658.382812 1034.761719 " fill-opacity="1" fill-rule="nonzero"/><path fill="#010101" d="M 1301.457031 613.753906 L 1308.722656 652.863281 L 1272.4375 636.5625 L 1237.492188 655.558594 L 1241.785156 616.011719 L 1212.917969 588.636719 L 1251.855469 580.5 L 1268.96875 544.585938 L 1288.738281 579.105469 L 1328.171875 584.28125 Z M 1301.457031 613.753906 " fill-opacity="1" fill-rule="nonzero"/><path fill="#f4cf00" d="M 1305.472656 592.617188 L 1289.417969 610.335938 L 1293.78125 633.847656 L 1271.964844 624.046875 L 1250.960938 635.46875 L 1253.535156 611.691406 L 1236.1875 595.238281 L 1259.59375 590.34375 L 1269.878906 568.753906 L 1281.761719 589.503906 Z M 1305.472656 592.617188 " fill-opacity="1" fill-rule="nonzero"/><path fill="#010101" d="M 609.570312 923.933594 L 580.019531 897.296875 L 618.738281 888.179688 L 634.9375 851.847656 L 655.570312 885.855469 L 695.125 890.039062 L 669.164062 920.175781 L 677.414062 959.089844 L 640.730469 943.707031 L 606.269531 963.578125 Z M 609.570312 923.933594 " fill-opacity="1" fill-rule="nonzero"/><path fill="#00a2e9" d="M 619.222656 943.15625 L 621.207031 919.320312 L 603.449219 903.308594 L 626.71875 897.828125 L 636.457031 875.984375 L 648.863281 896.429688 L 672.640625 898.945312 L 657.035156 917.0625 L 661.996094 940.457031 L 639.941406 931.210938 Z M 619.222656 943.15625 " fill-opacity="1" fill-rule="nonzero"/><path fill="#010101" d="M 232.585938 746.953125 L 243.378906 708.667969 L 268.703125 739.347656 L 308.441406 737.78125 L 287.089844 771.347656 L 300.867188 808.667969 L 262.347656 798.730469 L 231.113281 823.363281 L 228.660156 783.65625 L 195.589844 761.558594 Z M 232.585938 746.953125 " fill-opacity="1" fill-rule="nonzero"/><path fill="#e61f24" d="M 219.632812 764.128906 L 241.875 755.351562 L 248.359375 732.332031 L 263.585938 750.777344 L 287.476562 749.835938 L 274.644531 770.015625 L 282.921875 792.453125 L 259.769531 786.480469 L 240.988281 801.285156 L 239.515625 777.414062 Z M 219.632812 764.128906 " fill-opacity="1" fill-rule="nonzero"/><path fill="#010101" d="M 605.238281 554.414062 L 642.992188 541.90625 L 631.769531 580.070312 L 655.332031 612.121094 L 615.574219 613.238281 L 592.382812 645.554688 L 579.027344 608.082031 L 541.136719 596.003906 L 572.640625 571.726562 L 572.417969 531.945312 Z M 605.238281 554.414062 " fill-opacity="1" fill-rule="nonzero"/><path fill="#00a2e9" d="M 583.753906 553.308594 L 603.488281 566.8125 L 626.1875 559.296875 L 619.441406 582.238281 L 633.605469 601.503906 L 609.703125 602.175781 L 595.757812 621.605469 L 587.730469 599.078125 L 564.949219 591.816406 L 583.894531 577.222656 Z M 583.753906 553.308594 " fill-opacity="1" fill-rule="nonzero"/><path fill="#010101" d="M 1016.554688 629.378906 L 995.167969 622.296875 L 1001.527344 643.910156 L 988.183594 662.058594 L 1010.695312 662.691406 L 1023.832031 680.992188 L 1031.394531 659.773438 L 1052.855469 652.933594 L 1035.015625 639.183594 L 1035.140625 616.65625 Z M 1016.554688 629.378906 " fill-opacity="1" fill-rule="nonzero"/><path fill="#00a2e9" d="M 1028.71875 628.753906 L 1017.546875 636.402344 L 1004.683594 632.144531 L 1008.507812 645.136719 L 1000.484375 656.046875 L 1014.019531 656.429688 L 1021.917969 667.429688 L 1026.464844 654.671875 L 1039.371094 650.5625 L 1028.640625 642.296875 Z M 1028.71875 628.753906 " fill-opacity="1" fill-rule="nonzero"/><path fill="#010101" d="M 292.675781 659.742188 L 298.828125 637.933594 L 313.246094 655.40625 L 335.878906 654.515625 L 323.722656 673.632812 L 331.566406 694.890625 L 309.625 689.230469 L 291.835938 703.261719 L 290.441406 680.648438 L 271.605469 668.058594 Z M 292.675781 659.742188 " fill-opacity="1" fill-rule="nonzero"/><path fill="#f4cf00" d="M 285.296875 669.523438 L 297.96875 664.523438 L 301.664062 651.414062 L 310.335938 661.917969 L 323.941406 661.382812 L 316.636719 672.875 L 321.347656 685.65625 L 308.160156 682.253906 L 297.464844 690.6875 L 296.625 677.09375 Z M 285.296875 669.523438 " fill-opacity="1" fill-rule="nonzero"/></svg>