<?xml version="1.0" encoding="utf-8"?>
<!-- Generator: Adobe Illustrator 19.2.0, SVG Export Plug-In . SVG Version: 6.00 Build 0)  -->
<svg version="1.1" id="Capa_1" xmlns="http://www.w3.org/2000/svg" xmlns:xlink="http://www.w3.org/1999/xlink" x="0px" y="0px"
	 viewBox="0 0 425.2 425.2" style="enable-background:new 0 0 425.2 425.2;" xml:space="preserve">
<path d="M380.3,203.4l19.7-3.1l-119.5-24.5l23.4-58.9l-8.5,4.9l4.4-11.1l-61.7,35.4L195.9,31.5l-3.7,104L157,85.2l-6.9,66.1
	L46.5,101.5l9.5,11.1L44.3,107l67.3,78.6L27,205.2l15.1,4.5l-17.4,4l50.2,15L19.3,234l15.7,6.3l-18.3,1.7l92.6,37.2l-42.8,81.2
	l8.3-5.7l-9.4,17.8l78-53.8l23.7,69.9l18.1-48.3l20.7,54.3l24.7-61.1l75.9,40.9l-6.7-12.5l2.1,1.1l-28.8-53.6l99.9,1.3l-18.4-10
	l12.1,0.2L307,268.5l72.5-12.8l-17.9-7l11.9-2.1l-58.3-22.8l92.6-14.8L380.3,203.4z M367.1,200.7l-8,1.3l-8,1.3l-72.2,11.5l16.6,6.5
	l5.2,2l5.2,2l50.1,19.6l-3,0.5l-5.4,1l-5.4,1l-63.6,11.2l12.7,6.9l4,2.2l4,2.2l48.1,26.1l-1.9,0l-6.1-0.1l-6.1-0.1l-73.6-1l4.8,8.9
	l25.6,47.7l-3.6-2l-60.9-32.9L204.1,370l-21-54.9l-17.5,46.7l-21-61l-55,38l-5.1,3.5l-4.9,3.4l35.3-67.1l1.3-2.5l3.5-6.6l-63-25.3
	l-5.8-2.3l-5.8-2.3l-6.1-2.4l47.8-4.5l7.5-0.7l7.6-0.7l7.7-0.7l0.5-5.1l-47.9-14.3l-5.5-1.6l-5.5-1.6l-5.9-1.8l69.6-16.1l3.1-0.7
	l3.1-0.7l4.7-1.1l-50.2-58.6l-4.6-5.4l-4.6-5.4l-1.9-2.2l86.5,41.6l2.7,1.3l0.2,0.1l6.2-59.6l0.1-0.6l35.3,50.4l0.7,1l3.4-94.1
	l35.8,97.3l1.6-0.9l2.5-1.4l50.7-29.1l-1.6,4l-1.7,4.3l-1.7,4.3L267.9,178l5.1,1.1l2.8,0.6l2.8,0.6l94.8,19.5L367.1,200.7z"/>
</svg>
