<?xml version="1.0" encoding="utf-8"?>
<!-- Generator: Adobe Illustrator 19.2.0, SVG Export Plug-In . SVG Version: 6.00 Build 0)  -->
<svg version="1.1" id="Capa_1" xmlns="http://www.w3.org/2000/svg" xmlns:xlink="http://www.w3.org/1999/xlink" x="0px" y="0px"
	 viewBox="0 0 425.2 425.2" style="enable-background:new 0 0 425.2 425.2;" xml:space="preserve">
<path d="M122.9,297.5c11.7,0,22.5-4.1,31-10.9c13.2,22,37.3,36.8,64.8,36.8c11.2,0,21.7-2.4,31.3-6.8
	c-16.6-31.8-18.9-60.1-18.9-60.1s1.9,5.8,7.5,17.2c4.2,8.6,10.4,20.3,19.3,35.3c0.5,0.8,1,1.6,1.5,2.5c2.3,3.5,4.8,7,7.6,10.4
	c23.7,28.8,62,50.2,62,50.2c-5.8-9.3-16.3-31.5-15.2-58.3c0.3-7.8,1.6-14.4,3.2-19.7c0.7-2.3,1.4-4.4,2.2-6.2
	c3.5-8.6,7.5-12.5,7.5-12.5c-0.1,0.2-0.1,0.4-0.1,0.5c-1.2,4.2-2.1,8.4-2.8,12.6c1.5,0.1,3.1,0.2,4.7,0.2c30.8,0,55.8-25,55.8-55.8
	c0-1.3,0-2.6-0.1-3.8c16.9-8.8,28.3-25.5,28.3-44.6c0-27.9-24.2-50.6-54.4-51.2c-9.1-24.2-30.5-42.4-56.5-47.2
	c-7.3-0.9-15.8-1.1-25.7-0.1c-1.5,0.1-2.9,0.4-4.3,0.6c-4.8,1.1-9.4,2.6-13.8,4.5c-25.2,12.1-38.3,40.3-38.3,40.3
	s6.2-26.3,30.1-42.8c-13.8-20.7-37.4-34.3-64.1-34.3c-37.7,0-69.1,27.1-75.8,62.8c-19,5.7-34.7,19-43.7,36.2
	C38,158.2,17,180.3,17,206.8c0,29.4,25.8,53.3,58.2,54.6C81.1,282.2,100.2,297.5,122.9,297.5z"/>
</svg>
