<?xml version="1.0" encoding="utf-8"?>
<!-- Generator: Adobe Illustrator 19.2.0, SVG Export Plug-In . SVG Version: 6.00 Build 0)  -->
<svg version="1.1" id="Capa_1" xmlns="http://www.w3.org/2000/svg" xmlns:xlink="http://www.w3.org/1999/xlink" x="0px" y="0px"
	 viewBox="0 0 425.2 425.2" style="enable-background:new 0 0 425.2 425.2;" xml:space="preserve">
<path d="M36.1,381.1c-10.9-0.4-13.3,16-4,19.1c1.2,0.9,2.8,1.4,4.6,1.6c0.1,0,0.3,0,0.4,0c10.8-0.4,13.4-16,4.1-19.1
	C39.9,381.7,38.2,381.2,36.1,381.1z M36.1,397c-0.6,0-1.1-0.1-1.6-0.2c-2.3-0.6-3.9-2.4-4.5-4.5c-1.1-3.2,0-7,4.1-7.6
	c0.3,0,0.6-0.1,0.9-0.1c1.6-0.1,2.9,0.5,4,1.3C42.8,389.1,42.5,396.8,36.1,397z"/>
<g>
	<path d="M126.2,316.3c12.9-13.5,13.2-34.3,0.2-47.9c-2.8-2.7-5.9-4.8-9.3-6.3c-13-7-29.8-5.3-40.5,5.9
		c-12.9,13.5-13.2,34.3-0.2,47.9c2.7,2.9,5.9,5.1,9.4,6.6C98.6,329.5,115.9,327.1,126.2,316.3z M70.9,300.2
		c-3.1-10.8-0.1-23.2,8.3-31.3c3.9-3.8,8.6-6.1,13.6-7.2c7.4-1.6,15.4-0.4,22.2,3.3c2.5,1.4,4.9,3.1,7,5.1
		c11.9,12.5,12.1,32.1-0.6,44.2c-9.3,8.9-22.9,9.9-33.9,4.8c-3.3-1.5-6.3-3.5-9-6.1C74.9,309.5,72.3,305,70.9,300.2z"/>
	<path d="M47.1,357c3.2,1.8,6.8,2.8,10.5,2.9c12,0.4,21.7-10.1,22.8-21.5c0.9-9.5-5.1-17.7-13.2-21.3c-3.2-1.8-6.7-2.8-10.4-2.9
		c-12,0.4-21.6,9.6-22.8,21.5C33,345.1,39,353.3,47.1,357z M37,338.3c-1.5-9.2,4.8-17.2,13-20c1.8-0.6,3.7-1,5.6-1
		c0.3,0,0.6,0,0.9,0.1c0.7,0.1,1.5,0.1,2.2,0.3c2.3,0.4,4.5,1.2,6.5,2.3c5.3,3,9.1,8.3,10.1,14.7c1.8,11.3-7.9,20.7-18.6,21
		c-2.6,0.1-5.1-0.4-7.4-1.4c-5.7-2.4-10.1-7.7-11.7-13.8C37.3,339.8,37.1,339.1,37,338.3z"/>
	<path d="M32.2,194c2.4,1.3,5.1,2.4,7.9,3c3.4,0.8,7.2,1,10.6,0.5c2.3-0.3,4.4-0.8,6.6-1.5c1.3,1.5,2.7,4,3.3,4.7
		c5.7,7.5,13.1,13.6,21.2,18.3c1.5,0.9,3,1.7,4.6,2.4c15.1,8,32.7,9.9,49.4,6.4c3.6,16.8,14.8,30.4,29.5,37.4
		c8.7,4.6,18.7,6.8,29.2,6c25.2-1.9,45-22.3,48.8-46.6c3.3,2.2,6.6,4.1,10.1,5.7c33.2,17,74.2,10.3,100.6-17.3
		c15.2,5.1,32,1.9,44.4-8.4c16.8-14,20.5-38.5,10-57.2c-4.9-7.9-11.6-14-19.8-17.8c-2.9-1.5-6-2.8-9.3-3.7c-2.5-0.7-5.2-1.1-7.8-1.3
		c-1.4-2-2.7-6.5-3.3-7.7c-2.7-5.9-6.4-11.4-10.4-16.4c-7.7-9.6-17.5-17.1-28.5-22.5c-0.3-0.2-0.6-0.3-1-0.5
		c-0.4-0.2-0.7-0.4-1.1-0.6c-5.7-2.8-11.7-4.9-18.1-5.8c-7.6-1-15.3-2.6-23.1-2.2c-6.4,0.3-12.8,1.6-18.9,3.4
		c-2.9,0.8-5.7,1.9-8.4,3.1c-1.4,0.6-6.2,3.8-8.4,3.9c-2.9-1.9-5.8-3.6-8.9-5.1c-8.3-4.3-17.5-7-26.8-8.2
		c-23.2-2.9-47.2,6.2-63.5,22.9c-40.3-19.2-88.1,1.7-102.4,43.5c-16.4-1.3-31,9.7-34.8,25.7C10.3,173.2,18.8,187.9,32.2,194z
		 M17,170c-3.4-14,4.6-26.5,16.4-31.7c4.8-2.1,10.2-3.1,15.7-2.4c0.6,0.1,1.1-0.3,1.5-0.8c0.2-0.2,0.3-0.4,0.4-0.6
		c0.1-0.1,0.1-0.2,0.1-0.3c0.1-0.3,0.2-0.5,0.3-0.8c6-18.3,18.6-32.2,34.2-40.3c19.3-10,43.1-11.1,64.5-0.6c0.7,0.3,1.5-0.3,1.9-0.8
		c0.1-0.1,0.2-0.1,0.2-0.2c0.3-0.3,0.6-0.6,0.9-0.9c0.2-0.2,0.3-0.3,0.5-0.5c8.2-8.2,18-14,28.5-17.4c18.8-6,39.9-4.3,57.9,5.1
		c2.9,1.5,5.7,3.2,8.4,5.1c0.3,0.2,0.6,0.2,0.8,0.2c0.2,0,0.4-0.1,0.6-0.2c0.5-0.3,0.9-0.5,1.4-0.7c4.7-2.5,9.5-4.6,14.5-6.2
		c6.2-2,12.6-3.2,19.2-3.7c6.4-0.5,12.8,0.8,19.1,1.7c6.5,0.9,12.3,2.3,18.4,4.8c1.8,0.7,3.5,1.6,5.2,2.4
		c18.5,9.5,32.4,26.4,39.3,46c0.1,0.4,0.6,0.5,0.9,0.5c0.3,0,0.6,0.1,1,0.1c6.4,0.4,12.5,2.2,17.9,5.1c6.7,3.6,12.5,9,16.7,15.8
		c10.3,18.6,6,41.3-11,54.4c-11,8.5-26.9,9.8-39.7,5.2c-0.7-0.3-1.5,0.3-1.9,0.8c-24.8,26.8-63.8,33.1-95.6,17.9
		c-4.5-2.1-8.8-4.7-12.9-7.7c-0.4-0.3-0.7-0.5-1.1-0.8c-1.2-0.9-2.7,0.7-2.8,1.9c-2.1,26.2-23.4,46.1-49.7,46.6
		c-7.5,0.1-14.7-1.6-21.2-4.6c-14-6.6-24.6-19.6-28.4-35c-0.2-0.6-0.3-1.3-0.4-1.9c-0.1-0.5-0.2-1-0.3-1.5c0-0.1,0-0.2-0.1-0.3
		c-0.1-0.7-0.8-1-1.4-0.8c-16.7,4.2-33.8,2.2-48.5-4.9c-11.7-5.6-21.9-14.4-29.3-25.9c-0.1-0.2-0.3-0.4-0.4-0.7
		c-0.3-0.4-0.8-0.7-1.3-0.5c-8.1,3.1-16.4,2.7-23.5-0.5c-7.7-3.5-13.9-10.2-16.5-19.3C17.2,170.9,17.1,170.5,17,170z"/>
</g>
</svg>
