<?xml version="1.0" encoding="utf-8"?>
<!-- Generator: Adobe Illustrator 19.2.0, SVG Export Plug-In . SVG Version: 6.00 Build 0)  -->
<svg version="1.1" id="Capa_1" xmlns="http://www.w3.org/2000/svg" xmlns:xlink="http://www.w3.org/1999/xlink" x="0px" y="0px"
	 viewBox="0 0 425.2 425.2" style="enable-background:new 0 0 425.2 425.2;" xml:space="preserve">
<path d="M408.6,227.1l-22.3-0.7l6.7-8.5l-37.5-2.4c0-0.6-0.1-1.3-0.2-1.9c-0.2-1.2-0.5-2.4-0.9-3.5c13.3-8.5,16.9-23.2,13.6-36.1
	c-0.5-2-1.2-4-2-5.9c0-0.1-0.1-0.2-0.1-0.3c-0.1-0.3-0.3-0.6-0.4-1c0,0,0,0,0-0.1c-0.3-0.5-0.5-1.1-0.8-1.6
	c-0.7-1.3-1.4-2.5-2.3-3.6c-3.6-5.1-8.4-9.2-14.2-11.5c-0.6-0.2-1.1-0.5-1.7-0.6c-0.4-0.2-0.9-0.3-1.4-0.4c-0.9-0.3-1.9-0.5-2.8-0.7
	c-0.5-0.1-1-0.2-1.5-0.2c-1-0.1-2-0.2-3-0.2c-2.5-0.1-5.2,0.2-7.9,0.7c-0.6-2-1.4-3.8-2.2-5.6c-3.6-7.7-8.9-13-14.7-16.5
	c-1.3-0.8-2.7-1.5-4.1-2.1c-12.8-5.5-27-3.2-33.2,1.6v0c0-0.7,0.1-1.4,0.1-2.1c0-8.4-2.9-15.9-7.9-21.6c-1.2-1.4-2.6-2.7-4.1-3.9
	L284,74l-8.7-0.8l0,0l11.9-13.5l-22.6,16.1l0,0l10.5,1l-17.5,17.8c-4.4-2.1-9.5-3.3-15-3.3c-14.5,0-26.9,9.1-31.9,21.8
	c-1.9-9.3-10.1-16.2-19.9-16.2c-4.8,0-9.2,1.7-12.6,4.4c-4.9-9.2-14.6-15.5-25.8-15.5c-16.1,0-29.1,13-29.1,29.1
	c-1.5-0.3-3.1-0.4-4.6-0.4c-6.3,0-12.1,2.1-16.7,5.6L78.3,94.2l14.3-0.9l-30.2-23l15.7,19l-11.9,0.6l29,37.5
	c-1.7,2.7-2.9,5.6-3.6,8.8c-6.5-2.7-13.6-4.2-21-4.2C40.5,132,16,158.2,16,186.6c0,28.4,19.1,48.7,44.3,53.6
	c2.5,0.5,3.7,0.7,4.7,0.9c-0.6,13,5.5,24.7,14.7,32.6c2.6,2.2,5.4,4.1,8.5,5.7l-10.6,18.7l-3.3-8.4l-7.9,22.5l8.3-13l2.7,7
	l16.5-24.2c9.8,3.5,20.9,3.5,31.1-1.5c3.9,26.1,25.8,46.4,52.7,47.6c0.9,0,1.7,0.1,2.6,0.1c24,0,44.6-15.2,52.5-36.5
	c6.5,4.2,13.5,6.2,20.4,6.3l22,42.8l11.2-11.1l17.2,36.1l-9.6-61.9l-9.6,8.2l-6.2-24.5v0c4-4.1,7.2-9.4,8.9-15.7
	c1.5,1,3.1,1.8,4.6,2.5c17.4,7.7,38.1,0,48-15.5c3.6-5.7,5.7-12.3,5.7-19.7l0,0c0-0.6,0-1.2,0-1.8c-0.1-1.8-0.3-3.5-0.6-5.2
	c3.8-1.6,7-4.5,8.9-8.2l29.3-0.6l-8,10.2L408.6,227.1z M343.2,209.5c0.7,1.8,1,3.7,1,5.6c0,6.8-4.1,12.6-10,15
	c5.5,28.9-25.2,50.4-49.9,37c-8.8-4.8-15-13.5-16.8-23.7c0.8,10.7,6.5,18.3,13.8,24.3c-2.3,6.8-6.5,12.2-11.7,16.2l12.1,39.9
	l10-10.9l6.2,34.2l-9.1-26.6l-11,10.2l-19-41.3c-9.3,2.8-19.8,1.8-28.8-4c-7.4,19.8-26.5,33.9-48.9,33.9c-28.4,0-52-23.1-52-51.5
	c0-17.2,8.3-32.5,21.1-42.1c-15.6,9.1-26,26.1-26,45.4c0,2,0.1,3.9,0.3,5.9c-24.2,7.8-49.7-9.7-50.6-35.6c4.7-1.3,7-2,13.6-5.5
	c-8.4,2.6-13.8,2.4-18.1,1.6c-23.5-4.3-41.2-23.5-41.2-49.9c0-26.4,22.8-50.8,50.8-50.8c6.9,0,13.5,1.4,19.6,3.9
	c2.6-11.6,12.9-20.3,25.2-20.3c1.4,8.4,6.3,15.6,13.2,20.1c-3.7-3.3-8.8-14-8.8-19.7c0-16.2,14.4-27,27.1-27
	c12.7,0,19.4,5.9,24,14.5c3.2-2.6,7.3-4.1,11.8-4.1c9.1,0,16.8,6.5,18.5,15.1c4.6-11.9,16.2-20.3,29.7-20.3
	c18.3,0,32.8,15.4,31.8,33.6c21.5-10.2,46.1,0.6,49.8,22.3c1.4-0.5,2.8-0.5,5.4-0.7C355.5,152.4,369.5,192.8,343.2,209.5z"/>
</svg>
