<?xml version="1.0" encoding="utf-8"?>
<!-- Generator: Adobe Illustrator 19.2.0, SVG Export Plug-In . SVG Version: 6.00 Build 0)  -->
<svg version="1.1" id="Capa_1" xmlns="http://www.w3.org/2000/svg" xmlns:xlink="http://www.w3.org/1999/xlink" x="0px" y="0px"
	 viewBox="0 0 425.2 425.2" style="enable-background:new 0 0 425.2 425.2;" xml:space="preserve">
<g>
	<path d="M337,295.1l13.2,8.5L332.3,255l73.8-15.7l-19.3-13.6l-12.6-8.9l-6.8-4.8l-22.7-16l22.7-14.8l6.9-4.5l19-12.4l-19.7-4.5
		l-6.2-1.4l-37.2-8.5l18.6-35.6l26.1-49.9l-89.2,48.7l-0.3-69.6l-49.1,68.6l-37.7-73.8l-19.5,62.8l-52.6-60.7l1.7,79.4l-47-22.6
		l22,49.3l-85.5-4.2l74.7,49.2l-61.2,42l73.7-0.3l-45.2,93.6l83.3-50.8l-15.7,75.5l58-73l20.8,76l30.1-69.8l32.5,34.9l19.7-55.6
		l46,29.7l-2.8,4.2l-16.3,24.3l-31-7.7l17.4,29.4l-19.1,33L315,364l20,28.3l2-38l30.6-15.2l-30.2-10.5L337,295.1z M285.3,256.4
		l-16.9,55l-35.2-35l-25.6,59.4l-19.2-69.9l-48,60.4l12.8-61.6l0.1-0.6l-1.7,1.1l-74.9,45.7l33.1-68.6l6.4-13.4l-10,0l-51.8,0.2
		l43.8-30.1l7-4.8l-10.1-6.6l-51.7-34l71,3.4l-18.8-42.1l39.9,19.2l-1.5-71.2l48.1,55.5l18.1-58.3l32.3,63.3l2.7,5.2l1-1.4l42-58.7
		l0.2,54l0,5.5l12.6-6.8l66.5-36.3L342,114.8L319.4,158l48.1,10.9l6.6,1.5l1,0.2l-0.9,0.6l-6.7,4.4l-31.7,20.8l-4,2.6l4.3,3l23,16.2
		l29.2,20.6l-65.8,14l13.3,36.3L285.3,256.4z M331.5,350.6l-1.3,24.9L317.1,357l-21,8.3l12.5-21.5l-12.1-20.5l21.5,5.3l13.5-20
		l0.4,24.1l21,7.3L331.5,350.6z"/>
	<path d="M58.8,102.7l14-19.5l21.4,2.4L81.8,69.9l12.8-20.6l-5.3,2.3l-16.9,7.3L58.4,44.3l-0.7,21.5l-21.3,11L57.8,81L58.8,102.7z
		 M60.9,67.3l0.6-15.9l10.2,10.8l15.8-6.8l-9,14.6l9.2,11.7l-15.8-1.8l-10.1,14l-0.7-15.7l-15.4-3L60.9,67.3z"/>
</g>
</svg>
