<?xml version="1.0" encoding="utf-8"?>
<!-- Generator: Adobe Illustrator 19.2.0, SVG Export Plug-In . SVG Version: 6.00 Build 0)  -->
<svg version="1.1" id="Capa_1" xmlns="http://www.w3.org/2000/svg" xmlns:xlink="http://www.w3.org/1999/xlink" x="0px" y="0px"
	 viewBox="0 0 425.2 425.2" style="enable-background:new 0 0 425.2 425.2;" xml:space="preserve">
<g>
	<path d="M328.9,281c4.6,3.4,9.3,6.8,13.4,9.6c16.8,11.8,16.8,13.4,19.4,9.7c2.6-3.7,1.1-3.1-15.8-14.9c-3.3-2.3-6.9-4.8-10.7-7.3
		c0.9-0.3,1.9-0.7,2.8-0.9c6.4-1.9,13.4-1.1,17.3-2.3c3.9-1.1,3.4,0.5,4.2-1.8c0.9-2.3-2.1-2.6-4-4.5c-1.9-1.8-4.9-4.1-7.4-6.7
		c-2.6-2.6-6.1-6.5-8.4-10.1c-1.2-1.9-3-3.8-4.1-6.1c-2.7-6-5.9-11.9-5.5-18.9c1.1-19.7,10.8-34.4,23.9-48.7c1-1.1,4.3-2.8,2.9-4.7
		c-1.4-1.9-5.4-0.7-7.5-1.2c-2.2-0.5-5.2-0.5-7.3-0.7c-3.1-0.2-5.9-0.5-8.8-0.7c-1.3-0.1-2.6-0.2-3.9-0.3c0.2-0.2,0.5-0.3,0.7-0.5
		c12.9-8.4,14-7.9,12.2-10.8c-1.8-2.8-1.9-1.6-14.8,6.8c-1.8,1.2-3.8,2.5-5.8,3.9c-10.4-0.9-20.6-2.3-30.1-6.7
		c-7.4-3.4-13.1-10.3-16.6-16.8c-3.5-6.5-2.8-12-3.4-18.6c0-0.5,0.1-0.4,0-0.7c0-0.2,0-0.2,0-0.4c0-3.1,0-5.6,0.5-8.9
		c0.2-1.3,2.3-7,0.6-7.8c-1.7-0.8-3.9,2.9-4.8,3.5c-2.3,1.5-3.9,2.9-6.2,4.1c-7.2,3.6-14.5,6.5-22.7,6.6c-8.2,0.2-16.8-1.1-24.6-3.7
		c-7.8-2.6-15-7.5-20-13.4c-5.1-5.8-7.2-11.6-9.8-18.4c-1.3-3.4-1.8-6.3-2.8-10.3c-0.2-0.7-1.1-6.7-1.7-7.2
		c-0.7-0.5-0.5,0.1-0.6,0.3c-1.1,1.8-1.2,4.2-1.8,6.1c-2,5.7-4.3,11.5-7.4,16.6c-3.1,5.1-6.3,9.4-10,14.1
		c-9.5,12-20.9,18.7-36.4,18.6c-6.6-0.1-12.5-2.3-18.7-4.1c-3.6-1-7-2.5-10.5-3.6c-3.5-1.2-6.4-4.5-10.3-3.9c-1,0.2,3.4,6.9,3.6,7.3
		c5.3,9.3,10,17.2,12.2,27.7c0.4,1.8,0.7,3.6,1,5.4c-3.2-1.9-6.4-3.7-9.2-5.3c-11.5-6.4-11.6-7.4-13-4.9c-1.4,2.5-0.5,2.1,11,8.5
		c3.5,2,7.7,4.2,11.8,6.3c0.7,7.4,0.2,15-2.7,22.2c-4.2,10.4-12.6,17.5-21.6,23.7c-4.6,3.2-9.6,5.5-14.6,7.9
		c-1.5,0.7-4.9,1.3-4.4,3.3c0.5,2,2.7,1.7,3.9,2.1c2.3,0.8,4.3,1.1,6.4,2c7.9,3.2,15.1,6.9,21.4,12C80,237.2,61.4,245,48.3,251
		c-18.6,8.6-20,7.8-18.1,11.9c1.9,4.1,2.2,2.5,20.8-6.1c13.6-6.3,32.5-15.9,41.5-21.2c2.5,2.2,4.8,4.7,6.9,7.6
		c1.3,1.7,2.2,3.6,2.8,5.5c-1.6,0.9-3.2,1.9-4.6,2.8c-14.5,8.7-15.7,8.2-13.8,11.4c1.9,3.2,2,1.8,16.5-6.9c0.9-0.6,1.9-1.2,2.9-1.8
		c0.2,3.5-0.2,7.1-0.6,10.7c-0.8,6.2-2.2,12-3.4,18c-0.6,3-1.4,5.9-2.2,8.9c-0.4,1.5-0.9,2.9-1.2,4.4c-0.1,0.4-0.8,1.1-0.2,1.5
		c2,1.6,7.4-3.5,8.7-4.2c4.2-2.1,7.7-3.9,11.9-5.2c11.8-3.5,23.6-5.6,35.9-4.1c10,1.2,17.8,6.5,23.8,14.4c1.7,2.2,3.1,4.6,4.3,7
		c-4.1,5.8-8,11.6-11.9,17.5c-2.4,3.6-4.7,7.2-7,10.9l-1.7,2.7l-0.9,1.4l-0.2,0.3l-0.1,0.2c-0.1,0.2-0.2,0.4-0.3,0.6
		c-0.4,0.9-0.6,1.9-0.4,2.9c0.1,1,0.5,1.9,1.1,2.7c0.4,0.5,0.4,0.5,0.5,0.6l0.3,0.3l1.1,1.2l2.3,2.3c5.6,5.8,11.4,11.6,17.2,17.3
		l-1.8,1.2l-6,4l-12.1,7.9c-4,2.6-8.1,5.2-12.2,7.7c-4,2.6-8.2,5-12.3,7.6l-10,6.1l11.1-3.8c9.9-3.4,20-6.7,30-9.7
		c10.1-3.1,20.2-6,30.3-8.9l15.2-4.4l7.6-2.3l1.9-0.6l0.2-0.1c0,0,0.5-0.2,0.7-0.3c0.6-0.3,1.1-0.7,1.5-1.1c0.9-0.9,1.4-2.1,1.4-3.4
		c0.1-1.2-0.4-2.6-1.2-3.5c-0.5-0.6-0.5-0.5-0.6-0.7l-0.3-0.4l-1.4-1.4c-6.7-6.9-13.5-13.6-20.4-20.3l2.7-2.8l6.2-6.5
		c2.2-2.3,4.4-4.6,6.6-6.9c3-1.9,6.3-3.6,10.1-4.7c10.8-3.2,22.5-2.9,33,0.9c1.4,6.6,2.9,13.1,4.2,18.8c4.8,19.9,3.8,21.2,8.2,20.1
		c4.4-1.1,2.9-1.6-2-21.6c-1.1-4.4-2.3-9.2-3.7-14.2c10.5,5.8,17.6,15.5,24.9,24.8c4.2,5.3,6.5,13.2,12.4,16.9
		c0.1,0.1,0.3,0.2,0.4,0.3c-1.3-0.8-1.7-18.6-1.9-21c-0.8-7.8-1.2-15.7-0.3-23.6C304.2,304.4,314.5,288.9,328.9,281z M164.5,339.9
		C164.5,339.8,164.4,339.8,164.5,339.9L164.5,339.9z M219.2,363.7l-0.1,0C219.1,363.7,219.2,363.7,219.2,363.7z M298.2,295.4
		c-0.2,0.3-0.7,1-1,1.6c-0.3,0.6-0.4,1-0.8,1.9c-0.3,0.9-1,2.3-1.4,3.4c-0.4,1.1-0.7,2.5-1.1,3.7c-0.4,1.2-0.7,2.5-0.8,3.8
		c-0.2,1.3-0.4,2.6-0.6,3.9c-0.2,1.3-0.3,2.5-0.4,3.9c-0.2,2.7-0.2,4.9-0.3,7.7c0,2.8,0.3,6.3,0.6,9.2c-3-3.8-5-7.4-8.7-10.9
		c-6-5.8-13-10.8-20.8-14.1c-0.8-2.7-1.5-5.2-2.3-7.6c-2.8-9-5.1-15.4-5.9-15.2c-0.7,0.2-0.1,5.4,1.2,12.9c0.4,2.5,0.9,5.1,1.4,8
		c-0.5-0.2-1-0.3-1.5-0.5c-7.8-2.1-16.2-1.4-24.1,0.4c1.1-1.2,2.2-2.4,3.3-3.7c2.1-2.4,4.2-4.8,6.3-7.2c0.1-0.1,0.2-0.2,0.3-0.4
		c1-1.1,1.9-2.3,2.9-3.4c0.8-1,1.1-2.2,0.8-2.9c0,0,0,0,0-0.1l0,0c-0.2-0.4-0.7-0.6-1.4-0.2c-0.3,0.1-0.6,0.3-0.9,0.6
		c-2.2,1.8-4.3,3.7-6.5,5.6c-0.3,0.2-0.5,0.4-0.8,0.7c-0.5,0.4-1,0.9-1.5,1.3c-5.1,4.5-10.1,9.1-15,13.7c-0.5,0.5-1.1,1-1.6,1.5
		c-4.4,4.1-8.7,8.2-13,12.4l-6.5,6.2l-3,2.9l-0.2,0.2l-1.6,1.6c0.1-0.1-0.7,0.7-1.1,1.5c-0.4,0.8-0.6,1.6-0.6,2.5c0,1.5,0.7,3,1.8,4
		l0,0c0,0,0.1,0.1,0.1,0.1c0.4,0.4,0.8,0.8,1.2,1.2c6.7,6.7,13.5,13.3,20.5,19.8l-5.6,2.1l-14.8,5.6c-9.8,3.8-19.6,7.6-29.5,11.2
		c-5.9,2.2-11.8,4.3-17.7,6.3c0.5-0.3,1-0.6,1.5-0.8c4.2-2.4,8.3-4.8,12.6-7.1l0.8-0.5l11.8-6.5l6.3-3.5l3.2-1.7l0.8-0.4
		c0.8-0.4,1.6-1.4,1.8-2.4c0.3-1,0.2-2.1-0.3-3c-0.3-0.6-0.8-1.1-1.3-1.5c-5.5-6.5-11.1-12.9-16.8-19.2l-2.1-2.4l-0.2-0.3l0.2-0.3
		l1.8-2.7c2.4-3.6,4.8-7.2,7-10.8c2.9-4.5,5.7-9.1,8.5-13.7c1.5-2.5,3-5,4.5-7.6c0.1-0.3,0.3-0.5,0.4-0.8c0.5-0.9,1-1.8,1.5-2.7
		c0.8-1.4,1.6-2.7,2.3-4.1c1.1-2,2.2-4,3.3-6c1.2-2.3,2.4-4.6,3.6-6.8c0.5-0.9,1.7-2.7,1.1-3.8c0,0,0-0.1-0.1-0.1
		c-1.4-2-3.2,1.4-4,2.3c-1.5,1.9-3,3.8-4.5,5.7c-0.6,0.8-1.2,1.5-1.7,2.3c-1,1.3-1.9,2.5-2.9,3.8c-1-2.1-2.2-4.2-3.4-6.1
		c-1.3-2-3.1-4.5-4.8-6.4c-0.9-1-2.1-2-3.1-2.9c-1-0.9-2.1-1.9-3.3-2.5c-1.2-0.7-2.6-1.4-3.8-2c-1.2-0.6-3-1.2-4.1-1.5
		c-1.1-0.4-1.4-0.5-2.3-0.7c-0.9-0.3-1.3-0.3-2.5-0.5c-1.2-0.2-3.1-0.6-4.4-0.7c-1.4-0.2-3.4-0.2-4.6-0.2c-1.2,0-1.6-0.1-2.6-0.1
		c-1,0-1.4,0.1-2.5,0.2c-1.2,0.1-3.1,0.2-4.5,0.4c-1.3,0.2-3.2,0.5-4.4,0.8c-9.8,2.2-19.5,5.8-28.1,10c-0.8,0.4-1.4,0.7-2,1.1
		c-1.2,0.7-1.9,1.4-3.4,2.4c0.1-0.3,0.2-0.5,0.3-0.8c0.6-1.2,0.9-2,1.7-3.5c3.6-6.8,7.5-13,8.8-21.2c0.8-4.7,0.6-9.5-0.5-14.2
		c2.4-1.6,4.8-3.1,7.1-4.7c8.9-5.9,16-11.1,15.6-11.8c-0.4-0.7-7.8,2.9-16.7,7.8c-2.4,1.3-4.9,2.7-7.4,4.1c-0.7-1.8-1.5-3.6-2.5-5.2
		c-4.4-7.3-11.7-12.3-18.7-15.9c-6-3.1-10.8-3.6-17-5.3c0,0,0.1,0,0.1,0c7.9-2.7,14.9-6.1,21.7-11c0.8-0.6,1.8-1.5,2.7-2.3
		c0.8-0.8,1.7-1.7,2.5-2.6c1.7-1.9,3.1-3.9,4.5-6c0.7-1.1,1.3-2.3,1.9-3.5c0.6-1.2,1.2-2.4,1.6-3.6c0.7-2.5,1.9-5.1,2.3-7.6
		c0.9-4.6,1.3-9.4,1.3-14.1c3.7,1.8,6.6,3,7.7,3.2c0.3,0.1,0.5,0,0.5,0c0.1-0.1-0.1-0.4-0.5-0.7c-1.1-1-4-3.1-7.8-5.5
		c-0.2-4.6-0.9-9.1-2-13.3c-2-7.9-5.2-12.6-8.9-19.3c5.2,2.6,9.5,4.9,15.4,6.5c4.1,1.2,8.6,2.1,13.4,2.1c4.8,0,10.3-1.1,15.1-3.1
		c2.4-1,5-2.7,7.3-4.3c0.4-0.3,1.1-0.8,1.7-1.3c0.5-0.4,0.8-0.8,1.5-1.4c0.7-0.6,1.8-1.7,2.7-2.5c1.7-1.6,3.6-3.5,5.1-5.3
		c1.5-1.8,3.2-3.8,4.5-5.6c4.5-6.6,7.7-13.3,10.4-20.7c1.6,6.9,3.9,13,7.7,19.1c0.6,1,1.4,2,2.2,2.9c0.8,0.9,1.7,1.9,2.6,2.8
		c1.8,1.8,3.9,3.5,6.1,5c4.4,2.9,9.8,5.5,14.6,7c9.5,2.9,20.1,4.2,29.3,3.1c9.2-1.1,14.4-4.5,21.7-8.8c0.9-0.5,1-1,1.8-1.5
		c-0.1,0.7-0.4,0.9-0.5,1.7c-1,8.3-1.6,14.8,1,23.4c1.3,4.2,4.2,9.5,7.4,13.4c3.2,3.9,8.3,8.1,12.8,10.7c6.7,3.9,14.9,5.9,22.5,6.6
		c-0.4,0.3-0.7,0.5-1,0.8c-6.5,4.8-11.4,8.6-11,9.2c0.4,0.7,8.5-3.7,17.6-9.1c0.3-0.2,0.5-0.3,0.8-0.5c0.6,0,1.3,0,1.9,0
		c9.5-0.1,15.8-0.8,24.3-1.3c2.5-0.1,3-0.5,5.3-0.8c-2,1.5-2.9,1.8-5,3.6c-6.3,5.4-12.1,11.9-17.1,19.1c-1.3,1.8-2.8,4.5-3.9,6.7
		c-1.1,2.1-2.2,4.7-2.9,6.9c-1.3,4.5-2.3,9.5-1.8,13.9c0.9,8.9,4.4,17.1,9.2,23.9c4.8,6.8,10.1,10.5,16.2,15.5
		c0.7,0.6,1.1,0.8,1.8,1.3c-1.5,0.2-2.4-0.3-4,0.1c-4.1,1-7.8,1.9-11.4,3.2c-3.9-2.5-7.7-4.9-11.2-7.1c-8-4.9-14-8.2-14.5-7.6
		c-0.4,0.6,3.8,4.3,10,9.3c3,2.4,6.4,5.1,10,7.8c-1.3,0.7-2.6,1.3-3.9,2.2C309.7,281.4,303.1,288.1,298.2,295.4z M181.4,367.8
		l0.6,0.4C181.8,368.1,181.6,368,181.4,367.8z"/>
	<path d="M353.8,105.6c16.6-20.5,18.9-20.2,13.6-24.4c-5.2-4.2-4.5-2.1-21,18.4c-16.6,20.5-41.1,54.2-39,55.8
		C309.4,157.1,337.2,126.1,353.8,105.6z"/>
	<path d="M222.4,116.2c1.3,0,2.2-24.3,2.1-39.7c-0.1-15.4,0.9-16.1-2.5-16.1c-3.4,0-2.4,0.7-2.3,16.1
		C219.8,92,221.1,116.2,222.4,116.2z"/>
	<path d="M142.7,102.8c1.1-0.7-11.8-21.3-20.6-34c-8.7-12.7-8.3-13.8-11.1-11.9c-2.8,1.9-1.6,1.9,7.2,14.6
		C127,84.2,141.6,103.5,142.7,102.8z"/>
	<path d="M208.7,103.4c1.7-0.4-3.7-32.3-8-52.4c-4.3-20.1-3.2-21.2-7.6-20.3c-4.4,0.9-2.9,1.6,1.4,21.6
		C198.8,72.4,207,103.7,208.7,103.4z"/>
	<path d="M86.3,168.7c0.7-1.6-28-16.5-46.6-25.2c-18.6-8.7-18.9-10.2-20.8-6.2c-1.9,4.1-0.5,3.3,18.1,11.9
		C55.6,157.9,85.6,170.3,86.3,168.7z"/>
	<path d="M247.3,327.2c-1.2,0.1-1.1,21.8-0.5,35.6c0.6,13.8-0.2,14.4,2.8,14.3c3-0.1,2.1-0.7,1.5-14.5
		C250.4,348.8,248.4,327.1,247.3,327.2z"/>
	<path d="M352.7,336.9c-10.5-9-27.6-22.4-28.4-21.5c-0.8,0.9,15.1,15.7,25.6,24.7c10.5,9,10.4,10,12.3,7.7
		C364.2,345.6,363.2,345.8,352.7,336.9z"/>
	<path d="M393.8,223.5c-0.1-3-0.7-2.1-14.5-1.7c-13.8,0.4-35.5,2.1-35.5,3.3c0,1.2,21.8,1.4,35.6,1
		C393.2,225.7,393.9,226.5,393.8,223.5z"/>
</g>
</svg>
