<?xml version="1.0" encoding="utf-8"?>
<!-- Generator: Adobe Illustrator 19.2.0, SVG Export Plug-In . SVG Version: 6.00 Build 0)  -->
<svg version="1.1" id="Capa_1" xmlns="http://www.w3.org/2000/svg" xmlns:xlink="http://www.w3.org/1999/xlink" x="0px" y="0px"
	 viewBox="0 0 425.2 425.2" style="enable-background:new 0 0 425.2 425.2;" xml:space="preserve">
<path d="M84.8,252.8c23.8,10.4,47.4,21.3,71.6,30.9c0.1,0,0.3,0.1,0.4,0.1c10.8,4.4,21.8,9.6,33.1,12.3c13.3,3.2,27.1,4.7,40.8,4.5
	c26.1-0.4,54.7-4.9,76.5-20.1c0.8-0.6,2.1-1.2,3-0.4c0.5,0.4,1.1,0.9,1.6,1.3c4.7,3.7,9.7,6.9,15,9.3c14.9,7,31.8,8.7,48.2,4.1
	c10.8-3,21.4-8.5,28.3-17.6c8-10.6,11.2-26.4,6.4-39.1c-2.3-5.5-4.6-10.8-8.2-15.6c-0.5-0.7-0.2-2,0.2-2.6
	c10.9-16.6,12.6-37.3,4.2-55.4c-5.9-12.7-15.6-23.3-27.8-29.9c-2.4-1.3-4.9-2.5-7.6-3.4c-13.8-5.2-31.1-7.2-47.2-4.6
	c-15.7,2.5-30.3,9.4-39.5,22.1c-0.4,0.5-0.8,1.1-1.1,1.6c-0.1,0.2-0.2,0.3-0.3,0.5c-0.1,0.1-0.2,0.2-0.3,0.4c-0.7,1-2,2-3.3,1.5
	c-8.8-3.4-17.9-4-27.1-3.1c-0.8,0.1-1.7,0.2-2.5,0.3c-0.6,0.1-1.1,0.1-1.7,0.2c-0.3,0-0.6,0.1-1,0.1c-0.1,0.1-0.3,0.1-0.4,0.1
	c-0.4,0.1-0.9,0.2-1.3,0.3c-0.5,0.1-0.9,0.2-1.4,0.3c-22.5,5.6-40.2,25.1-44,48.1c-1.7,10.6-1.7,21.5,0.5,31.8
	c3.1,14.3,10.4,27.3,23.1,36.4c0.5,0.4,0.8,0.9,0.8,1.4c0,0.5-0.3,1.1-0.7,1.7c-0.3,0.4-0.7,0.8-1.2,1.2c-0.4,0.3-0.9,0.6-1.3,0.7
	c-0.1,0-0.3,0.1-0.4,0.1c-13.1,1.5-26,2-38.9-0.6c-15.2-2.9-30.1-6.5-45.1-10.5c-29.4-7.9-58.4-17.3-87.9-24.7
	c-12.1-3-24.5-5.2-36.7-5.5c5.5,0.5,10.9,1.4,16.3,2.6c6.7,1.5,13.4,3.5,20,5.7C60.5,243.4,72.9,247.6,84.8,252.8z"/>
</svg>
