<?xml version="1.0" encoding="utf-8"?>
<!-- Generator: Adobe Illustrator 19.2.0, SVG Export Plug-In . SVG Version: 6.00 Build 0)  -->
<svg version="1.1" id="Capa_1" xmlns="http://www.w3.org/2000/svg" xmlns:xlink="http://www.w3.org/1999/xlink" x="0px" y="0px"
	 viewBox="0 0 425.2 425.2" style="enable-background:new 0 0 425.2 425.2;" xml:space="preserve">
<path d="M406.6,230.2c0-5.1-1.2-10.1-3.4-14.7c3.8-5.6,5.8-12,5.8-18.6c0-15.6-11.2-29.2-27.6-34.5c8.3-7.2,12.9-16.7,12.9-26.8
	c0-21.9-22-39.6-49.1-39.6c-17.5,0-33.6,7.6-42.4,19.6c-9-19.4-37.1-33-69.4-33c-17.2,0-33.7,3.9-46.8,10.9
	c-11.9-10.3-28.7-16.2-46.5-16.2c-16,0-31.2,4.7-42.8,13.2c-7.1-1.7-14.6-2.6-22.3-2.6c-34.4,0-61.3,16.8-61.3,38.3
	c0,13.1,10.4,25,27.5,32c-5.1,5.6-7.9,12-7.9,18.6c0,3.6,0.8,7.2,2.4,10.6c-10.9,7.4-17.2,17.5-17.2,28c0,9.8,5.1,18.9,14.5,26.1
	c-3.1,6.1-4.7,12.5-4.7,19.2c0,9,2.9,17.6,8.4,25.2c-5.5,4.8-8.4,10.4-8.4,16.1c0,18.5,30.2,33,68.7,33c29.7,0,54.7-8.5,64.4-21.2
	c11,20.6,37.2,34.5,67,34.5c21.4,0,41.8-7.4,55.5-19.9c11.9,11,29,17.2,47.7,17.2c34.5,0,62.6-22,62.6-49c0-5.5-1.1-10.8-3.4-16
	c3.8-4.9,5.9-10.4,5.9-16c0-3-0.6-6.1-1.8-9C402.4,249.1,406.6,239.9,406.6,230.2z M388.3,251.9l-2.4,1.9l1.5,2.7
	c1.5,2.7,2.2,5.5,2.2,8.3c0,4.5-1.9,9-5.6,13l-1.7,1.9l1.1,2.2c2.4,4.8,3.7,9.8,3.7,14.9c0,23-24.8,41.7-55.3,41.7
	c-17.8,0-34.6-6.6-45-17.5l-2.6-2.8l-2.6,2.7c-12.3,12.7-32,20.2-52.9,20.2c-30.1,0-56.1-15.2-63.3-36.9l-4-12l-3,12.3
	c-2.8,11.4-26.4,23.3-61.1,23.3c-36.7,0-61.4-13.3-61.4-25.7c0-5.4,4.5-9.8,8.4-12.6l3.2-2.3l-2.6-3c-5.9-6.9-9-15-9-23.5
	c0-6.4,1.8-12.6,5.3-18.3l1.8-3l-2.9-1.9c-9-6.1-14-13.9-14-22.1c0-8.8,5.6-17,15.9-23.2l2.2-1.3l-0.5-2.5c-0.1-0.7-0.2-1.3-0.3-1.9
	l-0.1-0.7l-0.3-0.7c-1.4-2.7-2.1-5.5-2.1-8.3c0-7.8,5.3-13.7,9.7-17.2l5.4-4.2l-6.5-2.1c-17.4-5.5-28.2-16-28.2-27.2
	c0-16.8,24.8-31,54.1-31c7.7,0,15.1,0.9,22.1,2.8l1.7,0.5l1.4-1.1c10.5-8.2,24.7-12.8,39.8-12.8c17.1,0,32.9,5.8,43.5,16l2,1.9
	l2.4-1.4c12.3-7.2,28.4-11.2,45.4-11.2c31.5,0,58.5,13.6,64.1,32.2l0.8,2.8l2.9-0.2c0.8-0.1,1.7-0.1,2.5-0.1l2.1-0.1l1-1.8
	c6.7-11.9,21.7-19.5,38.3-19.5c23,0,41.8,14.5,41.8,32.4c0,9.9-5.8,19.2-16,25.4l-8.6,5.2l10,1.5c17,2.5,29.4,14.8,29.4,29.2
	c0,5.7-2,11.3-5.7,16.1l-1.5,1.9l1.2,2.1c2.4,4.1,3.5,8.6,3.5,13.2C399.4,238.6,395.3,246.5,388.3,251.9z"/>
</svg>
