<?xml version="1.0" encoding="utf-8"?>
<!-- Generator: Adobe Illustrator 19.2.0, SVG Export Plug-In . SVG Version: 6.00 Build 0)  -->
<svg version="1.1" id="Capa_1" xmlns="http://www.w3.org/2000/svg" xmlns:xlink="http://www.w3.org/1999/xlink" x="0px" y="0px"
	 viewBox="0 0 425.2 425.2" style="enable-background:new 0 0 425.2 425.2;" xml:space="preserve">
<path d="M407.8,179.3c0-35.1-23.3-66-58.8-87.6c-35.5-21.6-83.6-34.6-136.6-34.6c-53,0-101.1,13-136.6,34.6
	c-35,21.3-58.2,51.7-58.8,86.3c-0.2,2.4-0.4,4.9-0.4,7.3c0,33.5,23.1,63.7,60.1,85c19.3,44.5,59.1,69.5,95.1,98.2
	c-12.4-24.1-20.7-48.1-22.9-72.1c18.1,3.5,37.4,5.5,57.5,5.5c7.2,0,14.3-0.3,21.2-0.7c47-2.2,89.4-14.7,121.4-34.2
	C384.6,245.4,407.8,214.4,407.8,179.3z M206.5,296.8c-20.2,0-39.6-2-57.8-5.6c-1-18.6,1.8-37.1,9.5-55.7l-1.4-0.4
	c-8.5,15.2-14.9,34.5-16,54.4c0,0.9-0.1,1.7-0.1,2.6c0,0.3,0,0.7,0,1c0,0.5,0,1,0,1.5c-0.1,12.8,2,25.8,7.2,37.8
	c-18.9-16.1-35.4-33.1-48.9-51.1c-0.9-1.1-1.7-2.3-2.6-3.5c-0.1-0.2-0.3-0.3-0.4-0.5c-1-1.4-1.9-2.7-2.9-4.1
	c-12.4-18-21.9-36.9-27.9-56.8c0.6,17.6,3.7,32.8,8.6,46.4c-32.2-20.1-52-47.4-52-77.4c0-61.4,82.8-111.4,184.6-111.4
	c101.8,0,184.6,50,184.6,111.4C391.1,246.8,308.3,296.8,206.5,296.8z"/>
</svg>
