<?xml version="1.0" encoding="utf-8"?>
<!-- Generator: Adobe Illustrator 19.2.0, SVG Export Plug-In . SVG Version: 6.00 Build 0)  -->
<svg version="1.1" id="Capa_1" xmlns="http://www.w3.org/2000/svg" xmlns:xlink="http://www.w3.org/1999/xlink" x="0px" y="0px"
	 viewBox="0 0 425.2 425.2" style="enable-background:new 0 0 425.2 425.2;" xml:space="preserve">
<path d="M32.8,154.3c-1.9,5.1-2.9,10.4-2.9,15.8c0,10.9,3.8,21.1,10.8,29.3c-10.3,6-16.1,14.6-16.1,23.9c0,17.6,21.4,31.8,47.7,31.8
	c6.6,0,12.9-0.9,18.9-2.6c9.7,10.7,25.7,17,43.4,17c18.4,0,35-6.9,44.4-18.2c8.9,6.9,23.7,11,39.7,11c10.8,0,21.2-1.9,29.6-5.4
	c8.7,7,22.2,11.4,39.4,12.6c1,0.1,2,0.1,3,0.1c8.4,0,16.5-2.5,22-5.3l50.6,81.4l5.4-2.3l-19.3-76.4c5.5,1.7,11.3,2.5,17.3,2.5
	c25.3,0,45.9-15.5,45.9-34.6c0-8.8-4.4-17.2-12.3-23.6c7.9-5.7,12.3-13.4,12.3-21.5c0-8.1-4.4-15.8-12.3-21.5
	c5.7-3.5,8.8-8,8.8-12.8c0-6.4-5.4-12.1-14.8-15.8c6.1-4.6,9.5-10.4,9.5-16.7c0-14.3-17.5-25.5-39.8-25.5c-10.1,0-19.5,2.3-26.8,6.6
	c-8.5-6.5-20.3-10.2-32.8-10.2c-9.4,0-18.5,2.1-26.1,6c-7.9-12.3-25.1-20.5-44-20.5c-18.5,0-35.1,7.5-43.3,19.3
	c-8.2-4.3-18.6-6.7-29.5-6.7c-11.9,0-23.3,2.9-31.7,8c-11.3-12.8-31.4-20.6-53.2-20.6c-34.5,0-62.5,19.5-62.5,43.6
	C14.1,134.9,20.9,146.2,32.8,154.3z M76.7,85.6c21.2,0,40.5,7.8,50.3,20.5l1.7,2.2l2.3-1.6c7.7-5.4,18.8-8.4,30.6-8.4
	c11,0,21.2,2.6,28.9,7.3l2.6,1.6l1.5-2.7c6.4-11.3,22.3-18.8,39.7-18.8c18.1,0,34.2,8,40.2,19.9l1.4,2.9l2.7-1.6
	c7.1-4.3,16.2-6.6,25.7-6.6c11.9,0,23.1,3.7,30.6,10.2l1.7,1.5l1.9-1.3c6.5-4.3,15.7-6.8,25.4-6.8c18.3,0,33.8,9,33.8,19.6
	c0,5.7-4.4,11.1-12,14.9l-7.1,3.5l7.7,2c10.1,2.6,16.7,7.4,16.7,12.1c0,3.4-3.7,7.1-10,9.8l-5.6,2.4l5.3,2.9
	c8.7,4.8,13.7,11.8,13.7,19.1c0,7.2-4.8,14-13.1,18.8l-4.2,2.4l4.1,2.6c8.4,5.4,13.3,13.2,13.3,21.2c0,15.8-17.9,28.6-40,28.6
	c-7.2,0-14.2-1.4-20.4-4l-5.5-2.4l17.5,69.2l-43.5-70l-2.5,1.5c-4.7,2.8-12.9,5.8-21.5,5.8c-0.9,0-1.8,0-2.6-0.1
	c-16.8-1.2-29.7-5.5-37.3-12.3l-1.4-1.3l-1.8,0.8c-8,3.6-18.2,5.6-28.9,5.6c-16.1,0-30.6-4.4-38.1-11.5l-2.5-2.4l-2,2.9
	c-7.7,11.1-24,18.3-41.5,18.3c-16.5,0-31.8-6.3-40.1-16.3l-1.3-1.6l-1.9,0.6c-5.9,1.9-12.3,2.9-18.9,2.9c-23,0-41.7-11.6-41.7-25.9
	c0-7.9,6.1-15.5,16.3-20.5l3.8-1.8l-3-3c-7.6-7.5-11.8-17.4-11.8-28c0-5.5,1.1-10.8,3.3-15.8l1-2.4l-2.2-1.4
	c-11.4-7.1-18-17.1-18-27.4C20,102.5,45.4,85.6,76.7,85.6z"/>
</svg>
