<?xml version="1.0" encoding="utf-8"?>
<!-- Generator: Adobe Illustrator 19.2.0, SVG Export Plug-In . SVG Version: 6.00 Build 0)  -->
<svg version="1.1" id="Capa_1" xmlns="http://www.w3.org/2000/svg" xmlns:xlink="http://www.w3.org/1999/xlink" x="0px" y="0px"
	 viewBox="0 0 425.2 425.2" style="enable-background:new 0 0 425.2 425.2;" xml:space="preserve">
<path d="M408.3,247.1c-0.9-2.4-2.3-4.8-4.1-7.2c-0.2-0.3-0.4-0.5-0.6-0.8c-0.2-0.2-0.3-0.4-0.4-0.5c0,0,0,0,0,0s0,0,0,0l0,0
	c0,0,0,0,0,0c-0.3-0.4-0.6-0.8-0.9-1.2l-0.1-0.1c-0.3-0.4-0.5-0.7-0.8-1c-0.2-0.2-0.4-0.4-0.6-0.6l-0.3-0.3
	c-0.3-0.3-0.5-0.6-0.8-0.8c-21.8-21.8-62.9-40.4-122.3-55.4c-9.6-2.3-19.8-4.6-32-7.1c-13.6-2.9-26.8-5.4-40.2-7.7
	c-23.9-4.7-48.3-8.4-74.6-11.5c-19.1-2.3-38.6-1.8-57.3,1.4c-22.8,5.5-38.7,17.8-47.2,36.6c-2.1,4.7-3.8,9.7-5,15.2
	c-2.7,12.3-3.2,26.7-1.4,43l0,0.5c0.2,3.3,0.4,6.8,0.8,10.2c3.9,45.7,15.3,79.1,33.8,99.4c0,0,0,0,0,0c1.3,1.4,2.4,2.6,3.8,3.8
	c14.3,13.6,32.9,20.5,55.5,20.5c6.8,0,14-0.6,21.5-1.9l4.8-1.2c7.9-1.9,15.3-3.8,22.6-5.7l7.9-2.1c34.7-9,66.3-18.1,94-27.2l2.3-0.8
	c16.5-5.6,20.2-6.9,21.2-7.2l0,0l2.4-0.9c5-1.8,9.7-3.5,14.3-5.2l1-0.4c5.3-2,10.2-3.9,14.9-5.8c0.8-0.3,1.8-0.2,2.5,0.3
	c1.3,1,2.7,2.1,4,3.3c1.3,1.3,2.5,2.6,3.6,3.9l0.2,0.2c0,0,0.1,0.1,0.1,0.1c0,0,0,0,0.1,0.1l1.6,2.3c0,0,0.1,0.1,0.1,0.2
	c0.8,1.4,1.4,2.9,1.9,4.3c1.1,2.8,1.6,5.7,1.6,8.8c0-0.3,0.1-0.5,0.1-0.8c0.1,1,0.2,2,0.3,2.9c-0.2,0.1-0.3,0.1-0.5,0.2
	c-0.1,0.7-0.2,1.5-0.3,2.3c-0.6,3.7-1.9,7.5-4,11.6c23.5-13.3,38.6-35.6,44.6-66.3c0.2-0.7,0.5-1.3,1.1-1.7
	c24.5-15.9,35.3-31.3,32.2-45.8C409.3,249.8,408.9,248.4,408.3,247.1z"/>
</svg>
