<?xml version="1.0" encoding="utf-8"?>
<!-- Generator: Adobe Illustrator 19.2.0, SVG Export Plug-In . SVG Version: 6.00 Build 0)  -->
<svg version="1.1" id="Capa_1" xmlns="http://www.w3.org/2000/svg" xmlns:xlink="http://www.w3.org/1999/xlink" x="0px" y="0px"
	 viewBox="0 0 425.2 425.2" style="enable-background:new 0 0 425.2 425.2;" xml:space="preserve">
<path d="M280.3,231.7l53.1-7.5l-58.6-20l39.4-35l-45.8-3.5l47-71.5l-79.9,55.4l10.9-96.4l-52.9,90.3l-18.6-20.9l-16.2,35.2L118.3,99
	l5.2,82.1l-28.6-19.5l8.5,32.7l-80.4-31.1l77.8,56.4l-80.4,27.1l85.7,4.9l-28.1,35.5l35.5-1.1l-24.1,86.6l76.3-65.5l9.1,29.5
	l11.2-26.3l17.2,50.4l19.7-60L264,346l-14-70.7l156.8,31.9L280.3,231.7z M255.6,328.2l-34.3-37.7l-20.2,54.3l-14.8-41.6l-9.4,22
	l-6.6-29.2l-67,60.1l26.7-77.9l-29.7,0.9l20.8-32.3l-83.9-1.8l75.7-22.5l-79.4-55.2l75.8,33.7l-5.2-30l23.9,16.3l-0.7-65.3
	l35.9,56.1l17.8-36.5l15.5,17.4l39-76.5l-8.5,81.4l69.3-47.7l-40.1,58l38.2,2.9l-32.9,29.2l48.9,16.7l-44.3,6.3l108.4,66.4
	L244,269.2L255.6,328.2z"/>
</svg>
