<?xml version="1.0" encoding="utf-8"?>
<!-- Generator: Adobe Illustrator 19.2.0, SVG Export Plug-In . SVG Version: 6.00 Build 0)  -->
<svg version="1.1" id="Capa_1" xmlns="http://www.w3.org/2000/svg" xmlns:xlink="http://www.w3.org/1999/xlink" x="0px" y="0px"
	 viewBox="0 0 425.2 425.2" style="enable-background:new 0 0 425.2 425.2;" xml:space="preserve">
<path d="M403.3,161.7c-1.9-9-6.3-17.4-13.8-24.4c-12.5-11.6-33.4-18.7-49.9-21.2c-25.2-3.8-49.7,2-74.8,3.1
	c-51.7,2.4-102.9-10.3-154.6-6.8c-36.4,3-89.2,21.7-91.7,65.1c-0.3,5.8,0.4,11.4,2,16.9c4.5,20.6,21,38.9,36.9,51
	c11.3,8.6,25.1,12.8,37.8,19.1c8,4,15.7,9.4,20.3,17.2c0.5,0.8,0.8,1.6,1.1,2.3c1,7.9-3.3,16.4-5.2,23.7c-0.4,1.5,0.2,2.4,1.2,2.6
	c-0.1,0.3-0.2,0.7-0.3,1c-0.7,2.6,1.6,3.3,3.5,2c20.9-14.7,40.1-29.5,65.1-36.5c24.6-6.9,50.3-11,75.4-15.7
	c24.5-4.6,49.3-8.1,73.6-13.6c18.4-4.1,36.3-11.3,51.2-23C399.8,210.1,409.8,183.9,403.3,161.7z M391.9,201.9
	c-10.1,17.2-30.2,27-48.4,33c-23.1,7.6-48.1,10-72,14.5c-25.6,4.8-51.2,9.5-76.6,15.1c-15.4,3.4-30.4,7.7-44.2,15.4
	c-10.6,5.9-20.4,13.2-30.2,20.4c-0.8,0.6-1.7,1.2-2.5,1.8c2.2-7.3,4.5-14.3,3.3-21.7c-0.3-2-0.9-4-1.9-6.1
	c-5-11.1-18.8-17.4-29.2-22.1c-13.8-6.2-26.4-11.9-37.9-21.9c-10.7-9.4-19.4-21.3-24.8-34.5c-0.8-2-1.5-4-2.1-5.9
	c-2.7-9.2-2.3-17.6,0.2-25c10-29.1,53.9-44.5,82.9-46.9h0c1.4-0.1,2.9-0.1,4.3-0.2c48.2-2.5,96.1,7.9,144.2,7.2
	c25.1-0.4,49.8-6.5,75-4.1c13.2,1.3,28.5,5.6,41.2,12.7c5.8,3.2,11,7,15.2,11.4c5.2,5.3,8.3,12,9.8,19.1
	C400.9,176.9,398.2,191.3,391.9,201.9z"/>
</svg>
