<?xml version="1.0" encoding="utf-8"?>
<!-- Generator: Adobe Illustrator 19.2.0, SVG Export Plug-In . SVG Version: 6.00 Build 0)  -->
<svg version="1.1" id="Capa_1" xmlns="http://www.w3.org/2000/svg" xmlns:xlink="http://www.w3.org/1999/xlink" x="0px" y="0px"
	 viewBox="0 0 425.2 425.2" style="enable-background:new 0 0 425.2 425.2;" xml:space="preserve">
<g>
	<polygon points="402.3,181.4 402.8,174.3 396.8,178.3 390.2,175.6 392.1,182.5 387.5,188 394.7,188.3 398.5,194.3 401,187.6 
		407.9,185.8 	"/>
	<polygon points="174.9,125.4 181,121.7 187.5,124.6 185.9,117.7 190.7,112.4 183.6,111.8 180,105.5 177.3,112.1 170.2,113.6 
		175.7,118.3 	"/>
	<polygon points="192.8,362.7 186.3,365.7 180.2,362 181,369.1 175.6,373.8 182.6,375.2 185.4,381.8 188.9,375.6 196.1,375 
		191.2,369.7 	"/>
	<path d="M305.8,202.6l10.6,1l13-41.2l1.9-8.2l-55.8,16.5l2.1,12.6L271,172l-9.6-11.4l-15.3,18.6c-0.3,0.3-0.8,0-0.5-0.4l13.8-20.7
		l-5.4-6.4l-6,10.6c-0.2,0.3-0.7,0.1-0.6-0.2l3.6-13.9l-17-20.2l-47.2,37.2l-14.3,8.6l8-12.5l-48.1-29.9l-7.6,37.7l14.6,24.9
		c0.2,0.4-0.3,0.7-0.6,0.4l-15.1-19.7l-1,5L115,196l2.4-17.7l-54.9-12.1l13.5,51l12.3-3.3l-23.8,17l-32.7,23.8l12.3,3.8l21-8.7
		c0.4-0.2,0.7,0.4,0.3,0.6l-15.4,10l25.7,8L98,248.7l-15.9,21.8l-56.4,86.2l110-75.5l-9.9,15.3l5.4,9.5l8.2,12.4l6.1-7
		c0.3-0.3,0.7,0,0.5,0.4l-5.1,8.9l4.9,7.5l7.7-14.6c0.2-0.4,0.7-0.1,0.6,0.3l-6.2,17.5l9.4,14.2l39.4-23.4l10.4-6.8l-5.7-15.3
		l10,12.5l41.7,44.2l7.9-14.9l-5.8-15.3c-0.1-0.4,0.4-0.6,0.6-0.3l7.3,11.6l3.2-5.9l-11.5-21.2c-0.2-0.4,0.3-0.7,0.5-0.4
		c2.7,3.1,7.6,9.5,13.4,17.1l9.8-18.4l-10.3-9.7l12.1,6.3l47.3,22.6L308.3,273l-4.8-9.1l6.6,7.7l11.8-9.2l-14-7.8
		c-0.4-0.2-0.1-0.7,0.3-0.6c3.8,1.4,9.8,3.7,16.5,6.2l14.7-11.4l-29.5-5.3c-0.4-0.1-0.3-0.7,0.1-0.7l33.2,3l21.4-16.6l-45.9-20.5
		L305.8,202.6z"/>
</g>
</svg>
