<?xml version="1.0" encoding="utf-8"?>
<!-- Generator: Adobe Illustrator 19.2.0, SVG Export Plug-In . SVG Version: 6.00 Build 0)  -->
<svg version="1.1" id="Capa_1" xmlns="http://www.w3.org/2000/svg" xmlns:xlink="http://www.w3.org/1999/xlink" x="0px" y="0px"
	 viewBox="0 0 425.2 425.2" style="enable-background:new 0 0 425.2 425.2;" xml:space="preserve">
<path d="M389.1,169.8c-4.2-6-9.4-11.1-15.1-15.6c-1.3-1.1-2.2-1.8-2.8-2.5c0.1-0.7,0.3-1.6,0.5-2.7c0.9-4.3,1.2-8.7,1.3-13.1
	c0.2-7.1-0.8-14-2.6-20.5c-6.1-27.1-27.6-49.2-54.9-56.4c-7.5-2-15.3-2.5-23-2.1c-1.8,0.1-10,2.1-10.9,0.5c-1.9-3.2-4.1-6.3-6.5-9.2
	c-10.9-13-25.3-21.8-41.8-25.7c-30.5-7.1-61.6,6.9-79.3,31.8c-25.4-6.1-51.5,0.5-70.9,18.1c-19.5,17.7-27.7,44.8-23.2,70.4
	c-28.4,17.7-42.8,51-35.2,84c0.2,0.9,0.5,1.8,0.7,2.8c0,0.2,0.1,0.4,0.1,0.5c3.8,16.5,13.9,31,27,41.4c1.3,1.1,2.2,1.8,2.8,2.5
	c-0.1,0.7-0.3,1.6-0.5,2.7c-0.9,4.3-1.2,8.7-1.3,13.1c-0.2,6.8,0.7,13.8,2.6,20.5c0.6,2.6,1.3,5.2,2.2,7.8
	c12.4,35.6,48.4,56,85.3,49.7c1.7-0.3,6.3,8.1,7.5,9.5c2.3,2.9,4.9,5.6,7.6,8.2c6.4,6,14,10.6,22,14c16.1,7,34.6,7.2,51.2,2.2
	c16.6-4.9,30.7-16.1,40.6-30.1c13.5,3.3,27.1,3,40.5-0.7c2.1-0.6,17.4-8,17.1-8.1c2,1.1,4,2.2,6,3.3c12.8,6.9,25.6,13.9,38.3,20.8
	c2.2,1.2,4.2-2.6,3.6-4.2c-0.3-0.7-0.5-1.4-0.8-2.1c0.1-0.4,0-0.8-0.1-1.2c-4.8-13.6-9.6-27.2-14.5-40.8c-0.9-2.6-1.9-5.3-2.8-7.9
	c0.2-0.6,0.9-0.9,1.8-3.2c5.9-14.2,7.5-29.2,4.8-44.2c22.8-14.2,36.9-38.5,37.3-65.6c-0.1-7-1.1-13.8-2.9-20.4
	C399,187.3,394.9,178.2,389.1,169.8z M362.7,276.5c-1.1,0.7-2.3,2.1-2,3.5c1.7,8.2,2,16.4,1.1,24.7c-0.6,4.9-1.9,9.6-3.4,14.3
	c-1.1,3.2-4,6.8-4.2,10.1c-0.1,1.3,0.3,2.9,0.9,4.6c1,2.9,2.7,6,3.4,8.1c3.9,11.1,7.8,22.1,11.8,33.2c-0.1-0.1-0.3-0.2-0.4-0.2
	c-10.2-5.5-20.4-11.1-30.7-16.6c-2.1-1.2-4.3-2.3-6.4-3.5c-2.9-1.6-6.6,2.2-9.1,3.5c-15.6,8.1-34.1,9-50.9,4.6
	c-1.4-0.4-2.6,0.7-3.3,1.8c-14.2,21.5-38.1,33.1-63.7,31.9c-24.4-1.1-46.2-16-58.2-36.8c-0.4-0.7-1.2-0.8-2-0.7
	c-39.1,7.9-74.7-17.1-84.3-51.9c-3.2-11.5-3.5-24-0.3-36.7c0.1-0.2,0.1-0.5,0.2-0.7c0.2-0.7,0.3-1.7-0.4-2.2
	c-15.2-10-25.9-24.7-30.7-41.7c-1.7-6-2.6-12.2-2.7-18.7c-0.2-9.8,1.9-19.3,5.7-27.9c5.7-13.1,15.5-24.4,27.8-32.1
	c0.4-0.2,0.8-0.5,1.2-0.7c0.3-0.2,0.6-0.4,0.9-0.6c0.1,0,0.1-0.1,0.2-0.1c1.1-0.7,2-2,1.8-3.3c-3.2-15.9-1.3-31.9,5.5-45.9
	c3.9-8.1,9.4-15.6,16.4-21.9c17.8-16.2,43.3-21,66.2-14.9c0.1,0,0.2,0,0.3,0c0,0,0.1,0,0.1,0c1,0.1,1.9-0.6,2.5-1.4
	c0.1-0.1,0.2-0.3,0.3-0.4c0,0,0.1-0.1,0.1-0.1c14.2-21.5,38.1-33.1,63.7-31.9c8,0.4,15.8,2.3,23,5.3c14.7,6.3,27.2,17.5,35.2,31.4
	c0.4,0.7,1.2,0.8,2,0.7c0.2,0,0.3-0.1,0.5-0.1c10.9-2.1,21.6-1.7,31.4,0.8c26.4,6.7,47.2,28.1,53.2,54.5c2.4,10.8,2.4,22.4-0.7,34.1
	c-0.2,0.7-0.3,1.7,0.4,2.2c0.2,0.1,0.4,0.3,0.6,0.4c15.8,10.7,26.7,26.5,30.9,44.6c1.1,5,1.8,10.1,1.9,15.4
	C398,240.8,384.9,263.7,362.7,276.5z"/>
</svg>
