<?xml version="1.0" encoding="utf-8"?>
<!-- Generator: Adobe Illustrator 19.2.0, SVG Export Plug-In . SVG Version: 6.00 Build 0)  -->
<svg version="1.1" id="Capa_1" xmlns="http://www.w3.org/2000/svg" xmlns:xlink="http://www.w3.org/1999/xlink" x="0px" y="0px"
	 viewBox="0 0 425.2 425.2" style="enable-background:new 0 0 425.2 425.2;" xml:space="preserve">
<path d="M412.6,223.5v-95.4c0-32.9-26.9-59.9-59.9-59.9c-35.1,0-64.6,23.8-73.3,56.1c2.6-22.8,14.5-42.8,31.9-56.1H81
	c-32.9,0-59.9,26.9-59.9,59.9c0,35.1,24,60.6,59.1,65.4C55,195,34.5,185.2,21.1,169v54.5c0,32.9,26.9,59.9,59.9,59.9h257.4
	c20.6,17.9,43.9,45.6,61.5,69.1c-2.4-18.3-11.8-49.2-20-75.7C399.2,266.9,412.6,246.7,412.6,223.5z"/>
</svg>
