<?xml version="1.0" encoding="utf-8"?>
<!-- Generator: Adobe Illustrator 19.2.0, SVG Export Plug-In . SVG Version: 6.00 Build 0)  -->
<svg version="1.1" id="Capa_1" xmlns="http://www.w3.org/2000/svg" xmlns:xlink="http://www.w3.org/1999/xlink" x="0px" y="0px"
	 viewBox="0 0 425.2 425.2" style="enable-background:new 0 0 425.2 425.2;" xml:space="preserve">
<polygon points="405.9,269 351.7,236.8 349,235.1 350.9,232.5 386,185.6 333.9,201.1 328.6,202.7 330.3,197.5 366.5,84.6 
	294.9,164.3 291.7,167.9 290,163.4 273,117.8 255.2,181.2 252.6,190.4 249.7,181.3 211.4,61.8 174.3,127.9 172.2,131.8 169.5,128.2 
	134.4,81.3 134.4,144.4 134.4,150.1 129.8,146.8 39.6,82.4 113.9,214.9 115.9,218.4 111.8,219.2 18.2,235.9 92.8,285.8 95.9,287.8 
	93.1,290.3 58.5,321.2 111.3,321.2 115.8,321.2 114,325.3 79.2,402.8 190,304 193.7,300.7 194.8,305.5 212.4,384.1 229.5,323.3 
	231.2,317.3 234.7,322.5 289.8,404.4 289.8,306.1 289.8,300.5 294.4,303.8 382.2,366.4 330.7,289.8 328.3,286.3 332.4,285.4 "/>
</svg>
