<?xml version="1.0" encoding="utf-8"?>
<!-- Generator: Adobe Illustrator 19.2.0, SVG Export Plug-In . SVG Version: 6.00 Build 0)  -->
<svg version="1.1" id="Capa_1" xmlns="http://www.w3.org/2000/svg" xmlns:xlink="http://www.w3.org/1999/xlink" x="0px" y="0px"
	 viewBox="0 0 425.2 425.2" style="enable-background:new 0 0 425.2 425.2;" xml:space="preserve">
<path d="M250.4,335.4c16.6,1.6,33.3,3,50,2.6c10.3-0.2,21.1-0.9,31.3-3.4c3.8-1,7.5-2.2,11.1-3.8c12.2-5.4,20.1-15.3,27-26.4
	c8.5-13.7,15.2-28.5,20.8-43.7c12.1-33,20.4-68,22.7-103.1c1-14.7,1.2-29.7-1.7-44.2c-0.8-4.3-2.4-7.8-4.9-11
	c-1.3-1.6-2.9-3.2-4.7-4.6c-14-10.8-33.2-14.9-50.2-18.1c-25.1-4.7-50.7-6.6-76.2-7.5c-51.1-1.7-103.4-0.1-153.9,8.7
	c-7.4,1.3-16.1,2.5-24.3,4.7c-6.7,1.8-13,4.4-18,8.3c-18.8,14.7-25.9,42.7-29.9,65c-5.3,29.4-6.3,60.1-2.3,89.8
	c2.4,17.7,6.1,37.8,15.3,54c2.9,5.1,6.3,9.8,10.4,13.9c0,0,0.1,0.1,0.1,0.1c0.5,0.5,0.6,1.2,0.4,1.9c-0.2,0.8-0.8,1.7-1.5,2.2
	c-0.5,0.4-0.9,0.9-1.4,1.3c-12.7,12.4-25.3,24.7-38,37.1c0.7-0.2,1.3-0.5,2-0.7c2.4-0.9,4.8-1.8,7.2-2.7c13.3-4.9,26.6-9.7,40-14.1
	c12-3.9,24.4-7.9,36.9-10.7c7-1.6,14-2.8,21.1-3.4C176.5,324.5,213.9,331.8,250.4,335.4z"/>
</svg>
