<?xml version="1.0" encoding="utf-8"?>
<!-- Generator: Adobe Illustrator 19.2.0, SVG Export Plug-In . SVG Version: 6.00 Build 0)  -->
<svg version="1.1" id="Capa_1" xmlns="http://www.w3.org/2000/svg" xmlns:xlink="http://www.w3.org/1999/xlink" x="0px" y="0px"
	 viewBox="0 0 425.2 425.2" style="enable-background:new 0 0 425.2 425.2;" xml:space="preserve">
<path d="M45.8,140.2c-4.7,4.6-7.2,9.8-7.2,15.3c0,2.9,0.7,5.8,2.1,8.6c-10.6,6.2-16.6,14.7-16.6,23.6c0,8.2,4.9,15.9,14,22
	c-2.9,5-4.4,10.4-4.4,15.8c0,7.5,2.7,14.6,7.9,20.9c-6.5,5-7.9,10-7.9,13.5c0,15.5,23.7,24.7,63.4,24.7l12,0c1.2,0,2.3,0,3.1,0
	l82.8,68.9l5.3-4.2l-37.5-75.4c1-0.8,1.8-1.8,2.5-3c11.1,16.8,36.5,28,65.2,28c21.4,0,41.1-6.1,54.6-16.7
	c11.7,9.2,28.6,14.5,46.9,14.5c33.9,0,61.4-18.5,61.4-41.2c0-4.5-1.1-8.9-3.2-13.2c3.7-4.1,5.6-8.7,5.6-13.5c0-2.5-0.5-4.9-1.6-7.3
	c7.2-5.6,11.2-13.4,11.2-21.6c0-4.2-1.1-8.4-3.2-12.2c3.7-4.7,5.6-10.1,5.6-15.6c0-13-10.7-24.3-26.5-29c7.7-6,12-13.8,12-22.1
	c0-18.4-21.6-33.4-48.1-33.4c-17.3,0-33.3,6.5-41.7,16.7c-8.7-16.3-36.4-27.8-68.2-27.8c-17,0-33.3,3.2-46.1,9.2
	c-11.6-8.7-28.1-13.6-45.7-13.6c-15.8,0-30.6,3.9-42,11.1c-7-1.5-14.4-2.2-22-2.2c-33.8,0-60.2,14.2-60.2,32.3
	C19.3,124.3,29.3,134.3,45.8,140.2z M79.5,87.9c7.6,0,15,0.8,21.9,2.3l1.4,0.3l1.2-0.8c10.4-6.9,24.5-10.7,39.4-10.7
	c16.9,0,32.6,4.9,43.1,13.4l1.7,1.4l2-1c12.2-6.1,28.1-9.4,45-9.4c30.7,0,57.9,11.5,63.3,26.7l0.9,2.4l2.6-0.1
	c0.8,0,1.7-0.1,2.5-0.1l1.8,0l1-1.5c6.6-9.9,21.5-16.3,38-16.3c22.8,0,41.3,11.9,41.3,26.5c0,8-5.7,15.6-15.6,20.7l-9.9,5.1l11,1.4
	c16.8,2.1,29,12.1,29,23.9c0,4.6-1.9,9-5.5,12.9l-1.8,2l1.5,2.3c2.2,3.3,3.4,6.9,3.4,10.6c0,6.8-3.9,13.2-10.7,17.6l-2.8,1.8
	l1.8,2.9c1.4,2.2,2.1,4.4,2.1,6.5c0,4.5-2.9,8.1-5.3,10.4l-2,1.9l1.4,2.4c2.3,3.9,3.5,7.9,3.5,12c0,18.9-24.5,34.3-54.6,34.3
	c-17.6,0-34.3-5.5-44.6-14.7l-2.3-2l-2.3,2c-12.1,10.6-31.7,16.9-52.3,16.9c-29.8,0-55.4-12.6-62.4-30.6l-3.7-9.4l-2.8,9.7
	c-1.8,6.3-2.5,6.7-4.9,8.2l-2.7,1.6l32.9,66.3l-72.1-60.1l-1.3,0c-0.2,0-2,0-4.3,0l-12,0c-33.3,0-56.5-7.3-56.5-17.8
	c0-3.3,2.9-6.8,8.1-10l3.8-2.3l-3.1-3.1c-5.7-5.6-8.7-12.2-8.7-19c0-5.2,1.7-10.2,5.1-14.8l2.2-3.1l-3.3-1.9
	c-8.8-5-13.6-11.3-13.6-17.9c0-6.9,5.6-13.8,15.5-18.9l2.4-1.2l-0.6-2.6c-0.1-0.5-0.2-1-0.3-1.5l-0.1-0.8l-0.4-0.7
	c-1.3-2.2-2-4.4-2-6.5c0-4.8,3.3-9.7,9.4-13.8l6.3-4.2l-7.3-2c-16.8-4.5-27.7-13.2-27.7-22.2C26.2,99.5,50.6,87.9,79.5,87.9z"/>
</svg>
