<?xml version="1.0" encoding="utf-8"?>
<!-- Generator: Adobe Illustrator 19.2.0, SVG Export Plug-In . SVG Version: 6.00 Build 0)  -->
<svg version="1.1" id="Capa_1" xmlns="http://www.w3.org/2000/svg" xmlns:xlink="http://www.w3.org/1999/xlink" x="0px" y="0px"
	 viewBox="0 0 425.2 425.2" style="enable-background:new 0 0 425.2 425.2;" xml:space="preserve">
<g>
	<path d="M306.9,42c-0.6,0-1.1,0-1.7,0L94.9,51.8c-10,0.5-18.8,4.9-24.8,12.3c-6,7.5-8.4,17-6.8,26.9l36.1,213.3
		c3.1,18.6,20.5,33.2,39.5,33.2c0.7,0,1.4,0,2.1-0.1l96-5.3c0.4,2.8-0.5,5.5-2.6,8.7c-16.1,23.8-23.6,33.8-24.5,34.9l-23.1,30.3
		l35-15.1c2.5-1.1,60.7-26.5,67.6-63c15.6-5.1,27.4-19.2,29-35.2l21.3-214.5c1-9.7-1.9-18.8-8.2-25.7C325.2,45.8,316.5,42,306.9,42z
		 M334,73.7l-21.3,214.5c-1.4,14.3-14.1,26.6-28.4,27.9c1.4,34.7-62.2,62.1-62.2,62.1s7.3-9.5,24.8-35.3c6.4-9.4,5-17.8,0.8-24.7
		l-103.1,5.7c-14.7,0.8-28.7-10.4-31.1-24.9L77.5,85.7C75,71.3,85,58.9,99.7,58.2l210.2-9.8C324.6,47.7,335.4,59.1,334,73.7z"/>
	<path d="M361.9,42.4c-3.9-11.3-12.6-18.8-24.2-21.3c-12-2.6-24.8-1.2-36.8,0.1c-7.2,0.7-14.5,1.5-21.7,2.2
		c-0.3,1.6,2.4,0.9,3.5,0.9c2.9,0,5.8,0,8.7-0.1c6.9-0.1,13.7-0.2,20.6,0c11.3,0.3,25.3,0.1,34.5,7.7c9.3,7.6,10.7,21.2,10.9,32.1
		c0.3,11.2-2.3,22.8-2.2,34c0,0.2-0.1,1,0.2,1.1c0.4,0.1,0.7,0.3,0.8-0.1c0.7-1.6,1.3-3.3,1.9-5c1.9-5.4,3.4-11.1,4.5-16.7
		C364.6,65.7,365.8,53.7,361.9,42.4z"/>
</g>
</svg>
