<?xml version="1.0" encoding="utf-8"?>
<!-- Generator: Adobe Illustrator 19.2.0, SVG Export Plug-In . SVG Version: 6.00 Build 0)  -->
<svg version="1.1" id="Capa_1" xmlns="http://www.w3.org/2000/svg" xmlns:xlink="http://www.w3.org/1999/xlink" x="0px" y="0px"
	 viewBox="0 0 425.2 425.2" style="enable-background:new 0 0 425.2 425.2;" xml:space="preserve">
<g>
	<path d="M90.4,307.5l-12.9,13.9l-9.8-14.7L26.5,334l21.9,26.7l19.5-32.6l11.2,15.2L94.5,308c0,0,0,0,0-0.1
		C93.1,307.8,91.8,307.7,90.4,307.5z"/>
	<path d="M339.9,151.7l9.4-33.8l20.5,15l40.2-63.6L382,51.4l-18.8,62.1l-22.1-15.2l-5,51.9c0.3,0.8,0.6,1.6,0.9,2.4
		C337.9,152.3,338.9,152,339.9,151.7z"/>
	<path d="M356.5,158.1c-3,0-6,0.2-8.9,0.7c-3.6,0.5-7.1,1.4-10.4,2.6c-0.8,0.3-1.5,0.5-2.2,0.8c-1.8,0.7-3.5,1.5-5.1,2.3
		c-2.1,1-4,2.2-5.9,3.5c-2.6-32.9-30.2-58.8-63.8-58.8c-20.7,0-39.1,10-50.9,25.2c-9.1-15.3-25.9-25.7-45.2-25.7
		c-28.3,0-51.6,22.6-52.4,50.9l19.6,31.3l-35.4-28.2c-34.3,1.2-61.6,29.3-61.6,63.9c0,33.2,25.3,60.5,57.7,63.6
		c2.1,0.2,4.1,0.3,6.3,0.3c0.2,0,0.3,0,0.5,0c1.3,2.3,2.7,4.5,4.2,6.7c13.3,18.9,35.3,31.3,60.1,31.3c20.5,0,39-8.3,52.2-21.7
		c12.2,23.4,36.9,39.5,65.2,39.5c25.1,0,47.2-12.5,60.5-31.6l-35.2-32.7l42.8,18.6c3.1-7.6,5-15.7,5.4-24.3c0.7,0,1.6,0,2.4,0
		c32.6,0,59.1-26.4,59.1-59C415.6,184.7,389.1,158.1,356.5,158.1z"/>
	<polygon points="66.5,127.1 99.5,153.4 104.4,157.3 102,153.3 88.1,131.1 104.6,125.4 88.9,78.5 57.6,93 83.9,120 	"/>
	<polygon points="374.9,317.6 363.3,312.6 346.5,305.3 333.9,299.8 344.3,309.4 354.7,319.1 349.6,322.6 341.3,328.3 342.5,330.1 
		346.9,336.8 366.5,366.2 391,346 361,328.1 	"/>
</g>
</svg>
