<?xml version="1.0" encoding="utf-8"?>
<!-- Generator: Adobe Illustrator 19.2.0, SVG Export Plug-In . SVG Version: 6.00 Build 0)  -->
<svg version="1.1" id="Capa_1" xmlns="http://www.w3.org/2000/svg" xmlns:xlink="http://www.w3.org/1999/xlink" x="0px" y="0px"
	 viewBox="0 0 425.2 425.2" style="enable-background:new 0 0 425.2 425.2;" xml:space="preserve">
<path d="M342.1,108.1c0.6,0.4-0.3-7.1-0.4-7.4c-0.5-2.8-1.4-5.6-2.3-8.3c-1.5-4.7-3.8-8.9-6.4-13c-5.7-9.1-13.3-17.2-22.9-22.1
	c-1.6-0.8-3.2-1.6-4.8-2.4c-0.2-0.1-0.3-0.2-0.5-0.3c-9.4-4.8-18.5-8.8-29.1-10.1c-6-0.7-11.9,0.5-17.7,1.3c-2.4,0.3-4,0.5-6.3,1.2
	c-1.7-1.4-3.3-2.8-4.1-3.4c-5.3-3.7-10.9-7-16.8-9.7C213.1,24.6,193,19.9,173.1,22c-25.1,2.5-49,11.6-69.2,26.8
	c-27.5,20.7-42.2,50.9-39.1,85.1c-23.7,27.5-24.5,67.3-3.3,96.8c10,13.9,25.5,24.3,40.9,31.6c3.3,1.8,6.7,3.4,10,4.8
	c13.4,5.9,27.9,9,42.4,8.4c-12.1,22.9-15.1,49.3-13.5,75.2c0.9,15.2,4.5,29,10.6,42.8c1.9,4.2,3.3,8.4,8.2,8.3
	c1.3,1.8,3.1,3,6.2,2.6c3.5-0.4,6.3-3.3,7.3-6.6c4.5-14.1,4.1-30.3,5.3-44.8c1.2-14.3,4.7-28.8,10.9-41.7
	c13.8-29.2,42.8-41.9,66.7-61c22,6.7,45.9,6.3,67.4-2c19.3-7.4,33.3-20.7,43.7-38.4c11-18.9,11.2-42.3,4.7-62.7
	C367.2,130.5,355.6,118.2,342.1,108.1z M361.4,188.1c-5.3,24.5-23.9,42.3-46.9,50.5c-11.8,4.2-24.6,5.1-37.1,4.4
	c-7-0.4-13.8-1.9-20.5-3.8c-6.1-1.8-7.2,0.3-12.2,4.3c-10,7.9-21,14.2-31.4,21.6c-9.3,6.6-17.7,14.9-25,23.6
	c-14,16.6-20.3,40-22.8,61c-1.3,11.2-1.9,22.4-3.3,33.5c-0.3,2.2-0.6,4.4-1,6.6c-0.2,1.1-0.3,1.8-0.4,2.2c-0.3,1.3-0.3,0.5-0.4-0.9
	c-0.1-1.2-0.2-2.9-0.7-3.9c-2-4.3-3.7-8.6-5.2-13.1c-0.4-1.1-0.7-2.2-1-3.3c-1.6-5.9-2.5-11.9-3.2-17.9
	c-2.9-26.7,0.1-54.8,13.4-78.3c0.9-1.6,1.8-3.1,2.8-4.7c0.2-0.3,0.3-0.5,0.5-0.8c0.3-0.5,0.6-1,0.9-1.5c0.5-0.8,0.8-1.7,0.8-2.5
	c0-1.9-1.5-3.5-3.8-3c-18.7,4.3-38.4,0.8-56.1-7.5c-14-6.5-26.8-16-36.8-26.9c-5.5-6-9.7-12.9-12.6-20.2c-9-23-5.2-50.4,11-69.4
	c0.5-0.6,1-1.2,1.6-1.8c1-1.1,1.4-2.2,1.5-3.1c0-0.3,0-0.7-0.1-0.9c0-0.1,0-0.3,0-0.4c-3-26.1,5.3-50.3,24.1-68.8
	C111,49.9,127.8,41.3,145.7,36c10.2-3,20.8-4.9,31.4-5.8c13.3-1.2,26.9,2.8,38.9,8c3.5,1.5,7,3.2,10.4,5c2.3,1.2,4.7,2.5,6.9,4
	c3.4,2.2,9.6,9.1,13.8,9.5c0.1,0,0.3,0,0.4,0c5.1,0,11.4-2.4,16.6-3.1c6.4-0.9,12.6,0.2,18.8,2c4.8,1.4,9.6,3.3,14.1,5.8
	c6.5,3.6,12.4,8.2,17.2,13.6c8.4,9.6,13.3,20.7,14.9,33.4c0.9,7.4,9.1,9.9,14,15.1C359,140.5,366.4,165.2,361.4,188.1z"/>
</svg>
