<?xml version="1.0" encoding="utf-8"?>
<!-- Generator: Adobe Illustrator 19.2.0, SVG Export Plug-In . SVG Version: 6.00 Build 0)  -->
<svg version="1.1" id="Capa_1" xmlns="http://www.w3.org/2000/svg" xmlns:xlink="http://www.w3.org/1999/xlink" x="0px" y="0px"
	 viewBox="0 0 425.2 425.2" style="enable-background:new 0 0 425.2 425.2;" xml:space="preserve">
<g>
	<path d="M374.1,142.5l10.2,0.4l5.5,8.6c0.2,0.3,0.6,0.2,0.7-0.1l3.5-9.6l10.7-2.7l-8.7-6.8l0.7-11l-9.2,6.2l-9.5-3.8
		c-0.3-0.1-0.6,0.2-0.6,0.5l2.7,9.6c0,0.1,0,0.3-0.1,0.4l-6.4,7.7C373.6,142.1,373.8,142.5,374.1,142.5z M383.4,127.9l6.2,2.4
		l5.5-3.7l-0.4,6.6l5.2,4.1l-6.4,1.6l-2.3,6.2l-3.5-5.6l-6.6-0.2l4.2-5.1L383.4,127.9z"/>
	<path d="M180.7,77.2c0.1,0.1,0.2,0.2,0.1,0.4l-1.1,9.9c0,0.3,0.3,0.6,0.6,0.4l8.7-5.3l9.3,4.2c0.3,0.1,0.7-0.1,0.6-0.5l-2.3-9.9
		l7.4-8.2l-11-0.9l-5.5-9.6l-4.3,10.2l-10,2.1c-0.3,0.1-0.4,0.5-0.2,0.7L180.7,77.2z M186.5,69.2l2.6-6.1l3.3,5.8l6.6,0.6l-4.5,4.9
		l1.5,6.4l-6-2.7l-5.7,3.4l0.7-6.6l-5-4.3L186.5,69.2z"/>
	<path d="M203.5,295.9l-10.1,4.6l-8.8-5.3c-0.3-0.2-0.7,0.1-0.6,0.4l1.1,9.9c0,0.1,0,0.3-0.1,0.4l-7.5,6.6c-0.3,0.2-0.1,0.6,0.2,0.7
		l10,2l4,9.4c0.1,0.3,0.6,0.3,0.7,0l5-8.9l11-1l-7.5-8.2L203.5,295.9z M203.9,312.3l-6.6,0.6l-3.3,5.8l-2.6-6.1l-6.5-1.3l5-4.3
		l-0.7-6.6l5.7,3.4l6-2.7l-1.5,6.5L203.9,312.3z"/>
	<path d="M118.8,116.4L101,92c-0.2-0.2-0.5-0.1-0.5,0.1l-2.1,8.1c0,0.1,0,0.2,0.1,0.3l19.9,16.3C118.6,117.1,119,116.7,118.8,116.4z
		"/>
	<path d="M409.4,208.1l-10.4-9.8c0,0-0.1-0.1-0.2-0.1l-51.1-4.6l22-17.8l-45.9-21.2l13-56.9l-60.5,18.8l-6.9-8.5l32.2-39.1
		c0.2-0.3-0.1-0.6-0.4-0.5L285.5,77c0,0-0.1,0.1-0.1,0.1l-18.5,27.8l-5.3-6.5l6.5-11.5c0.1-0.2,0-0.4-0.2-0.4l-8.2-2.5
		c-0.2-0.1-0.3,0.1-0.4,0.2l-2.2,8.7l-17.6-21.7l-47,38.6l-54.2-34.9l-5,39.2l-31-52.8c-0.1-0.3-0.5-0.2-0.6,0.1l-1.6,17.7
		c0,0.1,0,0.2,0.1,0.2l32.2,41.9l-0.6,4.3l-63.2-14.2L83.3,169l-45.8,34.7l16,5.1l-38.7,16.1c-0.3,0.1-0.2,0.5,0,0.6l16.9,4.8
		c0.1,0,0.2,0,0.2,0l29.3-18.9l26.7,8.5L28,315.7l103.6-68.8l13.1,20.7l-1.7,1.9c-0.1,0.1-0.1,0.1-0.1,0.2l0.3,8
		c0,0.3,0.4,0.4,0.6,0.1l3.5-6.1l4.7,7.4l-10.5,19.8c0,0.1,0,0.2,0,0.3l4.6,8.5c0.1,0.2,0.5,0.2,0.6,0l8.4-23.7l7.7,12.2l53.5-33.1
		l41.3,45.7l9.5-18.5l2.5,6.8c0,0.1,0.1,0.2,0.2,0.2l8.2,1.1c0.3,0,0.4-0.2,0.3-0.5l-8.4-13.3l2.6-5l16.3,29.9
		c0,0.1,0.1,0.2,0.2,0.2l12.7,1.3c0.3,0,0.4-0.3,0.3-0.5c-2.4-3.3-15.3-20.9-26.8-36.2l9.4-18.4l47.6,23.5l-19.1-58l12.4-10.1
		l23.9,13.3c0.1,0.1,0.2,0.1,0.3,0l7.8-4.3c0.2-0.1,0.2-0.5,0-0.6c-2.9-1.1-16-6.3-28.6-11.1l14.4-11.7l65.6,11.7
		C409.4,208.7,409.6,208.3,409.4,208.1z M339.8,192.9l-30.7-2.8c-0.4,0-0.5,0.5-0.1,0.6l27.3,4.9l-13.6,10.6
		c-6.2-2.4-11.8-4.5-15.3-5.8c-0.4-0.1-0.6,0.4-0.2,0.6l13,7.2l-10.9,8.5l-6.1-7.2l4.5,8.5l17.7,51.1l-43.7-20.9l-11.2-5.8l9.6,9
		l-9,17c-5.3-7-9.9-12.9-12.4-15.8c-0.2-0.3-0.7,0-0.5,0.4l10.7,19.6l-2.9,5.5l-6.7-10.7c-0.2-0.3-0.7-0.1-0.6,0.3l5.3,14.1
		l-7.3,13.8l-38.5-40.9l-9.2-11.5l5.2,14.1l-9.6,6.2L168.1,285l-8.7-13.1l5.7-16.2c0.1-0.4-0.4-0.6-0.6-0.2l-7.1,13.5l-4.6-6.9
		l4.7-8.3c0.2-0.3-0.3-0.6-0.5-0.4l-5.6,6.5l-7.5-11.4l-5-8.8l9.2-14.2L46.4,295.3l52.2-79.7l14.7-20.1l-20.6,18.3l-23.7-7.4
		l14.2-9.2c0.3-0.2,0.1-0.7-0.3-0.5l-19.4,8.1l-11.3-3.5l30.3-22l22-15.7l-11.4,3l-12.5-47.1l50.8,11.1l-2.2,16.3l6.9-15.3l0.9-4.6
		l14,18.2c0.2,0.3,0.7,0,0.5-0.3l-13.5-23l7-34.8l44.5,27.6l-7.4,11.6l13.2-8l43.7-34.4l15.7,18.7l-3.3,12.9
		c-0.1,0.3,0.4,0.5,0.6,0.2l5.5-9.8l5,5.9l-12.7,19.2c-0.2,0.3,0.2,0.7,0.5,0.4l14.2-17.2l8.9,10.5l6.1,10.4l-1.9-11.7l51.5-15.3
		l-1.8,7.6l-12,38.1l-9.8-0.9l11.7,5.7l42.5,19L339.8,192.9z"/>
</g>
</svg>
