<?xml version="1.0" encoding="utf-8"?>
<!-- Generator: Adobe Illustrator 19.2.0, SVG Export Plug-In . SVG Version: 6.00 Build 0)  -->
<svg version="1.1" id="Capa_1" xmlns="http://www.w3.org/2000/svg" xmlns:xlink="http://www.w3.org/1999/xlink" x="0px" y="0px"
	 viewBox="0 0 425.2 425.2" style="enable-background:new 0 0 425.2 425.2;" xml:space="preserve">
<path d="M298.2,361.2c-1.7-7.6-3.4-15.2-5.3-22.8c-0.9-3.6-1.8-7.1-2.8-10.6c-1.1-5.6-0.8-11.4,5.6-13.9c3.6-1.4,7.5-2,11.3-2.8
	c17.4-3.6,34.8-12.5,49.3-22.6c30.8-21.4,52.4-53.2,54.2-91.4c0.5-9.5-0.6-18.4-2.9-26.7c-11-50.9-67.8-79.1-118.7-76.8
	c-26.6,1.6-53.5,7.1-80.2,2.7c-25.9-4.3-43.6-24.7-68.1-32.5c-42.8-13.6-96.1,8-115.8,48.3C14.2,134,14,159.4,20.3,183
	c3.9,16.7,11,32.7,20.1,46.2c22.6,33.6,58.5,57,95.4,72.3c23.2,9.7,46.9,14.2,71.4,18.6c13.2,2.3,24.8,5.4,36.5,12
	c17.2,9.6,33,22.2,49.1,33.5C295.3,367.3,298.8,363.7,298.2,361.2z M233.5,315.2c-15.5-5.6-32.3-6.5-48.3-9.7
	c-41.2-8.3-81.2-27-113-54.6c-21.8-18.9-37.9-42.9-45.2-69.7c-3.7-13.7-5.1-28.2-3.6-43.2c0.8-8.4,3-16.2,6.3-23.3
	c18.1-38.9,69.6-56.9,110.7-43.2c2.6,0.9,5.1,1.8,7.6,2.9c11.2,5,20.3,13.2,31,19c2.9,1.6,5.8,2.9,8.8,4.1
	c7.7,3.1,15.8,5.1,24.3,6.3c24.8,3.4,50.1-2,74.8-3.5c0,0,0,0,0.1,0c1.7-0.1,3.4-0.1,5.1-0.1c15.9-0.2,31.7,2.3,46.5,7.7
	c11.7,4.2,22.7,10.2,32.6,18c15.9,12.6,26,29.5,30,48.2c2.4,11,2.7,22.6,0.9,34.2c-7.1,45.5-46.9,75.8-87.7,90.5
	c-9.4,3.4-24,2.3-29.6,12.4c-3.5,6.3-2.3,13.2-0.6,19.9c0.2,0.9,0.4,1.8,0.7,2.7c1,4.1,2.1,8.1,3.1,12.2c0.4,1.4,0.7,2.9,1,4.3
	C271.4,337.2,253.4,322.3,233.5,315.2z"/>
</svg>
