<?xml version="1.0" encoding="utf-8"?>
<!-- Generator: Adobe Illustrator 19.2.0, SVG Export Plug-In . SVG Version: 6.00 Build 0)  -->
<svg version="1.1" id="Capa_1" xmlns="http://www.w3.org/2000/svg" xmlns:xlink="http://www.w3.org/1999/xlink" x="0px" y="0px"
	 viewBox="0 0 425.2 425.2" style="enable-background:new 0 0 425.2 425.2;" xml:space="preserve">
<path d="M406.5,191.1c0-16.6-11.8-31.1-28.8-36.2c3.4-6.4,5.2-13.4,5.2-20.6c0-20.2-14.1-37.4-33.9-44c0,0-0.1,0-0.1,0
	c-1.1-0.4-2.2-0.7-3.3-1c-0.8-0.2-1.6-0.5-2.4-0.6c-0.2,0-0.4-0.1-0.7-0.1c-0.4-0.1-0.8-0.2-1.2-0.2c-0.5-0.1-1-0.2-1.5-0.3
	c-0.9-0.2-1.8-0.2-2.7-0.3c-0.2,0-0.4,0-0.6-0.1c-0.1,0-0.2,0-0.3,0c-0.7-0.1-1.4-0.1-2-0.1c-0.2,0-0.4,0-0.6,0c-0.2,0-0.4,0-0.5,0
	c-0.5,0-1.1,0-1.6,0c-0.8,0-1.5,0-2.3,0c-6.2-16.5-23.2-27.8-42.7-27.8c-3.7,0-7.5,0.4-11.1,1.2c-9.8-8.7-21.9-14.5-35-16.9
	c-2.6-0.6-5.3-1.1-8.1-1.4c-0.6-0.1-1.3-0.1-1.9-0.2c-0.6-0.1-1.2-0.1-1.8-0.1c-0.6,0-1.2-0.1-1.8-0.1l-0.2,0l-0.1,0l-0.2,0l-0.5,0
	l-1,0c-0.6,0-1.3,0-2,0c-0.7,0-1.3,0.1-2,0.1c-0.7,0-1.3,0.1-2,0.1l-2,0.2c-5.3,0.5-10.6,1.7-15.6,3.4c-5.1,1.8-9.9,4-14.3,6.8
	c-1.1,0.7-2.1,1.4-3.2,2.1c-1,0.8-2,1.5-3,2.3c-1.9,1.6-3.8,3.2-5.4,4.9c-1.3,1.3-2.5,2.7-3.7,4.1c-2-0.4-4.1-0.6-6.1-0.6
	c-9,0-17.5,3.5-23.4,9.6c-6.8-3.1-14.3-4.7-21.9-4.7c-20.8,0-39.6,12.2-46.5,30c-14.9,2.7-28.5,9.8-38.5,20.4
	c-10.7,11.2-16.5,25.6-16.5,40.5c0,27.3,19.3,51,47.5,59.1c-1.4,4-2.1,8.2-2.1,12.4c0,22.7,20.3,41.2,45.2,41.2
	c2.4,0,4.8-0.2,7.2-0.5c0,0.1,0,0.2,0.1,0.3c0.3,1.2,0.6,2.4,0.9,3.6c0.9,2.4,1.6,4.8,2.8,7.1l0.9,1.8c0.3,0.6,0.6,1.2,0.9,1.7
	c0.7,1.1,1.4,2.2,2.1,3.4l0.5,0.8l0.6,0.8l1.3,1.6c0.9,1.1,1.8,2.3,2.6,3.1l2.7,2.7l0.3,0.3l0.3,0.2l0.1,0.1l0.2,0.2l0.8,0.7
	l1.6,1.3c0.5,0.4,1.1,0.9,1.6,1.3l1.7,1.2l1.7,1.1c0.6,0.4,1.1,0.8,1.7,1.1c1.2,0.7,2.4,1.3,3.6,2c1.2,0.6,2.5,1.1,3.7,1.7
	c0.6,0.3,1.2,0.6,1.9,0.8c0.5,0.2,0.9,0.3,1.4,0.5c7.4,2.9,15.5,4.6,24,4.6c12.4,0,24.2-3.4,34.3-9.7c12.8,11.3,30.2,17.7,48.1,17.7
	c24.2,0,45.5-11.3,57.8-28.5c0.6,0.7,1.2,1.3,1.8,2c1.3,1.5,2.6,3.2,3.8,4.7c0.6,0.8,1.2,1.6,1.8,2.4c0.6,0.8,1.2,1.6,1.7,2.5
	c1.2,1.6,2.2,3.3,3.3,5c1,1.7,2.1,3.4,3,5.1c1,1.7,1.9,3.5,2.8,5.2l1.3,2.7l1.2,2.7c0.8,1.8,1.5,3.6,2.2,5.4c0.7,1.8,1.4,3.7,2,5.5
	c0.6,1.9,1.2,3.7,1.7,5.6c0.5,1.9,1,3.7,1.4,5.6l0.6,2.8l0.2,1.4l0.2,1.3l3.8,26.1l5.9-25.5c0.6-2.4,1.2-4.8,1.7-7.2
	c0.4-2.4,0.9-4.8,1.2-7.3l0.4-3.7l0.2-3.7c0.2-2.4,0.1-4.9,0.1-7.3c0-1.2-0.1-2.5-0.2-3.7c-0.1-1.2-0.1-2.4-0.3-3.7l-0.4-3.7
	l-0.6-3.6c-0.2-1.2-0.4-2.4-0.7-3.6c-0.3-1.2-0.5-2.4-0.8-3.6l-1-3.6c-0.3-1.2-0.8-2.3-1.1-3.5c-0.4-1.2-0.8-2.3-1.3-3.5
	c-0.4-1.1-0.9-2.3-1.4-3.4c-0.5-1.1-1-2.3-1.5-3.4l-1.6-3.3l-1.8-3.3c-0.6-1.1-1.3-2.1-1.9-3.2c-1.3-2.1-2.7-4.2-4.1-6.2
	c-0.9-1.3-1.9-2.6-3-3.9c1.7,0.2,3.3,0.3,5,0.3c21.7,0,39.3-16,39.3-35.8c0-2.6-0.3-5.3-1-7.8C396.5,220.2,406.5,206.5,406.5,191.1z
	 M375.1,220.5l-3.8,1.1l1.2,3.5c1,2.9,1.6,5.9,1.6,8.9c0,15.7-14.1,28.5-31.4,28.5c-4.9,0-9.7-1.1-14.1-3c-1-0.9-2-1.9-3-2.8
	c-1.9-1.6-3.8-3.2-5.9-4.7c1.5,1.6,2.8,3.2,4.1,4.9c0.2,0.2,0.4,0.5,0.6,0.7c1.5,1.9,2.9,3.8,4.3,5.8l0,0l2,3
	c0.4,0.6,0.8,1.3,1.2,1.9c0.2,0.4,0.5,0.8,0.7,1.1c1.2,2,2.4,4.1,3.5,6.2c1.1,2.1,2.2,4.2,3.2,6.3c0.5,1.1,1,2.1,1.4,3.2l1.3,3.2
	l1.2,3.3c0.4,1.1,0.7,2.2,1.1,3.3c0.4,1.1,0.7,2.2,1,3.3c0.3,1.1,0.7,2.2,0.9,3.3c0.3,1.1,0.6,2.2,0.8,3.3l0.7,3.4
	c0.2,1.1,0.4,2.3,0.6,3.4l0.3,1.7l0.2,1.7l0.4,3.4l0.2,3.4c0.1,1.1,0.1,2.3,0.1,3.4c0,1.1,0.1,2.3,0.1,3.4c-0.1,1.9-0.1,3.8-0.2,5.7
	c-0.3-0.8-0.6-1.6-1-2.3c-0.8-1.9-1.8-3.8-2.7-5.7l-1.5-2.8l-1.6-2.8c-1.1-1.8-2.2-3.6-3.4-5.4c-1.1-1.8-2.4-3.5-3.7-5.2
	c-1.3-1.7-2.6-3.4-4-5c-0.7-0.8-1.4-1.6-2.1-2.4c-0.7-0.8-1.4-1.6-2.2-2.4c-1.5-1.5-3-3.1-4.6-4.5c-1-1-2.1-1.9-3.2-2.8
	c-0.6-0.5-1.1-1-1.7-1.4c-0.4-0.4-0.9-0.7-1.3-1.1c-1-0.8-2.1-1.6-3.1-2.4c-0.2-0.2-0.4-0.3-0.7-0.5l-2.7-1.9
	c-0.9-0.6-1.8-1.2-2.7-1.7c-1.8-1.2-3.7-2.2-5.6-3.3c-0.9-0.5-1.9-1-2.9-1.5c-1-0.5-1.9-1-2.9-1.4c1.7,1.3,3.4,2.6,5,3.9
	c1.6,1.4,3.3,2.7,4.8,4.1c1.6,1.4,3.1,2.8,4.6,4.2c0.4,0.4,0.8,0.8,1.2,1.2c-10.7,16.2-30.2,27-52.4,27c-16.9,0-33.2-6.5-44.8-17.7
	l-2.5-2.4l-2.9,2c-7.5,5.3-16.1,8.6-25.4,9.7c-0.6,0-1.3,0.1-2,0.1c-1,0-2,0-3,0c-2,0-4.1-0.2-6.2-0.4c-1.1-0.1-2.1-0.3-3.2-0.5
	c-0.5-0.1-1.1-0.2-1.6-0.2c-0.5-0.1-1.1-0.2-1.6-0.4c-1.1-0.3-2.1-0.5-3.2-0.8c-1.1-0.3-2.1-0.7-3.2-1c-4.2-1.5-8.4-3.4-12.3-5.9
	c-0.5-0.3-1-0.6-1.4-1l-1.4-1l-1.4-1l-1.3-1.1l-1.3-1.1l-0.7-0.6l-0.2-0.1l0,0l-0.3-0.3l-2.6-2.7c-1-0.9-1.5-1.7-2.2-2.6l-1-1.2
	l-0.5-0.6l-0.5-0.7c-0.6-0.9-1.2-1.9-1.9-2.8c-0.3-0.5-0.6-0.9-0.8-1.4l-0.8-1.5l-0.8-1.4c-0.3-0.5-0.4-1-0.6-1.5
	c-0.4-1-0.8-2-1.3-3c-0.3-1-0.6-2-0.9-3c-0.2-0.5-0.3-1-0.5-1.5c0-0.1-0.1-0.3-0.1-0.4c-0.1-0.5-0.2-1.1-0.3-1.6l-0.6-4.2l-0.2,0
	c-0.1-0.5-0.1-1-0.2-1.5c-0.1-0.5-0.1-1-0.2-1.5c0-0.5,0-1,0-1.5c0-1,0-2,0-2.9c0.1-1,0.2-1.9,0.2-2.8c0.1-0.9,0.1-1.9,0.3-2.8
	c0.4-1.8,0.5-3.6,1.1-5.2c0.5-1.7,0.9-3.3,1.5-4.7c0.6-1.5,1.1-2.9,1.8-4.2c0.7-1.3,1.2-2.5,1.8-3.6c0.7-1.1,1.3-2.1,1.8-3
	c0.3-0.4,0.5-0.9,0.8-1.3c0.3-0.4,0.6-0.7,0.8-1.1c0.5-0.7,0.9-1.2,1.3-1.7c0.7-0.9,1.1-1.5,1.1-1.5s-0.5,0.4-1.5,1.1
	c-0.5,0.4-1.1,0.8-1.8,1.4c-0.3,0.3-0.7,0.6-1.1,0.9c-0.4,0.3-0.7,0.7-1.1,1.1c-0.8,0.8-1.7,1.7-2.7,2.6c-0.9,1-1.8,2.2-2.8,3.4
	c-1.1,1.2-1.8,2.6-2.8,4.1c-1,1.5-1.7,3.1-2.6,4.9c-0.2,0.4-0.4,0.9-0.6,1.3c-0.2,0.4-0.3,0.9-0.5,1.4c-0.3,0.9-0.7,1.9-1,2.9
	c-0.4,1-0.6,2-0.8,3c-0.2,1-0.5,2.1-0.7,3.2c-0.1,1.1-0.3,2.2-0.4,3.3c-0.1,0.6-0.1,1.1-0.2,1.7c0,0.6,0,1.1,0,1.7c0,1,0,2.1,0,3.2
	c-2.1,0.3-4.1,0.5-6.2,0.5c-20.5,0-37.3-15.2-37.3-33.9c0-4.6,1-9.2,3-13.4l1.9-3.9l-4.6-1c-26.9-6-45.8-27.9-45.8-53.2
	c0-27.1,21.3-49.9,50.8-54.1l2.5-0.4l0.7-2.2c5.1-15.9,21.4-26.9,39.6-26.9c7.3,0,14.6,1.8,20.9,5.2l3.2,1.7l2.1-2.7
	c4.4-5.7,11.5-9.1,19.1-9.1c0.5,0,0.9,0,1.4,0c-2.2,3.6-3.8,7.2-4.9,10.5c-1.2,3.4-1.9,6.7-2.2,9.5c-0.2,1.4-0.3,2.8-0.4,4
	c-0.1,1.2,0,2.4,0,3.4c0.1,2.1,0.2,3.7,0.4,4.7c0.2,1.1,0.2,1.7,0.2,1.7s0.1-0.6,0.3-1.6c0.1-0.5,0.2-1.2,0.4-2
	c0.2-0.8,0.4-1.6,0.6-2.6c0.5-1.9,1.2-4.3,2.2-6.8c0.9-2.6,2.2-5.4,3.9-8.3c2-3.6,4.5-7.3,7.6-10.9c0.6-0.7,1.3-1.5,2-2.2
	c1.5-1.6,3.1-3.2,4.8-4.7c3.2-2.8,6.8-5.3,10.6-7.6c3.9-2.2,8.1-4.2,12.4-5.6c4.3-1.5,8.9-2.5,13.4-3.2l1.7-0.2l1.7-0.2
	c0.6-0.1,1.1-0.1,1.7-0.2c0.6,0,1.1-0.1,1.7-0.1l0.8,0l0.4,0l0.1,0c-0.2,0,0,0-0.1,0h0.1h0.2c0.6,0,1.2,0,1.8,0c0.6,0,1.2,0,1.8,0
	c0.5,0,1.1,0,1.6,0.1c3.2,0.1,6.4,0.5,9.4,1c1.1,0.2,2.1,0.4,3.2,0.6c4,0.8,7.7,1.9,11,3.2c0.9,0.3,1.6,0.6,2.4,1
	c0.8,0.3,1.6,0.6,2.3,1c0.7,0.3,1.5,0.7,2.2,1c0.7,0.4,1.4,0.7,2,1c1.3,0.6,2.5,1.4,3.6,2c1.1,0.7,2.1,1.3,3,1.8
	c0.9,0.6,1.6,1.1,2.3,1.6c0.7,0.5,1.2,0.9,1.7,1.2c0.9,0.7,1.4,1,1.4,1l-3.9,1.3l0.7,0.7l2.4-0.7c3.6-1,7.3-1.5,11-1.5
	c15.5,0,29.2,8.8,34.7,21.7c0,0-0.1,0-0.2,0c-0.5,0.1-0.9,0.2-1.4,0.3c-0.5,0.1-0.9,0.3-1.4,0.4c-0.9,0.3-1.8,0.5-2.6,0.8
	c-0.9,0.2-1.6,0.6-2.4,0.9c-0.8,0.3-1.5,0.6-2.3,1c-0.7,0.3-1.4,0.7-2.1,1.1c-1.3,0.7-2.6,1.4-3.7,2.2c-0.5,0.4-1.1,0.7-1.6,1.1
	c-0.5,0.4-1,0.7-1.4,1.1c-0.9,0.8-1.7,1.4-2.3,2.1c-0.3,0.3-0.7,0.6-1,0.9c-0.3,0.3-0.5,0.6-0.7,0.9c-0.5,0.5-0.9,1-1.2,1.3
	c-0.6,0.7-1,1.1-1,1.1s0.5-0.3,1.3-0.8c0.4-0.3,1-0.6,1.6-0.9c0.6-0.4,1.3-0.8,2.2-1.2c0.8-0.4,1.7-0.8,2.7-1.3
	c1-0.5,2.1-0.8,3.3-1.3c0.6-0.2,1.2-0.5,1.8-0.7c0.6-0.2,1.3-0.4,2-0.6c0.7-0.2,1.3-0.4,2-0.6c0.7-0.2,1.4-0.3,2.2-0.5
	c0.8-0.1,1.5-0.4,2.3-0.5c0.8-0.1,1.6-0.2,2.4-0.3c0.4-0.1,0.8-0.1,1.2-0.2c0.4-0.1,0.8-0.1,1.2-0.1c0.3,0,0.7,0,1-0.1
	c0.5,0,1-0.1,1.5-0.1c0.4,0,0.9,0,1.3,0c0.4,0,0.8,0,1.3,0c0,0,0,0,0,0c0.9,0,1.8,0,2.6,0.1c1.8,0.2,3.6,0.3,5.4,0.7
	c3.6,0.5,7.2,1.7,10.7,3c0.9,0.4,1.7,0.8,2.6,1.2l0.6,0.3l0.6,0.3l1.2,0.7c1.7,0.8,3.2,2,4.8,3c0.8,0.5,1.5,1.2,2.2,1.7l1.1,0.9
	l0.3,0.2l0.1,0.1l0,0l0,0l0.6,0.5c0.7,0.7,1.5,1.4,2.2,2.1c0.6,0.6,1.1,1.3,1.7,1.9l0.4,0.5l0.4,0.5l0.8,1.1l0.8,1.1
	c0.3,0.4,0.5,0.7,0.7,1.1c0.5,0.7,1,1.5,1.4,2.2c0.4,0.8,0.8,1.5,1.2,2.3c1.4,3.1,2.5,6.2,3.2,9.3c0.6,3.1,1,6.1,0.9,8.8
	c0,2.3-0.2,4.4-0.5,6.3c-0.1,0.4-0.1,0.9-0.2,1.3c-0.4,2.3-0.9,4.3-1.5,5.9c-0.5,1.7-1,2.9-1.4,3.8c-0.3,0.9-0.5,1.4-0.5,1.4
	l-1.9-1.4l-2.7,3.9l5.7,1c15.9,2.8,27.5,15.5,27.5,30.3C398.5,204.5,389.1,216.3,375.1,220.5z"/>
</svg>
