<?xml version="1.0" encoding="utf-8"?>
<!-- Generator: Adobe Illustrator 19.2.0, SVG Export Plug-In . SVG Version: 6.00 Build 0)  -->
<svg version="1.1" id="Capa_1" xmlns="http://www.w3.org/2000/svg" xmlns:xlink="http://www.w3.org/1999/xlink" x="0px" y="0px"
	 viewBox="0 0 425.2 425.2" style="enable-background:new 0 0 425.2 425.2;" xml:space="preserve">
<g>
	<path d="M352.6,324.1c-0.1,0-0.3,0-0.5,0c-0.1,0-0.1,0-0.2-0.1c-3.9-0.6-8.6-0.4-12.9,0.8c2.3-3.5,4.1-7.3,5.1-11.7
		c0-0.1,0-0.2,0.1-0.4c0-0.1,0.1-0.3,0.1-0.4c0.7-4.9,0.5-9.3-0.7-13.9c30-24.4,47.1-60.2,40.9-99.2c-0.6-3.6-1.3-7.1-2.3-10.6
		c-7.6-33.2-31.3-61.3-57.9-81.5C257.7,56.3,155,43.2,80.2,83.7c-29.9,16.2-54,43.2-61,77c-3.2,15.4-2.3,30.8,1.7,45.5
		c4.4,19.2,14,37.2,26.5,52.7c26,32.2,63.9,53.6,103,65.7c24.5,7.6,50.3,11.1,75.9,11.1c6.4,0,12.8-0.4,19.2-0.9
		c6.6-0.5,10.4,0.2,16.2,3.1c10.7,5.4,23,7.4,34.8,7.2c10.5-0.1,21.7-3.1,30.7-8.9c-0.7,3.2-0.4,6.1,0.7,8.6
		c0.8,8.2,8.9,13.8,17.2,15.8c8.6,2.1,22.3-1.1,25.1-10.9c1-3.6,0.8-6.9-0.4-9.7C369,331.6,360.9,326.1,352.6,324.1z M278.4,333
		c-6.6-1.4-13-4.2-18.9-7.4c-4.6-2.5-7.7-1.4-13-0.9c-14.1,1.4-28.3,1.1-42.4,0c-47.5-3.8-94.9-21.9-131.4-52.7
		c-21.3-17.9-38.9-41.8-46.1-68.6c-2.5-9.4-3.8-19.1-3.5-29.1c0.4-11.7,3.1-22.7,7.6-32.8c10.6-23.6,31.2-42.3,54.6-54.6
		c55.8-29.2,126.6-26.4,185.4-2.1c16.2,6.7,31.5,15,45.3,24.7c27.8,19.6,51.5,47.4,60.3,80.8c0.3,1.1,0.5,2.1,0.8,3.2
		c8.6,38.1-8.5,74.8-38.9,98.4c-1,0.7-2,2.4-1.6,3.7c1.4,4.8,1.8,9.2,1.1,14.1C331.4,334.5,299.3,337.5,278.4,333z M349.1,350.9
		c-6.4-0.4-12.6-4.2-15.8-9.7c-0.1-0.2-0.2-0.3-0.3-0.5c-0.6-1.3-1-2.4-1-3.4c-0.2-6.8,11.9-7.9,17.4-7.3c0.1,0,0.2,0.1,0.3,0.1
		c1.5,0.4,2.9,0.8,4.3,1.4c0.1,0,0.2,0.1,0.3,0.1c3.7,1.6,6.9,4,9,7.8c0.9,1.6,1.3,3.1,1.2,4.3C364.1,349.6,353.9,351.2,349.1,350.9
		z"/>
	<path d="M405.8,353.8c-0.3-6.2-6.1-10.5-12.3-12.1c-0.2,0-0.3,0-0.5-0.1c-0.1,0-0.1,0-0.2-0.1c-6.6-1-16,1.1-18.1,8.6
		c-0.8,2.9-0.5,5.5,0.5,7.8c0.3,6.2,6.1,10.5,12.3,12.1c6.6,1.6,16.6-1.1,18.8-8.5C407.2,358.7,406.8,356,405.8,353.8z M400.2,357.2
		c-1.1,2.8-6.8,3.4-9.4,3.2c-4-0.2-7.9-2.5-10-5.8c-0.1-0.2-0.3-0.4-0.4-0.7c-0.4-0.7-0.6-1.3-0.7-1.8c-0.7-4.4,7.3-4.8,10.7-4.4
		c0.1,0,0.2,0.1,0.3,0.1c1.2,0.3,2.3,0.7,3.4,1.2c0.4,0.2,0.8,0.4,1.1,0.6c1.8,1,3.4,2.4,4.5,4.5
		C400.4,355.3,400.5,356.3,400.2,357.2z"/>
</g>
</svg>
