<?xml version="1.0" encoding="utf-8"?>
<!-- Generator: Adobe Illustrator 19.2.0, SVG Export Plug-In . SVG Version: 6.00 Build 0)  -->
<svg version="1.1" id="Capa_1" xmlns="http://www.w3.org/2000/svg" xmlns:xlink="http://www.w3.org/1999/xlink" x="0px" y="0px"
	 viewBox="0 0 425.2 425.2" style="enable-background:new 0 0 425.2 425.2;" xml:space="preserve">
<path d="M410.6,200.1c-0.2-20.4-12.9-38.2-31.9-45.4c-14.1-5.3-29.4-3-41.6,4.6c5.2-18.1,1.2-38.2-11.4-53.2
	c-16.2-19.3-43.9-24.6-66.5-14.7c-7.5-28.1-33.6-48-62.9-47.7c-24.5,0.2-46.4,15.2-56.7,36.6c-1.9-6.5-5.5-12.5-10.8-17.3
	c-9.9-9.1-24.3-12-37.1-8c-12.3,3.8-21.6,14.1-25,26.4c-3.1,11-0.5,22.9,6,32c-24.2-0.5-46.5,14.1-55.3,37.5
	c-9.7,25.8,2.1,55.2,25.4,68.7c-7.8,20-3.2,42.9,12.7,57.8c4.8,4.5,10.3,7.9,16.1,10.2c-5.7,8.7-10.8,20-15.2,35.3
	c-6.6,23.3-6.6,59-6.6,59s5.4-24,24.6-54.3c12.7-20,24.6-31.4,38-40.9c0.8-0.3,1.6-0.7,2.3-1.1c5.8,24.5,26.8,42.7,51.9,45.7
	c25.1,2.9,48.9-11.5,59.8-33.4c9.6,15.2,27.1,23.4,45.5,20.4c17.4-2.8,30.8-16.6,35-33.1c11.8,10.7,29.2,13.3,43.8,5.3
	c15.1-8.2,22.1-26.4,17.8-42.6C392.2,244.6,410.3,224.5,410.6,200.1z M357.3,242.3c1.6,3.9,2.5,8.1,2.5,12.5
	c0,18-14.6,32.5-32.5,32.5c-11,0-20.7-5.4-26.6-13.8c-1.3,20.3-18.2,36.5-38.9,36.5c-16.5,0-30.7-10.3-36.3-24.9
	c-7,21.5-27.2,37-51,37c-25.6,0-47-17.9-52.4-41.9c4-2.5,8.1-5,12.4-7.6c23.4-14.1,71.7-16.6,71.7-16.6s-36.7-5.7-86.2,19.2
	c-3.9,2-7.5,4-11,6.2c-0.2,0.1-0.4,0.3-0.7,0.4c-4.5,2.9-8.6,5.9-12.4,9c-29.7,24.6-38,54.5-38,54.5c4.5-24.3,12.2-42.6,20-55.8
	c1.7-2.9,3.4-5.5,5.1-7.9c1.1-1.5,2.1-3,3.1-4.3c9-11.8,16.4-16.8,16.4-16.8s-12.6,5.2-21.9,15.1c-1.2,1.2-2.3,2.5-3.4,3.9
	c-16.4-7.2-27.8-23.6-27.8-42.6c0-7.3,1.7-14.2,4.7-20.4c-16.9-8.3-28.5-25.7-28.5-45.8c0-28.2,22.9-51,51-51c3.6,0,7,0.4,10.4,1.1
	c-7.5-6-12.3-15.3-12.3-25.6c0-18.2,14.7-32.9,32.9-32.9c18.2,0,32.9,14.7,32.9,32.9c0,2.4-0.3,4.7-0.7,6.9c0.2,0,0.5-0.1,0.7-0.1
	c4.3-27.6,28.3-48.8,57.1-48.8c28.3,0,51.9,20.4,56.9,47.3c7.3-4.1,15.8-6.4,24.8-6.4c28.2,0,51,22.9,51,51c0,11.8-4,22.7-10.8,31.4
	c0,0,0.1,0.1,0.1,0.2c7.6-11.9,20.9-19.8,36.1-19.8c23.6,0,42.7,19.1,42.7,42.7C398.7,222.8,380.3,241.6,357.3,242.3z"/>
</svg>
