<?xml version="1.0" encoding="utf-8"?>
<!-- Generator: Adobe Illustrator 19.2.0, SVG Export Plug-In . SVG Version: 6.00 Build 0)  -->
<svg version="1.1" id="Capa_1" xmlns="http://www.w3.org/2000/svg" xmlns:xlink="http://www.w3.org/1999/xlink" x="0px" y="0px"
	 viewBox="0 0 425.2 425.2" style="enable-background:new 0 0 425.2 425.2;" xml:space="preserve">
<path d="M129.2,56.7c-42.5,0-77.4,30-80.6,68.6C28,136,15.4,154.7,15.4,174.5c0,23,16.3,43.4,41.9,53c-2.4,4.8-3.6,9.8-3.6,14.9
	c0,13.3,8.1,25.7,22.8,34.8c14.2,8.8,32.9,13.7,52.8,13.7c1.4,0,2.8,0,4.2-0.1c23.2,37.8,62.4,56,98.6,78
	c-14.4-21-25.1-42.4-29.9-64.6c9.4,4.8,20,8.1,31.2,9.8c4.8,0.7,9.7,1,14.5,1c9.8,0,19.4-1.5,28.5-4.2c32.8-7.2,59.1-30.5,65.4-61.8
	c2.1-0.5,4.2-1.2,6.3-1.8c31.6-7.6,56.7-30.8,61.1-61.8c6.1-42.5-28.7-81.9-76.3-88.7c-17.1-2.4-33.6-0.2-48.1,5.4
	c-13.1-19.2-34.6-33.6-60.5-37.3c-5.8-0.8-11.5-1.1-17.1-0.8c-10.8,0.5-21.1,2.9-30.5,6.9C163.2,61.9,146.9,56.7,129.2,56.7z
	 M185.4,77.6c6-1.4,12.2-2.2,18.6-2.2c4,0,8,0.3,12,0.9c23.8,3.4,45.1,17.1,57,36.8l1.4,2.4l2.5-1.1c10.6-4.6,22.6-7.1,34.6-7.1
	c4.3,0,8.7,0.3,13,0.9c21.2,3,40.1,13,53.3,28.2c13.1,15.1,18.8,33.3,16.2,51.5c-4.2,29.5-29.9,52.4-63.9,57l-2.4,0.3l-0.3,2.4
	c-5,34.9-39.2,61.1-79.7,61.1c-4.5,0-9.1-0.3-13.6-1c-12.3-1.8-23.7-5.8-33.6-11.5c-1.9-12.8-1.9-25.8,0.6-39.1
	c0.7-1.4,1.2-2.8,1.7-4.2c-0.4,1.1-1,2.1-1.5,3.2c0.5-2.5,1.1-5,1.7-7.5c-3.4,4.7-5.8,10-7.4,15.5c-0.2,0.7-0.4,1.3-0.5,2
	c-2,8.2-2.3,16.9-1.4,25.9c0,0.4,0.1,0.8,0.1,1.2c0.1,1,0.2,2,0.4,3c0.2,1.4,0.4,2.8,0.7,4.2c3.2,17.9,10.5,35.8,18.2,50
	c-18.3-10.7-36.3-21.5-51.3-35.1c-8.1-7.4-15.1-15-21.5-24.7c-0.8-1.1-1.5-2.3-2.2-3.5c0-0.1-0.1-0.1-0.1-0.2
	c-0.7-1.1-1.3-2.2-2-3.3c-7.1-12.3-13.8-28.1-20.8-50.1l-1.2-0.2c2.4,20,7.7,36.5,15.1,50.5c0.5,1,1.1,2.1,1.7,3.1
	c-17-0.6-32.4-5-44.3-12.1c-0.3-0.2-0.7-0.4-1-0.6c-12.9-8-21.6-19.7-21.6-33.2c0-4.5,1.3-8.8,3.1-12.9c-0.5-0.2-0.9-0.4-1.4-0.6
	c-1.1-0.5-2.3-1-3.4-1.5c-0.9-0.4-1.9-0.9-2.8-1.4c-6.8-3.6-12.8-8.2-17.7-13.6c-8.1-9-13-20-13-32.2c0-19.5,12.6-36.3,30.7-46
	c3.4-35.7,35.8-63.4,75-63.4c11.4,0,22.1,2.3,31.9,6.5c0.6,0.3,1.3,0.6,1.9,0.8c1.3,0.6,2.5,1.2,3.7,1.9c1.2,0.7,2.4,1.3,3.6,2
	c2.4,1.4,4.7,3,6.9,4.7c7.7,5.8,14.1,13.1,18.8,21.2c4.6,8,7.6,17,8.4,26.5c0-0.6,0-1.3,0-1.9C210.1,110,200.6,91.1,185.4,77.6z"/>
</svg>
