<?xml version="1.0" encoding="utf-8"?>
<!-- Generator: Adobe Illustrator 19.2.0, SVG Export Plug-In . SVG Version: 6.00 Build 0)  -->
<svg version="1.1" id="Capa_1" xmlns="http://www.w3.org/2000/svg" xmlns:xlink="http://www.w3.org/1999/xlink" x="0px" y="0px"
	 viewBox="0 0 425.2 425.2" style="enable-background:new 0 0 425.2 425.2;" xml:space="preserve">
<g>
	<path d="M412,156c-3.5-30.1-25.3-56-61.7-73.4c-2.4-1.1-4.8-2.2-7.3-3.3c-14.3-6.2-30.2-10.8-47-13.9c-28.4-5.3-59.5-6.2-91.3-2.5
		c-50.8,5.9-97.3,23-131.1,48c-35.4,26.3-52.9,58.3-49.1,90.3c3.7,32,28.1,59.2,68.6,76.6c38.6,16.6,87.9,22.4,138.6,16.5
		c6.2-0.7,12.3-1.6,18.3-2.7c-16,36.8-54,54.5-89,73.5c51.1-10.3,118.1-36.4,147.3-89.5c20.3-7.9,38.8-17.7,54.5-29.4
		C398.3,220,415.7,188,412,156z M390.5,204.8c-15.7,22.6-43.1,42.6-77.8,56.8c-0.8,0.2-1.5,0.3-2.3,0.4c-0.1,0.2-0.2,0.4-0.3,0.6
		c-2.5,5.4-5.3,10.5-8.5,15.5c-21.5,33.8-57,56.7-96.3,67.6c26.7-14.2,46.5-31.2,55.8-56.3c1.5-4.1,2.8-8.5,3.8-13.1
		c0.6-3,1.1-6.2,1.5-9.4c-2.6-6.1-8-5.9-10.9,7.6c-0.3,1.3-0.6,2.6-0.9,3.9c-6.9,1.3-13.9,2.3-21,3.2
		c-101.4,11.8-189.1-25.8-195.9-84.1c-2.2-18.4,4-36.6,16.6-53.4c26.3-37.8,85.5-68.6,157-76.9c101.4-11.8,189.1,25.8,195.9,84.1
		C409.3,169.8,403.1,188.1,390.5,204.8z"/>
	<path d="M305.8,262.3c0,0,0.1,0,0.1,0C305.9,262.3,305.9,262.3,305.8,262.3C305.8,262.3,305.8,262.3,305.8,262.3z"/>
	<path d="M68.1,92.6c27-19.4,52-23.3,64-26.5c17.9-4.7-27.2-6.6-68.3,22.9c-33.6,24.1-59.3,60.7-48.6,54.4
		C17.9,141.8,37.5,114.6,68.1,92.6z"/>
	<path d="M33,107.6c2.9-0.3,9-12.5,29.6-26.2C75.5,72.8,87,68.5,97.8,64.7c12.6-4.5-13.5-2.7-37.4,13.4
		C36.7,94.3,31.6,107.8,33,107.6z"/>
	<path d="M299.4,73.1c-27.4-5.4-53-0.9-39.6-0.7c11.5,0.2,20.6-1.1,38.5,2.3c27.3,5.1,33.7,10.4,36.6,10
		C336.4,84.4,326.8,78.5,299.4,73.1z"/>
</g>
</svg>
