<?xml version="1.0" encoding="utf-8"?>
<!-- Generator: Adobe Illustrator 19.2.0, SVG Export Plug-In . SVG Version: 6.00 Build 0)  -->
<svg version="1.1" id="Capa_1" xmlns="http://www.w3.org/2000/svg" xmlns:xlink="http://www.w3.org/1999/xlink" x="0px" y="0px"
	 viewBox="0 0 425.2 425.2" style="enable-background:new 0 0 425.2 425.2;" xml:space="preserve">
<g>
	<path d="M322.3,253c3.5,0.3,7,0.4,10.4,0.3c18.3-0.5,35.4-6.2,48.2-16.1c13.1-10.1,20.1-23.3,19.7-37.3
		c-0.6-21.2-18.3-39.6-44.6-46.7c1.8-3.3,2.6-6.7,2.5-10.1c-0.5-17.9-25.8-31.4-59.3-32c-5.8-22.6-36.1-39.2-71.6-38.3
		c-24.3,0.6-46.1,9.1-59,22.7c-9.4-2.6-19.5-3.8-30.1-3.5c-18.2,0.5-35.3,5.4-48.1,13.8c-13.2,8.7-20.3,20.1-20,32.2
		c0,1.8,0.3,3.6,0.6,5.4c-21.4,4.6-36.3,19.1-35.9,35.6c0.1,4.8,1.5,9.4,4.1,13.7c-15.6,6.4-24.7,16.6-24.4,27.9
		c0.5,17.5,24.5,31.2,54.7,31.2c0.9,0,1.7,0,2.6,0c12.5-0.3,24.5-3,34.1-7.5c-2.1,3.8-3.1,7.8-3,12c0.5,18,22.5,32,49.8,31.3
		c15.2-0.4,29-5.3,38-13.2c6.8,13.8,28.5,23.4,54.5,23.4c0.9,0,1.8,0,2.7,0c32-0.8,56.8-15.5,57.7-33.7
		C313,261.5,318.6,257.7,322.3,253z M318.2,248c-3.1,4.7-8.9,8.5-16.1,10.8l-2.4,0.7l0.2,2.8c0,0.1,0,0.2,0,0.3
		c0.4,14.8-23.2,28-51.6,28.8c-26.9,0.7-49.8-9.6-52.7-23.5l-1.3-6.3l-4.2,4.9c-7.4,8.7-21.6,14.3-37,14.7
		c-23.4,0.6-43-10.9-43.4-25.2c-0.2-6.6,3.7-13,11-18.1l6.5-4.6l-7.9-1.1c-1.1-0.1-2.1-0.3-3.1-0.5l-1.5-0.3l-1.1,0.9
		c-9.2,7.7-24.8,12.6-41.5,13.1c-0.8,0-1.6,0-2.5,0h0c-26.3,0-48-11.2-48.4-25.1c-0.2-9.1,9-18,24-23.2l4.2-1.5l-2.8-3.5
		c-3.3-4.1-5.1-8.7-5.2-13.4c-0.4-14.1,13.9-26.7,34-29.9l3.7-0.6l-1.2-3.5c-0.8-2.3-1.2-4.7-1.3-7C76.5,128,82.6,118.5,94,111
		c11.8-7.8,27.7-12.3,44.8-12.7c10.6-0.3,20.7,1,30.1,3.8l1.9,0.6l1.3-1.5c11.4-13,32.7-21.5,55.8-22.1
		c33.7-0.9,62.2,14.7,65.8,35.7l0.4,2.6l3,0c30.1,0,54.9,11.6,55.2,25.9c0.1,3.4-1.2,6.7-3.8,10l-3.2,4l5,1.1
		c25.8,5.6,43.6,22.3,44.1,41.8c0.3,11.9-5.8,23.3-17.3,32.2c-11.7,9.1-27.5,14.3-44.5,14.7c-3.8,0.1-7.6-0.1-11.4-0.5l-1.9-0.2
		L318.2,248z"/>
	<path d="M342,260.6c-18.3,0-33.2,14.4-33.2,32.1c0,17.7,14.9,32.1,33.2,32.1c18.3,0,33.2-14.4,33.2-32.1
		C375.2,275,360.3,260.6,342,260.6z M342,318.5c-14.8,0-26.9-11.6-26.9-25.8c0-14.3,12.1-25.8,26.9-25.8c14.8,0,26.9,11.6,26.9,25.8
		C368.9,306.9,356.8,318.5,342,318.5z"/>
	<path d="M390.4,310c-11.7,0-21.2,9.5-21.2,21.3c0,11.7,9.5,21.3,21.2,21.3c11.7,0,21.2-9.5,21.2-21.3
		C411.6,319.6,402.1,310,390.4,310z M390.4,346.3c-8.2,0-14.9-6.7-14.9-15c0-8.3,6.7-15,14.9-15c8.2,0,14.9,6.7,14.9,15
		C405.3,339.5,398.7,346.3,390.4,346.3z"/>
</g>
</svg>
