<?xml version="1.0" encoding="utf-8"?>
<!-- Generator: Adobe Illustrator 19.2.0, SVG Export Plug-In . SVG Version: 6.00 Build 0)  -->
<svg version="1.1" id="Capa_1" xmlns="http://www.w3.org/2000/svg" xmlns:xlink="http://www.w3.org/1999/xlink" x="0px" y="0px"
	 viewBox="0 0 425.2 425.2" style="enable-background:new 0 0 425.2 425.2;" xml:space="preserve">
<path d="M338.6,118.1l10.2-6.9l20.7,21.5l1.4-38.4l34.8-16.8L369.6,64l-5.3-38l-23.7,30.3l-38-6.7L324,81.4l-17,31.7c-3,0-6,0-9,0.4
	c-12.5-39.3-49.3-67.1-91.8-67.1c-42,0-77.7,26.9-90.8,64.4l-6.8-0.6l-19.4-46l-19.6,46l-49.7,4.3l37.6,32.7l-11,48.7l39.1-23.4
	c6,3.4,22.9,13,40.5,23.1c0.2,0.2,0.3,0.5,0.5,0.7c-12.5,12.3-20.2,28.6-21.3,46.4c-22.5,5.3-39.3,25.4-39.3,49.5
	c0,28.2,22.9,50.9,50.9,50.9c1.2,0,2.3,0,3.5,0c7.8,25.8,31.7,44.4,59.9,44.4c13.1,0,25.6-4.1,35.8-11.3l15.3,1.3l9.6,22.3l9.4-22.5
	l24.3-2.3l-18.6-15.9l1.1-4.8c3.1-0.8,6.1-1.7,9.1-2.8c11,7.4,23.9,11.4,37.4,11.4c36.8,0,66.9-30.1,66.9-66.9c0-3.9-0.4-7.8-1-11.7
	c22.1-18.2,35-45.4,35-74.6C404.7,167.1,377,130.9,338.6,118.1z M334.4,78.5l-14.1-21.3l25.2,4.5l15.8-20l3.5,25.4l23.9,8.8
	l-22.9,11l-1,25.6l-7-7.2L346.9,94l-14.2,4l-10.3,2.9L334.4,78.5z M323.5,110.3l-2.7,3.6c-2.5-0.3-5-0.6-7.6-0.7L323.5,110.3z
	 M110.1,145.3l-3.5,3.1l2.5,10.9l4.9,21.2l-22.2-13.3l-6.2-3.7l-28.2,17l7.4-32.1l-25-21.7l32.9-3.1l12.9-30.3l13.1,30.3l13.1,1.2
	l19.6,1.8L110.1,145.3z M256.2,344.2l-2.4,10.9l-1,4.6l12.3,10.6l-16.2,1.4l-6.1,14.9l-6.5-14.7l-13.4-1l-2.5-0.2l12-10.8l0.1-0.1
	l0,0l-3.3-13.1l-0.6-2.4l4.5,2.6l0,0l9.3,5.4l7.6-4.6l5.6-3.4l0.7-0.4L256.2,344.2z M396.8,223.7c-2,29.5-19.2,54.4-43.6,67.5
	c1.8,5.7,2.7,12.1,2,18.6c-2,29-27.2,50.7-56.2,48.5c-13.9-1-26.2-7.4-34.8-17c-1.4,0.6-2.9,1.2-4.4,1.7l1.7-7.6l-13,7.9l-9.3-28.4
	l-5.7,29l-14-8.1l2.5,10.1c-1.4-0.3-2.8-0.5-4.1-0.9c-7.8,18.6-26.8,30.9-48.1,29.5c-26.4-2-46.2-25.2-44.4-51.5
	c0.2-0.8,0.2-1.4,0.2-2c-5.3,2.2-11.3,3.5-17.4,3.1c-20-1.4-35-18.8-33.3-38.7c1.4-19.8,18.6-34.8,38.4-33.3
	c1.8,0.2,3.5,0.4,5.3,0.8c-0.4-3.5-0.6-7.2-0.4-10.8c1.2-15.8,8.8-29.8,20.1-39.3c20.9,11.8,39.6,22.4,39.2,21.9l-35.8-43.6
	c-7.1-12.7-11-27.5-10.6-43l27-23.4l-22.2-1.9c12.2-34.1,46-57.3,83.9-54.5c41.9,3.1,74.2,37,76.5,77.9c2.9-0.6,5.9-1.1,8.9-1.4
	l-8.9,11.9l18.2-12.3c1.6,0,3.3,0.1,4.9,0.2C365.7,137.8,400.2,177.7,396.8,223.7z"/>
</svg>
