<?xml version="1.0" encoding="utf-8"?>
<!-- Generator: Adobe Illustrator 19.2.0, SVG Export Plug-In . SVG Version: 6.00 Build 0)  -->
<svg version="1.1" id="Capa_1" xmlns="http://www.w3.org/2000/svg" xmlns:xlink="http://www.w3.org/1999/xlink" x="0px" y="0px"
	 viewBox="0 0 425.2 425.2" style="enable-background:new 0 0 425.2 425.2;" xml:space="preserve">
<path d="M399.1,205l1.3-0.9l-53.6-23.9l-7.2-3.4l46-46.8l14.8-15.6l0-0.4l-17.8,6.2l-59.9,20l-4.1,1.2c1.8-7,4.1-13.8,6.4-20.7
	l-0.2-0.7l-20.9,5.8c0-0.1-0.1-0.3,0-0.5L325,64.1l-8.7,8.8l-34.8,31.1l-0.2-0.1c1.6-6.4,4.4-12.6,6.3-19l-0.8-0.2l-4.1,3.9
	l-0.8,0.2c1.1-7.7,2.7-15.2,3.8-22.9c1.6-8.9,2.6-17.6,4.8-26.3l-1-0.6c-13.2,19.1-26.5,37.6-40,56.7l-0.1-0.3l5.8-34.8
	c-0.2-0.2-0.6-0.4-0.8-0.3l-11.2,16l-0.5,0.1L234.3,41l-4.1-18.1l-0.4-0.3c-2.2,11-5.4,21.7-8.3,32.5l-8.8,33.3L212,90l-10.3-42.6
	l-0.6-1.6l-0.8,0.3c-2.6,9.9-5.3,19.8-7.9,29.7l-0.3,0c-2.9-2.9-5.2-5.7-8.2-8.6c-0.5,0.3-0.1,1.1-0.3,1.5l-2.8,33.9l-0.4,0.9
	c-1.5-1.2-2.7-2.8-4-3.8l-34.1-33.1L120,44.4c1.6,5.4,3.9,10.6,5.3,16l15.5,42.4l0.4,1.9l-0.1,0l-39.2-38.3l-1.4-1l-0.8,0.7
	l23.9,66.7c-9.4-3.8-18-8.2-27.5-12.3c0.5,4.5,1.6,8.2,2.3,12.7l-0.2,0.8c-8-2.4-16.3-4.5-24.3-7.1l-0.3,0.3
	c5.3,6.3,10.3,12.8,15.6,19.1c1,1.8,3.2,3.1,3.7,4.9c-12.1-3.4-24.5-6.7-36.5-10.4c-0.7,0.1-1.7-0.6-2.2-0.4
	c1.8,2.4,3.9,4.3,5.6,6.7l22.1,27.2l3.6,4.4c0.7,1.1,1.9,1.8,2.4,3.2c-8.9,0.8-17.7,1.6-26.6,2.2l-0.2,0.3c0.8,1.2,2.1,2.3,2.8,3.1
	c4.7,6,10.1,12.1,15,18l-0.1,0.4l-33.9,8.7c-0.6,0.9,0.3,2-0.3,3l-28,7.3l0.1,0.9l36.7,6.2l28.8,4.9l0.1,0.3
	c-7.9,6.8-15.7,13.8-23.6,20.5c10.4,2.6,21.1,4.3,31.6,6.5c0,0.1,0.1,0.3,0,0.6L52,305.3l-1.4,1.6c8.1-2.3,15.9-4.3,23.8-6.4
	c-1.5,2.2-3.8,4-5.2,6.1c12-3.8,24.7-6.6,37.2-10c-3.9,7.7-8.2,15.5-12.3,23.3l25-6.8l-2.6,5.3l8.7-2.3c-1.4,5.4-3.5,10.6-4.9,16
	L110,364.7l0.8,0.5l31.4-30.9l0.7-0.2c-3.9,13.4-8.6,26.8-13.4,40c7.8-7.6,14.7-16.3,22.9-23.5l0.2,0.2c0.5,8.2,1.6,16.7,2.2,24.7
	l20.6-29.4l2.3-3l0.3,0.2l3,34.7c2.3-2.8,4.4-5.9,6.6-8.9c1.5-2.1,2.7-4.4,4.5-6.1c1.1,2.8,1.8,5.5,2.8,8.1l8.7-24.8
	c1.4-1.9,2.9-4.4,4.5-6.2c3.6,5.5,6.1,11.2,9.6,16.7l6.1,18c0.5-1.4,0.8-3.2,1.7-4.2l19.2,33.8c0.4,0.1,0.9-0.1,1.1-0.4l-2.5-51.9
	l0.2-0.7l25.4,45l9.4,19.7l0.3-0.3c-0.2-16.9-1.5-33.8-2.2-50.8l0.3-0.2l8.6,8l0.3,0l-10.6-37.3l0.3-0.1
	c15.2,13.7,30.1,27.4,45.3,41.1c0.2-0.1,0.1-0.4,0.1-0.5l-16.5-57.9l-0.2-1.6c11.9,4.4,23.1,8,34.6,12c1.5,0.4,2.9,1.3,4.4,1.3
	c-3.1-6.2-6.9-12-9.9-18.2c4.5,1.1,9,2.5,13.6,3.4l0.2-0.2l-8.3-12.8l0.1-0.2l39.7,10.5l5.2,1.2l-0.1-0.2l-28.7-44L344.5,253
	c7.4-1,14.5-2.3,21.9-3.2l0.3-0.5l-17.3-23.2l-0.2-0.9l34.2-13.9L399.1,205z M379.3,204.6l-4.6,2.2l-38,15.5l0.1,0.4
	c5.5,6.8,10.6,14,15.8,20.9c-0.8,0.1-1.5,0.3-2.3,0.4c0.3,0.4,0.5,0.7,0.8,1.1c-6.4,1.1-13,2-19.5,3l34.2,52.4l-0.1,0.2l-3.4-0.9
	l2,3.1l-0.1,0.2L313,289.5l-1.2-0.3l14.5,26.3l-4.4-1.5l2.3,4.3l-31-10.6l0.6,2.2l11.9,41.7l0,0.1c-1.5-1.2-3-2.5-4.5-3.8l2,7.1
	l0,0.1c-7.1-5.6-13.5-12.4-20.4-18.3c-5.2-4.9-11-10-16.5-15l0.9,15.1l2.2,43.6l-3.6-6.1l0.5,10.2L256.1,367l-23.4-41.5
	c-2.8,8.3-5.7,16.6-8.7,24.6l-1.1-3.3c-0.8,2.3-1.7,4.6-2.5,6.9l-10.1-30.5c-7.8,10.9-15.3,22.1-23.2,32.8l-0.1-1.7
	c-1.3,1.9-2.7,3.7-4,5.6l-4-46.2l-30.4,29.7l-0.2,0.2l0.2-0.9l-4.6,4.5l-0.2,0.2l0.6-2.5l13.9-44.4l0-0.1c-10,2.5-20.9,5.8-30.6,8.4
	l-0.1-0.6c5.4-9.4,10.2-18.9,15.4-28.2l-0.3-0.2l-53.7,14.8c3.1-3.9,6.9-7.5,10.4-11.3l24.6-26.2l0-0.3c-10.4-1.9-20.8-3.9-31.2-6.2
	l24.5-21.3l-0.1-0.3l-57-9.5l0.5-0.4l5.5-1.4l-0.6-0.1l0.5-0.4l47.8-12l0,0c-6.4-7.5-12.8-15-19-22.7c1.8-0.2,3.6-0.4,5.4-0.5
	c-0.2-0.2-0.4-0.4-0.5-0.7c7.2-0.8,14.6-1.2,21.9-1.8L91,142.4l0.1-0.2l4.5,1.5l2.1,0.6l-2-2.4l0.1-0.2l4.5,1.4l32.3,9.4l-5.5-30.8
	c1.1,0.1,1.7,0.9,2.9,1.2c0.6,0.2,1.2,0.5,1.7,0.8l-0.4-2c1.1,0.1,1.7,0.9,2.8,1.2c3.2,1.3,5.7,2.9,8.9,4.1
	c4.5,2.2,8.8,4.1,13.1,6.3l-16.2-44.9l-5.3-15l0.3-0.1c1.1,1.7,2.2,2.3,3.5,3.8c0.6,0.5,1.2,1.1,1.8,1.7l-1.6-4.6l0.3-0.1
	c1.1,1.7,2.2,2.3,3.5,3.8c3.5,3.2,6.7,6.9,9.9,9.7c10.3,9.8,20.8,19.9,31.3,30.3l2.7-32.9l0.2-0.3c1,1,1.9,2.1,2.9,3.1l0.2-2.1
	l0.2-0.3c7.4,7.9,15.2,15.5,22.3,23.3l11.5-43.1c1-3.8,2.1-7.6,3.1-11.1l0.7,2.6l0.7,2.9c0.4-1.4,0.8-2.8,1.2-4.1l0.7,2.6l12.3,50.1
	l1.2,5l29.2-41.5l2-2.9l0.1,1.1c-0.2,1.3-0.5,2.6-0.7,3.9l0.7-0.9l2-2.8l0.1,1.1c-3.3,17.5-6.2,34.8-9,52.4l37.4-33.5l0,0.8
	l-0.8,2.3l2.4-2.2l0.1,0.8l-15.4,44.1l19.5-5.4l0.3,0.2c-0.1,0.2-0.1,0.4-0.2,0.6l1.6-0.4l0.3,0.2c-2.1,7.1-4.5,14.2-6.6,21.3
	l62.2-20.8c0.8-0.4,1.8-0.6,2.7-0.9l-0.2,0.5l-0.4,0.4c0.5-0.1,1-0.3,1.5-0.4l-0.2,0.5l-45.8,46.7c0,0.2-0.4,0.1-0.2,0.3
	c0.7,0.7,1.5,0.8,2.4,1.4c11.2,4.6,24.2,11,36.5,16.3l15.2,6.8l-1.3,0.6L379.3,204.6z"/>
</svg>
