<?xml version="1.0" encoding="utf-8"?>
<!-- Generator: Adobe Illustrator 19.2.0, SVG Export Plug-In . SVG Version: 6.00 Build 0)  -->
<svg version="1.1" id="Capa_1" xmlns="http://www.w3.org/2000/svg" xmlns:xlink="http://www.w3.org/1999/xlink" x="0px" y="0px"
	 viewBox="0 0 425.2 425.2" style="enable-background:new 0 0 425.2 425.2;" xml:space="preserve">
<g>
	<path d="M344.8,243.3c0,0-0.1,0-0.1,0c0,0,0,0,0,0C344.7,243.3,344.8,243.3,344.8,243.3C344.8,243.3,344.8,243.3,344.8,243.3z"/>
	<path d="M331.8,210.2c3.2-17,32.3-36.6,52.9-46.1c-2.7,0-5.8,0-9.2-0.1c0.7-0.3,1.3-0.5,1.9-0.7c-2.1,0.3-4.7,0.5-7.6,0.5
		c-9.7-0.4-21.8-1.3-36.4-2.7c-23.6-2.2-40.4-10.4-49.8-24.5c-10-14.9-11.3-35.9-4.1-62.5c0-0.1,0.1-0.2,0.1-0.4
		c-0.6,0.6-1.2,1.1-1.8,1.7c-1.1,1-2.3,2-3.4,3c0.1-0.2,0.1-0.4,0.2-0.6c0.4-1.5,0.8-3,1.3-4.5c-4,4.3-8.4,8.3-13,11.8
		c-12.8,9.6-27.9,15.9-43.3,18.3c-4.3,0.6-8.7,0.9-13,0.9c-5.4,0-10.8-0.5-16.1-1.5c-24-4.5-45.5-23.7-57.7-42.6
		c-0.2-0.3-0.4-0.6-0.6-0.9c0,0.5,0,1,0,1.6c-0.2-0.4-0.4-0.8-0.6-1.1c0.2,1.2,0.4,2.5,0.6,3.7c-0.1,2.8-0.2,5.8-0.5,8.6
		c-0.2,2-0.4,3.8-0.6,5.2c-5.4,28.6-29.9,47.9-61,47.9c-4.9,0-10.1-0.5-15.2-1.4c-1.3-0.2-3-0.5-5-0.8c-1.1-0.3-2.2-0.6-3.3-1
		c0.6,0.2,1.2,0.5,1.8,0.7c-1.5-0.2-3.2-0.5-4.9-0.7c-0.6-0.1-1.2-0.2-1.9-0.3c4.2,2,8.2,4.5,12,7.4c14.6,11.2,24.3,28.2,20.7,47.1
		c-3.2,17.1-12.8,27.4-28,36.1c2-0.6,3.9-1.2,5.7-1.9c18.2-6.7,32.6-19.4,35.9-36.8c2.1-11.4-1.1-22.1-7.6-30.6c0,0,0,0,0,0
		c-4.6-6.1-10.9-11.2-18.1-14.5c0,0,0,0,0,0c-0.6-0.3-1.2-0.5-1.8-0.8c-0.1,0-0.2-0.1-0.2-0.1c-0.5-0.2-1-0.4-1.6-0.6c0,0,0,0,0,0
		c-1.4-0.4-2.9-0.9-4.3-1.4c-0.1,0-0.2-0.1-0.3-0.1c-0.3-0.1-0.5-0.1-0.8-0.2c-0.4-0.1-0.9-0.2-1.3-0.3l-0.9-0.6
		c0.5,0.2,1.1,0.4,1.6,0.6c0.5,0.2,1.1,0.4,1.6,0.6c0.1,0,0.2,0.1,0.4,0.1c0.5,0.1,1,0.3,1.4,0.4c0.2,0.1,0.4,0.1,0.6,0.2
		c0.5,0.2,1,0.3,1.5,0.5c0.1,0.1,0.3,0.1,0.4,0.2c0,0,0,0,0,0c0,0,0,0,0,0c3.3,1,6.7,1.9,10.1,2.5c1.3,0.2,2.6,0.4,3.8,0.5
		c0,0,0,0,0.1,0.1c31.9,4.1,58.9-14.3,63.6-39.3c1.1-5.8,0.9-11.5-0.4-17.6c10,17.6,31.4,34.4,53,38.4c28.4,5.2,58.9-4.5,79-25.4
		c-15.1,48.4,4.1,73.5,44.7,77.3c18.7,1.8,38.7,3.5,48.7,2.2c-17.1,6.1-46.8,22.4-49.7,38.1c-1.7,8.8,3.3,17.8,11.1,25.3
		c0,0,0,0,0.1,0c5.1,4.9,11.3,9.2,17.7,12.4c1.4,0.7,2.8,1.4,4.2,2c0,0,0.1,0,0.1,0c0.6,0.2,1.3,0.4,1.9,0.6
		c0.3,0.1,0.6,0.2,0.9,0.3c0.7,0.2,1.4,0.4,2.1,0.6c0.2,0.1,0.4,0.1,0.7,0.2c0.9,0.3,1.8,0.6,2.7,0.8c0.9,0.3,1.7,0.5,2.5,0.8
		c-0.8-0.1-1.6-0.3-2.4-0.5c-0.1,0-0.2-0.1-0.3-0.1c-2.6-0.7-5.4-1.6-8.1-2.8c-0.2-0.1-0.5-0.1-0.7-0.2c-0.6-0.2-1.2-0.4-1.8-0.5
		c0,0,0,0,0,0c-0.1,0-0.2,0-0.3-0.1c-2.6-0.7-5.1-1.3-7.5-1.8c-18.5-3.4-39.8-4.4-47.9,16.2c-3.8,9.7-1.7,27.2,2.2,37.8
		c0.5,1.1,1,2.3,1.4,3.4c-0.5-1-0.9-2.1-1.3-3.3c-1.4-3.1-3.2-6.1-5.2-9.1c0,0,0-0.1,0-0.1c0,0,0,0,0-0.1c0,0,0,0.1,0,0.1
		c-5.8-8.4-14.1-16.4-23.4-22.1c0,0-0.1,0-0.1-0.1c-0.9-0.5-1.8-1.1-2.7-1.6c-0.1-0.1-0.2-0.1-0.4-0.2c-0.8-0.4-1.6-0.9-2.5-1.3
		c-0.1,0-0.2-0.1-0.3-0.1c-0.9-0.4-1.7-0.8-2.6-1.2c-0.2-0.1-0.4-0.2-0.6-0.2c-0.8-0.3-1.6-0.7-2.5-1c-0.1,0-0.2-0.1-0.3-0.1
		c-0.9-0.3-1.8-0.6-2.6-0.9c-0.2-0.1-0.4-0.1-0.6-0.2c-0.9-0.3-1.8-0.5-2.7-0.7c-24-5.7-50.1,6.1-54.3,28.7c0-0.8,0-1.6,0-2.4
		c0-0.2,0-0.5,0-0.7c0-0.6,0-1.2-0.1-1.8c0-0.2,0-0.3,0-0.5c-0.1-0.7-0.1-1.4-0.2-2.2c0,0,0,0,0,0c-0.5-4.1-1.4-8.1-2.7-11.8
		c0,0,0,0,0,0c-1.7-4.8-4-9.3-6.8-13.2c0,0,0,0.1,0.1,0.1c-4.8-6.5-11-11.4-18.3-13.7c0,0,0,0,0,0c-0.5-0.2-1.1-0.3-1.7-0.5
		c-0.1,0-0.3-0.1-0.4-0.1c-0.4-0.1-0.9-0.2-1.3-0.3c-0.6-0.1-1.2-0.2-1.8-0.3c-18.1-2.4-39.7,15.5-50.8,27.1
		c2.1-2.7,3.8-6.1,4.4-9.4c0.7-3.5,0.9-7.5,0.6-11.6c0,0,0,0,0,0c-0.7-12.4-5.8-25.8-16-31c-6.8-3.5-19.9-4.2-43.6-0.5
		c-1.2,0.2-2.4,0.4-3.7,0.6c-3.9,2.2-8.3,4.4-12.9,6.5c-1.5,0.5-3.1,0.9-4.6,1.3c1-0.2,2-0.4,3-0.6c-3,1.3-6.2,2.7-9.4,4.1
		c16.5-1,29.8-1.7,40.2-1.7c12.1,0,19.5,1,24,3.3c5.2,2.7,9,6.7,11.4,12.1c1.8,5.2,2.8,10.8,3.1,16.3c0.1,4.7-0.4,10-1.3,15.9
		c-0.1,0.5-0.3,0.9-0.4,1.4c-0.9,2.6-2.3,5.1-4,7.3c1-1.1,2.1-2.3,3.3-3.5c0.1-0.1,0.1-0.1,0.2-0.2c-0.4,2-0.9,4.3-1.5,6.6
		c-0.3,1.1-0.5,2.2-0.8,3.2c0.1-0.1,0.1-0.1,0.1-0.2c21.7-21.9,39.7-33.1,53.7-33.1c1.1,0,2.2,0.1,3.3,0.2
		c9.7,1.3,17.5,7.4,23.3,16.2c4.4,6.6,7.7,14.8,9.8,23.5c0.4,3.1,0.5,6.3,0.5,9.6c0.2-1.2,0.5-2.3,0.8-3.4c0.6,3.2,1,6.5,1.2,9.8
		c0.7-1.7,1.4-3.3,2.2-4.9c9.2-17.9,28.1-30.9,47.5-30.9c3.5,0,7.1,0.4,10.5,1.2c6.7,1.6,13.3,5.1,19.4,9.8
		c12.9,9.8,24,24.7,31.1,37.9c-0.3-2.8-0.6-5.8-0.7-8.9c-0.7-14.3,0.6-30.3,3.6-38c7.2-18.2,22.3-20.4,33-20.4
		c6.4,0,12.7,0.8,18.8,1.7l3,0.4c1.4,0.2,3.4,0.4,5.8,0.7c5.2,0.6,12.2,1.5,18.9,2.4C357.1,248,328.2,229.3,331.8,210.2z"/>
	<path d="M19.1,222.3c1.4-0.2,2.9-0.5,4.3-0.8c1.5-0.3,3-0.7,4.5-1c-1.3,0.3-2.6,0.5-4,0.8C22.4,221.6,20.8,221.9,19.1,222.3z"/>
	<path d="M39.2,119.6L39.2,119.6L39.2,119.6c0.9,0.2,1.8,0.4,2.6,0.7c-1.2-0.4-2.4-0.9-3.6-1.4L39.2,119.6z"/>
	<path d="M46.5,121.9c-1.5-0.6-3.1-1.1-4.7-1.6C43.4,120.9,45,121.4,46.5,121.9z"/>
	<path d="M310,119.7l3.1,2.8c0,0,1.9-2.3,4.8-5.8c1.4-1.7,3.2-3.7,4.8-6c1.7-2.3,3.5-4.7,5.3-7.1c7-9.8,13.6-19.9,13.6-19.9
		s-7.5,9.4-15.2,18.6c-2,2.2-4,4.4-5.8,6.5c-1.8,2.1-3.7,4-5.3,5.6C312.1,117.6,310,119.7,310,119.7z"/>
	<polygon points="319.1,133 359.5,104.4 316.8,129.5 	"/>
	<polygon points="319,79.4 300.4,112.6 304.2,114.5 	"/>
	<path d="M60.8,265.6c3.4-3,5.7-4.9,5.7-4.9l-2.9-3c0,0-2.1,2.2-5.2,5.4c-1.6,1.6-3.4,3.5-5.3,5.7c-1.9,2.1-3.9,4.4-5.8,6.7
		c-7.7,9.3-15,18.8-15,18.8s8.2-8.9,16.6-17.4c2.1-2.1,4.3-4.1,6.3-6.1C57.1,268.8,59.1,267.1,60.8,265.6z"/>
	<polygon points="58.4,246.8 16,272.4 60.4,250.4 	"/>
	<polygon points="75.5,268.5 71.9,266.4 54.6,300.2 	"/>
	<path d="M247.1,314.5c-1.2-2.5-2.1-5-2.9-7.1c-1.7-4.2-2.7-7-2.7-7l-3.8,1.7c0,0,1.3,2.7,3.3,6.7c1,2,2.1,4.4,3.6,6.9
		c1.4,2.5,2.9,5.1,4.4,7.8c6.2,10.4,12.7,20.5,12.7,20.5s-5.6-10.7-10.8-21.4C249.5,319.8,248.2,317.1,247.1,314.5z"/>
	<polygon points="225.6,303.5 235.4,352 229.7,302.8 	"/>
	<polygon points="248.6,297.3 274.6,325 251.8,294.6 	"/>
	<polygon points="138.7,305.6 133,309.9 126.2,307.7 128.6,314.4 124.3,320.2 131.5,320.1 135.7,325.9 137.8,319 144.6,316.8 
		138.7,312.8 	"/>
	<polygon points="388.3,143.5 393.2,150.3 395.6,142.2 403.6,139.7 396.7,134.9 396.8,126.6 390.1,131.6 382.2,129 384.9,136.9 
		380,143.6 	"/>
	<polygon points="407.7,301.7 398.1,300.9 393.2,292.5 389.5,301.5 380,303.5 387.4,309.8 386.4,319.4 394.7,314.3 403.5,318.3 
		401.3,308.9 	"/>
	<path d="M104.2,336.6c0,0-0.6-0.1-1.6-0.3c-0.5-0.1-1.1-0.1-1.8-0.3c-0.6-0.3-1.2-0.6-1.9-0.8c-0.7-0.3-1.3-0.9-2.1-1.3
		c-0.8-0.4-1.2-1.2-2-1.7l-0.2-0.2c0,0,0,0,0,0l-0.1-0.1c-0.1-0.2-0.3-0.5-0.4-0.6l-0.5-1.1c-0.4-0.8-0.7-1.8-0.9-2.8
		c-1-3.9-1.2-8.2-0.6-11.2c0.3-1.5,0.9-2.7,1.4-3.5c0.6-0.8,0.9-1.3,0.9-1.3s-0.1,0.1-0.4,0.2c0.2-0.3,0.3-0.5,0.3-0.5
		s-2.2,1.3-5.1,3.6c-0.7,0.5-1.6,1.4-2.3,1.8c-0.9,0.6-1.8,1.2-2.8,1.9c-0.9,0.6-1.9,0.8-2.8,1.3c-0.9,0.4-2,0.5-3,0.8
		c-1,0-2.1,0.2-3.1,0.1c-1-0.2-2.1-0.2-3-0.6c-1-0.2-1.9-0.7-2.7-1.1c-0.4-0.2-0.8-0.5-1.1-0.7c-0.2-0.1-0.5-0.3-0.5-0.3l-0.5-0.5
		c-0.3-0.3-0.6-0.5-0.8-0.7c-0.1-0.2-0.2-0.5-0.3-0.7c-1-1.7-1.6-2.6-1.6-2.6s0.1,0.3,0.2,0.8c0,0-0.1-0.1-0.1-0.1
		c-0.4-1-0.6-1.6-0.6-1.6s-0.1,0.6-0.2,1.8c0,0.6,0.1,1.3,0.3,2.1c0.3,0.8,0.7,1.8,1.2,2.5l0.4,0.6c-0.2,1.2-0.2,2.6-0.8,4
		c-0.4,1.5-1.2,2.9-2,4.4c-0.5,0.7-1,1.5-1.5,2.2c-0.6,0.7-1.2,1.4-1.7,2.1c-0.6,0.7-1.4,1.4-2.1,2.2c-0.7,0.7-1.5,1.3-2.2,2
		c-0.8,0.7-1.6,1.4-2.3,2c-0.4,0.4-1,0.8-1.5,1.1c-0.1,0.1-0.2,0.1-0.4,0.2c-0.2,0.1-0.3,0.2-0.6,0.3c-0.1,0-0.3,0.2-0.5,0.4
		c0.1-0.1-0.4,0.2-0.6,1.1c-0.3,1,0.5,2,0.8,2.1c0.5,0.3,0.8,0.3,1.2,0.4c1.1-0.1,0.7-0.2,0.9-0.2c0.4-0.2,0.8-0.4,1.1-0.6
		c0.4-0.1,0.8-0.3,1.2-0.3c0.8-0.2,1.7-0.2,2.6-0.1c1.7,0.2,3.4,0.8,5,1.8c1.5,0.9,3,2.2,4.1,3.4c0.7,0.6,1.1,1.2,1.5,1.9
		c0.5,0.6,0.7,1.3,1,1.9c0.7,1.8,0.4,3.7,0.1,5.2c-0.2,0.2-0.3,0.4-0.5,0.7c-0.3,0.6-0.6,1.2-0.9,1.7c-0.2,0.6-0.3,1.1-0.4,1.6
		c-0.2,0.9-0.2,1.3-0.2,1.3s0.3-0.3,0.9-0.9c0.3-0.3,0.6-0.6,0.9-1c0.5-0.3,1-0.7,1.5-1.2c0.3-0.3,1.1-0.6,1.7-0.9
		c0.6-0.4,1.2-0.6,2-0.9c0.7-0.3,1.4-0.5,2.2-0.7c0.8-0.1,1.5-0.5,2.3-0.4c0.8-0.1,1.6-0.2,2.4-0.2c0.8,0.1,1.6,0,2.4,0
		c0.7,0.1,1.5,0.2,2.2,0.3c0.7,0,1.3,0.3,1.9,0.4c0.6,0.2,1.2,0.2,1.7,0.4c0.3,0.1,0.6,0.2,0.9,0.3c0.1,0.1,0.2,0.1,0.2,0.2
		c0.8,0.4,1.3,0.6,1.3,0.6s-0.1-0.1-0.2-0.3c0.3,0.1,0.4,0.1,0.4,0.1s-0.3-0.4-0.8-1.1c-0.1-0.2-0.3-0.4-0.5-0.6
		c-0.1-0.2-0.2-0.5-0.3-0.7c-0.3-0.5-0.4-1.1-0.6-1.8c-0.2-0.6-0.2-1.3-0.2-2c-0.1-0.7,0.2-1.5,0.2-2.2c0.4-1.5,0.9-3.1,1.8-4.4
		l0.6-1l0.9-1.1l0.5-0.6l0.1-0.1l0,0l0,0l0.2-0.2l0.9-0.8c0.6-0.6,1.2-1,1.8-1.4c0.6-0.4,1.2-0.8,1.8-1c0.6-0.2,1.1-0.5,1.7-0.7
		c0.6,0,1.1-0.1,1.6-0.2c0.9-0.1,1.4-0.2,1.4-0.2s-0.4-0.2-1.1-0.5c0.3-0.1,0.6-0.2,0.9-0.3C103.6,336.8,104.2,336.6,104.2,336.6z
		 M95.1,337.1c-0.9,0.3-1.9,0.6-2.8,1.3l-1.3,0.9l-0.3,0.2l-0.1,0.1l0,0l-0.1,0.1l0,0l-0.1,0.1l-0.5,0.5l-1,1.1l-1,1.5
		c-0.7,1-1,2.1-1.4,3.1c-0.3,1.1-0.5,2.2-0.6,3.3c0,1.1,0,2.1,0.4,3.1c0.1,0.4,0.2,0.8,0.4,1.2c-0.1,0-0.2-0.1-0.3-0.1
		c-0.8-0.3-1.6-0.7-2.5-0.9c-0.9-0.1-1.9-0.3-2.9-0.4c-1-0.1-2,0.1-3,0.1c-1,0-2,0.5-2.9,0.7c-1,0.2-1.8,0.8-2.7,1.2
		c-0.4,0.2-0.9,0.5-1.2,0.8c0.3-1.1,0.4-2.4,0.2-3.7c-0.2-0.9-0.4-1.9-0.9-2.7c-0.4-0.9-0.9-1.8-1.5-2.5c-1.2-1.7-2.6-3.1-4.4-4.5
		c-1.6-1.2-3.6-2.2-5.7-2.6c0.6-0.6,1.2-1.1,1.8-1.9c0.7-0.8,1.4-1.5,2-2.4c0.6-0.9,1.3-1.8,1.9-2.6c0.5-0.9,0.9-1.8,1.4-2.7
		c0.8-1.8,1.4-3.6,1.6-5.4c0.2-0.9,0.2-1.9,0.2-2.7c0,0,0.1,0.1,0.1,0.1c1,0.7,1.9,1.5,3.2,2c1.2,0.6,2.5,1,3.9,1.2
		c1.4,0.3,2.8,0.1,4.2,0.1c1.4-0.4,2.8-0.6,4-1.2c1.2-0.7,2.6-1.4,3.5-2.1c0.7-0.6,1.3-1.2,1.9-1.8c-0.1,0.6-0.2,1.2-0.3,1.9
		c-0.2,2.3,0,4.7,0.6,7.1c0.4,1.2,0.7,2.3,1.3,3.5c0.2,0.5,0.7,1.2,1.1,1.8c0.2,0.3,0.4,0.4,0.6,0.6l0.1,0.1
		c0.2,0.3,0.2,0.2,0.3,0.3l0.4,0.3c1,0.7,1.9,1.5,3,1.8c0.2,0.1,0.4,0.1,0.5,0.2C95.7,336.9,95.4,337,95.1,337.1z"/>
</g>
<path d="M367.9,210.1C367.9,210.1,367.9,210.1,367.9,210.1L367.9,210.1L367.9,210.1z"/>
<path d="M360,210.1C360,210.1,360,210.1,360,210.1C360,210,360,210,360,210.1L360,210.1z"/>
</svg>
