<?xml version="1.0" encoding="utf-8"?>
<!-- Generator: Adobe Illustrator 19.2.0, SVG Export Plug-In . SVG Version: 6.00 Build 0)  -->
<svg version="1.1" id="Capa_1" xmlns="http://www.w3.org/2000/svg" xmlns:xlink="http://www.w3.org/1999/xlink" x="0px" y="0px"
	 viewBox="0 0 425.2 425.2" style="enable-background:new 0 0 425.2 425.2;" xml:space="preserve">
<g>
	<path d="M43.5,138.7c-0.3-0.7-0.8-1.3-1.4-1.6c-0.5-0.4-1.1-0.6-1.5-0.7c-0.2,0-0.3-0.1-0.4-0.1c0.1-0.1,0.2-0.3,0.3-0.5
		c0.3-0.4,0.5-1,0.6-1.7c0-0.3,0-0.7-0.1-1.1c-0.1-0.4-0.3-0.7-0.5-1.1c-0.2-0.3-0.5-0.6-0.9-0.8c-0.4-0.2-0.7-0.2-1.1-0.3
		c-0.7,0-1.3,0.2-1.8,0.3c-0.2,0.1-0.3,0.1-0.5,0.2c-0.2-0.4-0.4-0.7-0.8-1.1c-0.4-0.4-1.1-0.7-1.8-0.8c-0.7-0.1-1.4,0-1.9,0.3
		c-0.2,0.1-0.4,0.2-0.5,0.3c-0.3,0.2-0.5,0.4-0.7,0.6c0,0,0,0,0,0.1c-0.1,0.1-0.2,0.2-0.2,0.4c-0.1-0.2-0.3-0.3-0.5-0.5
		c-0.3-0.2-0.7-0.4-1.2-0.5c-0.5-0.1-1,0-1.6,0.2c-0.5,0.2-1,0.7-1.4,1.2c-0.8,1-1.3,2.4-1.6,3.8c-0.1,0.7-0.2,1.4-0.2,2.1
		c0,0.7,0.1,1.4,0.3,2c0.2,0.6,0.5,1.1,0.9,1.6c0.4,0.4,0.8,0.8,1.2,1.1c0.4,0.3,0.9,0.5,1.2,0.7c-0.2,0.5-0.3,1.1-0.3,1.8
		c0,0.7,0.1,1.6,0.5,2.4c0.4,0.8,0.9,1.4,1.5,1.9c0.6,0.4,1.3,0.6,1.9,0.6c0,0,0,0,0,0c0.1,0,0.3,0,0.4,0c0,0,0,0,0.1,0
		c0,0,0.1,0,0.1,0c0.1,0,0.3-0.1,0.4-0.1c0,0.3,0.1,0.7,0.3,1.1c0.1,0.2,0.3,0.5,0.5,0.7c0.2,0.2,0.5,0.4,0.9,0.6
		c0.3,0.1,0.7,0.2,1.1,0.2s0.8,0,1.2-0.1c0.8-0.2,1.5-0.6,2-1.1c0.5-0.5,0.8-1.1,0.9-1.6c0.2-0.5,0.2-0.9,0.2-1.1c0.2,0,0.4,0,0.7,0
		c0.5,0,1-0.1,1.6-0.4c0.6-0.2,1.2-0.7,1.6-1.3c0.2-0.3,0.3-0.7,0.4-1c0.1-0.4,0.1-0.7,0-1c-0.1-0.6-0.3-1.2-0.6-1.6
		c-0.1-0.2-0.3-0.4-0.4-0.6c0.1-0.2,0.7-0.9,0.9-1.4C43.7,140.2,43.8,139.4,43.5,138.7z M43.2,140.7c-0.2,0.5-0.4,1-0.7,1.3
		c-0.2-0.3-0.4-0.5-0.4-0.5s0.4,0.5,0.8,1.3c0.2,0.4,0.4,0.9,0.4,1.5c0.1,0.6-0.1,1.2-0.4,1.8c-0.4,0.6-0.9,1-1.4,1.2
		c-0.5,0.3-1.1,0.4-1.5,0.5c-0.9,0.1-1.5,0.1-1.5,0.1c0,0,0.3,0.1,0.8,0.1c0,0.1-0.1,0.4-0.4,1.1c-0.2,0.5-0.5,1-1,1.5
		c-0.5,0.5-1.1,0.8-1.9,1c-0.7,0.1-1.5,0.1-2.1-0.1c-0.6-0.2-1.1-0.6-1.3-1.1c-0.2-0.4-0.3-0.8-0.3-1.1c0,0,0,0,0,0h0
		c0.1,0,0.2-0.1,0.3-0.1c0.3-0.1,0.4-0.2,0.4-0.2s-0.2,0.1-0.4,0.2c-0.3,0.1-0.7,0.2-1.3,0.1c-0.5,0-1.2-0.3-1.7-0.7
		c-0.5-0.4-1-1.1-1.4-1.8c-0.4-0.7-0.5-1.5-0.5-2.2c0-0.7,0.1-1.4,0.2-1.9c0.3-1.1,0.6-1.7,0.6-1.7s-0.4,0.5-0.7,1.6c0,0,0,0,0,0
		c0,0-0.1,0-0.1-0.1c-0.3-0.2-0.7-0.4-1-0.6c-0.7-0.6-1.5-1.4-1.9-2.6c-0.2-0.6-0.3-1.2-0.3-1.9c0-0.7,0.1-1.3,0.2-2
		c0.3-1.4,0.7-2.7,1.5-3.7c0.4-0.5,0.8-0.9,1.3-1.1c0.5-0.3,1-0.3,1.4-0.3c0.5,0,0.8,0.2,1.2,0.4c0.2,0.2,0.4,0.3,0.6,0.5
		c0,0,0.1,0.1,0.1,0.1c0.3,0.4,0.5,0.7,0.5,0.7c0,0-0.1-0.3-0.4-0.7c0,0-0.1-0.1-0.1-0.1c0.1-0.1,0.2-0.2,0.3-0.3
		c0.3-0.3,0.7-0.6,1.2-0.8c0.5-0.2,1.1-0.3,1.8-0.2c0.6,0.1,1.2,0.3,1.6,0.7c0.3,0.3,0.6,0.6,0.8,0.9c-0.5,0.3-0.8,0.5-0.8,0.5
		s0.3-0.2,0.9-0.4c0,0,0,0,0,0c0,0,0,0,0.1,0c0.2-0.1,0.3-0.1,0.5-0.2c0.5-0.1,1.1-0.3,1.7-0.2c0.3,0,0.6,0.1,0.9,0.3
		c0.3,0.2,0.6,0.4,0.8,0.7c0.2,0.3,0.4,0.6,0.4,1c0.1,0.3,0.1,0.7,0.1,1c0,0.6-0.3,1.2-0.5,1.6c-0.5,0.9-0.9,1.3-0.9,1.3
		c0,0,0.1-0.1,0.3-0.3c0.1-0.1,0.2-0.2,0.3-0.4c0.1,0.1,0.3,0.1,0.5,0.2c0.4,0.2,0.9,0.4,1.4,0.8c0.5,0.4,1,0.8,1.2,1.5
		C43.4,139.5,43.4,140.2,43.2,140.7z"/>
	<path d="M36.9,139c0.1-0.2,0.2-0.4,0.2-0.5c0.2,0.1,0.4,0.1,0.5,0.2c0.3,0.1,0.5,0,0.5,0c0,0-0.2,0-0.5-0.2
		c-0.3-0.1-0.6-0.4-0.9-0.7c-0.1-0.1-0.1-0.2-0.2-0.3c-0.1-0.1-0.1-0.1-0.1-0.2c-0.1-0.2-0.1-0.3-0.1-0.5c0-0.3,0-0.5,0-0.5s0,0,0,0
		c0,0.1-0.1,0.2-0.1,0.5c0,0.2-0.1,0.4,0,0.6c0,0.1,0.1,0.2,0.1,0.3c0.1,0.1,0.1,0.2,0.2,0.3c0.2,0.2,0.4,0.3,0.5,0.4
		c-0.1,0.1-0.2,0.3-0.3,0.5c-0.1,0.2-0.3,0.5-0.4,0.9c-0.1,0.3-0.2,0.8-0.1,1.2c0.1,0.4,0.3,0.8,0.5,1.1c0.2,0.3,0.4,0.5,0.6,0.7
		c0.1,0.1,0.2,0.2,0.3,0.2c0,0,0,0,0,0c-0.2,0-0.5,0-0.8,0c-0.3,0-0.7,0.2-0.9,0.4c-0.3,0.2-0.5,0.5-0.6,0.8
		c-0.1,0.2-0.1,0.3-0.2,0.5c0,0,0,0,0-0.1c-0.1-0.3-0.2-0.7-0.5-1.1c-0.2-0.4-0.5-0.8-1-1c-0.4-0.3-0.8-0.5-1.3-0.6
		c-0.4-0.1-0.8-0.2-1.1-0.3c-0.1,0-0.2,0-0.3-0.1c0-0.1,0.1-0.1,0.2-0.2c0.2-0.2,0.4-0.5,0.6-0.9c0.2-0.4,0.4-0.8,0.4-1.3
		c0-0.5,0-0.9-0.1-1.3c-0.1-0.4-0.2-0.7-0.3-1c0,0,0,0,0,0c0.1,0.1,0.1,0.1,0.2,0.2c0.5,0.3,1.2,0.4,2,0.3c0.8-0.1,1.5-0.4,1.9-0.7
		c0.2-0.2,0.3-0.3,0.4-0.5c0,0,0,0,0,0c0.1-0.1,0.1-0.2,0.1-0.2c0,0-0.2,0.3-0.6,0.6c-0.3,0.2-0.8,0.3-1.3,0.4c0,0-0.1,0-0.1,0
		c-0.1,0-0.3,0-0.4,0.1c-0.8,0.1-1.5,0-1.9-0.1c-0.5-0.2-0.7-0.4-0.7-0.4s0.1,0.1,0.2,0.2c0,0,0,0,0,0c0,0,0,0,0,0
		c0,0.1,0,0.1,0,0.2c0,0.3,0.1,0.6,0.2,1c0,0.4,0.1,0.8,0.1,1.2c0,0.4-0.2,0.8-0.3,1.2c-0.2,0.3-0.3,0.6-0.5,0.9
		c-0.1,0.1-0.1,0.2-0.2,0.3c-0.4-0.1-0.6-0.1-0.6-0.1s0.4,0.1,1,0.3c0.6,0.2,1.4,0.5,2.2,1.1c0.8,0.5,1.2,1.3,1.5,1.9
		c0,0.1,0.1,0.2,0.1,0.3c0,0,0,0,0,0c-0.1,0.5,0,0.7,0,0.7s0.1-0.3,0.2-0.7c0.2-0.4,0.4-1,0.9-1.3c0.2-0.2,0.5-0.3,0.8-0.4
		c0.3-0.1,0.5-0.1,0.7-0.1c0.1,0,0.1,0,0.2,0c0,0,0,0,0,0c0,0,0,0,0,0c0.1,0.1,0.2,0.2,0.2,0.2c0,0-0.2-0.3-0.5-0.7
		c-0.1-0.2-0.3-0.5-0.5-0.8c-0.2-0.3-0.3-0.6-0.4-1c-0.1-0.4,0-0.7,0-1.1C36.7,139.5,36.8,139.2,36.9,139z"/>
	<path d="M32,133.1c0.7-0.2,1.5,0.3,1.5,0.3s-0.8-0.8-1.6-0.6c-0.9,0.3-1.1,1.3-1.1,1.3S31.1,133.3,32,133.1z"/>
	<path d="M34.6,148.4c-0.6-0.1-1.1-0.5-1.4-0.7c-0.3-0.3-0.4-0.5-0.4-0.5s0.1,0.3,0.3,0.6c0.1,0.2,0.3,0.4,0.5,0.6
		c0.2,0.2,0.5,0.3,0.9,0.4c0.4,0.1,0.7,0,1-0.1c0.3-0.1,0.5-0.3,0.7-0.4c0.3-0.3,0.4-0.6,0.4-0.6c0,0-0.2,0.2-0.5,0.4
		C35.7,148.3,35.2,148.5,34.6,148.4z"/>
	<path d="M40.2,144.4c0,0,0.1,0.1,0.1,0.3c0,0.2,0.1,0.5-0.1,0.8c-0.2,0.3-0.4,0.4-0.6,0.5c-0.2,0.1-0.3,0.1-0.3,0.1s0.1,0,0.4,0
		c0.1,0,0.3-0.1,0.4-0.2c0.1-0.1,0.3-0.2,0.4-0.4c0.1-0.2,0.1-0.4,0.1-0.5c0-0.2-0.1-0.3-0.1-0.4C40.3,144.5,40.2,144.4,40.2,144.4z
		"/>
	<path d="M28.4,139.6c-0.1-0.3,0-0.6,0-0.8c0.1-0.2,0.1-0.3,0.1-0.3s-0.1,0.1-0.2,0.3c-0.1,0.1-0.1,0.2-0.2,0.4c0,0.2,0,0.3,0,0.5
		c0.1,0.2,0.2,0.3,0.3,0.5c0.1,0.1,0.3,0.2,0.4,0.2c0.2,0.1,0.4,0.1,0.4,0.1c0,0-0.1,0-0.3-0.2C28.7,140.1,28.5,139.9,28.4,139.6z"
		/>
	<path d="M40.6,139.3c-0.1-0.1-0.3-0.2-0.4-0.3c-0.3-0.1-0.5-0.1-0.5-0.1c0,0,0.2,0.1,0.4,0.2c0.2,0.2,0.5,0.4,0.6,0.8
		c0.1,0.4,0,0.8-0.1,1c-0.1,0.3-0.2,0.4-0.2,0.4c0,0,0.1-0.1,0.3-0.3c0.1-0.1,0.2-0.3,0.2-0.5c0.1-0.2,0.1-0.4,0-0.7
		C40.8,139.6,40.7,139.4,40.6,139.3z"/>
	<path d="M38.5,133.4c-0.1-0.1-0.3-0.2-0.4-0.3c-0.1,0-0.3-0.1-0.4,0c-0.2,0-0.3,0.1-0.3,0.1c0,0,0.1,0,0.3,0c0.2,0,0.5,0.1,0.7,0.4
		c0.2,0.2,0.2,0.5,0.3,0.7c0,0.2,0,0.3,0,0.3s0.1-0.1,0.1-0.3c0-0.1,0-0.2,0-0.4C38.7,133.7,38.6,133.5,38.5,133.4z"/>
	<path d="M398.1,276.4l-38.5-27.8c-0.6-0.4-1-1.1-1.1-1.7c-0.1-0.7,0.1-1.4,0.6-1.9l25.5-29.9c1.2-1.4,1.7-3.2,1.3-4.9
		c-0.4-1.7-1.6-3-3.3-3.8L342.6,189c-1.8-0.8-3.3-3.1-3.4-5l-1.1-54.5c-0.1-2.5-1.4-4.4-3.5-5c-1.2-0.3-2.4-0.2-3.7,0.3l-63.3,26.8
		c-0.9,0.4-2.2,0.4-3.4,0.1c-0.9-0.3-1.7-0.7-2.2-1.3l-23.6-25.1c-0.9-1-2.2-1.7-3.6-2.1c-2.2-0.6-4.5-0.3-6.3,0.8l-22.5,13.6
		c-1.4,0.8-3.7,1.1-5.5,0.6c-0.4-0.1-0.7-0.2-1-0.4l-44.7-23.7c-1.9-1-3.9-1-5.3,0.1c-1.2,0.9-1.9,2.4-1.9,4.1l-0.8,51
		c0,1.8-1.6,3.9-3.3,4.5l-45.3,14.1c-1.8,0.6-3.2,1.8-3.7,3.4c-0.5,1.6-0.1,3.4,1,4.9l26.9,34.8c1.2,1.5,1.4,4.3,0.5,5.9l-21.4,38.7
		c-0.9,1.6-1,3.5-0.4,5.1c0.6,1.6,2,2.9,3.8,3.4l49.1,16.1c2,0.7,4.4,2.9,5.1,4.9l13.5,35.7c0.7,1.8,2.1,3.2,3.9,3.7
		c1.6,0.4,3.3,0.2,4.8-0.8l37.7-23.6c0.8-0.5,2-0.7,3-0.4c0.7,0.2,1.3,0.6,1.8,1.1l25.5,29.5c0.9,1,2,1.7,3.2,2
		c2.2,0.6,4.6,0,6.3-1.6l9.8-9.5c2.1,1.6,6.5,7.1,1.4,22.8c-6.9,21.1-34.4,50.1-34.6,50.4l-6.7,7l8.9-3.9c2-0.9,48.6-21.7,64.3-50.1
		c8.3-14.9,11.6-23.3,12.7-27.9l11.2,5.2c0.3,0.2,0.7,0.3,1,0.4c1.6,0.4,3.1,0.2,4.3-0.6c1.3-0.9,2.1-2.3,2.4-4l0.4-3.4
		c1.9,0.5,6.5,2.1,10.5,5.8c5,4.7,6,9.3,6,9.3s-1-4.9-4.7-9.8c-2.9-3.8-9.4-5.1-11.8-5.4l4.1-32.3c0.2-1.9,2.1-4,3.9-4.5l55.1-16.1
		c2-0.6,3.2-1.8,3.5-3.3C400.6,279.2,399.8,277.6,398.1,276.4z M395.7,280.3l-55.1,16.1c-3.3,1-6.2,4.4-6.6,7.8l-4.6,35.8
		c-0.1,0.6-0.3,1.1-0.7,1.3c-0.4,0.3-0.8,0.2-1.2,0.1c-0.1,0-0.3-0.1-0.4-0.2l-15.8-7.4l-0.3,2.6c-0.4,2.9-2.5,10.5-12.8,29.1
		c-11,19.9-39.1,36.5-53.5,44.1c8.8-10.2,23.7-29,28.8-44.4c5.8-17.7,0.4-24.6-2.8-27.1l5.3-9.7l-20.1,19.5
		c-0.7,0.7-1.6,0.9-2.5,0.7c-0.5-0.1-0.9-0.4-1.3-0.8l-25.5-29.5c-0.9-1.1-2.2-1.9-3.6-2.3c-2.1-0.6-4.3-0.3-6.1,0.8l-37.7,23.6
		c-1.2,0.7-2.5,0.3-3-1l-13.5-35.7c-1.1-3-4.4-6.2-7.5-7.2L106,280.3c-0.7-0.2-1.1-0.6-1.4-1.2c-0.2-0.5-0.1-1.2,0.2-1.8l21.4-38.7
		c1.7-3,1.3-7.5-0.8-10.2l-26.9-34.8c-0.4-0.5-0.5-1-0.4-1.4c0.1-0.4,0.5-0.7,1.1-0.9l45.3-14.1c3.3-1,6-4.6,6.1-8.1l0.8-51
		c0-0.6,0.2-1,0.3-1.1c0.2-0.1,0.5-0.1,0.6,0c0.2,0,0.3,0.1,0.5,0.2l44.7,23.7c0.5,0.3,1.1,0.5,1.7,0.7c2.8,0.8,6.3,0.4,8.6-1
		l22.5-13.6c0.9-0.5,2.1-0.7,3.3-0.3c0.7,0.2,1.3,0.6,1.8,1l23.6,25.1c1,1.1,2.4,1.9,4,2.3c2,0.6,4.2,0.5,5.9-0.3l63.3-26.8
		c0.4-0.2,0.9-0.2,1.2-0.2c0.6,0.2,0.7,1,0.7,1.4l1.1,54.5c0.1,3.4,2.6,7.1,5.7,8.5l40.1,17.4c0.6,0.3,1,0.7,1.1,1.1
		c0.1,0.4-0.1,1-0.5,1.5l-25.5,29.9c-1.2,1.4-1.7,3.1-1.5,4.9c0.2,1.8,1.2,3.3,2.6,4.4l38.5,27.8c0.3,0.2,0.4,0.4,0.5,0.5
		C396.3,280.1,396.1,280.2,395.7,280.3z"/>
	<path d="M81.5,142.7c0.8-0.4,1.6-0.9,2.2-1.7c0.6-0.8,1-1.6,1.4-2.4c0.3-0.8,0.6-1.5,0.8-2.1c0,0,0,0,0,0c0.1,0.2,0.1,0.3,0.2,0.5
		c0.5,1,1.6,2.2,3.1,3c1.5,0.8,3,1.2,4.2,1.1c0.5-0.1,0.9-0.2,1.2-0.3c0,0,0,0,0.1,0c0.3-0.1,0.4-0.3,0.4-0.3c0,0-0.6,0.3-1.7,0.2
		c-1-0.1-2.4-0.6-3.8-1.4c-1.4-0.8-2.5-1.7-3.1-2.6c-0.6-0.8-0.7-1.5-0.7-1.5c0,0,0,0.2,0,0.6c0,0,0,0,0,0c0,0,0,0,0,0.1
		c-0.1,0.1-0.1,0.3-0.2,0.4c-0.3,0.6-0.6,1.2-1,1.9c-0.4,0.7-0.8,1.5-1.4,2.2c-0.5,0.7-1.2,1.2-1.9,1.6c-0.7,0.4-1.3,0.7-1.9,0.9
		c-0.2,0.1-0.4,0.2-0.6,0.2c-0.5-0.5-0.9-0.8-0.9-0.8s0.5,0.6,1.3,1.7c0.7,1.1,1.8,2.6,2.4,4.4c0.6,1.8,0.5,3.6,0.2,4.9
		c-0.1,0.2-0.1,0.4-0.1,0.7c0,0,0,0,0,0c-0.7,0.7-0.9,1.2-0.9,1.2c0,0,0.4-0.4,1.2-0.9c0.8-0.5,1.9-1.1,3.2-1.2
		c0.6,0,1.2,0.1,1.8,0.3c0.5,0.2,1,0.4,1.4,0.6c0.1,0.1,0.2,0.1,0.3,0.2c0,0,0,0,0.1,0c0,0,0,0,0,0c0.1,0.3,0.1,0.5,0.1,0.5
		c0,0,0-0.7,0-1.8c0-0.5,0-1.2,0.1-1.9c0.1-0.7,0.2-1.5,0.6-2.2c0.3-0.7,0.8-1.3,1.3-1.8c0.5-0.5,1-0.9,1.5-1.2
		c0.4-0.3,0.8-0.5,1-0.7c0.2,0.4,0.4,0.7,0.6,0.9c0.5,0.5,0.9,0.6,0.9,0.6s-0.3-0.3-0.6-0.9c-0.3-0.6-0.6-1.3-0.6-2.3
		c0-0.2,0-0.5,0-0.7c0-0.2,0-0.4,0.1-0.6c0.1-0.4,0.3-0.7,0.4-1c0.3-0.6,0.6-0.9,0.6-0.9s0,0-0.1,0c-0.1,0.1-0.4,0.3-0.8,0.6
		c-0.2,0.2-0.5,0.5-0.7,1c-0.1,0.2-0.2,0.5-0.2,0.7c0,0.3,0,0.5,0,0.8c0,0.5,0.2,1,0.4,1.4c-0.3,0.1-0.7,0.2-1.1,0.5
		c-0.5,0.2-1.1,0.6-1.7,1c-0.6,0.5-1.2,1.1-1.6,1.9c-0.4,0.8-0.5,1.7-0.5,2.4c0,0.8,0,1.4,0.1,2c0,0.3,0.1,0.5,0.1,0.7c0,0,0,0,0,0
		c-0.4-0.3-0.8-0.6-1.4-0.9c-0.6-0.3-1.3-0.5-2.1-0.5c-0.8,0-1.5,0.3-2,0.6c-0.3,0.2-0.6,0.4-0.8,0.6c0,0,0-0.1,0.1-0.1
		c0.2-0.6,0.4-1.4,0.5-2.3c0.1-0.9,0-1.9-0.4-2.9c-0.3-1-0.8-1.9-1.4-2.6c-0.5-0.7-1-1.3-1.5-1.8c-0.2-0.2-0.3-0.3-0.4-0.4
		c0.1,0,0.3-0.1,0.5-0.1C80,143.3,80.7,143,81.5,142.7z"/>
	<path d="M97.1,163.4c0.6-1.2,0.8-2.4,0.9-3.4c0-0.5,0.1-0.9,0.1-1.3c0,0,0-0.1,0-0.1c0.3-0.1,0.9-0.3,1.7-0.5
		c0.5-0.2,1.1-0.5,1.5-0.7c1.1-0.8,2.1-2,2.5-3.6c0.4-1.6,0.1-3.1-0.4-4.3c-0.5-1.2-1.2-2.2-1.8-3c-0.2-0.2-0.4-0.4-0.5-0.6
		c0,0-0.1-0.1-0.1-0.1c0.3-0.1,0.7-0.2,1.1-0.4c0.2-0.1,0.3-0.2,0.5-0.2c0.9-0.4,1.8-1,2.6-1.9c0.5-0.5,0.9-1.2,1.2-1.9
		c0.3-0.7,0.5-1.6,0.5-2.4c0-0.9-0.2-1.7-0.6-2.4c-0.4-0.7-0.9-1.3-1.5-1.7c-1.2-0.9-2.4-1.3-3.4-1.6c-0.4-0.1-0.7-0.2-1-0.2
		c0.2-0.8,0.2-1.7,0-2.7c-0.2-1.2-1-2.5-2.1-3.5c-1.1-1-2.3-1.6-3.6-1.9c-1.2-0.2-2.4-0.1-3.3,0.2c-0.3,0.1-0.6,0.2-0.8,0.3
		c-0.1-0.4-0.1-0.9-0.3-1.4c-0.3-0.7-0.7-1.6-1.4-2.3c-0.7-0.7-1.7-1.3-2.9-1.5c-1.2-0.2-2.5-0.1-3.8,0.3c-2.6,0.8-5,2.4-7.2,4.5
		c-1.1,1-2.1,2.1-2.9,3.3c-0.5,0.6-0.8,1.3-1.2,2c-0.3,0.6-0.5,1.1-0.7,1.7c-0.4,1.3-0.5,2.6-0.4,3.7c0.1,1.2,0.4,2.3,0.7,3.2
		c0.4,1,0.8,1.9,1.3,2.6c-0.2,0.1-0.3,0.2-0.5,0.4c-0.4,0.3-0.8,0.7-1.2,1.2c-0.4,0.4-0.7,0.8-1,1.2c-0.9,1.3-1.7,2.9-2,4.6
		c-0.3,1.8-0.2,3.5,0.3,5c0.5,1.5,1.5,2.7,2.4,3.3c0.6,0.4,1.2,0.7,1.7,0.9c-0.3,0.5-0.7,1.2-0.9,2.2c-0.1,0.5-0.2,1.2,0,1.8
		c0.1,0.7,0.4,1.4,0.8,2c0.4,0.6,1,1.2,1.6,1.7c0.6,0.5,1.4,0.9,2.1,1.3c1.6,0.7,3.3,0.9,4.7,0.5c0.9-0.2,1.6-0.5,2.3-0.8
		c0.5-0.2,0.9-0.5,1.3-0.8c0.5-0.4,0.9-0.7,1.2-1c0.2-0.2,0.4-0.4,0.6-0.6c0.3,0.3,0.7,0.5,1.2,0.8c0.8,0.5,1.9,1.1,3.2,1.3
		c0.6,0.2,1.4,0.2,2.1,0.2c0.7,0,1.5-0.2,2.2-0.5c0.7-0.3,1.4-0.7,1.9-1.3C96.4,164.5,96.8,163.9,97.1,163.4z M93.6,165.6
		c-1.3,0.5-2.7,0.6-3.9,0.4c-1.2-0.2-2.3-0.6-3.2-1c-1.7-0.9-2.7-1.6-2.7-1.6c0,0,0.4,0.4,1.2,1.1c-0.1,0.1-0.3,0.3-0.7,0.5
		c0,0-0.1,0-0.1,0.1c-0.3,0.2-0.7,0.5-1.2,0.8c-0.9,0.5-2.1,1.1-3.4,1.3c-1.4,0.2-2.9,0-4.3-0.6c-1.4-0.7-2.7-1.6-3.5-2.6
		c-0.8-1.1-1-2.4-0.9-3.4c0.1-1,0.4-1.7,0.7-2.2c0.2,0.1,0.5,0.1,0.7,0.2c0.6,0.1,1,0.1,1,0.1s-0.4,0-1-0.3
		c-0.6-0.2-1.5-0.6-2.3-1.3c-0.9-0.7-1.7-1.8-2-3.2c-0.4-1.4-0.5-3.1-0.2-4.7c0.3-1.7,0.9-3.2,1.7-4.4c0.8-1.2,1.7-2.2,2.6-3
		c1.7-1.5,3-2.1,3-2.1c0,0-1.4,0.5-3.2,1.8c-0.4-0.7-0.8-1.6-1.1-2.6c-0.6-1.8-0.8-4.2-0.1-6.6c0.4-1.2,1-2.4,1.8-3.5
		c0.8-1.1,1.8-2.2,2.9-3.2c2.1-2,4.5-3.7,6.9-4.5c0.3-0.1,0.6-0.2,0.9-0.2c0.9-0.2,1.8-0.3,2.6-0.1c1.1,0.1,2,0.6,2.8,1.2
		c0.7,0.6,1.2,1.4,1.5,2.1c0.2,0.5,0.3,1,0.4,1.5c0,0,0,0.1,0,0.1c0,0.1,0,0.2,0,0.3c0.1,1.1,0,1.7,0,1.7s0.1-0.6,0.1-1.7
		c0-0.1,0-0.2,0-0.3c0.3-0.1,0.6-0.2,0.9-0.2c0.5-0.1,1-0.1,1.6-0.1c0.5,0,1,0.1,1.5,0.2c1.1,0.3,2.2,0.9,3.2,1.8c1,0.9,1.7,2,2,3.1
		c0.2,0.9,0.3,1.8,0.2,2.5c-0.1,0-0.2,0-0.3,0c-1-0.1-1.7-0.1-1.6-0.1c0,0,0.6,0.1,1.6,0.3c0.2,0,0.3,0.1,0.5,0.1
		c0.4,0.1,0.7,0.2,1.2,0.4c1,0.4,2.1,0.8,3.1,1.7c0.5,0.4,1,0.9,1.3,1.6c0.3,0.6,0.5,1.3,0.5,2.1c0,0.8-0.2,1.5-0.4,2.2
		c-0.1,0.4-0.3,0.7-0.5,1c-0.2,0.3-0.3,0.5-0.5,0.8c-0.8,1-1.9,1.7-2.8,2.2c-1.8,1-3.2,1.2-3.1,1.2c0,0,0.3,0,0.9-0.1
		c0.3-0.1,0.6-0.1,1-0.2c0,0,0,0.1,0.1,0.1c0.2,0.2,0.3,0.5,0.5,0.8c0.5,0.8,1.1,1.8,1.5,3c0.4,1.2,0.6,2.6,0.2,3.9
		c-0.2,0.6-0.4,1.2-0.8,1.7c-0.4,0.6-0.9,1.2-1.4,1.6c-0.9,0.7-1.9,1.1-2.8,1.4c0-0.9-0.1-1.4-0.1-1.4c0,0,0,0.7-0.1,1.9
		c0,0.4-0.1,0.8-0.2,1.2c-0.2,0.8-0.4,1.8-0.9,2.7c-0.1,0.1-0.1,0.3-0.2,0.4C95.9,164.1,94.9,165.1,93.6,165.6z"/>
	<path d="M91,130.4c1.3,0.5,2.2,2.3,2.2,2.3s-0.4-2.4-2-3c-1.9-0.7-3.5,0.9-3.5,0.9S89.3,129.7,91,130.4z"/>
	<path d="M79.9,160.7c-0.9,0-2-0.3-2.9-1.2c-0.9-0.9-1.2-2-1.4-2.9c-0.1-0.9-0.1-1.4-0.1-1.4s-0.2,0.5-0.3,1.5c0,0.5,0,1,0.2,1.6
		c0.2,0.6,0.5,1.2,1,1.8c0.5,0.5,1.2,0.9,1.8,1c0.6,0.1,1.2,0.1,1.7,0c0.9-0.2,1.4-0.5,1.4-0.5C81.3,160.6,80.8,160.7,79.9,160.7z"
		/>
	<path d="M91.2,160.1c-0.2,0.4-0.5,1-1.1,1.2c-0.6,0.3-1.3,0.3-1.7,0.2c-0.5-0.1-0.7-0.2-0.7-0.2c0,0,0.2,0.2,0.7,0.4
		c0.2,0.1,0.5,0.2,0.9,0.2c0.3,0,0.7,0,1.1-0.2c0.4-0.2,0.7-0.4,0.8-0.7c0.2-0.3,0.3-0.6,0.3-0.8c0.1-0.5,0-0.8,0-0.8
		C91.4,159.4,91.4,159.7,91.2,160.1z"/>
	<path d="M77,138.8c0.3,0.4,0.6,0.6,0.6,0.6s-0.2-0.2-0.4-0.7c-0.2-0.4-0.3-1.1-0.1-1.7c0.2-0.6,0.7-1.1,1.1-1.3
		c0.4-0.3,0.7-0.4,0.7-0.4s-0.3,0-0.8,0.2c-0.2,0.1-0.5,0.2-0.7,0.5c-0.2,0.2-0.5,0.5-0.6,0.9c-0.1,0.4-0.1,0.8-0.1,1.1
		C76.7,138.3,76.9,138.6,77,138.8z"/>
	<path d="M98,152.5c0.2-0.5,0.3-1,0.2-1.4c-0.1-0.4-0.2-0.8-0.4-1c-0.3-0.5-0.6-0.8-0.6-0.8s0.2,0.3,0.4,0.9
		c0.2,0.5,0.3,1.3-0.1,2.1c-0.3,0.8-1,1.3-1.5,1.6c-0.5,0.3-0.9,0.4-0.9,0.4c0,0,0.4,0,1-0.2c0.3-0.1,0.6-0.3,1-0.5
		C97.4,153.3,97.8,153,98,152.5z"/>
	<path d="M101.4,138.7c0,0.6-0.2,1.2-0.4,1.5c-0.2,0.4-0.4,0.6-0.4,0.6s0.3-0.1,0.6-0.5c0.2-0.2,0.3-0.4,0.5-0.7
		c0.1-0.3,0.2-0.6,0.2-1c0-0.4-0.2-0.7-0.3-1c-0.2-0.3-0.4-0.4-0.6-0.6c-0.4-0.2-0.7-0.3-0.7-0.3c0,0,0.2,0.1,0.6,0.4
		C101,137.6,101.4,138.1,101.4,138.7z"/>
	<path d="M97.1,167.1c0,0,6.3-0.1,11.9,3.9c5.7,4,7.7,8.3,7.7,8.3s-1.3-6.9-7.5-10.7C103.1,164.8,97.1,167.1,97.1,167.1z"/>
	<path d="M115,161.6c6.5,3.3,13.1,0.8,13.1,0.8s-5.9,0.2-12.2-2.5c-6.4-2.7-8.4-7.9-8.4-7.9S108.6,158.3,115,161.6z"/>
	<path d="M113.3,162.9c-4.4-2.8-8.8-3.4-8.8-3.4s1.7,2.1,7.4,5.9c5.6,3.8,11.8,6.5,11.8,6.5S116.9,164.2,113.3,162.9z"/>
	<path d="M412.6,152.8c-0.2-0.5-0.5-1-0.8-1.4c-0.3-0.5-0.7-1-1-1.4c-0.1-0.2-0.3-0.3-0.4-0.4c0.6-0.6,1.2-1.4,1.7-2.4
		c0.5-0.9,1-1.9,1.2-3c0.3-1.1,0.4-2.4,0.3-3.8c-0.1-0.6-0.2-1.2-0.4-1.8c-0.2-0.7-0.5-1.5-0.8-2.2c-0.6-1.3-1.5-2.5-2.3-3.8
		c-1.8-2.4-3.9-4.5-6.3-5.7c-1.2-0.6-2.5-0.9-3.7-0.9c-1.2,0-2.3,0.4-3.1,1c-0.8,0.6-1.4,1.3-1.8,2c-0.3,0.5-0.4,0.9-0.5,1.3
		c-0.2-0.2-0.5-0.3-0.8-0.5c-0.8-0.4-1.9-0.8-3.2-0.8c-1.3,0-2.6,0.5-3.8,1.2c-1.2,0.8-2.2,1.9-2.6,3.1c-0.4,1-0.5,1.9-0.4,2.7
		c-0.3,0-0.7,0-1,0c-1.1,0.1-2.3,0.3-3.6,0.9c-0.6,0.3-1.3,0.8-1.8,1.4c-0.5,0.6-0.8,1.5-1,2.3c-0.1,0.8-0.1,1.7,0.1,2.5
		c0.2,0.8,0.5,1.5,0.9,2.1c0.6,1,1.5,1.8,2.2,2.3c0.1,0.1,0.3,0.2,0.4,0.3c0.4,0.2,0.7,0.4,1,0.6c0,0-0.1,0.1-0.1,0.1
		c-0.2,0.2-0.4,0.3-0.6,0.5c-0.7,0.7-1.6,1.5-2.3,2.7c-0.7,1.1-1.3,2.6-1.1,4.2c0.2,1.6,0.9,3,1.9,3.9c0.4,0.4,0.8,0.7,1.3,1
		c0.7,0.4,1.3,0.7,1.6,0.8c0,0,0,0.1,0,0.1c-0.1,0.4-0.1,0.8-0.2,1.3c-0.1,1,0,2.2,0.3,3.5c0.2,0.6,0.5,1.3,0.9,1.9
		c0.4,0.6,1,1.1,1.7,1.6c0.7,0.4,1.4,0.7,2.1,0.9c0.7,0.2,1.4,0.2,2.1,0.2c1.3-0.1,2.5-0.4,3.4-0.8c0.5-0.2,1-0.4,1.3-0.6
		c0.1,0.2,0.3,0.4,0.5,0.7c0.3,0.4,0.6,0.8,1,1.2c0.3,0.3,0.7,0.7,1.1,1c0.6,0.5,1.3,0.9,2.1,1.2c1.4,0.6,3.1,0.7,4.8,0.3
		c0.8-0.2,1.6-0.5,2.3-0.9c0.7-0.4,1.4-0.8,1.9-1.4c0.5-0.6,0.9-1.2,1.1-1.8c0.2-0.6,0.3-1.3,0.3-1.8c0-1-0.3-1.8-0.5-2.4
		c0.5-0.1,1.2-0.2,1.8-0.6c1.1-0.5,2.2-1.5,3-2.9c0.8-1.4,1.2-3.1,1.2-4.9C413.8,155.9,413.3,154.2,412.6,152.8z M412,162.3
		c-0.6,1.3-1.6,2.3-2.6,2.8c-1,0.6-1.9,0.8-2.5,0.9c-0.6,0.1-1,0.1-1,0.1s0.4,0.1,1,0c0.2,0,0.4,0,0.7-0.1c0.2,0.6,0.3,1.4,0.3,2.3
		c0,1-0.5,2.3-1.5,3.2c-1,0.9-2.4,1.6-3.9,2c-1.5,0.4-3.1,0.3-4.4-0.1c-1.3-0.4-2.4-1.2-3.2-1.9c-0.5-0.4-0.8-0.7-1-1
		c0,0-0.1-0.1-0.1-0.1c-0.3-0.3-0.5-0.5-0.6-0.6c0.9-0.5,1.4-0.9,1.4-0.9c0,0-1.1,0.6-2.9,1.2c-0.9,0.3-2,0.5-3.3,0.5
		c-1.2,0-2.6-0.3-3.8-1.1c-1.2-0.7-2-1.9-2.4-3c-0.1-0.1-0.1-0.3-0.1-0.4c-0.3-1-0.4-2-0.4-2.8c0-0.4,0-0.9,0-1.2
		c0.1-1.2,0.2-1.9,0.2-1.9c0,0-0.2,0.5-0.4,1.3c-0.8-0.4-1.7-1-2.5-1.9c-0.5-0.5-0.8-1.1-1.1-1.8c-0.2-0.5-0.4-1.1-0.5-1.8
		c-0.1-1.4,0.3-2.7,0.9-3.8c0.6-1.1,1.3-2,2-2.7c0.2-0.2,0.4-0.5,0.6-0.7c0,0,0.1-0.1,0.1-0.1c0.4,0.2,0.7,0.3,1,0.4
		c0.6,0.2,0.9,0.3,0.9,0.3c0,0-1.2-0.4-2.9-1.7c-0.8-0.6-1.7-1.5-2.4-2.7c-0.2-0.3-0.3-0.6-0.4-0.9c-0.1-0.3-0.2-0.7-0.3-1.1
		c-0.1-0.7-0.1-1.5,0-2.2c0.1-0.7,0.4-1.4,0.8-2c0.4-0.6,1-1,1.5-1.3c1.2-0.7,2.4-1,3.4-1.1c0.4-0.1,0.8-0.1,1.2-0.2
		c0.2,0,0.4,0,0.5,0c1-0.1,1.6,0,1.6-0.1c0,0-0.6-0.1-1.6-0.2c-0.1,0-0.2,0-0.3,0c0-0.8,0.2-1.6,0.6-2.4c0.5-1,1.3-2,2.5-2.7
		c1.1-0.7,2.3-1.1,3.5-1.2c0.5,0,1,0,1.5,0.1c0.6,0.1,1.1,0.2,1.5,0.4c0.3,0.1,0.6,0.2,0.8,0.4c0,0.1-0.1,0.2-0.1,0.3
		c-0.2,1.1-0.2,1.7-0.2,1.7c0,0,0-0.6,0.3-1.7c0-0.1,0.1-0.2,0.1-0.3c0,0,0-0.1,0-0.1c0.2-0.4,0.4-0.9,0.7-1.4
		c0.4-0.6,1-1.3,1.8-1.8c0.8-0.5,1.8-0.8,2.9-0.8c0.8,0,1.7,0.2,2.5,0.6c0.3,0.1,0.6,0.2,0.8,0.4c2.2,1.2,4.3,3.2,6,5.6
		c0.9,1.2,1.7,2.4,2.3,3.6c0.6,1.2,1,2.5,1.2,3.8c0.4,2.5-0.3,4.8-1.2,6.5c-0.5,0.9-1,1.7-1.5,2.4c-1.6-1.7-2.9-2.3-2.9-2.4
		c0,0,1.2,0.8,2.6,2.6c0.7,0.9,1.5,2,2,3.4c0.6,1.4,1,2.9,1,4.6C413,159.4,412.6,161,412,162.3z"/>
	<path d="M402.8,149.9c-0.5-0.3-1.1-0.7-1.7-1.3c-0.6-0.5-1.2-1.1-1.6-1.9c-0.4-0.8-0.7-1.6-1-2.4c-0.3-0.8-0.5-1.5-0.6-2
		c0-0.2-0.1-0.3-0.1-0.5c0,0,0,0,0,0c0,0,0,0,0,0c0.1-0.4,0.1-0.6,0.1-0.6c0,0-0.2,0.7-1,1.4c-0.7,0.7-2,1.5-3.5,2
		c-1.5,0.5-2.9,0.8-4,0.7c-1-0.1-1.6-0.5-1.6-0.5c0,0,0.1,0.1,0.3,0.3c0,0,0,0,0,0c0,0,0.2,0.4,0.4,1c0.1,0.3,0.2,0.7,0.2,1
		c0,0.2,0,0.3,0,0.6c0,0.2-0.1,0.4-0.1,0.7c-0.2,0.9-0.6,1.6-1,2.1c-0.4,0.5-0.7,0.8-0.7,0.8c0,0,0.4-0.1,1-0.5
		c0.3-0.2,0.5-0.4,0.8-0.8c0.2,0.2,0.5,0.5,0.9,0.8c0.4,0.4,0.8,0.9,1.2,1.4c0.4,0.6,0.8,1.2,1,2c0.2,0.7,0.2,1.5,0.2,2.2
		c0,0.7-0.1,1.4-0.2,1.9c-0.2,1.1-0.3,1.8-0.3,1.8c0,0,0.1-0.2,0.2-0.5c0,0,0,0,0,0c0,0,0,0,0.1,0c0.1,0,0.2-0.1,0.3-0.1
		c0.4-0.1,1-0.3,1.5-0.4c0.6-0.1,1.2-0.1,1.8,0c1.3,0.3,2.3,1.1,2.9,1.7c0.7,0.6,1,1.1,1,1.1c0,0-0.2-0.6-0.7-1.3c0,0,0,0,0,0
		c0-0.2,0-0.4,0-0.7c0-1.3,0.1-3.1,1.1-4.8c1-1.7,2.2-3,3.1-3.9c0.9-0.9,1.6-1.5,1.6-1.5s-0.4,0.2-1,0.6
		C403.1,150.1,402.9,150,402.8,149.9z M402.5,150.8c-0.5,0.4-1.2,0.9-1.8,1.5c-0.6,0.6-1.3,1.4-1.8,2.3c-0.5,0.9-0.8,1.9-0.9,2.8
		c-0.1,0.9,0,1.7,0.1,2.4c0,0,0,0.1,0,0.1c-0.2-0.2-0.4-0.5-0.7-0.7c-0.5-0.4-1.1-0.8-1.9-1c-0.8-0.2-1.5-0.1-2.1,0.1
		c-0.6,0.2-1.1,0.4-1.5,0.7c0,0,0,0,0,0c0.1-0.2,0.2-0.4,0.3-0.7c0.2-0.5,0.4-1.2,0.5-1.9c0.1-0.7,0.1-1.6-0.1-2.5
		c-0.2-0.9-0.7-1.6-1.2-2.2c-0.5-0.6-1-1-1.5-1.3c-0.4-0.3-0.8-0.5-1-0.6c0.3-0.4,0.5-0.8,0.6-1.3c0.1-0.3,0.1-0.5,0.1-0.8
		c0-0.2,0-0.5-0.1-0.8c-0.1-0.5-0.3-0.8-0.5-1.1c-0.3-0.5-0.6-0.7-0.7-0.8c0,0,0,0,0,0c0,0,0,0,0,0c0.2,0.2,0.6,0.4,1.1,0.5
		c1.1,0.3,2.7,0.2,4.3-0.4c1.6-0.6,2.9-1.5,3.5-2.5c0.1-0.2,0.2-0.3,0.3-0.5c0,0,0,0,0,0c0.1,0.6,0.2,1.4,0.4,2.2
		c0.2,0.8,0.5,1.7,0.9,2.6c0.5,0.9,1.2,1.5,1.9,2c0.7,0.5,1.4,0.8,1.9,1.1c0.2,0.1,0.3,0.1,0.4,0.2
		C402.8,150.5,402.7,150.6,402.5,150.8z"/>
	<path d="M393.4,135.4c1.8-0.4,3.2,0.7,3.2,0.7s-1.3-1.8-3.3-1.5c-1.7,0.3-2.5,2.6-2.5,2.6S392,135.7,393.4,135.4z"/>
	<path d="M389.1,166.1c-0.6-0.4-0.8-1-0.9-1.4c-0.1-0.5-0.1-0.8-0.1-0.8s-0.1,0.3-0.1,0.8c0,0.2,0,0.6,0.2,0.9
		c0.1,0.3,0.4,0.6,0.7,0.9c0.3,0.2,0.7,0.3,1,0.4c0.3,0,0.6,0,0.9-0.1c0.5-0.1,0.7-0.3,0.7-0.3s-0.3,0.1-0.8,0.1
		C390.2,166.6,389.6,166.5,389.1,166.1z"/>
	<path d="M405.9,143.3c-0.2-0.3-0.4-0.5-0.6-0.6c-0.4-0.3-0.7-0.3-0.7-0.3s0.3,0.2,0.6,0.5c0.3,0.3,0.7,0.9,0.8,1.5
		c0.1,0.7-0.1,1.3-0.4,1.6c-0.3,0.4-0.5,0.6-0.5,0.6s0.3-0.1,0.6-0.5c0.2-0.2,0.4-0.4,0.5-0.7c0.1-0.3,0.2-0.7,0.1-1.1
		C406.3,143.9,406.1,143.5,405.9,143.3z"/>
	<path d="M383.2,155.9c-0.2-0.8,0-1.6,0.3-2.1c0.3-0.5,0.5-0.8,0.5-0.8c0,0-0.3,0.2-0.7,0.6c-0.2,0.2-0.4,0.6-0.5,1
		c-0.1,0.4-0.2,0.9,0,1.4c0.1,0.5,0.4,0.9,0.7,1.2c0.3,0.3,0.6,0.5,0.9,0.7c0.5,0.3,0.9,0.4,0.9,0.4s-0.3-0.2-0.8-0.6
		C384,157.3,383.4,156.7,383.2,155.9z"/>
	<path d="M382.5,140.4c-0.2,0.1-0.5,0.2-0.7,0.4c-0.2,0.2-0.4,0.5-0.5,0.9c-0.1,0.4-0.1,0.7,0,1c0.1,0.3,0.2,0.6,0.3,0.7
		c0.3,0.4,0.5,0.5,0.5,0.5s-0.2-0.2-0.3-0.6c-0.2-0.4-0.3-1-0.2-1.6c0.1-0.6,0.6-1,0.9-1.3c0.4-0.2,0.6-0.3,0.6-0.3
		C383.3,140.3,383,140.2,382.5,140.4z"/>
	<path d="M359.7,179.2c0,0,2.7-3.9,9-6.9c6.3-3,12.4-1.8,12.4-1.8s-5.5-3.3-12.2-0.6C362.1,172.6,359.7,179.2,359.7,179.2z"/>
	<path d="M364.4,162.1c6.9-2.1,9.1-8.2,9.1-8.2s-2.9,4.7-9.6,6.3c-6.7,1.6-12.5,0.4-12.5,0.4S357.5,164.3,364.4,162.1z"/>
	<path d="M354.2,170.7c0,0,6.5-1.7,12.7-4.4c6.2-2.7,8.3-4.6,8.3-4.6s-4.4-0.1-9.2,1.9C362.1,164.4,354.2,170.7,354.2,170.7z"/>
	<ellipse cx="54.7" cy="150.3" rx="4.5" ry="3.4"/>
	
		<ellipse transform="matrix(3.900021e-002 -0.9992 0.9992 3.900021e-002 -88.6225 180.1384)" cx="49.3" cy="136.1" rx="2.3" ry="3.1"/>
	<path d="M69.5,141.5c0,0-2.9-3.3-4.8-4c-5-1.8-9-1.6-9-1.6s3.9,0.2,8.5,2.4C66.5,139.3,69.5,141.5,69.5,141.5z"/>
	<path d="M62.2,141c-3.4,0.5-5.2,4.5-5.2,4.5s2.6-3.1,5.6-3.6c3.1-0.6,4.8,1.3,4.8,1.3S66.8,140.3,62.2,141z"/>
	<path d="M142.1,363.3c-0.3-0.9-1.1-1.6-1.7-2.1c-0.7-0.5-1.4-0.7-2-0.9c-0.2-0.1-0.4-0.1-0.6-0.2c0.1-0.2,0.3-0.4,0.4-0.6
		c0.3-0.6,0.7-1.3,0.8-2.2c0.1-0.4,0-0.9-0.1-1.4c-0.1-0.5-0.3-1-0.6-1.4c-0.3-0.4-0.7-0.8-1.2-1c-0.5-0.2-0.9-0.3-1.4-0.3
		c-0.9,0-1.7,0.2-2.3,0.4c-0.2,0.1-0.4,0.2-0.6,0.3c-0.2-0.5-0.5-1-1-1.4c-0.6-0.5-1.4-0.9-2.3-1c-0.9-0.1-1.8,0-2.5,0.3
		c-0.2,0.1-0.5,0.2-0.7,0.4c-0.4,0.3-0.6,0.5-0.9,0.8c0,0,0,0-0.1,0.1c-0.1,0.2-0.2,0.3-0.3,0.5c-0.2-0.2-0.4-0.4-0.7-0.6
		c-0.4-0.3-0.9-0.5-1.6-0.6c-0.6-0.1-1.3,0-2,0.3c-0.7,0.3-1.3,0.8-1.8,1.5c-1,1.3-1.7,3.1-2,4.9c-0.2,0.9-0.3,1.8-0.3,2.7
		c0,0.9,0.1,1.8,0.4,2.6c0.3,0.8,0.7,1.5,1.2,2c0.5,0.6,1,1,1.5,1.4c0.6,0.4,1.1,0.7,1.6,0.9c-0.2,0.7-0.4,1.5-0.4,2.4
		c0,1,0.2,2.1,0.7,3.1c0.5,1,1.2,1.9,2,2.4c0.8,0.6,1.7,0.8,2.4,0.8c0,0,0,0,0,0c0.2,0,0.3,0,0.4,0c0,0,0.1,0,0.1,0c0,0,0,0,0,0
		c0.2,0,0.4-0.1,0.5-0.1c0,0.4,0.1,0.9,0.3,1.5c0.1,0.3,0.3,0.7,0.6,1c0.3,0.3,0.7,0.6,1.1,0.7c0.4,0.2,0.9,0.3,1.4,0.3
		c0.5,0,1,0,1.5-0.1c1.1-0.2,2-0.8,2.6-1.4c0.6-0.7,1-1.4,1.2-2.1c0.2-0.6,0.3-1.1,0.3-1.5c0.3,0,0.6,0,0.9,0c0.6,0,1.3-0.2,2.1-0.5
		c0.8-0.3,1.6-0.9,2.1-1.7c0.3-0.4,0.4-0.9,0.5-1.3c0.1-0.5,0.1-0.9,0-1.3c-0.1-0.8-0.4-1.5-0.7-2c-0.2-0.3-0.3-0.5-0.5-0.7
		c0.2-0.2,0.9-1.1,1.1-1.8C142.3,365.2,142.4,364.2,142.1,363.3z M141.7,365.9c-0.2,0.7-0.6,1.3-0.9,1.7c-0.3-0.4-0.6-0.6-0.6-0.6
		c0,0,0.5,0.6,1,1.7c0.2,0.5,0.5,1.2,0.6,2c0.1,0.8-0.1,1.6-0.5,2.3c-0.5,0.7-1.1,1.3-1.8,1.6c-0.7,0.3-1.4,0.5-2,0.6
		c-1.2,0.2-1.9,0.1-1.9,0.1c0,0,0.4,0.1,1,0.1c0,0.2-0.1,0.5-0.5,1.4c-0.3,0.6-0.7,1.3-1.3,1.9c-0.6,0.6-1.5,1.1-2.4,1.3
		c-1,0.2-1.9,0.2-2.7-0.1c-0.8-0.3-1.4-0.8-1.7-1.4c-0.3-0.5-0.4-1-0.5-1.4c0,0,0,0,0,0c0,0,0,0,0,0c0.2,0,0.3-0.1,0.4-0.1
		c0.4-0.2,0.6-0.3,0.6-0.3s-0.2,0.1-0.6,0.2c-0.4,0.1-0.9,0.2-1.6,0.2c-0.7-0.1-1.5-0.3-2.2-0.9c-0.7-0.6-1.3-1.4-1.8-2.3
		c-0.5-0.9-0.7-1.9-0.7-2.9c0-0.9,0.1-1.8,0.2-2.4c0.3-1.4,0.8-2.2,0.7-2.2c0,0-0.5,0.7-1,2.1c0,0,0,0,0,0c0,0-0.1,0-0.1-0.1
		c-0.4-0.2-0.9-0.5-1.4-0.8c-1-0.7-1.9-1.8-2.4-3.3c-0.2-0.7-0.4-1.6-0.3-2.4c0-0.9,0.1-1.7,0.3-2.7c0.4-1.8,0.9-3.5,1.9-4.7
		c0.5-0.6,1-1.1,1.6-1.5c0.6-0.3,1.3-0.4,1.8-0.4c0.6,0.1,1.1,0.3,1.5,0.5c0.3,0.2,0.5,0.4,0.7,0.6c0.1,0.1,0.1,0.1,0.2,0.2
		c0.5,0.5,0.6,0.8,0.6,0.8s-0.1-0.4-0.6-0.9c0,0-0.1-0.1-0.1-0.1c0.1-0.1,0.2-0.3,0.4-0.4c0.4-0.4,0.9-0.8,1.6-1.1
		c0.7-0.3,1.5-0.3,2.3-0.2c0.8,0.1,1.6,0.4,2.1,0.8c0.4,0.4,0.8,0.8,1,1.2c-0.7,0.3-1,0.6-1,0.6c0,0,0.4-0.2,1.2-0.5c0,0,0,0,0,0
		c0,0,0,0,0.1,0c0.2-0.1,0.4-0.1,0.7-0.2c0.6-0.2,1.4-0.3,2.2-0.3c0.4,0,0.8,0.1,1.2,0.3c0.4,0.2,0.7,0.5,1,0.9
		c0.3,0.4,0.5,0.8,0.6,1.2c0.1,0.4,0.2,0.9,0.1,1.3c-0.1,0.8-0.3,1.6-0.6,2.1c-0.6,1.2-1.2,1.7-1.2,1.7s0.2-0.1,0.4-0.4
		c0.1-0.1,0.3-0.3,0.4-0.5c0.2,0.1,0.4,0.1,0.6,0.2c0.6,0.2,1.2,0.5,1.8,1c0.6,0.5,1.2,1.1,1.5,1.9
		C141.9,364.3,141.9,365.2,141.7,365.9z"/>
	<path d="M133.5,363.6c0.1-0.3,0.2-0.5,0.3-0.7c0.2,0.1,0.5,0.2,0.6,0.2c0.4,0.1,0.7,0,0.7,0c0,0-0.3-0.1-0.6-0.2
		c-0.4-0.2-0.8-0.5-1.1-0.9c-0.1-0.1-0.2-0.2-0.3-0.3c-0.1-0.1-0.1-0.2-0.2-0.3c-0.1-0.2-0.1-0.5-0.1-0.6c0-0.4,0-0.6,0-0.7
		c0,0,0,0,0,0c0.1-0.2,0.1-0.3,0.1-0.3c0,0-0.2,0.4-0.8,0.7c-0.6,0.3-1.4,0.6-2.4,0.7c-1,0.1-1.9,0-2.5-0.2
		c-0.6-0.2-0.9-0.5-0.9-0.5c0,0,0.1,0.1,0.2,0.3c0,0,0,0,0,0c0,0,0,0,0,0c0,0.1,0,0.2,0.1,0.3c0.1,0.4,0.1,0.8,0.2,1.3
		c0.1,0.5,0.1,1,0.1,1.6c0,0.5-0.2,1-0.4,1.5c-0.2,0.4-0.4,0.8-0.6,1.2c-0.1,0.1-0.1,0.2-0.2,0.3c-0.5-0.1-0.7-0.1-0.7-0.1
		s0.5,0.1,1.3,0.4c0.8,0.3,1.8,0.7,2.8,1.4c1,0.7,1.6,1.7,1.9,2.4c0.1,0.1,0.1,0.3,0.2,0.4c0,0,0,0,0,0c-0.1,0.6,0,1,0,1
		s0.1-0.4,0.3-0.9c0.2-0.5,0.5-1.2,1.2-1.7c0.3-0.3,0.7-0.4,1-0.5c0.3-0.1,0.7-0.2,1-0.2c0.1,0,0.1,0,0.2,0c0,0,0,0,0,0c0,0,0,0,0,0
		c0.2,0.1,0.3,0.2,0.3,0.2s-0.3-0.3-0.7-0.9c-0.2-0.3-0.4-0.6-0.6-1c-0.2-0.4-0.4-0.8-0.5-1.3c-0.1-0.5,0-0.9,0-1.4
		C133.2,364.3,133.4,364,133.5,363.6z M132.7,366.2c0.1,0.6,0.4,1,0.6,1.4c0.3,0.4,0.5,0.7,0.8,1c0.1,0.1,0.2,0.2,0.3,0.3
		c0,0,0,0,0,0c-0.3,0-0.7,0-1,0c-0.4,0.1-0.8,0.2-1.2,0.5c-0.4,0.3-0.6,0.7-0.8,1c-0.1,0.2-0.2,0.4-0.2,0.6c0,0,0-0.1,0-0.1
		c-0.1-0.4-0.3-0.9-0.6-1.4c-0.3-0.5-0.7-1-1.2-1.4c-0.5-0.4-1.1-0.6-1.6-0.8c-0.5-0.2-1-0.3-1.4-0.4c-0.1,0-0.3,0-0.4-0.1
		c0.1-0.1,0.1-0.1,0.2-0.2c0.3-0.3,0.5-0.7,0.8-1.1c0.3-0.5,0.5-1,0.5-1.6c0-0.6-0.1-1.2-0.2-1.7c-0.1-0.5-0.2-0.9-0.4-1.3
		c0,0,0,0,0,0c0.1,0.1,0.2,0.1,0.3,0.2c0.6,0.3,1.6,0.6,2.6,0.4c1-0.1,2-0.5,2.5-0.9c0.3-0.2,0.4-0.4,0.5-0.6c0,0,0,0,0,0
		c0,0,0,0,0,0c0,0.1-0.1,0.3-0.2,0.6c0,0.2-0.1,0.5,0,0.8c0,0.1,0.1,0.3,0.2,0.4c0.1,0.1,0.2,0.3,0.3,0.4c0.2,0.3,0.5,0.4,0.7,0.6
		c-0.1,0.2-0.3,0.4-0.4,0.6c-0.2,0.3-0.4,0.7-0.5,1.1C132.6,365.1,132.6,365.7,132.7,366.2z"/>
	<path d="M127.2,356c0.9-0.2,2,0.4,2,0.4s-1.1-1.1-2.1-0.8c-1.2,0.4-1.4,1.7-1.4,1.7S126.1,356.3,127.2,356z"/>
	<path d="M130.5,375.9c-0.8-0.1-1.4-0.6-1.8-1c-0.4-0.4-0.6-0.7-0.6-0.7s0.1,0.3,0.4,0.8c0.2,0.2,0.4,0.5,0.7,0.8
		c0.3,0.2,0.7,0.5,1.2,0.5c0.5,0.1,0.9,0,1.3-0.1c0.4-0.2,0.6-0.4,0.9-0.6c0.4-0.4,0.5-0.7,0.5-0.7c0,0-0.2,0.3-0.7,0.6
		C132,375.7,131.3,376,130.5,375.9z"/>
	<path d="M137.8,370.6c0,0,0.1,0.2,0.2,0.5c0.1,0.3,0.1,0.7-0.1,1c-0.2,0.4-0.5,0.6-0.8,0.7c-0.3,0.1-0.4,0.2-0.4,0.2s0.2,0,0.5,0
		c0.2,0,0.3-0.1,0.5-0.2c0.2-0.1,0.4-0.3,0.5-0.5c0.1-0.2,0.2-0.5,0.2-0.7c0-0.2-0.1-0.4-0.1-0.5C138,370.8,137.8,370.6,137.8,370.6
		z"/>
	<path d="M122.5,364.4c-0.1-0.4,0-0.8,0.1-1.1c0.1-0.3,0.2-0.4,0.2-0.4s-0.1,0.1-0.3,0.4c-0.1,0.1-0.2,0.3-0.2,0.5
		c0,0.2-0.1,0.4,0,0.7c0.1,0.2,0.2,0.4,0.4,0.6c0.2,0.1,0.3,0.2,0.5,0.3c0.3,0.1,0.5,0.1,0.5,0.1s-0.2-0.1-0.4-0.2
		C122.9,365.1,122.6,364.8,122.5,364.4z"/>
	<path d="M138.3,364c-0.2-0.2-0.4-0.3-0.6-0.4c-0.4-0.2-0.6-0.2-0.6-0.2c0,0,0.2,0.1,0.5,0.3c0.3,0.2,0.6,0.6,0.7,1.1
		c0.1,0.5,0,1-0.2,1.3c-0.1,0.3-0.3,0.5-0.3,0.5s0.2-0.1,0.4-0.4c0.1-0.2,0.2-0.4,0.3-0.6c0.1-0.3,0.1-0.6,0-0.9
		C138.6,364.5,138.5,364.2,138.3,364z"/>
	<path d="M135.6,356.4c-0.1-0.2-0.3-0.3-0.5-0.4c-0.2-0.1-0.4-0.1-0.5-0.1c-0.3,0-0.4,0.1-0.4,0.1c0,0,0.2,0,0.4,0
		c0.3,0,0.6,0.2,0.9,0.5c0.2,0.3,0.3,0.7,0.3,0.9c0,0.3,0,0.4,0,0.4c0,0,0.1-0.2,0.1-0.4c0-0.1,0-0.3,0-0.5
		C135.9,356.8,135.8,356.5,135.6,356.4z"/>
	<path d="M152.3,341.5c0,0-1.3,4.8-5.2,8.4c-3.9,3.6-7.4,4.2-7.4,4.2s3.8-0.5,7.7-3.1C151.1,348.5,152.3,341.5,152.3,341.5z"/>
	<path d="M150.3,356.9c-3.6,3.1-5,6.7-5,6.7s1.5-3.3,6-6.1c4.5-2.8,9.4-2.8,9.4-2.8S153.6,354,150.3,356.9z"/>
	<path d="M155.4,349.7c0,0-4.3,1.9-6.3,3.3c-2,1.4-5.4,4.7-5.4,4.7s2.7-1.7,5.6-3.6C152.3,352.2,155.4,349.7,155.4,349.7z"/>
	<path d="M384.1,344.7c-0.8-0.6-1.7-0.9-2.5-0.9c-0.8,0-1.6,0.1-2.1,0.4c-0.4,0.2-0.7,0.4-1,0.6c-0.1-0.2-0.2-0.4-0.3-0.7
		c0,0,0-0.1-0.1-0.1c-0.2-0.4-0.5-0.9-0.9-1.3c-0.2-0.2-0.5-0.5-0.7-0.7c-0.8-0.6-1.9-1-3.1-1.1c-1.2-0.1-2.3,0.2-3.2,0.7
		c-0.7,0.4-1.2,1-1.6,1.5c-0.2-0.2-0.4-0.3-0.7-0.5c-0.7-0.5-1.7-1-2.8-1.2c-0.6-0.1-1.2-0.1-1.9,0.1c-0.6,0.2-1.3,0.5-1.8,1
		c-0.5,0.5-0.9,1-1.2,1.6c-0.3,0.6-0.4,1.2-0.5,1.8c-0.1,1.2,0.2,2.2,0.4,3c0.1,0.3,0.2,0.6,0.4,0.9c-0.2,0-0.5,0-0.8,0
		c-0.8,0.1-1.8,0.2-2.8,0.6c-1,0.4-2.1,1.1-2.8,2.2c-0.7,1.1-0.9,2.4-0.7,3.5c0.1,1,0.8,2.3,1,2.6c-0.2,0.2-0.5,0.5-0.8,0.8
		c-0.5,0.6-1.1,1.4-1.5,2.4c-0.2,0.5-0.3,1.1-0.3,1.7c0,0.6,0.1,1.2,0.3,1.8c0.4,1.2,1.3,2.1,2.2,2.7c0.9,0.6,1.8,0.9,2.6,1.2
		c0.4,0.1,0.8,0.2,1.2,0.2c0,0.5-0.1,1.1,0,2c0.1,0.9,0.4,2,1,3c0.6,1,1.7,2,3,2.5c0.6,0.3,1.3,0.5,1.9,0.6c0.6,0.1,1.3,0.1,1.9,0
		c0.6-0.1,1.2-0.3,1.6-0.6c0.5-0.3,0.8-0.7,1.1-1c0.5-0.7,0.7-1.3,0.8-1.8c0.2,0.1,0.4,0.2,0.6,0.3c0,0,0.1,0,0.1,0c0,0,0.1,0,0.1,0
		c0.2,0.1,0.4,0.1,0.6,0.2c0,0,0,0,0,0c0.9,0.2,2.1,0.1,3.3-0.4c1.2-0.5,2.3-1.4,3.2-2.6c0.9-1.2,1.4-2.5,1.7-3.7
		c0.2-1.2,0.2-2.2,0.1-3.2c0.7-0.1,1.4-0.3,2.3-0.7c0.7-0.3,1.5-0.7,2.3-1.3c0.7-0.6,1.5-1.4,2-2.3c0.6-0.9,1-2,1.2-3.2
		c0.2-1.2,0.3-2.4,0.3-3.6c0-2.4-0.3-4.8-1.3-6.8C385.5,346.1,384.9,345.3,384.1,344.7z M386.4,357.3c-0.2,1.1-0.6,2.1-1.1,3
		c-1,1.8-2.5,3-4,3.6c-0.7,0.3-1.3,0.5-1.9,0.7c-0.1,0-0.2,0-0.2,0.1c0,0,0,0,0,0c-0.2-1.8-0.7-2.9-0.7-2.9c0,0,0.3,1.1,0.4,3
		c0,0.9,0,2-0.3,3.2c-0.3,1.2-0.8,2.4-1.6,3.5c-0.8,1.1-1.9,2-2.9,2.5c-1.1,0.5-2.1,0.7-3,0.6c-0.9-0.1-1.6-0.4-2.1-0.6
		c-0.5-0.2-0.7-0.4-0.7-0.4c0,0,0.2,0.2,0.6,0.5c0.1,0.1,0.3,0.2,0.5,0.3c0,0,0,0,0,0c0,0,0,0,0,0c-0.2,0.4-0.4,1-0.9,1.6
		c-0.5,0.7-1.4,1.2-2.5,1.4c-1.1,0.1-2.3-0.1-3.5-0.6c-1.2-0.5-2.1-1.3-2.8-2.2c-0.6-0.9-1-1.9-1.1-2.8c-0.2-1.2-0.2-1.7-0.3-1.9
		c0.8,0.1,1.3,0.1,1.3,0.1c0,0-1-0.1-2.4-0.7c-0.7-0.3-1.6-0.7-2.4-1.3c-0.8-0.6-1.5-1.5-1.9-2.5c-0.4-1.1-0.4-2.2-0.1-3.1
		c0.3-1,0.8-1.8,1.2-2.4c0.9-1.3,1.7-1.9,1.7-1.9c0,0-0.3,0.2-0.9,0.7c-0.3-0.7-0.6-1.5-0.7-2.4c-0.1-1,0.1-2.1,0.7-3.1
		c0.6-1,1.5-1.6,2.5-2c0.9-0.4,1.8-0.7,2.6-0.8c0.3-0.1,0.6-0.1,0.8-0.1c0.2,0.3,0.3,0.6,0.4,0.8c0.3,0.4,0.4,0.6,0.4,0.6
		c0,0-0.6-0.9-1-2.5c-0.2-0.8-0.4-1.8-0.2-2.9c0.1-0.5,0.2-1.1,0.5-1.6c0.3-0.5,0.6-1,1.1-1.4c0.4-0.4,0.9-0.7,1.5-0.9
		c0.5-0.2,1.1-0.2,1.6-0.1c1.1,0.1,2,0.5,2.7,0.9c0.3,0.2,0.5,0.3,0.8,0.4c0,0,0.1,0,0.1,0c0,0,0,0,0,0c0.9,0.6,1.4,1,1.4,1
		c0,0-0.4-0.4-1.2-1.1c0.4-0.5,0.9-0.9,1.6-1.3c0.8-0.4,1.8-0.6,2.9-0.5c1.1,0.1,2.1,0.4,2.8,0.9c0.8,0.5,1.3,1.2,1.7,1.8
		c0.1,0.2,0.3,0.5,0.4,0.7c-0.1,0.1-0.1,0.1-0.2,0.1c-0.7,0.6-1,1-1,1c0,0,0.3-0.4,1-0.9c0.1-0.1,0.2-0.1,0.3-0.2
		c0.3-0.2,0.7-0.4,1.1-0.6c0.6-0.2,1.3-0.4,2-0.3c0.8,0.1,1.6,0.4,2.3,0.9c0.7,0.6,1.3,1.4,1.7,2.3c0.9,1.9,1.2,4.2,1.2,6.5
		C386.7,355.1,386.6,356.2,386.4,357.3z"/>
	<path d="M374.2,361.4c-0.2-0.5-0.4-1-0.5-1.6c-0.1-0.6-0.2-1.3-0.1-2c0.1-0.7,0.3-1.4,0.5-2c0.2-0.6,0.4-1.2,0.6-1.6
		c0-0.1,0.1-0.2,0.1-0.3c0,0,0,0,0-0.1c0,0,0,0,0,0c0.2-0.2,0.4-0.3,0.4-0.3c0,0-0.5,0.3-1.3,0.4c-0.8,0.1-2,0-3.2-0.4
		c-1.2-0.4-2.3-0.9-2.9-1.5c-0.6-0.6-0.8-1.1-0.8-1.1c0,0,0,0.1,0.1,0.4c0,0,0,0,0,0c0.1,0.2,0.2,0.6,0.5,0.9c0.5,0.7,1.6,1.5,3,1.9
		c1.3,0.4,2.6,0.4,3.5,0.1c0.2-0.1,0.3-0.1,0.4-0.2c0,0,0,0,0,0c-0.3,0.4-0.5,1-0.8,1.6c-0.3,0.6-0.5,1.3-0.6,2.1
		c-0.1,0.8,0,1.6,0.2,2.2c0.2,0.7,0.5,1.2,0.7,1.6c0.1,0.1,0.1,0.2,0.2,0.3c-0.2,0-0.3,0-0.5,0c-0.5,0-1.2,0-1.9,0.1
		c-0.7,0.1-1.5,0.3-2.3,0.6c-0.8,0.3-1.5,0.9-2,1.4c-0.5,0.5-0.9,1.1-1.1,1.6c0,0,0,0.1,0,0.1c0-0.3,0-0.5-0.1-0.8
		c-0.1-0.5-0.4-1.1-0.8-1.5c-0.4-0.5-0.9-0.8-1.4-1c-0.5-0.2-0.9-0.3-1.3-0.3c0,0,0,0,0,0c0.2-0.1,0.3-0.2,0.5-0.3
		c0.4-0.3,0.8-0.6,1.2-1c0.4-0.4,0.9-1,1.2-1.6c0.3-0.7,0.3-1.4,0.3-2c-0.1-0.6-0.2-1.1-0.3-1.6c-0.1-0.4-0.3-0.7-0.4-0.9
		c0.4-0.1,0.7-0.3,1.1-0.6c0.2-0.1,0.3-0.3,0.5-0.4c0.1-0.1,0.3-0.3,0.3-0.5c0.2-0.4,0.2-0.7,0.2-1c0-0.4-0.1-0.7-0.1-0.8
		c0,0,0,0,0,0s-0.1,0.3-0.2,0.8c-0.1,0.2-0.2,0.5-0.3,0.8c-0.1,0.1-0.2,0.2-0.3,0.4c-0.1,0.1-0.3,0.2-0.4,0.4
		c-0.6,0.5-1.2,0.7-1.7,0.9c-0.5,0.1-0.8,0.1-0.8,0.1s0.3,0.2,0.9,0.2c0.2,0,0.6,0,0.9-0.1c0,0.2,0.1,0.6,0.2,1
		c0.1,0.4,0.1,1,0.1,1.5c0,0.6-0.1,1.2-0.3,1.8c-0.2,0.6-0.6,1.1-1,1.5c-0.4,0.4-0.7,0.8-1,1.1c-0.6,0.6-1.1,1-1.1,1
		c0,0,0.1-0.1,0.4-0.2c0,0,0,0,0,0c0,0,0,0,0.1,0c0.1,0,0.2,0.1,0.3,0.1c0.4,0.1,0.8,0.3,1.2,0.5c0.4,0.2,0.8,0.5,1.2,0.9
		c0.7,0.8,0.9,1.8,1,2.5c0.1,0.7,0.1,1.2,0.1,1.2s0.2-0.4,0.2-1.2c0,0,0,0,0,0c0.1-0.1,0.2-0.3,0.3-0.5c0.6-0.8,1.6-2,3-2.6
		c1.4-0.6,2.9-0.9,4-1c1.1-0.1,1.7-0.2,1.7-0.2s-0.4-0.1-1-0.1C374.3,361.7,374.2,361.5,374.2,361.4z"/>
	<path d="M375.5,346.9c-1.2-0.6-2.9,0.5-2.9,0.5s1.5-0.4,2.6,0c1.3,0.6,1.7,2,1.7,2S377,347.6,375.5,346.9z"/>
	<path d="M365.7,371.8c-1,0-1.8-0.6-2.3-1c-0.5-0.5-0.7-0.9-0.7-0.9c0,0,0.1,0.5,0.5,1.1c0.2,0.3,0.5,0.7,0.9,1
		c0.4,0.3,1,0.5,1.6,0.5c0.6,0,1.2-0.1,1.6-0.4c0.5-0.2,0.8-0.5,1.1-0.8c0.5-0.5,0.7-1,0.7-1c0,0-0.3,0.3-0.9,0.7
		C367.6,371.4,366.7,371.9,365.7,371.8z"/>
	<path d="M357.4,365.2c-0.2-0.5-0.1-1,0.1-1.4c0.2-0.3,0.3-0.5,0.3-0.5c0,0-0.2,0.1-0.5,0.5c-0.1,0.2-0.2,0.4-0.3,0.6
		c-0.1,0.3-0.1,0.6,0,0.9c0.1,0.3,0.3,0.6,0.5,0.7c0.2,0.2,0.4,0.3,0.6,0.4c0.4,0.2,0.6,0.2,0.6,0.2s-0.2-0.1-0.5-0.3
		C357.9,366,357.5,365.7,357.4,365.2z"/>
	<path d="M379,357.4c0,0,0.1,0.2,0.1,0.6c0,0.4,0,0.9-0.2,1.4c-0.2,0.5-0.7,0.8-1,0.9c-0.4,0.1-0.6,0.1-0.6,0.2c0,0,0.2,0.1,0.6,0
		c0.2,0,0.4-0.1,0.7-0.2c0.2-0.1,0.5-0.4,0.6-0.7c0.1-0.3,0.2-0.6,0.2-0.9c0-0.3-0.1-0.5-0.1-0.7C379.2,357.5,379,357.4,379,357.4z"
		/>
	<path d="M359.7,354.3c-0.2,0.1-0.5,0.2-0.8,0.4c-0.3,0.2-0.6,0.5-0.7,0.9c-0.2,0.4-0.2,0.8-0.2,1.1c0,0.3,0.1,0.6,0.2,0.9
		c0.2,0.5,0.4,0.7,0.4,0.7s-0.1-0.3-0.2-0.7c-0.1-0.5-0.1-1.1,0.1-1.7c0.2-0.6,0.8-1,1.2-1.2c0.4-0.2,0.7-0.2,0.7-0.2
		C360.5,354.3,360.2,354.2,359.7,354.3z"/>
	<path d="M363.8,347c0.1-0.3,0.3-0.8,0.7-1.1c0.4-0.3,0.9-0.4,1.2-0.4c0.3,0,0.6,0.1,0.6,0.1c0,0-0.2-0.1-0.5-0.2
		c-0.2,0-0.4-0.1-0.7-0.1c-0.3,0-0.5,0.1-0.8,0.3c-0.2,0.2-0.4,0.4-0.5,0.7c-0.1,0.2-0.1,0.5-0.1,0.6c0,0.4,0,0.6,0,0.6
		S363.7,347.3,363.8,347z"/>
	<path d="M359.7,341.7c0,0-4.4-1.6-8.4-7.3c-4-5.6-4.4-12.1-4.4-12.1s-0.4,9.1,3.7,13.3C354.9,340,359.7,341.7,359.7,341.7z"/>
	<path d="M347.3,339.1c3.2,3.2,6.3,6.1,6.3,6.1s-3.5-5.1-5.7-7.4c-2.2-2.3-7.2-5.9-7.2-5.9S344.1,335.9,347.3,339.1z"/>
</g>
</svg>
