<?xml version="1.0" encoding="utf-8"?>
<!-- Generator: Adobe Illustrator 19.2.0, SVG Export Plug-In . SVG Version: 6.00 Build 0)  -->
<svg version="1.1" id="Capa_1" xmlns="http://www.w3.org/2000/svg" xmlns:xlink="http://www.w3.org/1999/xlink" x="0px" y="0px"
	 viewBox="0 0 425.2 425.2" style="enable-background:new 0 0 425.2 425.2;" xml:space="preserve">
<g>
	<path d="M300.8,159.4c0.6-10.1-2-20.4-8.1-29.3c-14.6-21.3-43.7-26.7-65-12c-10,6.9-16.5,17-19.1,28c-13.3-3.4-27.5-4.2-41.9-1.9
		c-44.4,6.9-78.1,40.4-87.3,81.8c-2.4,0.1-4.8,0.3-7.2,0.7c-36.6,5.7-61.8,39.9-56.1,76.6c5.6,36.6,39.9,61.8,76.6,56.1
		c14.6-2.3,27.4-9.1,37.1-18.8c20.2,11.7,44.3,16.8,69.2,13c44.3-6.8,77.9-40.2,87.2-81.4c7,1.7,14.4,2,21.9,0.9
		c31.2-4.8,52.6-34,47.8-65.2C351.5,180.1,327.9,160.1,300.8,159.4z M227.8,122.9c20-13.7,47.3-8.7,61.1,11.3
		c5.3,7.7,7.8,16.6,7.7,25.3c-2,0.1-4,0.3-6,0.6c-12.3,1.9-23,7.5-31.2,15.6c-13.2-13.8-30.1-24-48.8-29
		C213.3,137.3,219.2,128.8,227.8,122.9z M300.3,269.2c-6.9,1.1-13.6,0.7-20-0.8c-8.5,37.6-39.2,68.1-79.6,74.3
		c-24.8,3.8-48.8-2.1-68.2-15c-8.9,11.2-21.9,19.2-37.2,21.5c-32.3,5-62.6-17.2-67.5-49.5c-5-32.3,17.2-62.6,49.5-67.6
		c2.1-0.3,4.2-0.5,6.3-0.6c2.4,0,4.6,0.2,6.7,0.6c10,1.7,17.1,6.8,21.1,10.4c0,0-2-4.2-7.1-8.2c-3.2-2.5-7.5-5-13.3-6.4
		c7.8-38.7,38.9-70.2,80.1-76.5c12.5-1.9,24.8-1.3,36.4,1.3c0.5,0.1,1.1,0.2,1.6,0.4c17.9,4.4,34.1,13.9,46.7,27.1
		c7.5-7.4,17.3-12.5,28.5-14.3c4-0.6,7.9-0.7,11.8-0.5c1.3,0.1,2.5,0.2,3.8,0.4c22.1,3.2,40.4,20.5,44,43.7
		C348.3,238.1,328.8,264.8,300.3,269.2z"/>
	<path d="M401.7,85.8c-14.6-21.3-43.7-26.7-65-12c-21.3,14.6-26.6,43.7-12,65c14.6,21.3,43.7,26.7,65,12
		C411,136.1,416.4,107,401.7,85.8z M386.3,147.8c-19.3,13.3-45.8,8.4-59.1-10.9c-13.3-19.3-8.4-45.8,10.9-59.1
		c19.3-13.3,45.8-8.4,59.1,10.9C410.5,108,405.6,134.5,386.3,147.8z"/>
</g>
</svg>
