<?xml version="1.0" encoding="utf-8"?>
<!-- Generator: Adobe Illustrator 19.2.0, SVG Export Plug-In . SVG Version: 6.00 Build 0)  -->
<svg version="1.1" id="Capa_1" xmlns="http://www.w3.org/2000/svg" xmlns:xlink="http://www.w3.org/1999/xlink" x="0px" y="0px"
	 viewBox="0 0 425.2 425.2" style="enable-background:new 0 0 425.2 425.2;" xml:space="preserve">
<path d="M406.2,190.4c-4.3-5.8-9.7-10.9-16-14.2c-0.1-0.1-0.3-0.2-0.4-0.2c-3.1-1.6-2.2-2.1-2.9-5.6c-0.7-4.1-1.9-8.2-3.9-11.8
	c-0.7-1.2-1.4-2.3-2.1-3.4c-3.7-5.2-8.5-9.3-13.9-12c-4-2-8.3-3.2-12.7-3.5c-4.3-0.3-8.7,0.2-13.1,1.6c-0.6,0.2-1.3,0.4-1.9,0.7
	c-0.5,0.2-1,0.4-1.5,0.6c-0.1,0.1-0.3,0.1-0.5,0.2c-0.6,0.1-1.3,0.1-1.5-0.5c-1.6-3.7-3.6-7.2-5.9-10.5c-4.1-5.7-9.4-10.5-15.4-13.8
	c-5.7-3.2-12.1-5.1-18.9-5.2c-0.9,0-1.8,0-2.6,0c-17.4,0.6-32,10.6-39.6,26.4c-0.1,0.2-0.2,0.3-0.3,0.5c-0.5,0.7-1.5,1.2-2.2,0.9
	c-4.8-1.7-9.6-2.5-14.3-2.7c-8.5-0.2-16.8,1.9-24.4,6.5c-0.6,0.4-1.2,0.8-1.8,1.1c-0.2,0.1-0.3,0.2-0.5,0.3
	c-0.5,0.3-1.1,0.6-1.6,0.5c-0.3,0-0.6-0.2-0.9-0.6c-1-1.6-2-3-3.1-4.5c-8.5-11.5-19.9-19.6-32.4-24.1c-9.8-3.5-20.2-4.8-30.5-3.7
	c-14.7,1.6-29,8.1-40.6,20c0,0-0.1,0.1-0.1,0.1c-0.6,0.5-1.3,1-2.1,0.8c-3.1-1-6.3-1.5-9.3-1.6c-18.5-0.7-33.8,13.6-35.3,32.8
	c-0.1,0.7-0.1,1.4-0.1,2.1c0,0.4-0.1,0.8-0.4,1.1c-0.5,0.7-1.3,1.3-2.1,1.4c-18.4,0.5-33.6,15.6-33.9,33.8c0,1.5,0,3.1,0.2,4.7
	c0.3,2.5,0.8,4.8,1.5,7.1c1.7,5.4,4.5,10.2,8.1,14.2c6.3,6.8,15.1,11.2,25.2,11.4c0.9,0,1.2,0.7,1.2,1.5c0,0.8,0.1,1.5,0.1,2.3
	c0.1,0.7,0.1,1.4,0.2,2c0.3,2.1,0.7,4.1,1.3,6.1c1.6,5.3,4.4,10.1,8,14c9.1,10,23.5,14.6,38,9.3c0.3-0.1,1-0.1,1.2,0.2
	c17.1,18.8,44.7,22.4,65.3,7c0.7-0.5,1.4-0.8,2.2-0.3c23,15.4,52.5,12.6,72.4-6.5c0.4-0.4,1.3-0.7,1.8-0.5c10,4.9,20.7,6.3,31.6,3.9
	c0.5-0.1,1.2-0.1,1.5,0.5c0.5,1.1,1.1,2.2,1.7,3.3c1.8,3.3,4,6.3,6.4,9.1c5.7,6.4,12.9,11.2,21.4,14c0.6,0.2,0.8,0.8,0.8,1.4
	c0,0.5,0,1.1,0,1.6c0,0.8,0.1,1.6,0.2,2.3c0.3,2.4,0.8,4.7,1.7,7c1.4,3.9,3.6,7.6,6.2,10.8c0.7,0.9,0.4,2.1-0.4,2.9
	c-0.1,0.1-0.2,0.1-0.2,0.2c-0.5,0.4-0.9,0.7-1.4,1.1c-4,3.6-6.2,8.8-6.6,14c-0.2,2.8,0.2,5.7,1.2,8.3c0.9,2.6,2.5,5,4.5,7
	c1.8,1.6,3.9,3,6.5,3.8c15.7,5.2,27.7-8.9,23.5-24c-0.3-1.1,0.9-2.6,2-2.8c25-5.4,32.5-35.9,15.8-54.1c-0.6-0.7-0.5-1.4-0.1-2.2
	c1.9-3.9,3.3-7.8,4.4-12c0.2-1,1.3-2,2.4-1.9c0.4,0,0.8,0,1.3,0c37.4-0.7,60.2-43.6,40.9-75.6C408.4,193.5,407.3,191.9,406.2,190.4z
	"/>
</svg>
