<?xml version="1.0" encoding="utf-8"?>
<!-- Generator: Adobe Illustrator 19.2.0, SVG Export Plug-In . SVG Version: 6.00 Build 0)  -->
<svg version="1.1" id="Capa_1" xmlns="http://www.w3.org/2000/svg" xmlns:xlink="http://www.w3.org/1999/xlink" x="0px" y="0px"
	 viewBox="0 0 425.2 425.2" style="enable-background:new 0 0 425.2 425.2;" xml:space="preserve">
<path d="M397.9,159.6c-3.5-4.8-7.8-9-12.6-12.5c-1.1-0.8-2.3-1.5-3.5-2.2c-0.3-1.6-0.4-3.5-0.6-4.4c-1-4.2-2.9-8.1-5.1-11.7
	c-1.2-1.9-2.6-3.7-4-5.3c-9.6-13.6-27.2-17.9-42.5-12.5c-1.8-3.3-3.9-6.3-6.3-9c-8.6-11.8-21.9-19.2-37.2-19.5
	c-18-0.4-34,11.1-42.2,26.6c-13.7-4.3-27.7-2.3-39.8,5.4c-1-1.3-2-2.5-3-3.7c-11.4-15.2-27.9-25.2-47-27.8
	c-21.2-2.9-42.1,5.7-57.1,20.5C73,97,50.9,114.7,49,138.6c-19.4,1.6-33.8,17.4-35.2,36.8c-0.8,10.5,3,20.2,9.6,27.4
	c5.9,8.4,15.3,14.4,25.9,15.8c1.1,8.2,4.6,15.5,9.7,21.1c7.8,11,21.1,17.4,36.1,15c4.8-0.8,5.5-1.1,9.2,2.3c2.5,2.3,5.3,4.2,8.2,5.9
	c5.4,3.3,11.8,5.5,18.1,6.2c13,1.5,25.2-1.9,35.8-9.4c12.9,8.3,27.6,11.3,42.9,8.8c7.4-1.3,14.5-4.4,20.9-8.4c3-1.9,5.7-4.1,8.3-6.4
	c1.1-1,10.1,2.9,11.8,3.3c3.7,0.8,7.6,1,11.4,0.9c2.7-0.1,5.2-1.2,7.2-0.3c1.5,2.5,3.2,4.9,5.2,7.1c3,4.2,6.8,7.9,10.9,11
	c2.6,2,5.6,3.6,8.6,5c0.2,0.1,1,0.5,1.9,0.9c0,0.3,0.1,0.5,0.1,0.8c0.6,6.3,3.4,12.1,7.2,17.1c-10,9-10.7,24.4-1.7,33.4
	c2.2,3.5,5.5,6.5,9.9,8.4c17.1,7.5,31.5-10.9,28.8-26.6c24.8-7.1,33.6-38.4,16.7-58c1.4-3.1,2.6-6.2,3.5-9.5
	c37.5-1.1,60.2-40.9,46.1-74.7C404,167.7,401.2,163.5,397.9,159.6z M357.5,239.7c-0.4,0-0.8,0-1.2,0c-1,0-2.1,1-2.3,1.9
	c-1,4.1-2.4,7.9-4.2,11.7c-0.4,0.7-0.5,1.5,0.1,2.1c16.2,17.7,8.9,47.2-15.3,52.5c-1,0.2-2.2,1.6-1.9,2.8
	c4.1,14.6-7.6,28.3-22.8,23.2c-2.5-0.8-4.6-2.1-6.3-3.7c-2-1.9-3.5-4.2-4.4-6.7c-0.9-2.6-1.3-5.3-1.1-8.1c0.3-5.1,2.5-10.1,6.4-13.6
	c0.4-0.4,0.8-0.7,1.3-1.1c0.1-0.1,0.2-0.1,0.2-0.2c0.8-0.7,1.1-1.9,0.4-2.8c-2.5-3.1-4.6-6.6-6-10.4c-0.8-2.2-1.4-4.5-1.6-6.8
	c-0.1-0.8-0.1-1.5-0.2-2.3c0-0.5,0-1,0-1.5c0-0.6-0.2-1.2-0.8-1.4c-8.3-2.7-15.2-7.4-20.7-13.6c-2.3-2.7-4.4-5.6-6.2-8.8
	c-0.6-1-1.1-2.1-1.6-3.2c-0.3-0.6-0.9-0.6-1.5-0.5c-10.6,2.3-20.9,1-30.6-3.8c-0.5-0.3-1.4,0.1-1.8,0.5
	c-19.3,18.5-47.9,21.2-70.2,6.3c-0.7-0.5-1.5-0.2-2.1,0.3c-20,14.9-46.7,11.4-63.3-6.8c-0.3-0.3-0.9-0.3-1.2-0.2
	c-14.1,5.1-28,0.7-36.8-9c-3.5-3.8-6.2-8.4-7.8-13.6c-0.6-1.9-1-3.9-1.3-5.9c-0.1-0.6-0.2-1.3-0.2-2c-0.1-0.7-0.1-1.4-0.1-2.2
	c0-0.8-0.3-1.4-1.2-1.4c-9.9-0.3-18.4-4.5-24.5-11.1c-3.5-3.9-6.2-8.6-7.9-13.8c-0.7-2.2-1.2-4.5-1.5-6.9c-0.2-1.5-0.3-3.1-0.2-4.6
	c0.3-17.7,15-32.3,32.8-32.8c0.8,0,1.6-0.6,2-1.3c0.2-0.3,0.3-0.7,0.3-1.1c0-0.7,0.1-1.4,0.1-2c1.4-18.7,16.3-32.5,34.2-31.8
	c2.9,0.1,5.9,0.6,9,1.5c0.8,0.2,1.5-0.2,2-0.7c0,0,0.1-0.1,0.1-0.1c11.2-11.5,25.1-17.8,39.3-19.3c10-1.1,20.1,0.1,29.6,3.6
	c12.1,4.4,23.1,12.3,31.4,23.4c1,1.4,2.1,2.8,3,4.3c0.2,0.4,0.5,0.5,0.8,0.6c0.5,0.1,1.1-0.2,1.5-0.5c0.2-0.1,0.3-0.2,0.5-0.3
	c0.6-0.4,1.1-0.8,1.7-1.1c7.3-4.5,15.4-6.6,23.7-6.3c4.6,0.1,9.3,1,13.9,2.6c0.8,0.3,1.6-0.2,2.2-0.9c0.1-0.2,0.2-0.3,0.3-0.5
	c7.3-15.4,21.5-25,38.4-25.6c0.8,0,1.7-0.1,2.6,0c6.6,0.1,12.8,2,18.3,5c5.9,3.3,10.9,7.9,14.9,13.4c2.3,3.2,4.2,6.6,5.7,10.2
	c0.3,0.6,0.9,0.6,1.5,0.5c0.2,0,0.3-0.1,0.5-0.2c0.5-0.2,1-0.4,1.5-0.6c0.6-0.2,1.2-0.5,1.9-0.7c4.3-1.4,8.6-1.9,12.7-1.6
	c4.3,0.3,8.5,1.5,12.3,3.4c5.2,2.6,9.9,6.5,13.5,11.6c0.7,1,1.4,2.1,2.1,3.3c2,3.5,3.1,7.5,3.8,11.5c0.6,3.4-0.2,3.9,2.8,5.4
	c0.1,0.1,0.3,0.2,0.4,0.2c6.2,3.2,11.4,8.1,15.5,13.8c1.1,1.5,2.1,3,3.1,4.6C415.9,197.4,393.8,239,357.5,239.7z"/>
</svg>
