<?xml version="1.0" encoding="utf-8"?>
<!-- Generator: Adobe Illustrator 19.2.0, SVG Export Plug-In . SVG Version: 6.00 Build 0)  -->
<svg version="1.1" id="Capa_1" xmlns="http://www.w3.org/2000/svg" xmlns:xlink="http://www.w3.org/1999/xlink" x="0px" y="0px"
	 viewBox="0 0 425.2 425.2" style="enable-background:new 0 0 425.2 425.2;" xml:space="preserve">
<path d="M397.7,349c-2.2-7.7-7-11.6-12.3-12.7c0.4-1,0.7-1.9,1-2.9c21.1-18.3,16.1-41.9-0.9-55.3c-1.1-10.3-5.1-16.9-10.4-22.1
	l-1.3-1.1c14-20.9,16-48.6,0.8-71.6c30.3-75.1-18.1-107.7-76.1-103.6c-32.2-46.3-107.5-64.4-152-7.8c-40.2-21.8-111.3-3-98.9,72.4
	c-45.8,27-49.5,91.3,13.1,118.9c8.1,35.8,25,55.5,46.9,64.8c24.2,10.3,54.6,7.1,85.6-7.6c30.8,23.2,62.6,23.1,88,7
	c3.1,4.6,7.1,8.8,11.9,12.5c9,25.9,25.6,32.9,49.4,20.3c3,0.8,5.8,1.2,8.5,1.3c-0.7,8.3,7.2,16.1,15.1,16
	c8.2,15.8,26.9,13.9,33.3,1.1c6.5-0.7,10.9-6.1,11.9-12.2C412.7,358.9,408.6,350.4,397.7,349z M197.6,318.3
	c7.9-4,15.8-8.7,23.6-14.1c-10.5,4.4-20.4,8-29.8,10.8c-5-2.8-10-6.1-15-9.8c3.8,4,7.6,7.6,11.4,10.8
	c-59.7,16.6-97.4-0.6-121.4-50.5c4.6,1.8,9.5,3.3,14.7,4.7c-5.5-1.8-10.7-4-15.6-6.4c-2.9-6.3-5.7-13.1-8.2-20.5
	c0.7,6.2,1.7,12.1,2.9,17.6c-44.5-26-54.2-78.9-12.1-113.8c1.2,6.6,3.1,13.6,5.7,21c-2.2-7.8-3.5-15.3-3.9-22.4
	c3.5-2.8,7.3-5.4,11.5-7.9c-4.1,1.5-8,3.3-11.6,5.3c-2-56.3,48.3-86,94.9-68.8c-2.1,2.8-4.1,5.8-6.1,9c2.7-2.9,5.5-5.6,8.2-8.2
	c4.2,1.7,8.3,3.7,12.4,6.2c-3.1-3-6.5-5.7-10.3-8c51.5-46.1,105.6-29.1,145.3,6.8c-4.3,0.4-8.7,1.1-13,1.9
	c5.6,0.1,10.9,0.4,16.1,0.9c2.8,2.6,5.4,5.3,8.1,8.1c-1.3-2.7-2.8-5.3-4.4-7.8c57.6,5.8,85.1,31.5,71.5,96.8
	c-4-5.3-8.9-10.3-14.9-14.9c5.8,6.9,10.3,13.9,13.5,21c-1,4-2,8.1-3.3,12.4c1.6-3.2,3.1-6.4,4.5-9.5c9.1,22.2,6.1,44.3-5.5,61.7
	c-4.6-1.7-9.8-2.2-15.7-1.4c-23.6-10.9-45.5,2.3-47,22.5c-27.6,9-34.4,29.4-27.1,47.5C253.6,332.3,226.5,332.8,197.6,318.3z
	 M347.2,357.5c1.9-1.2,3.8-2.4,5.8-3.8c-3.5,1.3-6.8,2.5-9.9,3.5c-4.8-0.5-9.9-1.7-15.2-3.6c3.6,2.2,7.2,3.9,10.5,5.1
	c-18.7,5.5-30,3.6-41.1-16.1c3.1,2,6.5,3.7,10.2,5.2c-5.1-3.4-9.4-7-13-10.7c-1.6-3.3-3.2-6.9-4.8-10.9c0.6,2.7,1.2,5.3,1.8,7.7
	c-2.5-3-4.6-6-6.3-9c-1-1.9-1.9-3.8-2.6-5.7c-0.3-0.9-0.6-1.7-0.8-2.6c-4.6-16.2,3.1-32.2,22.4-42.9c0,3.3,0.5,6.9,1.6,10.5
	c0.2,0.7,0.5,1.3,0.7,2c0.5,1.3,1.1,2.7,1.7,4c-0.3-1.4-0.6-2.7-0.9-4c-0.1-0.7-0.3-1.4-0.4-2.2c-0.6-4.4-0.6-8.3-0.1-11.8
	c1.8-0.9,3.7-1.8,5.7-2.6c-1.9,0.4-3.7,0.9-5.5,1.3c3.2-16.2,18.3-23.1,36.2-20c-5.5,1.6-11.3,4.2-17.4,7.7
	c11-3.5,26.1-8.7,38.2-4.2c1.3,0.5,2.6,1.1,3.8,1.8c1.1,0.7,2.2,1.5,3.3,2.4c1,0.9,2,1.9,3,3c3.1,3.8,6,7.9,8.2,13.8
	c0,0.1,0.1,0.2,0.1,0.3c0,0,0,0-0.1,0c-2.3-1.5-4.8-2.8-7.4-4c3,2.2,5.7,4.6,8.1,7.1c0.2,0.2,0.3,0.4,0.5,0.6
	c0.1,0.4,0.2,0.8,0.3,1.2c0.7,3,1.3,6.3,1.7,10.1c0.2-2.8,0.3-5.3,0.3-7.7c0-0.4,0-0.7,0-1.1c2.2,2.7,4.1,5.5,5.6,8.3
	c6.1,11.6,5.8,24.8-3.8,37.9c1.1-6.3,1-12.8-0.6-18.6c0.1,9.1-1.3,17.2-4,24.1c-0.7,0.8-1.5,1.6-2.4,2.4c-6.2,0.6-12.3,4.7-15.2,11
	c-7.3,2.7-11.4,6.4-13.2,10.3C350.6,357.5,348.9,357.6,347.2,357.5z M408.8,365.9c-0.9,4.3-3.9,8-8,9.8c0.6-1.8,0.9-3.7,1-5.7
	c-0.8,2.4-1.8,4.5-3,6.4c-4.1,1-9,0.1-14.2-3.6c4.6,3.9,8.9,5.6,12.6,5.9c-7.8,9.9-20.4,10-29.7-1.3c1.1-0.1,2.2-0.4,3.2-0.9
	c-1.3,0.1-2.6,0.1-3.9,0c-0.8-1.1-1.6-2.3-2.4-3.6c0.4,1.2,0.9,2.3,1.4,3.4c-7.7-1.3-13.2-7.6-12.1-14.9c0.1-0.8,0.4-1.7,0.7-2.5
	c0.2-0.6,0.5-1.3,0.9-1.9c1.8-3.4,5-6.8,10.2-9.9c0,0,0,0,0,0v0c-0.7,1.6-1.3,3.4-1.5,5.3c3.2-8,8.7-12.8,14.5-14.2
	c0.8-0.2,1.5-0.3,2.3-0.4c0.2,0,0.3,0,0.5,0c0.7,0,1.3,0,2,0c0.6,0,1.1,0.1,1.7,0.2c5.6,1.1,10.7,5.4,13.5,13.2
	c-0.2-0.7-0.3-1.5-0.5-2.2C407.2,352.8,410,359.9,408.8,365.9z"/>
</svg>
