<?xml version="1.0" encoding="utf-8"?>
<!-- Generator: Adobe Illustrator 19.2.0, SVG Export Plug-In . SVG Version: 6.00 Build 0)  -->
<svg version="1.1" id="Capa_1" xmlns="http://www.w3.org/2000/svg" xmlns:xlink="http://www.w3.org/1999/xlink" x="0px" y="0px"
	 viewBox="0 0 425.2 425.2" style="enable-background:new 0 0 425.2 425.2;" xml:space="preserve">
<g>
	<g>
		<path d="M338.3,176.3l36.3-32.8l-20-6.2l41.7-47.5l-67.2,53.1l21.2,8.8l-18.3,21.8c0,0-0.1,0-0.1,0c-1.9-0.8-3.9-1.4-5.9-1.9
			c-9.4-2.5-18.9-2.7-28.2-2.7c2.2-10.8,4.4-22.8,2.3-34.4c-2.6-14.4-11.4-26.1-23.6-31.5c-2.3-1-4.7-1.9-7.1-2.5
			c-4.3-1.2-8.6-1.7-12.6-1.5l5.6-30.5l-14.9,5.5l3.2-47.6L235,88.9l16.7-4.5l-0.6,15.1c-5.9,1.1-11.3,3.7-15.6,7.7l-9,8.3
			c-2.7-3.9-5.6-7.9-8.6-11.7c-8.4-10.8-21.2-19.1-35.2-22.9c-9.1-2.5-18.5-2.9-27.2-1.4c-21.3,3.9-38.8,22.1-43.4,45.2
			c-1.4,7.1-1.6,14.3-1.7,21.3l-13.2-1.4l-0.6,0c-18.6,0.4-36.8,9.2-49.9,24.2c-6.9,7.9-18.4,24-17.8,42.3
			c0.8,23.2,17.5,42.8,31.6,52.6c6,4.1,12.3,7.4,18.6,10.6c-5.4,5.9-10.7,12.6-12.5,20.7c-6.9,30.5,17.2,54,44.6,61.4
			c24.5,6.6,44.7-2.1,50.6-7.3l7.3-6.5c4.1,3.8,8.3,7.7,13,11.2c6.3,4.7,13.4,8.1,21,10.1c13.1,3.5,27.1,2.7,39.6-2.4
			c25-10.2,33.9-35.6,40.4-57.4c13.7,1.2,27.8,2,42.2-3.3c26.4-9.6,47.1-34.5,50.2-60.6C378.5,215.3,362.8,188.9,338.3,176.3z
			 M352.2,242.6c-2.8,23-21.3,43.4-42.7,51.2c-14.5,5.3-29,3.4-43.9,2c-6.3,21.3-13,47.2-35.8,56.4c-16.6,6.7-35.5,4.2-49.9-6.4
			c-6.2-4.6-11.7-10.3-17.4-15.4l-12.9,11.4c-3.7,3.3-20.3,10.6-40.7,5.1c-21.7-5.8-42.2-24.4-36.7-48.8
			c2.1-9.3,11.8-17.3,17.6-24.4c-9-4.7-18.6-8.9-26.9-14.6c-13.8-9.5-26.1-26.4-26.7-43.8c-0.4-12.6,7-25.5,15-34.7
			c10.6-12.1,25.4-20,41.6-20.3l21.4,2.2c0.3-9.3-0.2-19.2,1.6-28.3c3.5-17.6,16.6-33.3,34.8-36.7c18.7-3.4,40.1,5.2,51.7,20.1
			c4.8,6.1,9.1,12.6,13.6,18.9L232,122c5.1-4.7,11.8-6.2,18.4-5.7l-1,23.3l4.2-22.9c3,0.5,6,1.4,8.7,2.7
			c9.6,4.3,15.8,13.8,17.7,23.9c2.4,13.1-1.9,27.3-4.3,40.2c13.3,0.2,27.6-1.1,40.2,3.8c1.2,0.5,2.3,0.9,3.4,1.5l-15.9,19l19.2-17.4
			C340.9,200.7,354.8,221.2,352.2,242.6z"/>
		<polygon points="345.9,83.1 364.6,36.4 344.8,67.9 338,57.6 313.6,108.6 337.4,72.6 		"/>
		<path d="M71.9,45.7c0,0,0.5,0.4,1.6,1.1c0.6,0.3,1.3,0.5,2.2,0.8c0.9,0.2,2.1,0.4,3.1,0.3l0.7,0c0,0,0.1,0,0.1,0
			c1.1,0.9,2.5,1.7,3.5,3c1.2,1.2,2.2,2.8,3.2,4.4c0.4,0.9,0.9,1.8,1.3,2.7c0.4,0.9,0.7,1.9,1.1,2.9c0.3,1,0.6,2.2,0.9,3.3
			c0.2,1.1,0.5,2.2,0.7,3.3c0.4,1.8,0.8,4,0.9,5.6c0,0.1,0,0.3-0.1,0.4c0,0.2,0,0.4,0,0.7c0,0.1,0,0.4,0.1,0.6c0-0.1,0,0.4,0.6,1
			c0.7,0.7,1.9,0.6,2.3,0.4c0.6-0.3,0.7-0.5,1-0.9c0.4-1,0.2-0.8,0.3-0.9c0-0.4,0-0.8,0-1.2c0-0.1,0-0.1,0-0.2
			c0.1-0.5,0.2-0.9,0.4-1.4c0.3-0.9,0.8-1.8,1.4-2.6c1.2-1.6,2.8-2.9,4.6-3.8c1.8-0.9,3.8-1.6,5.7-2c1-0.3,1.8-0.3,2.7-0.4
			c0.9-0.1,1.7,0,2.5,0.2c2.3,0.5,4,1.8,5.2,3.2c0.1,0.2,0.2,0.5,0.3,0.7c0.7,1.3,1.6,2.4,2.3,3.1c0.7,0.7,1.1,1,1.1,1
			s-0.1-0.6-0.4-1.4c-0.1-0.4-0.3-0.9-0.5-1.4c-0.1-0.6-0.2-1.3-0.3-2.1c-0.1-0.5,0.1-1.4,0-2.2c-0.1-0.8,0.1-1.6,0.3-2.4
			c0.1-0.8,0.3-1.7,0.6-2.5c0.3-0.8,0.4-1.7,0.9-2.5c0.7-1.7,1.7-3.2,2.6-4.7c0.5-0.7,1.1-1.4,1.5-2c0.5-0.7,1-1.1,1.5-1.6
			c0.5-0.5,0.9-1.1,1.4-1.4c0.3-0.2,0.5-0.4,0.8-0.6c0.1,0,0.3-0.1,0.4-0.1c0.9-0.5,1.3-0.8,1.3-0.8s-0.2,0-0.5,0
			c0.3-0.2,0.4-0.4,0.4-0.4s-0.5,0-1.4,0.2c-0.3,0-0.5,0.1-0.8,0.1c-0.8-0.1-1.9-0.1-3-0.5c-0.7-0.1-1.4-0.5-2.2-0.9
			c-0.8-0.3-1.4-1-2.1-1.4c-1.3-1.2-2.6-2.7-3.3-4.4l-0.7-1.2l-0.5-1.6l-0.3-0.8l-0.1-0.2l0,0l-0.1-0.3l-0.3-1.4
			c-0.3-0.9-0.3-1.8-0.3-2.6c-0.1-0.9-0.1-1.7,0.2-2.3c0.2-0.7,0.2-1.4,0.4-2.1c0.3-0.6,0.5-1.2,0.8-1.6c0.4-0.9,0.6-1.5,0.6-1.5
			s-0.5,0.3-1.2,1c0.1-0.4,0.2-0.8,0.3-1.2c0.3-1.1,0.4-1.7,0.4-1.7s-0.4,0.5-1.1,1.4c-0.4,0.4-0.7,1.1-1.3,1.5
			c-0.6,0.4-1.3,0.9-1.9,1.5c-0.6,0.5-1.6,0.8-2.4,1.4c-0.8,0.6-1.9,0.6-2.8,1c-0.4,0.2-2.4,0.3-3.1,0.1c-0.9-0.2-1.9-0.3-3.1-0.7
			c-2.2-0.5-4.4-1.5-6.3-2.5c-1-0.5-1.8-1.1-2.7-1.6c-0.9-0.5-1.5-1.2-2.1-1.8c-0.7-0.6-1.2-1.2-1.5-1.8c-0.4-0.6-0.8-1.1-1-1.6
			c-0.4-1-0.7-1.6-0.7-1.6s0,0.2,0,0.5c-0.2-0.4-0.3-0.6-0.3-0.6s0.1,2.8,0.7,7c0.1,1,0.4,2.3,0.5,3.2c0.1,1.2,0.1,2.5,0.3,3.7
			c0,1.3-0.3,2.3-0.3,3.5c-0.1,1.2-0.7,2.3-1,3.5c-0.6,1-1,2.2-1.8,3.1c-0.8,0.9-1.4,1.9-2.4,2.6c-0.8,0.8-1.8,1.4-2.7,2
			c-0.5,0.3-0.9,0.4-1.4,0.7c-0.2,0.1-0.5,0.3-0.6,0.3l-0.8,0.2c-0.4,0.1-0.7,0.2-1,0.3c-0.3-0.1-0.7-0.1-1-0.2
			c-2.2,0-3.4,0.1-3.4,0.1s0.5,0.1,1.4,0.3c-0.2,0-0.5,0-0.7,0C72.7,45.8,71.9,45.7,71.9,45.7z M117.4,34.6L117.4,34.6L117.4,34.6
			C117.4,34.6,117.4,34.6,117.4,34.6z M82.5,47.2c1.2-0.6,2.5-1,3.6-2c1.2-0.8,2.3-1.8,3.3-3c1-1.1,1.7-2.6,2.4-4
			c0.4-1.5,1-3,1.1-4.5c0.1-1.5,0.1-3.2,0-4.5c-0.2-1.3-0.5-2.4-0.8-3.6c0.7,0.7,1.3,1.4,2.2,1.8c1.1,0.7,2.1,1.5,3.4,2
			c1.2,0.6,2.4,1.1,3.8,1.4c1.2,0.4,2.8,0.6,4.3,0.7c0.8,0.1,1.4,0,2-0.1l0.9-0.1l0.2,0c0.6-0.1,0.3-0.1,0.5-0.1l0.5-0.2
			c1.2-0.6,2.5-1,3.4-1.8c0.3-0.3,0.6-0.5,0.9-0.8c-0.2,0.5-0.3,1-0.3,1.5c-0.2,1-0.5,2.2-0.3,3.3l0.1,1.8l0,0.5l0,0.1v0l0,0.2l0,0
			l0,0.2l0.2,0.8l0.5,1.6l0.8,1.8c1.2,2.3,2.9,4.2,4.9,5.5c1.1,0.6,2,1.2,3.1,1.4c0.6,0.2,1.2,0.3,1.7,0.4c-0.2,0.1-0.5,0.3-0.6,0.5
			c-0.7,0.6-1.6,1.2-2.3,1.9c-0.6,0.8-1.4,1.6-2,2.5c-0.6,0.9-1,1.9-1.6,2.9c-0.5,1-0.7,2.1-1,3.2c-0.4,1-0.3,2.2-0.3,3.2
			c-0.1,0.7,0,1.4,0.1,2.1c-1-1-2.2-2-3.8-2.6c-1-0.3-2-0.7-3.1-0.7c-1.1-0.1-2.2-0.1-3.3,0.1c-2.3,0.2-4.5,0.7-6.8,1.7
			c-2.2,0.9-4.3,2.4-6,4.4c-0.5-2.3-1.3-4.6-2-6.6c-0.5-1.1-1-2.2-1.5-3.3c-0.6-1-1.2-1.9-1.8-2.9c-1.3-1.8-2.6-3.4-4.2-4.5
			c-0.9-0.9-1.9-1.4-2.9-1.9C82.1,47.3,82.3,47.3,82.5,47.2z"/>
		<path d="M317.9,384.8c0,0-0.5-0.1-1.5-0.2c-0.4-0.1-1.1,0-1.6-0.3c-0.6-0.2-1.2-0.5-1.8-0.7c-0.6-0.2-1.3-0.8-1.9-1.1
			c-0.7-0.3-1.2-1.1-1.8-1.5c-0.2-0.1-1.2-1.6-1.4-2.1c-0.3-0.7-0.6-1.4-0.8-2.4c-0.6-1.8-0.9-3.7-1.1-5.4c-0.1-0.9,0-1.7-0.1-2.5
			c-0.1-0.8,0.1-1.5,0.2-2.3c0.1-0.7,0.2-1.3,0.5-1.9c0.2-0.5,0.4-1.1,0.6-1.5c0.5-0.8,0.8-1.3,0.8-1.3s-0.1,0.1-0.4,0.2
			c0.2-0.3,0.2-0.5,0.2-0.5s-2,1.3-4.7,3.5c-0.6,0.5-1.5,1.3-2,1.7c-0.8,0.6-1.7,1.2-2.5,1.8c-0.9,0.6-1.7,0.8-2.5,1.3
			c-0.8,0.4-1.9,0.5-2.8,0.8c-1,0-1.9,0.3-2.9,0.2c-1-0.1-1.9-0.1-2.8-0.4c-0.9-0.2-1.7-0.6-2.6-0.9c-0.4-0.2-0.7-0.4-1.1-0.6
			c-0.1-0.1-0.4-0.3-0.5-0.2l-0.5-0.4c-0.4-0.3-0.6-0.5-0.8-0.7c-0.1-0.2-0.2-0.3-0.2-0.5c-1-1.5-1.6-2.3-1.6-2.3s0.1,0.2,0.2,0.7
			c0,0,0,0,0,0c-0.4-0.9-0.7-1.5-0.7-1.5s-0.1,0.6-0.1,1.7c0,0.5,0.2,1.2,0.3,2c0.3,0.7,0.6,1.7,1.2,2.4l0.4,0.6c0,0,0,0,0,0
			c-0.2,1.1-0.1,2.4-0.6,3.7c-0.3,1.4-1,2.7-1.7,4.1c-0.8,1.4-1.8,2.8-2.9,4.1c-0.6,0.7-1.3,1.4-1.9,2.1l-2,2
			c-1.1,1-2.5,2.3-3.5,3.1c-0.1,0.1-0.2,0.1-0.3,0.1c-0.1,0.1-0.3,0.2-0.5,0.3c0,0-0.3,0.2-0.5,0.4c0.1-0.1-0.5,0.3-0.6,1.2
			c-0.1,1,0.7,1.9,1,2c0.5,0.3,0.8,0.3,1.2,0.3c1.1-0.2,0.7-0.2,0.9-0.2c0.3-0.2,0.6-0.4,0.9-0.6l0.1,0c0.3-0.1,0.7-0.3,1.1-0.4
			c0.8-0.2,1.6-0.2,2.3-0.2c1.6,0.1,3.2,0.6,4.6,1.5c1.4,0.8,2.8,1.9,3.9,3c0.6,0.5,1.1,1.1,1.5,1.7c0.5,0.6,0.7,1.2,1,1.8
			c0.7,1.6,0.6,3.3,0.3,4.7c-0.2,0.2-0.3,0.5-0.5,0.7c-0.6,1.1-0.9,2.2-1,3.1c-0.1,0.8-0.1,1.2-0.1,1.2s0.4-0.3,0.8-0.9
			c0.3-0.3,0.5-0.6,0.8-0.9c0.4-0.3,0.9-0.7,1.4-1.1c0.3-0.3,1-0.6,1.5-0.9c0.5-0.4,1.1-0.6,1.8-0.8c0.6-0.3,1.3-0.5,2-0.7
			c0.7-0.1,1.4-0.5,2.1-0.5c1.5-0.3,2.9-0.3,4.4-0.4c1.4,0.1,2.8,0.1,3.9,0.4c0.6,0.1,1.1,0.1,1.6,0.3c0.3,0.1,0.6,0.2,0.9,0.3
			c0.1,0,0.1,0.1,0.2,0.1c0.8,0.4,1.2,0.5,1.2,0.5s-0.1-0.1-0.2-0.3c0.2,0.1,0.4,0.1,0.4,0.1s-0.2-0.4-0.7-1
			c-0.1-0.2-0.3-0.4-0.5-0.6c-0.3-0.6-0.7-1.4-0.8-2.3c-0.2-0.6-0.2-1.2-0.3-1.9c-0.1-0.6,0.1-1.4,0.1-2c0.3-1.4,0.8-2.9,1.6-4.1
			l0.5-1l0.8-1.1l0.4-0.5l0.1-0.1l0.2-0.2l0.8-0.8c0.5-0.6,1.1-1,1.6-1.4c0.6-0.4,1.1-0.8,1.6-1c0.5-0.2,1-0.6,1.6-0.7
			c0.6-0.1,1.1-0.2,1.5-0.3c0.8-0.2,1.3-0.3,1.3-0.3s-0.4-0.2-1-0.4c0.3-0.1,0.5-0.2,0.7-0.3C317.4,385,317.9,384.8,317.9,384.8z
			 M309.4,385.5c-0.9,0.3-1.8,0.6-2.5,1.3l-1.2,0.9l-0.3,0.2l-0.1,0.1l0,0l-0.1,0.1l0,0l-0.1,0.1l-0.4,0.5c-0.6,0.6-1.2,1.4-1.8,2.4
			c-1.1,1.9-1.6,4-1.7,6.1c0.1,1.4,0.3,2.7,0.8,3.8c-0.8-0.3-1.6-0.6-2.5-0.8c-1.7-0.3-3.6-0.4-5.5-0.1c-0.9,0.1-1.8,0.5-2.7,0.8
			c-0.9,0.2-1.7,0.8-2.5,1.3c-0.4,0.2-0.7,0.4-1,0.7c0.2-1,0.3-2.1,0-3.3c-0.3-1.7-1.2-3.5-2.4-4.9c-1.2-1.5-2.5-2.9-4.3-4.1
			c-1.5-1-3.3-1.8-5.3-2.2c1.2-1.3,2.3-2.7,3.3-3.9c1.2-1.7,2.1-3.4,2.9-5.1c0.6-1.7,1.2-3.4,1.3-5.1c0.2-0.8,0.1-1.6,0.1-2.4
			c0.9,0.6,1.9,1.4,3,1.8c1.1,0.5,2.4,0.8,3.7,1c1.3,0.2,2.6,0,4-0.1c1.3-0.4,2.6-0.7,3.7-1.3c1.1-0.7,2.4-1.4,3.2-2.1
			c0.5-0.5,1-1,1.5-1.5c-0.1,0.5-0.2,1-0.1,1.4c0,1.1-0.2,2.2,0.1,3.3c0.1,1.1,0.3,2.2,0.7,3.3c0.3,1.1,0.8,2.3,1.5,3.4
			c0.3,0.6,0.6,1,1,1.3l0.5,0.6l0.1,0.1c0.4,0.4,0.2,0.2,0.3,0.3l0.4,0.2c1,0.6,1.9,1.3,2.9,1.5c0.1,0,0.1,0,0.2,0.1
			C309.7,385.3,309.5,385.4,309.4,385.5z"/>
	</g>
	<polygon points="207.9,286.4 211.8,296.2 217.2,287.1 227.6,286.4 220.7,278.5 223.2,268.3 213.6,272.5 204.7,266.9 205.7,277.4 
		197.6,284.1 	"/>
	<polygon points="207.1,288.2 213.5,299.3 218.4,287.5 230.9,284.8 221.2,276.5 222.6,263.8 211.6,270.5 200,265.2 202.9,277.7 
		194.3,287.2 	"/>
</g>
</svg>
