<?xml version="1.0" encoding="utf-8"?>
<!-- Generator: Adobe Illustrator 19.2.0, SVG Export Plug-In . SVG Version: 6.00 Build 0)  -->
<svg version="1.1" id="Capa_1" xmlns="http://www.w3.org/2000/svg" xmlns:xlink="http://www.w3.org/1999/xlink" x="0px" y="0px"
	 viewBox="0 0 425.2 425.2" style="enable-background:new 0 0 425.2 425.2;" xml:space="preserve">
<path d="M392.9,129.7c3.2-5,5.9-10.5,7.4-16.3c2.1-8.7,0.6-18.1-4.5-25.2l-1.2-0.9c-1.1-6.6-5.1-12.3-9.1-17.3
	c-6.4-5.5-13.9-7.8-21.8-10.1c-13-1.2-25,3.1-35.7,9.1c-4.5,3.8-9.1,6.9-12.1,12c-1.6,1.8-1.3,4.8-3.6,5.9c-1-1.6-1.9-3.4-2.3-5.3
	c-1.5-1.9-3-4-5-5.6c-8-4.6-18.5-2.9-25.7,2.2c-0.7,0.3-1.6,1-2.4,0.4c0.2-7.8-1.9-15.8-9.3-19.5c-3.5-1.7-7.8-1.4-11.6-1.6
	c-4.7-0.4-7.7,3.4-12,3.9l-0.5-0.5c1.3-6.7,1.2-14-1.3-20.1c-2.7-5.8-8-11.4-13.8-14.4c-2.3-0.9-4.7-1.4-7.1-2.2
	c-7.6-2.2-15.7-1.5-23.2-0.7c-6.8,2.3-14.1,3.8-19.7,8.6c-7.4,4.1-10.3,12.6-14.6,19.1c-0.7,1.3-0.9,3.6-2.4,3.8
	c-5.5-13-20.2-18-33.3-18c-5.4,0.8-10.5,1.1-15.3,3.1c-8.6,5-16.8,13.3-18.4,23.6c-0.5,1,0.9,3.7-1.1,3.5c-3.9-3.1-8.3-4.5-12.8-6.4
	c-6.5-2.5-14.2-2.6-20.7-1.2C50.1,61,42.2,68.1,36.3,76c-3.3,4.2-4.4,10-5.4,15c-1,4.4,0.7,8.6,1.2,12.8c1,7.2,7.3,13,13.2,16.4
	l0.1,0.7c-1.5,2.4,0.4,5,0.8,7.4c1.2,5.6,7.4,6,11.8,7.2c1,2,0,4.2,0.8,6.5c0.2,1.7,2,3.1,1.5,4.8c-4.4,0.8-9.9,1.3-14.3,3.3
	c-8.5,3-16.4,11.1-20.2,19.6c-3,9.9-2.8,22.6,5.5,30.2c3.5,4.3,8.7,5.3,13.1,7.6c0.2,2.9,1.6,5.2,3.7,7.3c3.6,3.6,9.4,4.9,14.5,2.9
	c1.3-0.1,2.3-1.3,3.5-0.8c1.1,2.3,2.7,4.2,4.6,6c0.3,0.4,0,0.9-0.3,1.1c-9.3,3.2-17.1,11.4-20.2,20.6c-0.8,3.3-1.8,6.4-1.7,9.9
	c0,5.1,1.1,9.9,3.2,14.2c2.9,7.6,10.8,13.1,17.8,16.3c0.8,1.9,1,4.1,2.5,5.8c5.7,6.3,15.2,7.2,23,4.7c1.2-0.1,2.1-2.1,3.3-0.9
	c1.1,5.9,4.1,10.8,7.8,15.7c0.8,1.6,2.9,1.6,3.5,3.4c0.2,3.4,1.9,6,3.6,8.6c3.6,3.6,8,5.9,12.7,6.2c11.2,0.9,21.4-6,27.2-15.4h0.4
	c1.4,2.5,2.4,5.6,5.2,7.2c0.7,2.8,0.7,5.8,3.8,7.1c0.1,1.2-1.5,1.1-2.1,2.1c-1-0.1-1.5,0.5-2.3,0.8c-2.1,1.6-4.4,3.3-6,5.2
	c-1.8,2.3-2.5,5.2-2.5,8.3c-0.4,4.8,2.7,7.8,6,10.6c0.2,1.1,1.8,2.1,0.4,3.1c-2.4-0.1-4.9-1-7.4,0c-5.1,2.3-10.1,7.6-10.3,13.5
	c-0.3,3.7,1.9,6.7,4.9,8.8l1.7,3.5c2.8,2.2,6.4,3.3,10.1,3.3c1-0.1,1.8-1.2,2.7-0.4c-0.3,1.8,0,3.6,0.6,5.3c0.8,2.6,3.1,3.7,5.2,4.9
	c-0.5,1.6,0.3,3.4,1.2,4.7c1.6,1,3.4,1.5,5.5,1.2c5.4-1,10.6-5.7,12.1-11.1c0.3-2.7-0.8-5-2.7-6.8c0.3-2.5-0.3-4.9-2.1-6.7
	c-2-2.6-5.4-1.7-8.1-2.4c-1.6-1.2-0.9-3.8-2.4-5.3c-2.3-1.9-2.9-4.7-3.6-7.3l0.5-0.4c3.1,0.3,6.7,0.6,9.6-0.8l4.4-3.2
	c1.6-3,4.7-5.8,4.5-9.5c0.2-0.9-1.1-2.2,0.2-2.8c2.4,2.2,5,3.9,7.6,5.8c5.3,2,11.9,1.3,16.7-1.1c3.7-1,6.3-4.4,8-7.7
	c1.6-4.2,4-10.4,0.6-14.5l1.1-3.3c0-2.6-0.7-5-1.6-7.2c-1.1-2.6-3.7-4.4-6.4-4.4c-4.6-2.8-11.7-2.8-16.6,0c-1.1,0.2-1.5,2.1-2.7,0.8
	c-0.3-2.4-1.9-4.2-2.8-6.4c-0.2-0.6,0.2-1.1,0.7-1.2c3.4,2.6,8.1,4,12.5,3c4.1,0.2,8.1-2.2,11-5.3c0.9,1.4,1,3.6,1.7,5.2
	c2.6,4.4,5.8,8.2,10.3,11c0.3,1.3,1.1,2.5,1.8,3.7c1.6,3.4,5.2,5.8,8.4,7.7c9.5,5.3,23.2,7,32.2-0.5c8.3-5.9,13.1-15.2,15.4-24.5
	c0.9-1.8,0.3-4.2,1.4-5.9c2.3,0.1,4.5,0,6.7-0.7c7.5-2.5,11.9-10.6,14.6-17.2l0.6-0.2c3.1,1.2,6.5,1.6,10,1.1
	c1.2-0.4,2.5-2.1,3.8-1.1c0.6,2.9,1.4,5.6,2.5,8.3c2.1,8,9.5,13.1,15.7,17.8c11.3,6,26.8,9.3,39.1,3.9c8.1-3.6,14.8-10.9,19.2-18.6
	c0.8-2.7,3.2-4.8,3.2-7.9c0.7-2.4,1.5-4.8,1.5-7.3c1-5.9-2.3-10.7-4.5-15.7c-0.1-5.6-2.2-10.2-4.4-14.8c-0.4-1.4-1.8-2.2-2.1-3.6
	c4.7-3.9,6.7-9.9,5.4-15.9c-1.1-5.3-4.1-9.6-8-13.6c-0.8-0.5-2.1-1-1.8-2.1c4.4-0.4,7.6-3.8,10.5-6.8c3-3.2,3.9-7.1,4.2-11.3
	c0-5.2-3.2-8.8-6.2-12.8c-1-1.5-3.1-1.5-3.4-3.3c7.1-4,8.3-12.3,10-19.4c0.4-8.3-1.9-17-8.6-21.6c-0.9-1-2.4-0.1-2.8-1.7
	C388.3,134,391.2,132.1,392.9,129.7z M159.4,374.8c-2.8,3.5-7.3,4.5-11.3,3.9c-3.2-0.2-5.9-3.2-7-5.9c-1.1-5.2,2.6-9.7,6.7-12.2
	c4-2.6,9-1.1,12.1,2.5c1.1,2.1,2.2,4.2,1.7,7C161.4,372,159.8,373.4,159.4,374.8z M172.7,377.6c1.3,1.1,3.6,2.3,3.7,4.3
	c0.3,3-1.2,6-3.2,8.4c-2.2,1.6-4.5,3.9-7.6,3.6c-1.8-0.5-3.5-1.5-4.7-3.2c-1.1-3.2-1-7.3,1.9-9.8
	C165.5,378.5,169.1,376.7,172.7,377.6z M175.7,343.5c-1.4,4.4-5.8,7.1-9.6,9.3c-2.9,0.9-6,0.5-8.5-0.7c-3.5-2.4-5.9-6.2-5.2-10.8
	c0.6-4.3,4.2-7.4,7.8-9.7c4.8-2.4,11.7-2.9,15.3,2.2C177.3,336.3,176.6,340.7,175.7,343.5z M168.7,320.9c-0.9-0.8-2.2-0.1-3.4-0.6
	l-3.2-0.9c-2.5-1.1-3.8-3.3-5.1-5.7c-2.5-5.5,0.7-10.7,3.9-14.7c3.6-4.1,9.6-5.2,14.7-3.9c2.3,0.2,4,1.8,5.9,2.9
	c2.6,3.4,2.9,8.2,1,12C180.7,316.1,174.9,320.3,168.7,320.9z M191.8,316.1c3.7-1.3,8-3.2,12.1-1.6c2.7,1.3,5.6,1.5,7.9,3.8
	c1.2,3.2,3,7.2,0.5,10.4c-2,3.1-3.3,6.9-6.6,8.8c-4,3.6-9.7,3.5-14.7,2.3c-2.1-0.7-3.2-2.6-5.2-3.5c-1-1.7-2.5-3-2.4-5.2
	C182.7,324.8,186.8,319.5,191.8,316.1z M296.4,263.7v-0.4h0.3C296.7,263.5,296.5,263.6,296.4,263.7z M367.2,138.3
	c3.6,2.5,9.1,0.8,12,4.9c2.9,3.7,4.9,8,4.4,12.8c-1.2,6.5-6.2,12.6-12.7,14.7c-1.7,0.7-4.4-0.3-5.3,2c0.3,2.6,3.1,1.1,4.7,1.8
	c4.2,0.9,8,2.9,10.8,6.2c0.8,2.4,3,4.1,2.7,6.9c0.8,5.2-2,10.1-5.9,13.4c-3.5,2.9-7.5,3.7-11.7,4.7c-0.9,0.5-2.3,0.3-2.5,1.5
	c0.4,2.5,3.1,0.5,4.6,1.2c2.1,0.5,4.3,1.1,6.2,2.3c4,3.3,7.2,8,5.9,13.4c-0.5,2.7-2.3,4.6-3.6,7c-2.1,3-5.7,4.3-8.9,5.5
	c-0.5,0.6-0.9,1.1-0.6,1.9c0.8,1.2,1.8,0.6,2.8,0.4c4.3,0.9,8.8,2.5,11.3,6.2c5.2,4.3,6.3,10.8,7,17.2c0.6,6.1-1.8,11.2-3.4,16.4
	c-5.4,10.7-17.1,15.4-28,17.8c-4.4,0.4-8.3-0.1-12.6-0.2c-5.1-1.4-10.1-2.9-14.8-5.2c-5.9-4.4-7.8-11.1-8.9-17.8
	c-0.3-3.8,0.1-7.1,0.1-10.8c-0.2-0.8-1-1.1-1.7-1.3c-2.5,1.7-1.3,5.5-4.5,6.5c-3.6,1.7-8.5,1.7-12.1-0.5c-3.7-1.9-4-7.9-8.7-7.5
	c-2.4,2.3-0.7,5.5-1.5,8.3c-1,7.6-8.3,13-15.1,15c-4.9,1.2-9.4-1.3-13.3-4c-0.5,0.1-1.2-0.3-1.5,0.4c1.1,4.8,4.9,8.4,5.2,13.4
	c0.5,7.6-2.5,15.3-6.3,21.9c-1.9,2.9-4.9,4.7-8.1,5.6c-2.7,2.2-5.9,2.2-9,3.3c-4.3,0-8.3-1.7-12.3-2.3c-1.4-1.5-3.7-0.8-5-2.7
	c-2.6-0.8-3.7-3.6-6.4-4.5c-3.7-3.5-6.8-7.3-6.8-12.6c-0.6-3.5,0-7.3,0.5-10.6c1-1.4,0.8-3.3,2.1-4.6c-0.1-0.9-0.8-1.4-1.5-1.5
	c-1.2-0.6-2.2,0.9-2.7,1.7c-1.2,2.5-4.3,3-5.9,5.5c-3.3,2.6-8.2,4.1-12.1,2.3c-3.9-1.3-8.3-3.6-8.9-8.2c-1.9-5.1,1-9.9,1.3-15
	c-0.3-1.2-0.6-2.7-2-3.2c-1.2-0.3-2.3-0.1-3.3,0.5c-1.5,1.6-1.7,4-2.5,6c-1.4,4.1-3.8,8.6-7.9,10.9c-4.8,1.9-10.3,2.8-14.7,0.1
	c-1.3-1-1.3-2.9-2.7-3.8c-0.8,0.5-2,0.5-2.4,1.4c0.8,3.1,1.5,6.1,1,9.4c-1.1,9.9-8.2,18.4-17.7,21.5c-6.8,2-13.4,0.5-19.3-2.7
	c-2.4-1-3.8-3-6.1-4.6c-5-6.9-10.1-16.1-5.1-24.5c0.9-2.1,4.5-2,3.7-4.7c-2.6-3-5,1.6-7.7,2.2c-6.4,2.7-14.1,4-21.3,3
	c-2.6-0.4-4.7-1.1-7.2-1.4c-6.2-4.1-14.3-8.5-16.1-16.3c-3.4-6.4-3.1-15.8-0.4-22.3c4.2-9.6,13.6-17.8,24.5-17.2
	c0.8-0.3,0.8-1.3,0.5-1.9c-1.5-1.7-4.4-1.1-5.7-3.1c-1.9-2-4.5-4.4-3.7-7.5c-1.2-2.6-0.8-6.3,0.6-8.5c0.8-0.9,2.2-1.5,1.8-3
	c-1.7-1.7-2.6,1-4,1.6c-5.9,2.3-12.5,3.6-18.9,2.4c-5.5-1.9-11.1-3.4-15.2-8.1c-6.7-7-7.4-18.3-4.6-27.4c3.2-7.3,9.5-13.4,16.6-17.3
	c5.2-1.7,10.6-2.9,16.2-3.4c0.9-0.2,1.7,0.7,2.5,0.2c2.3-3.3-2.6-5.3-2.7-8.6c-1.8-6.7,3.4-11.9,7.9-15.9c0.8-0.6,2.6-0.6,2.4-2.1
	l-0.9-0.6c-7.3,1.1-14.5-0.6-21-2.9c-0.8-1.7-2.8-0.8-4.1-1.6c-6.4-3.9-10.8-10-11.4-17.3C33.1,88.1,38.6,77,48.1,69.2
	c4.9-3.1,9.9-6.5,16.1-6.6c8.6-1.3,16.6,1,23.7,4.3c2.4,1.6,4.7,3.4,7.5,4.2c0.6,0.4,0.5,1.4,1.4,1.3c0.6-0.1,1-0.5,1.3-1
	c-2.2-10,4.3-18.3,11.2-24.2c8.8-7.1,22.1-7.7,32.5-4.4c8.3,2.4,17.2,9.4,18.5,18.3c-0.1,1.5,0.4,3,0.9,4.5c0.3,0.4,1,0.3,1.3,0.1
	c1.6-1.2,0.4-3.7,1.3-5.2c2.4-7.9,6.9-14.7,11.5-21.4c3.5-3.3,7.6-6.2,11.9-8c6.3-1.8,12.2-4.6,19.3-4.3c3.4-0.5,6.5,0.3,9.9,0.7
	c7.9,0.8,14.7,4.2,19.9,10.6c4.8,6.2,6.3,14.9,4.7,22.4c-0.6,2.8-0.9,5.8-1.9,8.4c0.1,0.7,1,1.1,1.5,0.6c2.1-4.6,7.4-6.4,11.7-8.2
	c7.3-1.2,15.2,0.2,18.9,6.7c2.4,3.9,3.1,9.1,2.5,13.8c-0.8,1.3-2,2.8-1.1,4.5c0.4,0.6,1.1,1,1.8,0.6c5.1-7.7,14.2-11.6,23.5-9.7
	c7.2,1.7,10.6,9,11.8,15.8c0.3,1,1.6,0.9,2.4,0.6c1-0.5,0.8-1.6,1.1-2.5c2.7-7.8,8.4-15,15.7-19.6c7.4-4.6,15.9-6.8,24.4-8.4
	c10.1-0.1,19.7,2.8,27.7,8.8c8.8,8.6,12.8,22,9.1,33.9l0.1,0.3c-1.4,7.4-5.3,13.9-9.5,19.9c-3.9,4.3-8.4,7.9-13.2,10.7
	C367,137.2,367.2,137.9,367.2,138.3z"/>
</svg>
