<?xml version="1.0" encoding="utf-8"?>
<!-- Generator: Adobe Illustrator 19.2.0, SVG Export Plug-In . SVG Version: 6.00 Build 0)  -->
<svg version="1.1" id="Capa_1" xmlns="http://www.w3.org/2000/svg" xmlns:xlink="http://www.w3.org/1999/xlink" x="0px" y="0px"
	 viewBox="0 0 425.2 425.2" style="enable-background:new 0 0 425.2 425.2;" xml:space="preserve">
<g>
	<path d="M289,259.3l45.2,2.4l-24.3-43.5l93.5-44.4l-112.3-2.4l38-57.4l-64.5,34.9l-9.9-55.6l-48.5,43.8l-3-3.8l28.3-57.2L208,79.8
		l34.5-57h-29l-5.6,3.8l-24.7,71.7l22.7-2.1l-9.4,28.9l-10.3-12.9L158.9,146l-29.6-24.5l-4.9,34.9l-59.1-26l13.9,59l-55.2,9.2
		l40.8,34.9l-45.5,31.8l51.9,3l-30.2,57.2l66.7-24.5l18,35.1l27.4-24.5l30.8,68.7l21.6-75.2l31.9,17l11.1-33.9l52.5,23.9L289,259.3z
		 M197.5,126.3l10.8-32.2l-22.6,2.1l23.5-68.1l24.9-0.1l-35.1,58l24.2-3.8l-23.2,47l-2.6,5.3l-7.5,15.3l5.8-17.4L197.5,126.3z
		 M244.4,277.1l-11,33.4l-32.2-17.1l-18.8,65.5l-27.1-60.4l-27.8,24.8l-16.7-32.7L55,311.3l26.9-51l-43-2.5l36.8-25.7l-36.5-31.2
		l48.1-8l-12.5-52.9l54.9,24.1l4.5-31.8l25.6,21.1l26.4-32.7l8.4,10.5l-7.5,23.1l9.1-6.8l4.3-8.8l4.8,6l44.8-40.4l9.4,52.8
		l49.1-26.5l-29.9,45.2l96.1,2l-74.3,35.3l21.8,39.2l-41.9-2.2l10.9,48.7L244.4,277.1z"/>
	<polygon points="205.4,409.7 221.9,416.1 214.7,330.1 	"/>
	<polygon points="340.4,389.9 343.2,367.3 275.6,319.6 	"/>
</g>
</svg>
