<?xml version="1.0" encoding="utf-8"?>
<!-- Generator: Adobe Illustrator 19.2.0, SVG Export Plug-In . SVG Version: 6.00 Build 0)  -->
<svg version="1.1" id="Capa_1" xmlns="http://www.w3.org/2000/svg" xmlns:xlink="http://www.w3.org/1999/xlink" x="0px" y="0px"
	 viewBox="0 0 425.2 425.2" style="enable-background:new 0 0 425.2 425.2;" xml:space="preserve">
<path d="M364.2,65.1c-3.8-5.3-8.1-10.4-13-15.3c-22.5-22.5-50-33.8-81.9-33.8c-32,0-59.6,11.4-82,33.8c-6.4,6.4-12,13.5-16.9,21.2
	c-6-0.9-12.3-1.4-19.2-1.4c-32.5,0-60.7,11.6-83.8,34.5c-22.9,23.1-34.6,51.3-34.6,83.8c0,32.6,11.6,60.7,34.5,83.7
	c5.1,5,10.4,9.5,15.8,13.5c0.8,0.8,1.7,1.5,2.5,2.2c-13.7,39.7-15.1,76.7-4,110.1c0.6,1.7,2.2,2.9,4,2.9c0.2,0,0.3,0,0.5,0
	c2-0.2,3.5-1.8,3.7-3.8c0.1-0.8,0.2-1.6,0.3-2.4c1,4.6,2.3,9.2,3.8,13.6c0.4,1.2,1.6,2,2.9,1.8c1.3-0.1,2.3-1.2,2.4-2.4
	c3.4-36.1,19.6-65.6,48-87.8c3.7,5,7.8,9.8,12.4,14.4c4.9,4.9,10.1,9.3,15.5,13.2c22.1,20.5,48.7,30.8,79.2,30.8
	c32.2,0,60-11.5,82.6-34.3c22.7-22.6,34.3-50.3,34.3-82.6c0-14.5-2.3-27.9-7-40.8c2.6-2.8,5.1-5.8,7.8-9.2c0.3-0.4,0.6-0.8,0.9-1.1
	c0.2-0.2,0.3-0.5,0.4-0.6c0.1-0.1,0.2-0.2,0.3-0.3c14-19.1,21.1-41.5,21.1-66.4C394.5,112.7,384.3,86.7,364.2,65.1z M357.2,193.9
	c-0.3,0.3-0.6,0.7-0.8,1l-0.1,0.2c-0.1,0.1-0.2,0.3-0.4,0.5c-0.1,0.1-0.2,0.2-0.2,0.3c-0.8,1-1.5,1.9-2.3,2.9
	c-0.6,0.7-1.2,1.5-1.8,2.2c0,0-0.1,0.1-0.1,0.1c-0.1-0.3-0.3-0.6-0.4-0.9c-1.5-3.2-3.1-6.3-4.9-9.3c-2.2-3.7-4.6-7.3-7.1-10.7
	c-1.3-1.8-4.1-2.2-5.9-0.8c-0.9,0.7-1.5,1.7-1.6,2.8c-0.2,1.1,0.1,2.2,0.8,3.1c5.8,7.6,10.5,16.1,14,25c0,0,0,0,0,0
	c4.8,12.6,7.1,25.6,7.1,39.9c0,30.3-10.9,56.5-32.3,77.7c-21.2,21.4-47.4,32.3-77.7,32.3c-30.3,0-56.5-10.9-77.9-32.3
	c-1-1-2-2-2.9-3c-3.1-3.3-6-6.8-8.6-10.3c0,0,0,0,0,0c-0.1-0.1-0.1-0.1-0.2-0.2c0,0,0,0,0,0c0,0,0,0,0,0c-1-1.3-1.9-2.7-2.8-4.1
	c0,0,0-0.1-0.1-0.1c0,0,0,0,0,0c0,0,0,0,0,0c0,0,0-0.1-0.1-0.1c-2.2-3.3-4.1-6.6-5.8-10c0-0.1-0.1-0.1-0.1-0.2c0,0-0.1-0.1-0.1-0.1
	c-0.1-0.1-0.1-0.2-0.2-0.3c0,0,0,0,0,0c-0.1-0.1-0.1-0.2-0.2-0.2c-0.1-0.1-0.1-0.2-0.2-0.2l0,0c0,0,0,0,0,0l-0.2-0.2
	c-0.1-0.1-0.2-0.2-0.4-0.3c0,0-0.1-0.1-0.1-0.1c-1.2-0.9-2.7-1.1-4.1-0.6c-0.3,0.1-0.6,0.3-0.9,0.6c0,0-0.1,0-0.1,0c0,0,0,0-0.1,0
	c0,0-0.1,0.1-0.1,0.1c-21.2,15-36.7,33.5-46.2,55.2c-1.1,2.4-2,4.9-2.9,7.3c-0.9,2.5-1.8,5-2.5,7.5c-0.7,2.3-1.4,4.7-1.9,7.1
	c-4.5-25.6-1.8-53.3,7.8-82.5c0.3-0.9,0.6-1.8,0.9-2.7c0.3-0.9,0.6-1.8,0.9-2.7c0.1-0.3,0.2-0.6,0.3-0.9c0,0,0,0,0,0c0,0,0,0,0-0.1
	l0,0c0,0,0,0,0,0c1.7-4.9,3.7-9.9,6.4-16.3c0.4-1,0.4-2.2,0-3.2c-0.4-1-1.2-1.9-2.3-2.3c-2.1-0.9-4.7,0.2-5.5,2.3
	c-1.8,4.4-3.4,8.1-4.7,11.7c-5.4-3.8-10.6-8.1-15.4-13c-1-1-1.9-2-2.9-3c-4.7-5.1-8.9-10.4-12.4-15.9c-3.6-5.6-6.7-11.5-9.1-17.6
	c-5.1-12.7-7.7-26.4-7.7-41.2c0-30.2,10.8-56.4,32.1-77.9C94.7,88.8,120.9,78,151.2,78c5.2,0,10.1,0.3,14.7,0.9c-0.5,1-1,2-1.5,3.1
	c-0.4,0.9-0.8,1.8-1.2,2.7c-0.4,0.9-0.8,1.8-1.2,2.7c-1.7,4.1-3.2,8.3-4.4,12.5c-0.3,1.1-0.2,2.2,0.4,3.2c0.5,1,1.4,1.7,2.5,2
	c0.4,0.1,0.8,0.2,1.2,0.2c1.9,0,3.5-1.2,4.1-3.1c1.4-4.9,3.2-9.8,5.4-14.5c0.4-0.9,0.8-1.8,1.2-2.6c0.4-0.9,0.9-1.8,1.3-2.6
	c0.8-1.6,1.6-3.1,2.5-4.7c4.8-8.1,10.6-15.5,17.2-22c20.8-20.8,46.4-31.4,76.1-31.4c14.4,0,27.8,2.5,40.2,7.5
	c6,2.4,11.7,5.4,17.2,8.9c5.5,3.5,10.7,7.6,15.7,12.3c1,0.9,1.9,1.8,2.8,2.7c20.9,20.9,31.5,46.5,31.5,76.1
	C376.7,155.2,370.1,176.1,357.2,193.9z"/>
</svg>
