<?xml version="1.0" encoding="utf-8"?>
<!-- Generator: Adobe Illustrator 19.2.0, SVG Export Plug-In . SVG Version: 6.00 Build 0)  -->
<svg version="1.1" id="Capa_1" xmlns="http://www.w3.org/2000/svg" xmlns:xlink="http://www.w3.org/1999/xlink" x="0px" y="0px"
	 viewBox="0 0 425.2 425.2" style="enable-background:new 0 0 425.2 425.2;" xml:space="preserve">
<path d="M413.4,222.6c0-32.6-19-61.9-47.8-74.7c4.4-7.2,6.7-15.3,6.7-23.5c0-27.8-26.2-50.4-58.3-50.4c-10.7,0-20.9,2.5-29.9,7.1
	c-3.7-32.2-40.1-57.6-84.4-57.6c-46.7,0-84.7,28.3-84.7,63c0,1.7,0.1,3.5,0.3,5.2c-21.8,2.3-41.7,8.8-56.6,18.7
	c-16.6,11-25.8,25.4-25.8,40.6c0,12.8,6.6,25.1,18.6,35.2c-24,8.6-39.2,25.5-39.2,44.7c0,16.9,12.3,32.7,32.5,41.9
	c-2.1,5.5-3.1,11.2-3.1,17c0,32.4,33.4,58.8,74.5,58.8c3.6,0,7.2-0.2,10.8-0.6c10.8,31.4,48.1,53.9,90.3,53.9
	c37.2,0,70.3-16.8,85.4-43c4.7,0.6,9.5,1,14.3,1c40.3,0,73-22.6,73-50.4c0-7.8-2.6-15.5-7.5-22.4C401.9,271.9,413.4,248,413.4,222.6
	z M374.2,283.1l-3.7,2.6l3,3.4c5.4,6.3,8.3,13.4,8.3,20.5c0,23.3-29.1,42.2-64.8,42.2c-5.3,0-10.7-0.4-15.9-1.3l-2.9-0.5l-1.4,2.6
	c-12.7,24.6-44.7,41.2-79.5,41.2c-40.1,0-75.3-21.6-83.5-51.3l-1-3.5l-3.6,0.6c-4.3,0.7-8.7,1-13.1,1c-36.6,0-66.3-22.7-66.3-50.6
	c0-5.9,1.4-11.8,4-17.3l1.9-4l-4.1-1.6c-19.2-7.7-31.2-21.5-31.2-36c0-17,16.4-32.8,40.9-39.2l8.8-2.3l-7.5-5.1
	c-13.9-9.4-21.6-21.3-21.6-33.4c0-26,34.1-48.1,79.2-51.5l4.6-0.4l-0.9-4.6c-0.5-2.7-0.8-5.4-0.8-8.1c0-30.2,34.3-54.8,76.5-54.8
	c42.2,0,76.5,24.6,76.5,54.8c0,0.4,0,0.7,0,1.1l-0.3,8.5l6.7-4.5c9-6.1,19.9-9.4,31.5-9.4c27.7,0,50.2,18.9,50.2,42.2
	c0,8.1-2.8,16.1-8.1,22.9l-3.4,4.4l5.3,1.9c28.3,10.3,47.3,38,47.3,68.9C405.2,246.8,393.6,269.4,374.2,283.1z"/>
</svg>
