<?xml version="1.0" encoding="utf-8"?>
<!-- Generator: Adobe Illustrator 19.2.0, SVG Export Plug-In . SVG Version: 6.00 Build 0)  -->
<svg version="1.1" id="Capa_1" xmlns="http://www.w3.org/2000/svg" xmlns:xlink="http://www.w3.org/1999/xlink" x="0px" y="0px"
	 viewBox="0 0 425.2 425.2" style="enable-background:new 0 0 425.2 425.2;" xml:space="preserve">
<polygon points="288.8,274.4 338.2,267.4 283.6,248.7 320.3,216.2 277.7,212.9 322.4,148.2 245.1,201.3 254.6,110.6 211.1,195.9 
	193.8,176.5 173.9,217.2 133.8,154.7 134.5,227.5 107.9,209.3 113.7,242.8 29.1,205.2 117.6,266.7 33.1,291.8 126.8,293.8 
	103.6,329.8 136.6,328.8 106.8,415.7 181.6,348.6 189,381.2 199.4,356.7 215.9,403.1 238.5,342.5 276.7,384.5 263.7,318.7 
	409.7,348.4 "/>
</svg>
