<?xml version="1.0" encoding="utf-8"?>
<!-- Generator: Adobe Illustrator 19.2.0, SVG Export Plug-In . SVG Version: 6.00 Build 0)  -->
<svg version="1.1" id="Capa_1" xmlns="http://www.w3.org/2000/svg" xmlns:xlink="http://www.w3.org/1999/xlink" x="0px" y="0px"
	 viewBox="0 0 425.2 425.2" style="enable-background:new 0 0 425.2 425.2;" xml:space="preserve">
<path d="M408.1,207.7v-96.9c0-33.4-26.9-60.8-59.8-60.8H77.2c-32.9,0-59.8,27.4-59.8,60.8v96.9c0,33.4,26.9,60.8,59.8,60.8h236.6h0
	c14.1,12.4,38,37.1,56.6,65.8c2.6,4.1,5.2,8.3,7.6,12.5c5.3,9.5,9.9,19.3,13.1,29.1c0.1-2.5,0.1-5,0.1-7.5c0-37.9-8-81.4-15.7-106.6
	c4.2-2.2,8.1-4.9,11.7-8.1C400,242.6,408.1,226.1,408.1,207.7z M377.5,321.6c-15.8-21.2-36.8-46.1-55.3-62.2H90.6
	c-29.6,0-53.9-24.3-53.9-53.9v-49.1c12,14.6,30.5,23.4,53.1,22.1c-31.5-4.3-53.1-27.3-53.1-58.8c0-29.6,24.2-53.9,53.9-53.9h207.2
	c-15.6,11.9-26.3,29.9-28.7,50.5c7.9-29.1,34.4-50.5,66-50.5c29.6,0,53.9,24.2,53.9,53.9v85.9c0,20.8-12,39-29.4,48
	C366.9,277.3,375.3,305.1,377.5,321.6z"/>
</svg>
