<?xml version="1.0" encoding="utf-8"?>
<!-- Generator: Adobe Illustrator 19.2.0, SVG Export Plug-In . SVG Version: 6.00 Build 0)  -->
<svg version="1.1" id="Capa_1" xmlns="http://www.w3.org/2000/svg" xmlns:xlink="http://www.w3.org/1999/xlink" x="0px" y="0px"
	 viewBox="0 0 425.2 425.2" style="enable-background:new 0 0 425.2 425.2;" xml:space="preserve">
<path d="M202.8,366.4c20,14.7,54.7,21.1,77.5,14.6c36.2-10.5,56.8-39.3,66.1-75.7c36.2-22.2,65.4-58.6,65.9-104.2
	c0.3-29.9-12-55.9-30.7-76.6c-8.8-12.3-19.9-23.1-32.3-32.2C303.6,58.7,241.7,48,187.1,46.8C23.7,43.4-30,190.2,45,272.5
	c24.1,33.5,66.8,59,129.1,64.6c23.6,2.1,47.4,2.4,71,0C233,351.9,216.7,359.2,202.8,366.4z M252.6,336.2c5.5-7.9,9.2-16.3,11.7-24.6
	c-28.5,6.1-61.5,8-99,4.8c-90-8.1-136.8-59.2-144-114.1C11.9,130.8,69.7,53.1,186.8,55.5c36.3,0.8,67.6,5.7,94.1,13.6
	c58.5,17.6,93.4,50.1,106.4,86c0,0.1,0.1,0.2,0.1,0.4c0.3,1,0.7,1.9,1,2.9c0.1,0.3,0.2,0.5,0.2,0.8c0.3,0.9,0.5,1.7,0.8,2.6
	c0.1,0.4,0.2,0.8,0.3,1.2c0.2,0.7,0.4,1.5,0.6,2.2c0.3,1.2,0.6,2.3,0.8,3.5c0,0.1,0,0.2,0.1,0.3c0.2,1.1,0.4,2.3,0.6,3.4
	c0,0.2,0.1,0.4,0.1,0.6c0.5,3.1,0.8,6.2,1,9.2c0,0.7,0.1,1.4,0.1,2.1c0,0.7,0,1.3,0.1,2c0,0.9,0,1.8,0,2.6c0,0.5,0,1,0,1.6
	c0,1.4-0.1,2.8-0.2,4.2c0,0,0,0,0,0c-0.1,1.6-0.3,3.1-0.4,4.6c0,0.1,0,0.3-0.1,0.4c-0.2,1.4-0.4,2.8-0.6,4.3c0,0.1,0,0.3-0.1,0.4
	c-4.9,28.2-22.5,55.3-52,76c-0.2,0.2-0.5,0.4-0.8,0.5c-1.3,0.9-2.7,1.8-4,2.7c-0.3,0.2-0.6,0.4-1,0.6c-1.6,1-3.3,2.1-5,3.1
	c-0.3,1.3-0.6,2.6-1,3.9c-0.1,0.4-0.2,0.8-0.3,1.2c-0.3,0.9-0.5,1.8-0.8,2.7c-0.1,0.4-0.2,0.8-0.3,1.1c-0.3,1.1-0.7,2.2-1,3.3
	c0,0.1-0.1,0.2-0.1,0.3c-0.4,1.2-0.8,2.4-1.2,3.5c-0.1,0.3-0.2,0.5-0.3,0.8c-0.3,0.9-0.7,1.8-1,2.7c-0.1,0.3-0.2,0.5-0.3,0.8
	c-0.4,1.1-0.9,2.1-1.3,3.2c0,0,0,0,0,0c-0.5,1.1-1,2.2-1.5,3.3c0,0.1-0.1,0.1-0.1,0.2c-0.5,1-1,2-1.5,3c0,0.1-0.1,0.2-0.1,0.3
	c-22.4,43-62,46.8-82.1,45.7c0.1,0,0.1-0.1,0.2-0.1c-7.4-0.4-12.2-1.5-12.6-1.6c0,0,0,0,0,0C236.4,354.8,245.9,345.9,252.6,336.2z"
	/>
</svg>
