<?xml version="1.0" encoding="utf-8"?>
<!-- Generator: Adobe Illustrator 19.2.0, SVG Export Plug-In . SVG Version: 6.00 Build 0)  -->
<svg version="1.1" id="Capa_1" xmlns="http://www.w3.org/2000/svg" xmlns:xlink="http://www.w3.org/1999/xlink" x="0px" y="0px"
	 viewBox="0 0 425.2 425.2" style="enable-background:new 0 0 425.2 425.2;" xml:space="preserve">
<polygon points="376.2,307.1 364,279.5 392.7,270.1 375,245.6 401.1,230.4 378.8,210.2 401.1,189.9 375,174.7 392.7,150.2 
	364,140.8 376.2,113.2 346.2,109.9 352.4,80.4 322.4,83.4 322.3,53.3 293.5,62.5 287.1,33 261,48 248.6,20.5 226.1,40.6 208.3,16.2 
	190.4,40.6 167.9,20.5 155.6,48 129.4,33 123,62.5 94.3,53.3 94.2,83.4 64.1,80.4 70.3,109.9 40.3,113.2 52.5,140.8 23.8,150.2 
	41.5,174.7 15.4,189.9 37.7,210.2 15.4,230.4 41.5,245.6 23.8,270.1 52.5,279.5 40.3,307.1 70.3,310.4 64.1,339.9 94.2,336.9 
	94.3,367.1 123,357.8 129.4,387.3 155.6,372.3 167.9,399.9 190.4,379.7 208.3,404.1 226.1,379.7 248.6,399.9 261,372.3 287.1,387.3 
	293.5,357.8 322.3,367.1 322.4,336.9 352.4,339.9 346.2,310.4 "/>
</svg>
