<?xml version="1.0" encoding="utf-8"?>
<!-- Generator: Adobe Illustrator 19.2.0, SVG Export Plug-In . SVG Version: 6.00 Build 0)  -->
<svg version="1.1" id="Capa_1" xmlns="http://www.w3.org/2000/svg" xmlns:xlink="http://www.w3.org/1999/xlink" x="0px" y="0px"
	 viewBox="0 0 425.2 425.2" style="enable-background:new 0 0 425.2 425.2;" xml:space="preserve">
<g>
	<path d="M362.8,140.3c-13.8-42.1-54.9-74-112.7-87.5c-17.1-4-33.8-6-49.7-6C128,46.8,75.7,88.5,70.1,150.5
		c-2.9,32.2,9.1,66.4,32,91.6c18.3,20.1,52.5,44,110.9,44c8,0,16.4-0.5,25-1.4c-4.1,13.4-5.5,33.1,2.7,58.5
		c11,34.4,63.6,60.9,63.6,60.9l-11.5-28.5c-0.2-0.4-18.2-41.7,24.4-91.3C372.7,219.7,372.7,170.3,362.8,140.3z M286.3,377.5
		c0,0-27.5-22-33.7-39.9c-14.8-42.2,4.6-67.6,4.6-67.6c-130,23-180-62.1-174.7-120.9c7-77.3,128.7-98.1,167.9-89
		c95.8,22.3,158.2,103.3,61.8,215.5C264.1,331.5,286.3,377.5,286.3,377.5z"/>
	<path d="M73.3,100.6c1.3-2.7,2.9-5.4,4.5-8c3.3-5.3,7-10.6,11.4-15.5l1.6-1.9l1.7-1.8c1.2-1.2,2.3-2.4,3.5-3.6
		c2.4-2.3,4.8-4.6,7.4-6.7c5.1-4.3,10.5-8.2,16.1-11.7c5.6-3.5,11.3-6.5,17-9.1c2.8-1.4,5.7-2.4,8.5-3.6c2.8-1,5.6-2.1,8.3-2.9
		c5.4-1.8,10.7-3.1,15.6-4.2c4.9-1,9.5-1.7,13.5-2.2c2-0.2,3.9-0.5,5.7-0.5c1.8-0.1,3.4-0.3,4.8-0.3c1.5,0,2.8-0.1,3.9-0.1
		c1.1,0,2.1,0,2.9,0.1c1.6,0,2.4,0.1,2.4,0.1l0-0.7c0,0-0.8-0.2-2.4-0.4c-0.8-0.1-1.8-0.3-2.9-0.5c-1.1-0.1-2.5-0.3-4-0.4
		c-1.5-0.2-3.1-0.2-4.9-0.3c-1.8-0.1-3.8-0.1-5.9-0.1c-4.2,0-8.9,0.4-14,1c-5.1,0.7-10.7,1.6-16.4,3.2c-2.9,0.7-5.8,1.7-8.8,2.5
		c-3,1-6,2.1-9,3.4c-6,2.5-12.1,5.4-18,9c-3,1.7-5.9,3.7-8.7,5.7c-1.4,1-2.8,2.1-4.2,3.1c-1.4,1-2.8,2.2-4.1,3.3
		c-2.7,2.2-5.2,4.7-7.8,7.1c-1.3,1.2-2.4,2.5-3.6,3.8l-1.8,1.9l-1.7,2c-4.6,5.2-8.2,11.1-11.6,16.7c-1.6,2.9-3.2,5.7-4.4,8.6
		c-0.6,1.5-1.3,2.9-1.8,4.3c-0.5,1.4-1.1,2.9-1.6,4.3c-0.3,0.7-0.5,1.4-0.8,2.1c-0.2,0.7-0.4,1.4-0.6,2.1c-0.4,1.4-0.8,2.8-1.2,4.1
		c-0.7,2.7-1.2,5.4-1.7,7.9c-0.5,2.5-0.8,5-1.1,7.4c-0.2,1.2-0.2,2.3-0.3,3.4c-0.1,1.1-0.1,2.2-0.2,3.2c-0.1,1-0.1,2.1-0.2,3
		c0,1,0,1.9,0,2.8c0,1.8,0.1,3.5,0.1,5c0.1,3,0.5,5.3,0.6,6.8c0.2,1.6,0.3,2.4,0.3,2.4l0.7,0c0,0,0-0.8,0.1-2.4
		c0.1-1.6,0.1-3.9,0.3-6.8c0.1-1.5,0.3-3.1,0.5-4.8c0.1-0.9,0.2-1.8,0.3-2.7c0.1-0.9,0.3-1.9,0.5-2.9c0.2-1,0.3-2,0.5-3.1
		c0.2-1.1,0.3-2.2,0.6-3.3c0.5-2.2,0.9-4.6,1.6-7c0.7-2.4,1.3-4.9,2.2-7.5c0.4-1.3,0.9-2.6,1.4-3.9c0.2-0.7,0.5-1.3,0.7-2
		c0.3-0.6,0.6-1.3,0.8-2c0.6-1.3,1.1-2.6,1.7-4C71.9,103.3,72.6,102,73.3,100.6z"/>
	<path d="M59.4,103.1c0.4-1.5,0.7-3,1.3-4.6c0.5-1.6,1-3.3,1.6-4.9c0.3-0.8,0.6-1.7,0.9-2.6c0.4-0.9,0.7-1.7,1.1-2.6
		c1.4-3.5,3.2-7.1,5.2-10.7c2-3.6,4.4-7.2,7-10.7c2.6-3.5,5.5-6.9,8.5-10.1c3.1-3.2,6.3-6.3,9.6-9.1c3.4-2.8,6.8-5.4,10.2-7.7
		c3.5-2.3,6.9-4.4,10.3-6.2c3.4-1.8,6.6-3.4,9.7-4.7c1.5-0.7,3-1.3,4.4-1.8c1.4-0.6,2.8-1,4-1.5c1.3-0.5,2.5-0.8,3.6-1.2
		c1.1-0.4,2.1-0.7,3.1-0.9c1.9-0.5,3.3-0.9,4.4-1.2c1-0.3,1.6-0.4,1.6-0.4l-0.2-0.7c0,0-0.6,0-1.6,0c-1.1,0-2.7,0.1-4.6,0.3
		c-2,0.2-4.4,0.5-7.2,1c-2.7,0.5-5.9,1.2-9.2,2.3c-1.7,0.5-3.4,1.1-5.2,1.7c-1.8,0.6-3.5,1.4-5.4,2.2c-3.7,1.6-7.5,3.5-11.2,5.7
		c-3.7,2.3-7.5,4.7-11.2,7.6c-3.6,2.9-7.1,6.1-10.4,9.5c-3.2,3.4-6.2,7.1-8.9,10.9c-1.3,1.9-2.6,3.8-3.7,5.8c-1.2,2-2.2,4-3.2,5.9
		c-2,3.9-3.6,7.9-4.8,11.8c-1.3,3.8-2.1,7.5-2.8,11c-0.7,3.4-1,6.6-1.1,9.4c-0.2,2.8-0.1,5.3-0.1,7.3c0,2,0.3,3.5,0.4,4.6
		c0.1,1.1,0.2,1.6,0.2,1.6l0.7,0.1c0,0,0.1-0.6,0.2-1.6c0.1-1,0.3-2.6,0.6-4.5c0.3-1.9,0.6-4.2,1.2-6.9
		C58.7,106,59,104.6,59.4,103.1z"/>
</g>
</svg>
