<?xml version="1.0" encoding="utf-8"?>
<!-- Generator: Adobe Illustrator 19.2.0, SVG Export Plug-In . SVG Version: 6.00 Build 0)  -->
<svg version="1.1" id="Capa_1" xmlns="http://www.w3.org/2000/svg" xmlns:xlink="http://www.w3.org/1999/xlink" x="0px" y="0px"
	 viewBox="0 0 425.2 425.2" style="enable-background:new 0 0 425.2 425.2;" xml:space="preserve">
<path d="M354.9,165.4c1.4-2.8,3.5-6.5,5.2-8.9c6.7-9.5,14.3-18.2,22.7-25.4c2.8-2.4,3.9-2.8,6.7-4.8c-3,0.4-3.7,0.9-7.1,1.1
	c-11.2,0.6-19.7,1.5-32.3,1.7c-0.8,0-1.7,0-2.5,0c-0.3,0.2-0.7,0.4-1,0.6c-12.2,7.2-22.8,13-23.4,12.1c-0.5-0.7,5.9-5.9,14.6-12.2
	c0.5-0.3,0.9-0.7,1.4-1c-10.2-1-21.1-3.6-29.9-8.8c-6-3.5-12.7-9.1-17-14.3c-4.3-5.2-8.2-12.2-9.9-17.8c-3.4-11.4-2.7-20.1-1.3-31.1
	c0.1-1,0.4-1.3,0.6-2.3c-1.1,0.7-1.2,1.4-2.4,2.1c-9.8,5.7-16.7,10.2-29,11.7c-12.3,1.4-26.4-0.3-39.1-4.1
	c-6.4-1.9-13.7-5.5-19.5-9.3c-2.9-1.9-5.6-4.2-8.1-6.6c-1.2-1.2-2.4-2.5-3.5-3.7c-1.1-1.2-2.1-2.6-2.9-3.9
	c-5-8.1-8.1-16.3-10.2-25.5c-3.6,10-7.8,18.8-13.8,27.6c-1.6,2.4-3.9,5.1-5.9,7.4c-2,2.3-4.6,4.9-6.8,7c-1.1,1.1-2.7,2.5-3.6,3.3
	c-0.9,0.9-1.3,1.3-2.1,1.9c-0.7,0.6-1.7,1.3-2.2,1.7c-3,2.2-6.5,4.4-9.7,5.8c-6.4,2.7-13.7,4-20.1,4.1c-6.4,0-12.4-1.2-17.8-2.7
	c-7.8-2.2-13.5-5.2-20.5-8.7c4.9,8.9,9.2,15.2,11.9,25.7c1.5,5.6,2.3,11.6,2.6,17.7c5,3.2,8.9,5.9,10.4,7.3c0.5,0.5,0.7,0.8,0.7,0.9
	c-0.1,0.1-0.3,0.1-0.7,0c-1.5-0.3-5.3-1.9-10.3-4.2c0,6.3-0.5,12.7-1.7,18.8c-0.6,3.3-2.1,6.9-3.1,10.2c-0.5,1.6-1.4,3.3-2.1,4.8
	c-0.8,1.5-1.5,3.2-2.5,4.6c-1.9,2.8-3.8,5.6-6.1,8c-1.1,1.2-2.2,2.4-3.3,3.5c-1.1,1.1-2.4,2.2-3.6,3c-9,6.6-18.3,11.1-28.8,14.7
	c0,0-0.1,0-0.1,0c8.2,2.2,14.6,2.9,22.6,7c9.3,4.8,19,11.6,24.9,21.2c1.4,2.2,2.5,4.6,3.4,7c3.3-1.9,6.7-3.7,9.9-5.4
	c11.9-6.5,21.7-11.3,22.2-10.3c0.6,0.9-8.9,7.8-20.8,15.7c-3.1,2-6.3,4.1-9.5,6.2c1.4,6.2,1.6,12.7,0.6,18.9
	c-1.7,10.8-6.8,19.1-11.7,28.2c-1.1,2-1.6,3-2.3,4.7c1.4-0.8,2.7-1.5,4.1-2.2c0.7-0.4,1.5-0.9,2.6-1.4c11.5-5.7,24.4-10.4,37.5-13.4
	c1.6-0.4,4.1-0.8,5.9-1c1.8-0.3,4.4-0.4,5.9-0.5c1.6-0.1,2-0.2,3.4-0.2c1.3,0,1.8,0.1,3.4,0.1c1.6,0,4.4,0,6.2,0.3
	c1.8,0.2,4.4,0.7,5.9,1c1.5,0.3,2,0.3,3.3,0.6c1.3,0.3,1.6,0.5,3.1,1c1.5,0.5,3.8,1.2,5.4,2c1.7,0.8,3.5,1.8,5.1,2.7
	c1.6,0.9,3.1,2.1,4.4,3.3c1.3,1.2,2.9,2.6,4.1,3.9c2.3,2.5,4.6,5.8,6.4,8.5c1.6,2.5,3.1,5.3,4.5,8.1c1.3-1.7,2.6-3.4,3.8-5.1
	c0.8-1,1.5-2.1,2.3-3.1c2-2.5,4-5.1,6-7.6c1-1.2,3.4-5.7,5.3-3.1c0,0.1,0.1,0.1,0.1,0.2c0.8,1.5-0.8,3.8-1.4,5
	c-1.6,3-3.1,6.1-4.7,9.1c-1.4,2.7-2.9,5.3-4.4,8c-1,1.8-2.1,3.7-3.1,5.5c-0.7,1.2-1.3,2.4-2,3.5c-0.2,0.3-0.4,0.7-0.6,1
	c-2,3.4-4,6.8-6,10.1c-3.7,6.1-7.5,12.2-11.4,18.2c-3,4.9-6.3,9.6-9.4,14.4l-2.4,3.6l-0.3,0.4l0.3,0.4l2.9,3.2
	c7.6,8.4,15,17,22.3,25.6c0.7,0.5,1.4,1.2,1.7,2c0.6,1.2,0.8,2.6,0.4,4c-0.3,1.3-1.4,2.6-2.5,3.1l-1.1,0.6l-4.2,2.3l-8.4,4.6
	L146,398l-1.1,0.6c-5.6,3.1-11.1,6.3-16.7,9.5c-0.7,0.4-1.3,0.8-1.9,1.1c7.9-2.7,15.8-5.5,23.6-8.4c13.2-4.8,26.2-9.9,39.3-15
	l19.6-7.5l7.5-2.8c-9.2-8.7-18.3-17.5-27.2-26.4c-0.5-0.5-1.1-1.1-1.6-1.6c0,0-0.1-0.1-0.1-0.1l0.1,0.1c-1.5-1.3-2.4-3.3-2.4-5.3
	c0-1.1,0.3-2.3,0.8-3.3c0.5-1,1.6-2,1.5-1.9l2.1-2.1l0.3-0.3l4-3.9l8.6-8.3c5.7-5.6,11.5-11,17.3-16.5c0.7-0.7,1.5-1.3,2.2-2
	c6.6-6.1,13.3-12.2,20-18.2c0.6-0.6,1.3-1.1,1.9-1.7c0.3-0.3,0.7-0.6,1-0.9c2.9-2.5,5.7-5,8.6-7.4c0.5-0.4,0.8-0.6,1.2-0.8
	c1-0.5,1.6-0.2,1.8,0.3c0,0,0,0,0,0.1c0.4,0.9,0,2.6-1.1,3.9c-1.3,1.5-2.6,3-3.9,4.6c-0.1,0.2-0.3,0.3-0.4,0.5
	c-2.8,3.2-5.6,6.4-8.4,9.6c-1.5,1.6-2.9,3.3-4.4,4.9c10.4-2.4,21.6-3.4,32.1-0.5c0.7,0.2,1.4,0.4,2.1,0.6c-0.7-3.8-1.4-7.4-1.9-10.6
	c-1.7-10-2.5-16.9-1.6-17.2c1-0.3,4.1,8.3,7.8,20.3c1,3.2,2,6.6,3,10.2c10.3,4.4,19.6,11.1,27.7,18.8c4.9,4.7,7.6,9.5,11.6,14.5
	c-0.5-3.9-0.9-8.5-0.8-12.2c0.1-3.8,0.1-6.7,0.4-10.3c0.1-1.8,0.3-3.4,0.5-5.2c0.2-1.7,0.6-3.5,0.8-5.2c0.2-1.7,0.6-3.5,1.1-5.1
	c0.5-1.6,0.9-3.5,1.5-5c0.5-1.5,1.5-3.4,1.9-4.6c0.4-1.2,0.7-1.8,1-2.5c0.4-0.8,1-1.7,1.3-2.1c6.6-9.7,15.3-18.6,24.8-24.4
	c1.8-1.1,3.5-2,5.2-2.9c-4.8-3.7-9.4-7.2-13.3-10.4c-8.3-6.7-13.8-11.6-13.3-12.4c0.6-0.9,8.6,3.5,19.3,10.1c4.6,2.8,9.7,6,14.9,9.4
	c4.8-1.8,9.7-3,15.2-4.3c2.2-0.5,3.3,0.1,5.4-0.1c-0.9-0.7-1.6-1-2.5-1.8c-8-6.7-15.1-11.6-21.5-20.7c-6.4-9.1-11.1-20-12.2-31.8
	c-0.6-5.9,0.8-12.6,2.5-18.5C352,171.6,353.5,168.2,354.9,165.4z"/>
</svg>
