<?xml version="1.0" encoding="utf-8"?>
<!-- Generator: Adobe Illustrator 19.2.0, SVG Export Plug-In . SVG Version: 6.00 Build 0)  -->
<svg version="1.1" id="Capa_1" xmlns="http://www.w3.org/2000/svg" xmlns:xlink="http://www.w3.org/1999/xlink" x="0px" y="0px"
	 viewBox="0 0 425.2 425.2" style="enable-background:new 0 0 425.2 425.2;" xml:space="preserve">
<path d="M341.5,258.8c7.7,3.4,16.5,5.1,25.5,5.1c26.8,0,48.7-15.5,48.7-34.5c0-10.8-7-20.7-18.8-27.2c3.9-5.3,6.1-11.6,6.1-18.1
	c0-14.5-10.5-27-25.7-31.5c5.7-5.9,8.8-13.1,8.8-20.8c0-19-19.5-34.5-43.4-34.5c-10.2,0-20,2.8-27.8,8c-10.5-8.1-24.9-12.7-40-12.7
	c-16.1,0-31,5.1-41.5,13.9c-0.8-10.6-8-20.4-20.4-27.8c-12.7-7.5-29.5-11.7-47.3-11.7c-30.9,0-57.3,12.4-65.3,30.3
	C59.6,99.3,28,122.3,28,150.5c0,12.9,6.9,25.3,19.1,34.9C23.7,191.9,8.9,204.7,8.9,219c0,21.3,31.6,37.9,72,37.9
	c3.2,0,6.4-0.1,9.7-0.3c6.5,12.8,21.9,21.2,39.1,21.2c0.4,0,0.9,0,1.3,0c9.4,7.4,23.2,11.7,37.9,11.7c25.5,0,46.5-12.9,49.4-29.4
	c10,5.5,22,8.5,34.3,8.5c0.5,0,1,0,1.5,0c10.2,7.4,23.7,11.5,38.1,11.6l73.1,78l5.1-3.5L329,270.3
	C334.1,267.1,338.3,263.2,341.5,258.8z M323.4,266.4l-2.5,1.4l34.7,71L294.9,274l-2,0c-13.5,0-26.6-4-35.9-11l-0.9-0.7l-1.1,0
	c-0.8,0-1.6,0-2.4,0c-13.1,0-25.6-3.6-35.4-10.2l-5.3-3.6l0.5,6.4c0,0.4,0,0.8,0,1.2c0,14.9-19.5,27.1-43.5,27.1
	c-13.8,0-26.5-4-34.9-11l-0.9-0.8l-1.7,0.1c-0.6,0-1.1,0.1-1.7,0.1c-15.6,0-29.4-7.8-34.3-19.5l-0.9-2.1l-2.3,0.2
	c-3.8,0.3-7.6,0.5-11.3,0.5c-35.7,0-65.8-14.5-65.8-31.7c0-12.4,16.1-24.1,39.9-29.1l7.5-1.6l-6.4-4.1
	c-14.1-8.9-21.9-20.9-21.9-33.7c0-12,6.9-23.4,19.5-32.1c12.9-9,30.3-14.2,48.9-14.6l2.1-0.1l0.7-2c5.9-16.3,31.3-28.2,60.3-28.2
	c33.9,0,61.5,15.8,61.5,35.2c0,1.8-0.3,3.7-0.8,5.5l5.4,2.8c9-11.1,25.4-18,43-18c14.5,0,28.3,4.6,37.8,12.7l1.9,1.6l2-1.5
	c7-5.3,16.3-8.2,26.1-8.2c20.5,0,37.2,12.7,37.2,28.2c0,7.5-3.9,14.7-11,20l-6,4.5l7.4,1.1c15.4,2.2,26.6,13.4,26.6,26.7
	c0,6.2-2.4,12.1-7,16.9l-3,3.2l4,1.8c11.7,5.3,18.8,14.1,18.8,23.4c0,15.6-19,28.3-42.5,28.3c-9.1,0-17.9-1.9-25.3-5.6l-2.5-1.3
	l-1.5,2.4C334.6,258.3,329.7,262.9,323.4,266.4z"/>
</svg>
