<?xml version="1.0" encoding="utf-8"?>
<!-- Generator: Adobe Illustrator 19.2.0, SVG Export Plug-In . SVG Version: 6.00 Build 0)  -->
<svg version="1.1" id="Capa_1" xmlns="http://www.w3.org/2000/svg" xmlns:xlink="http://www.w3.org/1999/xlink" x="0px" y="0px"
	 viewBox="0 0 425.2 425.2" style="enable-background:new 0 0 425.2 425.2;" xml:space="preserve">
<path d="M386.5,133.2c-4.8-13.4-9.6-26.8-14.4-40.1c-4.6-12.9-7.9-28.2-15.9-39.5c-6.9-9.7-18-15.2-29.6-16.4
	c-0.4-0.1-0.7-0.1-1.2-0.1c-57.8-0.4-115.6-0.7-173.5-0.9C138,36.1,124.2,36,110.3,36c-8,0-15.2,0.1-22.1,2.2
	C82.6,39.1,77.3,41,72.2,45c-16,12.5-7.7,32.5-3.7,48.4c6.3,25,12.1,50.1,16.6,75.5c4.5,25.5,8.5,53.2,1.9,78.7
	c-7,27.2-22,52.4-36.2,76.3c-11.1,18.8-22.9,37.4-35.4,55.3c-2.1,3-0.7,7.3,2.2,6.4c0.6,4,4,6.5,8.6,2.2
	c35.7-33,73.1-65.3,112.3-94.2c44.5-32.8,103.4-38.5,156.5-46.3c26.2-3.8,52.6-6.5,78.9-8.6c8.2-0.6,15.4-0.6,22.8-4.9
	c8.7-5.1,13.3-14.4,14.4-24.1c1.3-11.1-5.6-23.4-9.2-33.5C396.8,161.9,391.6,147.5,386.5,133.2z M387.4,224c-1.8,0.8-4,1.3-6.6,1.5
	c-10.5,0.5-20.9,1.4-31.4,2.4c-26.7,2.6-53.4,6-79.9,10.2c-21.7,3.5-43.4,7.3-64.9,12.2c-4,0.9-7.9,1.8-11.8,2.8
	c-24.6,6.2-46.6,17.9-67,32.9c-23.3,17.2-46,35.7-68.1,54.9c-5.4,4.7-10.7,9.4-16,14.1c-1.6,1.5-3.3,3-4.9,4.4
	c19.2-29,37.1-59.3,50.4-91.1c8.8-21.1,11.7-41.4,10.5-64.1c-1.4-26.7-7.1-53.2-12.9-79.3c-4.3-19-8.7-38.1-14.1-56.9
	c-2.7-9.2,3.1-17.7,11.5-20.9c0.2-0.1,0.4-0.2,0.7-0.3c6.6-2.3,14.8-1.1,21.7-1.1c13.9,0,27.7,0.1,41.6,0.1
	c56.7,0.2,113.3,0.5,170,0.9c0.1,0,0.2,0,0.3,0c3.2,0.3,6.3,0.9,9.2,2c6,2.2,11.2,6.1,15.1,11.2c2.1,2.7,3.8,5.6,5.2,8.9
	c5.4,13.2,9.6,27.1,14.5,40.5c9.9,27.7,19.9,55.3,29.8,83C393.7,202.5,398.4,219,387.4,224z"/>
</svg>
