<?xml version="1.0" encoding="utf-8"?>
<!-- Generator: Adobe Illustrator 19.2.0, SVG Export Plug-In . SVG Version: 6.00 Build 0)  -->
<svg version="1.1" id="Capa_1" xmlns="http://www.w3.org/2000/svg" xmlns:xlink="http://www.w3.org/1999/xlink" x="0px" y="0px"
	 viewBox="0 0 425.2 425.2" style="enable-background:new 0 0 425.2 425.2;" xml:space="preserve">
<g>
	<path d="M413.1,147.8c-0.5-10.4-3.5-19-9.3-26.2c-1.3-1.6-2.8-3.2-4.4-4.7c-0.3-0.3-0.7-0.6-1-0.9c-1.2-1.2-2.8-2.2-4.8-3
		c-0.9-0.4-1.9-0.7-3-1c-0.8-0.2-1.6-0.4-2.5-0.6c-0.8-0.2-1.6-0.3-2.5-0.5c-1.7-0.3-3.6-0.5-5.6-0.6c-1.2-0.1-2.3-0.7-3-1.7
		c-0.7-1-0.9-2.3-0.5-3.5c3.8-11.9,3.5-21.1-0.8-27.3c-0.6-0.9-1.2-1.7-1.9-2.5c-2.4-3-5.3-5.7-8.6-8c-4.7-3.3-10.3-6-16.9-8
		c-4.8-1.5-10-2.6-15.7-3.4c-4.4-0.5-8.5-0.8-12.3-0.8c-13.6,0-23.6,3.3-30.6,10c-0.6,0.6-1.2,1.2-1.8,1.9c-0.1,0.1-0.2,0.2-0.3,0.3
		c-0.5,0.6-1.1,1-1.8,1.2c-0.6,0.2-1.1,0.3-1.7,0.2c-1.3-0.2-2.5-1-3.1-2.3c-1.3-2.9-3-5.6-5-8c-2.3-2.9-5.1-5.6-8.3-7.9
		c-3.6-2.6-7.8-4.8-12.5-6.6c-1.1-0.4-2.1-0.7-3.2-1.1c-9.7-3.1-20.8-4.5-33-4.1c-22.9,2.1-37.5,8.2-43.5,18.1
		c-0.2,0.3-0.4,0.6-0.7,0.8c-0.5,0.5-1.2,0.9-1.9,1c-0.4,0.1-0.9,0.1-1.4,0c-0.6-0.1-1.2-0.3-1.7-0.7c-0.5-0.4-1-0.7-1.6-1
		c-5.5-3.7-11.3-6.5-17.4-8.5c-4.7-1.5-9.7-2.6-14.9-3.2c-12.6-1.3-24.6,0.5-35.5,5.5c-16.9,7.5-25.5,17.4-25.5,29.5
		c0,1.1-0.4,2.1-1.2,2.8c-0.7,0.7-1.8,1.1-2.8,1.1l-0.6,0c-12.3,0-23.5,4-33.3,11.8c-10.5,8.3-16.2,18.3-17.4,30.3
		c-0.3,2.4-0.1,4.7,0.4,7c0.5,2,1.2,3.9,2.4,5.8c0.9,1.6,2.1,3.2,3.5,4.7c2.1,2.3,4.7,4.6,7.9,6.8c0.9,0.6,1.5,1.6,1.7,2.7
		c0.2,1.1-0.1,2.2-0.8,3c0,0,0,0,0,0.1c-0.5,0.7-1,1.3-1.5,2c-0.5,0.7-1,1.4-1.5,2.1c-3.9,5.8-5.8,10.8-5.5,14.9
		c0.1,1.5,0.3,3,0.5,4.4c0.5,2.8,1.4,5.5,2.7,8.2c1.2,2.5,2.8,4.9,4.7,7.2c2.2,2.8,5,5.4,8.2,8.1c14.7,12.6,28.7,16.5,43.5,12
		c1.2-0.4,2.6-0.1,3.6,0.7c1,0.8,1.6,2,1.5,3.3c-0.1,2.5-0.1,4.6,0.1,6.4c0.1,0.7,0.1,1.3,0.2,2c0,0.1,0,0.2,0,0.2
		c0,0.1,0,0.2,0,0.3c0,0,0,0.1,0,0.1c0.1,0.9,0.3,1.8,0.5,2.5c0.6,2.3,1.4,3.8,2.2,4.8c0.1,0.1,0.1,0.2,0.2,0.3
		c0.9,1.1,1.9,2.1,2.9,3.1c8.5,8.2,21.8,14,39.7,17.2c4.1,0.5,8.1,0.8,11.8,0.8c13.6,0,23.3-3.5,28.8-10.5c0.7-0.9,1.9-1.5,3.1-1.5
		c0.1,0,0.2,0,0.3,0c1.3,0.1,2.5,0.9,3.2,2.1c5.5,10,15,16.6,28.4,19.7c10.8,2.4,23.6,2.4,37.4-0.3c24.3-5.5,38.5-14.5,42.1-26.9
		c0.3-1.1,1.1-2.1,2.2-2.5c1.1-0.5,2.3-0.4,3.4,0.1c6.7,3.3,13.7,4.9,21.2,4.9c4.5,0,9.3-0.6,14.2-1.8c12.5-3.1,23.1-9.2,31.5-18.2
		c6.1-6,7.6-14.1,4.7-24.9c-0.3-1.2-0.1-2.3,0.6-3.3c0.7-0.9,1.7-1.6,2.8-1.7c13-1.6,22.8-5.4,29-11.4
		C409.8,172,413.7,161.4,413.1,147.8z"/>
	<path d="M196.9,304.8l0-0.1c-0.1-0.3-0.2-0.7-0.3-1.1c-0.3-0.9-1-1.9-2.3-2.8c-1.3-0.9-3.4-1.7-6.6-1.9c-0.7-0.1-1.5-0.1-2.3-0.1
		c-0.3,0-0.6,0-1,0c-1.1,0-2.2,0.1-3.3,0.2c0,0,0,0,0,0c-1.6,0.1-3.3-0.8-4-2.3c-0.1-0.2-0.2-0.4-0.3-0.6c-0.7-1.4-1.5-2.6-2.5-3.6
		c-1.4-1.5-3-2.7-4.9-3.6c-2-0.9-4.3-1.6-6.9-2c-7.2-0.9-11.6,1.1-14.1,6.6c-0.3,0.6-0.7,1.1-1.3,1.5c-0.4,0.3-0.8,0.5-1.2,0.6
		c-1.1,0.3-2.3,0.2-3.3-0.4c-2.1-1.3-4-2.3-5.8-3.1c-5-2.2-9.1-2.5-12.2-1c-0.1,0.1-2.4,1-6.5,10.2c-0.5,1.2-1.6,2.1-3,2.3
		c-3,0.5-5.5,1.6-7.6,3.4c-2,1.7-2.8,3.6-2.7,5.9c0,0,0,0.2,0,0.4c0,0.6,0.4,1.3,1.4,2.1c0.5,0.4,1.2,0.9,2.2,1.4
		c0.7,0.4,1.4,0.7,2.3,1.1c0.7,0.3,1.5,0.6,2.4,0.9c1.8,0.6,2.9,2.4,2.6,4.3l-0.1,0.8c-0.2,1.1-0.3,2.1-0.4,3
		c-0.2,1.1-0.3,2-0.4,2.7c-0.1,0.9-0.2,1.5-0.2,1.6c0,0.4,0,0.8,0,1.1c0.1,0.8,0.4,1.5,0.9,2c0.2,0.2,0.3,0.3,0.5,0.5
		c0.6,0.5,1.2,0.8,1.9,0.9c0.7,0.2,1.6,0.2,2.6,0.1c0.5-0.1,0.9-0.1,1.4-0.3c1.9-0.5,4.9-1.6,8.8-3.3c0.5-0.2,1.1-0.3,1.6-0.3
		c1.4,0,2.7,0.7,3.4,1.9c3.2,5.1,8.1,7.6,15,7.6l0.4,0c7.1-0.1,12.3-2.7,15.9-8c0.9-1.4,2.7-2.1,4.4-1.6c8.3,2.3,14.1,2.3,16.5-0.1
		c0.1-0.1,0.3-0.3,0.5-0.4c0.6-0.4,1.5-1.3,1.4-3.7c-0.6-4-0.9-6.8-1-8.6c-0.1-1.4,0.6-2.8,1.8-3.6c6.1-4.1,6.9-7.2,6.6-9.1
		C197.2,305.7,197,305.2,196.9,304.8z"/>
	<path d="M112.3,365.6c-0.1-0.6-0.2-1.2-0.3-1.8l-0.1-0.7l-0.2-0.9c-2.4-1.6-4.8-1.8-7.4-0.5c-2.7,1.6-6.5,2-11.8,0.9
		c-1.5-0.3-2.8-0.5-3.9-0.5c-1.3,0-1.9,0.3-2,0.3c-1.9,1.1-3.6,3.4-5.1,7c-1.5,3.8-2.8,6.7-3.8,8.7c0.7,0.7,1.6,1.4,2.5,2.2
		c0.6,0.5,1.3,1,2.1,1.5c0.7,0.5,1.4,0.9,2.2,1.4c1.6,1,3.3,2,5.3,3c0.2,0.1,0.4,0.2,0.6,0.3c1.4,1.1,2.6,1.5,4,1.5
		c2.3,0,5-1.3,8-3.8c0.2-0.2,0.5-0.4,0.7-0.5c0.8-0.4,5.1-1.9,8.8-3.2c1.6-0.5,2.5-1.2,2.7-2c-0.4-1.5-0.9-4.5-2-10.5
		C112.6,367.3,112.5,366.5,112.3,365.6z"/>
</g>
</svg>
