<?xml version="1.0" encoding="utf-8"?>
<!-- Generator: Adobe Illustrator 19.2.0, SVG Export Plug-In . SVG Version: 6.00 Build 0)  -->
<svg version="1.1" id="Capa_1" xmlns="http://www.w3.org/2000/svg" xmlns:xlink="http://www.w3.org/1999/xlink" x="0px" y="0px"
	 viewBox="0 0 425.2 425.2" style="enable-background:new 0 0 425.2 425.2;" xml:space="preserve">
<g>
	<path d="M58.3,123.5c0.2,0.8,0.4,1.6,0.8,2.7c1.4,3.9,4.1,7,7.3,8.8c3.2,1.8,6.6,2.5,9.7,2.6c3.1,0.2,5.9-0.1,8.5-0.5
		c5.2-0.9,9.5-2.3,13-3.7c3.4-1.4,6-2.7,7.8-3.7c1.7-1,2.6-1.7,2.6-1.7l-0.3-0.5c0,0-3.7,1.9-10.8,3.6c-3.5,0.9-7.8,1.8-12.7,2.1
		c-4.8,0.2-10.6,0.1-15-2.8c-2.1-1.4-3.8-3.6-4.6-6.1c-0.2-0.5-0.4-1.4-0.6-2.2c-0.1-0.6-0.2-1.4-0.3-2.1c-0.1-1.5,0-3,0.3-4.5
		c1.2-6.2,5.2-12.3,10.2-17.8c5.1-5.5,11.4-10.2,18.4-14c3.5-1.9,7.2-3.4,11-4.4c3.8-1,7.8-1.5,11.2-0.1c1.7,0.7,3.1,1.8,4.1,3.4
		c0.5,0.8,0.9,1.7,1.1,2.5c0.3,1,0.4,1.9,0.6,2.9c0.5,4-0.2,8-1.8,11.6c-3.5,7.2-10.6,11.9-17.7,14.1c-3.6,1.1-7.3,1.6-10.6,1.2
		c-1.6-0.2-3.2-0.7-4.2-1.4c-1-0.7-1.4-1.5-1.4-2.6c-0.1-2.2,1.9-5,3.9-7.2c2.1-2.2,4.6-4,7.1-5.4c2.4-1.4,5.2-2.4,7.2-2.4
		c0.5,0,0.8,0.1,1.1,0.3c0.2,0.1,0.1,0,0.2,0l0.3,0.4l0.1,0.1l0,0l0,0c0.5,0.8,0.6,1.8,0.6,2.7c-0.1,1.9-1.2,3.9-2.4,5.4
		c-1.3,1.5-2.8,2.7-4.2,3.5c-0.7,0.4-1.4,0.6-2.1,0.7c-0.6,0.1-1.1-0.1-1.7-0.3c-0.5-0.3-0.7-0.5-0.7-0.9c0-0.4,0.2-0.8,0.4-1.2
		c0.5-0.8,1-1.3,1.3-1.6c0.4-0.3,0.5-0.5,0.5-0.5l-0.3-0.5c0,0-0.2,0.1-0.7,0.4c-0.4,0.3-1.1,0.7-1.8,1.5c-0.3,0.4-0.8,0.9-0.9,1.8
		c-0.2,0.9,0.4,1.9,1.2,2.4c0.2,0.1,0.4,0.3,0.5,0.4c0.1,0.1,0.1,0.1,0.3,0.2l0.3,0.1c0.4,0.2,1,0.3,1.5,0.3c1,0,2-0.2,3-0.5
		c1.9-0.7,3.8-1.8,5.6-3.5c1.7-1.7,3.4-3.9,3.9-7.1c0.2-1.6,0.1-3.4-0.7-5l-0.1-0.3l-0.3-0.4l-0.3-0.4c-0.4-0.5-1-1.1-1.4-1.3
		c-1-0.6-2-0.9-2.9-1c-3.8-0.3-6.9,1-9.9,2.5c-3,1.6-5.9,3.6-8.5,6.2c-1.3,1.3-2.6,2.8-3.6,4.5c-1,1.8-1.9,3.8-1.8,6.4
		c0,2.5,1.7,5.2,3.9,6.4c2.1,1.3,4.4,1.6,6.5,1.7c4.2,0.1,8.2-0.9,12-2.5c7.5-3.2,14.5-8.6,18.2-16.4c1.9-3.8,2.6-8.2,2.3-12.5
		c-0.1-1.1-0.2-2.2-0.4-3.2c-0.3-1.2-0.6-2.2-1.1-3.3c-1-2.1-2.8-3.9-5-4.9c-4.3-2.1-9-1.9-13.3-1.2c-4.3,0.7-8.4,2.3-12.3,4
		c-7.8,3.6-14.6,8.6-20.4,14.3c-5.7,5.8-10.5,12.7-12,20.8c-0.3,2-0.4,4-0.3,6C57.9,121.5,58.1,122.4,58.3,123.5z"/>
	<path d="M288.7,148.3l17.2-9.4l17.2,12.6l-4.4-23l19.1-15h-22.3l-6.1-22.3l-9.5,22.1l-18.3-2l13.5,17.9L288.7,148.3z M287.5,113.2
		l13.3,1.4l6.8-15.8l4.3,15.8h15.5l-13.3,10.4l3.2,16.9l-12.2-9l-11.9,6.5l4.3-13L287.5,113.2z"/>
	<path d="M372.4,222c-7-15-26-21.8-40.7-22c1-10.4-1.2-25.2-15.5-32.7c-3.8-2-8.6-3-14.2-3c-5.3,0-10.7,0.9-15.2,2
		c-0.6-15.5-10.7-31.9-24.7-37.7c-5.4-2.2-10.7-3.3-15.7-3.3c-16.2,0-26.3,11-31.9,19.9c-1.8-2.6-4-5.6-6.6-8.7l44.6-77.2l-4.3-5
		l-40.9,81.5c-3.4-4-7.3-8.2-11.6-12.1l9.8-108l-11.2,5v101.8c-2.8-2.3-5.7-4.5-8.8-6.4L175.7,43l-5.9,4.1l14.1,67.9
		c-6.1-3.5-12.7-5.9-19.8-6.5c-2-0.2-4.1-0.2-6-0.2c-15.1,0-27,5-35.3,14.7c-12,14.1-12.9,34.7-12.4,46.1c-1.9-0.1-4.1-0.2-6.5-0.2
		c-24.8,0-43.3,9.9-52.1,27.8c-4.8,9.8-4,20.4,2.3,30.5c5.4,8.7,14.6,16.3,22.9,20.6c-3,3-6.2,6.7-9,11.2
		c-7.4,11.7-13.5,30.3-0.4,52.6c8.6,14.6,23.8,22.7,42.6,22.7c15.5,0,32.3-5.5,47.4-15.4c1.5,4.3,3.9,8.7,7.1,12.6
		c1.2,1.5,2.5,2.9,3.9,4.2l-30,35l3.7,7l29-39.6c1.8,1.4,3.6,2.7,5.6,3.8L133,410.5l11.5,4.1l36.8-70.5c4.3,1.8,8.8,2.9,13.4,3.2
		c0.6,0,1.2,0.1,1.8,0.1c6.9,0,13.3-2.1,18.9-5.3l1,33l7.7-4.3l-4.3-31.5c6.6-4.8,12-11,15.7-16.8c4.6,5.2,11.5,11.8,20.6,16
		c8.7,4,18.3,6.2,27.5,6.2c12.4,0,23.4-3.8,31.8-11c18.9-16.2,19.9-37.2,16.1-54.1c4.3-0.4,9.7-1.4,15.8-3.6
		c10.6-3.8,20.1-13.2,24.8-24.7C376.5,241,376.5,230.7,372.4,222z M344.2,266.5c-12.6,4.5-22,3.3-22,3.3c11,33.5-4.6,49.3-11.9,55.6
		c-14.3,12.2-35.8,11.6-52.5,3.9c-14.1-6.5-22.4-19.4-24.5-21.9c-2.1,6-7.5,14.4-15,20.7l-4.3-31.8l1,34.4
		c-6.1,4.4-13.4,7.3-21.1,6.9c-3-0.2-5.8-0.7-8.5-1.6l23.3-44.5l-27.3,42.9c-1.9-0.9-3.7-2-5.4-3.2l22.6-30.9l-24.9,29.1
		c-8.8-7.4-13.5-18.1-12.4-25.4c-31.3,25.5-73,28.8-89.4,1c-22.2-37.8,17.1-63.4,17.1-63.4c-5.5,3.1-45.3-19.8-32.7-45.3
		c15.7-32,60-23.1,60-23.1s-11-66.1,46-61.5c8.2,0.7,15.8,4.3,22.6,9.2l3.6,17.4l-2.2-16.4c2.8,2.2,5.5,4.5,8,7v9.3l0.8-8.6
		c3.7,3.7,6.9,7.6,9.6,11.1l-4.2,8.3l4.5-7.8c5.7,7.6,9,13.7,9,13.7s12.4-36.9,44.5-23.7c15.2,6.2,23.8,26.9,19.6,40.8
		c2.7-1.2,22.8-8.1,33.8-2.3c17,9,11.9,31.3,10.3,34.4c13.6-3.3,36.3,2.9,43.1,17.4C373.6,238.6,360.4,260.7,344.2,266.5z"/>
</g>
</svg>
