<?xml version="1.0" encoding="utf-8"?>
<!-- Generator: Adobe Illustrator 19.2.0, SVG Export Plug-In . SVG Version: 6.00 Build 0)  -->
<svg version="1.1" id="Capa_1" xmlns="http://www.w3.org/2000/svg" xmlns:xlink="http://www.w3.org/1999/xlink" x="0px" y="0px"
	 viewBox="0 0 425.2 425.2" style="enable-background:new 0 0 425.2 425.2;" xml:space="preserve">
<path d="M64.7,257.2c8.5,15.4,17.6,30.4,26.8,45.4c8.5,15.1,4.4,32.5-1.6,47.7c-2.4,6.2-5.6,12.1-8.9,17.8c-1,1.6-2,3.3-3,4.9
	c-0.3,0.4-2,3-1.1,1.7c-2.4,3.5-0.8,6.3,1.8,6c0.4,4.2,5.4,5.9,10.3,1c21.8-21.9,42.7-44.5,63.9-67c44.8,8.7,95.1,12.3,139.2-0.1
	c13.4-3.8,26.5-9.9,36.9-19.4c9.6-8.7,16.4-20.7,23.2-31.6c19.6-31.2,36.7-65,47-100.5c7.3-25.2,14.4-63.5-4.6-85.5
	C382.1,63.3,359.7,57.3,342,53c-58.3-14.2-121.4-13.9-180.8-8.5c-22.5,2.1-45.1,5.1-67.1,10.4c-7,1.6-14,3.3-20.9,5.4
	c-16.5,4.9-36.3,11.7-47.2,26C9.9,107.7,17,140.7,23.7,164C33.1,196.7,48.4,227.6,64.7,257.2z M28.9,94.5
	c3.3-7.2,9.9-11.7,16.6-15.4c2.9-1.6,6-3.1,9.1-4.5c18.6-8.2,39.6-12.2,59.4-15.5c60.8-10.2,124.9-11,186-2.5
	c23,3.2,47.9,7.8,68.4,19.4c5.1,2.9,10,6.5,13.6,11.1c1,1.3,1.9,2.6,2.6,4c7.7,14.7,6.4,34,4,49.8c-5.8,37.9-24.2,74.2-43.4,107
	c-6.9,11.7-14,23.9-22.6,34.4c-9.1,11.1-23.3,16.9-36.7,20.7c-1.2,0.3-2.3,0.6-3.5,0.9c-29.1,7.5-60.5,6.4-90.1,3.8
	c-11.2-1-22.4-2.4-33.5-4.2c-2.4-0.4-5.5-1.4-8.4-1.6c-2.3-0.2-4.4,0.2-5.9,1.8c-11.8,12.5-23.6,25.2-35.4,37.7
	c-3.5,3.7-7,7.3-10.5,11c-1.1,1.2-2.3,2.4-3.4,3.6c7.3-15.8,11.7-33.6,7.3-49.5c-0.3-1.3-0.8-2.5-1.2-3.7c-0.8-2-1.7-4-2.7-5.9
	c-0.2-0.3-0.4-0.6-0.6-0.9c-9.6-15.7-19.5-31.9-28.8-48.5c-19.8-35.3-37.1-72.6-43.4-111.9C23.7,122.1,23.1,107.1,28.9,94.5z"/>
</svg>
