<?xml version="1.0" encoding="utf-8"?>
<!-- Generator: Adobe Illustrator 19.2.0, SVG Export Plug-In . SVG Version: 6.00 Build 0)  -->
<svg version="1.1" id="Capa_1" xmlns="http://www.w3.org/2000/svg" xmlns:xlink="http://www.w3.org/1999/xlink" x="0px" y="0px"
	 viewBox="0 0 425.2 425.2" style="enable-background:new 0 0 425.2 425.2;" xml:space="preserve">
<path d="M390.5,185.8c-15.1-6.5-31.1-14.3-44.9-20c-1.1-0.7-2.1-0.8-2.9-1.7c-0.2-0.3,0.2-0.2,0.2-0.4l56.2-57.4l0.4-0.4l0.3-0.7
	c-1,0.3-2.3,0.6-3.3,1L321,131.5l-2.5,0.8c2.5-8.8,5.6-17.6,8.2-26.4c0.1-0.2,0.1-0.5,0.2-0.7l-0.4-0.2l-23.7,6.5l-2.6,0.7l-0.1-0.3
	l18.4-52.3l1-2.8l-0.1-1l-45.4,40.6l-2.5,2.2l-0.8,0.2c3.5-21.1,7-41.8,10.9-62.8c0.3-1.6,0.6-3.2,0.9-4.8l-0.1-1.3l-2.4,3.5
	l-35.5,50.4l-2.1,3l-0.3,0l-2.2-9.7l-14.1-58.4l-0.8-3.5l-0.9-3.2c-1.2,4.2-2.7,8.9-3.8,13.5l-14,52.3L206,79l-0.6,1.3
	c-8.2-9.4-17.6-18.5-26.5-28c-1.2-1.3-2.4-2.5-3.5-3.8l-0.2,0.4l-3.3,39.9l-0.2,2.3l-0.6,0.9c-14.1-14-28.2-27.7-42-40.8
	c-3.3-2.9-6.5-6.5-10-10c-0.7-0.7-1.4-1.4-2.1-2c-1.6-1.9-3-2.6-4.3-4.6l-0.4,0.2l6.5,18.2l19.7,54.5l0.7,1.9
	c-0.4,1.1-1.1-0.2-1.8,0.2c-6.7-3.5-13.1-6.2-19.8-9.6c-3.2-1.2-5.9-2.7-8.9-4.1c-0.7-0.3-1.4-0.6-2.1-0.9c-1.4-0.3-2.2-1.4-3.5-1.5
	l6.7,37.4l0.3,1.9l-0.6,0.2l-42.2-12.2l-2.6-0.7l-5.5-1.8l-0.1,0.2l36.8,45.1l0.4,0.6l-0.1,0.2c-8.6,1-17.5,1.5-26.3,2.3
	c-2.2,0.2-4.4,0.4-6.5,0.6c7.5,9.4,15.4,18.5,23.1,27.6l0,0l-0.1,0.4l-57.8,14.7l-6.7,1.7l-0.6,0.5l69.3,11.5l0.2,0.4L60.9,250
	c12.6,2.8,25.3,5.3,37.9,7.6l0,0.4l-29.9,31.8c-4.2,4.6-8.9,8.9-12.6,13.7l65.2-17.9l0.4,0.2c-6.3,11.2-12.1,22.8-18.7,34.2l0.1,0.7
	c11.8-3.2,25-7.2,37.1-10.2l0,0.2l-16.9,53.9l-0.7,3.1l0.3-0.2l5.6-5.5l36.6-35.9c0.3,0,0.2,0.3,0.4,0.5l0,0.2l4.8,56.2
	c1.7-2.2,3.3-4.5,4.9-6.8c9.3-13,18.3-26.3,27.8-39.3l0.2,0.1l0.4,1.4l12.2,37.1c1-2.8,2.1-5.6,3.1-8.4c3.4-9.4,6.8-19,9.9-28.5
	l0.4,0c0.5,0,0.5,0.6,0.7,1l0.9,1.6l28.4,50.4l12.3,21.4l-0.6-12.4l-2-41.4l-1.4-24.9l0.4-0.7c1.1,1.1,2.3,2.1,3.5,3.2
	c6.6,6.1,13.7,12.2,20,18.2c8.4,7.2,16.2,15.4,24.8,22.2l0-0.2l-2.4-8.7l-12-42.8l-1.9-7.2l0.3-0.2l4,1.4l37.7,12.9l-2.8-5.2
	l-16.8-30.8l0.2-0.4l4.4,1l1.4,0.3l62.3,16.2l0.1-0.2l-2.5-3.8l-40.2-61.9l0.3-0.5c0.9-0.1,1.7-0.3,2.6-0.4
	c7.8-1.1,15.8-2.2,23.6-3.6c-0.3-0.4-0.6-0.9-1-1.3c-6.1-8.2-12-16.5-18.4-24.5l-0.2-1l2.1-0.9l46.1-18.8l5.6-2.6l-0.3-0.1
	L390.5,185.8z"/>
</svg>
