<?xml version="1.0" encoding="utf-8"?>
<!-- Generator: Adobe Illustrator 19.2.0, SVG Export Plug-In . SVG Version: 6.00 Build 0)  -->
<svg version="1.1" id="Capa_1" xmlns="http://www.w3.org/2000/svg" xmlns:xlink="http://www.w3.org/1999/xlink" x="0px" y="0px"
	 viewBox="0 0 425.2 425.2" style="enable-background:new 0 0 425.2 425.2;" xml:space="preserve">
<path d="M31.3,155.7l2.3,1.4l-1.1,2.4c-2.3,5.2-3.4,10.7-3.4,16.3c0,10.9,4.3,21.2,12.2,29l3.1,3.1l-3.9,1.9
	c-10.5,5.1-16.8,13-16.8,21.2c0,14.8,19.4,26.8,43.2,26.8c6.9,0,13.5-1,19.6-3l2-0.6l1.3,1.6c8.5,10.4,24.4,16.9,41.5,16.9
	c18.1,0,35-7.4,43-18.9l2-3l2.6,2.5c7.7,7.4,22.8,11.9,39.4,11.9c11.1,0,21.7-2.1,29.9-5.8l1.8-0.8l1.5,1.4
	c7.8,7.1,21.2,11.5,38.6,12.8c0.9,0.1,1.8,0.1,2.7,0.1c9,0,17.4-3.1,22.3-6l2.6-1.5l45,72.4l-18.1-71.6l5.7,2.5
	c6.4,2.7,13.7,4.2,21.1,4.2c22.8,0,41.3-13.3,41.3-29.6c0-8.3-5-16.3-13.7-22l-4.2-2.7l4.4-2.5c8.6-5,13.6-12,13.6-19.5
	c0-7.6-5.2-14.8-14.2-19.8l-5.5-3l5.8-2.5c6.5-2.8,10.3-6.6,10.3-10.2c0-4.9-6.8-9.8-17.2-12.5l-8-2.1l7.4-3.7
	c7.9-3.9,12.4-9.5,12.4-15.4c0-11-16-20.3-35-20.3c-10,0-19.6,2.6-26.3,7l-1.9,1.3l-1.8-1.5c-7.8-6.7-19.3-10.5-31.7-10.5
	c-9.7,0-19.2,2.4-26.6,6.9l-2.8,1.7l-1.5-3c-6.2-12.3-22.9-20.6-41.6-20.6c-18,0-34.5,7.8-41.1,19.5l-1.6,2.8l-2.7-1.7
	c-7.9-4.9-18.6-7.5-29.9-7.5c-12.2,0-23.8,3.2-31.7,8.7l-2.4,1.7l-1.8-2.3c-10.2-13.1-30.1-21.2-52.1-21.2
	c-32.3,0-58.6,17.5-58.6,38.9C12.7,138,19.5,148.4,31.3,155.7z"/>
</svg>
