<?xml version="1.0" encoding="utf-8"?>
<!-- Generator: Adobe Illustrator 19.2.0, SVG Export Plug-In . SVG Version: 6.00 Build 0)  -->
<svg version="1.1" id="Capa_1" xmlns="http://www.w3.org/2000/svg" xmlns:xlink="http://www.w3.org/1999/xlink" x="0px" y="0px"
	 viewBox="0 0 425.2 425.2" style="enable-background:new 0 0 425.2 425.2;" xml:space="preserve">
<path d="M67.4,228.6L71,230l-1.7,3.6c-2.4,5.1-3.6,10.4-3.6,15.8c0,25.4,26.9,46.1,59.9,46.1c4,0,7.9-0.3,11.8-0.9l3.3-0.5l0.9,3.2
	c7.5,27.1,39.2,46.7,75.5,46.7c20.3,0,39.5-6,54.1-17l2.5-1.8l94.5,86.5l-53.4-111.8l5.5-0.3c30.3-1.7,45.6-12.5,45.6-32.3
	c0-6.5-2.6-13-7.5-18.7l-2.6-3.1l3.3-2.3c17.6-12.4,28-33,28-55c0-28.2-17.2-53.4-42.8-62.7l-4.7-1.7l3.1-4
	c4.8-6.2,7.3-13.4,7.3-20.9c0-21.2-20.3-38.4-45.4-38.4c-10.5,0-20.3,3-28.5,8.5l-6.1,4.2l0.3-7.8c0-0.3,0-0.6,0-1
	c0-27.5-31.1-49.9-69.2-49.9S132,36.9,132,64.4c0,2.5,0.3,4.9,0.7,7.3l0.8,4.1l-4.2,0.3c-40.9,3.1-71.7,23.3-71.7,46.9
	c0,11,6.9,21.8,19.6,30.4l6.7,4.6l-7.9,2.1c-22.1,5.8-37,20.1-37,35.7C39.2,209,50,221.6,67.4,228.6z"/>
</svg>
