<?xml version="1.0" encoding="utf-8"?>
<!-- Generator: Adobe Illustrator 19.2.0, SVG Export Plug-In . SVG Version: 6.00 Build 0)  -->
<svg version="1.1" id="Capa_1" xmlns="http://www.w3.org/2000/svg" xmlns:xlink="http://www.w3.org/1999/xlink" x="0px" y="0px"
	 viewBox="0 0 425.2 425.2" style="enable-background:new 0 0 425.2 425.2;" xml:space="preserve">
<path d="M399.6,67.8c-0.4-0.7-0.9-1.2-1.3-1.8c-4.3-5.7-10.3-8.7-17.2-10.9c-23.3-7.3-49.1-7-73.2-6.5c-32.1,0.7-64.2,3.6-96.1,7.7
	c-30,3.8-60,8.5-89.6,14.7c-10.7,2.3-21.5,4.6-32,7.6c-4,1.1-8.5,2.2-12.6,3.9c-4.3,1.7-8.3,4.1-11.2,7.8
	c-7.9,10.1-7.7,24.8-6.7,36.9c1.3,15.5,4.3,30.8,6.8,46.2c3.8,23.2,8.6,50.9-2.6,72.7c-1.1,2.1-2.4,4.2-3.8,6.2
	c-0.2,0.3-0.4,0.6-0.6,0.9c-0.8,1-1.7,2.1-2.6,3.1c-13.9,16.9-29.4,33.9-47,47.6c0.5-0.1,1-0.2,1.5-0.3c0,0,0.1,0,0.1,0
	c4-0.9,8-1.8,12-2.6c32.8-6.7,66.9-9.8,99.7-4.4c33.8,5.5,67.5,12.3,101.4,17.2c33.4,4.8,69.2,10.1,102.8,4.9c3.9-0.6,8-1.3,12-2.4
	c6.4-1.7,12.5-4.4,17-9.2c7.6-8,13.2-17.9,17.9-27.8c13.4-28.1,22-58.9,27.8-89.5c5.6-29.5,9.8-60.8,6.2-90.9
	C407.2,88.2,405.3,77,399.6,67.8z"/>
</svg>
