<?xml version="1.0" encoding="utf-8"?>
<!-- Generator: Adobe Illustrator 19.2.0, SVG Export Plug-In . SVG Version: 6.00 Build 0)  -->
<svg version="1.1" id="Capa_1" xmlns="http://www.w3.org/2000/svg" xmlns:xlink="http://www.w3.org/1999/xlink" x="0px" y="0px"
	 viewBox="0 0 425.2 425.2" style="enable-background:new 0 0 425.2 425.2;" xml:space="preserve">
<path d="M391.6,366.7c-0.2-6.5-0.6-13.4-1.2-20.5c-2.2-27.8-6.9-58.2-14.1-79.2h25V59.3v0H23.8v0v207.7h290.7c0.7,0.5,1.4,1,2.1,1.5
	C339.2,285.2,373.7,333.4,391.6,366.7C391.6,366.7,391.6,366.7,391.6,366.7z M318.7,252.7c-16.9-12.4-44.4-29.1-74.2-38.4
	c26.2,13.6,44.4,26.2,57.6,38.9H43.1V69.4h346.7v183.7h-21c-3.3-6.1-7.3-12.7-12.9-19.5c3.6,6.6,5.6,11.8,8,19.5
	c7.6,24.2,11.9,45.9,14.2,62.9C359.1,289.1,340.6,268.9,318.7,252.7z"/>
</svg>
