<?xml version="1.0" encoding="utf-8"?>
<!-- Generator: Adobe Illustrator 19.2.0, SVG Export Plug-In . SVG Version: 6.00 Build 0)  -->
<svg version="1.1" id="Capa_1" xmlns="http://www.w3.org/2000/svg" xmlns:xlink="http://www.w3.org/1999/xlink" x="0px" y="0px"
	 viewBox="0 0 425.2 425.2" style="enable-background:new 0 0 425.2 425.2;" xml:space="preserve">
<g>
	<path d="M363.1,145.1c7.8-13.1,28.3-55.6-6.6-89.1c-12.7-12.2-28.2-18.3-46-18.3c-17.1,0-32.4,5.8-41.4,10.1
		c-17.7-29.3-38.4-33.1-54.6-33.1c-2.5,0-5,0.1-7.3,0.2c-27.4,1.2-47.1,22.2-55.4,32.9c-7-1.2-13.6-1.9-19.5-1.9
		c-18.9,0-33,6.2-41.8,18.3c-11.9,16.5-10.2,39.5-7.4,53.9c-17.9,2.4-29.9,11.6-37,19.2c-11.7,12.5-18.3,29.8-17.3,45.1
		c2.2,32.8,22.5,52,55.8,52.9c-7.2,15.5-16.9,41.8,4,63.8c9,9.5,20.6,14.3,34.3,14.3c14.2,0,28-5.2,38-10.3
		c9.9,31.4,46.3,45.7,77,45.7c6.9,0,13.4-0.8,18.8-2.3c14.6-4.1,26.6-12.5,35.6-24.9c11.7,14.5,16.7,35.7,14.3,61.9l-2.5,27.2
		l19.2-19.4c1.6-1.6,38.9-40.5,20.8-113.1c39-5.5,47.5-28.5,52.7-51.7C406,186.4,378,157.4,363.1,145.1z M390.6,221.2
		c-5.2,22.9-12.3,43.2-55.8,45.2c23.9,75.5-15.1,114.9-15.1,114.9c4-43.8-11.3-66.7-26-78.5c-6.6,13.1-17.6,25.8-36.3,31.1
		c-25.3,7.2-84.1-4.6-85.9-49.6c0,0-45.9,32.6-72.4,4.8c-24-25.2,2.8-58.5,4.4-67.9c0,0-57.9,12-61.6-42.7
		c-1.6-23.4,19.2-56.4,57-54.4c0,0-29.4-88.7,60.6-68.7c0,0,20.3-32.6,51.5-33.9c16.7-0.7,38.8-1.2,57.5,36.4
		c0,0,49.2-31.8,84.5,2.1c35.4,33.9,3.6,80,0,84.2C353.1,144.2,401.2,174.9,390.6,221.2z"/>
	<path d="M326.4,29.4c27.8,4.2,54,15.9,56.1,55.9c0,0,5.9-19.2-8.5-38.3c-21.2-28.2-74.9-25.7-89.8-15.6
		C284.2,31.4,303.9,25.9,326.4,29.4z"/>
</g>
</svg>
