<?xml version="1.0" encoding="utf-8"?>
<!-- Generator: Adobe Illustrator 19.2.0, SVG Export Plug-In . SVG Version: 6.00 Build 0)  -->
<svg version="1.1" id="Capa_1" xmlns="http://www.w3.org/2000/svg" xmlns:xlink="http://www.w3.org/1999/xlink" x="0px" y="0px"
	 viewBox="0 0 425.2 425.2" style="enable-background:new 0 0 425.2 425.2;" xml:space="preserve">
<g>
	<path d="M266.1,271.2c-2.1-1.5-4.6-2.3-7.1-2.4c-2.4,0.1-4.5,0.5-6.3,1.5c-0.1,0-0.1-0.1-0.2-0.1c-2.1-0.7-4.1-1.2-6.4-1.4
		c-4.7-0.1-8.5,1.4-11.7,4.6c-3.2,2.7-5,6.5-5.2,10.9c0.1,4.5,1.8,8.5,5,11.7c1.6,1.7,3.5,2.9,5.4,3.8c2.6,1.7,5.5,2.7,8.7,2.8
		c4.6,0.1,8.6-1.4,11.8-4.4c0.7-0.7,1.5-1.5,2.1-2.3c3-0.1,5.8-1.3,8.2-3.6c2.6-2.4,4-5.5,4-8.9c-0.1-3.5-1.4-6.5-3.8-8.9
		C269.4,273,267.8,271.9,266.1,271.2z M264.8,287.6c-1.8,1.7-3.8,2.5-6,2.3c-0.6,0-1.3,0.2-1.7,0.6c-0.1,0.1-0.3,0.3-0.3,0.3
		c-0.8,0.9-1.6,1.9-2.3,2.6c-2.4,2.3-5.2,3.3-8.6,3.2c-1.4,0-2.7-0.3-4-0.8c-1.6-0.6-3-1.6-4.3-2.9c-1.5-1.5-2.5-3.2-3.1-5
		c-0.4-1.1-0.6-2.3-0.6-3.5c0.1-3.2,1.4-5.8,3.8-7.9c1.6-1.6,3.4-2.6,5.3-3.1c1-0.2,1.9-0.3,3-0.3c0.9,0.1,1.7,0.2,2.6,0.4
		c-0.3,0.4-0.6,0.7-0.8,1.1c-1.4,2-2.1,4.3-2,6.7c0,1.2,1.1,2.2,2.3,2.2c0.2,0,0.3,0,0.5-0.1c1-0.2,1.8-1.1,1.7-2.2
		c-0.1-2.1,0.8-4.1,2.6-5.8c0,0,0,0,0,0c0,0,0.1-0.1,0.1-0.1c0,0,0,0,0,0c0.2-0.2,0.5-0.4,0.6-0.5h0c0.1,0,0.2-0.1,0.3-0.2
		c0,0,0,0,0.1,0c0.1,0,0.1-0.1,0.2-0.1c0.8-0.5,1.7-0.9,2.6-1.1c0.2,0,0.3-0.1,0.5-0.1c0.6-0.1,1.1-0.2,1.8-0.2
		c1.7,0,3.3,0.7,4.8,1.8c0.4,0.3,0.7,0.6,1.1,0.9c1.6,1.6,2.4,3.5,2.5,5.9C267.4,284,266.5,286,264.8,287.6z"/>
	<path d="M260.9,330.5c-2.7-1.8-5.7-2.7-8.9-2.8c-4.9-0.1-9,1.5-12,4.6c-3.6,3.1-5.4,7.1-5.3,11.7c-0.2,4.4,1.4,8.4,4.9,11.9
		c1.7,1.7,3.6,3,5.6,3.9c2.8,1.8,5.9,2.8,9.2,2.8c4.4,0.1,8.5-1.4,12.1-4.5c3.3-3.4,5-7.3,5.2-11.7c0.1-4.5-1.6-8.5-5-11.9
		C264.9,332.7,263,331.4,260.9,330.5z M260.6,353.4c-2.6,2.3-5.6,3.4-8.9,3.3c-1.6,0-3.1-0.3-4.4-0.8c-1.6-0.6-3.1-1.6-4.5-3
		c-1.5-1.5-2.5-3.1-3.1-4.8c-0.4-1.2-0.6-2.5-0.5-3.9c-0.1-3.5,1.2-6.2,4-8.6c1.5-1.6,3.3-2.6,5.4-3.1c1.1-0.3,2.2-0.4,3.4-0.3
		c2.6,0.1,4.8,0.8,6.9,2.3c0.7,0.5,1.3,1,1.9,1.6c2.5,2.6,3.7,5.4,3.7,8.7C264.3,348.1,263,350.9,260.6,353.4z"/>
	<path d="M256.7,387.8c-1.9-1.4-4.1-2.2-6.8-2.2c-3.1-0.1-5.8,0.9-8,3c-2.2,2-3.3,4.5-3.5,7.6c0.1,2.7,0.8,4.9,2.2,6.8
		c-0.6,1.1-0.8,2.4-0.8,3.7c-0.1,2.3,0.7,4.5,2.5,6.3c1,1,2.2,1.8,3.5,2.2c1.6,1.3,3.5,1.9,5.7,2c2.4,0.1,4.6-0.8,6.4-2.4
		c1.7-1.6,2.6-3.6,2.8-6.1c0-0.9-0.1-1.8-0.3-2.6c0,0,0,0,0,0c2.3-2.1,3.4-4.8,3.2-7.8c0.2-2.9-0.8-5.6-3.1-7.8
		C259.5,389.2,258.2,388.3,256.7,387.8z M254.3,401.8c0,0,0.1,0,0.2-0.1C254.4,401.8,254.3,401.8,254.3,401.8z M256.6,396.6
		c0.1,2.1-0.5,3.5-1.9,4.8c-0.1,0.1-0.4,0.3-0.4,0.4c-0.5,0.2-1,0.6-1.2,1.1c-0.3,0.6-0.2,1.3,0,1.8c0.3,0.7,0.5,1.4,0.5,2.2
		c-0.1,1.3-0.6,2.3-1.5,3.1c-0.9,0.8-1.9,1.2-3.1,1.2c-0.3,0-0.6,0-0.8-0.1c-1-0.2-1.8-0.6-2.5-1.3c-0.3-0.3-0.6-0.7-0.8-1.1
		c-0.3-0.6-0.4-1.3-0.4-2c0-0.1,0-0.2,0-0.3c-0.1-0.8,0.2-1.6,0.8-2.3c0.2-0.2,0.3-0.4,0.3-0.6c0.3-0.8,0.2-1.7-0.5-2.3
		c-0.8-0.8-1.3-1.6-1.7-2.6c-0.3-0.8-0.4-1.6-0.5-2.5c0.1-1.8,0.8-3.3,2.1-4.6c1-0.9,2-1.4,3.3-1.7c0.5-0.1,1-0.1,1.5-0.1
		c1.9,0.1,3.4,0.6,4.6,1.7c0.1,0.1,0.2,0.2,0.3,0.3C256.1,393.3,256.7,394.8,256.6,396.6z"/>
	<path d="M229.6,253.9c1.9,2,4.1,3.6,6.4,4.6c3.1,2,6.6,3.1,10.4,3.1c5.5,0.3,10.5-1.6,14.7-5.5c4.2-3.9,6.2-8.7,6.2-14.1
		c0.2-5.1-1.8-10-5.8-14.1c-0.7-0.7-1.5-1.4-2.3-2c0.1-0.8,0.2-1.5,0.2-2.4c0.1-5.1-1.7-9.5-5.2-13.1c-1.9-1.9-3.9-3.3-6-4.2
		c-3-2-6.3-2.9-10-2.9c-2.3-0.1-4.5,0.3-6.8,1c-2.9-1.1-6-1.7-9.7-1.8c-7.1-0.2-13.2,2.1-18.2,6.8c-5.1,4.7-7.7,10.7-8,17.6
		c0,7,2.6,13.1,7.5,18.1c2.2,2.3,4.7,4,7.4,5.3c3.9,2.5,8.3,3.8,13.3,3.9C225.6,254.4,227.6,254.2,229.6,253.9
		C229.5,253.9,229.6,253.9,229.6,253.9z M228,242c0-0.1-0.1-0.2-0.1-0.4c-0.4-1-1.4-1.7-2.5-1.5c-1.2,0.2-2.1,1.3-1.9,2.5
		c0.3,2,0.9,3.8,1.8,5.6c-1.4,0.2-2.9,0.3-4.3,0.2c-3.1-0.1-5.9-0.7-8.4-1.9c-2.3-1.1-4.5-2.6-6.4-4.5c-2.7-2.7-4.5-5.7-5.4-9
		c-0.5-1.9-0.8-3.9-0.8-6c0.2-5.8,2.3-10.6,6.6-14.5c2.5-2.4,5.3-4,8.5-4.8c2-0.6,4.2-0.8,6.5-0.8c3.4,0.1,6.3,0.7,8.8,1.8
		c0.6,0.2,1.2,0.3,1.7,0.1c2-0.7,3.9-1.1,6-1c3,0,5.6,0.8,7.9,2.4c0.8,0.5,1.5,1.2,2.2,1.9c2.7,2.7,4,5.9,3.9,9.8
		c-2.4-1-5-1.6-7.8-1.7c-1.3,0-2.3,0.9-2.3,2.1c0,1.2,1,2.2,2.2,2.3c0.2,0,0.4,0,0.6,0c2.9,0.2,5.5,1,7.9,2.6c0,0,0.1,0.1,0.1,0.1
		c0.9,0.7,1.8,1.4,2.6,2.2c3.2,3.2,4.7,6.9,4.5,11c0.1,4.4-1.5,8-4.8,11.1c-3.3,3.1-7,4.5-11.5,4.3c-2,0-3.9-0.4-5.7-1.1
		c-1.6-0.7-3.1-1.7-4.5-3c0,0,0,0,0,0c-0.3-0.3-0.6-0.5-0.8-0.8c-0.1-0.1-0.2-0.2-0.3-0.3c-0.6-0.4-1-1-1.5-1.6c0,0,0,0,0,0
		c-0.1-0.2-0.2-0.3-0.3-0.5c0,0,0,0,0,0c-1-1.5-1.7-3-2.2-4.7C228.3,243.3,228.1,242.7,228,242z"/>
	<path d="M309.8,77.6c0.9-3.1,1.4-6.5,1.5-10.1c0.1-10.5-3.6-19.7-11.1-27.4c-3.3-3.3-6.9-5.9-10.8-7.9c-3.1-1.9-6.5-3.3-10-4.2
		c-1.4-3.2-3.4-6.3-6.1-9.3c-2.5-2.4-5.2-4.3-8.1-5.8c-6-3.7-13.1-5.3-21.3-4.7c-10.5,0.8-20,5.1-28,12.9c-2.7,2.6-4.9,5-6.7,7.5
		c-3.7-1-7.6-1.4-11.8-1.2c-9.7,0.4-18.5,4.2-26.2,11.3c-7.7,7.2-12,15.6-12.9,25.2c-0.4,4.4-0.1,8.2,1,11.7
		c-6.5,1.8-12.1,5.1-17.2,10.1c-8,7.5-12.4,16.4-13,26.6c-0.3,3.8,0.1,7.7,1.1,11.5c-3,1.6-5.9,3.7-8.8,6.4
		c-7.7,7.2-12.1,15.9-13,25.8c-0.9,9.9,2,18.2,8.6,24.9c2.6,2.6,5.4,4.6,8.6,6.2c5.5,3.4,12,5,19.5,4.7c4-0.2,8.1-1,12-2.5
		c2.4,2.6,4.9,5,7.5,7.1c2.2,1.9,4.6,3.4,7,4.6c6.8,4.2,14.6,5.6,23.2,4.3c10-1.6,17.3-6.4,21.8-14.4c2.4,0.2,4.9,0,7.6-0.4
		c8.4-1.3,16.2-5.3,23.3-12c4.1-3.8,7.2-7.6,9.5-11.6c14.2-1.8,26.7-7.8,38-18.4c12.6-11.8,19.6-25.8,20.8-41.7
		C316.4,96.1,314.5,86.2,309.8,77.6z M308.4,105c-1.1,14.8-7.7,27.9-19.4,38.9c-8.9,8.4-18.6,13.7-29.3,16.2
		c-0.8,0.2-1.7,0.4-2.6,0.5c-0.3,0.1-0.5,0.1-0.8,0.1c0.7-1.8,1.3-3.8,1.6-5.8c0.9-3.6,1-7,0.5-10.1v0c-0.4-2.1-1.1-4.1-2.1-6
		c-0.1-0.1-0.1-0.2-0.2-0.4c-0.6-1.1-2-1.5-3.1-0.9c-1.1,0.6-1.5,1.9-0.8,3c2.2,3.7,2.6,8.1,1.3,13.4c-0.5,3.2-1.7,6.1-2.8,8.5
		c0,0,0,0,0,0c-2.1,4-5.1,7.7-9.2,11.5c-6.4,6-13.5,9.6-20.9,10.8c-0.8,0.1-1.7,0.2-2.5,0.3c-0.8,0.1-1.5,0.1-2.3,0.1
		c-0.2,0-0.4,0-0.6,0c0.3-2.3,0.4-4.8,0.3-7.6c0-0.2-0.1-0.4-0.1-0.6c-0.3-0.9-1.2-1.6-2.3-1.5c-1.3,0.1-2.2,1.1-2.1,2.3
		c0.2,3.4,0,6.3-0.6,8.6c-3.9,7.4-10.2,11.8-19.2,13.2c-6.5,1-12.2,0.3-17.5-2.2c-2.2-1.1-4.4-2.5-6.4-4.2c-2.1-1.7-4.1-3.5-6-5.5
		c-0.2-0.2-0.3-0.4-0.5-0.5c-0.4-0.4-0.7-0.8-1.1-1.2c-0.1-0.1-0.1-0.1-0.2-0.2c0.3-0.2,0.7-0.3,1-0.5c0,0,0,0,0,0
		c0.1-0.1,0.2-0.1,0.3-0.2l0,0c1-0.5,1.3-1.6,1-2.6c0-0.1-0.1-0.3-0.2-0.4c-0.6-1.1-2-1.4-3.1-0.8l0,0c-1.2,0.7-2.3,1.3-3.4,1.7
		c0,0-0.1,0-0.1,0c0,0,0,0,0,0c0,0,0,0-0.1,0c0,0,0,0,0,0c0,0,0,0,0,0c-4.3,1.9-8.6,2.9-13,3.2c-5.4,0.2-10.2-0.7-14.4-2.7
		c-2.8-1.3-5.3-3.1-7.5-5.3c-3.2-3.2-5.3-6.9-6.5-11c-0.9-3.2-1.2-6.7-0.8-10.4c0.8-8.9,4.6-16.5,11.7-23.1c2.4-2.2,4.7-4,7.1-5.3
		c0,0.1,0.1,0.2,0.1,0.4c0.3,0.7,0.6,1.4,0.9,2.1c0.2,0.4,0.4,0.9,0.7,1.3c0.5,0.9,1.5,1.3,2.4,1.1c0.2,0,0.4-0.1,0.7-0.2
		c0.5-0.3,0.9-0.8,1-1.3c0.1-0.5,0.1-1.1-0.2-1.7c-0.3-0.4-0.5-0.9-0.7-1.3v0c-0.6-1.3-1.1-2.6-1.6-4c0,0,0,0,0,0s0,0,0,0
		c-0.1-0.4-0.2-0.8-0.3-1.2c-0.9-3.4-1.3-7-1-10.4c0.6-9.2,4.4-16.9,11.7-23.7c4.5-4.4,9.5-7.4,15.1-9c0.2-0.1,0.4-0.1,0.6-0.1
		c0.3,0.7,0.6,1.3,1,2c1.3,2.4,3,4.7,5.1,6.8c0.7,0.7,1.5,1.5,2.4,2.2c0.4,0.3,0.9,0.4,1.4,0.4c0.7,0,1.4-0.3,1.8-0.9
		c0.1-0.1,0.1-0.2,0.2-0.3c0.5-1,0.2-2.1-0.8-2.8c-0.6-0.4-1.2-1.1-1.7-1.6c-1.5-1.6-2.9-3.3-3.9-5.1c0,0,0,0,0,0
		c-0.7-1.2-1.4-2.5-1.9-3.9c0,0,0,0,0,0c0,0,0,0,0,0c0,0,0,0,0-0.1c0,0,0,0,0,0c-0.3-0.8-0.6-1.6-0.8-2.4c-0.8-2.8-1-5.9-0.7-9.5
		c0.8-8.5,4.7-16.1,11.5-22.5c4.4-4.2,9.3-7,14.6-8.6c2.8-0.9,5.7-1.4,8.7-1.5c3.3-0.2,6.3,0,9.1,0.7c-0.2,0.3-0.4,0.6-0.5,0.9
		c-1.1,2-2.1,4.1-3,6.5c-0.4,1.1,0.2,2.4,1.3,2.8c0.4,0.2,0.9,0.2,1.3,0.1c0.7-0.2,1.3-0.6,1.6-1.4c1-2.6,2.1-5,3.4-7.2
		c0.1-0.1,0.1-0.2,0.2-0.3c0.3-0.5,0.6-1.1,1-1.6c0,0,0,0,0,0c0,0,0,0,0,0c0.4-0.6,0.8-1.2,1.3-1.8c0,0,0,0,0,0
		c1.5-2,3.4-4.1,5.7-6.2c5.1-5,10.7-8.3,16.8-10.1c2.7-0.8,5.5-1.3,8.4-1.5c7.3-0.5,13.4,0.8,18.6,4.1c1.6,1,3.1,2.2,4.5,3.6
		c1.9,2.1,3.4,4.2,4.5,6.5c-0.7-0.1-1.3-0.1-2-0.2c-11.1-0.3-20.5,3.3-28,10.6c-4.9,4.6-8.3,9.8-10.1,15.5c-0.4,1.2,0.3,2.4,1.5,2.8
		c0.4,0.1,0.8,0.1,1.2,0c0.8-0.2,1.4-0.7,1.6-1.5c1.6-5,4.6-9.6,8.9-13.7c3.9-3.7,8.3-6.4,13.2-7.9c3.6-1.1,7.4-1.6,11.4-1.5
		c1.7,0.2,3.5,0.3,5.4,0.6c0,0,0,0,0,0c0.3,0,0.6,0.1,0.9,0.2c0,0,0,0,0,0c1.2,0.2,2.4,0.5,3.5,0.8c0,0,0,0,0,0
		c2.7,0.8,5.3,2,7.8,3.4c2.5,1.5,4.8,3.4,7,5.6c6.7,6.7,10,14.9,9.9,24.2c0,3.5-0.6,6.9-1.5,9.7c-0.2,0.6-0.1,1.2,0.2,1.7
		C307.3,85.4,309.2,94.7,308.4,105z"/>
</g>
</svg>
