<?xml version="1.0" encoding="utf-8"?>
<!-- Generator: Adobe Illustrator 19.2.0, SVG Export Plug-In . SVG Version: 6.00 Build 0)  -->
<svg version="1.1" id="Capa_1" xmlns="http://www.w3.org/2000/svg" xmlns:xlink="http://www.w3.org/1999/xlink" x="0px" y="0px"
	 viewBox="0 0 425.2 425.2" style="enable-background:new 0 0 425.2 425.2;" xml:space="preserve">
<path d="M373,287.7c25.4-8.8,38.3-19.4,38.3-31.4c0-5.4-2.6-10.5-7.6-15.2c-2-1.9-4.5-3.7-7.3-5.5c-4.7-3-10.5-5.8-17.4-8.5
	c-2.4-1-4.2-1.7-6-2.3c-0.9-0.3-1.9-0.6-3-1c-3.8,6.6-10.4,12.3-20,17.5c-2.6,1.4-5.4,2.8-8.7,4.2c-0.2,0.1-0.5,0.1-0.7,0.1
	c-0.7,0-1.4-0.4-1.6-1.1c0,0,0,0,0,0c-0.4-0.9,0.1-1.9,0.9-2.3c3.1-1.3,5.9-2.6,8.4-4c9.3-5,15.6-10.7,19-16.8l0,0
	c0-0.1,0.1-0.3,0.2-0.6c1.7-3.3,2.5-6.9,2.5-10.7c0-6.4-2.4-12-7.3-17.3c-3.6-3.9-8.5-7.5-14.5-10.7c-3.1-1.7-6.3-3.1-9.6-4.5
	c-3.2-1.3-6.5-2.4-9.9-3.3c-5.3-1.5-10.8-2.5-16.7-3.2c-1.6-0.3-3.3-0.4-4.9-0.5l-0.1,0c-3.1-0.3-6.3-0.4-9.2-0.4
	c-1.1-0.1-2.3-0.1-3.5-0.1c-9.7,0-18.9,0.9-27.3,2.6c-0.1,0-0.2,0-0.4,0c-0.8,0-1.6-0.6-1.7-1.4c-0.2-0.9,0.4-1.9,1.4-2.1
	c8.7-1.8,18.1-2.7,28.1-2.7c1,0,2.1,0,3.2,0.1c0.2,0,0.3,0,0.5,0c2.3,0.1,4.6,0.1,6.9,0.3c0-0.2-0.1-0.3-0.1-0.5
	c-1.5-5.7-4-10.9-7.7-16c-0.1-0.1-0.1-0.2-0.2-0.2c-0.2-0.2-0.3-0.4-0.4-0.5c-1.5-2-3.3-3.9-5.1-5.8c-0.6,0.4-1.1,0.8-1.6,1.2
	l-0.3,0.2c0,0-0.1,0.1-0.1,0.1l-0.2,0.2c0,0,0,0-0.1,0c-6.5,4.4-14,7.1-22.3,8l-0.2,0c-0.9,0-1.7-0.7-1.8-1.6c0,0,0,0,0,0
	c0-0.5,0.1-0.9,0.4-1.3c0.3-0.4,0.7-0.6,1.2-0.7c7.7-0.9,14.6-3.3,20.5-7.3c0.2-0.2,0.4-0.4,0.7-0.5c0.9-0.7,1.9-1.3,2.8-2.1
	c0,0,0,0,0,0c5.6-4.9,8.3-10.4,8.3-16.8c0-3.7-1-7.2-2.8-10.4c-2-3.1-4.8-6.1-8.3-8.6c-2.3-1.7-4.8-3.1-7.4-4.2
	c-2.3-1-4.6-1.8-7-2.4l-0.1,0c-0.6-0.2-1.2-0.3-1.8-0.4c-1.7-0.4-3.4-0.6-5.2-0.8c0,0,0,0,0,0c0,0,0,0,0,0c-1.7-0.2-3.7-0.3-5.9-0.3
	h-1.5c-9.4,0.3-17.3,2.5-24.3,6.9c-0.3,0.2-0.6,0.3-1,0.3c-0.6,0-1.2-0.3-1.5-0.8c-0.3-0.4-0.3-0.9-0.2-1.3c0.1-0.5,0.4-0.9,0.8-1.1
	c7.6-4.7,16.1-7.2,26.1-7.5h0.3h1.2c1.6,0,3.1,0.1,4.5,0.2v-1c0-2.9-0.6-5.6-1.9-8.4c-2.2-4.7-6.5-8.9-12.5-12.7
	c-0.4-0.2-0.7-0.5-1.1-0.7c-3.3-2-6.8-3.6-10.3-4.8c-8.4-3-17.7-4.5-28.3-4.5c-15.1,0-28.1,3.1-38.7,9.3
	c-7.7,4.5-12.6,9.7-14.5,15.5c-0.7,2-1.1,4-1.1,6.3c0,1.6,0.2,3.3,0.7,5.2c0.1,0.5,0.3,1,0.5,1.5l0.1,0.1l0.1,0.4
	c0.2,0.5,0.4,0.9,0.6,1.4l0.5,1.2c0.1,0.1,0.1,0.2,0.2,0.3l3.6,3.2l-2.3-1.2c2.6,3.4,6.3,6.6,11.4,9.6c4.3,2.5,8.6,4.4,13,5.8
	c0.9,0.3,1.5,1.3,1.2,2.2c-0.2,0.8-0.9,1.3-1.7,1.3c-0.2,0-0.4,0-0.5-0.1c-4.7-1.5-9.2-3.5-13.8-6.1c-6.4-3.8-10.9-7.8-13.7-12.4
	c0,0,0,0,0,0c-2.1,0.3-4.2,0.6-6.1,1c-5.7,1.2-10.8,2.8-15.3,4.8c-3.7,1.7-6.7,3.6-9.1,5.6c-3.4,2.9-5.1,6-5.1,9.4
	c0,1.1,0.2,2.2,0.6,3.3c0.6,1.7,1.5,3.2,3,4.6c0.3,0.3,0.5,0.8,0.5,1.3c0,0.5-0.2,0.9-0.5,1.3c-0.3,0.3-0.8,0.5-1.3,0.5
	c-0.5,0-0.9-0.2-1.3-0.5c-1.8-1.8-3-3.8-3.8-6c-0.5-1.5-0.8-3-0.8-4.5c0-4.4,2.1-8.5,6.3-12.1c2.6-2.2,5.9-4.2,9.9-6.1
	c4.7-2.1,10.1-3.8,16-5c1-0.2,2-0.4,3.1-0.6c-10.7-8-23.7-12-38.7-12c-9.7,0-18.5,1.7-26.3,5c-3.9,1.6-7.6,3.6-11,6
	c-1.4,1-2.8,2-4.1,3.1c-9.2,7.6-14.5,16-16.3,25.7c-0.5,2.6-0.7,5.2-0.7,7.8c0,3.1,0.3,6.1,1,9l0,0l0.1,0.5
	c1.7,7.2,5.5,13.9,11.3,19.8c0.9,1,1.9,1.9,2.9,2.8c0.1,0.1,0.2,0.2,0.4,0.3l0.3,0.3c0.1,0.1,0.2,0.2,0.3,0.2
	c0.4,0.3,0.6,0.7,0.7,1.2c0.1,0.5-0.1,0.9-0.3,1.3c-0.3,0.4-0.9,0.7-1.4,0.7c-0.4,0-0.8-0.1-1.1-0.4c-0.2-0.1-0.3-0.3-0.5-0.4
	l-0.1-0.1c-0.2-0.2-0.3-0.3-0.5-0.4c-7.6-6.7-12.6-14.4-15-22.8c-0.4,0.2-0.7,0.3-1.1,0.5c-2,1-4,2.1-6,3.3
	c-2.6,1.5-5.2,3.3-7.8,5.2c-9.8,7.4-16.6,16.1-20.2,25.6c0,0.1-0.1,0.2-0.1,0.3c-1.8,5.1-2.7,10.4-2.7,15.9c0,5.6,0.9,11,2.7,16.1
	c3.5,9.6,10.3,18.2,20.3,25.6c15.4,11.7,34.3,17.6,56.2,17.6c18.7,0,35.2-4.3,49.2-12.8c0,0,0.1-0.1,0.2-0.1l0.2-0.4
	c0.1-0.2,0.2-0.4,0.4-0.7c0.5-0.8,1-1.5,1.6-2.3c0.5-0.6,0.9-1.2,1.5-1.7c-7.9-1.3-15.3-3.7-21.8-7.2c-4.3-2.2-7.7-4.6-10.4-7.2
	c-0.3-0.3-0.5-0.8-0.5-1.3c0-0.5,0.2-0.9,0.5-1.3c0.7-0.7,1.8-0.7,2.5,0c1.8,1.8,4.1,3.5,6.9,5.2c0.8,0.5,1.7,1,2.6,1.4
	c6.3,3.3,13.3,5.6,21,6.8c0.3,0,0.6,0.1,0.8,0.1c0.5,0.1,1,0.2,1.5,0.2c5.8-5.2,14.5-10,25.7-14.3c0.9-0.4,2,0.1,2.3,1
	c0.4,0.9-0.1,1.9-1,2.3c-11.2,4.3-19.7,9.1-25.2,14.2c0,0,0,0,0,0c0,0,0,0,0,0c0,0,0,0,0,0c-2,1.9-3.7,3.8-4.9,5.7l-0.4,0.6
	c-0.1,0.2-0.2,0.4-0.4,0.6l0,0c0,0,0,0.1-0.1,0.1l0,0c0,0,0,0,0,0c-0.2,0.4-0.4,0.8-0.5,1.1l0,0.1c-0.8,1.6-1.2,3.2-1.4,4.9
	c-0.1,0.7-0.1,1.3-0.1,2c0,1.9,0.3,3.8,1,5.6c0.6,1.6,1.4,3.1,2.5,4.7c5.4,7.9,17.1,14.9,34.9,21.1c5.9,2.1,12.3,4,19,5.6l-0.1-0.3
	l0.4,0.4c0.1,0,0.2,0.1,0.4,0.1c0.6,0.1,1.4,0.3,2.1,0.5l1.1,0.3l0.2,1.1c0.2,0.8,0.3,1.6,0.5,2.4l0.5,0.5l-0.4-0.1
	c0.2,1.1,0.3,2.3,0.3,3.4v0.8c0.2,17.4-13.8,36.1-41.7,55.5c-3.8,2.6-7.8,5.2-11.9,7.8c4.1-1.2,8.2-2.5,12.3-3.8
	c46.8-15.5,84.4-34.5,111.7-56.7h0l0,0c1.3-1.1,2.6-2.1,3.8-3.2l0.5-0.4l0.6,0c1.6,0,3.2,0,4.7-0.1l0.4-0.1l-0.2,0.1
	C320.4,300.6,349.1,296,373,287.7z M25.4,203.2c0.1,0.7,0.3,1.4,0.4,2c2,9.7,6.9,18.4,14.6,26.2C32.1,223.1,27,213.7,25.4,203.2z"/>
</svg>
