<?xml version="1.0" encoding="utf-8"?>
<!-- Generator: Adobe Illustrator 19.2.0, SVG Export Plug-In . SVG Version: 6.00 Build 0)  -->
<svg version="1.1" id="Capa_1" xmlns="http://www.w3.org/2000/svg" xmlns:xlink="http://www.w3.org/1999/xlink" x="0px" y="0px"
	 viewBox="0 0 425.2 425.2" style="enable-background:new 0 0 425.2 425.2;" xml:space="preserve">
<g>
	<path d="M401.3,208.5c7.8-5.6,12.2-13,12.2-20.9c0-7.9-4.4-15.3-12.1-20.8c5.6-3.4,8.6-7.7,8.6-12.4c0-6.2-5.3-11.7-14.6-15.4
		c6-4.4,9.3-10.1,9.3-16.1c0-14-17.6-24.9-40-24.9c-10.1,0-19.5,2.3-26.9,6.4c-8.5-6.3-20.3-9.9-32.9-9.9c-9.4,0-18.5,2.1-26.2,5.8
		c-7.9-12-25.2-19.8-44.2-19.8c-18.5,0-35.1,7.3-43.4,18.7c-8.3-4.2-18.6-6.5-29.5-6.5c-11.9,0-23.3,2.8-31.8,7.8
		c-11.4-12.4-31.5-20-53.4-20c-34.6,0-62.8,19-62.8,42.4c0,11.4,6.8,22.3,18.6,30.2c-1.9,4.9-2.8,10-2.8,15.2
		c0,10.5,3.8,20.4,10.7,28.3c-10.2,5.8-16,14.2-16,23.3c0,17.1,21.5,31,47.9,31c6.6,0,12.9-0.8,18.9-2.5
		c9.7,10.4,25.8,16.5,43.5,16.5c6.4,0,12.6-0.8,18.4-2.4c-0.9,2.5-1.4,5.2-1.4,8.1c0,14.4,12.8,26.2,28.6,26.2
		c15.8,0,28.6-11.7,28.6-26.2c0-5.1-1.6-9.8-4.3-13.9c4.6,0.8,9.5,1.2,14.6,1.2c10.8,0,21.3-1.8,29.7-5.2
		c9.7,7.7,24.3,12.2,39.7,12.2c13.7,0,26.5-3.4,36.1-9.7l20.4,5.4c6.9,2.8,14.7,4.3,22.6,4.3c25.4,0,46.1-15.1,46.1-33.7
		C413.5,222.8,409.1,214.7,401.3,208.5z M180.1,290.8c-12.4,0-22.5-9-22.5-20.1c0-4,1.3-7.7,3.6-10.9c3.2-4.4,8.2-7.6,14.2-8.8
		c1.5-0.3,3.1-0.4,4.7-0.4c2,0,3.9,0.2,5.8,0.7c2.4,0.6,4.6,1.5,6.6,2.7c6.1,3.6,10.1,9.8,10.1,16.7
		C202.6,281.8,192.5,290.8,180.1,290.8z M367.4,258.9c-7.2,0-14.3-1.4-20.5-3.9l-23.6-6.3l-1.2,0.8c-8.6,6-21,9.4-33.9,9.4
		c-14.7,0-28.6-4.5-37.2-11.9l-1.5-1.3l-1.8,0.8c-8,3.5-18.3,5.4-29,5.4c-8.7,0-16.9-1.2-23.8-3.5c-2.3-1.3-4.7-2.3-7.3-2.9
		c-2.8-1.4-5.2-3-7.1-4.8l-2.5-2.4l-2,2.8c-1.1,1.5-2.4,2.9-3.8,4.3c-6,1.5-11.2,4.8-14.9,9.2c-6.9,2.7-14.8,4.2-23,4.2
		c-16.5,0-31.9-6.1-40.2-15.8l-1.3-1.5l-1.9,0.6c-5.9,1.8-12.3,2.8-19,2.8c-23,0-41.8-11.2-41.8-24.9c0-7.6,6.1-14.9,16.2-19.7
		l4.1-1.9l-3.3-3.1c-7.6-7.2-11.8-16.8-11.8-26.9c0-5.3,1.1-10.4,3.3-15.2l1.1-2.5l-2.3-1.4c-11.4-6.9-17.9-16.5-17.9-26.4
		c0-20,25.4-36.3,56.7-36.3c21.3,0,40.6,7.6,50.4,19.8l1.8,2.2l2.3-1.6c7.7-5.2,18.9-8.2,30.7-8.2c11,0,21.3,2.5,29,7.1l2.6,1.6
		l1.6-2.7c6.4-10.9,22.3-18.2,39.8-18.2c18.1,0,34.3,7.7,40.3,19.2l1.5,2.8l2.8-1.6c7.2-4.2,16.3-6.4,25.8-6.4
		c12,0,23.2,3.6,30.7,9.9l1.7,1.4l1.9-1.2c6.5-4.2,15.8-6.6,25.5-6.6c18.4,0,33.9,8.6,33.9,18.8c0,5.4-4.4,10.6-11.9,14.2l-7.6,3.7
		l8.2,2.1c9.9,2.5,16.6,7.1,16.6,11.5c0,3.2-3.7,6.7-9.9,9.3l-6,2.5l5.7,3c8.7,4.6,13.7,11.3,13.7,18.4c0,6.9-4.8,13.4-13.1,18
		l-4.5,2.5l4.4,2.7c8.4,5.2,13.2,12.7,13.2,20.4C407.4,246.5,389.5,258.9,367.4,258.9z"/>
	<path d="M222.1,281.5c-12.8,0-23.2,9.8-23.2,21.9c0,12.1,10.4,21.9,23.2,21.9c12.8,0,23.2-9.8,23.2-21.9
		C245.3,291.3,234.9,281.5,222.1,281.5z M222.1,319.2c-9.4,0-17.1-7.1-17.1-15.8c0-8.7,7.7-15.8,17.1-15.8c9.4,0,17.1,7.1,17.1,15.8
		C239.2,312.1,231.6,319.2,222.1,319.2z"/>
	<path d="M264.6,309.8c-10.3,0-18.6,7.9-18.6,17.5c0,9.7,8.4,17.5,18.6,17.5c10.3,0,18.6-7.9,18.6-17.5
		C283.2,317.6,274.8,309.8,264.6,309.8z M264.6,338.7c-6.9,0-12.5-5.1-12.5-11.4c0-6.3,5.6-11.4,12.5-11.4c6.9,0,12.5,5.1,12.5,11.4
		C277.1,333.6,271.5,338.7,264.6,338.7z"/>
</g>
</svg>
