<?xml version="1.0" encoding="utf-8"?>
<!-- Generator: Adobe Illustrator 19.2.0, SVG Export Plug-In . SVG Version: 6.00 Build 0)  -->
<svg version="1.1" id="Capa_1" xmlns="http://www.w3.org/2000/svg" xmlns:xlink="http://www.w3.org/1999/xlink" x="0px" y="0px"
	 viewBox="0 0 425.2 425.2" style="enable-background:new 0 0 425.2 425.2;" xml:space="preserve">
<path d="M40.3,134.6l7.9,2.1l-6.8,4.5c-6.5,4.4-10.1,9.6-10.1,14.9c0,2.3,0.7,4.7,2.2,7l0.4,0.7l0.1,0.8c0.1,0.5,0.1,1,0.3,1.6
	l0.7,2.8l-2.6,1.3c-10.6,5.4-16.7,12.8-16.7,20.3c0,7.1,5.2,13.9,14.7,19.3l3.6,2l-2.4,3.4c-3.6,5-5.5,10.4-5.5,16
	c0,7.3,3.2,14.4,9.4,20.5l3.4,3.3l-4,2.5c-5.6,3.4-8.7,7.2-8.7,10.8c0,11.3,25,19.2,60.9,19.2l12.9,0c2.5,0,4.5,0,4.7,0l1.4,0
	l77.7,64.7l-35.5-71.4l2.9-1.8c2.5-1.6,3.3-2,5.3-8.8l3-10.5l4,10.2c7.6,19.4,35.2,33,67.3,33c22.3,0,43.3-6.8,56.4-18.2l2.5-2.2
	l2.4,2.2c11.1,9.9,29,15.8,48,15.8c32.4,0,58.7-16.6,58.7-36.9c0-4.4-1.3-8.8-3.8-12.9l-1.6-2.6l2.2-2c2.6-2.4,5.7-6.3,5.7-11.1
	c0-2.3-0.7-4.7-2.2-7l-1.9-3.1l3-2c7.3-4.8,11.5-11.7,11.5-19c0-4-1.2-7.8-3.6-11.4l-1.6-2.4l2-2.2c3.9-4.2,5.9-9,5.9-13.9
	c0-12.7-13.1-23.5-31.2-25.7l-11.9-1.5l10.6-5.5c10.7-5.5,16.8-13.6,16.8-22.3c0-15.8-19.9-28.6-44.4-28.6
	c-17.8,0-33.8,6.9-40.9,17.5l-1.1,1.6l-1.9,0c-0.9,0-1.8,0.1-2.7,0.1l-2.8,0.2l-0.9-2.6c-5.8-16.4-35.1-28.8-68.1-28.8
	c-18.2,0-35.4,3.6-48.5,10.1l-2.1,1.1l-1.9-1.5C172,79,155.1,73.8,136.9,73.8c-16.1,0-31.2,4.1-42.5,11.5l-1.3,0.9l-1.5-0.3
	c-7.5-1.7-15.4-2.5-23.6-2.5c-31.1,0-57.4,12.5-57.4,27.4C10.5,120.3,22.2,129.7,40.3,134.6z"/>
</svg>
