<?xml version="1.0" encoding="utf-8"?>
<!-- Generator: Adobe Illustrator 19.2.0, SVG Export Plug-In . SVG Version: 6.00 Build 0)  -->
<svg version="1.1" id="Capa_1" xmlns="http://www.w3.org/2000/svg" xmlns:xlink="http://www.w3.org/1999/xlink" x="0px" y="0px"
	 viewBox="0 0 425.2 425.2" style="enable-background:new 0 0 425.2 425.2;" xml:space="preserve">
<g>
	<path d="M319.4,305.5L308.1,275l32.5,1.3l-17.4-27.5l32.1-5.5l-22.7-23.3l30.2-12l-27.1-18l27.1-18l-30.2-12l0,0l22.7-23.3
		l-32.1-5.4l0,0l17.4-27.5l-32.5,1.3l11.3-30.5l-31.5,8.1l4.7-32.2L263.5,65l-2.1-32.5l-25.5,20.2l-8.8-31.3l-20.8,25.1l-15.1-28.8
		l-15.1,28.8l-20.8-25.1l-8.8,31.3l-25.5-20.2L119,65L89.9,50.6l4.7,32.2l-31.5-8.1l11.3,30.5l-32.5-1.3l17.4,27.5l-32.1,5.4
		L50,160.1l-30.2,12l27.1,18l-27.1,18l30.2,12l-22.7,23.3l32.1,5.5l-17.4,27.5l32.5-1.3l-11.3,30.5l31.5-8.1l-4.7,32.2l29.2-14.4
		l2.1,32.5l25.5-20.2l8.8,31.3l20.8-25.1l15.1,28.8l15.1-28.8l20.8,25.1l8.8-31.3l25.5,20.2l2.1-32.5l29.2,14.4l-4.7-32.2
		L319.4,305.5z M278.7,310.5l-22-7.1l-4.9,22.6l-20.1-11.5l-9.5,21.1l-17.3-15.4l-13.7,18.7l-13.7-18.7l-17.3,15.4l-9.5-21.1
		L130.7,326l-4.9-22.6l-22,7.1l-0.1-23.2l-23,2.3l4.7-22.7l-23-2.5l9.3-21.2l-22-7.2l13.5-18.8l-20-11.7l17.1-15.6l-17.1-15.6
		l20-11.6l-13.5-18.8l22-7.2l-9.3-21.2l23-2.5l-4.7-22.7l23,2.3l0.1-23.2l22,7.1l4.9-22.6l20.1,11.5l9.5-21.1L177.6,60l13.7-18.7
		L204.9,60l17.3-15.4l9.5,21.1l20.1-11.5l4.9,22.6l22-7.1l0.1,23.2l23-2.3l-4.7,22.7l23,2.5l-9.3,21.2l22,7.2l-13.5,18.8l20,11.6
		l-17.1,15.6l17.1,15.6l-20,11.6l13.5,18.8l-22,7.2l9.3,21.2l-23,2.5l4.7,22.7l-23-2.3L278.7,310.5z"/>
	<path d="M396.1,377.9L381.6,364l0,0l14.4-13.9l-19.8-2.7l3.5-19.7l-17.7,9.4l-8.7-18l-8.7,18l-17.7-9.4l3.5,19.7l-19.8,2.7
		l14.4,13.9l-14.4,13.9l0,0l9.9,1.4l9.9,1.4v0l-3.5,19.7l17.7-9.4l8.7,18l8.7-18l17.7,9.4l-3.5-19.7L396.1,377.9L396.1,377.9z
		 M371.1,376.9l0.4,12.1l-11.4-4.1l-6.8,10l-6.8-10l-11.4,4.1l0.4-12.1l-11.6-3.4l7.4-9.5l-7.4-9.5l11.6-3.3l-0.4-12.1l11.4,4.1
		l6.8-10l6.8,10l11.4-4.1l-0.4,12.1l11.6,3.3l-7.4,9.5l7.4,9.5L371.1,376.9z"/>
</g>
</svg>
