<?xml version="1.0" encoding="utf-8"?>
<!-- Generator: Adobe Illustrator 19.2.0, SVG Export Plug-In . SVG Version: 6.00 Build 0)  -->
<svg version="1.1" id="Capa_1" xmlns="http://www.w3.org/2000/svg" xmlns:xlink="http://www.w3.org/1999/xlink" x="0px" y="0px"
	 viewBox="0 0 425.2 425.2" style="enable-background:new 0 0 425.2 425.2;" xml:space="preserve">
<g>
	<path d="M336.5,177.3c-0.6-9.7-2.9-18.9-6.9-27.5c-0.7-2.4-1.5-4.7-2.4-6.9c-3.4-8.4-8.4-16.4-15-23.8c-8.1-9-18.7-17.4-31.4-24.7
		c-32.3-18.7-71.1-26.9-115-24.3C122,72.7,84.5,85.4,54.6,107.8C34.3,123,21.1,140,15.2,158.4c-2.8,9.1-4,18.5-3.4,28
		c0.7,12.4,4.3,24.1,10.5,34.7c1.2,2.1,2.6,4.1,4,6.2c8.3,15.7,22.7,29.6,42.7,41.2c28.3,16.4,61.4,24.6,98.5,24.6
		c5.2,0,10.5-0.2,15.8-0.5c43.7-2.6,81-15.2,110.7-37.6C324,232.7,338.3,206.5,336.5,177.3z M178.4,279.9
		c-43.1,2.6-81.2-5.5-112.8-23.8c-18.3-10.6-31.7-23-39.9-37c-2.2-3.7-4-7.5-5.5-11.5c-2.5-6.8-4-14-4.5-21.4
		c-0.5-9.1,0.5-18,3.2-26.6c5.6-17.6,18.4-34,38-48.7c29.3-22,66-34.4,109.2-37c5.2-0.3,10.5-0.5,15.5-0.5
		c36.7,0,69.5,8.2,97.3,24.2c12.3,7.2,22.6,15.2,30.4,24c3.1,3.4,5.8,7,8.1,10.7c2.4,3.9,4.5,7.8,6.2,11.9c2.9,7.2,4.7,15,5.2,23.3
		c1.7,28.2-12.2,53.5-41.3,75.3C258.2,264.9,221.5,277.3,178.4,279.9z"/>
	<path d="M369.5,299.2c-0.1-1.6-0.4-3.2-0.7-4.8c-0.3-2.6-0.9-5.1-1.7-7.4c-1.1-2.8-2.9-5.7-5.3-8.5c-2.9-3.2-6.5-6-11.1-8.7
		c-11.2-6.5-24.7-9.4-40.1-8.5c-15.4,0.9-28.4,5.3-38.8,13.1c-7.3,5.5-11.8,11.3-13.9,17.9c-1,3.2-1.4,6.4-1.2,10
		c0.3,4.5,1.5,8.6,3.8,12.5c1.4,2.3,3.1,4.5,5.2,6.5c2.9,3.5,6.7,6.7,11.5,9.5c9.8,5.7,21.3,8.6,34.1,8.6c1.8,0,3.6-0.1,5.4-0.2
		c15-0.9,27.9-5.3,38.2-13C365.4,318.3,370.2,309.5,369.5,299.2z M314.8,333.1c-14.4,0.9-27.2-1.9-37.9-8
		c-6.1-3.6-10.4-7.6-13.1-12.2c-2-3.3-3-6.8-3.3-10.7c0-0.2,0-0.5,0-0.7c-0.1-2.8,0.2-5.4,1.1-7.9c1.8-5.8,5.9-11.1,12.5-16
		c9.8-7.3,22.1-11.5,36.7-12.4c1.8-0.1,3.6-0.2,5.3-0.2c12.4,0,23.4,2.7,32.6,8.1c4.2,2.4,7.5,5,10.1,7.9c1.6,1.8,2.8,3.6,3.8,5.4
		c0.3,0.6,0.6,1.3,0.9,1.9c0.9,2.3,1.5,4.9,1.6,7.6c0.6,9.3-3.9,17.4-13.6,24.6C341.6,328,329.3,332.2,314.8,333.1z"/>
	<path d="M411.2,333.4c-0.7-1.5-1.6-2.9-2.7-4.4c-1.5-1.6-3.4-3.2-5.7-4.5c-5.9-3.3-12.6-4.7-20.5-4.3c-7.9,0.5-14.4,2.6-19.7,6.7
		c-3.8,3-6.2,6.1-7.2,9.4c-0.5,1.7-0.8,3.5-0.7,5.2c0.1,2.5,0.8,4.8,2,6.7c1.8,2.8,4.3,5.1,7.6,7c0.1,0.1,0.2,0.1,0.4,0.2
		c0.3,0.2,0.6,0.4,1,0.6c4.9,2.8,10.5,4.2,17,4.2c0.9,0,1.9,0,2.8-0.1c7.7-0.5,14-2.6,19.1-6.4c4.8-3.5,7.3-7.6,7.6-12.2
		c0.2-1.1,0.3-2.3,0.2-3.4C412.3,336.4,411.9,334.9,411.2,333.4z M402.2,349.8c-4.9,3.6-10.7,5.6-17.7,6c-6.9,0.4-13.1-0.9-18.2-3.9
		c-2.7-1.6-4.8-3.5-6.2-5.7c-0.1-0.2-0.2-0.4-0.3-0.6c-0.6-1.2-1-2.7-1.1-4.3c-0.1-1.2,0.1-2.6,0.5-3.9c0.8-2.6,2.7-5.1,5.9-7.5
		c4.7-3.5,10.5-5.4,17.6-5.9c0.9-0.1,1.8-0.1,2.7-0.1c6,0,11.1,1.3,15.6,3.8c2,1.2,3.6,2.4,4.7,3.7c0.9,1.1,1.6,2.4,2.2,3.5
		c0.3,0.8,0.5,1.6,0.7,2.4c0.1,0.3,0.1,0.6,0.1,1C408.8,342.7,406.7,346.4,402.2,349.8z"/>
</g>
</svg>
