<?xml version="1.0" encoding="utf-8"?>
<!-- Generator: Adobe Illustrator 19.2.0, SVG Export Plug-In . SVG Version: 6.00 Build 0)  -->
<svg version="1.1" id="Capa_1" xmlns="http://www.w3.org/2000/svg" xmlns:xlink="http://www.w3.org/1999/xlink" x="0px" y="0px"
	 viewBox="0 0 425.2 425.2" style="enable-background:new 0 0 425.2 425.2;" xml:space="preserve">
<path d="M62.6,222.8c6.5,21.5,16.7,42,30.2,61.4c1,1.5,2.1,3,3.1,4.5c0.1,0.2,0.3,0.4,0.4,0.6c0.9,1.3,1.8,2.5,2.8,3.7
	c14.6,19.4,32.4,37.8,52.8,55.2c-5.7-13-8-27-7.8-40.8c0-0.6,0-1.1,0-1.7c0-0.4,0-0.7,0-1.1c0-0.9,0.1-1.9,0.1-2.8
	c1.2-21.5,8.1-42.4,17.3-58.8l1.5,0.4c-8.3,20.1-11.3,40.1-10.2,60.2c19.7,3.9,40.7,6.1,62.5,6.1c110,0,199.6-54,199.6-120.5
	c0-66.4-89.5-120.5-199.6-120.5c-110,0-199.6,54-199.6,120.5c0,32.5,21.4,62,56.2,83.7C66.7,258.3,63.3,241.8,62.6,222.8z"/>
</svg>
