<?xml version="1.0" encoding="utf-8"?>
<!-- Generator: Adobe Illustrator 19.2.0, SVG Export Plug-In . SVG Version: 6.00 Build 0)  -->
<svg version="1.1" id="Capa_1" xmlns="http://www.w3.org/2000/svg" xmlns:xlink="http://www.w3.org/1999/xlink" x="0px" y="0px"
	 viewBox="0 0 425.2 425.2" style="enable-background:new 0 0 425.2 425.2;" xml:space="preserve">
<g>
	<path d="M198.9,295.7c-0.1-0.6-0.3-1.1-0.5-1.6c-1.3-5-5.6-11-18.2-11c-0.7,0-1.5,0-2.3,0.1c-3.8-6.3-10.1-10-18.5-11.2
		c-8.5-1.1-15.1,1.3-19.3,7c-5.1-2.7-9.6-4.1-13.7-4.1c-2.5,0-4.9,0.5-7.1,1.6c-3,1.1-6,4.9-9.3,11.8c-3.4,0.9-6.3,2.3-8.9,4.5
		c-3.6,3.2-5.4,7.2-5.2,11.7c-0.1,3,1.4,7.1,8.2,10.6c0.3,1,0.9,1.9,1.6,2.8c-0.4,3.2-0.4,3.2-0.4,3.5c-0.2,4.1,1.4,7.6,4.4,9.8
		c1.2,0.9,2.5,1.6,3.9,2c0.6,2,1.7,3.7,3.4,5c2.9,2.3,6.4,2.9,10.9,1.8c1.9-0.4,4.3-1.3,7.6-2.7c4.3,5.7,10.6,8.6,18.9,8.5
		c8.2-0.1,14.7-3.1,19.2-9c9.4,2.4,15.9,1.7,19.8-1.8c0,0,0,0,0,0c0.1,0,0.1-0.1,0.2-0.1c1.9-1.4,4-4.1,3.8-8.9c0-0.1,0-0.2,0-0.3
		c-0.5-2.8-0.7-5-0.9-6.6c8.6-6.3,8.7-12.4,7.2-16.4C202.9,299.7,201.3,297.4,198.9,295.7z M185.3,306.6c-1.2,0.8-1.8,2.1-1.7,3.5
		c0.1,1.7,0.4,4.4,1,8.2c0.1,2.3-0.8,3.1-1.3,3.5c-0.2,0.1-0.4,0.3-0.5,0.4c-2.3,2.2-7.8,2.3-15.7,0.1c-1.6-0.4-3.3,0.2-4.2,1.5
		c-3.4,5-8.4,7.5-15.2,7.6l-0.4,0c-6.6,0-11.3-2.4-14.3-7.3c-0.7-1.1-1.9-1.8-3.2-1.8c-0.5,0-1,0.1-1.5,0.3
		c-3.7,1.6-6.6,2.7-8.4,3.1c-0.5,0.1-0.9,0.2-1.4,0.3c-0.9,0.1-1.7,0.1-2.5-0.1c-0.7-0.2-1.2-0.4-1.8-0.9c-0.2-0.1-0.3-0.3-0.5-0.5
		c-0.5-0.5-0.8-1.1-0.9-1.9c0-0.3-0.1-0.7,0-1.1c0-0.1,0.1-0.7,0.2-1.6c0.1-0.7,0.2-1.5,0.4-2.5c0.1-0.8,0.3-1.8,0.4-2.8l0.1-0.8
		c0.2-1.8-0.8-3.5-2.5-4.1c-0.8-0.3-1.6-0.6-2.3-0.9c-0.8-0.4-1.6-0.7-2.2-1c-0.9-0.5-1.5-0.9-2.1-1.3c-1-0.8-1.4-1.5-1.4-2
		c0-0.2,0-0.3,0-0.4c-0.2-2.2,0.7-4,2.5-5.7c2-1.7,4.3-2.7,7.2-3.2c1.3-0.2,2.3-1,2.8-2.2c3.9-8.7,6-9.7,6.1-9.7
		c3-1.4,6.9-1.1,11.7,1c1.7,0.8,3.6,1.7,5.5,3c0.9,0.6,2,0.7,3.1,0.4c0.4-0.1,0.8-0.3,1.2-0.6c0.5-0.4,0.9-0.9,1.2-1.5
		c2.4-5.2,6.6-7.1,13.4-6.3c2.5,0.3,4.7,1,6.6,1.9c1.8,0.9,3.4,2,4.7,3.4c0.9,1,1.7,2.2,2.4,3.5c0.1,0.2,0.2,0.3,0.3,0.5
		c0.7,1.4,2.3,2.3,3.8,2.1c0,0,0,0,0,0c1.1-0.1,2.2-0.2,3.2-0.2c0.3,0,0.6,0,0.9,0c0.8,0,1.5,0,2.2,0.1c3.1,0.2,5,1,6.3,1.9
		c1.2,0.9,1.8,1.8,2.2,2.6c0.2,0.4,0.3,0.8,0.3,1l0,0.1c0.1,0.4,0.3,0.8,0.4,1.4C191.9,299.8,191.2,302.7,185.3,306.6z"/>
	<path d="M123,359.3l-0.4-2.6c-0.1-0.6-0.4-1.1-0.8-1.4c-1.1-1-2.3-1.8-3.5-2.4c-0.1-0.7-0.2-1.4-0.4-2l-0.4-2.6
		c-0.2-0.9-0.6-1.6-1.3-2.2c-4.9-4.3-10.6-5.2-16.7-2.2c-1.1,0.6-3.2,0.7-6,0.1c-4.7-1.1-8.3-0.8-11,0.7c-3.3,1.9-6,5.3-8.1,10.3
		c-3.1,7.8-4.2,9.3-4.2,9.3c-1,1.3-1,3.1-0.1,4.5c1.6,2.3,4,4.5,7.4,6.9c0.1,0.2,0.1,0.3,0.2,0.5c2.6,3.7,7.4,7.3,15.1,11.4
		c3.8,2.9,10.1,4.7,18.7-2.2c0.6-0.2,3-1.1,7.5-2.7c5.7-1.9,6.8-5.9,6.8-8c0-0.3,0-0.6-0.1-0.9C125.4,372.9,124.4,367.2,123,359.3z
		 M110.5,368.6c-3.5,1.2-7.7,2.7-8.4,3.1c-0.2,0.1-0.5,0.3-0.7,0.5c-2.9,2.4-5.5,3.6-7.6,3.6c-1.3,0-2.5-0.4-3.8-1.5
		c-0.2-0.1-0.4-0.2-0.5-0.3c-1.9-1-3.6-1.9-5.1-2.9c-0.7-0.5-1.4-0.9-2.1-1.3c-0.7-0.5-1.4-1-2-1.5c-0.9-0.7-1.7-1.4-2.4-2.1
		c0.9-1.9,2.1-4.6,3.6-8.3c1.4-3.4,3.1-5.6,4.8-6.6c0.1-0.1,0.7-0.3,1.9-0.3c1,0,2.3,0.2,3.7,0.5c5,1,8.7,0.6,11.2-0.9
		c2.5-1.2,4.8-1.1,7.1,0.5l0.1,0.8l0.1,0.7c0.1,0.6,0.2,1.2,0.3,1.7c0.1,0.8,0.3,1.6,0.4,2.4c1,5.7,1.5,8.5,1.9,10
		C112.8,367.5,112,368.1,110.5,368.6z"/>
	<path d="M409.9,154.8c-0.5-10.8-3.8-20.2-9.7-27.9c-2.7-6-6.7-11.3-11.8-15.8c-2.6-2.6-6.3-4.5-11.2-5.8c1-8.3-0.3-15.1-4-20.5
		c-0.8-1.1-1.6-2.2-2.5-3.3c-0.7-2-1.7-3.9-2.9-5.6c-8.8-13.1-24.4-21.2-46.4-24.2c-20.2-2.4-35.6,0.8-45.8,9.6
		c-5.7-9.2-14.5-16.1-26.3-20.6c-9.9-3.6-21.3-5.5-33.9-5.5c-1.2,0-2.4,0-3.7,0.1c-22.1,2-37.3,8-45.2,17.7
		c-9.8-6.2-20.8-10.1-32.7-11.4c-13.4-1.4-26.2,0.6-37.7,5.9c-17.5,7.7-27.1,18.2-28.6,31.3c-12.3,0.6-23.5,4.9-33.4,12.8
		c-11.5,9.1-18.1,20.6-19.4,34c-1.1,10.4,3.4,19.7,13.6,27.7c-5.4,7.5-7.8,14.1-7.4,20.1c0.5,12,6.6,22.7,18,32
		c2.1,2.5,4.6,4.8,7.4,7.1c12.1,10.4,24.5,15.2,37,14.4c0.8,3.6,2.2,6.5,4.1,8.6c2.2,2.6,4.7,5,7.5,7.2c0,0,0,0,0,0
		c8.8,10.6,23.3,17.7,44.4,21.4c19,2.3,32.9-0.5,41.5-8.3c1,0.9,2,1.7,3.1,2.5c6.3,7.8,15.4,13.1,27.1,15.7
		c11.2,2.5,24.1,2.4,38.2-0.2c24.1-5.4,38.8-14.6,43.9-27.4c10.8,4.6,22.7,5.4,35.4,2.3c13.1-3.2,24.2-9.7,33-19.1
		c6.8-6.6,9-15.7,6.7-26.9c12.4-1.9,22-6,28.5-12.2C406.1,181.4,410.5,169.4,409.9,154.8z M358.3,188.8c-1.1,0.1-2.1,0.7-2.7,1.6
		c-0.6,0.9-0.8,2-0.5,3.1c2.7,10.3,1.3,18-4.5,23.7c-8,8.6-18.1,14.4-30,17.4c-4.7,1.1-9.2,1.7-13.5,1.7c-7.1,0-13.7-1.5-20.2-4.7
		c-1-0.5-2.2-0.5-3.2-0.1c-1,0.5-1.8,1.3-2.1,2.4c-3.4,11.8-16.9,20.4-40.1,25.7c-13.2,2.5-25.3,2.6-35.6,0.3
		c-12.7-2.9-21.8-9.2-27.1-18.7c-0.6-1.1-1.7-1.9-3-2c-0.1,0-0.2,0-0.3,0c-1.1,0-2.3,0.5-3,1.4c-5.3,6.6-14.5,10-27.5,10
		c-3.5,0-7.3-0.2-11.2-0.7c-17.1-3-29.8-8.5-37.8-16.3c-1-1-1.9-1.9-2.8-3c-0.1-0.1-0.1-0.2-0.2-0.2c-0.7-0.9-1.5-2.3-2.1-4.6
		c-0.2-0.7-0.3-1.5-0.5-2.4c0,0,0-0.1,0-0.1c0-0.1,0-0.2,0-0.3c0-0.1,0-0.2,0-0.2c-0.1-0.6-0.1-1.2-0.2-1.9
		c-0.1-1.8-0.2-3.8-0.1-6.1c0.1-1.2-0.5-2.4-1.5-3.2c-1-0.7-2.3-1-3.4-0.6c-14.1,4.2-27.4,0.5-41.4-11.4c-3.1-2.5-5.6-5-7.8-7.7
		c-1.8-2.2-3.3-4.5-4.4-6.9c-1.2-2.5-2.1-5.1-2.6-7.8c-0.3-1.4-0.4-2.8-0.5-4.2c-0.2-3.9,1.5-8.7,5.3-14.2c0.4-0.7,0.9-1.3,1.4-2
		c0.5-0.6,0.9-1.2,1.4-1.9c0,0,0,0,0-0.1c0.6-0.8,0.9-1.9,0.8-2.9c-0.2-1-0.7-2-1.6-2.6c-3-2.1-5.5-4.2-7.5-6.4
		c-1.3-1.5-2.4-2.9-3.3-4.5c-1.1-1.8-1.8-3.6-2.2-5.5c-0.5-2.1-0.7-4.3-0.4-6.6c1.2-11.5,6.6-20.9,16.6-28.8
		c9.4-7.4,20.1-11.2,31.7-11.2l0.5,0c1,0,2-0.4,2.7-1.1c0.7-0.7,1.1-1.7,1.1-2.7c0-11.5,8.2-20.9,24.3-28.1
		c10.4-4.8,21.8-6.6,33.8-5.3c5,0.5,9.7,1.6,14.2,3c5.8,1.9,11.3,4.6,16.6,8.1c0.5,0.3,1,0.6,1.5,1c0.5,0.3,1.1,0.5,1.7,0.6
		c0.4,0.1,0.9,0.1,1.3,0c0.7-0.1,1.3-0.5,1.8-1c0.3-0.2,0.5-0.5,0.6-0.8c5.7-9.5,19.7-15.3,41.5-17.3c11.7-0.3,22.2,1,31.5,3.9
		c1,0.3,2.1,0.7,3.1,1c4.5,1.7,8.5,3.8,11.9,6.3c3.1,2.2,5.7,4.7,7.9,7.5c1.9,2.3,3.5,4.9,4.7,7.6c0.6,1.2,1.7,2,2.9,2.2
		c0.6,0.1,1.1,0,1.6-0.2c0.7-0.2,1.3-0.6,1.8-1.1c0.1-0.1,0.2-0.2,0.2-0.3c0.5-0.6,1.1-1.2,1.7-1.8c6.6-6.4,16.2-9.6,29.1-9.6
		c3.6,0,7.6,0.3,11.8,0.8c5.5,0.7,10.4,1.8,15,3.2c6.2,1.9,11.6,4.5,16.1,7.7c3.2,2.2,5.9,4.8,8.2,7.6c0.6,0.8,1.2,1.6,1.8,2.4
		c4.1,5.9,4.4,14.6,0.8,26c-0.3,1.1-0.2,2.3,0.5,3.3c0.7,1,1.7,1.6,2.9,1.6c1.9,0.1,3.6,0.3,5.3,0.6c0.8,0.1,1.6,0.3,2.4,0.4
		c0.8,0.2,1.6,0.4,2.4,0.6c1,0.3,2,0.6,2.9,1c1.9,0.8,3.5,1.7,4.6,2.9c0.3,0.3,0.7,0.6,1,0.9c1.5,1.4,2.9,2.9,4.1,4.5
		c5.5,6.9,8.4,15.1,8.9,25c0.6,12.9-3.1,23.1-11.3,31C380,183.6,370.7,187.3,358.3,188.8z"/>
</g>
</svg>
