<?xml version="1.0" encoding="utf-8"?>
<!-- Generator: Adobe Illustrator 19.2.0, SVG Export Plug-In . SVG Version: 6.00 Build 0)  -->
<svg version="1.1" id="Capa_1" xmlns="http://www.w3.org/2000/svg" xmlns:xlink="http://www.w3.org/1999/xlink" x="0px" y="0px"
	 viewBox="0 0 425.2 425.2" style="enable-background:new 0 0 425.2 425.2;" xml:space="preserve">
<path d="M212.9,334.6c32.3,3.6,65.6,8.3,98.1,3.9c11.7-1.6,23.7-4.8,33.5-11.6c10-7,17.1-17.7,23.3-27.9
	c17-28.2,27.3-60.9,34.5-92.8c6.8-30.3,11.3-62.4,7.4-93.4c-1-7.6-2.4-14.1-7.5-19.9c-4.5-5.1-10.8-8.6-16.9-11.4
	c-18.2-8.5-38.9-11.8-58.6-14.5c-52.5-7.1-106.6-6.3-159.3-2c-21.7,1.8-43.6,4.2-64.9,8.8c-2.4,0.5-4.8,1.1-7.2,1.6
	c-12.4,2.8-24.5,6.6-33.7,15.9c-12.1,12.2-18.5,30-22.9,46.2c-5.9,21.4-8.3,43.8-8.7,65.9c-0.4,22.1,1.4,44.4,6.5,65.9
	c3.8,16,9.7,32.8,21,45.1c-14.8,14.4-29.5,28.8-44.3,43.2c-1.1,1-2.2,5,0.6,4.1c-0.2,1.8,0.5,3.2,3.1,2.3
	c33.3-12.1,66.6-25.6,101.4-32.4C149,325.5,182,331.1,212.9,334.6z M107.8,326c-12.5,2.8-24.8,6.8-36.8,10.7
	c-13.4,4.4-26.6,9.2-39.9,14.1c-2.4,0.9-4.8,1.8-7.2,2.6c-0.6,0.2-1.3,0.5-1.9,0.7c12.6-12.3,25.2-24.6,37.9-36.9
	c0.5-0.4,0.9-0.9,1.4-1.3c0.7-0.5,1.3-1.4,1.5-2.2c0.2-0.7,0.1-1.4-0.4-1.9c0,0-0.1-0.1-0.1-0.1c-4.1-4.1-7.4-8.8-10.3-13.8
	c-9.2-16.2-12.9-36.1-15.3-53.8c-4-29.6-3-60.1,2.3-89.5c4-22.3,11-50.2,29.8-64.8c5-3.9,11.3-6.5,17.9-8.3
	c8.2-2.3,16.8-3.4,24.2-4.7c50.3-8.8,102.4-10.4,153.3-8.7c25.4,0.8,50.9,2.8,75.9,7.5c16.9,3.2,36,7.3,50,18.1
	c1.8,1.4,3.4,2.9,4.7,4.6c2.5,3.1,4,6.6,4.9,10.9c2.8,14.4,2.6,29.4,1.7,44.1c-2.3,35-10.5,69.9-22.6,102.7
	c-5.5,15.1-12.3,29.8-20.7,43.5c-6.9,11.1-14.8,20.9-26.9,26.3c-3.6,1.6-7.3,2.8-11.1,3.8c-10.1,2.6-20.9,3.2-31.2,3.4
	c-16.6,0.4-33.3-1-49.8-2.6c-36.3-3.5-73.6-10.8-110.2-7.7C121.7,323.3,114.7,324.5,107.8,326z"/>
</svg>
