<?xml version="1.0" encoding="utf-8"?>
<!-- Generator: Adobe Illustrator 19.2.0, SVG Export Plug-In . SVG Version: 6.00 Build 0)  -->
<svg version="1.1" id="Capa_1" xmlns="http://www.w3.org/2000/svg" xmlns:xlink="http://www.w3.org/1999/xlink" x="0px" y="0px"
	 viewBox="0 0 425.2 425.2" style="enable-background:new 0 0 425.2 425.2;" xml:space="preserve">
<path d="M353.7,210.3l37-49.5l5-6.8l-8.1,2.4l-53.3,15.8l37.3-116.3l4-12.4l-8.7,9.7l-74.7,83.3l-17.8-47.7l-3-8l-2.3,8.2
	l-16.9,60.4L216.2,36.9l-1.9-6.1l-3.1,5.6L174.3,102l-36.3-48.6l-5-6.7v8.4V119L40.1,52.8l-10.2-7.2L36,56.5l75.9,135.3l-93.4,16.6
	l-6.8,1.2l5.8,3.9l74.8,50l-36.2,32.3l-5.5,4.9h7.3h54l-37.1,82.7l-5.3,11.9l9.7-8.7l113.2-100.9l18.4,82l2.4,10.8l3-10.7l17.8-63.5
	l55,81.7l5.1,7.6v-9.2v-98.6l92.8,66.2l12.5,8.9l-8.6-12.7L334.8,265l73.8-16.4l6.9-1.5l-6-3.6L353.7,210.3z M329.6,260.4l-4,0.9
	l2.3,3.4l49.8,73.9l-84.7-60.4l-4.4-3.1v5.4v94.9l-53.2-79.1l-3.4-5l-1.6,5.8l-16.5,58.7l-17-75.9l-1-4.6l-3.5,3.2L85.3,373.7
	l33.5-74.8l1.8-3.9h-4.3h-51l33.4-29.8l2.7-2.4l-3-2l-72-48.2l90.4-16.1l3.9-0.7l-1.9-3.4L47,64.6l87.1,62.1l4.4,3.2v-5.4V63.5
	l33.9,45.3l2.6,3.4l2.1-3.7l35.8-63.8L249.8,160l2.8,8.8l2.5-8.9l17.1-61.1l16.4,44l1.6,4.3l3.1-3.4l69.1-77l-34.9,108.9l-1.6,5
	l5.1-1.5l50.3-14.9l-33.8,45.3l-1.9,2.5l2.7,1.6l52.3,31.1L329.6,260.4z"/>
</svg>
