<?xml version="1.0" encoding="utf-8"?>
<!-- Generator: Adobe Illustrator 19.2.0, SVG Export Plug-In . SVG Version: 6.00 Build 0)  -->
<svg version="1.1" id="Capa_1" xmlns="http://www.w3.org/2000/svg" xmlns:xlink="http://www.w3.org/1999/xlink" x="0px" y="0px"
	 viewBox="0 0 425.2 425.2" style="enable-background:new 0 0 425.2 425.2;" xml:space="preserve">
<path d="M85.2,408.8c0.5,4.2,5.9,5.9,10.8,1.1c32.9-33,64.9-66.8,97.8-99.7c38.6,10.4,83.9,12.7,121.4-1.2
	c29.6-11,51.4-33.8,61.3-63.8c9.4-28.7,12.3-59.8,9.4-89.8c-3.2-34.1-16.3-66.8-39.9-91.9C317.8,33.3,275,19,235,14.3
	c-22.6-2.7-45.7-1.1-67.7,4.7c-18.7,4.2-36.8,11.5-53.1,21.8c-35.4,22.3-62,59.1-73.2,99.2c-8.9,32-2.7,63.9,14.8,91.7
	c14.1,22.4,35.2,39.7,48.7,62.3c18.5,35.5,3.4,79.4-20.7,108.6C81,406,82.6,408.8,85.2,408.8z M115.9,297.9
	c-0.4-1.1-0.8-2.1-1.2-3.2c-0.9-2.2-1.9-4.3-3-6.5c-0.2-0.3-0.4-0.6-0.6-0.9c-13.8-22.8-34.9-40.4-49.1-63
	c-4.3-6.9-7.8-14-10.4-21.2c-10.4-28.5-7.5-58.7,6-87.8C73,82.3,99,55.5,131.2,39.5c7.2-3.6,14.7-6.6,22.4-9.1
	c41.8-13.2,87.3-7.8,127.6,7.9c21.6,8.4,40.2,21.4,54.8,38.1c10.2,11.8,18.5,25.4,24.4,40.6c11.9,31.1,12.7,66,7.4,98.5
	c-5.1,31-16.8,59.8-45.5,75.7c-7.7,4.3-15.9,7.4-24.4,9.6c-19.3,5-40.1,5.4-59.6,4c-15.7-1.1-31.6-3.5-46.8-7.7
	c-0.3-0.1-0.6-0.1-0.8-0.2c-1.9-0.6-3.5,0.7-4.8,1.9c-21.5,21.3-42.5,43.1-63.6,64.8c-3.8,3.9-7.6,7.8-11.4,11.7
	c-1.3,1.3-2.5,2.6-3.8,3.9C119.7,353.8,125.3,324.3,115.9,297.9z"/>
</svg>
