<?xml version="1.0" encoding="utf-8"?>
<!-- Generator: Adobe Illustrator 19.2.0, SVG Export Plug-In . SVG Version: 6.00 Build 0)  -->
<svg version="1.1" id="Capa_1" xmlns="http://www.w3.org/2000/svg" xmlns:xlink="http://www.w3.org/1999/xlink" x="0px" y="0px"
	 viewBox="0 0 425.2 425.2" style="enable-background:new 0 0 425.2 425.2;" xml:space="preserve">
<path d="M407.3,244.9c-2.6-3.9-6.6-7.5-12-10.9c-0.7-0.8-1.4-1.5-2.2-2.3c-5.4-5-13.5-9.7-24.1-13.9c0.6-2.1,0.8-4.2,0.8-6.4
	c0-8.8-4.6-16.7-13.8-23.5c-0.6-0.8-1.3-1.6-2-2.4c-3.8-4-8.8-7.7-14.9-11c-6.1-3.2-12.6-5.8-19.5-7.7c-5.2-1.4-10.6-2.5-16.5-3.2
	c-1.2-0.2-2.4-0.3-3.7-0.4c-0.1-0.5-0.2-1.1-0.4-1.7c-1.5-5.8-4.2-11.3-7.9-16.5c0-0.1-0.1-0.1-0.1-0.1c5.3-4.9,7.9-10.6,7.9-17
	c-0.1-6.4-2.7-12-7.8-16.8c-0.3-0.6-0.6-1.3-1-1.9c-2.1-3.4-5.1-6.6-8.9-9.3c-4.6-3.2-9.6-5.5-15-6.8c-0.7-0.2-1.3-0.3-1.8-0.4
	c-0.8-3.3-2.5-6.4-5.1-9.4c-0.2-0.7-0.5-1.4-0.8-2c-2.6-5.4-7.5-10.3-14.5-14.4c-3.4-2-6.9-3.7-10.5-4.9c-8.5-3.1-17.7-4.5-28.4-4.5
	c-15.1,0-28.2,3.2-38.9,9.4c-8.2,4.8-13.4,10.4-15.4,16.8c-0.8,2.3-1.2,4.6-1.2,7.1c0,0.8,0,1.6,0.1,2.4l-0.9-0.8l1,1.5
	c0.1,0.5,0.2,1.1,0.3,1.7l-0.5-0.5l0.4,0.9c-10.6-7.4-23.3-11.2-37.7-11.2c-9.8,0-18.7,1.7-26.6,5.1c-5.5,2.3-10.7,5.4-15.4,9.2
	c-9.3,7.7-15,16.7-16.8,26.8c-0.5,2.7-0.7,5.4-0.7,8.1c0,1.5,0.1,3,0.2,4.5l-0.6-1.1l0.2,0.9l0-0.1l1,4c-0.5,0.2-1,0.4-1.4,0.6
	l-0.2,0.1c-4.6,2.2-9.3,5.1-13.9,8.4c-9.9,7.5-16.8,16.2-20.4,26c-0.1,0.2-0.2,0.4-0.2,0.6c-0.1,0.3-0.2,0.6-0.3,0.9l-2.2,6.1
	l0.3-0.5c-2.1,5.3-3.1,10.9-3.1,16.9c0,8.5,2,16.1,6.3,23.4c4,6.9,10,13.3,17.7,18.8c15.7,11.5,35,17.4,57.4,17.4
	c17,0,32.3-3.4,45.4-10c0.1,1.6,0.5,3.1,1,4.7c0.2,0.7,0.5,1.3,0.8,2c0.3,3.4,1.5,6.6,3.8,9.8c5.6,8,17.8,15.1,36.1,21.2
	c4.9,1.7,10.1,3.2,16.4,4.8l1.6,0c0.1,15.5-12.8,32.5-38.6,50.4c-6.9,4.7-14.3,9.4-22,13.7c-0.3,0.1-0.6,0.3-0.9,0.5l-0.2,0.1
	c-0.1,0-0.1,0.1-0.2,0.1l-5.9,3.4l5.3-1.7c0,0,0,0,0,0c0,0,0,0.1,0,0.1c0,0.1,0.1,0.2,0.1,0.3c0,0.1,0,0.1,0.1,0.2c0,0,0,0,0,0
	c0,0,0,0.1,0.1,0.1c0.1,0.1,0.2,0.2,0.3,0.3c0.1,0.1,0.1,0.1,0.2,0.1c0.1,0.1,0.2,0.1,0.2,0.1c0,0,0.1,0.1,0.1,0.1l2,4
	c-0.3,0.1-0.6,0.3-0.9,0.5l-4.3,2.6l5-1c0.2,0,0.5-0.1,0.7-0.2c0.2-0.1,0.4-0.1,0.7-0.2c1-0.3,2.4-0.7,4.2-1.2l2.4-0.7l0.2-0.1
	c0,0,0.1,0,0.1,0c0.1,0,0.2-0.1,0.3-0.1c57.2-16.5,101.8-37.7,132.8-63.1c34.9-0.4,65.4-4.8,90.5-13.3c19-6.4,30.9-13.5,36.3-21.7
	c2.3-3.5,3.5-7.1,3.5-10.9C410.8,251.9,409.7,248.4,407.3,244.9z M361.3,279c-23,8-50.6,12.4-82.1,13l0.2-0.1l-0.4,0.1
	c-1.5,0-3,0.1-4.5,0.1l-0.6,0l-0.5,0.4c-1.2,1-2.4,2-3.7,3.1l0,0h0c-26.2,21.3-62.3,39.6-107.3,54.5c-4,1.3-7.9,2.5-11.8,3.7
	c3.9-2.4,7.8-4.9,11.5-7.5c26.8-18.6,40.2-36.5,40-53.3v-0.8c0-1.1-0.2-2.2-0.3-3.3l0.4,0.1l-0.5-0.5c-0.1-0.8-0.3-1.6-0.4-2.3
	l-0.2-1L200,285c-0.7-0.2-1.4-0.4-2-0.4c-0.1,0-0.2-0.1-0.3-0.1l-0.4-0.4l0.1,0.3c-6.4-1.6-12.6-3.4-18.2-5.4
	c-17.1-5.9-28.4-12.7-33.5-20.2c-1.1-1.5-1.8-3-2.4-4.5c-0.6-1.8-0.9-3.5-0.9-5.4c0-0.7,0-1.3,0.1-1.9c0.2-1.7,0.6-3.2,1.4-4.7
	l0-0.1c0.1-0.3,0.3-0.7,0.5-1.1c0,0,0,0,0,0c0,0,0,0,0,0c0,0,0-0.1,0.1-0.1l0,0v0c0.1-0.2,0.2-0.4,0.3-0.6l0.4-0.6
	c1.1-1.8,2.7-3.7,4.7-5.5c0,0,0,0,0,0c0,0,0,0,0,0c0,0,0,0,0,0c5.3-4.9,13.4-9.5,24.2-13.6c0.9-0.4,1.3-1.3,1-2.2
	c-0.3-0.9-1.3-1.3-2.2-1c-10.7,4.2-19,8.8-24.6,13.8c-0.5-0.1-1-0.2-1.4-0.2c-0.3,0-0.5-0.1-0.8-0.1c-7.4-1.2-14.1-3.4-20.1-6.6
	c-0.9-0.4-1.7-0.9-2.5-1.4c-2.6-1.5-4.9-3.2-6.6-5c-0.6-0.7-1.8-0.6-2.4,0c-0.3,0.3-0.5,0.8-0.5,1.2c0,0.5,0.2,0.9,0.5,1.2
	c2.5,2.5,5.9,4.9,10,7c6.3,3.3,13.3,5.6,21,6.9c-0.5,0.6-1,1.1-1.4,1.7c-0.6,0.7-1.1,1.4-1.5,2.2c-0.1,0.2-0.2,0.4-0.4,0.6l-0.2,0.4
	c-0.1,0-0.1,0.1-0.2,0.1c-13.4,8.2-29.3,12.3-47.3,12.3c-21,0-39.2-5.7-54-16.9c-9.6-7.1-16.1-15.4-19.5-24.6
	c-1.7-4.9-2.6-10.1-2.6-15.5c0-5.2,0.9-10.4,2.6-15.2c0-0.1,0.1-0.2,0.1-0.3c3.4-9.2,9.9-17.5,19.4-24.6c2.5-1.8,5-3.5,7.5-5
	c1.9-1.1,3.9-2.2,5.8-3.1c0.3-0.2,0.7-0.3,1-0.5c2.3,8.1,7.1,15.4,14.4,21.9c0.2,0.1,0.3,0.3,0.5,0.4l0.1,0.1
	c0.2,0.1,0.3,0.3,0.5,0.4c0.3,0.2,0.7,0.4,1,0.4c0.5,0,1-0.3,1.4-0.7c0.3-0.4,0.4-0.8,0.3-1.3s-0.3-0.9-0.7-1.1
	c-0.1-0.1-0.2-0.2-0.3-0.2l-0.3-0.3c-0.1-0.1-0.3-0.2-0.4-0.3c-1-0.9-1.9-1.8-2.8-2.7c-5.6-5.7-9.2-12.1-10.8-19l-0.1-0.5l0,0
	c-0.6-2.8-0.9-5.7-0.9-8.7c0-2.4,0.2-5,0.7-7.5c1.7-9.4,6.8-17.4,15.6-24.7c1.3-1,2.6-2,4-3c3.3-2.3,6.9-4.2,10.6-5.7
	c7.4-3.2,15.9-4.8,25.3-4.8c14.3,0,26.8,3.9,37.1,11.6c-1,0.2-2,0.4-3,0.6c-5.7,1.2-10.9,2.8-15.4,4.8c-3.9,1.8-7,3.7-9.5,5.9
	c-4,3.5-6.1,7.4-6.1,11.6c0,1.4,0.3,2.9,0.8,4.3c0.7,2.1,1.9,4,3.6,5.8c0.3,0.3,0.8,0.5,1.2,0.5s0.9-0.2,1.2-0.5
	c0.3-0.3,0.5-0.8,0.5-1.2c0-0.5-0.2-0.9-0.5-1.2c-1.4-1.4-2.3-2.8-2.8-4.5c-0.4-1.1-0.6-2.2-0.6-3.2c0-3.3,1.6-6.2,4.9-9
	c2.3-1.9,5.1-3.7,8.7-5.4c4.2-1.9,9.2-3.5,14.7-4.6c1.8-0.4,3.8-0.7,5.9-1c0,0,0,0,0,0c2.7,4.4,7,8.3,13.2,11.9
	c4.4,2.5,8.8,4.5,13.2,5.9c0.2,0.1,0.3,0.1,0.5,0.1c0.7,0,1.4-0.5,1.6-1.2c0.3-0.9-0.2-1.9-1.1-2.1c-4.3-1.3-8.4-3.2-12.5-5.6
	c-4.9-2.9-8.5-5.9-11-9.2l2.2,1.1l-3.5-3.1c-0.1-0.1-0.1-0.2-0.2-0.3l-0.5-1.1c-0.2-0.5-0.4-0.9-0.6-1.4l-0.1-0.4l-0.1-0.1
	c-0.2-0.5-0.4-1-0.5-1.5c-0.4-1.8-0.6-3.4-0.6-5c0-2.1,0.3-4.1,1-6c1.8-5.6,6.5-10.6,13.9-14.9c10.2-6,22.7-9,37.2-9
	c10.2,0,19.1,1.4,27.2,4.3c3.4,1.2,6.8,2.8,9.9,4.6c0.4,0.2,0.7,0.4,1.1,0.7c5.8,3.6,9.9,7.7,12,12.2c1.2,2.7,1.8,5.3,1.8,8.1v0.9
	c-1.3-0.1-2.8-0.2-4.3-0.2h-1.1h-0.3c-9.6,0.3-17.8,2.6-25.1,7.2c-0.4,0.2-0.7,0.6-0.8,1.1c-0.1,0.4,0,0.9,0.2,1.3
	c0.3,0.5,0.9,0.8,1.4,0.8c0.3,0,0.6-0.1,0.9-0.3c6.7-4.2,14.3-6.4,23.3-6.6h1.4c2.1,0,4,0.1,5.7,0.3h0c0,0,0,0,0,0
	c1.7,0.2,3.4,0.4,5,0.7c0.5,0.1,1.1,0.2,1.7,0.4l0.1,0c2.3,0.6,4.5,1.3,6.7,2.3c2.5,1.1,4.9,2.4,7.1,4c3.4,2.5,6.1,5.2,8,8.3
	c1.8,3.1,2.7,6.5,2.7,10c0,6.2-2.6,11.5-8,16.1c0,0,0,0,0,0c-0.9,0.7-1.8,1.4-2.7,2c-0.3,0.2-0.5,0.4-0.6,0.5
	c-5.7,3.9-12.3,6.2-19.7,7c-0.5,0-0.9,0.3-1.2,0.6c-0.3,0.4-0.4,0.8-0.4,1.2c0,0,0,0,0,0c0.1,0.9,0.8,1.5,1.7,1.5l0.2,0
	c8-0.9,15.2-3.5,21.4-7.7c0,0,0,0,0.1,0l0.2-0.2c0,0,0.1-0.1,0.1-0.1l0.3-0.2c0.5-0.3,1-0.7,1.5-1.1c1.8,1.8,3.4,3.6,4.9,5.5
	c0.1,0.1,0.2,0.3,0.4,0.5c0,0.1,0.1,0.1,0.1,0.2c3.6,4.9,6,10,7.4,15.4c0,0.2,0.1,0.3,0.1,0.5c-2.2-0.1-4.4-0.2-6.6-0.3
	c-0.1,0-0.3,0-0.5,0c-1-0.1-2.1-0.1-3-0.1c-9.5,0-18.6,0.9-26.9,2.6c-0.9,0.2-1.5,1.1-1.3,2c0.2,0.8,0.9,1.4,1.7,1.4
	c0.1,0,0.2,0,0.4,0c8.1-1.7,16.9-2.5,26.3-2.5c1.1,0,2.2,0,3.3,0.1c2.7,0.1,5.8,0.2,8.8,0.4l0.1,0c1.6,0.1,3.1,0.3,4.7,0.5
	c5.7,0.7,11,1.7,16.1,3.1c3.2,0.9,6.4,2,9.5,3.2c3.2,1.3,6.3,2.7,9.3,4.3c5.8,3.1,10.5,6.6,14,10.3c4.7,5.1,7,10.5,7,16.7
	c0,3.6-0.8,7.1-2.4,10.2c-0.1,0.2-0.2,0.4-0.2,0.5l0,0c-3.2,5.9-9.4,11.3-18.3,16.1c-2.4,1.3-5,2.6-8,3.9c-0.9,0.4-1.3,1.4-0.9,2.2
	c0,0,0,0,0,0c0.3,0.6,0.9,1,1.6,1c0.2,0,0.5,0,0.7-0.1c3.1-1.3,5.8-2.6,8.3-4c9.3-5,15.6-10.5,19.2-16.8c1,0.3,1.9,0.6,2.8,0.9
	c1.7,0.6,3.5,1.3,5.8,2.2c6.6,2.6,12.2,5.3,16.7,8.1c2.7,1.7,5.1,3.5,7,5.3c4.8,4.5,7.3,9.4,7.3,14.6
	C398.1,260.4,385.7,270.6,361.3,279z M259.4,167.7L259.4,167.7L259.4,167.7L259.4,167.7z"/>
</svg>
