<?xml version="1.0" encoding="utf-8"?>
<!-- Generator: Adobe Illustrator 19.2.0, SVG Export Plug-In . SVG Version: 6.00 Build 0)  -->
<svg version="1.1" id="Capa_1" xmlns="http://www.w3.org/2000/svg" xmlns:xlink="http://www.w3.org/1999/xlink" x="0px" y="0px"
	 viewBox="0 0 425.2 425.2" style="enable-background:new 0 0 425.2 425.2;" xml:space="preserve">
<polygon points="281.5,163.2 278.2,162.5 272.3,161.3 292.6,110.1 294.6,105.2 296.6,100.2 298.4,95.6 239.5,129.5 236.6,131.2 
	234.7,132.2 193,19 189.1,128.5 188.3,127.4 147.3,68.7 147.2,69.4 140,138.7 139.8,138.6 136.6,137.1 35.9,88.7 38.1,91.2 
	43.5,97.4 48.8,103.7 107.2,171.9 101.7,173.2 98.1,174.1 94.4,174.9 13.5,193.6 20.4,195.7 26.8,197.6 33.2,199.5 88.9,216.2 
	88.3,222.1 79.4,223 70.6,223.8 61.8,224.6 6.2,229.9 13.2,232.7 19.9,235.4 26.7,238.1 100,267.6 95.9,275.3 94.3,278.3 
	53.2,356.3 59,352.4 64.8,348.3 128.9,304.1 153.3,375.1 173.7,320.7 198.1,384.7 223.2,322.5 294.1,360.8 298.3,363 268.5,307.5 
	263,297.2 348.6,298.3 355.7,298.4 362.8,298.5 365.1,298.5 309.1,268.1 304.4,265.6 299.7,263.1 284.9,255 358.9,241.9 
	365.2,240.8 371.5,239.7 374.9,239.1 316.6,216.4 310.5,214 304.4,211.6 285.1,204 369.1,190.7 378.4,189.2 387.7,187.7 
	395.1,186.5 284.8,163.8 "/>
</svg>
