<?xml version="1.0" encoding="utf-8"?>
<!-- Generator: Adobe Illustrator 19.2.0, SVG Export Plug-In . SVG Version: 6.00 Build 0)  -->
<svg version="1.1" id="Capa_1" xmlns="http://www.w3.org/2000/svg" xmlns:xlink="http://www.w3.org/1999/xlink" x="0px" y="0px"
	 viewBox="0 0 425.2 425.2" style="enable-background:new 0 0 425.2 425.2;" xml:space="preserve">
<g>
	<path d="M364.1,285.5c-6.3-4.1-12.1-7.6-17.7-10.5c-56.5-39.1-7.9-111.7,42.8-129.6c-5.8,1.7-11.4,3.8-16.7,6.2
		c-55.7,19.3-107.8,20.3-99.8-52.2c1.8-6.8,3-14,3.6-21.4c-9.3,55.2-63.6,92.8-107.1,66.2c-5.3-3.2-10.5-7.4-15.4-12.7
		c-3.7-4-7.3-8.6-10.7-13.9c0.2,0.4,0.4,0.8,0.7,1.2c-0.3-0.4-0.5-0.9-0.8-1.3c40.9,70.4-51.3,99.4-112,104.2c0.6,0,1.1,0,1.7,0
		c69.9,5.9,119.7,17.5,117.6,98.5c-0.2,1.2-0.4,2.4-0.6,3.7c26.1-72.5,100.1-66.9,115.1,12.4c0-0.7,0-1.4,0-2.1
		c0.1,1.2,0.2,2.3,0.3,3.5C266.2,267.9,308.4,259.6,364.1,285.5z M288.7,265.2c-16.2,6.5-24.9,25.4-24.5,56.2
		c-8-87.9-93.5-83.5-112.1-10c11.1-72.6-19-90.6-84.9-90.9c63.3-5.9,114.4-32.8,82.1-92.4c41.6,64,101,36.8,120.7-19.7
		c-9.9,63.2,31.6,75,89.1,50.1c-46.6,27.6-68.4,79.3-22.7,111.7C315.6,260.9,300.3,260.5,288.7,265.2z"/>
	<path d="M201.1,98c5.3,1.8,11.3,1.1,16.6-1.6c0,0,0,0,0,0c0,0,0.1,0,0.1,0c31.6,11.3,31.8-30.7,5.2-30.7
		c-8.1-18.3-33.3-19.3-40.1,7.5c0,0,0,0,0,0.1c-0.2,0-0.5,0.1-0.7,0.1C148.8,80.1,168,126.9,201.1,98z M182.9,73.4
		c-0.8,3.2-1.3,6.7-1.6,10.6c0.2-3.9,1-7.5,2.1-10.8c0.1,0,0.2-0.1,0.4-0.1c-0.1,0-0.2,0-0.3,0.1c6.5-19,26.2-27.6,38.8-7.4
		c0,0,0,0,0,0c0,0,0,0,0,0c0.8,1.2,1.5,2.5,2.2,3.9c-0.4-1.3-0.8-2.6-1.4-3.8c22.9,3.3,26.1,37.4-5.4,30.5c6-3.1,11-8.6,13-16
		c-11.9,23.3-32.8,18.6-39.4,10c2.6,3.9,6,6.4,9.7,7.7C174,119.9,149.6,84.5,182.9,73.4z"/>
	<path d="M268.9,43c-10.2-3.1-8.4,21.8-16.4,75.7C266.4,71.1,279.1,46,268.9,43z"/>
	<path d="M344.4,92.6c-0.1,5.4,3.4,11.6,18,9.5c-14.4,0.3-16.1-5.3-17.1-11c0.9-1.7,1.8-3.6,2.8-5.8c-6.6,12.3-12.6,14.6-26.6,10.4
		C334.8,100.8,340.2,99.3,344.4,92.6z"/>
	<path d="M320.8,110.9c1.2,1.7,2.7,3.2,4.3,4.5l-18.3,39.2l-1.7,3.6l2.4-3.2l27.6-35.4c4.8,0.7,10-0.1,14.8-2.9
		c19.1,4.9,25.1-13.5,15.3-25.3c2.1-12.5-4.3-22.4-14.5-25.2c-9.4-2.6-20.9,1-25.2,14.9c-10.2-3.4-19.7,1.9-21.6,10.1
		C301.6,100.5,308.2,111.2,320.8,110.9z M326.8,116.5c0.7,0.4,1.5,0.8,2.3,1.2l-17.9,29.7L326.8,116.5z M313.5,145.3l17-27
		c0.8,0.3,1.5,0.5,2.3,0.7L313.5,145.3z M305.7,91.9c1.4-7,10.2-11.9,19.5-10.4c0,0.1-0.1,0.2-0.1,0.3c0-0.1,0.1-0.2,0.1-0.3
		c1.1,0.2,2.2,0.4,3.3,0.8c-1-0.5-2.1-0.9-3.1-1.3c4.7-11.6,15.8-15.6,25-12.9c8.4,2.4,15,10.5,14.6,23.2c-1.2-1.5-2.7-2.9-4.5-4.1
		c13.7,14.2,7.4,30.9-10.3,29.1c1.7-1.1,3.4-2.3,5-3.9c-2.7,1.5-5.4,2.7-8,3.5c0,0-0.1,0-0.1,0c0,0,0,0,0.1,0
		c-3.7,1.1-7.2,1.6-10.5,1.4l11.4-14.6l-2-1.8l-11.9,16.2c-0.9-0.1-1.8-0.3-2.6-0.6l10.5-16.7l-1.9-0.7l-10.2,16.9
		c-0.9-0.3-1.7-0.7-2.5-1.1l7.2-14.3l-2.6-0.5l-6.4,13.7c-4-2.8-7-7.1-8.5-12.7c0.1,3.8,1.3,7.1,3.2,10
		C309.9,109.7,304,100.6,305.7,91.9z"/>
	<path d="M411.4,117c-2.8-7.1-15.9,4.9-49.6,24.3C394.6,128.1,414.2,124.1,411.4,117z"/>
	<path d="M60.8,285.8c17.7,0.1,26.6,4.8,32.6,20.7C89.4,289.2,80.7,283,60.8,285.8z"/>
	<path d="M119.6,247.3l-0.1,0.2l-0.1-0.1l0.1-0.1l-0.6-0.7l-26,20.9c-8.5-4.9-19.3-4.5-27,0.6c-7.9-1.1-15.1,4.2-16.7,13
		c-7.7,5.4-9.7,20.5,1.5,25.2c5.8,16.3,22.5,21,39.9,14.7c0,0,0,0,0,0c0,0,0,0,0.1,0c23.9-2.8,27.1-22.1,14.9-33.9
		c-0.6-3.5-1.6-6.6-3-9.3l17.9-30L119.6,247.3z M117.4,249l-20.1,21.7c-0.9-0.8-1.8-1.6-2.8-2.3L117.4,249z M90.8,320.9
		c2.6-1,5.2-2.1,7.8-3.6c-18.9,7.4-45.1,8.3-50.1-25c0,5.2,0.7,9.7,2,13.6c-7.8-5.5-7.1-17.8-1.5-24c-0.3,1.9-0.3,3.9,0,6.1
		c0.3-2.9,1-5.5,1.8-7.7c0.1-0.1,0.2-0.2,0.4-0.3c-0.1,0-0.2,0.1-0.3,0.1c4.3-11,14.2-13.3,25.8-6.2c-3.3-3.3-6.9-5.1-10.4-5.7
		c8-3.2,17.1-3.6,24.8,0.6l-19.1,15.3l2.7,1l18.1-15.3c1.1,0.7,2.1,1.5,3.1,2.4l-13.5,14.6l2,1l12.7-14.4c1.2,1.2,2.2,2.5,3.3,4
		l-2.7,4.3c-0.8-0.4-1.5-0.7-2.3-1c0.7,0.4,1.5,0.9,2.2,1.3L90,293.8l1.6,2.2l7.7-12.9C114.9,294.9,113.9,315.4,90.8,320.9z
		 M104.8,286.4c-1.5-1.4-3.3-2.7-5.2-3.8l2-3.4C102.8,281.3,103.9,283.7,104.8,286.4z M101.4,275.8c-0.9-1.4-1.9-2.7-3-3.9l19.5-22
		L101.4,275.8z"/>
	<path d="M64.3,203.7c-38.5-5.6-55.1-11.9-55.1-4.3C9.3,207,29,203.5,64.3,203.7z"/>
	<path d="M350.2,325.8c-8.2-5.4-18.3-4.2-25.4,1.5c-0.3-0.1-0.6-0.2-0.9-0.3l-23.4-41.2l-1.6-2.7l0.8,3l9.6,41.2
		c-8.5,3.3-13.9,12.2-13.2,22.7c-12.2,18,6.2,36.6,28.4,26c0,0,0.1,0,0.1,0c-17,5.7-36-5.5-28.4-24.7c0.3,2.6,0.9,5.3,2,8
		c-2.1-13.9,2.3-24.9,11.8-29.1l4.9,21l3-1.5l-5.5-20.3c1.1-0.3,2.3-0.6,3.6-0.7l2.4,6.5c-0.3,0.6-0.6,1.2-0.8,1.8
		c0.3-0.4,0.7-0.8,1-1.2l3.7,9.9l2.8-1.4l-4.5-10.8c0.9-0.9,1.9-1.8,2.8-2.6l7.1,13.5l2.7-0.9l-8-14.1c0.2-0.1,0.3-0.3,0.5-0.4
		c2.4,0.5,4.8,1.2,7.5,2.2c-2-1.3-4-2.4-6-3.2c11.5-7.1,22.4-3.1,31.5,7.2c-2.3-4.2-5.1-7.3-8.3-9.4c26.1,1.1,27.2,23.8,9.6,32.9
		c0-3.1-0.4-6.5-1.3-10.3c6,36.3-33.7,36.7-41.6,14.8c0.8,5,3.7,9.3,7.6,12.5c5.3,4.3,12.6,6.5,19.6,5.1c7.3-1.5,14.1-6.8,15.4-17.6
		C382.1,352.1,380.5,322.6,350.2,325.8z M311.6,326.6l-9.4-34.4l12.8,33.8C313.8,326.2,312.7,326.4,311.6,326.6z M317.4,326
		l-13.3-31.7l16.9,32C319.8,326.2,318.6,326,317.4,326z M320.1,332.3l-1.6-3.8c1.2,0,2.4,0,3.7,0.2l0.3,0.6
		C321.7,330.2,320.8,331.2,320.1,332.3z"/>
	<path d="M313.6,357.7c2.3,2.3,4.4,5,6.2,8.3c-1.6-4.4-3.2-7.4-5.1-9.6c7-7.8,16.7-10,24.3-9.4c0.2,2.8,1.1,6,2.9,10.2
		c-2-7.7-1.6-14.5,0.8-21.3c-2.5,3.8-3.9,6.8-3.8,10.7c-7.3-3-20.2,0.8-24.7,9.4c-2.5-2.6-5.6-3.8-9.8-4.7c3.4,1.7,6.4,3.8,9.1,6.4
		c-0.1,0.1-0.1,0.3-0.2,0.4C313.4,358,313.5,357.9,313.6,357.7z"/>
	<path d="M155.5,383.6c10.2,3.1,8.4-21.8,16.4-75.7C158,355.5,145.3,380.5,155.5,383.6z"/>
	<path d="M63.4,149.5c-8.3-11.9-5.3-27.3,10.8-29c-0.1,0.1-0.2,0.1-0.3,0.2c0.1-0.1,0.3-0.1,0.4-0.2c2.1-0.2,4.5-0.2,7,0.1
		c-1.7-0.5-3.4-0.9-5-1c13.1-5.4,22.4,4,16.7,16.5c0.1-2.4-0.3-4.8-1.3-7c2.1,10-2.4,21.7-18.6,22.2c4.9,0.7,9-0.3,12.2-2.2
		c-7.1,11.3-21,12.4-24.7-2.5c0-0.1-0.1-0.3-0.1-0.4c2.1,18,19,16.4,25,2.8c4.6-2.9,7.2-7.9,7.5-12.8c9.2-13.3-4-25.1-17.3-16.7
		c-14.9-1.2-23.2,12.5-15.2,25.9C61.3,146.7,62.2,148.1,63.4,149.5z"/>
	<path d="M363.5,278.8c33.7,19.4,46.8,31.3,49.6,24.3C415.9,296,396.2,292,363.5,278.8z"/>
	<path d="M382.2,214.7c-13.6,14.9,9.7,24.7,15.8,10c12.1-0.3,18.4-14.1,5.1-24c0,0,0,0,0,0c0-0.2,0.1-0.4,0.1-0.6
		c3.8-20-26.4-20-18,5v0C382.9,207.6,382,211.1,382.2,214.7C382.2,214.7,382.2,214.7,382.2,214.7
		C382.2,214.7,382.2,214.7,382.2,214.7z M382.2,214.7c0.3,4,2.3,8.1,5.9,10.9c-10.2-12-2.8-22.5,3.5-24.2c-2.8,0.5-4.9,1.8-6.5,3.6
		c-5.9-20.1,19.3-25.5,17.8-4.4c-1.6-1.2-3.4-2.3-5.5-3.3c2.1,1,3.9,2.3,5.5,3.6c0,0.1,0,0.2,0,0.2c0-0.1,0-0.1,0-0.2
		c9.1,8,9.3,20.9-4.8,23.3c0,0,0,0,0,0c0,0,0,0,0,0c-0.9,0.1-1.7,0.3-2.7,0.3c0.8,0.1,1.6,0.1,2.4,0.1
		C390.9,236.7,371.2,230.6,382.2,214.7z"/>
</g>
</svg>
