<?xml version="1.0" encoding="utf-8"?>
<!-- Generator: Adobe Illustrator 19.2.0, SVG Export Plug-In . SVG Version: 6.00 Build 0)  -->
<svg version="1.1" id="Capa_1" xmlns="http://www.w3.org/2000/svg" xmlns:xlink="http://www.w3.org/1999/xlink" x="0px" y="0px"
	 viewBox="0 0 425.2 425.2" style="enable-background:new 0 0 425.2 425.2;" xml:space="preserve">
<path d="M353.5,118.4c-13,0-25.4,2.6-35.4,7.2c2.4-4.1,3.6-8.5,3.6-13c0-19.1-22.5-34.6-50.2-34.6c-15.3,0-29.8,4.9-39.3,13
	c-6.8-15.4-30.3-26.5-58-26.5c-32.8,0-58.7,14.9-59.9,34.3c-7.1,2.5-12.9,6.4-16.8,11.3c-3.6-0.4-7.1-0.6-10.7-0.6
	c-39.1,0-70.9,24.6-70.9,54.8c0,22.6,17.7,42.6,44.5,50.9c-2,3.5-3,7.1-3,10.9c0,9.6,6.7,18.6,18.9,25.3c10.9,6,25.4,9.6,40.9,10.3
	c5.3,24.6,35.7,42.8,72.3,42.8c24.9,0,47.5-8.4,61-22.5c1.6,0.6,3.1,1.1,4.5,1.7c5.9,2.2,11,4.1,19.8,5.4c2.4,0.3,4.6,0.5,6.7,0.5
	c4.3,0,7.7-0.7,11.3-1.4c0.1,0,0.3-0.1,0.4-0.1l78.5,73.2l5.1-3.5l-38.2-91.1c10.3-7.4,13.6-14.3,13.6-27c0-2-0.2-3.9-0.6-5.9
	c22.1-4.2,37.7-19.3,37.7-36.8c0-5.1-1.4-10.2-4-14.9c16-6.3,25.8-17.2,25.8-28.9C411.3,133.6,385.9,118.4,353.5,118.4z
	 M379.6,177.2l-4.1,1.4l2.6,3.5c3.3,4.6,5,9.5,5,14.6c0,15.2-15,28.2-35.7,31.1l-3.7,0.5l1.1,3.5c0.8,2.5,1.1,5,1.1,7.5
	c0,10.3-1.8,15.8-13,23.3l-2.2,1.5l34.5,82.2L295.2,281l-1.6,0.3c-0.7,0.1-1.4,0.3-2,0.4c-3.4,0.7-6.4,1.2-10.1,1.2
	c-1.9,0-3.8-0.1-5.8-0.4c-8.1-1.2-12.7-2.9-18.5-5.1c-2-0.8-4.1-1.6-6.6-2.4l-2-0.7l-1.4,1.6c-12,13.6-34.1,22-57.7,22
	c-34.2,0-63.4-17.6-66.5-40l-0.4-2.7l-2.7-0.1c-31-0.8-56.2-13.9-56.2-29.3c0-3.7,1.4-7.3,4.2-10.7l3.1-3.8l-4.8-1.2
	c-26.4-6.6-44.1-25.1-44.1-45.9c0-26.7,29-48.5,64.6-48.5c3.9,0,7.8,0.3,11.7,0.8l1.9,0.3l1.1-1.6c3.4-5,9.3-8.9,16.8-11.1l2.4-0.7
	l-0.1-2.8c0-0.1,0-0.2,0-0.4c0-15.9,24.6-29.4,53.7-29.4c27.3,0,50.8,11.7,53.4,26.6l1.2,6.6l4.4-5.1c7.8-9.1,22.5-14.7,38.3-14.7
	c24.2,0,43.8,12.7,43.8,28.3c0,7.1-4.2,13.9-11.8,19.2l-6.3,4.4l7.6,1.3c1.1,0.2,2.2,0.4,3.2,0.6l1.5,0.3l1.2-1
	c9.7-8,25.7-12.8,42.8-12.8c27.9,0,51.5,12.9,51.5,28.3C404.9,162.8,395.2,172,379.6,177.2z"/>
</svg>
