<?xml version="1.0" encoding="utf-8"?>
<!-- Generator: Adobe Illustrator 19.2.0, SVG Export Plug-In . SVG Version: 6.00 Build 0)  -->
<svg version="1.1" id="Capa_1" xmlns="http://www.w3.org/2000/svg" xmlns:xlink="http://www.w3.org/1999/xlink" x="0px" y="0px"
	 viewBox="0 0 425.2 425.2" style="enable-background:new 0 0 425.2 425.2;" xml:space="preserve">
<path d="M357.3,81.3c-25.9-3-52.3-1.7-78.2,0.1c-29.4,2.1-58.8,5.7-87.9,10.2c-22.1,3.4-44.2,7.4-66,12.6c-3.4,0.8-6.9,1.6-10.3,2.5
	c-17.4,4.4-34.1,9.3-40.2,28.2c-6.8,21,0.1,46,3.7,66.9c3.6,20.9,10.4,50.2-3.5,68.9c-16.1,19.9-34.8,40.5-56.8,54
	c-2.3,1.4-4.5,7.6,0,6.7c-0.2,2.5,0.9,4.5,4.7,3.4c34.3-9.1,73.1-16.7,108.6-11.4c29.3,4.3,58.3,10.4,87.6,15
	c31.5,4.9,63.9,9.4,95.9,7.3c11.5-0.8,23.2-2.7,33.8-7.6c8.1-3.8,14.2-11.3,19.2-18.5c14.2-20.7,22.5-45.7,29.1-69.6
	c7.8-28.1,13-57.3,14.4-86.5c1-20.6,1.2-45.8-10.1-64C392.4,85.3,372.3,83.1,357.3,81.3z M391.2,216.5
	c-5.3,27.8-13.1,55.8-25.3,81.4c-4.3,9-9.4,18-16.3,25.3c-4.2,4.4-9.7,6.8-15.5,8.4c-3.6,1-7.4,1.6-10.9,2.2
	c-30.6,4.8-63.2-0.1-93.6-4.4c-30.9-4.4-61.5-10.6-92.3-15.6c-29.8-4.9-60.8-2.1-90.7,4c-3.7,0.7-7.3,1.5-10.9,2.4c0,0-0.1,0-0.1,0
	c-0.5,0.1-0.9,0.2-1.4,0.3c16-12.5,30.1-27.9,42.8-43.3c0.8-1,1.6-1.9,2.3-2.9c0.2-0.3,0.4-0.5,0.6-0.8c1.3-1.8,2.5-3.7,3.5-5.7
	c10.2-19.9,5.8-45,2.4-66.2c-2.3-14-5.1-27.9-6.2-42c-0.9-11-1-24.4,6.1-33.6c2.6-3.4,6.3-5.5,10.2-7.1c3.7-1.5,7.8-2.5,11.4-3.5
	c9.6-2.7,19.4-4.9,29.2-6.9c27-5.6,54.2-9.9,81.6-13.4c29-3.7,58.2-6.3,87.5-7c21.9-0.5,45.5-0.7,66.6,5.9c6.3,2,11.7,4.7,15.6,9.9
	c0.4,0.5,0.8,1.1,1.2,1.7c5.2,8.3,6.9,18.5,8.1,28.1C400.2,161.2,396.3,189.7,391.2,216.5z"/>
</svg>
