<?xml version="1.0" encoding="utf-8"?>
<!-- Generator: Adobe Illustrator 19.2.0, SVG Export Plug-In . SVG Version: 6.00 Build 0)  -->
<svg version="1.1" id="Capa_1" xmlns="http://www.w3.org/2000/svg" xmlns:xlink="http://www.w3.org/1999/xlink" x="0px" y="0px"
	 viewBox="0 0 425.2 425.2" style="enable-background:new 0 0 425.2 425.2;" xml:space="preserve">
<path d="M271,293.2c-9.9,26.4-30.7,44.3-58.8,59.3c41.4-11.5,78.8-35.6,101.5-71.2c3.3-5.2,6.3-10.6,8.9-16.3
	c0.1-0.2,0.2-0.4,0.3-0.6c0.8-0.1,1.6-0.3,2.4-0.5c36.6-15,65.4-36.1,81.9-59.9c13.3-17.6,19.8-36.8,17.5-56.2
	c-7.2-61.4-99.6-101-206.3-88.6c-75.3,8.8-137.7,41.2-165.4,81c-13.3,17.6-19.8,36.8-17.5,56.2c7.2,61.4,99.5,101,206.3,88.6
	c7.5-0.9,14.9-2,22.2-3.3c0.4-1.4,0.7-2.7,1-4.1c3.1-14.2,8.8-14.3,11.5-8c-0.4,3.4-0.9,6.7-1.6,9.9
	C273.9,284.3,272.6,288.8,271,293.2z M318,264.5C318,264.5,318,264.5,318,264.5c0.1,0,0.1,0,0.1,0
	C318.1,264.5,318.1,264.5,318,264.5z M269.6,64.4c-14.1-0.2,12.9-4.9,41.7,0.8c28.8,5.7,38.9,12,37.4,12.2
	c-3.1,0.4-9.8-5.2-38.6-10.6C291.3,63.2,281.7,64.6,269.6,64.4z"/>
</svg>
