<?xml version="1.0" encoding="utf-8"?>
<!-- Generator: Adobe Illustrator 19.2.0, SVG Export Plug-In . SVG Version: 6.00 Build 0)  -->
<svg version="1.1" id="Capa_1" xmlns="http://www.w3.org/2000/svg" xmlns:xlink="http://www.w3.org/1999/xlink" x="0px" y="0px"
	 viewBox="0 0 425.2 425.2" style="enable-background:new 0 0 425.2 425.2;" xml:space="preserve">
<path d="M30.9,265.3c6,7.3,13.9,13.5,22.6,17.5c3.6,1.9,7.4,3.5,11.2,4.7c21,6.2,44,3.2,62-9.5c26.3,10.5,55.1,12.1,83.1,9.8
	c29.4-2.4,58.1-9.5,87.4-12.3c28.4-2.7,55.7,1.6,82,12.5c1,0.4,2,0.9,2.9,1.3c3.9,2.1,7.6,4.6,11,7.5c1.9,1.6,4.4,5,6.8,5
	c2.1,1.8,4.5,2.8,6.5-0.7c2.2-3.9-3.6-9-5.8-11.8c-4.3-5.3-9.4-10.1-14.8-14.3c-5.1-4.1-10.9-7.5-17-10.4c-7.5-3.9-15.6-7-23.5-9.7
	c-13.9-4.7-28.4-7.1-43-8c-26.2-1.7-52.2,1.6-78.4,3c11.4-13.4,14.4-32.6,9.8-49.7c-3.5-13-13.3-22.5-25.2-28
	c-6.4-3.5-13.5-5.7-20.7-6.6c-3.4-10.8-8.2-20.5-16.6-28.4c-4-3.8-8.5-6.8-13.4-9c-6.8-3.7-14.6-5.8-22.5-6
	c-26.8-0.5-48.6,20.7-59.5,43.6c-18.2-0.8-35.5,8.5-47.1,22.4c-6.1,7.3-9.8,16.2-11.8,25.4c-1.6,7.1-1.2,13.7-0.7,21
	C17.6,245.9,23.8,256.7,30.9,265.3z M21.7,215c1.6-8.5,4.6-15.9,9.7-23c4.7-6.6,11.8-11.1,18.5-15.4c3.1-2,6.7-3.4,10.3-4.3
	c5.3-1.3,10.8-1.5,16.1-1.1c0.8,0.1,1.8-0.5,2.5-1.2c0.2-0.3,0.4-0.5,0.6-0.8c0.1-0.2,0.2-0.4,0.3-0.6c0.2-0.4,0.4-0.8,0.6-1.3
	c8.2-17.3,22.1-32.5,40.3-37.8c4.2-1.2,8.6-1.9,13.3-2c7.2-0.1,14.1,2,20.3,5.3c3.2,1.8,6.3,3.9,9.1,6.4c9.1,7.9,14,18.6,17.3,30
	c0.3,0.9,0.7,1.4,1.7,1.4c0.5,0,1.1,0.1,1.6,0.1c8,0.7,15.4,3.6,22.6,7.2c0.5,0.3,1.1,0.5,1.6,0.8c7.4,4.1,13,10.5,16.2,18.4
	c7.4,18,3.1,41.7-12.7,53.8c-1.3,1-2.6,4.8,0.2,4.7c0.5,0,1.1,0,1.6,0c1.2,0,2.4-0.1,3.6-0.1c0.5,0,0.9,0,1.4-0.1
	c31.6-1.3,63.1-5.8,94.6-2c16.7,2,33,7.1,48.2,14.2c1.4,0.7,2.8,1.4,4.2,2.1c6,3.1,11.6,6.7,16.8,11.2c1.1,1,2.2,2,3.2,3
	c-5.5-2.9-11.5-5-17.3-7.2c-12.8-4.8-26.2-7.4-39.8-8.7c-28.1-2.6-56.2,3.2-83.9,7.9c-29.5,4.9-59.7,8.1-89.4,3.1
	c-6.9-1.2-13.6-2.9-20.3-5c-3.2-1-6.3-2.2-9.5-3.5c-2-0.8-5.5,2.9-7,3.8c-11.1,7.1-24.7,9.4-37.7,9.4c-5,0-10-1.7-14.8-2.8
	c-3-0.7-5.9-1.7-8.6-3c-5-2.3-9.8-5.4-14.1-8.9c-8.5-6.8-16.2-17.3-19.7-28.3c-0.4-1.2-0.7-2.4-1-3.6c-0.3-1.4-0.6-2.8-0.8-4.3
	c0-0.3-0.1-0.7-0.1-1C21.2,226.2,20.6,220.7,21.7,215z"/>
</svg>
