<?xml version="1.0" encoding="utf-8"?>
<!-- Generator: Adobe Illustrator 19.2.0, SVG Export Plug-In . SVG Version: 6.00 Build 0)  -->
<svg version="1.1" id="Capa_1" xmlns="http://www.w3.org/2000/svg" xmlns:xlink="http://www.w3.org/1999/xlink" x="0px" y="0px"
	 viewBox="0 0 425.2 425.2" style="enable-background:new 0 0 425.2 425.2;" xml:space="preserve">
<path d="M404.6,268.2V57.6c0-14.6-13-25.5-27.4-24.7l-332.7,21C31,55,19.4,66.1,19.4,79.9v168.4c0,14.2,11.7,23.9,25.1,24.7l6.2,0.4
	v124.1l70-119.8L377.2,294C391.8,295,404.6,282.7,404.6,268.2z M370.2,270.9L103.6,254l-39.9,68.3v-0.1l-5.1,8.8v-79.9l-21.2-1.2
	c-5.4-0.4-10.1-3.5-10.1-8.6V72.9c0-4.9,4.5-9.3,10.1-9.7l332.9-21c5.6-0.4,10.1,3.5,10.1,8.4v210.6
	C380.3,266.2,375.6,271.3,370.2,270.9z"/>
</svg>
