<?xml version="1.0" encoding="utf-8"?>
<!-- Generator: Adobe Illustrator 19.2.0, SVG Export Plug-In . SVG Version: 6.00 Build 0)  -->
<svg version="1.1" id="Capa_1" xmlns="http://www.w3.org/2000/svg" xmlns:xlink="http://www.w3.org/1999/xlink" x="0px" y="0px"
	 viewBox="0 0 425.2 425.2" style="enable-background:new 0 0 425.2 425.2;" xml:space="preserve">
<path d="M61.9,286.9c10.1,18.1,20.9,35.7,31.4,52.8c0.2,0.3,0.4,0.7,0.6,1c1.2,2.1,2.2,4.3,3,6.5c0.5,1.3,1,2.7,1.3,4.1
	c4.8,17.3,0.1,36.6-7.9,53.9c1.2-1.3,2.5-2.6,3.7-3.9c3.8-4,7.6-8,11.4-12c12.9-13.6,25.7-27.4,38.6-41.1c1.7-1.8,4-2.1,6.5-2
	c3.1,0.2,6.5,1.3,9.1,1.7c12.1,2,24.3,3.5,36.5,4.6c32.2,2.8,66.5,4,98.1-4.2c1.3-0.3,2.5-0.6,3.8-1c14.6-4.1,30.1-10.5,40-22.5
	c9.4-11.5,17.1-24.7,24.6-37.5c21-35.7,41-75.2,47.3-116.5c2.6-17.2,4.1-38.3-4.3-54.2c-0.8-1.6-1.8-3-2.9-4.4
	c-3.9-5.1-9.3-9-14.8-12.1c-22.3-12.7-49.4-17.6-74.5-21.1c-66.5-9.3-136.4-8.4-202.6,2.7C89.2,85.3,66.3,89.6,46,98.5
	c-3.4,1.5-6.7,3.1-9.9,4.9c-7.4,4.1-14.5,8.9-18.1,16.8c-6.3,13.8-5.7,30.1-3.4,44.7C21.5,207.8,40.3,248.4,61.9,286.9z"/>
</svg>
