<?xml version="1.0" encoding="utf-8"?>
<!-- Generator: Adobe Illustrator 19.2.0, SVG Export Plug-In . SVG Version: 6.00 Build 0)  -->
<svg version="1.1" id="Capa_1" xmlns="http://www.w3.org/2000/svg" xmlns:xlink="http://www.w3.org/1999/xlink" x="0px" y="0px"
	 viewBox="0 0 425.2 425.2" style="enable-background:new 0 0 425.2 425.2;" xml:space="preserve">
<path d="M401.4,79.5c-3.1-13.3-7.5-33-19-42c-9.8-7.7-25.5-7.4-37.3-7.1c-33.7,0.8-67.6,8-100.5,16.8c-30.6,7.6-60.7,16.9-90.4,27.1
	c-20.3,7-40.5,14.5-60.2,23.1c-17.5,7.6-34.2,15.9-47.2,30.4c-33.1,36.8-30.9,98.9-5.4,139.1c15.1,24.5,9.3,54.3-0.6,79.6
	c-5.9,15.1-13.8,30-23.3,43.1c-1.5,2-0.5,3.6,1,3.5c0.3,2.5,3.2,3.4,6.1,0.6c37.8-37.5,75.1-75.6,111.3-114.8
	c26.4,1.9,52.8,3,79.3,3.8c44.5,1.3,89.9,2.3,134.1-4c13.3-1.9,29.2-4.1,39.1-14.2c11.6-11.7,15.4-30.8,18.1-46.4
	c4-22.9,4.6-46.5,3.7-69.6C409.2,125.5,406.7,102.2,401.4,79.5z M398.6,208.9c-2.1,16.7-5.1,37.3-16.4,50.6c-4,4.7-9.9,6.6-15.7,8.2
	c-1,0.3-2.1,0.6-3.1,0.8c-7.1,1.8-14.4,2.9-21.7,3.8c-44.8,5.7-90.6,4.4-135.6,2.9c-18.1-0.6-36.3-1.4-54.4-2.5
	c-5-0.3-9.9-0.6-14.9-0.9c-0.7-0.1-1.4-0.1-2-0.1c-3.2,0-4,1-7.5,4.8c-28,30.3-56.7,59.9-85.8,89.2c-2.7,2.7-5.4,5.5-8.2,8.2
	c-1,1-1.9,1.9-2.9,2.9c5.7-9.7,10.6-19.9,14.7-30.3c9.4-23.4,14.8-51.3,4.6-75c-0.4-0.9-0.8-1.8-1.3-2.7c-0.9-1.8-1.8-3.5-2.9-5.2
	c-0.1-0.2-0.2-0.4-0.3-0.6c-2.8-4.4-5.3-9.1-7.4-14c-19.5-43.7-14.4-102.3,26.1-131.4c10.8-7.7,23.6-13.3,36.1-18.3
	c3.7-1.5,7.3-2.9,10.9-4.4c21.9-8.8,44.3-16.6,66.9-23.8c46.1-14.7,93.8-28,142-33.5c15.2-1.7,32.3-3.4,47.2,1.1
	c4.6,1.4,8.2,4.2,11.1,7.7c5.5,6.7,8.4,16.1,10.9,24c6.6,21.2,9.4,43.7,11,65.7C401.8,160.5,401.6,184.9,398.6,208.9z"/>
</svg>
