<?xml version="1.0" encoding="utf-8"?>
<!-- Generator: Adobe Illustrator 19.2.0, SVG Export Plug-In . SVG Version: 6.00 Build 0)  -->
<svg version="1.1" id="Capa_1" xmlns="http://www.w3.org/2000/svg" xmlns:xlink="http://www.w3.org/1999/xlink" x="0px" y="0px"
	 viewBox="0 0 425.2 425.2" style="enable-background:new 0 0 425.2 425.2;" xml:space="preserve">
<g>
	<path d="M358,252.6l-2.5-2.9L354,248l-1-1.2l0.2-0.7l0.2-0.5l-0.5,0.1l-0.7,0.2l-28.6-33.5l0.2-0.1l43.5-23.9l4.3-2.3l-4.2-2.5
		l-2.7-1.6l0-0.7l-0.6,0.3l-25.9-15.5l19.5-32.1l2.5-4.1l-4.8-0.3l-39-2.5L315,85l-0.1-3.6l-3.5,0.7l-38.3,7.3l-15.1-30.6l-2.6-5.2
		l-3,5l-23.9,40.1L195.2,68l-3-2.8l-1.8,3.6l-19.3,38.5l-48.3-17.9l-3.8-1.4l-0.1,4l-1.2,45.3l-58.8,6.4l-0.3-0.3l-0.1,0.3l-5.3,0.6
		l-5.8,0.6l4.3,3.9l37.7,34.3l-40.4,32l-2.7,2.1l3.1,1.4L91,237.5l-22.8,41.9l-1.5,2.7l3-0.5l51.4-8.1l-10.8,46l-0.3,1.2l1.1-0.5
		l51.6-21.3l24.5,38.4l0.4,0.7l0.4-0.7l21.7-33.3l33.5,29.4l1.2,1.1l0.7-1.5l18.1-37.3l39.1,9.4l2.1,0.5l0.1-2.2l2.5-39.1l47-10.9
		L358,252.6z M305.5,257.1l-1.5,0.4l-0.1,1.5l-2,37.8l-37.9-8.6l-1.3-0.3l-0.5,1.2l-17.1,36.6L212,297.8l-0.8-0.6l-0.5,0.8
		l-20.9,33.1l-0.1,0.2L165.2,295l-0.2-0.3L114.8,314l-0.2,0.1l4.8-19l6.7-26.3l0.4-1.5l-1.5,0.2l-49.5,6.8l22.6-40l0.9-1.7l-1.8-0.8
		l-39.6-18.3L97.4,183l2.2-1.7l-2-1.9l-34.7-32l60.6-6.3l2.4-0.2l0.1-2.4l1.3-43l46.5,17.3l2.5,0.9l1.2-2.3l18.6-36.5l32.6,30.2
		l2.8,2.6l2-3.3l22.8-37.7l13.6,27l1,2.1l2.3-0.4l36.8-7.1l1.6,40.6l0.1,2.7l2.6,0.2l36.6,2.2l-18.2,29.9l-1.5,2.4l2.4,1.4l27.2,16
		l-41.7,23.1l-2.8,1.5l2.1,2.4l2.7,3.1l0,0.3l0.2-0.1l28.7,32.7L305.5,257.1z"/>
	<polygon points="102.8,151.3 102.8,151.3 102.9,151 102.9,151 	"/>
	<path d="M22.6,196.6c0.5-0.1,0.9-0.2,1.3-0.4l0.6-0.3c0.2-0.1,0.4-0.2,0.6-0.4c0.4-0.3,0.7-0.6,1.1-0.9c0.2-0.2,0.3-0.3,0.5-0.5
		c0.1-0.2,0.3-0.4,0.4-0.5c0.1-0.2,0.2-0.3,0.3-0.5c0,0,0,0,0-0.1c0.1-0.1,0.1-0.2,0.2-0.3c0,0,0-0.1,0.1-0.1
		c0.1-0.1,0.1-0.2,0.2-0.3c-0.2,0.4-0.5,0.8-0.8,1.2c-0.1,0.2-0.3,0.3-0.5,0.5c-0.2,0.2-0.3,0.3-0.5,0.5c-0.3,0.3-0.7,0.6-1.1,0.8
		c-0.2,0.1-0.4,0.2-0.6,0.3l-0.6,0.3c-0.2,0.1-0.4,0.1-0.7,0.2c-0.2,0.1-0.4,0.1-0.7,0.1c-0.4,0.1-0.9,0.1-1.4,0.1
		c-0.2,0-0.4,0-0.7-0.1c-0.2,0-0.4,0-0.7-0.1l-0.7-0.1l-0.2,0c0,0-0.1,0-0.2,0l-0.3-0.1c-0.2-0.1-0.4-0.2-0.6-0.2c0,0,0,0,0,0
		c-0.2-0.1-0.4-0.2-0.6-0.3c-0.4-0.2-0.7-0.5-1.1-0.8c-0.6-0.6-1.1-1.4-1.4-2.2c-0.3-0.8-0.5-1.7-0.6-2.6c0-0.5,0-0.9,0-1.4
		c0-0.4,0.1-0.9,0.1-1.3l0.1-0.4l-0.4,0c-0.3,0-0.7,0-1-0.1c-0.2,0-0.3-0.1-0.5-0.1c-0.2,0-0.3-0.1-0.5-0.1c-0.2,0-0.3-0.1-0.5-0.1
		c-0.2-0.1-0.3-0.1-0.5-0.2c-0.3-0.1-0.6-0.3-0.9-0.5l-0.4-0.3c-0.1-0.1-0.2-0.2-0.4-0.3c-0.1-0.1-0.2-0.2-0.3-0.4
		c-0.1-0.1-0.2-0.2-0.3-0.4l-0.2-0.4l-0.2-0.4c0-0.1-0.1-0.1-0.1-0.2l-0.1-0.3l-0.1-0.5l0-0.5c0-0.2,0-0.3,0-0.5c0,0,0,0,0,0l0-0.5
		c0-0.2,0.1-0.3,0.1-0.5l0-0.2l0.1-0.2c0-0.2,0.1-0.3,0.1-0.5c0.1-0.3,0.2-0.6,0.4-0.9c0.1-0.2,0.1-0.3,0.2-0.5
		c0.1-0.1,0.2-0.3,0.3-0.4c0.2-0.3,0.4-0.6,0.6-0.8c0.2-0.3,0.4-0.5,0.7-0.8c0.2-0.2,0.5-0.5,0.7-0.7l0.5-0.4l-0.5-0.4
		c-0.3-0.2-0.6-0.4-0.9-0.6c-0.3-0.2-0.5-0.5-0.8-0.7c-0.4-0.4-0.7-0.8-1-1.3c-0.1-0.1-0.2-0.3-0.3-0.4c-0.2-0.5-0.4-0.9-0.5-1.4
		c0-0.2,0-0.3,0-0.5c0-0.3,0-0.7,0.1-1c0.1-0.3,0.2-0.6,0.4-0.9l0.1-0.2l0.1-0.1l0.1-0.1l0.3-0.4c0.1-0.1,0.2-0.3,0.3-0.4
		c0.1-0.1,0.2-0.3,0.4-0.4l0.4-0.3c0.1-0.1,0.3-0.2,0.4-0.2c0.1-0.1,0.3-0.1,0.5-0.2l0.2-0.1c0.1,0,0.2,0,0.2,0
		c0.3-0.1,0.7-0.1,1-0.1c0.2,0,0.3,0,0.5,0c0.2,0,0.3,0,0.5,0.1c0.3,0.1,0.7,0.2,1,0.3c0.3,0.1,0.7,0.3,0.9,0.4l0.8,0.4l0-0.9
		c0-0.2,0-0.5,0.1-0.7c0-0.2,0.1-0.5,0.1-0.7c0-0.1,0.1-0.3,0.1-0.4c0-0.1,0.1-0.2,0.1-0.3l0.1-0.3l0.1-0.3c0-0.1,0.1-0.2,0.2-0.3
		c0.1-0.1,0.1-0.2,0.2-0.3c0.1-0.2,0.3-0.3,0.4-0.5c0.1-0.1,0.2-0.2,0.2-0.2l0.1-0.1l0.1-0.1c0.1-0.1,0.2-0.1,0.3-0.1l0.4-0.1l0.1,0
		l0.2,0l0.3-0.1c0.2,0,0.4-0.1,0.6,0c0.2,0,0.4,0,0.6,0.1c0.1,0,0.2,0.1,0.4,0.1c0.1,0,0.2,0.1,0.3,0.1c0,0,0.1,0.1,0.1,0.1
		c0,0,0.1,0,0.1,0.1c0.1,0.1,0.2,0.1,0.3,0.2c0.2,0.1,0.4,0.3,0.5,0.4c0.2,0.2,0.3,0.3,0.5,0.5c0.2,0.2,0.3,0.4,0.4,0.5l0.5,0.8
		l0.4-0.8c0.1-0.2,0.2-0.4,0.4-0.6c0.1-0.2,0.3-0.4,0.5-0.6l0.3-0.2l0.3-0.2l0.3-0.2c0.1-0.1,0.2-0.1,0.3-0.1
		c0.1-0.1,0.2-0.1,0.3-0.1l0.2,0l0.2,0c0.1,0,0.2,0,0.4,0l0.4,0c0.1,0,0.2,0,0.4,0.1c0.1,0,0.2,0,0.4,0.1l0.4,0.1l0.2,0.1l0,0
		c0,0,0,0,0,0l0,0l0,0l0,0l0,0l0.1,0c0.2,0.1,0.5,0.2,0.7,0.4c0.1,0.1,0.2,0.1,0.3,0.2l0.3,0.2c0.1,0.1,0.2,0.2,0.2,0.3
		c0.1,0.1,0.2,0.2,0.2,0.3l0.2,0.3c0.1,0.1,0.1,0.2,0.2,0.3c0.1,0.1,0.1,0.2,0.1,0.3c0,0.1,0.1,0.2,0.1,0.4c0.1,0.2,0.1,0.5,0.1,0.8
		c0,0.3,0,0.5,0,0.8c0,0.2-0.1,0.5-0.1,0.7l-0.4,1.6l1.2-1.1c0.2-0.2,0.5-0.4,0.8-0.6c0.3-0.2,0.6-0.3,0.9-0.5
		c0.2-0.1,0.3-0.1,0.5-0.2c0.2,0,0.3-0.1,0.5-0.1c0.2,0,0.3,0,0.5,0c0.2,0,0.3,0,0.5,0c0.2,0,0.3,0.1,0.5,0.1l0.2,0.1l0.2,0.1
		c0.2,0.1,0.3,0.1,0.5,0.2l0.4,0.3c0.1,0.1,0.3,0.2,0.4,0.3l0.2,0.2c0.1,0.1,0.1,0.1,0.2,0.2l0.4,0.4l0.2,0.2l0.1,0l0,0l0,0
		c0,0,0,0,0,0c0,0,0,0-0.1,0v0l0,0.1l0,0.1l0,0l0,0.2c0.2,0.3,0.6,0.5,0.5,0.9l0.2,0.5l0.3,0.4l0.1,0.2l0.1,0.2
		c0,0.2,0.1,0.3,0.1,0.5c0,0.3,0.1,0.7,0.1,1l0,0.3l0,0.3c0,0.2,0,0.3-0.1,0.5c-0.1,0.3-0.2,0.7-0.3,1c-0.1,0.3-0.3,0.6-0.5,0.9
		c-0.2,0.3-0.4,0.6-0.6,0.8l-0.3,0.3l0.4,0.2c0.2,0.1,0.4,0.3,0.6,0.5c0.2,0.2,0.4,0.3,0.6,0.5c0.2,0.2,0.4,0.4,0.5,0.5l0.2,0.3
		l0.2,0.3c0.1,0.1,0.1,0.2,0.2,0.3c0.1,0.1,0.1,0.2,0.2,0.3c0,0,0,0,0,0c0.1,0.1,0.1,0.3,0.2,0.4c0,0.1,0.1,0.2,0.1,0.3l0,0.2l0,0.2
		c0,0.1,0,0.2,0,0.3c0,0.1,0,0.3,0,0.4l0,0.2l0,0.2c0,0,0,0.1,0,0.1c-0.1,0.2-0.1,0.3-0.2,0.5c0,0,0,0,0,0.1l-0.2,0.3
		c0,0-0.1,0.1-0.1,0.1c-0.1,0.1-0.1,0.1-0.2,0.2c-0.1,0.1-0.2,0.2-0.3,0.3c-0.1,0.1-0.2,0.2-0.3,0.2c-0.2,0.2-0.4,0.3-0.6,0.5
		c-0.2,0.1-0.4,0.3-0.7,0.4c-0.2,0.1-0.5,0.2-0.7,0.4c-0.1,0.1-0.3,0.1-0.4,0.2c-0.3,0.2-0.7,0.3-1.1,0.4l-0.1,0l-0.1,0l0,0.2
		c0,0.1,0,0.3,0.1,0.4c0,0.2,0.1,0.3,0.1,0.5c0,0.3,0.1,0.6,0.1,1c0,0.3,0,0.6,0,1c0,0.2,0,0.3-0.1,0.5l-0.1,0.5
		c0,0.2-0.1,0.3-0.1,0.5c0,0.2-0.1,0.3-0.1,0.5c-0.1,0.2-0.1,0.3-0.2,0.5l-0.2,0.4c-0.1,0.2-0.2,0.3-0.2,0.4
		c-0.1,0.1-0.2,0.3-0.3,0.4l-0.3,0.4c-0.1,0.1-0.2,0.2-0.4,0.3c-0.1,0.1-0.2,0.2-0.4,0.3l-0.4,0.3c-0.1,0.1-0.3,0.2-0.4,0.2
		c-0.1,0.1-0.3,0.2-0.4,0.2l-0.5,0.2c-0.2,0.1-0.3,0.1-0.5,0.1c-0.2,0.1-0.3,0.1-0.5,0.1c-0.2,0-0.3,0.1-0.5,0.1c-0.2,0-0.3,0-0.5,0
		l-0.5,0l-0.5,0c-0.2,0-0.3-0.1-0.5-0.1c-0.3-0.1-0.6-0.1-1-0.2c-0.3-0.1-0.6-0.2-0.9-0.4c0.1,0,0.2,0.1,0.3,0.1
		c0.1,0,0.2,0.1,0.3,0.1c0,0,0,0,0,0c1.1,0.5,4,1.3,6.6-0.7c-2.6,2-5.5,1.2-6.6,0.7c0.1,0.1,0.3,0.1,0.4,0.2c0.3,0.1,0.6,0.2,1,0.3
		c0.2,0,0.3,0.1,0.5,0.1l0.5,0.1l0.5,0c0.2,0,0.3,0,0.5,0c0.2,0,0.3,0,0.5-0.1c0.2,0,0.3,0,0.5-0.1c0.2,0,0.3-0.1,0.5-0.1l0.5-0.2
		c0.2,0,0.3-0.1,0.5-0.2c0.2-0.1,0.3-0.1,0.4-0.2l0.4-0.3c0.2-0.1,0.3-0.2,0.4-0.3c0.1-0.1,0.3-0.2,0.4-0.3l0.3-0.4
		c0.1-0.1,0.2-0.3,0.3-0.4c0.1-0.1,0.2-0.3,0.3-0.4l0.2-0.5c0.1-0.2,0.1-0.3,0.2-0.5c0.1-0.2,0.1-0.3,0.2-0.5c0-0.2,0.1-0.3,0.1-0.5
		l0.1-0.5c0-0.2,0-0.3,0.1-0.5c0-0.3,0.1-0.7,0.1-1c0-0.3,0-0.7,0-1c0-0.1,0-0.2,0-0.4l4.6,0.9c0,0.1,0,0.2,0,0.3l0,0.4l0,0v0l0,0
		l0,0l0,0l0,0.1l0,0.2c0,0.1,0,0.2,0.1,0.3l0.2,0.4c0,0.1,0.1,0.2,0.2,0.3c0.1,0.1,0.1,0.2,0.2,0.3c0.1,0.1,0.2,0.2,0.3,0.3l0.3,0.2
		c0.2,0.1,0.4,0.3,0.7,0.3c0.2,0.1,0.5,0.2,0.7,0.2c0.2,0,0.5,0.1,0.7,0.1c0.2,0,0.5,0,0.7,0c0.1,0,0.2,0,0.3,0c0.1,0,0.2,0,0.3,0
		c0,0,0.1,0,0.1,0l0,0c0,0-0.1,0-0.1,0c-0.1,0-0.2,0-0.3,0c0,0.1,0,0.2,0,0.3c0,0.2,0,0.4,0,0.7c0,0.2,0,0.4,0.1,0.7
		c0,0.2,0.1,0.4,0.1,0.7c0.1,0.2,0.1,0.4,0.2,0.6c0.1,0.2,0.2,0.4,0.3,0.6c0.1,0.1,0.1,0.2,0.2,0.3l0.2,0.3c0.1,0.2,0.3,0.3,0.5,0.5
		l0.3,0.2c0.1,0.1,0.2,0.1,0.3,0.2l0.3,0.2l0.3,0.1c0.1,0,0.2,0.1,0.3,0.1c0.1,0,0.2,0,0.3,0c0.2,0,0.5,0,0.7,0
		c0.2,0,0.4-0.1,0.7-0.2c0.2-0.1,0.4-0.2,0.6-0.3c0.2-0.1,0.4-0.2,0.6-0.3c0.1-0.1,0.2-0.2,0.3-0.2c0.1,0.2,0.2,0.3,0.4,0.5
		c0.2,0.2,0.4,0.4,0.6,0.6c0.2,0.2,0.4,0.4,0.6,0.6l0.3,0.2l0.4,0.2c0.1,0.1,0.3,0.1,0.4,0.2c0.1,0.1,0.3,0.1,0.4,0.1
		c0.3,0.1,0.6,0.1,0.8,0.1c0.1,0,0.3,0,0.4,0l0.2,0l0.2,0L58,196l0.4-0.2l0.2-0.1c0,0,0.1,0,0.1,0l0.1-0.1l0.4-0.2
		c0.1-0.1,0.2-0.1,0.3-0.2c0.1-0.1,0.2-0.2,0.3-0.3c0.2-0.2,0.4-0.4,0.6-0.6c0.2-0.2,0.3-0.5,0.5-0.7l0.2-0.4c0-0.1,0.1-0.3,0.1-0.4
		c0.1-0.3,0.1-0.5,0.2-0.8c0-0.1,0-0.2,0-0.4c0-0.1,0-0.2,0-0.3c0-0.1,0-0.1,0-0.2c0,0,0-0.1,0-0.1c0-0.2,0-0.3-0.1-0.5
		c0-0.1,0-0.2-0.1-0.3c0,0,0,0,0,0c0,0,0,0,0,0c0.1,0.3,0.1,0.5,0.1,0.8c0,0.3,0,0.5-0.1,0.8c0,0.3-0.1,0.5-0.2,0.8l-0.1,0.4
		l-0.2,0.4c-0.1,0.2-0.3,0.5-0.5,0.7c-0.2,0.2-0.4,0.4-0.6,0.6c-0.1,0.1-0.2,0.2-0.3,0.2c-0.1,0.1-0.2,0.1-0.4,0.2l-0.4,0.1l-0.1,0
		c0,0,0,0.1-0.1,0.1l-0.2,0.1l-0.4,0.1l-0.4,0.1l-0.2,0l-0.2,0c-0.1,0-0.3,0-0.4,0c-0.1,0-0.3,0-0.4-0.1c-0.1,0-0.3,0-0.4-0.1
		c-0.1,0-0.2-0.1-0.4-0.1c-0.1-0.1-0.2-0.1-0.4-0.2l-0.3-0.2l-0.3-0.2c-0.2-0.2-0.4-0.3-0.6-0.5c-0.2-0.2-0.4-0.4-0.5-0.6
		c-0.2-0.2-0.3-0.4-0.4-0.7l-0.1-0.2l-0.2,0.2c-0.2,0.1-0.3,0.2-0.5,0.3c-0.2,0.1-0.4,0.2-0.5,0.3c-0.2,0.1-0.4,0.2-0.6,0.2
		c-0.2,0.1-0.4,0.1-0.6,0.1c-0.2,0-0.4,0-0.6,0c-0.1,0-0.2,0-0.3,0c-0.1,0-0.2,0-0.3-0.1l-0.3-0.1l-0.2-0.1
		c-0.1-0.1-0.3-0.3-0.5-0.4c-0.1-0.2-0.3-0.3-0.4-0.4l-0.2-0.2c-0.1-0.1-0.1-0.2-0.2-0.3c-0.1-0.2-0.2-0.4-0.3-0.5
		c-0.1-0.2-0.1-0.4-0.2-0.6c-0.1-0.2-0.1-0.4-0.1-0.6c0-0.2,0-0.4,0-0.6c0-0.2,0-0.4,0-0.6c0-0.2,0-0.4,0.1-0.6l0.1-0.4l-0.4,0.1
		c-0.2,0-0.4,0-0.6,0c-0.2,0-0.4,0-0.6,0c-0.2,0-0.4-0.1-0.6-0.1c-0.2-0.1-0.4-0.1-0.6-0.2c-0.2-0.1-0.4-0.2-0.5-0.3l-0.2-0.2
		c-0.1-0.1-0.1-0.1-0.2-0.2c-0.1-0.1-0.1-0.1-0.2-0.2c0-0.1-0.1-0.2-0.1-0.2L43,187c0-0.1-0.1-0.2-0.1-0.3l0-0.2l0-0.1l0.1,0
		c0,0,0.1-0.1,0.1-0.1c0,0-0.1,0-0.1,0l0,0l0,0l0,0l0,0l0,0l0-0.3c0-0.1,0-0.1,0-0.2l7.3,1.4c0,0,0,0,0,0.1l-0.4,0.7l0.7-0.3
		c0.1,0,0.2-0.1,0.3-0.1c0.1,0,0.2-0.1,0.3-0.1c0,0,0,0,0,0l2.5,0.5c0.2,0.1,0.3,0.3,0.5,0.4c0.2,0.2,0.3,0.3,0.4,0.5
		c0.1,0.2,0.2,0.4,0.3,0.6c-0.1-0.2-0.2-0.4-0.3-0.6c-0.1-0.2-0.2-0.4-0.4-0.6c-0.1-0.1-0.2-0.2-0.3-0.3l2.2,0.4c0,0-0.1,0-0.1,0
		c-0.2,0.1-0.3,0.1-0.5,0.2c-0.2,0.2-0.5,0.4-0.6,0.6c0,0-0.1,0.1-0.1,0.1c0.2-0.3,0.4-0.5,0.7-0.7c0.1-0.1,0.3-0.1,0.5-0.2
		c0.2,0,0.3-0.1,0.5-0.1h0l0.1,0c0,0,0,0,0,0l0,0l0-0.1c-0.1-0.2-0.1-0.4-0.1-0.6c0-0.2,0-0.4,0-0.6c0-0.4,0.1-0.8,0.3-1.2
		c0.2-0.4,0.4-0.7,0.7-1c0.3-0.3,0.6-0.6,0.9-0.8l0.3-0.2l-0.3-0.2c0,0-0.1-0.1-0.1-0.1c0,0-0.1-0.1-0.1-0.1
		c-0.1-0.1-0.2-0.2-0.2-0.3c-0.1-0.2-0.2-0.4-0.3-0.6c-0.1-0.2-0.1-0.4-0.1-0.6c0-0.2,0.1-0.4,0.2-0.6l0.7-1.5l-1.2,1.1
		c-0.1,0.1-0.1,0.1-0.2,0.2c-0.1,0.1-0.1,0.1-0.2,0.2c-0.2,0.1-0.3,0.2-0.5,0.3c-0.3,0.2-0.7,0.2-1,0.2c-0.1,0-0.2,0-0.2-0.1
		c-0.1,0-0.1-0.1-0.2-0.1c-0.1-0.1-0.3-0.2-0.4-0.3c-0.1-0.1-0.2-0.3-0.3-0.4c-0.1-0.2-0.2-0.3-0.2-0.5l-0.4-0.9l-0.3,1
		c0,0.1-0.1,0.1-0.1,0.2c0,0.1-0.1,0.1-0.1,0.2c-0.1,0.1-0.2,0.3-0.3,0.4c-0.2,0.2-0.5,0.3-0.8,0.3c-0.2,0-0.3,0-0.5,0
		c0,0,0,0-0.1,0c-0.1,0-0.3-0.1-0.4-0.1c-0.3-0.1-0.6-0.3-0.9-0.5l-0.9-0.6l0.4,1l-4.2-1.4c0-0.1,0.1-0.1,0.2-0.2
		c0.1-0.1,0.2-0.2,0.3-0.3c0.1-0.1,0.2-0.1,0.3-0.2c0.1,0,0.2-0.1,0.4-0.1c0.1,0,0.2-0.1,0.4-0.1c0.1,0,0.3,0,0.4,0
		c0.1,0,0.3,0,0.4,0c0.1,0,0.3,0,0.4,0.1l0.6,0.2l-0.1-0.6c0-0.1-0.1-0.3-0.1-0.4c0-0.1,0-0.3,0-0.4l0-0.2l0.1-0.2
		c0-0.1,0.1-0.3,0.2-0.4c0-0.1,0.1-0.1,0.1-0.2c0-0.1,0.1-0.1,0.1-0.2c0.1-0.1,0.2-0.2,0.3-0.3c0.1-0.1,0.2-0.1,0.4-0.2l0.2-0.1
		l0.1,0l0.1,0c0.1,0,0.3-0.1,0.4-0.1l0.2,0l0.2,0c0.1,0,0.1,0,0.2,0c0.1,0,0.1,0,0.2,0l0.2,0.1c0.1,0,0.1,0.1,0.2,0.1
		c0.1,0.1,0.3,0.1,0.4,0.2c0.1,0.1,0.2,0.2,0.3,0.3c0.1,0.1,0.2,0.2,0.3,0.4c0.1,0.1,0.2,0.3,0.2,0.4l0.5,1l0.2-1.1
		c0-0.2,0.1-0.4,0.1-0.6c0.1-0.2,0.1-0.4,0.2-0.6c0-0.1,0.1-0.2,0.2-0.3c0.1-0.1,0.1-0.2,0.2-0.2c0.1-0.1,0.3-0.2,0.5-0.3
		c0.1-0.1,0.2,0,0.3-0.1l0.1-0.1l0.1-0.1c0.2-0.1,0.4-0.1,0.6-0.2c0.1,0,0.2,0,0.3,0c0.1,0,0.2,0,0.3,0l0.3,0l0.2,0l0.1,0
		c0.2,0.1,0.4,0.1,0.6,0.2l0.3,0.1l0.3,0.2c0.2,0.1,0.3,0.2,0.5,0.4c0.1,0.1,0.3,0.3,0.4,0.4c0.1,0.1,0.1,0.2,0.2,0.2
		c0.1,0.1,0.1,0.2,0.2,0.3c0.1,0.2,0.2,0.4,0.2,0.6c0.1,0.2,0.1,0.4,0.1,0.6c0,0.2,0.1,0.4,0.1,0.6l0,0.3l0.3,0c0.3,0,0.6,0,0.9,0
		c0.3,0,0.6,0,0.9,0.1c0.1,0,0.3,0.1,0.4,0.1c0.1,0.1,0.3,0.1,0.4,0.2l0.2,0.1c0,0,0.1,0.1,0.1,0.1c0,0,0.1,0.1,0.1,0.2l0.1,0.1
		l0,0.1c0.1,0.1,0.1,0.3,0.1,0.4c0,0.1,0,0.3,0,0.4c0,0.1,0,0.3-0.1,0.4c0,0.1-0.1,0.3-0.1,0.4c-0.2,0.6-0.4,1.1-0.8,1.7l-0.1,0.1
		l0.1,0.1c0.1,0.1,0.3,0.2,0.4,0.4c0.1,0.1,0.3,0.3,0.4,0.4c0.1,0.1,0.2,0.3,0.4,0.5c0.1,0.2,0.2,0.3,0.3,0.5
		c0.1,0.2,0.2,0.3,0.2,0.5c0.1,0.2,0.1,0.4,0.2,0.5c0,0.2,0.1,0.4,0.1,0.6c0,0.1,0,0.2,0,0.3c0,0.1,0,0.2,0,0.3
		c0,0.2-0.1,0.4-0.1,0.6c-0.1,0.2-0.1,0.4-0.2,0.5c-0.1,0.2-0.2,0.3-0.3,0.5c-0.1,0.2-0.2,0.3-0.4,0.4c0,0,0,0,0,0l0,0
		c-0.1,0.1-0.3,0.2-0.4,0.3l0,0c0,0,0,0-0.1,0c-0.2,0.1-0.3,0.2-0.5,0.3c-0.3,0.2-0.7,0.3-1.1,0.4c0.1,0,0.3-0.1,0.4-0.1
		c0,0,0,0,0.1,0c0,0,0,0-0.1,0c0,0,0,0,0.1,0c0.1,0,0.2-0.1,0.3-0.1c0,0,0,0,0,0c0,0,0,0,0,0c0.1,0,0.2-0.1,0.3-0.2
		c-0.1,0.1-0.2,0.1-0.3,0.2c0.1,0,0.2-0.1,0.3-0.1c0.2-0.1,0.3-0.2,0.5-0.3c0,0,0.1-0.1,0.1-0.1l10.1,1.9l-9.7-2.2
		c0.1-0.1,0.1-0.1,0.2-0.2c0.1-0.1,0.1-0.1,0.2-0.2c0.1-0.2,0.2-0.3,0.3-0.5c0.1-0.2,0.2-0.4,0.2-0.6c0,0,0,0,0-0.1l7.4,2l-7.3-2.3
		c0-0.1,0-0.2,0.1-0.3c0-0.2,0-0.4,0-0.6c0-0.1,0-0.3,0-0.4l5,1.6l-5-1.7c0,0,0-0.1,0-0.1c0-0.2-0.1-0.4-0.2-0.6
		c-0.1-0.2-0.1-0.4-0.2-0.6c-0.1-0.2-0.2-0.4-0.3-0.5c-0.1-0.2-0.2-0.3-0.4-0.5c-0.1-0.2-0.3-0.3-0.4-0.5c-0.1-0.1-0.2-0.2-0.3-0.3
		c0.3-0.5,0.6-1,0.8-1.6c0.1-0.2,0.1-0.3,0.1-0.5c0-0.2,0.1-0.3,0.1-0.5c0-0.2,0-0.3,0-0.5c0-0.2-0.1-0.3-0.1-0.5l-0.1-0.1
		c0-0.1,0-0.1-0.1-0.1c-0.1-0.1-0.1-0.1-0.1-0.2c-0.1-0.1-0.1-0.1-0.2-0.2l-0.2-0.2c-0.1-0.1-0.3-0.2-0.5-0.2
		c-0.2-0.1-0.3-0.1-0.5-0.2c-0.3-0.1-0.6-0.1-1-0.2c-0.2,0-0.5,0-0.7,0h0c0-0.1,0-0.3,0-0.4c0-0.2-0.1-0.5-0.1-0.7
		c-0.1-0.2-0.2-0.4-0.3-0.7c0-0.1-0.1-0.2-0.2-0.3c-0.1-0.1-0.1-0.2-0.2-0.3c-0.1-0.2-0.3-0.4-0.5-0.5c-0.2-0.1-0.4-0.3-0.6-0.4
		l-0.3-0.2l-0.3-0.1c-0.2-0.1-0.4-0.2-0.7-0.3c-0.1,0-0.1-0.1-0.2-0.1l-0.2,0l-0.3,0c-0.2,0-0.5,0-0.7,0c-0.2,0-0.5,0.1-0.7,0.2
		l-0.2,0.1l-0.2,0.1c-0.1,0.1-0.2,0.1-0.3,0.2c-0.2,0.1-0.4,0.3-0.6,0.5c-0.1,0.1-0.2,0.2-0.2,0.3c-0.1,0.1-0.1,0.2-0.2,0.3
		c-0.1,0.2-0.2,0.4-0.3,0.6c0.1,0.1,0.1,0.1,0.1,0.2c0-0.1-0.1-0.1-0.1-0.2c0,0,0,0.1,0,0.1c0,0,0-0.1,0-0.1
		c-0.1-0.1-0.1-0.1-0.2-0.2c-0.1-0.1-0.2-0.3-0.4-0.4c-0.1-0.1-0.3-0.2-0.5-0.3c-0.1,0-0.2-0.1-0.3-0.1l-0.3-0.1
		c-0.1,0-0.2,0-0.3-0.1c-0.1,0-0.2,0-0.3,0l-0.3,0c-0.1,0-0.2,0-0.3,0c-0.2,0-0.4,0.1-0.5,0.1c-0.1,0-0.1,0-0.2,0l-0.1,0l-0.2,0.1
		c-0.2,0.1-0.3,0.2-0.5,0.3c-0.2,0.1-0.3,0.2-0.4,0.4c-0.1,0.1-0.1,0.1-0.2,0.2c-0.1,0.1-0.1,0.1-0.2,0.2c-0.1,0.2-0.2,0.3-0.2,0.5
		l-0.1,0.3l0,0.3c0,0.2,0,0.4,0,0.6c0,0,0,0,0,0c-0.1,0-0.3,0-0.4,0c-0.2,0-0.3,0-0.5,0c-0.2,0-0.3,0-0.5,0.1
		c-0.2,0-0.3,0.1-0.5,0.2c-0.2,0.1-0.3,0.2-0.4,0.3c-0.1,0.1-0.3,0.2-0.4,0.4c-0.1,0.1-0.2,0.3-0.3,0.4l0,0l-2.1-0.7
		c-0.1-0.2-0.1-0.4-0.2-0.6c-0.1-0.1-0.1-0.3-0.2-0.4c-0.1-0.1-0.1-0.2-0.2-0.3l-0.3-0.3l-0.3-0.3c-0.2-0.2-0.4-0.4-0.6-0.6
		c-0.2-0.2-0.4-0.4-0.6-0.6c-0.1-0.1-0.2-0.2-0.3-0.3c-0.1,0.1-0.2,0.2-0.2,0.3l0,0c0.1-0.1,0.2-0.2,0.2-0.3
		c-0.1-0.1-0.2-0.2-0.3-0.2c0.5-0.7,1.8-2.6,1.4-5c0.4,2.4-0.8,4.3-1.4,5c0.1,0.1,0.2,0.2,0.3,0.2c0.2-0.2,0.3-0.4,0.4-0.6
		c0.2-0.3,0.4-0.7,0.5-1c0.2-0.4,0.3-0.7,0.4-1.1c0.1-0.2,0.1-0.4,0.1-0.6l0-0.3l0-0.3c0-0.4,0-0.8,0-1.2c0-0.2-0.1-0.4-0.1-0.6
		c0-0.1,0-0.2-0.1-0.3l-0.1-0.3l-0.2-0.6l-0.3-0.5c-0.2-0.4-0.4-0.7-0.6-1l-0.1-0.1l0-0.1l0,0l0-0.1l-0.2-0.2l-0.4-0.4
		c-0.1-0.1-0.3-0.3-0.4-0.4c-0.2-0.1-0.3-0.3-0.5-0.4l-0.5-0.3c-0.2-0.1-0.4-0.2-0.6-0.3c-0.1,0-0.2-0.1-0.3-0.1l-0.3-0.1
		c-0.2,0-0.4-0.1-0.6-0.1c-0.2,0-0.4,0-0.6,0c-0.2,0-0.4,0-0.6,0.1c-0.2,0-0.4,0.1-0.6,0.1c-0.2,0.1-0.4,0.1-0.6,0.2
		c-0.4,0.1-0.7,0.3-1.1,0.5c0,0,0,0,0,0c0,0,0,0,0,0c0-0.2,0-0.4,0-0.6c0-0.3,0-0.6-0.1-0.9c0-0.2-0.1-0.3-0.1-0.5
		c0-0.2-0.1-0.3-0.2-0.4c-0.1-0.1-0.1-0.3-0.2-0.4l-0.2-0.4c-0.1-0.1-0.2-0.3-0.3-0.4c-0.1-0.1-0.2-0.2-0.3-0.3l-0.3-0.3
		c-0.1-0.1-0.3-0.2-0.4-0.3c-0.2-0.2-0.5-0.3-0.8-0.4l-0.1-0.1l-0.1,0l0,0l0,0l0,0l-0.2-0.1l-0.4-0.1c-0.1,0-0.3-0.1-0.5-0.1
		c-0.2,0-0.3-0.1-0.5-0.1l-0.5,0c-0.2,0-0.3,0-0.5,0l-0.2,0l-0.2,0.1c-0.2,0-0.3,0.1-0.5,0.1c-0.1,0.1-0.3,0.1-0.4,0.2l-0.4,0.2
		l-0.4,0.3l-0.4,0.3c-0.2,0.2-0.4,0.4-0.6,0.7c0,0,0,0,0,0c-0.2-0.2-0.4-0.4-0.6-0.5c-0.2-0.2-0.4-0.3-0.7-0.5
		c-0.1-0.1-0.2-0.1-0.4-0.2c-0.1-0.1-0.2-0.1-0.4-0.2c-0.3-0.1-0.5-0.2-0.8-0.3c-0.3-0.1-0.6-0.1-0.9-0.1c-0.3,0-0.6,0-0.9,0
		l-0.4,0.1l-0.2,0.1l0,0l0,0l0,0l0,0l0,0l-0.1,0l-0.3,0.1c-0.1,0.1-0.3,0.2-0.4,0.2l-0.2,0.1l-0.2,0.1c-0.1,0.1-0.2,0.2-0.3,0.3
		c-0.2,0.2-0.4,0.4-0.5,0.6c-0.1,0.1-0.2,0.2-0.2,0.3c-0.1,0.1-0.1,0.2-0.2,0.4l-0.2,0.4l-0.1,0.4c-0.1,0.3-0.2,0.5-0.2,0.8
		c-0.1,0.3-0.1,0.5-0.1,0.8c0,0,0,0,0,0c0.1,0.1,0.3,0.1,0.4,0.2c-0.1-0.1-0.3-0.1-0.4-0.2c-0.1-0.1-0.3-0.1-0.4-0.2
		c-0.4-0.1-0.8-0.2-1.2-0.3c-0.2,0-0.4-0.1-0.6-0.1c-0.2,0-0.4,0-0.6,0c-0.4,0-0.8,0-1.2,0.1c-0.1,0-0.2,0-0.3,0.1l-0.3,0.1
		c-0.2,0.1-0.4,0.1-0.6,0.2c-0.2,0.1-0.4,0.2-0.6,0.3l-0.5,0.4c-0.2,0.1-0.3,0.3-0.5,0.4c-0.1,0.1-0.3,0.3-0.4,0.5l-0.4,0.5
		c0,0-0.1,0.1-0.1,0.1l-0.1,0.1l-0.1,0.2c-0.2,0.4-0.4,0.8-0.5,1.2c-0.1,0.4-0.2,0.8-0.1,1.3c0,0.8,0.3,1.7,0.7,2.4
		c0.4,0.7,0.9,1.3,1.5,1.9c0.3,0.3,0.6,0.5,0.9,0.8c0.1,0.1,0.3,0.2,0.4,0.4c-0.1,0.1-0.2,0.2-0.4,0.4c-0.3,0.3-0.5,0.6-0.7,0.8
		c-0.2,0.3-0.4,0.6-0.6,0.9c-0.1,0.2-0.2,0.3-0.3,0.5c-0.1,0.2-0.2,0.3-0.3,0.5c-0.2,0.3-0.3,0.7-0.4,1.1c-0.1,0.2-0.1,0.4-0.1,0.5
		L7.4,180l0,0.3c0,0.2-0.1,0.4-0.1,0.6l0,0.6c0,0.2,0,0.4,0,0.6l0,0.6l0.1,0.6l0.1,0.3c0,0.1,0.1,0.2,0.1,0.3
		c0.1,0.2,0.1,0.4,0.2,0.6l0.3,0.5c0.1,0.2,0.2,0.3,0.4,0.5c0.1,0.2,0.2,0.3,0.4,0.4c0.1,0.1,0.3,0.3,0.4,0.4l0.5,0.3
		c0.3,0.2,0.7,0.4,1,0.5c0.2,0.1,0.4,0.1,0.5,0.2c0.2,0.1,0.4,0.1,0.5,0.2c0.2,0,0.4,0.1,0.5,0.1c0.2,0,0.4,0.1,0.5,0.1
		c0.2,0,0.5,0.1,0.7,0.1c0,0.4-0.1,0.7-0.1,1.1c0,0.5,0,0.9,0,1.4c0.1,0.9,0.3,1.9,0.7,2.8c0.4,0.9,0.9,1.7,1.6,2.3
		c0.4,0.3,0.7,0.6,1.2,0.8c0.2,0.1,0.4,0.2,0.6,0.3c0.2,0.1,0.4,0.2,0.7,0.2l0.3,0.1c0.1,0,0.1,0,0.2,0l0.2,0l0.7,0.1
		c0.2,0.1,0.5,0.1,0.7,0.1c0.2,0,0.5,0,0.7,0C21.7,196.7,22.1,196.7,22.6,196.6z M10.8,175.2C10.8,175.2,10.8,175.2,10.8,175.2
		L10.8,175.2l0-0.4L10.8,175.2z M56.9,196c-1.8,0-3.1-1.4-3.6-2.2C53.7,194.6,55.1,196,56.9,196z M53,193.5L53,193.5
		C53,193.5,53,193.5,53,193.5c0.1,0.1,0.1,0.2,0.2,0.2C53.1,193.6,53,193.6,53,193.5C53,193.5,53,193.5,53,193.5z M53,193.5
		L53,193.5c-0.1-0.1-0.1-0.2-0.1-0.2S52.9,193.4,53,193.5z M52.7,193.4C52.7,193.4,52.7,193.4,52.7,193.4L52.7,193.4L52.7,193.4z
		 M57.8,184.1C57.8,184,57.9,184,57.8,184.1L57.8,184.1L57.8,184.1C57.9,184,57.9,184.1,57.8,184.1C57.9,184.1,57.9,184,57.8,184.1
		C57.9,184,57.8,184,57.8,184.1C57.8,184.1,57.8,184.1,57.8,184.1z M50.3,187.5C50.3,187.5,50.3,187.5,50.3,187.5
		C50.3,187.5,50.3,187.5,50.3,187.5C50.3,187.5,50.3,187.5,50.3,187.5z M56.2,186.6c0-0.3,0.2-0.6,0.3-0.9
		C56.4,186.1,56.3,186.3,56.2,186.6z M56.7,185.3L56.7,185.3c0.2-0.3,0.5-0.7,0.9-1h0C57.3,184.6,57,184.9,56.7,185.3z M53.3,181
		L53.3,181L53.3,181c0,0.1,0.1,0.2,0.1,0.3C53.4,181.1,53.4,181.1,53.3,181c-0.2,0.3-0.4,0.6-0.8,0.8
		C52.9,181.6,53.2,181.2,53.3,181z M53.2,181.8c0.1-0.1,0.3-0.3,0.4-0.4c0.1,0.2,0.2,0.3,0.3,0.5c0.2,0.2,0.3,0.3,0.5,0.5
		c0.1,0.1,0.2,0.1,0.3,0.2c0.1,0,0.2,0.1,0.4,0.1c0.5,0.1,1-0.1,1.3-0.3c0.1-0.1,0.2-0.1,0.3-0.2c0,0.3,0,0.5,0.1,0.8
		c0.1,0.3,0.2,0.5,0.4,0.7c0.1,0.1,0.2,0.2,0.3,0.3c0,0,0,0,0.1,0.1c0,0,0.1,0.1,0.1,0.1c0,0-0.1-0.1-0.1-0.1c0,0-0.1,0-0.1,0.1
		l-5.1-1.7C52.7,182.1,53,182,53.2,181.8z M50.5,181.5L50.5,181.5c-0.1,0-0.2-0.1-0.3-0.1l0,0C50.3,181.4,50.4,181.5,50.5,181.5z
		 M50.1,183.1c0.2-0.3,0.2-0.7,0.2-1.1c0,0,0,0,0,0l7,2.2c-0.1,0.1-0.3,0.3-0.4,0.4c-0.2,0.2-0.3,0.4-0.4,0.6l-6.5-2
		C50,183.2,50.1,183.1,50.1,183.1z M56.3,185.7C56.3,185.7,56.3,185.7,56.3,185.7c-0.2,0.5-0.3,0.9-0.3,1.4c0,0.2,0,0.4,0,0.6
		l-5.4-1.2c0-0.1,0-0.1,0-0.2c-0.1-0.4-0.3-0.8-0.5-1.1c-0.2-0.3-0.5-0.6-0.8-0.9c-0.1-0.1-0.3-0.2-0.4-0.3c0.1,0,0.3-0.1,0.4-0.1
		c0,0,0.1,0,0.1-0.1L56.3,185.7z M49.8,181.3L49.8,181.3c0,0,0-0.1,0-0.1C49.8,181.2,49.8,181.3,49.8,181.3z M49.9,181.9L49.9,181.9
		c0,0.4,0,0.9-0.2,1.2C50,182.7,50,182.3,49.9,181.9z M44.9,180.5c0-0.1,0-0.1,0-0.2l4.6,1.4c0,0.1,0,0.2,0,0.3c0,0.3,0,0.5-0.1,0.8
		c0,0.1-0.1,0.1-0.1,0.2l-4.3-1.3c0,0,0,0,0,0c0-0.1-0.1-0.3-0.1-0.4c0-0.1-0.1-0.3-0.1-0.4C44.9,180.8,44.9,180.6,44.9,180.5z
		 M45.3,182.8C45.2,182.7,45.2,182.7,45.3,182.8L45.3,182.8C45.2,182.7,45.2,182.7,45.3,182.8z M45.5,183.3l0.6-0.1l-0.3-0.3
		l2.6,0.7c0,0-0.1,0-0.1,0l-0.7,0.1l0.6,0.4c0.1,0.1,0.3,0.2,0.4,0.3c0.1,0.1,0.3,0.2,0.4,0.4c0.3,0.2,0.5,0.5,0.7,0.8
		c0.2,0.3,0.4,0.5,0.5,0.8l-7-1.6c0,0,0-0.1,0.1-0.1c0.1-0.1,0.1-0.2,0.2-0.2c0.2-0.3,0.6-0.6,0.9-0.7c0.2-0.1,0.4-0.2,0.6-0.2
		C45.1,183.4,45.3,183.3,45.5,183.3z M48.4,183.6l-0.1,0.2l0,0.1l0-0.1L48.4,183.6z M42.5,180.7l0.1-0.2l0,0l0,0c0,0,0,0,0,0l0,0
		l0,0l0-0.1l0-0.1c0-0.1,0-0.2,0-0.4c0-0.1,0-0.2,0-0.3l1.7,0.5c0,0,0,0.1,0,0.1c0,0.1,0,0.2,0,0.3c0,0.2,0,0.3,0,0.5
		c0,0.2,0,0.3,0.1,0.5l-1.8-0.6C42.4,180.8,42.5,180.8,42.5,180.7z M44.7,182.5c0,0.1,0.1,0.1,0.1,0.2l0,0c-0.1,0-0.1,0-0.2,0.1
		c-0.2,0.1-0.4,0.2-0.7,0.3c-0.4,0.2-0.8,0.5-1.1,0.9c-0.1,0.1-0.2,0.2-0.2,0.3c-0.1,0.1-0.1,0.2-0.2,0.3l-3.3-0.8
		c0.1-0.1,0.3-0.1,0.4-0.2c0.2-0.1,0.5-0.3,0.7-0.4c0.2-0.1,0.5-0.3,0.7-0.5c0.1-0.1,0.2-0.2,0.3-0.3c0.1-0.1,0.2-0.2,0.3-0.3
		c0.1-0.1,0.2-0.2,0.3-0.3l0.1-0.1L44.7,182.5z M31.7,166.4c0,0,0,0,0-0.1l-0.4-0.2l0,0l0.4,0.2C31.7,166.3,31.7,166.4,31.7,166.4z
		 M31.9,164.8c0-0.9-0.2-2.1-1.1-3C31.6,162.7,31.9,163.9,31.9,164.8z M23.6,162.7L23.6,162.7c0,0-0.1-0.1-0.2-0.2
		C23.5,162.6,23.6,162.7,23.6,162.7z M23.3,162.2C23.2,162.2,23.2,162.2,23.3,162.2c-0.7-0.8-2.4-2.3-4.6-1.6
		C20.9,159.9,22.6,161.4,23.3,162.2z M15.7,164.9c0.1,0,0.2,0.1,0.2,0.1l0,0C15.8,165,15.7,165,15.7,164.9L15.7,164.9z M13.7,187.1
		C13.7,187.1,13.7,187,13.7,187.1L13.7,187.1C13.7,187,13.7,187.1,13.7,187.1z M18.9,196.3c4.1,1.1,6.6-0.8,7.9-2.3
		C25.5,195.5,23,197.4,18.9,196.3z"/>
	<path d="M28.9,161.2L28.9,161.2L28.9,161.2C28.9,161.2,28.9,161.2,28.9,161.2L28.9,161.2L28.9,161.2z"/>
	<path d="M29.5,180.9c0.2,0,0.3,0,0.5,0c0.4,0,0.7,0,1.1,0l0.5,0l-0.1-0.5c0-0.1,0-0.2,0-0.3c0-0.1,0-0.2,0-0.3c0-0.2,0-0.4,0-0.6
		c0-0.4,0.1-0.8,0.2-1.1c0.1-0.3,0.3-0.6,0.6-0.9c0.1-0.1,0.3-0.3,0.4-0.3c0.2-0.1,0.3-0.2,0.5-0.3l2-1l-2.3,0.1c-0.1,0-0.3,0-0.5,0
		c-0.2,0-0.3,0-0.5,0c-0.3,0-0.6-0.1-0.9-0.2c-0.3-0.1-0.6-0.2-0.8-0.3c-0.1-0.1-0.2-0.1-0.4-0.2c-0.1-0.1-0.2-0.2-0.3-0.3
		c-0.1-0.1-0.2-0.2-0.2-0.3c0-0.1-0.1-0.1-0.1-0.2c0-0.1-0.1-0.1-0.1-0.2c-0.1-0.1-0.1-0.3-0.1-0.4c0-0.1,0-0.3,0-0.4
		c0-0.1,0-0.3,0-0.4c0-0.1,0-0.3,0.1-0.5l0.1-0.5l0.1-0.5l0.4-1.4l-1.3,0.8c-0.1,0.1-0.2,0.1-0.3,0.2c-0.1,0.1-0.3,0.1-0.4,0.2
		c-0.3,0.1-0.5,0.2-0.8,0.2c-0.3,0-0.5,0-0.8-0.1c-0.2-0.1-0.5-0.2-0.7-0.4c-0.1-0.1-0.2-0.2-0.3-0.3c-0.1-0.1-0.2-0.2-0.3-0.3
		c-0.1-0.1-0.2-0.2-0.2-0.4c-0.1-0.1-0.1-0.3-0.2-0.4c-0.1-0.1-0.1-0.3-0.2-0.4c-0.1-0.1-0.1-0.3-0.2-0.4c-0.1-0.3-0.2-0.6-0.3-0.9
		l-0.4-1.6l-0.6,1.5c0,0.1-0.1,0.2-0.1,0.3c0,0.1-0.1,0.2-0.2,0.3c-0.1,0.2-0.2,0.4-0.4,0.6c-0.3,0.4-0.6,0.7-1,0.9
		c-0.4,0.2-0.8,0.3-1.2,0.2c-0.2,0-0.4-0.1-0.6-0.2c-0.2-0.1-0.4-0.2-0.6-0.4l-1-0.6l0,0L18,170c0.1,0.3,0.1,0.6,0.2,0.9
		c0.1,0.3,0.1,0.6,0.2,0.9c0.1,0.6,0.1,1.2,0.1,1.8c0,0.6-0.1,1.2-0.3,1.7c-0.2,0.5-0.6,0.9-1.2,1.1l-1.2,0.3l1.3,0.3
		c0.2,0,0.3,0.1,0.5,0.2c0.2,0.1,0.3,0.1,0.5,0.2c0.3,0.2,0.6,0.3,0.9,0.6c0.3,0.2,0.6,0.5,0.8,0.7c0.1,0.1,0.2,0.3,0.3,0.4
		c0.1,0.2,0.2,0.3,0.3,0.5c0.3,0.7,0.5,1.4,0.5,2.1c0,0.2,0,0.4,0,0.6c0,0.2,0,0.4,0,0.6l-0.1,0.6l0,0.1l-0.1,0.5l0.2-0.5l0.1-0.6
		c0-0.2,0.1-0.4,0.1-0.6c0-0.2,0-0.4,0-0.6c0-0.8-0.1-1.6-0.4-2.3c-0.1-0.2-0.2-0.4-0.3-0.5c-0.1-0.2-0.2-0.3-0.3-0.5
		c-0.2-0.3-0.5-0.6-0.8-0.9c-0.3-0.3-0.6-0.5-1-0.7c-0.1-0.1-0.2-0.1-0.4-0.2c0.1-0.1,0.2-0.1,0.2-0.2c0.3-0.2,0.5-0.5,0.7-0.9
		c0.3-0.6,0.4-1.3,0.5-2c0-0.7,0-1.3-0.1-2c0-0.3-0.1-0.6-0.1-1c0.2,0.1,0.5,0.2,0.7,0.3c0.2,0,0.3,0.1,0.5,0.1c0.2,0,0.3,0,0.5,0
		c0.2,0,0.3,0,0.5-0.1c0.2,0,0.3-0.1,0.4-0.2c0.6-0.3,1-0.7,1.4-1.2c0.1-0.1,0.2-0.2,0.2-0.3c0,0.1,0.1,0.2,0.1,0.2
		c0.1,0.2,0.1,0.3,0.2,0.5c0.1,0.2,0.2,0.3,0.3,0.5c0.1,0.1,0.2,0.3,0.3,0.4c0.1,0.1,0.2,0.3,0.4,0.4c0.1,0.1,0.3,0.3,0.4,0.4
		c0.3,0.2,0.7,0.4,1,0.5c0.4,0.1,0.8,0.2,1.2,0.1c0.3,0,0.7-0.1,1-0.2c0,0.2-0.1,0.3-0.1,0.5c0,0.2,0,0.4,0,0.6c0,0.2,0,0.4,0.1,0.6
		c0,0.2,0.1,0.4,0.2,0.6c0,0.1,0.1,0.2,0.1,0.3c0,0.1,0.1,0.2,0.1,0.3c0.1,0.2,0.2,0.3,0.4,0.5c0.1,0.2,0.3,0.3,0.5,0.4
		c0.2,0.1,0.3,0.2,0.5,0.3c0.3,0.2,0.7,0.3,1.1,0.4c0.3,0.1,0.5,0.1,0.8,0.1c-0.3,0.4-0.6,0.8-0.7,1.2c-0.2,0.4-0.2,0.9-0.3,1.4
		c0,0.2,0,0.5,0,0.7c0,0.1,0,0.1,0,0.2c-0.2,0-0.4,0-0.6,0c-0.2,0-0.4,0-0.6,0.1c-0.2,0-0.4,0-0.6,0.1c-0.4,0.1-0.7,0.2-1.1,0.3
		c-0.2,0.1-0.4,0.1-0.5,0.2c-0.2,0.1-0.3,0.2-0.5,0.3c-0.7,0.4-1.3,0.9-1.8,1.4c-0.2,0.3-0.5,0.6-0.7,0.9c-0.2,0.3-0.3,0.6-0.4,0.9
		l-0.2-0.1c-0.1-0.1-0.3-0.1-0.4-0.2c-0.1,0-0.3-0.1-0.4-0.1c-0.1,0-0.3-0.1-0.4-0.1c-0.1,0-0.3,0-0.4,0c-0.1,0-0.3,0-0.4,0
		c-0.1,0-0.2,0.1-0.4,0.1c-0.1,0-0.2,0-0.2,0.1c-0.1,0-0.1,0-0.2,0.1c0,0,0,0-0.1,0c0,0,0,0,0,0c0.1,0,0.2-0.1,0.2-0.1
		c0.2-0.1,0.4-0.1,0.6-0.1c0.1,0,0.3,0,0.4,0c0.1,0,0.3,0,0.4,0.1c0.1,0,0.3,0.1,0.4,0.1c0.1,0,0.3,0.1,0.4,0.2
		c0.1,0.1,0.3,0.1,0.4,0.2l0.4,0.2l0.1,0.1l0.1-0.2c0.1-0.3,0.3-0.6,0.5-0.9c0.2-0.3,0.4-0.6,0.7-0.8c0.5-0.5,1.1-0.9,1.7-1.2
		c0.2-0.1,0.3-0.1,0.5-0.2c0.2-0.1,0.3-0.1,0.5-0.2c0.3-0.1,0.7-0.2,1-0.2C29.1,180.9,29.3,180.9,29.5,180.9z M17.1,176.4
		c0.1,0,0.3,0.1,0.4,0.1C17.4,176.5,17.2,176.4,17.1,176.4L17.1,176.4z M20.9,182.2c0.2-3.6-2.3-4.9-3.4-5.4
		c-0.2-0.1-0.3-0.1-0.4-0.1c0.1,0,0.2,0.1,0.4,0.1C18.6,177.3,21.1,178.6,20.9,182.2z M23.3,167.9c0,0,0,0.1-0.1,0.2
		c-0.1,0.1-0.1,0.3-0.3,0.6c0.1-0.2,0.2-0.4,0.3-0.6C23.3,168,23.3,167.9,23.3,167.9c0,0.1,0,0.1,0,0.2
		C23.3,168,23.3,168,23.3,167.9z M23.6,168.5c0,0.1-0.1,0.1-0.1,0.2C23.6,168.6,23.6,168.6,23.6,168.5c0.1-0.1,0.1-0.3,0.2-0.4
		C23.7,168.2,23.7,168.4,23.6,168.5z M28.1,171.6l-0.1,0.5L28.1,171.6L28.1,171.6L28.1,171.6z M31,180.2l-0.2,0.3h0L31,180.2z
		 M23.9,184.3C23.9,184.3,23.9,184.3,23.9,184.3L23.9,184.3L23.9,184.3z"/>
	<path d="M27.9,196.5l0.2-0.2c0.1-0.2,0.3-0.3,0.4-0.5c0.1-0.2,0.2-0.3,0.3-0.5c0.1-0.1,0.1-0.2,0.2-0.4c0.1,0,0.1,0.1,0.2,0.1
		c0.1,0,0.3,0.1,0.4,0.1c0.1,0,0.3,0.1,0.4,0.1c0.1,0,0.3,0.1,0.4,0.1c0.1,0,0.3,0,0.4,0.1c0.1,0,0.3,0,0.4,0c0.1,0,0.3,0,0.4,0
		c0.1,0,0.3,0,0.4,0l0.4,0l0.4-0.1c0.1,0,0.3-0.1,0.4-0.1c0.1,0,0.3-0.1,0.4-0.1l0.4-0.1c0.1-0.1,0.3-0.1,0.4-0.2l0.2-0.1l0.2-0.1
		l0.3-0.2l-0.4,0.2l-0.2,0.1l-0.2,0.1c-0.1,0-0.3,0.1-0.4,0.1l-0.4,0.1c-0.1,0-0.3,0.1-0.4,0.1c-0.1,0-0.3,0.1-0.4,0.1l-0.4,0
		l-0.4,0c-0.1,0-0.3,0-0.4,0c-0.1,0-0.3,0-0.4,0c-0.1,0-0.3,0-0.4-0.1c-0.1,0-0.3,0-0.4-0.1c-0.1,0-0.3-0.1-0.4-0.1
		c-0.1,0-0.3-0.1-0.4-0.1c-0.1,0-0.3-0.1-0.4-0.1c-0.1,0-0.3-0.1-0.4-0.1l-0.2-0.1l-0.1,0.2c-0.1,0.2-0.2,0.3-0.3,0.5
		c-0.1,0.2-0.2,0.3-0.3,0.5c-0.1,0.2-0.2,0.3-0.3,0.5l-0.2,0.2l-0.2,0.2c-0.5,0.5-1.2,1-1.8,1.4c-0.2,0.1-0.3,0.2-0.5,0.3
		c-0.2,0.1-0.4,0.2-0.5,0.2c-0.4,0.2-0.7,0.3-1.1,0.4c-0.4,0.1-0.7,0.2-1.1,0.3c-0.4,0.1-0.8,0.2-1.2,0.3c0.4,0,0.8-0.1,1.2-0.1
		c0.4-0.1,0.8-0.1,1.2-0.2c0.4-0.1,0.8-0.2,1.1-0.4c0.2-0.1,0.4-0.1,0.6-0.2c0.2-0.1,0.4-0.2,0.5-0.3c0.7-0.4,1.4-0.8,2-1.4
		L27.9,196.5z"/>
	<path d="M36.6,168.1c0.1,0.1,0.2,0.1,0.3,0.2c0.1,0.1,0.2,0.2,0.3,0.3c0.1,0.1,0.1,0.1,0.2,0.2c0,0,0.1,0.1,0.1,0.1
		c0,0,0,0.1,0.1,0.1c0.1,0.1,0.2,0.2,0.3,0.4c0,0.1,0.1,0.1,0.1,0.2c0,0.1,0.1,0.1,0.1,0.2c0.1,0.1,0.1,0.3,0.2,0.5
		c0.1,0.2,0.1,0.3,0.1,0.5c0,0.2,0.1,0.3,0.1,0.5c0,0.1,0,0.3,0,0.4c0,0.3,0,0.5,0,0.6c0,0.2,0,0.2,0,0.2s0-0.1,0.1-0.2
		c0.1-0.1,0.1-0.4,0.2-0.6c0-0.1,0-0.3,0-0.4c0-0.2,0-0.3,0-0.5c0-0.1,0-0.2,0-0.3c0-0.1,0-0.2-0.1-0.3c-0.1-0.2-0.1-0.4-0.2-0.5
		c0-0.1-0.1-0.2-0.1-0.3c-0.1-0.1-0.1-0.2-0.2-0.2c-0.1-0.2-0.2-0.3-0.3-0.4c-0.1-0.1-0.3-0.2-0.4-0.3c-0.1-0.1-0.3-0.2-0.4-0.2
		c-0.1-0.1-0.2-0.1-0.3-0.2c-0.1,0-0.2-0.1-0.3-0.1c-0.2,0-0.2-0.1-0.2-0.1s0.1,0.1,0.2,0.1C36.5,167.9,36.6,168,36.6,168.1z"/>
	<path d="M50.5,196.3c-0.1,0-0.2,0-0.2,0c-0.1,0-0.2,0-0.2,0c-0.2,0-0.3,0-0.5,0c-0.2,0-0.4-0.1-0.5-0.1c-0.2,0-0.3-0.1-0.5-0.2
		c-0.2-0.1-0.3-0.2-0.5-0.3c-0.1-0.1-0.3-0.2-0.4-0.4c-0.3-0.3-0.5-0.5-0.6-0.8c-0.3-0.5-0.5-0.9-0.5-0.9s0,0.1,0,0.3
		c0,0.2,0.1,0.4,0.2,0.7c0.1,0.1,0.1,0.3,0.2,0.5c0.1,0.2,0.2,0.3,0.3,0.5c0.1,0.2,0.3,0.3,0.4,0.4c0.2,0.1,0.3,0.3,0.5,0.4
		c0.2,0.1,0.4,0.2,0.6,0.2c0.2,0.1,0.4,0.1,0.6,0.1c0.2,0,0.4,0,0.6,0c0.2,0,0.3-0.1,0.5-0.1c0.1,0,0.3-0.1,0.4-0.1
		c0.1,0,0.2-0.1,0.3-0.1c0.2-0.1,0.2-0.1,0.2-0.1s-0.1,0-0.3,0C51.1,196.2,50.8,196.2,50.5,196.3z"/>
	<path d="M51,173.8c0.1,0,0.2,0.1,0.3,0.1c0.1,0,0.2,0.1,0.3,0.1c0.1,0.1,0.2,0.1,0.3,0.2c0.2,0.1,0.4,0.2,0.5,0.3l0.2,0.1l0.1-0.2
		c0.1-0.1,0.1-0.3,0.2-0.4c0.1-0.1,0.2-0.3,0.2-0.4c0.1-0.1,0.2-0.2,0.3-0.4c0.1-0.1,0.2-0.2,0.3-0.3c0.1-0.1,0.1-0.1,0.2-0.2
		c0.1,0,0.1-0.1,0.2-0.1c0.1,0,0.1-0.1,0.2-0.1c0.1,0,0.1-0.1,0.2-0.1c0.1,0,0.1-0.1,0.2-0.1l0.1,0l0.1,0c0.1,0,0.1,0,0.2,0l0.2,0
		l-0.2-0.1c-0.1,0-0.2,0-0.2,0l-0.1,0l-0.1,0c-0.1,0-0.2,0-0.2,0.1c-0.1,0-0.2,0.1-0.2,0.1c-0.1,0-0.1,0.1-0.2,0.1
		c-0.1,0-0.1,0.1-0.2,0.1c-0.1,0-0.1,0.1-0.2,0.2c-0.1,0.1-0.2,0.2-0.4,0.3c-0.1,0.1-0.2,0.3-0.3,0.4c-0.1,0.1-0.2,0.3-0.3,0.4
		c0,0.1-0.1,0.2-0.1,0.2c0,0-0.1,0-0.1,0c-0.1-0.1-0.2-0.1-0.3-0.1c-0.1,0-0.2-0.1-0.3-0.1c-0.1,0-0.2-0.1-0.3-0.1
		c-0.1,0-0.2-0.1-0.3-0.1c-0.1,0-0.2,0-0.3-0.1c-0.1,0-0.2,0-0.3,0c-0.1,0-0.2,0-0.3,0c0.2,0.1,0.4,0.1,0.6,0.2
		C50.8,173.7,50.9,173.7,51,173.8z"/>
	<path d="M409.5,231.9l-0.1-0.6c0-0.2-0.1-0.4-0.1-0.6c-0.1-0.2-0.1-0.4-0.2-0.6l-0.2-0.6c-0.1-0.2-0.2-0.4-0.3-0.5
		c-0.1-0.2-0.2-0.3-0.4-0.5l-0.2-0.2c-0.1-0.1-0.2-0.1-0.2-0.2c-0.3-0.3-0.7-0.5-1-0.7c-0.2-0.1-0.4-0.2-0.5-0.3
		c-0.2-0.1-0.4-0.2-0.6-0.2c-0.4-0.1-0.8-0.2-1.2-0.3c-0.1,0-0.3-0.1-0.4-0.1c0,0,0,0,0,0c0.1-0.2,0.2-0.5,0.3-0.7
		c0.1-0.3,0.2-0.5,0.2-0.8l0.1-0.4l0-0.4c0-0.1,0-0.3,0-0.4c0-0.1,0-0.3,0-0.4c0-0.3-0.1-0.6-0.1-0.8c0-0.1-0.1-0.3-0.1-0.4
		l-0.1-0.2l-0.1-0.2c-0.1-0.1-0.1-0.3-0.2-0.4l-0.2-0.3l-0.1-0.1l0,0l0,0l0,0l0,0l0,0l-0.2-0.2l-0.3-0.3c-0.2-0.2-0.4-0.4-0.7-0.5
		c-0.2-0.2-0.5-0.2-0.8-0.3c-0.3-0.1-0.6-0.1-0.8-0.2c-0.1,0-0.3,0-0.4,0c-0.1,0-0.3,0-0.4,0c-0.3,0-0.6,0-0.8,0.1
		c-0.3,0.1-0.5,0.1-0.8,0.2c0,0,0,0,0,0c0-0.3-0.1-0.6-0.2-0.9l-0.1-0.4l-0.2-0.4l-0.2-0.4c-0.1-0.1-0.2-0.3-0.3-0.4
		c-0.1-0.1-0.2-0.2-0.3-0.3l-0.2-0.2l-0.2-0.1c-0.1-0.1-0.3-0.2-0.4-0.3l-0.4-0.2c-0.1-0.1-0.3-0.1-0.4-0.2c-0.2,0-0.3-0.1-0.4-0.1
		l-0.4-0.1l-0.2,0l0,0l0,0l0,0l-0.1,0l-0.1,0c-0.3,0-0.6-0.1-0.9,0c-0.2,0-0.3,0-0.5,0l-0.5,0.1c-0.2,0-0.3,0.1-0.5,0.1
		c-0.1,0.1-0.3,0.1-0.4,0.2l-0.4,0.2c-0.1,0.1-0.3,0.2-0.4,0.3c-0.1,0.1-0.2,0.2-0.4,0.3c-0.1,0.1-0.2,0.2-0.3,0.3
		c-0.2,0.2-0.4,0.5-0.6,0.7c-0.1,0.2-0.2,0.3-0.3,0.5c0,0,0,0,0,0c-0.2-0.3-0.4-0.7-0.6-1c-0.1-0.2-0.3-0.3-0.4-0.5
		c-0.1-0.1-0.3-0.3-0.4-0.4c-0.2-0.1-0.3-0.2-0.5-0.4c-0.2-0.1-0.4-0.2-0.5-0.3c-0.2-0.1-0.4-0.2-0.6-0.2l-0.3-0.1
		c-0.1,0-0.2,0-0.3-0.1c-0.2,0-0.4-0.1-0.6-0.1l-0.6,0c-0.2,0-0.4,0.1-0.6,0.1c-0.2,0-0.4,0.1-0.6,0.1l-0.5,0.2l-0.3,0.1l-0.1,0l0,0
		l-0.1,0l-0.1,0.1c-0.4,0.2-0.7,0.3-1.1,0.5l-0.5,0.3l-0.5,0.4l-0.2,0.2c-0.1,0.1-0.1,0.1-0.2,0.2c-0.1,0.1-0.3,0.3-0.4,0.4
		c-0.2,0.3-0.5,0.6-0.7,1l-0.1,0.3l-0.1,0.3c-0.1,0.2-0.2,0.4-0.2,0.6c-0.1,0.4-0.2,0.8-0.3,1.2c0,0.4-0.1,0.8-0.1,1.2
		c0,0.3,0,0.5,0.1,0.8c-0.1,0-0.3,0-0.4,0.1c-0.3,0-0.5,0.1-0.8,0.2c-0.3,0.1-0.5,0.1-0.8,0.2l-0.4,0.1l-0.4,0.2
		c-0.1,0-0.3,0.1-0.4,0.2c-0.1,0.1-0.2,0.1-0.4,0.2c-0.2,0.1-0.3,0.2-0.5,0.4l-2.2-0.5l0,0c0-0.2,0-0.3,0-0.5c0-0.2-0.1-0.3-0.1-0.5
		c-0.1-0.2-0.1-0.3-0.2-0.5c-0.1-0.1-0.2-0.3-0.3-0.4c-0.1-0.1-0.2-0.2-0.4-0.3c-0.1-0.1-0.3-0.2-0.4-0.3c-0.1-0.1-0.3-0.1-0.4-0.2
		l0,0c0.1-0.2,0.2-0.3,0.3-0.5l0.1-0.3l0.1-0.3c0-0.2,0.1-0.4,0.1-0.6c0-0.1,0-0.2,0-0.3c0-0.1,0-0.2,0-0.3c0-0.2-0.1-0.4-0.2-0.5
		c-0.1-0.2-0.2-0.3-0.3-0.5l-0.2-0.2l-0.1-0.1c-0.1-0.1-0.1-0.1-0.1-0.1c-0.1-0.1-0.2-0.3-0.4-0.4c-0.1-0.1-0.1-0.1-0.2-0.2
		l-0.2-0.1c-0.1,0-0.2-0.1-0.3-0.1c-0.1,0-0.2-0.1-0.3-0.1l-0.3-0.1c-0.1,0-0.2,0-0.3,0c-0.2,0-0.4,0-0.6,0c-0.2,0-0.4,0.1-0.5,0.1
		c-0.1,0-0.2,0.1-0.3,0.1c0-0.2,0.1-0.4,0.1-0.6c0-0.1,0-0.2,0-0.4c0-0.1,0-0.2,0-0.4c0-0.2-0.1-0.5-0.2-0.7c0-0.1-0.1-0.2-0.2-0.3
		l-0.1-0.2l-0.1-0.1c-0.2-0.2-0.3-0.4-0.5-0.5c-0.2-0.1-0.4-0.3-0.6-0.4l-0.3-0.2l-0.2-0.1c-0.1,0-0.1,0-0.2,0
		c-0.2-0.1-0.5-0.1-0.7-0.1l-0.4,0l-0.4,0c-0.2,0-0.5,0-0.7,0.1c-0.2,0.1-0.5,0.1-0.7,0.2c-0.1,0-0.2,0.1-0.3,0.2
		c-0.1,0.1-0.2,0.1-0.3,0.2c-0.2,0.1-0.4,0.3-0.6,0.4c-0.2,0.2-0.3,0.3-0.5,0.5c-0.1,0.1-0.2,0.2-0.3,0.4c-0.2-0.1-0.4-0.2-0.6-0.4
		c-0.3-0.1-0.6-0.3-0.9-0.4c-0.2,0-0.3-0.1-0.5-0.1c-0.2,0-0.3,0-0.5,0l-0.3,0c-0.1,0-0.2,0-0.3,0.1c-0.1,0-0.2,0.1-0.2,0.1
		c0,0-0.1,0-0.1,0.1l-0.1,0.1c-0.2,0.1-0.3,0.2-0.4,0.4c-0.1,0.1-0.2,0.3-0.3,0.4c-0.1,0.1-0.1,0.3-0.2,0.5
		c-0.1,0.2-0.1,0.3-0.1,0.5c-0.1,0.6-0.2,1.2-0.2,1.8c-0.1,0-0.3,0.1-0.4,0.1c-0.2,0.1-0.4,0.1-0.6,0.2c-0.2,0.1-0.4,0.1-0.6,0.2
		c-0.2,0.1-0.4,0.2-0.5,0.3c-0.2,0.1-0.3,0.2-0.5,0.4c-0.2,0.1-0.3,0.3-0.4,0.4c0,0,0,0-0.1,0.1l-5.2-1.1l5.1,1.3
		c-0.1,0.1-0.2,0.2-0.2,0.3c-0.1,0.2-0.2,0.4-0.3,0.5c0,0.1-0.1,0.2-0.1,0.3l-7.5-1.9l0.1,0l7.3,2.1c0,0,0,0,0,0.1
		c0,0.2-0.1,0.4-0.1,0.6c0,0.2,0,0.4,0,0.6c0,0.1,0,0.2,0,0.3c0,0.1,0,0.2,0.1,0.2l-9.4-3.1l9.6,3.6c0,0,0,0.1,0,0.1
		c0.1,0.2,0.2,0.4,0.3,0.5c0.1,0.1,0.2,0.2,0.2,0.3c0.1,0.1,0.2,0.2,0.2,0.3c0.1,0.1,0.2,0.2,0.3,0.3c-0.3-0.3-0.5-0.6-0.7-0.9
		c-0.1-0.2-0.2-0.3-0.3-0.5c0,0,0,0,0-0.1l0,0c-0.1-0.1-0.1-0.3-0.2-0.4c0,0,0,0,0-0.1c0-0.2-0.1-0.4-0.1-0.6c0-0.2,0-0.4,0-0.6
		c0-0.2,0.1-0.4,0.1-0.6c0.1-0.2,0.1-0.4,0.2-0.5c0.1-0.2,0.2-0.3,0.3-0.5c0.1-0.2,0.2-0.3,0.4-0.4c0.1-0.1,0.3-0.3,0.4-0.4
		c0.1-0.1,0.3-0.2,0.5-0.3c0.2-0.1,0.3-0.2,0.5-0.3c0.2-0.1,0.4-0.1,0.5-0.2c0.2-0.1,0.4-0.1,0.6-0.2c0.2,0,0.4-0.1,0.6-0.1l0.2,0
		v-0.2c0-0.6,0.1-1.2,0.2-1.8c0-0.1,0.1-0.3,0.1-0.4c0.1-0.1,0.1-0.3,0.2-0.4c0.1-0.1,0.2-0.2,0.2-0.4c0.1-0.1,0.2-0.2,0.3-0.3
		l0.1-0.1l0.1,0c0.1,0,0.2-0.1,0.2-0.1c0.1,0,0.1,0,0.2,0l0.2,0c0.1,0,0.3,0,0.4,0c0.1,0,0.3,0.1,0.4,0.1c0.3,0.1,0.6,0.2,0.8,0.4
		c0.3,0.1,0.5,0.3,0.8,0.5l0.2,0.2l0.2-0.3c0.1-0.2,0.2-0.3,0.4-0.5c0.1-0.2,0.3-0.3,0.4-0.4c0.2-0.1,0.3-0.3,0.5-0.4
		c0.1-0.1,0.2-0.1,0.3-0.1c0.1-0.1,0.2-0.1,0.3-0.1c0.2-0.1,0.4-0.1,0.6-0.2c0.2,0,0.4-0.1,0.6,0l0.3,0l0.3,0.1
		c0.2,0,0.4,0.1,0.6,0.2l0.1,0l0.2,0.1l0.3,0.1c0.1,0,0.2,0.1,0.3,0.2c0.1,0.1,0.2,0.1,0.2,0.2c0.2,0.1,0.3,0.3,0.4,0.4l0,0.2
		l0.1,0.1c0.1,0.1,0.2,0.1,0.2,0.2c0.1,0.2,0.2,0.3,0.2,0.5c0,0.1,0,0.2,0,0.3c0,0.1,0,0.2,0,0.3c0,0.2,0,0.4-0.1,0.6
		c0,0.2-0.1,0.4-0.2,0.6l-0.4,0.8l-0.1,0.2l0,0l0.4-0.3l0.5-0.4c0.1-0.1,0.2-0.2,0.4-0.2c0.1-0.1,0.3-0.1,0.4-0.2
		c0.1,0,0.3-0.1,0.4-0.1c0.1,0,0.3,0,0.4,0c0.1,0,0.1,0,0.2,0l0.2,0c0.1,0,0.1,0,0.2,0.1c0.1,0,0.1,0,0.2,0.1l0.2,0.1l0.2,0.1
		c0.1,0.1,0.2,0.2,0.3,0.3l0.1,0.1l0.1,0.1l0.2,0.2c0.1,0.1,0.1,0.2,0.2,0.4c0.1,0.1,0.1,0.3,0.1,0.4c0,0.1,0,0.1,0,0.2
		c0,0.1,0,0.1,0,0.2c0,0.1,0,0.3,0,0.4l-0.1,0.2l-0.1,0.2c-0.1,0.1-0.1,0.3-0.2,0.4c-0.1,0.1-0.2,0.2-0.3,0.3l-0.4,0.4l0.6,0.2
		c0.1,0,0.2,0.1,0.4,0.1c0.1,0.1,0.2,0.1,0.4,0.2c0.1,0.1,0.2,0.1,0.3,0.2c0.1,0.1,0.2,0.2,0.3,0.3c0.1,0.1,0.2,0.2,0.2,0.3
		c0.1,0.1,0.1,0.2,0.2,0.3c0.1,0.1,0.1,0.2,0.1,0.4c0,0.1,0,0.2,0,0.3l-4.4-1l0.8-0.7l-1.1,0.1c-0.4,0-0.7,0-1.1,0
		c-0.3,0-0.7-0.1-0.9-0.3c-0.3-0.2-0.4-0.4-0.5-0.7c0-0.1-0.1-0.3-0.1-0.5c0-0.1,0-0.2,0-0.2c0-0.1,0-0.2,0-0.2l0.3-1l-0.8,0.6
		c-0.2,0.1-0.3,0.2-0.5,0.3c-0.2,0.1-0.3,0.2-0.5,0.2c-0.2,0.1-0.3,0.1-0.5,0.1c-0.1,0-0.2,0-0.2,0c-0.1,0-0.1,0-0.2-0.1
		c-0.3-0.1-0.5-0.4-0.7-0.7c-0.1-0.2-0.2-0.3-0.3-0.5c0-0.1-0.1-0.2-0.1-0.3c0-0.1-0.1-0.2-0.1-0.3l-0.4-1.6l-0.2,1.6
		c-0.1,0.4-0.2,0.8-0.6,1.1c-0.2,0.1-0.4,0.3-0.6,0.3c-0.1,0-0.2,0.1-0.3,0.1c-0.1,0-0.1,0-0.2,0c-0.1,0-0.1,0-0.2,0l-0.4,0l0.1,0.3
		c0.2,0.4,0.3,0.8,0.4,1.2c0.1,0.4,0.1,0.8,0,1.2c0,0.4-0.2,0.8-0.3,1.2c-0.1,0.2-0.2,0.4-0.3,0.5c-0.1,0.2-0.3,0.3-0.4,0.5
		l-0.1,0.1l0,0c0,0,0,0,0,0l0,0l0,0c0.1,0.1,0.3,0.2,0.4,0.3c0.1,0.1,0.2,0.3,0.3,0.4c0.2,0.3,0.3,0.6,0.3,1c0,0,0-0.1,0-0.2
		c0-0.3-0.1-0.8-0.8-1.5l0,0c0.7,0.6,0.8,1.2,0.8,1.5c0-0.3-0.1-0.6-0.2-0.9c-0.1-0.2-0.2-0.3-0.3-0.4c0,0-0.1-0.1-0.1-0.1l2.1,0.8
		c-0.1,0-0.2,0.1-0.4,0.1c-0.2,0.1-0.4,0.2-0.6,0.3c-0.2,0.1-0.4,0.2-0.6,0.4c0.2-0.1,0.4-0.2,0.6-0.3c0.2-0.1,0.4-0.2,0.6-0.2
		c0.2-0.1,0.4-0.1,0.6-0.1l2.3,0.9c0,0,0,0,0,0c0.1,0.1,0.1,0.2,0.2,0.2c0.1,0.1,0.1,0.2,0.2,0.2l0.4,0.6l0-0.8c0,0,0,0,0-0.1
		l6.9,2.6h0c0,0.1,0,0.1-0.1,0.1l-0.2,0.3l0,0l0,0l0,0l0,0l0,0l0,0l0,0c0,0,0,0.1,0,0.1l0,0l0,0l0,0c0,0,0,0,0,0l0,0l0,0l0,0l0,0
		l-0.1,0.1c-0.1,0.1-0.2,0.2-0.2,0.2l-0.2,0.2c-0.1,0.1-0.2,0.1-0.2,0.1c-0.1,0-0.2,0.1-0.3,0.1c-0.1,0-0.2,0.1-0.3,0.1l-0.3,0
		c-0.2,0-0.4,0-0.6,0c-0.2,0-0.4-0.1-0.6-0.1c-0.2-0.1-0.4-0.1-0.6-0.2c-0.2-0.1-0.4-0.2-0.6-0.3c-0.2-0.1-0.4-0.2-0.5-0.4l-0.3-0.3
		l-0.1,0.4c-0.1,0.2-0.1,0.4-0.2,0.5c-0.1,0.2-0.2,0.4-0.3,0.5c-0.1,0.2-0.2,0.3-0.3,0.5c-0.1,0.2-0.3,0.3-0.4,0.4
		c-0.1,0.1-0.3,0.3-0.4,0.4c-0.2,0.1-0.3,0.2-0.5,0.3c-0.1,0-0.2,0.1-0.3,0.1l-0.3,0.1c-0.2,0.1-0.4,0.1-0.6,0.2
		c-0.2,0-0.4,0.1-0.6,0.1l-0.3,0l-0.3-0.1c-0.1,0-0.2-0.1-0.3-0.1c-0.1,0-0.2-0.1-0.3-0.1c-0.2-0.1-0.3-0.2-0.5-0.3
		c-0.1-0.1-0.3-0.3-0.4-0.4c-0.1-0.1-0.3-0.3-0.4-0.5c-0.1-0.2-0.2-0.3-0.3-0.5c-0.1-0.2-0.2-0.4-0.2-0.5l-0.1-0.2l-0.2,0.1
		c-0.2,0.1-0.5,0.2-0.7,0.3c-0.2,0.1-0.5,0.2-0.8,0.2c-0.3,0.1-0.5,0.1-0.8,0.2l-0.4,0l-0.4,0c-0.1,0-0.3,0-0.4,0
		c-0.1,0-0.3,0-0.4-0.1c-0.3,0-0.5-0.2-0.7-0.3c-0.1-0.1-0.2-0.1-0.3-0.2l-0.2-0.1l-0.1-0.1l-0.3-0.3l-0.2-0.3l-0.1-0.2
		c0,0,0-0.1,0-0.1l-0.1-0.1l-0.3-0.3c-0.1-0.1-0.2-0.2-0.2-0.3c-0.1-0.1-0.1-0.2-0.2-0.4c-0.1-0.3-0.2-0.5-0.2-0.8
		c-0.1-0.3-0.1-0.5-0.1-0.8l0-0.4l0.1-0.4c0.1-0.3,0.1-0.5,0.3-0.8c0.1-0.2,0.2-0.5,0.4-0.7c0.1-0.2,0.3-0.4,0.5-0.6c0,0,0,0,0,0
		c0,0,0,0,0,0c-0.1,0.1-0.1,0.1-0.2,0.2c-0.1,0.1-0.2,0.2-0.3,0.4c0,0,0,0.1-0.1,0.1c0,0.1-0.1,0.1-0.1,0.2c0,0.1-0.1,0.1-0.1,0.2
		c-0.1,0.1-0.1,0.2-0.2,0.3c-0.1,0.2-0.2,0.5-0.3,0.8c0,0.1-0.1,0.3-0.1,0.4l-0.1,0.4c0,0.3,0,0.6,0,0.8c0,0.3,0.1,0.5,0.2,0.8
		c0,0.1,0.1,0.3,0.2,0.4c0.1,0.1,0.1,0.3,0.2,0.4l0.2,0.4l0,0.1c0,0,0,0.1,0.1,0.1l0.1,0.2l0.3,0.3l0.3,0.3l0.2,0.1l0.2,0.1
		c0.1,0.1,0.2,0.2,0.4,0.2c0.3,0.1,0.5,0.3,0.8,0.3c0.1,0,0.3,0.1,0.4,0.1c0.1,0,0.3,0.1,0.4,0.1l0.4,0l0.4,0c0.3,0,0.6-0.1,0.8-0.1
		c0.3-0.1,0.5-0.2,0.8-0.2c0.2-0.1,0.4-0.2,0.6-0.2c0.1,0.1,0.1,0.3,0.2,0.4c0.1,0.2,0.2,0.4,0.3,0.6c0.1,0.2,0.2,0.4,0.4,0.5
		c0.1,0.2,0.3,0.3,0.5,0.5c0.2,0.1,0.4,0.3,0.6,0.4c0.1,0.1,0.2,0.1,0.3,0.1c0.1,0,0.2,0.1,0.3,0.1l0.3,0.1l0.4,0c0.1,0,0.2,0,0.3,0
		l0.3,0c0.2-0.1,0.4-0.1,0.6-0.2l0.3-0.1c0.1,0,0.2-0.1,0.3-0.2c0.2-0.1,0.4-0.2,0.6-0.4c0.2-0.1,0.4-0.3,0.5-0.4
		c0.2-0.2,0.3-0.3,0.5-0.5c0.1-0.2,0.3-0.4,0.4-0.5c0.1-0.2,0.2-0.4,0.3-0.6c0-0.1,0.1-0.2,0.1-0.2c0.1,0.1,0.2,0.1,0.3,0.2
		c0.2,0.1,0.4,0.2,0.6,0.3c0.2,0.1,0.4,0.2,0.7,0.3c0.2,0.1,0.5,0.1,0.7,0.2c0.2,0.1,0.5,0.1,0.7,0.1l0.4,0c0.1,0,0.2-0.1,0.4-0.1
		c0.1,0,0.2-0.1,0.4-0.1c0.1-0.1,0.2-0.1,0.3-0.2l0.3-0.2c0.1-0.1,0.2-0.2,0.2-0.2l0.1-0.1l0.1-0.1l0,0l0,0l0,0l0,0l0,0l0.2-0.3
		c0.1-0.1,0.1-0.2,0.2-0.3l4.4,1.6c-0.1,0.1-0.2,0.2-0.2,0.3c-0.2,0.3-0.4,0.6-0.5,0.9c-0.2,0.3-0.3,0.6-0.5,0.9
		c-0.1,0.2-0.1,0.3-0.2,0.5l-0.2,0.5c-0.1,0.2-0.1,0.3-0.1,0.5c0,0.2-0.1,0.3-0.1,0.5c0,0.2-0.1,0.3-0.1,0.5l0,0.5
		c0,0.2,0,0.3,0,0.5c0,0.2,0,0.3,0,0.5l0.1,0.5c0,0.2,0.1,0.3,0.1,0.5c0.1,0.2,0.1,0.3,0.2,0.5l0.2,0.5c0.1,0.2,0.2,0.3,0.2,0.4
		c0.1,0.1,0.2,0.3,0.3,0.4l0.3,0.4c0.1,0.1,0.2,0.2,0.4,0.4c0.1,0.1,0.2,0.2,0.4,0.3c0.1,0.1,0.3,0.2,0.4,0.3
		c0.1,0.1,0.3,0.2,0.4,0.3l0.4,0.2l0.5,0.2c0.2,0.1,0.3,0.1,0.5,0.2c0.3,0.1,0.6,0.2,1,0.3c0.1,0,0.3,0,0.4,0.1c0.1,0,0.2,0,0.3,0
		c0.1,0,0.2,0,0.3,0c-0.3,0-0.7-0.1-1-0.2c-0.3-0.1-0.6-0.2-0.9-0.3c-0.2-0.1-0.3-0.1-0.5-0.2l-0.4-0.2l-0.4-0.2
		c-0.1-0.1-0.3-0.2-0.4-0.3c-0.1-0.1-0.3-0.2-0.4-0.3c-0.1-0.1-0.2-0.2-0.4-0.3c-0.1-0.1-0.2-0.2-0.3-0.4l-0.3-0.4
		c-0.1-0.1-0.2-0.3-0.3-0.4c-0.1-0.1-0.2-0.3-0.2-0.4l-0.2-0.4c0-0.1,0-0.1-0.1-0.2c0-0.1-0.1-0.2-0.1-0.3c0-0.2-0.1-0.3-0.1-0.5
		l-0.1-0.5c0-0.2,0-0.3,0-0.5c0-0.1,0-0.3,0-0.4c0,0,0,0,0,0l0-0.5c0-0.2,0.1-0.3,0.1-0.5c0-0.2,0.1-0.3,0.1-0.5
		c0-0.2,0.1-0.3,0.1-0.5l0.2-0.5c0.1-0.2,0.1-0.3,0.2-0.4c0.1-0.3,0.3-0.6,0.5-0.8c0.2-0.3,0.4-0.5,0.5-0.8c0.1-0.1,0.2-0.3,0.3-0.4
		c0.1-0.1,0.2-0.2,0.3-0.3l0.2-0.2l-0.1-0.1l-0.1-0.1c-0.2-0.3-0.5-0.6-0.7-0.9c-0.1-0.1-0.2-0.2-0.2-0.3c-0.1-0.2-0.3-0.4-0.4-0.7
		c-0.1-0.2-0.3-0.5-0.4-0.7c-0.1-0.2-0.2-0.5-0.3-0.7c-0.1-0.1-0.1-0.2-0.1-0.4c0-0.1-0.1-0.2-0.1-0.4c0-0.1,0-0.2,0-0.2
		c0,0,0-0.1,0-0.1l0-0.4c0,0,0,0,0-0.1c0-0.2,0-0.3,0.1-0.5c0,0,0-0.1,0-0.1l0-0.2l0.1-0.1l0,0c0.1-0.1,0.1-0.3,0.2-0.3
		c0.1-0.1,0.1-0.2,0.2-0.3l0.1-0.1l0.1-0.1c0.1-0.1,0.2-0.1,0.2-0.2c0.1-0.1,0.2-0.2,0.4-0.3c0,0,0,0,0,0c0.1-0.1,0.2-0.1,0.3-0.2
		c0.1-0.1,0.2-0.1,0.3-0.2l0.4-0.1l0.4-0.1c0.2-0.1,0.5-0.1,0.7-0.2c0.2-0.1,0.5-0.1,0.8-0.1c0.3,0,0.5-0.1,0.8-0.1l0.4,0l-0.1-0.4
		c-0.1-0.3-0.1-0.7-0.1-1c0-0.4,0-0.7,0.1-1.1c0.1-0.3,0.1-0.7,0.3-1c0-0.2,0.1-0.3,0.2-0.5l0.1-0.2l0.1-0.2
		c0.2-0.3,0.4-0.6,0.6-0.8c0.1-0.1,0.3-0.2,0.4-0.4l0.2-0.1l0.3-0.1l0.5-0.2l0.5-0.3c0.1-0.5,0.5-0.5,0.8-0.6l0-0.2v0l0.1,0l0-0.1v0
		c0,0,0,0,0,0c0,0,0,0,0,0l0,0l0,0l0.1,0.1l0.3,0l0.5-0.2c0.1,0,0.2,0,0.3-0.1l0.2,0c0.2,0,0.3-0.1,0.5-0.1l0.5,0
		c0.2,0,0.3,0,0.5,0.1l0.2,0l0.2,0.1c0.2,0.1,0.3,0.1,0.5,0.2c0.1,0.1,0.3,0.1,0.4,0.2c0.1,0.1,0.3,0.2,0.4,0.3
		c0.1,0.1,0.2,0.2,0.4,0.3c0.1,0.1,0.2,0.3,0.3,0.4c0.2,0.3,0.4,0.6,0.6,0.9c0.2,0.3,0.3,0.6,0.4,0.9l0.5,1.6l0.4-1.6
		c0.1-0.2,0.2-0.5,0.3-0.7c0.1-0.2,0.2-0.5,0.4-0.7c0.1-0.2,0.3-0.4,0.5-0.6c0.1-0.1,0.2-0.2,0.3-0.3c0.1-0.1,0.2-0.2,0.3-0.2
		c0.1-0.1,0.2-0.1,0.3-0.2l0.3-0.2c0.1-0.1,0.2-0.1,0.3-0.1c0.1,0,0.1,0,0.2,0c0.1,0,0.1,0,0.2-0.1l0.4-0.1c0.1,0,0.2,0,0.4,0
		c0.2,0,0.5,0,0.8,0l0.1,0l0,0l0,0l0,0l0,0c0,0,0,0,0,0.1l0-0.1l0-0.1l0.2,0l0.4,0.1c0.1,0,0.2,0.1,0.3,0.1c0.1,0,0.2,0.1,0.3,0.1
		l0.3,0.2c0.1,0.1,0.2,0.1,0.3,0.2l0.1,0.1l0.1,0.1c0.1,0.1,0.2,0.2,0.2,0.3c0.1,0.1,0.2,0.2,0.2,0.3l0.2,0.3l0.1,0.3l0.1,0.4
		c0.1,0.2,0.1,0.5,0.1,0.7c0,0.2,0,0.5,0,0.7l-0.1,0.9l0.8-0.4c0.2-0.1,0.4-0.2,0.6-0.2c0.2-0.1,0.4-0.1,0.7-0.2
		c0.2,0,0.5-0.1,0.7-0.1c0.1,0,0.2,0,0.3,0c0.1,0,0.2,0,0.3,0c0.2,0,0.4,0.1,0.6,0.1c0.2,0.1,0.4,0.1,0.6,0.3
		c0.2,0.1,0.3,0.2,0.5,0.4l0.2,0.2l0.1,0.1l0.1,0.1l0.2,0.3l0,0c0.1,0.1,0.1,0.2,0.2,0.2l0.1,0.1l0,0.2c0,0.1,0.1,0.2,0.1,0.3
		c0,0.1,0,0.2,0.1,0.2c0,0.1,0,0.1,0,0.2c0,0.1,0,0.1,0,0.2c0,0.1,0,0.2,0,0.3c0,0.1,0,0.2,0,0.3l0,0.3l-0.1,0.3
		c0,0.2-0.1,0.4-0.2,0.7c-0.1,0.2-0.2,0.4-0.2,0.7c-0.1,0.2-0.2,0.4-0.3,0.6l-0.5,0.8l0.9,0c0.3,0,0.7,0.1,1,0.1
		c0.3,0.1,0.7,0.2,1,0.3c0.2,0.1,0.3,0.1,0.5,0.2c0.2,0.1,0.3,0.2,0.5,0.2c0.3,0.2,0.6,0.4,0.8,0.6c0.1,0.1,0.1,0.1,0.2,0.2l0.2,0.2
		c0.1,0.1,0.2,0.2,0.3,0.4c0.1,0.1,0.2,0.3,0.3,0.4l0.2,0.5c0.1,0.2,0.1,0.3,0.1,0.5c0,0.2,0.1,0.3,0.1,0.5l0.1,0.5l0,0.1l0,0.1
		l0,0.3c0,0.2,0,0.4-0.1,0.6c0,0.1-0.1,0.3-0.1,0.4c-0.1,0.3-0.2,0.6-0.4,0.9c-0.4,0.6-0.9,1-1.5,1.4c-0.6,0.3-1.3,0.6-2,0.8
		c-0.3,0.1-0.7,0.2-1.1,0.2c-0.4,0.1-0.7,0.1-1.1,0.1l-0.7,0l0.2,0.6c0.1,0.3,0.2,0.6,0.3,1c0.1,0.3,0.1,0.7,0.2,1
		c0,0.3,0.1,0.7,0.1,1c0,0.2,0,0.3,0,0.5c0,0.2,0,0.3,0,0.5c0,0.3-0.1,0.7-0.2,1c0,0.2-0.1,0.3-0.1,0.5l-0.1,0.2l-0.1,0.2
		c-0.1,0.2-0.1,0.3-0.2,0.5l-0.2,0.4c-0.1,0.2-0.2,0.3-0.3,0.4l-0.3,0.4l-0.3,0.4l-0.2,0.2c-0.1,0.1-0.1,0.1-0.2,0.2l-0.4,0.3
		l-0.4,0.2c-0.1,0.1-0.3,0.1-0.5,0.2c-0.2,0.1-0.3,0.1-0.5,0.1c-0.2,0-0.3,0.1-0.5,0.1l-0.5,0c-0.3,0-0.7,0-1-0.1
		c-0.2,0-0.3-0.1-0.5-0.1c-0.2,0-0.3-0.1-0.5-0.1c-0.2,0-0.3-0.1-0.5-0.2c-0.2-0.1-0.3-0.1-0.5-0.2c-0.3-0.1-0.6-0.3-0.9-0.5
		l-0.3-0.2l-0.1,0.4c-0.2,0.4-0.4,0.8-0.6,1.2c-0.2,0.4-0.5,0.8-0.7,1.1c-0.3,0.4-0.5,0.7-0.8,1c-0.3,0.3-0.6,0.6-1,0.9
		c-0.7,0.5-1.5,0.9-2.4,1.1c-0.4,0.1-0.9,0.2-1.3,0.1c-0.2,0-0.4,0-0.7,0c-0.2,0-0.4-0.1-0.7-0.1l-0.3-0.1c-0.1,0-0.1,0-0.2,0
		l-0.2-0.1l-0.7-0.2c-0.2-0.1-0.4-0.2-0.6-0.3c-0.2-0.1-0.4-0.2-0.6-0.3c-0.4-0.3-0.8-0.5-1.1-0.8c-0.2-0.2-0.4-0.4-0.6-0.6
		c-0.1-0.1-0.2-0.3-0.4-0.4l-0.4-0.6c-0.1-0.2-0.2-0.4-0.3-0.6c-0.2-0.4-0.4-0.8-0.5-1.3c-0.1-0.2-0.1-0.4-0.2-0.7
		c0-0.2-0.1-0.5-0.1-0.7c0-0.2-0.1-0.5-0.1-0.7c0-0.2,0-0.5,0-0.7c0,0.1,0,0.3,0,0.4c0,0.1,0,0.3,0,0.4c0,0.2,0,0.4,0,0.5
		c0,0.2,0.1,0.5,0.1,0.7c0,0.2,0.1,0.5,0.1,0.7c0.1,0.5,0.3,0.9,0.5,1.3c0.1,0.2,0.2,0.4,0.3,0.6l0.4,0.6c0.3,0.4,0.6,0.7,0.9,1
		c0.3,0.3,0.7,0.6,1.1,0.9c0.2,0.1,0.4,0.2,0.6,0.3c0.2,0.1,0.4,0.2,0.6,0.3l0.6,0.2l0.2,0.1c0.1,0,0.1,0,0.2,0.1l0.3,0.1
		c0.2,0.1,0.5,0.1,0.7,0.1c0.2,0,0.5,0.1,0.7,0.1c0.5,0,1,0,1.4-0.1c0.9-0.2,1.8-0.6,2.6-1.2c0.8-0.6,1.4-1.3,2-2
		c0.3-0.4,0.5-0.8,0.8-1.2c0.2-0.3,0.3-0.6,0.5-0.9c0.2,0.1,0.4,0.2,0.7,0.3c0.2,0.1,0.3,0.1,0.5,0.2c0.2,0.1,0.3,0.1,0.5,0.2
		c0.2,0.1,0.4,0.1,0.5,0.2c0.2,0,0.4,0.1,0.5,0.1c0.4,0.1,0.7,0.1,1.1,0.1l0.6,0c0.2,0,0.4-0.1,0.6-0.1c0.2,0,0.4-0.1,0.6-0.2
		c0.2-0.1,0.4-0.1,0.5-0.2l0.5-0.3c0.2-0.1,0.3-0.2,0.5-0.4c0.1-0.1,0.2-0.1,0.2-0.2l0.2-0.2l0.4-0.4l0.3-0.5
		c0.1-0.2,0.2-0.3,0.3-0.5l0.3-0.5c0.1-0.2,0.1-0.3,0.2-0.5l0.1-0.3l0.1-0.3c0.1-0.2,0.1-0.4,0.2-0.5c0.1-0.4,0.2-0.7,0.2-1.1
		c0-0.2,0-0.4,0-0.6c0-0.2,0-0.4,0-0.6c0-0.4,0-0.8-0.1-1.1c0-0.4-0.1-0.7-0.2-1.1c0-0.2-0.1-0.3-0.1-0.5c0.2,0,0.4,0,0.6-0.1
		c0.4-0.1,0.8-0.1,1.2-0.2c0.8-0.2,1.5-0.5,2.2-0.9c0.7-0.4,1.4-1,1.8-1.7c0.2-0.4,0.4-0.7,0.5-1.1c0.1-0.4,0.2-0.8,0.2-1.3l0-0.3
		v-0.1C409.5,232,409.5,232,409.5,231.9z M350.3,220.6C350.3,220.6,350.3,220.6,350.3,220.6C350.3,220.6,350.3,220.6,350.3,220.6
		c0.6-1.8,2.5-2.4,3.3-2.6C352.8,218.1,350.9,218.8,350.3,220.6z M358.9,214.9C358.9,214.9,358.8,214.9,358.9,214.9
		C358.8,214.9,358.9,214.9,358.9,214.9C358.9,214.9,358.9,214.9,358.9,214.9C358.9,214.9,358.9,214.9,358.9,214.9z M365.1,217.3
		C365.1,217.3,365.1,217.3,365.1,217.3l0.2,0.2L365.1,217.3z M368.9,217.9c-1.2-1.3-2.6-0.9-3.2-0.6
		C366.4,217,367.7,216.6,368.9,217.9c0.3,0.4,0.5,0.8,0.6,1.1C369.4,218.7,369.3,218.3,368.9,217.9z M369.1,221.1
		c0.2-0.3,0.6-1,0.5-1.7C369.7,220.1,369.3,220.7,369.1,221.1z M357.6,220.9C357.6,220.9,357.6,220.9,357.6,220.9
		C357.6,220.9,357.6,220.9,357.6,220.9L357.6,220.9z M352.2,231.6c1.4,0.8,3.2,0.4,4.1,0.1C355.2,232.1,353.6,232.5,352.2,231.6z
		 M356.6,231.6c0.1,0,0.1,0,0.1-0.1c0,0,0,0,0,0l0.1,0c0,0,0,0,0,0C356.8,231.5,356.7,231.5,356.6,231.6z M357.1,231.6L357.1,231.6
		c-0.1-0.1-0.1-0.2-0.1-0.2s-0.1,0-0.2,0.1l0,0c0.1,0,0.2-0.1,0.2-0.1S357,231.4,357.1,231.6L357.1,231.6L357.1,231.6z M364.6,230.9
		C364.6,230.9,364.6,230.9,364.6,230.9C364.7,230.9,364.7,230.9,364.6,230.9C364.7,230.9,364.7,230.9,364.6,230.9z M365.9,222.6
		l0,0.1l0,0L365.9,222.6L365.9,222.6z M365.6,223.4c0.1-0.1,0.1-0.2,0.2-0.2l4.7,1.2c0,0.1-0.1,0.1-0.1,0.2
		c-0.1,0.1-0.1,0.2-0.2,0.3c-0.1,0.1-0.2,0.2-0.2,0.3c-0.1,0.1-0.2,0.2-0.3,0.3c0,0,0,0,0,0l-4.4-1.1c0-0.1,0-0.2,0-0.2
		C365.4,223.9,365.5,223.6,365.6,223.4z M369.1,226.2c0,0-0.1,0-0.1,0l0,0.2l0-0.2C369,226.3,369,226.3,369.1,226.2L369.1,226.2z
		 M365.8,225.6L365.8,225.6C365.8,225.6,365.8,225.6,365.8,225.6C365.8,225.6,365.8,225.6,365.8,225.6z M365.1,223
		C365.1,223,365.1,223,365.1,223c-0.2,0.3-0.4,0.7-0.4,1c0,0.1,0,0.1,0,0.2l-6.6-1.7c0-0.3,0-0.5,0-0.8c0-0.2-0.1-0.4-0.1-0.5
		L365.1,223z M362.7,220.4C362.7,220.4,362.7,220.3,362.7,220.4c0-0.1,0-0.2,0.1-0.4C362.7,220.1,362.7,220.2,362.7,220.4
		C362.7,220.3,362.7,220.4,362.7,220.4c-0.4,0.3-0.8,0.4-1.2,0.4C361.8,220.7,362.2,220.6,362.7,220.4z M357.9,220.8
		c0.1,0,0.3-0.1,0.4-0.1c0.3-0.1,0.5-0.2,0.7-0.4c0.2-0.2,0.4-0.4,0.5-0.6c0.1,0.1,0.1,0.2,0.2,0.3c0.2,0.4,0.6,0.7,1,0.9
		c0.1,0,0.2,0.1,0.3,0.1c0.1,0,0.2,0,0.4,0c0.2,0,0.5,0,0.7-0.1c0.2-0.1,0.4-0.1,0.5-0.2c0,0.2,0,0.4,0.1,0.5
		c0.1,0.3,0.2,0.5,0.4,0.7l-5.3-1.2C357.8,220.9,357.8,220.8,357.9,220.8C357.8,220.8,357.9,220.8,357.9,220.8z M357.7,221.2
		c0.1,0.5,0.2,0.9,0.2,1.3l0,0C357.9,222.1,357.8,221.7,357.7,221.2z M357,224.9c0.3-0.4,0.7-1,0.8-1.9h0
		C357.7,223.9,357.4,224.5,357,224.9L357,224.9z M362.4,226.7l-5.2-1.7c0.1-0.2,0.3-0.3,0.4-0.5c0.2-0.4,0.4-0.8,0.5-1.3
		c0,0,0,0,0-0.1l6.9,2c0,0,0,0.1,0,0.1c0.1,0.1,0.2,0.2,0.2,0.3c-0.2,0-0.3,0.1-0.5,0.1c-0.4,0.1-0.8,0.2-1.1,0.3
		c-0.4,0.2-0.7,0.3-1,0.6C362.5,226.6,362.4,226.6,362.4,226.7z M365.4,225.7c0.1,0.1,0.2,0.1,0.2,0.2
		C365.6,225.8,365.5,225.8,365.4,225.7c-0.7,0.1-2,0.3-2.7,1C363.5,226,364.8,225.8,365.4,225.7z M369.8,229.1l-6.9-2.3
		c0.2-0.2,0.5-0.4,0.8-0.5c0.3-0.1,0.7-0.2,1-0.3c0.2,0,0.4-0.1,0.5-0.1c0.2,0,0.4,0,0.5-0.1l0.7,0l-0.6-0.5c0,0-0.1-0.1-0.1-0.1
		l2.6,0.8l-0.4,0.1l0.4,0.4c0.1,0.1,0.3,0.3,0.4,0.4c0.1,0.2,0.2,0.3,0.4,0.5c0.2,0.4,0.4,0.7,0.4,1.1c0,0.1,0,0.2,0,0.3
		C369.8,229,369.8,229.1,369.8,229.1z M373,229.3c0.1,0.2,0.3,0.5,0.4,0.7c0.1,0.1,0.2,0.3,0.3,0.4l-3.2-1.1c0-0.1,0-0.2,0-0.3
		c0-0.1,0-0.3,0-0.4c-0.1-0.5-0.2-1-0.5-1.4c-0.1-0.2-0.3-0.4-0.4-0.6c0-0.1-0.1-0.1-0.1-0.2c0.1,0,0.1-0.1,0.2-0.1l2.8,0.8l0,0.1
		c0,0.1,0.1,0.3,0.1,0.4c0,0.1,0.1,0.3,0.1,0.4c0,0.1,0.1,0.3,0.1,0.4C372.8,228.8,372.9,229,373,229.3z M372.8,225.2
		c-0.1,0.1-0.1,0.2-0.2,0.4l0,0.1l0,0l0,0l0,0c0,0,0,0,0,0v0l0,0l-0.1,0.2c0,0,0,0.1,0,0.1l-1.9-0.5c0.1-0.1,0.2-0.2,0.3-0.4
		c0.1-0.1,0.2-0.3,0.3-0.4c0-0.1,0.1-0.2,0.1-0.2c0,0,0-0.1,0-0.1l1.7,0.4C372.9,225,372.8,225.1,372.8,225.2z M397.9,219.8
		L397.9,219.8c-0.1,0-0.2,0.1-0.2,0.1C397.8,219.8,397.9,219.8,397.9,219.8c0-0.4-0.1-1.1-0.4-1.7
		C397.8,218.7,397.9,219.3,397.9,219.8L397.9,219.8z M398.5,220.1C398.5,220.1,398.5,220.1,398.5,220.1c1-0.4,3.3-0.8,4.8,1
		C401.7,219.3,399.5,219.8,398.5,220.1z M393.4,246.4C393.4,246.4,393.4,246.4,393.4,246.4C393.4,246.4,393.4,246.4,393.4,246.4
		c0.1-0.2,0.1-0.3,0.1-0.3S393.4,246.3,393.4,246.4z M402.6,237.3l-0.2,0.3L402.6,237.3c0,0,0.1,0,0.2,0
		C402.7,237.3,402.7,237.3,402.6,237.3z"/>
	<path d="M383.6,226.9c-0.1-0.1-0.3-0.2-0.4-0.2l-1.9-1.3l1.2,1.9c0.1,0.2,0.2,0.3,0.3,0.5c0.1,0.2,0.1,0.3,0.2,0.5
		c0,0.2,0.1,0.4,0.1,0.5c0,0.2,0,0.4,0,0.5c-0.1,0.4-0.2,0.7-0.4,1.1c-0.1,0.2-0.2,0.3-0.3,0.5c-0.1,0.1-0.1,0.2-0.2,0.2
		c-0.1,0.1-0.1,0.2-0.2,0.2l-0.4,0.4l0.5,0.2c0.3,0.2,0.6,0.3,0.9,0.5c0.1,0.1,0.3,0.2,0.4,0.3c0.1,0.1,0.3,0.2,0.4,0.3
		c0.3,0.2,0.5,0.5,0.8,0.7c0.1,0.1,0.2,0.3,0.3,0.4c0.1,0.1,0.2,0.3,0.3,0.4c0.4,0.6,0.7,1.2,0.8,1.9c0.1,0.3,0.1,0.7,0.2,1
		c0,0.4,0,0.7,0,1.1l0,0.2l0.2,0l0.4,0c0.1,0,0.3,0,0.4,0c0.1,0,0.3,0,0.4,0.1c0.1,0,0.3,0.1,0.4,0.1c0.1,0,0.2,0.1,0.3,0.1
		c0,0,0.1,0,0.1,0.1c0.1,0.1,0.3,0.1,0.4,0.2c0.2,0.1,0.3,0.2,0.4,0.4c0.1,0.1,0.1,0.1,0.2,0.2c0,0,0,0,0,0c0,0,0-0.1,0-0.1
		c0,0-0.1-0.1-0.1-0.1c0-0.1-0.1-0.1-0.2-0.2c-0.1-0.1-0.2-0.2-0.3-0.3c-0.1-0.1-0.2-0.2-0.4-0.2c-0.1-0.1-0.3-0.1-0.4-0.2
		c-0.1-0.1-0.3-0.1-0.4-0.1c-0.1,0-0.3-0.1-0.4-0.1c-0.1,0-0.3,0-0.4-0.1l-0.3,0l-0.1,0c0,0,0,0,0,0l0.1,0.1c0,0,0,0,0,0
		c0,0,0,0,0,0l0,0l-0.1-0.1c0,0,0,0,0,0l0.1,0c0.1-0.3,0.1-0.6,0.1-1c0-0.4,0-0.8-0.1-1.1c-0.1-0.7-0.4-1.5-0.8-2.1
		c-0.1-0.2-0.2-0.3-0.3-0.5c-0.1-0.2-0.2-0.3-0.3-0.5c-0.2-0.3-0.5-0.6-0.8-0.8c-0.1-0.1-0.3-0.3-0.4-0.4c-0.1-0.1-0.3-0.2-0.5-0.3
		c-0.2-0.1-0.4-0.2-0.5-0.3c0,0,0.1-0.1,0.1-0.1c0.1-0.2,0.3-0.4,0.4-0.6c0.2-0.4,0.4-0.8,0.5-1.3c0.1-0.5,0.1-0.9,0-1.4
		c0,0,0,0,0,0c0,0,0,0,0,0c0,0,0,0,0,0c0.2,0.1,0.5,0.2,0.7,0.3c0.4,0.1,0.7,0.2,1.1,0.2c0.2,0,0.4,0,0.6,0c0.2,0,0.4-0.1,0.6-0.1
		c0.2-0.1,0.4-0.1,0.6-0.2c0.1,0,0.2-0.1,0.3-0.2c0.1-0.1,0.2-0.1,0.2-0.2c0.2-0.1,0.3-0.3,0.4-0.4c0.1-0.2,0.2-0.3,0.3-0.5
		c0.1-0.2,0.2-0.3,0.3-0.5c0.1-0.1,0.1-0.3,0.2-0.4c0,0,0,0-0.1-0.1c0,0,0,0,0.1,0.1c0,0,0-0.1,0-0.1c0,0,0,0.1,0,0.1
		c0.2,0.3,0.5,0.5,0.8,0.7c0.3,0.2,0.7,0.4,1.1,0.5c0.4,0.1,0.8,0.1,1.2,0.1c0.2,0,0.4-0.1,0.6-0.1c0.2-0.1,0.4-0.1,0.5-0.2
		c0.2-0.1,0.3-0.2,0.5-0.2c0.2-0.1,0.3-0.2,0.5-0.3c0.1-0.1,0.3-0.2,0.4-0.3c0.1,0,0.1-0.1,0.2-0.1c0,0.1,0,0.3,0,0.4
		c0.1,0.6,0.2,1.2,0.6,1.7c0.1,0.1,0.2,0.3,0.3,0.4c0.1,0.1,0.2,0.2,0.4,0.3c0.1,0.1,0.3,0.2,0.4,0.3c0.1,0.1,0.3,0.1,0.4,0.2
		c0.2,0.1,0.5,0.1,0.7,0.1c-0.2,0.2-0.4,0.5-0.6,0.7c-0.4,0.5-0.8,1.1-1.1,1.7c-0.3,0.6-0.6,1.2-0.6,1.9c0,0.4,0,0.7,0.1,1.1
		c0,0.1,0.1,0.2,0.1,0.3c-0.1,0-0.3,0-0.4,0c-0.4,0-0.8,0-1.2,0.1c-0.4,0.1-0.8,0.2-1.1,0.3c-0.2,0.1-0.4,0.2-0.5,0.3
		c-0.2,0.1-0.3,0.2-0.5,0.3c-0.6,0.5-1.1,1.1-1.5,1.8c-0.1,0.2-0.2,0.3-0.3,0.5c-0.1,0.2-0.1,0.4-0.2,0.5l-0.2,0.5l-0.2,0.6
		c1.4-4.9,5-4.7,6.3-4.5c0.2,0,0.3,0.1,0.4,0.1l0,0c-0.1,0-0.2-0.1-0.4-0.1c-1.3-0.2-4.9-0.4-6.3,4.5l0.2-0.5l0.2-0.5
		c0.1-0.2,0.2-0.3,0.3-0.5c0.1-0.2,0.2-0.3,0.3-0.5c0.4-0.6,0.9-1.2,1.6-1.6c0.2-0.1,0.3-0.2,0.5-0.3c0.2-0.1,0.3-0.1,0.5-0.2
		c0.3-0.1,0.7-0.2,1.1-0.2c0.4,0,0.7,0,1.1,0c0.2,0,0.4,0,0.5,0.1c0.2,0,0.4,0.1,0.5,0.1l1.2,0.4l-0.9-0.9c-0.4-0.4-0.5-0.9-0.4-1.5
		c0.1-0.6,0.3-1.1,0.6-1.7c0.3-0.5,0.6-1,1-1.5c0.2-0.2,0.4-0.5,0.6-0.7c0.2-0.2,0.4-0.5,0.6-0.7l0.8-0.8l-1.1,0c-0.2,0-0.5,0-0.7,0
		c-0.2,0-0.5-0.1-0.7-0.2c-0.4-0.2-0.7-0.4-1-0.8c-0.2-0.4-0.3-0.8-0.4-1.3c0-0.2,0-0.5,0-0.7c0-0.1,0-0.2,0-0.4
		c0-0.1,0-0.2,0.1-0.3l0.3-1.6l-1.2,1.1c-0.2,0.2-0.5,0.4-0.7,0.6c-0.1,0.1-0.2,0.2-0.4,0.3c-0.1,0.1-0.3,0.2-0.4,0.3
		c-0.1,0.1-0.3,0.2-0.4,0.2c-0.1,0.1-0.3,0.1-0.4,0.2c-0.1,0.1-0.3,0.1-0.4,0.1c-0.1,0-0.3,0.1-0.4,0.1c-0.3,0-0.5,0-0.8,0
		c-0.2-0.1-0.5-0.2-0.7-0.3c-0.2-0.1-0.4-0.3-0.6-0.6c-0.1-0.1-0.2-0.2-0.3-0.3c-0.1-0.1-0.2-0.3-0.2-0.3l-0.6-1.4l-0.4,1.5
		l-0.1,0.5l-0.1,0.4c-0.1,0.1-0.1,0.3-0.2,0.4c-0.1,0.1-0.1,0.3-0.2,0.4c-0.1,0.1-0.2,0.2-0.3,0.3c-0.1,0.1-0.2,0.2-0.3,0.3
		c0,0-0.1,0.1-0.2,0.1c-0.1,0-0.1,0.1-0.2,0.1c-0.1,0.1-0.2,0.1-0.4,0.2c-0.1,0-0.3,0.1-0.4,0.1c-0.1,0-0.3,0-0.4,0
		c-0.3,0-0.6-0.1-0.9-0.2c-0.3-0.1-0.6-0.2-0.9-0.3C383.9,227.1,383.8,227,383.6,226.9z M382.6,231.8c-0.1,0-0.2-0.1-0.3-0.1
		C382.4,231.7,382.5,231.8,382.6,231.8c0,0,0.1,0,0.1,0.1C382.6,231.9,382.6,231.9,382.6,231.8z M383.1,227.8
		c-0.2-0.1-0.3-0.2-0.5-0.3C382.8,227.6,383,227.7,383.1,227.8c0.1,0,0.1,0.1,0.2,0.1C383.3,227.8,383.2,227.8,383.1,227.8z
		 M383.7,227.5c-0.3-0.2-0.6-0.3-0.7-0.4C383.1,227.2,383.4,227.4,383.7,227.5L383.7,227.5L383.7,227.5c0.1,0.2,0.1,0.4,0.2,0.6
		C383.8,227.9,383.8,227.7,383.7,227.5z M398.6,229.3c-0.1,0.1-0.2,0.2-0.3,0.3h0l0,0C398.4,229.5,398.5,229.3,398.6,229.3z
		 M398.1,229.2c-2.5-0.1-2.7-2.2-2.7-3.4c0-0.3,0-0.5,0.1-0.6c0,0.1,0,0.4-0.1,0.6C395.3,226.9,395.6,229,398.1,229.2z M395.5,225
		c0,0-0.1,0.1-0.1,0.1v0C395.4,225,395.4,225,395.5,225z M394.9,225.3c0-0.1,0-0.3,0.1-0.4C394.9,225,394.9,225.1,394.9,225.3
		c0,0.1,0,0.1,0,0.2C394.9,225.4,394.9,225.4,394.9,225.3z M394.3,225.9c-2.6,1.9-4.2,0.6-4.9-0.3
		C390.1,226.5,391.7,227.9,394.3,225.9z M388.9,225.7c0.1-0.2,0.1-0.4,0.2-0.6C389,225.3,388.9,225.5,388.9,225.7
		C388.9,225.7,388.8,225.7,388.9,225.7C388.8,225.7,388.9,225.7,388.9,225.7z"/>
	<path d="M379.4,251.3c-0.3-0.3-0.5-0.6-0.7-0.9c-0.1-0.2-0.2-0.3-0.3-0.5c-0.1-0.2-0.2-0.3-0.3-0.5c-0.4-0.7-0.7-1.4-0.9-2.1
		l-0.1-0.3l0-0.3c0-0.2,0-0.4-0.1-0.6c0-0.2,0-0.4,0-0.6c0-0.2,0-0.4,0-0.6l0-0.2l-0.2,0c-0.1,0-0.3,0-0.4-0.1
		c-0.1,0-0.3-0.1-0.4-0.1c-0.1,0-0.3-0.1-0.4-0.1c-0.1,0-0.3-0.1-0.4-0.1c-0.1,0-0.3-0.1-0.4-0.1c-0.1,0-0.3-0.1-0.4-0.2
		c-0.1-0.1-0.2-0.1-0.4-0.2c-0.1-0.1-0.2-0.1-0.4-0.2l-0.3-0.2l-0.3-0.2c-0.1-0.1-0.2-0.2-0.3-0.3c-0.1-0.1-0.2-0.2-0.3-0.3
		l-0.3-0.3c-0.1-0.1-0.2-0.2-0.3-0.3l-0.1-0.2l-0.1-0.2l-0.2-0.4l0.2,0.4l0.1,0.2l0.1,0.2c0.1,0.1,0.1,0.2,0.2,0.4l0.3,0.3
		c0.1,0.1,0.2,0.2,0.3,0.3c0.1,0.1,0.2,0.2,0.3,0.3l0.3,0.3l0.3,0.3c0.1,0.1,0.2,0.2,0.4,0.2c0.1,0.1,0.2,0.1,0.4,0.2
		c0.1,0.1,0.3,0.1,0.4,0.2c0.1,0.1,0.3,0.1,0.4,0.2c0.1,0,0.3,0.1,0.4,0.2c0.1,0,0.3,0.1,0.4,0.1c0.1,0,0.3,0.1,0.4,0.1
		c0.1,0,0.1,0,0.2,0c0,0.1,0,0.3,0,0.4c0,0.2,0,0.4,0,0.6c0,0.2,0,0.4,0.1,0.6l0.1,0.3l0.1,0.3c0.2,0.8,0.5,1.5,1,2.2
		c0.1,0.2,0.2,0.3,0.3,0.5c0.1,0.2,0.2,0.3,0.4,0.5c0.2,0.3,0.5,0.6,0.8,0.9c0.3,0.3,0.6,0.6,0.9,0.8c0.3,0.3,0.6,0.5,1,0.7
		c-0.3-0.3-0.6-0.5-0.9-0.8C379.9,251.8,379.7,251.5,379.4,251.3z"/>
	<path d="M380.6,220.2c0.1-0.1,0.2-0.2,0.2-0.3c0.1-0.1,0.2-0.2,0.3-0.3c0.1-0.1,0.2-0.2,0.3-0.3c0.1-0.1,0.3-0.2,0.4-0.3
		c0.1,0,0.1-0.1,0.2-0.1c0.1,0,0.1-0.1,0.2-0.1c0.1-0.1,0.3-0.1,0.4-0.2c0,0,0.1,0,0.1,0c0,0,0.1,0,0.1,0c0.1,0,0.1,0,0.2-0.1
		c0.1,0,0.3-0.1,0.4-0.1c0.1,0,0.2-0.1,0.3,0c0.1,0,0.2,0,0.3,0c0.2,0,0.2,0,0.2,0s-0.1,0-0.2-0.1c-0.1,0-0.2,0-0.3-0.1
		c-0.1,0-0.2,0-0.4,0c-0.1,0-0.3,0-0.4,0c-0.2,0-0.3,0-0.5,0.1c-0.2,0.1-0.4,0.1-0.5,0.2c-0.1,0-0.2,0.1-0.3,0.1
		c-0.1,0-0.2,0.1-0.2,0.2c-0.2,0.1-0.3,0.2-0.4,0.3c-0.1,0.1-0.1,0.1-0.2,0.2c-0.1,0.1-0.1,0.1-0.2,0.2c-0.1,0.1-0.2,0.3-0.3,0.4
		c-0.1,0.1-0.1,0.3-0.2,0.4c-0.1,0.2-0.2,0.5-0.2,0.6c0,0.2,0,0.2,0,0.2s0-0.1,0.1-0.2C380.4,220.6,380.5,220.4,380.6,220.2z"/>
	<path d="M357.3,235.3c0.1,0.1,0.2,0.2,0.4,0.3c0.1,0.1,0.3,0.2,0.5,0.3c0.2,0.1,0.4,0.2,0.6,0.2c0.2,0.1,0.4,0.1,0.6,0.1
		c0.2,0,0.4,0,0.6,0c0.2,0,0.4-0.1,0.6-0.2c0.2-0.1,0.4-0.2,0.5-0.2c0.2-0.1,0.3-0.2,0.4-0.3c0.3-0.2,0.4-0.4,0.6-0.5
		c0.1-0.1,0.2-0.2,0.2-0.2s-0.3,0.2-0.9,0.5c-0.3,0.1-0.6,0.2-0.9,0.3c-0.2,0-0.4,0.1-0.5,0.1c-0.2,0-0.4,0-0.6,0
		c-0.2,0-0.4,0-0.5-0.1c-0.2,0-0.3-0.1-0.5-0.2c-0.2-0.1-0.3-0.2-0.5-0.2c-0.1,0-0.1-0.1-0.2-0.1c-0.1,0-0.1-0.1-0.2-0.1
		c-0.2-0.2-0.4-0.3-0.6-0.4c-0.1-0.1-0.2-0.2-0.2-0.2s0,0.1,0.1,0.2c0,0.1,0.1,0.2,0.2,0.3C357.1,235.1,357.2,235.2,357.3,235.3z"/>
	<path d="M366.9,215.5l0.3,0c0.2,0,0.4,0,0.6,0c0.1,0,0.2,0,0.3,0c0.1,0,0.2,0,0.3,0c0.1,0,0.2,0,0.3,0c0.1,0,0.2,0,0.3,0.1
		c0.2,0,0.4,0.1,0.6,0.1c-0.1-0.1-0.2-0.1-0.3-0.2c-0.1-0.1-0.2-0.1-0.3-0.1c-0.1,0-0.2-0.1-0.3-0.1c-0.1,0-0.2-0.1-0.3-0.1
		c-0.1,0-0.2-0.1-0.3-0.1c-0.1,0-0.2,0-0.3-0.1c-0.1,0-0.2,0-0.3,0c0,0-0.1,0-0.1,0c0-0.1,0-0.2,0-0.3c0-0.2,0-0.3,0-0.5
		c0-0.2,0-0.3-0.1-0.5c0-0.2-0.1-0.3-0.1-0.5c0-0.1-0.1-0.2-0.1-0.2c0-0.1-0.1-0.2-0.1-0.2c0-0.1-0.1-0.1-0.1-0.2
		c0-0.1-0.1-0.1-0.2-0.2c0-0.1-0.1-0.1-0.2-0.2l-0.1-0.1l-0.1-0.1c-0.1,0-0.1-0.1-0.2-0.1l-0.2-0.1l0.2,0.1c0.1,0,0.1,0.1,0.2,0.2
		l0.1,0.1l0.1,0.1c0,0.1,0.1,0.1,0.1,0.2c0,0.1,0.1,0.1,0.1,0.2c0,0.1,0.1,0.1,0.1,0.2c0,0.1,0,0.1,0.1,0.2c0,0.1,0,0.1,0.1,0.2
		c0,0.1,0.1,0.3,0.1,0.4c0,0.1,0,0.3,0,0.4c0,0.2,0,0.3,0,0.5c0,0.1,0,0.3,0,0.4L366.9,215.5z"/>
	<path d="M83.1,309.9l-3.7-7.9l-4,7.8l-8.7,1.1l6.1,6.2l-1.6,8.6l7.8-3.9l7.6,4.2l-1.3-8.6l6.4-6L83.1,309.9z M79.1,305.4l0.3-0.5
		l0,0l0,0l0,0l-1.2,2.3l-1.9,3.7l0,0L79.1,305.4z M73,323.2L73,323.2L73,323.2L73,323.2l0.9-4.9l0.3-1.8l-4.8-4.8l2.1-0.3l-1.8,0.2
		l-0.3,0l4.8,4.8L73,323.2z M85,323.5L85,323.5l-3.4-1.9l-2.5-1.4l-0.6,0.3l0.6-0.3L85,323.5L85,323.5L85,323.5z M82.5,316.3
		l0.7,4.8l-4.2-2.3l-4.3,2.2l0.9-4.7l-3.4-3.4l4.8-0.6l2.2-4.3l2,4.4l4.7,0.8L82.5,316.3z M86.1,311.7l2.8,0.5l0,0L86.1,311.7z"/>
	<path d="M74.4,123.9l7.8-3.9l7.6,4.2l-1.3-8.6l6.4-6l-8.6-1.4l-3.7-7.9l-4,7.8l-8.7,1.1l6.1,6.2L74.4,123.9z M76.3,121.2l0.7-3.9
		l0.5-2.4l0,0L76.3,121.2z M88.2,121.8L88.2,121.8l-0.6-3.8l-0.4-2.9l0.7,4.6L88.2,121.8L88.2,121.8z M92.1,110.4L92.1,110.4
		L92.1,110.4l-1.8-0.3l-3.2-0.5L92.1,110.4z M84.2,106.6l1.3,2.7l0,0l-2.1-4.4L84.2,106.6z M72.8,110.1l6.7-0.8l3.1-6l-2.1,4l-1,2
		l-0.3,0L72.8,110.1L72.8,110.1z M75.5,111l4.8-0.6l2.2-4.3l2,4.4l4.7,0.8l-3.5,3.3l0.7,4.8l-4.2-2.3l-4.3,2.2l0.9-4.7L75.5,111z"/>
	<path d="M353.3,278.1l-5-10.7l-5.4,10.5l-11.7,1.5l8.3,8.4l-2.2,11.6l10.6-5.3l10.4,5.7l-1.8-11.7l8.6-8.1L353.3,278.1z
		 M334.8,280.6l3.5-0.4L334.8,280.6L334.8,280.6l4.1,4.1l0.4,0.4L334.8,280.6z M339.5,296.2L339.5,296.2L339.5,296.2l3.1-1.6
		l1.4-0.7L339.5,296.2z M342,293l1.2-6.4l-4.6-4.6l6.5-0.8l3-5.8l2.8,5.9l6.4,1.1l-4.8,4.5l1,6.4l-5.7-3.1L342,293z M355.8,296.5
		L355.8,296.5l-6.1-3.4l-1.2-0.7L355.8,296.5L355.8,296.5z M354.4,287.4L354.4,287.4l0.1,0.9l0.4,2.3L354.4,287.4l6.7-6.3h0
		l-1.7,1.6L354.4,287.4z"/>
	<path d="M342,106.9l2.2,12l29.9-33.2l-0.9-0.9l-22.8,20.1l-1.3-12.1l-23.4,23.9l0.8,1L342,106.9z M348.2,95.6l1.3,11.9l16-14.2
		L345,116l-2.1-11.4l-11.3,7.9L348.2,95.6z"/>
	<path d="M74.4,243.5l-23,20.3l-1.3-12.1l-23.2,23.7l0.6,0.7l15.6-10.9l2.2,11.9l29.7-33L74.4,243.5z M46,275l-2.1-11.5l-12.5,8.8
		l18.1-18.4l1.3,11.9l17.9-15.9L46,275z"/>
	<path d="M264.8,350.6l-3.3-8.4l-1.6-4l-1.1,4.1l-2.3,8.8l-9.1,0.6l-4.3,0.3l3.6,2.3l7.7,4.9l-2.3,8.8l-1.1,4.1l3.3-2.7l7-5.8
		l7.7,4.9l3.6,2.3l-1.6-4l-3.3-8.4l7-5.8l3.3-2.7l-4.3,0.3L264.8,350.6z M266.1,357.8l3.7,9.4l-8.5-5.4l-7.8,6.4l2.5-9.8l-8.5-5.4
		l10.1-0.6l2.5-9.8l3.7,9.4l10.1-0.6L266.1,357.8z"/>
	<path d="M150.4,73l-0.5,8.2l-0.3,4.3l2.7-3.3l5.3-6.3l7.7,3.1l4,1.6l-2.3-3.6l-4.4-7l5.3-6.3l2.7-3.3l-4.1,1l-8,2l-4.4-7l-2.3-3.6
		l-0.3,4.3l-0.5,8.2l-8,2l-4.1,1.1l4,1.6L150.4,73z M152.2,66.4l0.6-9.2l4.9,7.8l9-2.3l-5.9,7.1l4.9,7.8l-8.6-3.4l-5.9,7.1l0.6-9.2
		l-8.6-3.4L152.2,66.4z"/>
	<path d="M294.3,65.7l4.2-0.4l4.5-0.4l1.8,4.1l1.7,3.9l0.9-4.2l1-4.4l4.5-0.4l4.2-0.4l-3.7-2.2l-3.9-2.3l1-4.4l0.9-4.2l-3.2,2.8
		l-3.4,3l-3.9-2.3l-3.7-2.2l1.7,3.9l1.8,4.1l-3.4,3L294.3,65.7z M302.5,60.3l-2.2-5L305,58l4.1-3.7l-1.2,5.4l4.7,2.8l-5.5,0.5
		l-1.2,5.4l-2.2-5l-5.5,0.5L302.5,60.3z"/>
	<path d="M233,340.1l-4.2,0.7l-4.5,0.7l-2.1-4l-1.9-3.8l-0.7,4.2l-0.7,4.5l-4.5,0.7l-4.2,0.7l3.8,1.9l4.1,2.1l-0.7,4.5l-0.7,4.2l3-3
		l3.2-3.2l4.1,2l3.8,1.9l-1.9-3.8l-2.1-4l3.2-3.2L233,340.1z M225.1,346.1l2.5,4.9l-5-2.5l-3.9,3.9l0.9-5.5l-4.9-2.5l5.5-0.9
		l0.9-5.5l2.5,4.9l5.5-0.9L225.1,346.1z"/>
</g>
</svg>
