<?xml version="1.0" encoding="utf-8"?>
<!-- Generator: Adobe Illustrator 19.2.0, SVG Export Plug-In . SVG Version: 6.00 Build 0)  -->
<svg version="1.1" id="Capa_1" xmlns="http://www.w3.org/2000/svg" xmlns:xlink="http://www.w3.org/1999/xlink" x="0px" y="0px"
	 viewBox="0 0 425.2 425.2" style="enable-background:new 0 0 425.2 425.2;" xml:space="preserve">
<path d="M414.6,187.4c0-32.5-21.9-62.6-61.8-84.5c-37.5-20.7-86.9-32-139.3-32c-52.3,0-101.8,11.4-139.3,32
	c-39.8,22-61.8,52-61.8,84.5c0,32.6,21.9,62.6,61.8,84.5c37.4,20.6,86.9,32,139.3,32c20.5,0,41.2-1.9,61.7-5.7l72.1,54.1
	c2.2,1.7,4.8,2.5,7.6,2.5l0,0c2.3,0,4.5-0.6,6.4-1.7c4.4-2.6,6.8-7.5,6.2-12.6l-9.3-72C394.7,246.9,414.6,218.1,414.6,187.4z
	 M353,261.9l0.3,2.3l10.1,78l-2.1-1.6L287,284.9c-20.3,4.1-42.2,6.4-65.1,6.4c-104,0-188.3-46.5-188.3-103.8
	c0-57.3,84.4-103.9,188.3-103.9c74.6,0,139.2,24,169.6,58.7c12,13.7,18.7,29,18.7,45.1c0,16.9-7.4,32.9-20.4,47
	C380.3,244.7,367.8,254,353,261.9z"/>
</svg>
