<?xml version="1.0" encoding="utf-8"?>
<!-- Generator: Adobe Illustrator 19.2.0, SVG Export Plug-In . SVG Version: 6.00 Build 0)  -->
<svg version="1.1" id="Capa_1" xmlns="http://www.w3.org/2000/svg" xmlns:xlink="http://www.w3.org/1999/xlink" x="0px" y="0px"
	 viewBox="0 0 425.2 425.2" style="enable-background:new 0 0 425.2 425.2;" xml:space="preserve">
<path d="M72.6,162c5.3,11.5,13.1,20.6,23.6,27.8c4.5,3.1,9.3,5.8,14.2,8.2c6.9,3.3,14.1,5.8,21.6,7.2c2.1,0.4,6.7,0.4,8.4,1.7
	c0.3,0.2,0.5,0.5,0.7,0.8c1,1.3,1.7,3,2.6,4.2c3.3,4.5,7,8.7,11.5,12.1c3.5,2.7,7,4.8,10.7,6.4c9.2,4.2,19,5.3,29.8,3.7
	c13.6-1.9,23.8-9.9,30.9-21.4c0.8-1.2,4-3.9,5.1-1.4c0.2,0.5,0.4,0.9,0.6,1.4c0.5,1.3,1,2.5,1.6,3.8c0.1,0.3,0.3,0.7,0.4,1
	c8.6,21,16.4,42.3,21.8,64.2c2,7.9,3.6,15.8,4.9,23.9c5.5,34.1,5.3,68.8,4.7,103.2c0,2.4-0.1,4.8-0.1,7.2c-0.1,4.9,0.7-3.1,0.7-3.2
	c0.1-0.8,0.2-1.7,0.2-2.5c0.3-3.2,0.6-6.3,0.9-9.5c0.8-8.8,1.5-17.6,2.1-26.5c0.1-1.1,0.1-2.1,0.2-3.2c1-17.1,1.5-34.3,0.6-51.5
	c-1.8-33.3-7.9-66.4-16.9-98.5c-0.5-2,2.4-5.7,4.6-4.5c10.4,5.5,20.5,7.2,32.2,6.3c13.1-1,26.5-2.2,38.5-8.1
	c19.7-9.7,33.1-33,24.8-54.8c-3-7.1-6.2-13.9-11.1-19.9c-4.8-6-10.3-10.3-16.7-13.7c-1.4-0.7-2.8-1.4-4.3-2.1c-1-0.4-1.9-0.9-3-1.3
	c-0.9-0.4-1.4-1.2-1.2-2.2c2.3-19.9-8.1-42.7-22.5-56.2c-5-4.6-10.4-8.6-16.1-11.6c-12.1-6.5-25.6-9.3-40.1-6.7
	c-0.2,0-0.5,0.1-0.7,0.1c-0.9,0.2-2,0.1-2.4-0.8c-2.3-4.8-5.5-9-9-13c-4.3-4.9-9.7-7.7-14.3-12c-2.8-2.6-6-5-9.4-6.9
	c-7.6-4.3-16.3-6.4-25.1-5.3c-1.9,0.2-3.7,0.6-5.5,1.1c-12,3.2-21.1,11.6-28.5,21.7c-6.7,9.1-12.3,21-11.1,32.5c0,0.2,0,0.4,0,0.7
	c-0.1,1.4-0.9,2.7-2.1,3.4c-0.1,0.1-0.3,0.2-0.4,0.2c-0.2,0.1-0.4,0.2-0.6,0.2c-0.5,0.1-1,0.3-1.5,0.4C103.3,75.6,77.7,94,70.3,119
	c-3,10.1-3.8,20.4-1.9,30.3C69.3,153.6,70.6,157.8,72.6,162z"/>
</svg>
