<svg xmlns="http://www.w3.org/2000/svg" xmlns:xlink="http://www.w3.org/1999/xlink" width="2000" zoomAndPan="magnify" viewBox="0 0 1500 1124.99995" height="1500" preserveAspectRatio="xMidYMid meet" version="1.2"><defs><clipPath id="97f45fe907"><path d="M 972 239.429688 L 993 239.429688 L 993 258 L 972 258 Z M 972 239.429688 "/></clipPath><clipPath id="6a3ab8ba12"><path d="M 377.40625 306 L 1078 306 L 1078 844 L 377.40625 844 Z M 377.40625 306 "/></clipPath><clipPath id="d5704d3479"><path d="M 507 750 L 641 750 L 641 885.929688 L 507 885.929688 Z M 507 750 "/></clipPath><clipPath id="7197203e31"><path d="M 1029 523 L 1122.90625 523 L 1122.90625 536 L 1029 536 Z M 1029 523 "/></clipPath></defs><g id="a3c7f7c19f"><path style=" stroke:none;fill-rule:nonzero;fill:#42b7ac;fill-opacity:1;" d="M 797.960938 319.757812 C 785.902344 321.050781 784.824219 322.128906 783.316406 333.542969 C 782.023438 322.128906 780.734375 321.050781 768.675781 319.757812 C 780.734375 318.464844 781.808594 317.390625 783.316406 305.976562 C 784.824219 317.390625 785.902344 318.464844 797.960938 319.757812 Z M 797.960938 319.757812 "/><path style=" stroke:none;fill-rule:nonzero;fill:#ffdb2c;fill-opacity:1;" d="M 679.960938 324.496094 C 671.992188 325.359375 671.347656 326.003906 670.269531 333.542969 C 669.410156 326.003906 668.546875 325.359375 660.582031 324.496094 C 668.546875 323.636719 669.195312 322.988281 670.269531 315.453125 C 671.132812 322.988281 671.992188 323.636719 679.960938 324.496094 Z M 679.960938 324.496094 "/><path style=" stroke:none;fill-rule:nonzero;fill:#ffdb2c;fill-opacity:1;" d="M 446.332031 540.929688 C 438.363281 541.789062 437.71875 542.4375 436.640625 549.972656 C 435.78125 542.4375 434.917969 541.789062 426.949219 540.929688 C 434.917969 540.066406 435.5625 539.421875 436.640625 531.882812 C 437.71875 539.421875 438.363281 540.066406 446.332031 540.929688 Z M 446.332031 540.929688 "/><path style=" stroke:none;fill-rule:nonzero;fill:#42b7ac;fill-opacity:1;" d="M 870.523438 792.25 C 862.558594 793.113281 861.910156 793.757812 860.835938 801.296875 C 859.972656 793.757812 859.113281 793.113281 851.144531 792.25 C 859.113281 791.390625 859.757812 790.742188 860.835938 783.207031 C 861.910156 790.527344 862.558594 791.390625 870.523438 792.25 Z M 870.523438 792.25 "/><path style=" stroke:none;fill-rule:nonzero;fill:#ffdb2c;fill-opacity:1;" d="M 1062.164062 497.644531 C 1054.199219 498.503906 1053.550781 499.148438 1052.476562 506.6875 C 1051.613281 499.148438 1050.753906 498.503906 1042.785156 497.644531 C 1050.753906 496.78125 1051.398438 496.136719 1052.476562 488.597656 C 1053.550781 496.136719 1054.199219 496.78125 1062.164062 497.644531 Z M 1062.164062 497.644531 "/><path style=" stroke:none;fill-rule:nonzero;fill:#42b7ac;fill-opacity:1;" d="M 1086.496094 450.910156 C 1078.53125 451.773438 1077.882812 452.417969 1076.808594 459.957031 C 1075.945312 452.417969 1075.085938 451.773438 1067.117188 450.910156 C 1075.085938 450.050781 1075.730469 449.402344 1076.808594 441.867188 C 1077.882812 449.402344 1078.53125 450.265625 1086.496094 450.910156 Z M 1086.496094 450.910156 "/><g clip-rule="nonzero" clip-path="url(#97f45fe907)"><path style=" stroke:none;fill-rule:nonzero;fill:#42b7ac;fill-opacity:1;" d="M 992.183594 248.476562 C 984.214844 249.335938 983.570312 249.984375 982.492188 257.519531 C 981.632812 249.984375 980.769531 249.335938 972.804688 248.476562 C 980.769531 247.613281 981.417969 246.96875 982.492188 239.429688 C 983.570312 246.96875 984.214844 247.613281 992.183594 248.476562 Z M 992.183594 248.476562 "/></g><path style=" stroke:none;fill-rule:nonzero;fill:#ffdb2c;fill-opacity:1;" d="M 982.710938 281.855469 C 967.207031 286.808594 963.113281 290.683594 958.378906 306.191406 C 953.425781 290.683594 949.550781 286.59375 934.046875 281.855469 C 949.550781 276.902344 953.640625 273.027344 958.378906 257.519531 C 963.113281 273.027344 967.207031 276.902344 982.710938 281.855469 Z M 982.710938 281.855469 "/><path style=" stroke:none;fill-rule:nonzero;fill:#42b7ac;fill-opacity:1;" d="M 501.453125 437.773438 C 493.703125 440.144531 491.765625 442.082031 489.179688 450.050781 C 486.8125 442.296875 484.875 440.359375 476.90625 437.773438 C 484.660156 435.40625 486.597656 433.464844 489.179688 425.5 C 491.765625 433.25 493.703125 435.1875 501.453125 437.773438 Z M 501.453125 437.773438 "/><path style=" stroke:none;fill-rule:nonzero;fill:#42b7ac;fill-opacity:1;" d="M 1073.578125 307.484375 C 1065.824219 309.851562 1063.886719 311.789062 1061.304688 319.757812 C 1058.933594 312.003906 1056.996094 310.066406 1049.03125 307.484375 C 1056.78125 305.113281 1058.71875 303.175781 1061.304688 295.207031 C 1063.886719 303.175781 1065.824219 305.113281 1073.578125 307.484375 Z M 1073.578125 307.484375 "/><path style=" stroke:none;fill-rule:nonzero;fill:#ffdb2c;fill-opacity:1;" d="M 1077.023438 653.777344 C 1069.269531 656.144531 1067.332031 658.082031 1064.75 666.050781 C 1062.378906 658.296875 1060.441406 656.359375 1052.476562 653.777344 C 1060.226562 651.40625 1062.164062 649.46875 1064.75 641.5 C 1067.117188 649.253906 1069.269531 651.191406 1077.023438 653.777344 Z M 1077.023438 653.777344 "/><path style=" stroke:none;fill-rule:nonzero;fill:#ffdb2c;fill-opacity:1;" d="M 561.097656 346.460938 C 553.347656 348.832031 551.410156 350.769531 548.824219 358.738281 C 546.457031 350.984375 544.519531 349.046875 536.550781 346.460938 C 544.304688 344.09375 546.242188 342.15625 548.824219 334.1875 C 551.410156 342.15625 553.347656 344.09375 561.097656 346.460938 Z M 561.097656 346.460938 "/><path style=" stroke:none;fill-rule:nonzero;fill:#42b7ac;fill-opacity:1;" d="M 461.1875 720.96875 C 453.4375 723.335938 451.5 725.273438 448.914062 733.242188 C 446.546875 725.488281 444.609375 723.550781 436.640625 720.96875 C 444.390625 718.597656 446.332031 716.660156 448.914062 708.691406 C 451.28125 716.660156 453.222656 718.597656 461.1875 720.96875 Z M 461.1875 720.96875 "/><path style=" stroke:none;fill-rule:nonzero;fill:#42b7ac;fill-opacity:1;" d="M 605.457031 378.765625 C 589.953125 383.71875 585.863281 387.59375 581.125 403.101562 C 576.171875 387.59375 572.296875 383.503906 556.792969 378.765625 C 572.296875 373.8125 576.386719 369.9375 581.125 354.429688 C 585.863281 369.9375 589.953125 373.8125 605.457031 378.765625 Z M 605.457031 378.765625 "/><path style=" stroke:none;fill-rule:nonzero;fill:#ffdb2c;fill-opacity:1;" d="M 718.933594 824.554688 C 703.429688 829.507812 699.339844 833.382812 694.601562 848.890625 C 689.648438 833.382812 685.773438 829.292969 670.269531 824.554688 C 685.773438 819.601562 689.863281 815.722656 694.601562 800.21875 C 699.554688 815.722656 703.429688 819.816406 718.933594 824.554688 Z M 718.933594 824.554688 "/><path style=" stroke:none;fill-rule:nonzero;fill:#42b7ac;fill-opacity:1;" d="M 1064.75 699.433594 C 1049.246094 704.386719 1045.152344 708.261719 1040.417969 723.765625 C 1035.464844 708.261719 1031.589844 704.167969 1016.085938 699.433594 C 1031.589844 694.480469 1035.679688 690.601562 1040.417969 675.097656 C 1045.371094 690.601562 1049.246094 694.480469 1064.75 699.433594 Z M 1064.75 699.433594 "/><g clip-rule="nonzero" clip-path="url(#6a3ab8ba12)"><path style=" stroke:none;fill-rule:nonzero;fill:#42b7ac;fill-opacity:1;" d="M 1077.023438 602.519531 C 960.53125 612.644531 923.0625 622.550781 1005.964844 672.082031 C 903.898438 655.285156 916.605469 691.894531 987.230469 769.636719 C 886.242188 715.800781 852.222656 696.203125 886.457031 768.992188 C 816.476562 711.277344 807.863281 749.609375 818.414062 843.074219 C 769.75 756.933594 747.355469 724.628906 727.546875 799.789062 C 707.738281 724.628906 685.128906 756.933594 636.679688 843.074219 C 647.015625 749.824219 638.402344 711.492188 568.421875 769.207031 C 602.65625 696.417969 568.636719 716.015625 467.648438 769.851562 C 538.273438 692.109375 550.765625 655.5 448.914062 672.296875 C 531.816406 622.550781 494.347656 612.644531 377.855469 602.738281 C 494.347656 572.15625 535.90625 560.527344 468.292969 520.46875 C 569.066406 521.332031 564.761719 479.554688 515.664062 408.914062 C 605.671875 450.265625 644.644531 467.0625 637.324219 396.855469 C 689.863281 445.3125 701.0625 404.179688 722.59375 309.207031 C 749.296875 390.609375 778.796875 420.546875 838.871094 343.449219 C 822.074219 420.546875 845.546875 390.394531 927.15625 306.621094 C 878.707031 402.671875 874.398438 440.789062 965.484375 392.980469 C 898.085938 466.632812 935.769531 464.691406 1050.105469 434.972656 C 948.902344 498.074219 920.050781 524.5625 1020.175781 526.285156 C 925.21875 560.097656 960.316406 576.03125 1077.023438 602.519531 Z M 1077.023438 602.519531 "/></g><path style=" stroke:none;fill-rule:nonzero;fill:#ffdb2c;fill-opacity:1;" d="M 645.722656 814 C 648.523438 775.023438 645.292969 753.703125 635.816406 742.933594 C 631.296875 737.980469 625.480469 735.394531 618.375 735.394531 C 609.117188 735.394531 597.921875 739.917969 583.707031 749.394531 C 588.660156 735.613281 588.875 726.996094 585.429688 721.398438 C 583.707031 718.597656 579.832031 715.152344 572.511719 715.152344 C 558.945312 715.152344 534.398438 727.210938 495.640625 747.671875 C 524.925781 712.136719 533.96875 691.464844 527.722656 677.25 C 522.988281 666.699219 510.496094 661.746094 489.394531 661.746094 C 485.304688 661.746094 480.78125 661.960938 476.046875 662.390625 C 494.996094 648.609375 502.101562 638.054688 499.730469 628.148438 C 496.070312 612.429688 470.015625 605.535156 414.460938 599.722656 C 476.261719 582.925781 504.46875 572.371094 507.050781 554.710938 C 508.34375 545.667969 502.746094 536.835938 488.964844 526.5 C 523.203125 524.347656 543.441406 515.949219 551.625 500.011719 C 560.453125 483 554.855469 459.308594 533.324219 424.207031 C 571.003906 441.21875 596.199219 451.339844 614.285156 451.339844 C 623.542969 451.339844 630.867188 448.542969 636.035156 442.726562 C 641.847656 436.265625 644.644531 426.144531 644.644531 411.5 C 655.628906 419.898438 665.101562 423.777344 673.5 423.777344 C 699.984375 423.777344 710.96875 388.242188 723.886719 332.464844 C 736.589844 365.84375 753.386719 394.703125 779.441406 394.703125 C 794.296875 394.703125 810.015625 385.441406 828.105469 366.273438 C 826.382812 379.195312 827.242188 386.304688 830.6875 390.609375 C 832.84375 393.195312 835.640625 394.488281 839.085938 394.488281 C 849.851562 394.488281 864.925781 380.273438 904.113281 339.570312 C 886.890625 378.335938 883.011719 399.441406 890.117188 411.070312 C 892.703125 415.160156 897.871094 420.113281 908.851562 420.113281 C 917.035156 420.113281 927.585938 417.53125 941.152344 411.714844 C 927.371094 429.804688 923.277344 441.433594 926.941406 449.832031 C 931.675781 460.601562 946.75 460.601562 951.703125 460.601562 C 965.914062 460.601562 986.800781 456.941406 1013.285156 450.695312 C 962.46875 484.074219 948.257812 499.582031 952.132812 513.363281 C 954.71875 523.054688 966.34375 528.4375 990.675781 531.023438 C 968.066406 541.574219 958.59375 550.621094 959.238281 560.742188 C 960.101562 574.957031 979.480469 585.292969 1037.832031 600.152344 C 984.214844 605.96875 958.808594 612.859375 955.148438 628.363281 C 952.777344 638.269531 959.882812 648.824219 978.832031 662.605469 C 974.097656 662.175781 969.574219 661.960938 965.484375 661.960938 C 944.382812 661.960938 931.675781 667.128906 927.15625 677.464844 C 920.910156 691.679688 929.953125 712.351562 959.238281 747.886719 C 920.480469 727.429688 895.933594 715.367188 882.367188 715.367188 C 874.832031 715.367188 871.171875 718.8125 869.449219 721.613281 C 865.785156 727.210938 866.21875 735.613281 871.171875 749.609375 C 856.957031 740.132812 845.761719 735.613281 836.503906 735.613281 C 829.398438 735.613281 823.582031 738.195312 819.0625 743.148438 C 809.585938 753.703125 806.570312 775.023438 809.15625 814.214844 C 783.316406 770.285156 768.460938 751.546875 752.957031 751.546875 C 740.898438 751.546875 733.144531 763.390625 727.332031 778.46875 C 721.519531 763.390625 713.765625 751.546875 701.707031 751.546875 C 686.417969 751.332031 671.347656 770.070312 645.722656 814 Z M 645.722656 814 "/><path style=" stroke:none;fill-rule:nonzero;fill:#42b7ac;fill-opacity:1;" d="M 958.378906 378.765625 L 995.199219 315.453125 L 1002.089844 303.390625 L 1006.609375 313.945312 L 1007.472656 315.882812 L 1011.777344 326.003906 L 1040.632812 294.777344 L 1016.300781 336.773438 L 1015.871094 337.632812 L 1009.410156 348.617188 L 999.71875 325.789062 L 997.996094 328.15625 Z M 958.378906 378.765625 "/><path style=" stroke:none;fill-rule:nonzero;fill:#ffdb2c;fill-opacity:1;" d="M 1001.65625 307.484375 L 1010.917969 329.234375 L 1030.082031 308.34375 L 1009.410156 344.09375 L 1000.152344 322.128906 L 973.882812 355.722656 Z M 1001.65625 307.484375 "/><g clip-rule="nonzero" clip-path="url(#d5704d3479)"><path style=" stroke:none;fill-rule:nonzero;fill:#42b7ac;fill-opacity:1;" d="M 507.914062 885.929688 L 567.34375 783.421875 L 578.539062 764.039062 L 585.648438 781.050781 L 586.9375 784.28125 L 593.828125 800.433594 L 640.339844 750.039062 L 601.148438 817.878906 L 600.289062 819.386719 L 589.953125 837.261719 L 574.449219 800.648438 L 571.433594 804.308594 Z M 507.914062 885.929688 "/></g><path style=" stroke:none;fill-rule:nonzero;fill:#ffdb2c;fill-opacity:1;" d="M 578.109375 770.929688 L 592.96875 806.25 L 623.976562 772.652344 L 590.382812 830.582031 L 575.097656 794.621094 L 532.890625 848.890625 Z M 578.109375 770.929688 "/><path style=" stroke:none;fill-rule:nonzero;fill:#42b7ac;fill-opacity:1;" d="M 1030.941406 532.316406 L 1105.230469 477.183594 L 1112.335938 486.660156 Z M 1030.941406 532.316406 "/><path style=" stroke:none;fill-rule:nonzero;fill:#42b7ac;fill-opacity:1;" d="M 1029.867188 540.285156 L 1121.59375 552.34375 L 1120.085938 563.972656 Z M 1029.867188 540.285156 "/><g clip-rule="nonzero" clip-path="url(#7197203e31)"><path style=" stroke:none;fill-rule:nonzero;fill:#ffdb2c;fill-opacity:1;" d="M 1029.21875 533.390625 L 1121.164062 523.917969 L 1122.457031 535.546875 Z M 1029.21875 533.390625 "/></g><path style=" stroke:none;fill-rule:nonzero;fill:#000000;fill-opacity:1;" d="M 530.523438 690.386719 C 532.675781 706.753906 534.828125 723.335938 536.769531 739.917969 C 521.046875 745.085938 503.175781 749.609375 482.9375 753.484375 C 475.398438 710.414062 466.570312 649.898438 456.449219 571.941406 C 475.398438 565.265625 493.703125 560.742188 511.144531 558.375 C 515.234375 584 519.324219 609.84375 522.988281 635.902344 C 531.167969 633.746094 540.210938 631.59375 549.6875 629.011719 C 546.457031 605.535156 543.011719 579.695312 539.351562 551.695312 C 558.300781 545.019531 576.601562 540.285156 594.042969 538.128906 C 603.519531 596.921875 612.132812 657.4375 619.453125 719.675781 C 603.734375 724.84375 585.863281 729.367188 565.621094 733.242188 C 563.039062 718.8125 560.453125 702.230469 557.4375 683.925781 C 548.824219 685.863281 539.78125 688.234375 530.523438 690.386719 Z M 530.523438 690.386719 "/><path style=" stroke:none;fill-rule:nonzero;fill:#000000;fill-opacity:1;" d="M 668.117188 719.027344 C 668.117188 726.996094 668.117188 735.179688 668.117188 743.148438 C 638.1875 751.980469 617.085938 755.425781 605.027344 753.054688 C 609.546875 644.085938 613.640625 571.511719 617.300781 535.546875 C 640.984375 523.917969 662.734375 516.808594 682.757812 514.011719 C 718.074219 568.925781 753.601562 629.011719 789.5625 694.480469 C 780.949219 702.445312 760.707031 712.351562 728.839844 724.199219 C 724.964844 716.875 721.300781 709.769531 717.640625 703.09375 C 704.507812 707.398438 687.925781 712.785156 668.117188 719.027344 Z M 691.585938 654.421875 C 682.972656 638.703125 675.867188 626.210938 670.484375 616.949219 C 669.839844 632.023438 669.410156 647.101562 668.976562 661.960938 Z M 691.585938 654.421875 "/><path style=" stroke:none;fill-rule:nonzero;fill:#000000;fill-opacity:1;" d="M 798.175781 602.519531 C 802.050781 618.671875 805.710938 634.824219 809.371094 650.976562 C 794.296875 657.867188 776.855469 664.328125 757.261719 670.359375 C 745.203125 628.363281 730.347656 569.140625 712.472656 492.691406 C 730.777344 483.859375 748.433594 477.398438 765.445312 473.09375 C 772.121094 498.074219 778.792969 523.269531 785.039062 548.898438 C 793.007812 545.882812 801.621094 542.652344 810.878906 539.207031 C 805.28125 516.164062 799.25 490.75 792.792969 463.402344 C 810.878906 454.570312 828.535156 448.109375 845.761719 443.804688 C 861.265625 501.304688 875.90625 560.527344 889.6875 621.472656 C 874.617188 628.363281 857.175781 634.824219 837.578125 640.855469 C 833.488281 626.640625 829.179688 610.703125 824.445312 592.613281 C 815.617188 596.0625 807.003906 599.289062 798.175781 602.519531 Z M 798.175781 602.519531 "/><path style=" stroke:none;fill-rule:nonzero;fill:#000000;fill-opacity:1;" d="M 934.476562 642.363281 C 933.832031 650.546875 933.398438 658.945312 932.753906 667.34375 C 901.316406 674.234375 879.351562 675.957031 867.078125 672.726562 C 879.566406 560.957031 888.828125 486.660156 895.070312 449.617188 C 920.265625 439.496094 943.304688 433.683594 963.976562 432.390625 C 996.273438 491.613281 1028.789062 556.21875 1061.089844 626.210938 C 1051.613281 633.746094 1030.082031 642.363281 996.492188 652.054688 C 993.046875 644.085938 989.816406 636.546875 986.585938 629.441406 C 972.804688 632.886719 955.363281 637.195312 934.476562 642.363281 Z M 963.328125 577.539062 C 955.578125 560.742188 949.117188 547.390625 944.164062 537.269531 C 942.441406 552.773438 940.9375 568.28125 939.429688 583.355469 Z M 963.328125 577.539062 "/><path style=" stroke:none;fill-rule:nonzero;fill:#42b7ac;fill-opacity:1;" d="M 519.972656 668.203125 C 522.125 683.28125 524.0625 698.570312 526 714.074219 C 510.929688 718.8125 493.703125 723.121094 474.324219 726.566406 C 467 686.726562 458.605469 630.734375 448.914062 558.589844 C 467.21875 552.34375 484.660156 548.25 501.453125 545.882812 C 505.328125 569.570312 509.207031 593.476562 512.867188 617.8125 C 520.832031 615.875 529.445312 613.71875 538.488281 611.566406 C 535.261719 589.816406 532.03125 565.910156 528.585938 539.851562 C 546.886719 533.605469 564.328125 529.300781 581.125 527.148438 C 590.382812 581.632812 598.351562 637.625 605.671875 695.339844 C 590.597656 700.078125 573.375 704.167969 553.992188 707.832031 C 551.625 694.480469 549.042969 679.1875 546.242188 662.175781 C 537.414062 663.898438 528.800781 666.050781 519.972656 668.203125 Z M 519.972656 668.203125 "/><path style=" stroke:none;fill-rule:nonzero;fill:#42b7ac;fill-opacity:1;" d="M 652.183594 694.695312 C 652.183594 702.230469 652.183594 709.554688 652.183594 717.089844 C 623.328125 725.273438 603.089844 728.289062 591.460938 726.351562 C 595.765625 625.5625 599.859375 558.375 603.304688 524.992188 C 626.128906 514.226562 647.015625 507.550781 666.394531 504.964844 C 700.199219 555.789062 734.4375 611.566406 769.105469 672.082031 C 760.707031 679.617188 741.328125 688.664062 710.75 699.433594 C 707.089844 692.539062 703.429688 686.078125 699.984375 679.835938 C 687.066406 683.710938 671.347656 688.664062 652.183594 694.695312 Z M 674.792969 634.824219 C 666.609375 620.394531 659.71875 608.765625 654.335938 600.152344 C 653.691406 614.152344 653.257812 627.933594 652.828125 641.714844 Z M 674.792969 634.824219 "/><path style=" stroke:none;fill-rule:nonzero;fill:#42b7ac;fill-opacity:1;" d="M 777.289062 586.800781 C 780.949219 601.660156 784.609375 616.519531 788.054688 631.59375 C 773.410156 637.839844 756.832031 643.871094 737.882812 649.683594 C 726.46875 610.703125 712.042969 556.003906 694.816406 485.367188 C 712.257812 477.183594 729.269531 471.152344 745.851562 467.277344 C 752.308594 490.320312 758.554688 513.792969 764.796875 537.484375 C 772.550781 534.683594 780.734375 531.667969 789.5625 528.4375 C 784.179688 507.117188 778.363281 483.644531 772.121094 458.234375 C 789.5625 450.050781 806.570312 444.019531 823.152344 440.144531 C 838.007812 493.335938 852.007812 548.25 865.355469 604.675781 C 850.714844 610.921875 834.132812 616.949219 815.183594 622.550781 C 811.308594 609.414062 807.21875 594.554688 802.695312 577.972656 C 794.082031 580.769531 785.683594 583.785156 777.289062 586.800781 Z M 777.289062 586.800781 "/><path style=" stroke:none;fill-rule:nonzero;fill:#42b7ac;fill-opacity:1;" d="M 908.421875 623.625 C 907.777344 631.378906 907.34375 638.917969 906.914062 646.667969 C 876.554688 652.914062 855.667969 654.636719 843.824219 651.839844 C 855.667969 548.25 864.710938 479.554688 870.738281 445.3125 C 894.855469 435.835938 917.035156 430.667969 937.058594 429.375 C 968.28125 484.289062 999.289062 544.160156 1030.511719 608.980469 C 1021.46875 616.089844 1000.582031 624.058594 968.28125 632.886719 C 965.050781 625.5625 961.824219 618.671875 958.59375 611.996094 C 945.027344 614.796875 928.445312 618.886719 908.421875 623.625 Z M 935.984375 563.542969 C 928.445312 548.035156 922.417969 535.546875 917.464844 526.285156 C 915.742188 540.714844 914.234375 554.925781 912.945312 569.140625 Z M 935.984375 563.542969 "/><path style=" stroke:none;fill-rule:nonzero;fill:#ffffff;fill-opacity:1;" d="M 477.769531 721.398438 C 470.878906 682.632812 462.695312 628.792969 453.652344 561.386719 C 468.941406 556.433594 483.796875 552.773438 498.007812 550.621094 C 501.667969 572.800781 505.328125 595.414062 508.558594 618.242188 L 509.207031 622.980469 L 513.726562 621.902344 C 521.695312 619.964844 530.09375 617.8125 539.351562 615.65625 L 543.226562 614.796875 L 542.582031 610.921875 C 539.566406 590.246094 536.335938 567.203125 533.105469 542.867188 C 548.394531 537.914062 563.253906 534.253906 577.464844 532.101562 C 586.078125 583.785156 594.042969 637.625 600.71875 692.324219 C 587.800781 696.203125 573.15625 699.863281 557.222656 702.878906 C 555.070312 690.601562 552.703125 676.605469 550.332031 661.527344 L 549.6875 656.792969 L 545.164062 657.867188 C 536.550781 660.019531 527.9375 662.175781 519.109375 664.113281 L 515.234375 664.976562 L 515.664062 668.851562 C 517.605469 682.847656 519.324219 697.0625 521.265625 711.0625 C 508.34375 714.722656 493.703125 718.382812 477.769531 721.398438 Z M 477.769531 721.398438 "/><path style=" stroke:none;fill-rule:nonzero;fill:#ffffff;fill-opacity:1;" d="M 599.644531 722.691406 C 598.351562 722.691406 597.273438 722.691406 596.199219 722.691406 C 600.289062 626.855469 604.164062 561.386719 607.609375 528.007812 C 628.066406 518.53125 647.015625 512.503906 664.457031 509.703125 C 696.972656 558.804688 730.347656 613.074219 763.722656 671.003906 C 755.109375 677.464844 737.882812 685.21875 712.90625 694.261719 C 709.890625 688.664062 706.875 683.066406 703.859375 677.894531 L 702.136719 674.882812 L 698.691406 675.957031 C 685.988281 679.835938 670.054688 684.789062 651.105469 690.816406 L 648.089844 691.679688 L 648.089844 694.910156 C 648.089844 701.371094 648.089844 707.613281 648.089844 714.074219 C 626.988281 719.675781 610.625 722.691406 599.644531 722.691406 Z M 650.246094 599.9375 C 649.597656 613.933594 649.167969 627.933594 648.738281 641.714844 L 648.523438 647.746094 L 681.25 637.410156 L 678.667969 632.671875 C 670.484375 618.242188 663.59375 606.398438 658.210938 597.785156 L 650.890625 585.9375 Z M 650.246094 599.9375 "/><path style=" stroke:none;fill-rule:nonzero;fill:#ffffff;fill-opacity:1;" d="M 740.898438 644.300781 C 729.914062 606.613281 716.136719 553.851562 699.984375 487.738281 C 714.628906 481.058594 729.054688 475.890625 742.835938 472.445312 C 748.863281 494.195312 754.894531 516.378906 760.492188 538.558594 L 761.785156 543.082031 L 766.304688 541.359375 C 774.058594 538.558594 782.238281 535.546875 791.070312 532.316406 L 794.730469 531.023438 L 793.867188 527.148438 C 788.699219 506.902344 783.101562 484.507812 777.289062 460.386719 C 791.929688 453.710938 806.355469 448.542969 820.136719 445.097656 C 834.132812 495.703125 847.699219 548.46875 860.1875 601.875 C 847.699219 607.042969 833.488281 612.210938 817.984375 616.949219 C 814.539062 604.890625 810.664062 591.324219 806.570312 576.464844 L 805.28125 571.941406 L 800.972656 573.449219 C 792.792969 576.464844 784.179688 579.476562 775.78125 582.492188 L 772.121094 583.785156 L 772.980469 587.660156 C 776.425781 601.230469 779.65625 615.226562 782.886719 629.011719 C 770.398438 634.394531 756.402344 639.347656 740.898438 644.300781 Z M 740.898438 644.300781 "/><path style=" stroke:none;fill-rule:nonzero;fill:#ffffff;fill-opacity:1;" d="M 857.820312 648.824219 C 854.375 648.824219 851.144531 648.609375 848.5625 648.175781 C 859.972656 549.757812 868.585938 482.566406 874.617188 448.324219 C 896.363281 440.144531 916.605469 435.1875 934.691406 433.683594 C 964.621094 486.660156 994.984375 545.019531 1025.128906 607.257812 C 1015.65625 613.289062 997.566406 619.964844 970.867188 627.503906 C 968.066406 621.472656 965.484375 615.441406 962.683594 609.84375 L 961.175781 606.613281 L 957.730469 607.472656 C 944.382812 610.703125 927.585938 614.582031 907.558594 619.320312 L 904.546875 619.964844 L 904.332031 623.195312 C 903.898438 629.871094 903.46875 636.332031 903.039062 643.007812 C 883.875 646.882812 868.800781 648.824219 857.820312 648.824219 Z M 913.375 525.855469 C 911.652344 540.285156 910.144531 554.710938 908.851562 568.710938 L 908.207031 574.742188 L 942.226562 566.558594 L 939.859375 561.820312 C 932.324219 546.3125 926.292969 533.824219 921.339844 524.5625 L 914.882812 512.070312 Z M 913.375 525.855469 "/><path style=" stroke:none;fill-rule:nonzero;fill:#42b7ac;fill-opacity:1;" d="M 928.878906 472.445312 L 988.308594 369.9375 L 999.503906 350.554688 L 1006.609375 367.566406 L 1007.902344 370.796875 L 1014.792969 386.949219 L 1061.304688 336.554688 L 1022.113281 404.394531 L 1021.253906 405.902344 L 1010.917969 423.777344 L 995.414062 387.164062 L 992.398438 390.824219 Z M 928.878906 472.445312 "/><path style=" stroke:none;fill-rule:nonzero;fill:#ffdb2c;fill-opacity:1;" d="M 999.074219 357.445312 L 1013.933594 392.765625 L 1044.9375 359.167969 L 1011.347656 417.097656 L 996.058594 381.136719 L 953.855469 435.40625 Z M 999.074219 357.445312 "/><path style=" stroke:none;fill-rule:nonzero;fill:#42b7ac;fill-opacity:1;" d="M 510.066406 507.980469 L 508.34375 505.609375 L 498.65625 528.4375 L 492.195312 517.457031 L 491.765625 516.59375 L 467.433594 474.601562 L 496.285156 505.609375 L 500.59375 495.488281 L 501.453125 493.550781 L 505.976562 483 L 509.421875 489.027344 L 512.867188 495.058594 L 549.6875 558.375 Z M 510.066406 507.980469 "/><path style=" stroke:none;fill-rule:nonzero;fill:#ffdb2c;fill-opacity:1;" d="M 533.96875 535.546875 L 507.699219 501.949219 L 498.4375 524.132812 L 477.769531 488.382812 L 496.933594 509.273438 L 506.191406 487.519531 Z M 533.96875 535.546875 "/><path style=" stroke:none;fill-rule:nonzero;fill:#42b7ac;fill-opacity:1;" d="M 539.996094 783.207031 L 576.820312 719.890625 L 580.261719 713.859375 L 583.707031 707.832031 L 588.230469 718.382812 L 589.09375 720.320312 L 593.398438 730.441406 L 622.253906 699.214844 L 597.921875 741.210938 L 597.488281 742.074219 L 591.03125 753.054688 L 581.339844 730.441406 L 579.617188 732.8125 Z M 539.996094 783.207031 "/><path style=" stroke:none;fill-rule:nonzero;fill:#ffdb2c;fill-opacity:1;" d="M 583.492188 712.136719 L 592.753906 733.890625 L 611.917969 713 L 591.246094 748.75 L 581.769531 726.566406 L 555.5 760.164062 Z M 583.492188 712.136719 "/><path style=" stroke:none;fill-rule:nonzero;fill:#42b7ac;fill-opacity:1;" d="M 914.019531 465.339844 C 906.054688 466.199219 905.40625 466.847656 904.332031 474.382812 C 903.46875 466.847656 902.609375 466.199219 894.640625 465.339844 C 902.609375 464.476562 903.253906 463.832031 904.332031 456.292969 C 905.191406 463.832031 906.054688 464.476562 914.019531 465.339844 Z M 914.019531 465.339844 "/><path style=" stroke:none;fill-rule:nonzero;fill:#ffdb2c;fill-opacity:1;" d="M 763.507812 607.042969 C 755.539062 607.90625 754.894531 608.550781 753.816406 616.089844 C 752.957031 608.550781 752.09375 607.90625 744.128906 607.042969 C 752.09375 606.183594 752.742188 605.535156 753.816406 598 C 754.894531 605.535156 755.539062 606.183594 763.507812 607.042969 Z M 763.507812 607.042969 "/><path style=" stroke:none;fill-rule:nonzero;fill:#42b7ac;fill-opacity:1;" d="M 641.417969 535.546875 C 633.449219 536.40625 632.804688 537.054688 631.726562 544.589844 C 630.867188 537.054688 630.003906 536.40625 622.035156 535.546875 C 630.003906 534.683594 630.648438 534.039062 631.726562 526.5 C 632.589844 534.039062 633.449219 534.683594 641.417969 535.546875 Z M 641.417969 535.546875 "/><path style=" stroke:none;fill-rule:nonzero;fill:#ffdb2c;fill-opacity:1;" d="M 498.871094 699.433594 C 490.902344 700.292969 490.257812 700.9375 489.179688 708.476562 C 488.320312 700.9375 487.457031 700.292969 479.492188 699.433594 C 487.457031 698.570312 488.105469 697.925781 489.179688 690.386719 C 490.257812 697.707031 490.902344 698.570312 498.871094 699.433594 Z M 498.871094 699.433594 "/></g></svg>