<?xml version="1.0" encoding="utf-8"?>
<!-- Generator: Adobe Illustrator 19.2.0, SVG Export Plug-In . SVG Version: 6.00 Build 0)  -->
<svg version="1.1" id="Capa_1" xmlns="http://www.w3.org/2000/svg" xmlns:xlink="http://www.w3.org/1999/xlink" x="0px" y="0px"
	 viewBox="0 0 425.2 425.2" style="enable-background:new 0 0 425.2 425.2;" xml:space="preserve">
<path d="M34,217c1,0.9,2,1.8,2.9,2.7c0.4,0.4,0.7,0.7,1.1,1.1c11.9,11.4,25.5,17.6,41.3,19c0.1,0.5,0.2,0.9,0.3,1.3
	c-0.1,22.8,8.1,42.6,24.4,58.8c1.6,1.6,3.3,3.1,4.9,4.6c15.7,15.5,35,23.3,57.3,23.3c1.4,0,2.7-0.1,4-0.2L147,389.1
	c-0.6,1.6,0,3.5,1.5,4.4c0.6,0.4,1.2,0.5,1.9,0.5c0.4,0,0.7-0.1,1.1-0.2l-0.1,0.4c-0.4,1,0,2.2,1,2.8c1,0.6,2.2,0.4,2.9-0.4
	l86.6-93.3c1.4,1.4,2.8,2.7,4.2,3.9c11.5,11.5,25.9,17.4,42.8,17.4c15.3-0.2,29-5.2,40.5-15c11-9.6,17.9-21.6,20.6-35.7
	c18.3-6.4,33.3-17.4,44.6-32.9c12.1-16.6,18-34.7,18-55.2c0-12.6-2.2-24.4-6.6-35.3c-4.5-13.4-12.1-25.6-22.9-36.3
	c-18.4-18.4-40.6-27.7-66.2-27.7l-1.1,0c-0.7-2-1.4-3.8-2.2-5.6c0,0,0,0,0,0c0,0,0-0.1,0-0.1l-0.4-0.9c-0.8-1.7-1.6-3.5-2.5-5.2
	c-6.1-11.7-14.6-21.6-25.3-29.4c-15.4-11.5-32.9-17.3-52.1-17.3c-17.1,0-33,4.7-47.2,13.9c-12.1,7.8-21.8,18.1-28.8,30.6
	c-7.4-8.9-17.3-13.4-29.6-13.4c-10.7,0-19.9,3.8-27.5,11.4c-7.8,7.6-11.6,16.9-11.4,27.7c0,1.8,0.1,3.4,0.2,4.9
	c-0.8-0.1-1.5-0.2-2.2-0.3l-3.8-0.6l0.9,0.4c-1.4-0.1-2.7-0.1-3.7,0c-18.4,0-34.2,6.6-47.2,19.5c-13.1,13.1-19.7,29-19.7,47.5
	C13.1,187.9,20.1,203.9,34,217z M20.5,169.6c0-1.9,0.1-3.8,0.2-5.6c1.2-14.1,7-26.4,17.3-36.7c11.7-11.7,25.5-17.4,42.2-17.4
	c2.9-0.1,6.4,0.2,10.9,1.1c0.4,0.2,0.7,0.3,1.1,0.3c0,0,0.1,0,0.1,0c0,0,0.1,0,0.1,0c0,0,0.1,0,0.1,0c0.5,0.1,0.9,0.2,1.4,0.3
	c0.1,0,0.2,0.1,0.3,0.1c0.7,0.2,1.5,0.4,2.2,0.6c0.8,0.2,1.5,0.5,2.3,0.7h0c0.2,0,0.3,0.1,0.5,0.1c8.8,2.7,17,6.8,24.3,12.3
	c0.6,0.5,1.4,0.7,2.2,0.7c0.5,0,0.9-0.1,1.3-0.3c0.6-0.3,1.2-0.7,1.6-1.2c0.1-0.1,0.1-0.2,0.2-0.3c0.4-0.7,0.6-1.5,0.5-2.4
	c-0.1-1-0.7-1.8-1.4-2.4c-8.9-6.6-19-11.5-30-14.4c-0.5-0.1-1-0.2-1.4-0.4c-0.3-1.8-0.4-4.1-0.4-6.6c0-0.9,0-1.7,0.1-2.5
	c0.4-7.7,3.4-14.2,9.2-19.9c6.2-6.2,13.5-9.3,22.3-9.3c4.1,0,7.8,0.6,11.3,1.8c4.5,1.6,8.5,4.2,11.8,7.9c0.5,0.6,1.1,1.2,1.6,1.9
	c0,0,0,0.1,0.1,0.1c0.1,0.1,0.2,0.3,0.3,0.4c0.2,0.3,0.4,0.6,0.6,0.8c0.1,0.1,0.1,0.2,0.2,0.2c0,0,0.1,0.1,0.1,0.1l0.9,1.5
	c0,0,0,0,0,0l0.1,0.1l0,0c0,0,0,0,0,0c2.8,4.8,4.3,11.1,4.6,18.7c0.1,2,1.7,3.5,3.7,3.5h0.1c0.2,0,0.4,0,0.6-0.1
	c0.9-0.2,1.7-0.7,2.3-1.5c0.5-0.6,0.7-1.4,0.7-2.3c-0.2-5.1-0.9-9.7-2.1-13.8c-0.2-0.8-0.5-1.5-0.7-2.2c-0.4-1-0.8-2-1.2-2.9
	c-0.2-0.5-0.4-0.9-0.7-1.4c6.6-13,16-23.6,28.2-31.5c13.2-8.6,27.4-12.7,43.2-12.7c8.7,0,16.8,1.2,24.5,3.7
	c8.2,2.6,15.8,6.7,23.2,12.1c3.4,2.5,6.4,5.1,9.3,7.9c5.6,5.5,10.2,11.8,13.9,19c0.8,1.7,1.7,3.6,2.6,5.5l0.1,0.2
	c2.6,7.1,3,15.3,1,24.2c-0.2,1,0,1.9,0.5,2.8c0.5,0.8,1.4,1.4,2.3,1.6c0.3,0.1,0.5,0.1,0.8,0.1c0.3,0,0.6-0.1,0.9-0.1
	c1.3-0.4,2.3-1.4,2.6-2.8c0.3-1.2,0.5-2.4,0.7-3.6c0.5-3,0.7-5.9,0.7-8.8c0-0.8,0-1.6,0-2.3c0-0.3,0-0.7-0.1-1h0.5
	c0.3,0,0.5,0,0.8,0c0.2,0,0.5,0,0.7,0c0,0,0,0,0.1,0c8.4,0.1,16.3,1.3,23.9,3.6c12.9,3.9,24.6,11,35,21.2c0.2,0.2,0.5,0.4,0.7,0.7
	c16.9,16.9,25.5,37.7,25.5,61.7c0,19.2-5.5,36.1-16.8,51.7C375.8,247.6,361.5,258,344,264c-9.9,0.8-18.4-0.7-25.2-4.4
	c-0.5-0.3-1.2-0.5-1.8-0.5c-1.3,0-2.6,0.7-3.2,1.9c-1,1.8-0.3,4,1.5,5c0.8,0.5,1.7,0.9,2.6,1.3c2.6,1.2,5.4,2.2,8.4,2.9
	c4,0.9,8.2,1.4,12.7,1.4h0c0.4,0,0.8,0,1.2,0c-0.1,0.3-0.2,0.7-0.3,1c-0.2,0.8-0.4,1.5-0.7,2.3c-3.1,9.9-8.8,18.5-16.9,25.7
	c-10.6,8.9-22.5,13.4-36.6,13.5c-18.1,0-32.4-7-43.7-21.4c-0.7-0.9-1.7-1.4-2.7-1.4l-0.2,0c-1,0-2,0.4-2.7,1.2l-70.1,75.5l-4.2,4.6
	l-1.7,1.8l17.8-47.3l0.4-1l0.6-1.5l0.9-2.5l0.4-1.1c0.5-1.2,0.3-2.6-0.6-3.6c-0.8-1-2.1-1.5-3.4-1.3c-3.7,0.6-7.9,1-13.5,1.2
	c-21,0-39.1-7.5-53.8-22.4c-7.4-7.4-12.9-15.6-16.7-24.5c-3.5-8.3-5.3-17.3-5.5-26.8l0,0c0-0.9,0-1.7,0-2.6c0-0.3,0-0.6-0.1-0.9
	c0-0.2-0.1-0.3-0.1-0.5c-0.1-0.6-0.3-1.3-0.4-1.9c-0.1-0.3-0.1-0.5-0.1-0.8c0.1-0.4,0.1-0.8,0.2-1.2c1.4-7.9,6.3-14.7,14.5-20.3
	c0.3-0.2,0.5-0.4,0.7-0.6c1.1-1.2,1.2-3,0.3-4.4c-1.1-1.6-3.5-2.1-5.1-1c-8.2,5.6-13.7,12.3-16.3,20.1c-16-0.6-29.6-6.3-41.4-17.5
	c-6.4-6.1-11.2-12.8-14.2-20C21.9,184.9,20.5,177.6,20.5,169.6z"/>
</svg>
