<?xml version="1.0" encoding="utf-8"?>
<!-- Generator: Adobe Illustrator 19.2.0, SVG Export Plug-In . SVG Version: 6.00 Build 0)  -->
<svg version="1.1" id="Capa_1" xmlns="http://www.w3.org/2000/svg" xmlns:xlink="http://www.w3.org/1999/xlink" x="0px" y="0px"
	 viewBox="0 0 425.2 425.2" style="enable-background:new 0 0 425.2 425.2;" xml:space="preserve">
<path d="M345.4,311.3l0-0.1l0-0.1c-14.3-91.3-14.3-183.1,0-272.6l0-0.1l0-0.1c-0.8-5.1-2.5-9.1-5.1-12.2c-0.4-0.8-0.8-1.6-1.2-2.4
	c-3.5-6.2-9.6-9.5-18-9.8l-0.2,0c-0.7,0.1-1.4,0.2-2.1,0.4l-0.4,0.1c-0.8,0.2-1.6,0.3-2.4,0.4c-21.6,3.8-43,6.4-63.8,7.9
	c-15.1,1.1-30.4,1.6-45.4,1.6l-34-1.1c0,0,0,0-41.7-3.4c-12.8-1.8-24.8-3.7-36.9-6l-0.5,0c-0.7,0.1-1.3,0.2-2,0.4
	c-2.5,0.5-4.7,1.4-6.6,3c-4.4,3.5-6.7,9.5-6.9,17.7l0,0.2c11.9,87.7,12.1,177.2,0.7,266.1c-0.1,0.8-0.2,1.6-0.3,2.4l0.7,0.1
	l-0.8,0.1c-0.1,0.8-0.2,1.5-0.3,2.4l0,0.1l0,0.5c0.3,5.8,2.4,10.2,6.3,13.1c0.5,0.4,1,0.7,1.5,1c2.8,3.8,7.5,6.1,14,6.6l0.1,0l0.1,0
	c30-4.4,60.6-7,90.9-7.8h0.7c1.6,0,3.2,0,4.9-0.1h2.6c-0.3,1.6-0.7,3.1-1,4.5l-0.2,1c-3.2,12.9-8.4,25.3-15.6,36.8
	c-5.2,8.1-11.3,15.7-18.3,22.6c-4.6,4.6-9.8,9.1-15.9,13.8l0.3,0.5l-0.4-0.4c-2.4,1.8-5,3.6-7.6,5.4l-0.1-0.1l0,0.3
	c-0.4,0.2-0.7,0.5-1.1,0.7l-1.5,1l2,2.4l0,0.3l0.2-0.1l2.9,3.5c0.3,0.4,0.8,0.6,1.3,0.6c0.4,0,0.8-0.1,1-0.4
	c0.3-0.3,0.5-0.7,0.6-1.1c0,0,0-0.1,0-0.1c1-0.5,2-1,3-1.4c1.3-0.6,2.6-1.3,3.9-1.9c7.2-3.7,13.9-7.6,20.4-11.9
	c28.5-18.5,53.8-43.7,75.4-74.9c6.3,0.2,13.1,0.7,20.8,1.2c19.6,1.3,39.2,3.4,58.5,6l0.1,0l0.1,0C338,326.8,343.9,321.3,345.4,311.3
	z M324,320.6c-19.2-2.6-38.9-4.6-58.4-5.9c-8.1-0.6-15-1-21.3-1.2l-0.9,0l-0.5,0.7c-20.4,29.6-44.3,53.8-71.1,72
	c-0.3,0.2-0.7,0.4-1.1,0.7c-0.3,0.2-0.7,0.5-1,0.7c-0.5,0.3-0.8,0.9-0.7,1.5c-5.2,3.3-10.2,6.4-15.3,9.2c4.9-3.9,9.2-7.7,12.9-11.5
	c7.1-7,13.4-14.8,18.7-23.1c7.4-11.8,12.8-24.5,16-37.7l0-0.1c0.1-0.2,0.2-0.9,0.2-0.9l0.1-0.2c0.4-1.8,0.9-3.6,1.2-5.4
	c0-0.1,0-0.1,0.6-3.5h0.2l-0.2-0.2c0.1-0.3,0.1-0.7,0.2-1.1l0.2-1.2c0-0.8-0.5-0.8-1.8-0.8c-0.4,0-0.8,0-1.1,0l-0.2-0.2l0,0.2
	c-2.6,0-5,0-7.6,0.1h-0.1c-0.6,0-1.2,0-1.9,0.1c-31.7,0.6-63.6,3.2-94.7,7.8c-4.2-0.4-7.5-1.5-9.7-3.2c-3-2.3-4.7-5.8-5-10.6h0
	c0-0.1,0-0.2,0-0.3c0.1-0.5,0.1-1,0.2-1.5c0-0.3,0.1-0.6,0.1-0.9c0.1-0.8,0.2-1.6,0.4-2.5c11.4-89.2,11.2-179-0.7-266.9
	c0.2-7.1,2.1-12.1,5.7-15c1.5-1.2,3.2-1.9,5.3-2.4c0.5-0.1,1-0.2,1.5-0.3c11.7,2.2,23.7,4.1,36.7,5.9c0.3,0,41.8,3.4,41.8,3.4
	c0,0,0.1,0,34.2,1.1c15.1,0,30.5-0.5,45.7-1.6c20.9-1.5,42.4-4.2,64.1-7.9c0.8-0.1,1.6-0.3,2.4-0.5c0.1,0,0.1,0,0.2,0
	c0.7-0.1,1.4-0.3,2-0.4c7.1,0.3,12,3,15,8.2c1.3,2.3,2.3,5,2.9,8.4c-14.3,89.6-14.3,181.4,0,272.8
	C337.9,315.2,332.9,319.8,324,320.6z"/>
</svg>
