<?xml version="1.0" encoding="utf-8"?>
<!-- Generator: Adobe Illustrator 19.2.0, SVG Export Plug-In . SVG Version: 6.00 Build 0)  -->
<svg version="1.1" id="Capa_1" xmlns="http://www.w3.org/2000/svg" xmlns:xlink="http://www.w3.org/1999/xlink" x="0px" y="0px"
	 viewBox="0 0 425.2 425.2" style="enable-background:new 0 0 425.2 425.2;" xml:space="preserve">
<g>
	<polygon points="338,253.2 413.8,237.1 380.1,213.4 353.6,194.7 348.7,191.3 353.3,188.3 389.7,164.4 397.4,159.3 398.5,158.6 
		397.4,158.4 389.8,156.6 334.4,144 360.4,94.3 378.3,60.2 301.7,101.9 287.3,109.8 287.2,103.5 287,41.3 238.6,108.9 237.4,110.6 
		234.4,104.6 197.1,31.6 176.3,98.8 120.9,34.9 122.7,116.9 76.8,94.8 98.4,143.2 16.6,139.2 76.1,178.4 87.8,186.1 79.7,191.6 
		29.2,226.3 88.9,226 100.4,226 93,241.4 54.9,320.4 141.2,267.7 143.2,266.5 143,267.2 128.2,338.1 183.6,268.5 205.6,349 
		235.1,280.6 275.6,320.9 295.1,257.5 353.3,295.1 	"/>
	<polygon points="37.5,70.2 49.1,54.1 67.3,56.1 56.7,42.7 67.2,25.9 49,33.7 37.2,21.3 36.6,39.6 18.9,48.7 36.6,52.2 	"/>
	<polygon points="348.3,317.5 332.8,340.6 308,334.5 321.9,358 307.6,382.8 331.8,373.3 346.8,394.5 348.3,365.9 372.9,353.7 
		348.7,345.3 	"/>
</g>
</svg>
