<?xml version="1.0" encoding="utf-8"?>
<!-- Generator: Adobe Illustrator 19.2.0, SVG Export Plug-In . SVG Version: 6.00 Build 0)  -->
<svg version="1.1" id="Capa_1" xmlns="http://www.w3.org/2000/svg" xmlns:xlink="http://www.w3.org/1999/xlink" x="0px" y="0px"
	 viewBox="0 0 425.2 425.2" style="enable-background:new 0 0 425.2 425.2;" xml:space="preserve">
<path d="M404.8,143.8c-2.3-17.6-3.5-39.5-15-54.1c-8-10.1-19.3-16.4-31.1-21.2c-31.7-13-68.4-14.9-102.3-15.6
	c-36.6-0.8-73.3,1.5-109.7,5.3c-13.7,1.4-28.5,2-42.1,5.5c-13.3,2.5-25.8,7.2-34.9,17.9c-21.5,25.2-21.3,65.4-17.6,96.3
	c4.3,35.6,17,73.6,42.1,100.1c-7.8,10.6-18.1,19.8-27.3,29.1c-17.6,17.8-35,35.7-51.8,54.3c-2.6,2.9-1.7,7.5,1.9,7.2
	c0.5,3.6,3.5,6.2,8.5,3.8c40.3-18.9,81.6-38.6,125-49c48.4-11.6,101,0.8,149.6,5.2c18.8,1.7,38.7,2.9,57-2.6
	c17.4-5.2,27.5-19.2,35-35.1C413.3,246.3,411.2,191.5,404.8,143.8z M388,240.7c-2.8,22.4-8.9,46.2-23.4,64
	c-3.4,4.2-8.4,6.8-14.1,8.4c-11.8,3.4-26.7,2.4-36.6,2c-49.8-2-98.8-13.9-148.8-9c-6.2,0.6-12.4,1.6-18.5,3
	C126.5,313.4,107,321,88,328.6c-11.4,4.6-22.8,9.4-34.1,14.4c-5.1,2.2-10.2,4.5-15.2,6.8c-1.4,0.6-2.8,1.3-4.3,1.9
	c12.6-13.5,25.5-26.7,38.4-39.8c9-9.1,18.7-18.2,26.6-28.4c1.2-1.5,2.3-3,3.3-4.5c0.3-0.4,0.6-0.8,0.9-1.2c0.1-0.1,0.1-0.2,0.2-0.3
	c0.4-0.5,0.6-1,0.8-1.5c0.5-1.4,0.3-2.4-0.4-3.1c-0.2-0.3-0.3-0.6-0.6-0.8c0,0-0.1-0.1-0.1-0.1c-9.4-9.4-16.9-20.3-23-32.2
	c-12-23.5-18.1-50.7-20.4-76.2C57.9,137,58.8,88,89.4,76.4c0.6-0.2,1.2-0.5,1.9-0.7c11.3-3.6,24.4-3.9,36.1-5.3
	c16.6-1.9,33.3-3.4,50-4.5c37.9-2.5,76.2-3.1,114,1.1c26.6,2.9,63,8.2,81.4,30.4c0.2,0.3,0.5,0.5,0.7,0.8c4.3,5.4,6,11.4,7.5,18
	c3.1,13.9,5.3,28,6.9,42.2C391.1,185.7,391.4,213.4,388,240.7z"/>
</svg>
