<?xml version="1.0" encoding="utf-8"?>
<!-- Generator: Adobe Illustrator 19.2.0, SVG Export Plug-In . SVG Version: 6.00 Build 0)  -->
<svg version="1.1" id="Capa_1" xmlns="http://www.w3.org/2000/svg" xmlns:xlink="http://www.w3.org/1999/xlink" x="0px" y="0px"
	 viewBox="0 0 425.2 425.2" style="enable-background:new 0 0 425.2 425.2;" xml:space="preserve">
<g>
	<path d="M184.1,40.4C91,54.3,20.7,110.6,19.1,185.6c-1.1,55.5,64.2,120,183.1,107.3c23.5-2.5,48.5-7.1,72.8-14.2
		c-0.8-7.7,0.4-15.5,3.7-22.8c6.8-17,23.8-29.6,44.2-32.7c16-2.4,31.3,1.6,42.7,9.9c23.9-20.7,39.4-47.1,39.8-80.3
		C405.9,107.2,360.8,14,184.1,40.4z"/>
	<path d="M369.2,249.2c-2.3-4.4-5.4-8.3-9.3-11.5c-9.6-8.1-23.6-12.2-38.2-10c-17.6,2.6-31.5,13.6-37.1,27.3
		c-2.7,6-3.8,12.7-2.8,19.5c0.1,0.6,0.2,1.3,0.3,1.9c1.1,5.3,3.4,10.1,6.6,14.2c9.2,11.9,26.1,18.6,44,15.9
		c17.6-2.6,31.5-13.5,37.1-27.3c2.7-6.1,3.8-12.7,2.8-19.5C372.1,256,370.9,252.5,369.2,249.2z"/>
	<path d="M324.2,321c-5.7-4.8-14.1-7.2-23-6c-0.2,0-0.5,0-0.7,0.1c-10.8,1.6-19.4,8.1-22.8,16.2c-1.7,3.6-2.3,7.5-1.7,11.5
		c1.9,12.6,15.8,20.9,31,18.6c10.8-1.6,19.4-8.1,22.9-16.2c1.7-3.6,2.4-7.4,1.8-11.5C330.9,328.6,328.2,324.3,324.2,321z"/>
	<path d="M281.1,365.5C281.1,365.5,281.1,365.5,281.1,365.5c-3.6-2.6-8.6-3.9-13.8-3.1c-6.6,1-11.8,4.9-13.9,9.9
		c-1,2.2-1.4,4.6-1.1,7c1.1,7.7,9.6,12.7,18.9,11.4c6.6-1,11.9-4.9,14-9.9c1-2.2,1.4-4.5,1.1-7C285.8,370.4,283.9,367.5,281.1,365.5
		z"/>
</g>
</svg>
