<?xml version="1.0" encoding="utf-8"?>
<!-- Generator: Adobe Illustrator 19.2.0, SVG Export Plug-In . SVG Version: 6.00 Build 0)  -->
<svg version="1.1" id="Capa_1" xmlns="http://www.w3.org/2000/svg" xmlns:xlink="http://www.w3.org/1999/xlink" x="0px" y="0px"
	 viewBox="0 0 425.2 425.2" style="enable-background:new 0 0 425.2 425.2;" xml:space="preserve">
<g>
	<path d="M383.1,359.9c-0.9-8.7-8.6-15.1-17.2-14.2c-8.6,0.9-14.9,8.8-14,17.5c0.9,8.7,8.6,15.1,17.3,14.2
		C377.7,376.5,384,368.7,383.1,359.9z M366.1,369.1c-5.4,0.6-10.2-3.4-10.8-8.9c-0.6-5.5,3.4-10.4,8.8-10.9
		c5.4-0.6,10.2,3.4,10.8,8.9C375.4,363.6,371.5,368.5,366.1,369.1z"/>
	<path d="M392,397.8c-0.5-5-4.9-8.6-9.8-8.1c-4.9,0.5-8.5,5-8,9.9c0.5,5,4.9,8.6,9.8,8.1C389,407.2,392.5,402.7,392,397.8z
		 M385.2,405.2c-2.4,0.3-4.5-1.5-4.8-3.9c-0.2-2.4,1.5-4.6,3.9-4.8c2.4-0.3,4.5,1.5,4.8,3.9C389.3,402.8,387.6,404.9,385.2,405.2z"
		/>
	<path d="M361.8,311.4c-1.6-15.8-15.6-27.3-31.2-25.6c-15.6,1.7-26.9,15.8-25.3,31.6c1.6,15.8,15.6,27.3,31.2,25.6
		C352.2,341.4,363.5,327.2,361.8,311.4z M338,339.5c-10.2,1.1-19.4-6.4-20.5-16.8c-1.1-10.4,6.4-19.6,16.6-20.7
		c10.2-1.1,19.4,6.4,20.5,16.8C355.7,329.2,348.2,338.5,338,339.5z"/>
	<path d="M344.1,200.6c11.4-27.4,0.9-59.7-25.3-74.6c-3.2-1.8-6.4-3.3-9.8-4.4c0.9-3.9,1.5-7.9,1.8-12c2.3-37.4-25.8-69.5-62.6-71.8
		c-2.1-0.1-4.2-0.2-6.2-0.1c-0.5,0-0.9,0-1.4,0.1c-0.3,0-0.5,0-0.8,0c-1.3,0.1-2.6,0.2-3.9,0.4c0,0,0,0,0,0
		C225,28.1,210.6,22.6,196,22.7c-0.4,0-0.9,0-1.3,0c-0.3,0-0.5,0-0.8,0c-7,0.3-13.9,1.9-20.6,4.8c0,0-0.1,0-0.1-0.1
		c-10.5-6.3-22.7-9.8-35.7-9.8c-1.2,0-2.4,0-3.6,0.1c-37.2,1.9-66.9,33.1-66.9,71.4c0,3.3,0.2,6.4,0.6,9.4
		c-18.3,9.3-30.8,28.4-30.8,50.5c0,6.8,1.2,13.3,3.4,19.4c-7.7,14.5-9.4,32.2-3.2,48.8c0.2,0.6,0.5,1.2,0.8,1.9
		c-3,10.1-3.3,21.1-0.2,31.9c6.9,24.3,28.4,40.3,52.1,40.9c0.1,0,0.3,0,0.4,0c0.6,0,1.2,0,1.8,0c0.5,0,1.1,0,1.6,0
		c0.2,0,0.4,0,0.7,0c2.6-0.1,5.1-0.5,7.7-1c18.1,33.2,62.3,49.4,106.4,36.6c12.5-3.6,23.8-9.2,33.5-16.3c0,0,0,0,0.1,0
		c4.8,1.2,9.7,1.9,14.6,1.9c0.5,0,1.1,0,1.6,0c0.2,0,0.5,0,0.7,0c10.2-0.4,20.4-3.5,29.6-9.6c6.9-4.5,12.4-10.3,16.7-16.7
		c1.7-0.7,3.3-1.5,5-2.4C340.1,268,353.8,232.6,344.1,200.6z M303.2,287.3c-3.1,3-6.5,5.7-10.2,8.2c-26.2,17.3-59.6,14.4-82.4-5
		c7.9,10.1,18.5,17,30.1,20.2c0,0-0.1,0-0.1,0.1c-0.6,0.3-1.2,0.6-1.8,1c-6.9,3.7-14.2,6.7-22.1,9c-43.2,12.5-86.6-1.6-107.3-32
		c7.6-2.7,14.3-6.9,19.8-12.2c-5.3,3.8-11.3,6.9-17.9,8.8c-1.2,0.3-2.3,0.6-3.5,0.9c-3.5-5.6-6.3-11.8-8.1-18.4
		c-3.7-13-3.5-26.4-0.1-39.2c-6.5,15.3-8,31.9-3.5,48c1.1,3.7,2.4,7.3,4,10.7c-27.1,2.3-52.9-15-60.7-42.5
		c-2.4-8.6-2.8-17.3-1.5-25.5c3.3,8,8.2,14.9,14.1,20.5c-3.5-4.9-6.3-10.3-8.5-16.2c-11-29.7-0.9-62.1,22.7-80.5
		c-11,5.4-19.6,13.9-25.3,24c-0.8-3.9-1.3-8-1.3-12.2c0-21.8,11.6-40.8,29-51c1.2,5.7,3.1,11,5.8,16.3c-2.1-6-3.2-11.4-3.6-17.6
		C78.8,98.5,88,96,97.7,96c9.4,0,18.3,2.3,26.2,6.3c-9-6.2-19.8-9.8-31.4-9.8c-7.8,0-15.2,1.6-21.9,4.5c0-0.1,0-0.2,0-0.4
		c0-41.2,32.9-74.6,73.6-74.6c10.1,0,19.7,2.1,28.4,5.8c-1.6,0.7-3.1,1.5-4.6,2.4c-8.2,4.7-14.9,11.1-19.8,18.5
		c4.2-4.2,9.1-7.9,14.5-11c22.5-12.8,49-11.5,69.6,1c-5.2,1-10.3,2.5-15.1,4.7c5.7-1.7,11.8-2.6,18-2.8c3.3,2.2,6.4,4.8,9.4,7.6
		c-1.9-2.7-3.9-5.3-6.1-7.6c0.8,0,1.7,0,2.5,0.1c38.5,2.4,67.7,36,65.3,75c-0.1,1.6-0.3,3.3-0.5,4.9c-4.3-1.2-8.6-1.9-12.9-2
		c4.2,1.1,8.4,2.6,12.5,4.6c-1.4,8.7-4.4,16.7-8.6,24c5.1-6.6,9-14.2,11.4-22.6c0.5,0.3,1,0.5,1.5,0.8
		c26.8,15.2,39.8,45.8,34.3,74.8c-1.3-4-2.9-8-4.9-11.9c-5.4-10.4-12.9-18.8-21.8-25.1c6,5.6,11.2,12.3,15.3,20.1
		c18.8,36.2,5.2,81-30.5,100.1c-10.5,5.6-21.7,8.4-32.8,8.6C280.5,293.2,292.1,291.8,303.2,287.3z"/>
</g>
</svg>
