<?xml version="1.0" encoding="utf-8"?>
<!-- Generator: Adobe Illustrator 19.2.0, SVG Export Plug-In . SVG Version: 6.00 Build 0)  -->
<svg version="1.1" id="Capa_1" xmlns="http://www.w3.org/2000/svg" xmlns:xlink="http://www.w3.org/1999/xlink" x="0px" y="0px"
	 viewBox="0 0 425.2 425.2" style="enable-background:new 0 0 425.2 425.2;" xml:space="preserve">
<path d="M390.4,131.5c-4.3-5.1-9.4-9.7-15.2-13.7c-17.5-12.2-41-19.4-66.9-19.4c-7.7,0-15.1,0.8-22.3,2c-3.8-5.5-8.4-10.7-13.8-15.3
	c-20.7-24-58.8-38.9-101.8-38.9c-31.9,0-60.9,8.3-82.5,22.2c-21.5,13.9-35.9,34.1-35.9,57c0,6.2,1.4,12.2,3.4,18
	c-26,12-44.4,32.6-44.4,57.5c0,17,8.7,32.3,22.4,44c4.5,5.4,10,10.2,16.3,14.4c18,12.1,42.2,19.3,68.8,19.3c0.5,0,1,0,1.5,0
	c-0.1,36.6-14.9,71.4-38.1,105.1c37.8-22.9,78.4-42.4,105.9-77.9c16,7.6,35.1,12,55.5,12c27.7,0,52.9-7.9,71.6-21.3
	c18.7-13.4,31-32.7,31-54.3c0-0.2,0-0.3,0-0.5c17.8-4,33.5-11.4,45.3-21.7c13.3-11.6,21.8-27,21.8-43.9
	C413,158.7,404.2,143.2,390.4,131.5z M338,235.8c0.3,2.1,0.4,4.2,0.4,6.4c0,37.6-42.6,68.1-95.1,68.1c-6.9,0-13.6-0.5-20.1-1.5
	c-11.1-1.7-21.5-4.8-30.8-9.1c12-17.3,21-38.3,25.4-65c-9.3,20.8-22.3,40.1-38.4,57.9c-1,1.1-2,2.2-3,3.3c-0.7,0.8-1.4,1.5-2.2,2.3
	c-17.4,18.2-38,34.8-61.4,50.1c12.6-21.1,15.7-46.3,13-69.7c-0.3-2.5-0.7-5-1.1-7.5c-0.1-0.6-0.2-1.2-0.3-1.8
	c-1.8-9.6-4.4-18.8-7.7-27l-1.5,0.2c2.5,9.2,4,18.3,4.5,27.3c0,0.5,0.1,1,0.1,1.5c-0.4,0-0.9,0-1.3,0c-7.1,0-13.9-0.6-20.5-1.6
	c-40.5-6.3-70.8-30.8-70.8-60c0-22.9,18.7-42.9,46.4-53.5c-3.4-6.9-5.3-14.3-5.3-22c0-39.6,49.7-71.7,110.9-71.7
	c52.7,0,96.9,23.9,108.1,55.8c9.3-2.3,19.3-3.6,29.8-3.6c44.1,0,80.7,22.4,87.4,51.8c0.7,3.2,1.1,6.4,1.1,9.7
	C405.5,205,376.8,229.2,338,235.8z"/>
</svg>
