<?xml version="1.0" encoding="utf-8"?>
<!-- Generator: Adobe Illustrator 19.2.0, SVG Export Plug-In . SVG Version: 6.00 Build 0)  -->
<svg version="1.1" id="Capa_1" xmlns="http://www.w3.org/2000/svg" xmlns:xlink="http://www.w3.org/1999/xlink" x="0px" y="0px"
	 viewBox="0 0 425.2 425.2" style="enable-background:new 0 0 425.2 425.2;" xml:space="preserve">
<path d="M328.4,41.7c-0.6-3.5-1.6-6.3-2.9-8.6c-3-5.3-8-8-15.3-8.3c-0.7,0.1-1.4,0.2-2.1,0.4c-0.1,0-0.1,0-0.2,0
	c-0.8,0.2-1.7,0.3-2.5,0.5c-22.1,3.8-44,6.6-65.3,8.1c-15.5,1.1-31.1,1.6-46.5,1.6c-34.8-1.1-34.9-1.1-34.9-1.1
	c0,0-42.4-3.4-42.6-3.4c-13.3-1.8-25.5-3.8-37.4-6c-0.5,0.1-1,0.1-1.5,0.3c-2.1,0.4-3.9,1.2-5.4,2.4c-3.7,2.9-5.6,8.1-5.8,15.3
	c12.1,89.6,12.3,181,0.7,271.9c-0.1,0.9-0.3,1.7-0.4,2.5c0,0.3-0.1,0.6-0.1,0.9c-0.1,0.5-0.1,1-0.2,1.5c0,0.1,0,0.2,0,0.3l0,0
	c0.2,4.9,1.9,8.5,5,10.8c2.3,1.7,5.6,2.8,9.9,3.3c31.7-4.7,64.2-7.3,96.5-8c0.7-0.1,1.3-0.1,1.9-0.1h0.1c2.6-0.1,5.1-0.1,7.7-0.1
	l0-0.2l0.2,0.2c0.4,0,0.8,0,1.2,0c1.4,0,1.8,0,1.8,0.8l-0.2,1.2c-0.1,0.4-0.1,0.8-0.2,1.2l0.2,0.2H190c-0.6,3.5-0.6,3.5-0.6,3.5
	c-0.4,1.8-0.8,3.6-1.2,5.5l-0.1,0.2c0,0-0.2,0.7-0.2,0.9l0,0.1c-3.3,13.5-8.8,26.5-16.3,38.5c-5.4,8.5-11.8,16.4-19.1,23.6
	c-3.8,3.8-8.2,7.7-13.2,11.7c5.2-2.9,10.4-6,15.6-9.4c-0.1-0.6,0.2-1.2,0.8-1.6c0.3-0.2,0.7-0.4,1-0.7c0.4-0.3,0.8-0.5,1.1-0.8
	c27.3-18.5,51.7-43.2,72.4-73.4l0.5-0.8l0.9,0c6.4,0.2,13.5,0.7,21.7,1.3c19.9,1.4,39.9,3.4,59.5,6.1c9-0.8,14.1-5.5,15.5-14.3
	C313.8,226.6,313.8,133,328.4,41.7z"/>
</svg>
