<?xml version="1.0" encoding="utf-8"?>
<!-- Generator: Adobe Illustrator 19.2.0, SVG Export Plug-In . SVG Version: 6.00 Build 0)  -->
<svg version="1.1" id="Capa_1" xmlns="http://www.w3.org/2000/svg" xmlns:xlink="http://www.w3.org/1999/xlink" x="0px" y="0px"
	 viewBox="0 0 425.2 425.2" style="enable-background:new 0 0 425.2 425.2;" xml:space="preserve">
<g>
	<polygon points="325.3,243.5 413.4,201.8 299.5,199.4 335,145.8 276.8,177.3 265.7,114.7 212.5,162.6 206.9,155.5 201.7,165.9 
		190.9,174 199.8,146.6 189.9,134.2 158.6,172.9 128.3,147.8 123,185.6 57.9,157 72.7,219.7 15.6,229.2 58.9,266.2 15.3,296.7 
		66.2,299.6 34.4,360.1 100.6,335.8 120.4,374.5 153.3,345 185.4,416.5 207.7,338.9 245.8,359.2 258.8,319.6 314.5,345 301.5,287.3 
		351.2,290 	"/>
	<polygon points="203.3,140.9 200.9,148 194,168.7 202.9,150.6 206,144.3 233.5,88.7 204.9,93.2 246.5,24.4 217,24.5 189.2,105.3 
		216,102.8 	"/>
</g>
</svg>
