<?xml version="1.0" encoding="utf-8"?>
<!-- Generator: Adobe Illustrator 19.2.0, SVG Export Plug-In . SVG Version: 6.00 Build 0)  -->
<svg version="1.1" id="Capa_1" xmlns="http://www.w3.org/2000/svg" xmlns:xlink="http://www.w3.org/1999/xlink" x="0px" y="0px"
	 viewBox="0 0 425.2 425.2" style="enable-background:new 0 0 425.2 425.2;" xml:space="preserve">
<g>
	<path d="M331.5,44.7c-4.9-3.1-10-6-15.1-8.6c-81.1-41.6-151.1-11.4-170.6-1.2C105.1,56.2,49.5,115.1,63,190
		c7.1,39.2,34.3,67.5,59.9,86.1L68.5,367l33.5-5.4l27.5-80.8c2.2,1.5,4.3,2.9,6.4,4.2v0c10.2,6.4,21.2,12.1,31.9,16.7L246.3,411
		l6.8-95.8c4.3,0,8.1-0.1,11.3-0.3c39.1-2.9,108.7-20.6,135.2-105.8C419.4,145.3,394,83.9,331.5,44.7z M395.3,205.1
		c-23.9,76.9-86.1,96.3-127.2,99.4c-5.2,0.4-11.8,0.4-19.1,0.2l-5.6,79.3l-65.3-91c-13.1-5.4-29-13.6-44.3-24.7l7.9-23.3l-12.1,20.2
		c-24.7-18.7-47.2-44.8-53.2-78.1c-12.8-71,41.2-126.2,78-145.5c39.1-20.5,100.5-30.5,162.3,1.2C371.5,70.9,419.3,128.2,395.3,205.1
		z"/>
	<polygon points="20.5,273.7 21.8,290.3 91.6,248.9 	"/>
</g>
</svg>
