<?xml version="1.0" encoding="utf-8"?>
<!-- Generator: Adobe Illustrator 19.2.0, SVG Export Plug-In . SVG Version: 6.00 Build 0)  -->
<svg version="1.1" id="Capa_1" xmlns="http://www.w3.org/2000/svg" xmlns:xlink="http://www.w3.org/1999/xlink" x="0px" y="0px"
	 viewBox="0 0 425.2 425.2" style="enable-background:new 0 0 425.2 425.2;" xml:space="preserve">
<path d="M402.3,168.6c-6.3-5.9-13.4-10.1-21.2-12.8c-3.4-1.1-6.8-2-10.5-2.5c-0.8-0.1-1.7-0.2-2.5-0.3c-0.8-0.1-1.5-0.2-2.3-0.2
	c0,0-0.1,0-0.1,0c-1.6-0.1-3.3-0.2-5.1-0.2c-4.3,0-8.3,0.4-12.1,1c-0.2,0-0.4,0.1-0.5,0.1c-0.4,0.1-0.8,0.2-1.1,0.2
	c-0.4,0.1-0.7,0.2-1.1,0.2c-0.1,0-0.1,0-0.2,0c0.7,1.9,1.1,3.9,1.1,6c0,7.9-5.1,14.6-15.1,19.9c-0.1,0-0.2,0.1-0.2,0.1
	c-0.1,0.1-0.2,0.2-0.3,0.2c-0.7,0.4-1.5,0.5-2.2,0.5c-0.5,0-0.9-0.1-1.3-0.2c-0.4-0.1-0.7-0.4-1-0.7l-1.5,0.7l1.3-1
	c0-0.1,0-0.2,0-0.2c-0.1-0.3-0.1-0.6,0-0.8c0.3-0.9,1.2-1.4,2.1-1.2c0.3,0.1,0.6,0.1,1-0.1c0.2-0.2,0.5-0.3,0.7-0.4
	c8.8-4.7,13.2-10.3,13.2-16.8c0-2.2-0.5-4.4-1.6-6.3c0,0,0,0,0,0v0c-1.3-2.5-3.5-4.9-6.4-7.2c-1.4-1.1-3-2.1-4.8-3.1
	c-0.3-0.2-0.7-0.4-1-0.6l-1.1-0.6c-0.1,0-0.2-0.1-0.2-0.1l0,0c-2.3-1.1-4.8-2.1-7.4-3c-5.7-1.9-12.1-3.1-18.9-3.6
	c-2.3-0.2-4.7-0.2-7.2-0.2c-6.2,0-11.9,0.5-17.3,1.6c-3.1,0.6-6.1,1.4-8.9,2.3c-0.3,0.1-0.7,0.2-1,0.3c-0.3,0.1-0.7,0.3-1,0.4
	c-0.8,0.3-1.6,0.6-2.3,0.9c0,0,0,0,0,0c0,0,0,0,0,0c0,0,0,0,0,0c0,0,0,0,0,0c-1.5,0.6-3,1.3-4.2,2c-1.8,0.9-3.4,2-4.9,3
	c-1.1,0.8-2.2,1.7-3.1,2.5c-0.3,0.3-0.7,0.5-1.2,0.5c-0.5,0-0.9-0.2-1.2-0.5c-0.3-0.3-0.5-0.8-0.5-1.2c0-0.5,0.2-0.9,0.5-1.2
	c0.4-0.3,0.8-0.7,1.2-1c1.2-1.1,2.6-2.1,4.1-3c1.1-0.7,2.3-1.4,3.5-2c1-0.6,2.1-1.2,3.3-1.7c-1.8-8.9-6.8-16.9-15-23.8l0,0
	c-0.2-0.2-0.4-0.3-0.5-0.5c-1.7-1.4-3.4-2.7-5.2-3.9c2,3.1,3.7,6.3,5,9.7c-1.4-3.4-3.1-6.6-5.1-9.7c-1.1-0.7-2.1-1.4-3.3-2
	c-3.1-1.8-6.3-3.2-9.7-4.3c-4.7-1.6-9.6-2.5-14.8-2.9c-1.8-0.1-3.6-0.2-5.5-0.2l-0.8,0c-4.6,0-9,0.4-13.1,1.2
	c-9.9,1.9-18.7,6-26.2,12.2c-8.8,7.2-14.1,15.8-15.7,25.7c0.6-0.1,1.2-0.2,1.9-0.3c0.4,0,0.7-0.1,1.1-0.1c0.4,0,0.7,0,1.1,0
	c0.3,0,0.6,0,1,0c5.1,0,9.4,1.3,12.9,4c0.2,0.1,0.3,0.3,0.5,0.4c1.2,0.9,2.2,1.9,2.9,3c0.7,0.9,1.2,1.9,1.6,2.9
	c0.4,1.1,0.7,2.3,0.7,3.6c0,0.2,0,0.4-0.1,0.6c0,0.1,0,0.5,0,0.8c0,0.9-0.8,1.7-1.7,1.7c-0.4,0-0.7-0.1-1-0.3l-0.4,1.8l-0.1-2.3
	c-0.1-0.2-0.2-0.5-0.2-0.8c0-0.5,0-1,0.1-1.5c-0.2-2.8-1.5-5-4.3-7.1c-0.9-0.7-1.9-1.2-2.9-1.7c-1.4-0.6-2.9-1.1-4.6-1.3
	c-1.1-0.2-2.2-0.2-3.4-0.2c-0.6,0-1.1,0-1.6,0.1c-0.3,0-0.6,0.1-0.9,0.1c-0.1,0-0.1,0-0.1,0c-0.4,0-0.8,0.1-1.1,0.2
	c-1,0.2-1.9,0.4-2.7,0.7c0,0,0,0,0,0c0,0,0,0,0,0c-0.7,0.2-1.5,0.5-2.2,0.9c-0.3,0.2-0.7,0.3-1,0.5c-0.3,0.2-0.6,0.4-1,0.6
	c-0.1,0.1-0.2,0.1-0.3,0.2c-0.1,0.1-0.3,0.2-0.4,0.2c0,0,0,0,0,0c0,0,0,0,0,0c-1.7,1.3-2.8,2.7-3.4,4.2c-0.3,0.9-0.5,1.8-0.4,2.8
	c0,0.3,0,0.6,0.1,0.9c0.1,0.4,0,0.9-0.2,1.3c-0.2,0.4-0.6,0.7-1,0.8c-0.1,0-0.3,0.1-0.4,0.1c-0.8,0-1.5-0.5-1.7-1.3
	c-0.2-0.6-0.2-1.2-0.2-1.7c0-1,0.1-2.1,0.3-3c0.3-1.2,0.8-2.4,1.6-3.5c0.5-0.7,1.1-1.4,1.8-2c-2.5-2.3-5.1-4-8-5.3
	c-0.4-0.2-0.9-0.4-1.3-0.5c-0.8-0.3-1.5-0.6-2.3-0.8c-1.1-0.3-2.2-0.6-3.4-0.8c-0.2,0-0.5-0.1-0.8-0.1c-1.4-0.2-2.9-0.3-4.5-0.2
	l-0.5,0c-1.5,0-3,0.1-4.5,0.3c-6.8,1-12.7,4.2-17.9,9.9c-4.4,4.6-7.2,9.9-8.6,16.2c0.6,0.2,1.2,0.4,1.7,0.6c0.3,0.1,0.7,0.2,1,0.4
	c0.3,0.1,0.7,0.3,1,0.4c1.2,0.5,2.4,1.1,3.5,1.7c0.3,0.2,0.6,0.5,0.7,0.9c0,0.1,0,0.1,0.1,0.2c0.1,0.3,0.1,0.7,0,1
	c0,0.1-0.1,0.2-0.1,0.3c-0.1,0.2-0.3,0.4-0.6,0.6c-0.3,0.2-0.6,0.3-0.9,0.3c-0.3,0-0.6-0.1-0.8-0.2c-1.6-0.9-3.3-1.7-5.2-2.3
	c-0.9-0.3-1.8-0.6-2.8-0.9l0,0c-2.5-0.7-5.1-1.1-7.7-1.4c-1.5-0.1-3-0.2-4.6-0.2c-2.9,0-5.7,0.2-8.3,0.7c-6.4,1.1-12.1,3.5-17.1,7.3
	c-6.9,5.1-10.3,11.4-10.2,18.6c-0.1,2.3,0.2,4.5,0.9,6.5c0.3,0,0.6,0.1,1,0.1c0.4,0,0.8,0.1,1.1,0.1c0.4,0.1,0.8,0.1,1.1,0.2
	c0.7,0.1,1.4,0.2,2,0.4c0.9,0.2,1.5,1.1,1.3,2c0,0,0,0,0,0.1c-0.1,0.4-0.3,0.7-0.6,1c-0.3,0.2-0.7,0.4-1,0.4c-0.1,0-0.3,0-0.4,0
	c-0.1,0-0.3-0.1-0.4-0.1h0c-0.6-0.1-1.3-0.3-2-0.4c0,0,0,0-0.1,0c-1-0.1-2-0.2-3.1-0.3c-0.1,0-0.1,0-0.2,0c0,0,0,0,0,0
	c0,0,0,0-0.1,0c-1.1-0.1-2-0.2-3-0.2c-2.4,0-4.6,0.2-6.8,0.6c-5,0.8-9.5,2.6-13.2,5.4c-2.1,1.5-3.9,3.4-5.2,5.3
	c-0.2,0.4-0.5,0.7-0.7,1.1c-1.3,2.3-2,4.7-2,7.4c-0.1,3.3,0.9,6.3,3,9.1c0.9,1.3,2.1,2.4,3.5,3.6c0.4,0.4,0.9,0.7,1.4,1.1
	c1.2,0.9,2.5,1.7,3.9,2.4c4.6,2.4,10,3.6,16.1,3.6c3,0,5.9-0.3,8.6-0.9c-2.9-3.4-4.4-7.3-4.4-11.5c-0.1-1.8,0.1-3.6,0.8-5.3
	c0.1-0.3,0.2-0.6,0.3-0.9c0,0,0,0,0-0.1c0.7-1.8,1.5-3.3,2.6-4.7c0.6-0.7,1.7-0.8,2.4-0.3c0.4,0.3,0.6,0.7,0.6,1.1
	c0.1,0.5-0.1,0.9-0.4,1.3c-0.8,1-1.4,2.1-1.9,3.3c-0.2,0.4-0.4,0.9-0.5,1.4c-0.1,0.3-0.2,0.6-0.3,0.8c-0.3,1-0.4,2.1-0.3,3.2
	c0,3.1,1,5.9,2.9,8.5c0.7,1,1.6,1.9,2.5,2.8c0,0,0,0,0,0c0,0,0,0,0,0c0.3,0.3,0.7,0.7,1.1,1c0.4,0.4,0.9,0.8,1.5,1.2c0,0,0,0,0,0
	c0.5,0.3,1,0.7,1.5,1.1c0,0,0,0,0,0c0.4,0.3,0.8,0.5,1.3,0.8c0.6,0.3,1.2,0.7,1.8,1c7.2,3.8,15.9,5.8,26,5.8c4.1,0,7.6-0.3,10.8-0.8
	c0,0,0,0,0,0h0c6.1-1,11.8-3,16.8-6c6.3-3.7,9.9-8.1,10.9-13.1c-0.1-0.2-0.1-0.4-0.1-0.6l-0.8-1.9l1,1c0,0,0,0,0,0v-1.3l0.4,0.8
	c0.1-0.1,0.3-0.2,0.4-0.3c0.1,0,0.2-0.1,0.3-0.1l-1-1.9l-0.8-1.6l0,0l0,0l0.5,0.6l2.7,3.2c0.1,0,0.1,0.1,0.2,0.1
	c0.2,0.2,0.3,0.4,0.4,0.5c0.1,0.2,0.2,0.3,0.3,0.5l1.5,2.9l0.8,1.5l0.3,0.5l-0.3-0.4l-0.9-1l-1.5-1.8c-0.1,0.4-0.2,0.8-0.3,1.2
	c-1.5,5.4-5.6,10.2-12.2,14.1c-4,2.4-8.4,4.2-13.1,5.4c-0.3,0.1-0.6,0.1-0.8,0.2c0,0,0,0,0,0c-0.2,0-0.3,0.1-0.5,0.1c0,0,0,0-0.1,0
	c-0.2,0-0.4,0.1-0.6,0.1c0.1,0.1,0.1,0.2,0.2,0.2c0,0,0,0,0,0c0.2,0.2,0.4,0.4,0.6,0.6c0.3,0.3,0.6,0.6,0.9,0.9c0,0,0,0,0.1,0.1
	c0.3,0.3,0.6,0.6,1,0.9c2.7,2.5,6.1,4.9,10.1,7.2c0.2,0.1,0.5,0.3,0.7,0.4c10.2,6,23.8,10.3,40.3,12.9c0.7,0.1,1.3,0.7,1.4,1.5
	c0,0.2,0,0.4,0,0.6c-0.1,0.3-0.2,0.6-0.4,0.8c-0.1,0.1-0.1,0.1-0.2,0.2c-0.1,0.1-0.2,0.1-0.3,0.2c-0.5,0.2-0.9,0.4-1.3,0.6
	c-4.1,1.9-7.6,3.6-10.6,4.9c-17.2,8-17.2,8-17.2,8c-0.5,0.2-0.9,0.4-1.4,0.6c0.9-0.2,2-0.4,3.1-0.6c1.5-0.3,3.1-0.6,4.8-1
	c0,0,0.1,0,0.1,0c1.2-0.2,2.5-0.4,3.7-0.6c2-0.3,4-0.7,6.2-1.1c1-0.2,2.1-0.4,3.1-0.6c0.4-0.1,0.7-0.1,1-0.2
	c2.8-0.6,4.8-0.9,6.3-0.9c0,0,0,0,0,0c1.2,0,2,0.2,2.6,0.6c0.5,0.3,0.8,0.8,0.9,1.4c0,0.1,0,0.2,0.1,0.3c0,0.1,0,0.2,0,0.3
	c0,0.4-0.2,0.8-0.5,1.1c-0.1,0.1-0.1,0.1-0.2,0.2c-0.5,0.4-1.1,0.7-1.7,1.2c-5.4,3.5-16,9.4-32.8,18.3
	c-10.7,5.6-19.4,10.5-25.8,14.4c1.9-0.7,3.9-1.5,6-2.3c2.2-0.9,4.4-1.7,6.8-2.7c2.5-1,5.1-2,7.8-3.1c8.1-3.2,17.1-6.8,26.8-10.7
	c18.6-7.3,31.8-13.1,39.2-17.1c0.3-0.2,0.7-0.4,1-0.6c-3.1-0.3-6.8-0.9-11.2-1.7c-1-0.2-2-0.4-3.1-0.6c-0.2,0-0.3-0.1-0.5-0.2
	l-0.8-0.5c-0.5-0.3-0.8-0.8-0.9-1.4c0-0.6,0.3-1.2,0.8-1.5c5.7-3.8,11.7-6.6,17.8-8.5c10.1-3.1,19.8-7.4,28.8-12.6
	c1.8-1,3.5-2.1,5.1-3.2l1-0.7c4.1-3.1,7.2-6.3,9.4-9.6c0.5-0.7,1.6-1,2.4-0.5c0.8,0.5,1,1.6,0.5,2.4c-2.3,3.4-5.4,6.6-9.4,9.8
	c0.1,0.4,0.2,0.9,0.3,1.3c0.1,0.4,0.2,0.7,0.3,1.1c0.1,0.4,0.2,0.7,0.4,1c0.6,1.6,1.4,3.2,2.5,4.7c1.3,1.8,2.8,3.6,4.7,5.2
	c0.3,0.3,0.6,0.5,0.9,0.8c1.8,1.5,3.7,2.7,5.8,3.8c5.3,2.8,11.3,4.2,18,4.2c9.3,0,17.1-2.6,23.7-8c1.8-1.5,3.5-3.2,4.8-5
	c-1.2-0.7-2.5-1.4-3.9-2.3c-6-3.9-10.1-8.4-12-13.3c-0.4-1-0.7-1.9-0.9-2.9c0-0.1,0-0.1,0-0.2c-0.3-1.3-0.5-2.7-0.5-4.3v-0.6
	c0-0.8,0-1.6,0.1-2.3c0.2-0.9,1.1-1.5,2-1.3c0.9,0.2,1.5,1.1,1.3,2c-0.1,0.4-0.1,1.1-0.1,1.7v0.6c0,0.5,0,1,0.1,1.5
	c0.1,0.7,0.2,1.3,0.3,2c0.2,1,0.5,2,0.9,2.9c0.5,1.2,1.2,2.4,2,3.6c1.1,1.6,2.5,3.2,4.2,4.6c0,0,0,0,0,0c1.3,1.1,2.8,2.2,4.4,3.3
	c1.3,0.8,2.4,1.5,3.4,2.1c0.6,0.3,1.2,0.7,1.9,0.9c0,0,0,0,0,0c0,0,0,0,0,0c7,3.4,15.2,5.1,24.4,5.1c11.7-0.1,21.5-2.8,29.8-8.1
	c1.2-0.8,2.3-1.6,3.2-2.4c-6.9-2.1-13.4-5.5-19.4-10.1c-0.3-0.2-0.6-0.5-0.8-0.7c-0.2-0.1-0.4-0.3-0.5-0.4c-0.8-0.6-1.6-1.3-2.5-2.1
	l-0.2-0.2l-0.6-0.6c-1-0.9-1.9-1.7-2.7-2.6l-0.3-0.3c-0.7-0.7-0.7-1.7,0-2.4c0.7-0.7,1.8-0.7,2.4,0l0.1,0.1c0.7,0.7,1.5,1.5,2.3,2.2
	c0.2,0.2,0.3,0.3,0.5,0.5l0.4,0.4c0.1,0.1,0.2,0.2,0.3,0.3c0,0,0,0,0,0l0,0c0.7,0.6,1.4,1.2,2.3,1.9l0.2,0.1c0.4,0.3,0.8,0.6,1.2,1
	c0.8,0.6,1.6,1.2,2.5,1.8c0.8,0.6,1.7,1.1,2.6,1.7c0.7,0.4,1.4,0.9,2.2,1.3c4.4,2.5,9.1,4.4,14,5.6c0,0,0,0,0,0c0,0,0,0,0,0
	c4.8,1.2,10.2,1.8,15.9,1.8c16.2,0,30.2-5.4,41.6-15.9c11.4-10.6,17.2-23.5,17.2-38.4C419.6,192,413.8,179.1,402.3,168.6z"/>
</svg>
