<?xml version="1.0" encoding="utf-8"?>
<!-- Generator: Adobe Illustrator 19.2.0, SVG Export Plug-In . SVG Version: 6.00 Build 0)  -->
<svg version="1.1" id="Capa_1" xmlns="http://www.w3.org/2000/svg" xmlns:xlink="http://www.w3.org/1999/xlink" x="0px" y="0px"
	 viewBox="0 0 425.2 425.2" style="enable-background:new 0 0 425.2 425.2;" xml:space="preserve">
<g>
	<path d="M346.2,105.5c-20.6-7.6-42.8-2.4-57.8,11.7c-13.6-12.5-29.7-22.5-48.1-29.3C164.8,60,81,98.6,53.2,174.1
		c-15.4,41.9-10.4,86.3,10,122.3c0.9,2.1,1.9,4.3,2.9,6.6c16.2,35.9-2.2,110.5-2.2,110.5s0.5-0.9,1.6-2.6l-1.6,2.6
		c0,0,36.3-47.6,85-44.7c6.5,0.4,12.8,0.7,18.8,1c11.9,1.5,23.8,1.3,35.4-0.3c54.1-5,103.3-40.3,123.3-94.7
		c7.4-20.2,10.1-40.9,8.6-61c19.6-3,37-16.3,44.3-36.2C390.2,148.6,375.3,116.2,346.2,105.5z M375.7,176.3
		c-6.8,18.3-22.9,30.5-40.9,33.2c-3,0.4-6.1,0.6-9.2,0.5c0.1,1.5,0.3,3,0.3,4.5c1.1,18.2-1.5,36.9-8.2,55
		c-2.5,6.9-5.6,13.4-9.1,19.7c-27,48-80.6,74.7-134.7,68.1c-6.1-0.2-12.3-0.6-18.8-1c-7.9-0.5-15.5,0.4-22.7,2.2
		C95.7,367.6,70.2,401,70.2,401s11.2-45.3,8.4-82.3c-0.8-10.5-2.7-20.3-6.2-28.2c-1.1-2.5-2.1-4.8-3.1-7.1
		c-16.2-32.3-19.5-71-6-107.6c0.9-2.4,1.8-4.7,2.8-7c28.4-65.6,103.5-98.4,171.4-73.3c17.3,6.4,32.6,15.9,45.3,27.8
		c1.3,1.2,2.6,2.5,3.8,3.7c1.7-2.2,3.6-4.2,5.6-6.1c13.8-12.8,34.1-17.6,53-10.7C371.9,120,385.6,149.6,375.7,176.3z"/>
	<path d="M278,90c20.8,7.7,43.9-3,51.6-23.8c7.7-20.8-3-43.9-23.8-51.6c-20.8-7.7-43.9,3-51.6,23.8C246.5,59.2,257.2,82.3,278,90z
		 M257.8,39.7c7-19.1,28.2-28.9,47.3-21.8c19.1,7,28.9,28.2,21.8,47.3c-7,19.1-28.2,28.9-47.3,21.8C260.5,80,250.8,58.8,257.8,39.7z
		"/>
	<path d="M318.9,209.4c-1.5-13.9-5.5-27.7-12.1-41c-6.5-12.9-15-24.3-25-33.9c-1.3-1.3-2.7-2.5-4.1-3.7
		c-32.2-28.4-77.9-39.6-121-28.2c-7.5,2-14.9,4.6-22.1,8c-34.8,16.2-58.7,45.5-68.2,78.8c10.4-28.6,32.2-53.4,62.7-67.6
		c49.3-22.9,106.7-11.4,142.6,24.8c1.6,1.6,3.1,3.2,4.6,4.9c6.8,7.6,12.7,16.2,17.4,25.7c4.4,8.8,7.6,17.9,9.6,27.1
		c0.4,1.9,0.8,3.9,1.1,5.8c8.4,50.5-18,102.3-68.2,125.7c-11.5,5.3-23.4,8.8-35.4,10.5c15.5-1.2,31-5.1,45.8-11.9
		c45.2-21,71.9-64.1,72.9-109.3c0.1-3.6,0-7.3-0.3-10.9C319.2,212.5,319,210.9,318.9,209.4z"/>
</g>
</svg>
