<?xml version="1.0" encoding="utf-8"?>
<!-- Generator: Adobe Illustrator 19.2.0, SVG Export Plug-In . SVG Version: 6.00 Build 0)  -->
<svg version="1.1" id="Capa_1" xmlns="http://www.w3.org/2000/svg" xmlns:xlink="http://www.w3.org/1999/xlink" x="0px" y="0px"
	 viewBox="0 0 425.2 425.2" style="enable-background:new 0 0 425.2 425.2;" xml:space="preserve">
<path d="M408.7,233.7l-51-36.9c-2-1.4-3.2-3.5-3.5-5.9s0.4-4.7,2-6.5l33.7-39.6c0.6-0.7,0.8-1.4,0.7-2c-0.1-0.6-0.7-1.1-1.5-1.5
	L336,118.3c-4.1-1.8-7.5-6.8-7.6-11.3L327,34.8c0-0.5-0.1-1.6-0.9-1.8c-0.4-0.1-0.9,0-1.5,0.2l-83.9,35.5c-2.3,1-5.1,1.1-7.8,0.3
	c-2.1-0.6-4-1.7-5.3-3.1l-31.3-33.3c-0.6-0.6-1.4-1.1-2.4-1.4c-1.5-0.4-3.1-0.3-4.3,0.5l-29.8,18.1c-3,1.8-7.6,2.4-11.4,1.3
	c-0.8-0.2-1.6-0.5-2.3-0.9L86.7,18.7c-0.2-0.1-0.5-0.2-0.7-0.3c-0.2,0-0.6-0.2-0.8,0c-0.2,0.1-0.4,0.6-0.4,1.5l-1,67.7
	c-0.1,4.6-3.6,9.4-8,10.7l-60.1,18.6c-0.8,0.2-1.3,0.7-1.5,1.2c-0.2,0.5,0,1.1,0.6,1.8L50.3,166c2.8,3.6,3.2,9.5,1,13.5L23,230.7
	c-0.5,0.8-0.5,1.6-0.3,2.4c0.3,0.7,0.9,1.3,1.8,1.6L89.6,256c4.1,1.3,8.4,5.5,10,9.5l17.9,47.4c0.7,1.7,2.4,2.3,3.9,1.3l49.9-31.2
	c2.3-1.5,5.3-1.8,8.1-1.1c1.9,0.5,3.6,1.6,4.8,3l33.8,39.1c0.5,0.5,1.1,0.9,1.7,1.1c1.2,0.3,2.4,0,3.4-0.9l26.7-25.8l-7,12.8
	c4.2,3.2,11.3,12.5,3.7,35.9c-6.7,20.4-26.4,45.3-38.1,58.8c19.2-10,56.3-32,70.9-58.4c13.6-24.6,16.5-34.7,17-38.5l0.4-3.5
	l20.9,9.8c0.2,0.1,0.4,0.2,0.6,0.2c0.4,0.1,1,0.2,1.5-0.1c0.5-0.3,0.8-0.9,0.9-1.7l6.1-47.5c0.6-4.5,4.4-9,8.8-10.3l73-21.4
	c0.4-0.1,0.7-0.3,0.9-0.4C409.3,234.1,409.1,233.9,408.7,233.7z"/>
</svg>
