<?xml version="1.0" encoding="utf-8"?>
<!-- Generator: Adobe Illustrator 19.2.0, SVG Export Plug-In . SVG Version: 6.00 Build 0)  -->
<svg version="1.1" id="Capa_1" xmlns="http://www.w3.org/2000/svg" xmlns:xlink="http://www.w3.org/1999/xlink" x="0px" y="0px"
	 viewBox="0 0 425.2 425.2" style="enable-background:new 0 0 425.2 425.2;" xml:space="preserve">
<path d="M334,278.9c12.6-1.2,25.8-2.6,37.6-7.5c11-4.5,18.5-15,23.6-25.4c15.2-31,14.7-69.8,4.6-102.1
	c-12.6-40.2-42.6-70.3-81.9-84.6C277.6,44.6,232.4,44,190.3,47.8C169,49.7,147.6,53,126.7,58C99.4,63.6,71.9,71.9,48,85.6
	c-75.4,43.3,9.8,131.9,36.3,178c17.2,33.8-6,77.4-27.4,104.2c-2.7,3.3-0.9,7.9,2.3,7.3c0.7,4.4,4.9,7.2,10,2.4
	c34.1-31.9,64.8-67.3,98.4-99.7C222.7,281.5,279,284.1,334,278.9z M164.4,263.4c-0.4,0-0.9,0-1.3-0.1c-1.1-0.1-2.1,0-3.1,0.6
	c-7,3.7-13.5,12.7-19.1,18.4c-13.3,13.3-26.3,27.1-39.3,40.7c-4.8,5-9.5,9.9-14.3,14.9c-1.4,1.5-2.9,2.9-4.3,4.4
	c12.6-23.2,20.7-50,14-74.1c-0.5-1.8-1.1-3.7-1.8-5.5c-0.7-2-1.6-3.9-2.6-5.8c-0.2-0.3-0.4-0.7-0.6-1c-17.9-30.8-42-57.4-56.5-90.1
	c-1.1-2.6-2.2-5.2-3.2-7.9c-6.9-18.3-8.7-39.1,4.9-54.6c7.1-8.1,18.1-13.3,28.6-17.5c2.9-1.2,5.7-2.3,8.4-3.3
	c38.6-14.9,80.7-22.1,121.8-24.6c42.2-2.5,87.3,0.6,125.8,19.5c13.5,6.6,25,15.8,34.5,26.7c18.3,21,29,48.5,31.7,76.5
	c1.6,17.5-0.2,35.6-5.7,52.3c-3.4,10.2-9,22.1-19.8,26c-1.6,0.6-3.1,1-4.7,1.5c-11.4,3.2-23.8,4-35.5,4.9
	c-18.1,1.3-36.2,1.6-54.4,1.6c-31.3,0-62.6-1.2-93.9-2.9C170.8,263.8,167.6,263.6,164.4,263.4z"/>
</svg>
