<?xml version="1.0" encoding="utf-8"?>
<!-- Generator: Adobe Illustrator 19.2.0, SVG Export Plug-In . SVG Version: 6.00 Build 0)  -->
<svg version="1.1" id="Capa_1" xmlns="http://www.w3.org/2000/svg" xmlns:xlink="http://www.w3.org/1999/xlink" x="0px" y="0px"
	 viewBox="0 0 425.2 425.2" style="enable-background:new 0 0 425.2 425.2;" xml:space="preserve">
<g>
	<path d="M340.5,56.6c-0.2,0-0.4,0.1-0.5,0.2L290,117.5l-8.8,10.7l-0.9,1l-14,17l1-1.3l13.6-18.1l8.9-11.9L331,60.2l-4.4,2.1
		l-36.7,51.1l-9,12.6c-3.6-20.2,0.2-41.1,0.2-41.1c-60.6,61.8-87-0.6-88.2-4.4c-2.9,13-7,22.2-11.9,28.5l-1.7-3.6l-20.6-44.8
		c-0.1,1-0.3,2-0.4,3.1l20.6,42.2l1.7,3.5l6.4,13.1l0.5,0.9l-7.4-13.4c-9.4,11.2-21.3,12.3-32.4,9.4l15,16.5l-17.1-17.1
		c-16.8-5.1-31.1-18.7-31.1-18.7c19.4,58.2-51.7,59.1-51.7,59.1c57.8,45.8-33.5,91.2-33.5,91.2c42-6.5,60.2-0.4,66.1,10.2l12.4-2.8
		l-12.1,3.3c10.2,19.8-20.4,54.6-20.4,54.6c43.4-34.6,58.4-13.8,63.5,7.5l-3.2,6.4l-41.5,83.8l14.9-11.3l0.1-0.2l-10,7.6l36.8-78.1
		l3.2-6.7l19.5-41.3l0.5-1l-19.2,46.1c2,11.6,1.4,22,1.4,22c30.1-83.3,75.5-26.4,75.5-26.4c-5.2-71.6,102.9-7.3,102.9-7.3
		c-22-27.4-25.7-44.9-21.6-56.1l-33.7-10.8l34.3,9.3c7.9-17.4,35.4-18.2,35.4-18.2c-43.3-32.5,4.9-81,4.9-81c-35,9.8-50-5.7-56-25.1
		l-5.9,6.3l5.6-7.3c-0.6-1.9-1-3.8-1.4-5.8l8.8-10.6L340.5,56.6z"/>
	<polygon points="173.1,97.8 157.9,70.4 157.8,70.5 	"/>
	<path d="M131.6,54.2c0,0,15.2-3.6,17.4-2.7c1.9,0.8,4.1,7,5.2,10.7c0,0,0,0.1,0,0.1c0.5,1.5,0.8,2.6,0.8,2.6s0.2-3.1,0.7-6.5
		c0.2-1,0.3-2,0.5-3c0.5-2.3,1.2-4.2,2.1-4.9c2.7-2,12.5-1.4,12.5-1.4s-9.7-4.3-10.6-6.6c-1.2-3.3,3.2-12.4,3.2-12.4s-8,5.8-11,7.2
		c-3,1.4-14-6.5-14-6.5s5.9,9.3,4.5,12.7C141,48.8,131.6,54.2,131.6,54.2z"/>
	<path d="M247.7,364.4c-2-2.9-2.5-11.1-2.5-11.1s-3.6,5.9-6,8c-2.3,2-11.5-2.5-11.5-2.5s4.8,6.9,4.2,10.6
		c-0.9,5.4-5.9,10.9-5.9,10.9s11-4.9,13.4-4.5c2.9,0.5,7.3,8,7.3,8s-0.5-8.7,1.4-11.2c2-2.6,8.7-4.3,8.7-4.3
		S249.1,366.4,247.7,364.4z"/>
	<path d="M352.3,39.4c-2.8-3.9-1.7-15-1.7-15s-6.7,8.3-9.8,11.2c-3,2.9-16.7-2.4-16.7-2.4s8.1,8.9,7.6,13.9c-0.5,5-1.4,8.9-1.9,10.8
		c-0.3,0.9-0.4,1.5-0.4,1.5s1.5-0.7,3.5-1.5c2.7-1.1,6.2-2.4,8.3-2.5c0.2,0,0.3,0,0.4,0c0.1,0,0.3,0,0.4,0c3.9,0.5,8,7.9,8,7.9
		s0.9-9.2,3.3-12.7c2.5-3.7,11.8-6.2,11.8-6.2S354.2,42,352.3,39.4z"/>
</g>
</svg>
