<?xml version="1.0" encoding="utf-8"?>
<!-- Generator: Adobe Illustrator 19.2.0, SVG Export Plug-In . SVG Version: 6.00 Build 0)  -->
<svg version="1.1" id="Capa_1" xmlns="http://www.w3.org/2000/svg" xmlns:xlink="http://www.w3.org/1999/xlink" x="0px" y="0px"
	 viewBox="0 0 425.2 425.2" style="enable-background:new 0 0 425.2 425.2;" xml:space="preserve">
<g>
	<path d="M343.6,107.7c-2.8-2.6-5.7-3.8-7.7-4.3c-1-0.3-1.8-0.4-2.3-0.4c-0.6-0.1-0.8-0.1-0.8-0.1s0.3,0.1,0.8,0.2
		c0.5,0.1,1.3,0.3,2.2,0.7c0.9,0.4,2,1,3.1,1.8c1.1,0.8,2.3,1.9,3.4,3.3c2.2,2.7,4.1,6.4,5,10.9c0.9,4.4,0.8,9.5-0.6,14.3
		c-1.4,4.9-3.9,9.1-6.9,12.3c-3,3.3-6.5,5.4-9.6,7.1c-1.6,0.7-3.1,1.3-4.4,1.8c-1.3,0.4-2.6,0.6-3.6,0.8c-1,0.2-1.8,0.2-2.3,0.3
		c-0.4,0-0.7,0-0.8,0c0.1,0,0.4,0.1,0.8,0.1c0.5,0.1,1.3,0.2,2.3,0.2c1,0,2.3,0.1,3.8-0.1c1.5-0.1,3.2-0.3,5-0.8
		c3.7-0.9,8-2.8,11.9-6.2c1.9-1.7,3.8-3.8,5.3-6.2c1.5-2.4,2.6-5.2,3.2-8.1c1.4-5.8,0.9-11.6-0.7-16.5
		C349.1,114.1,346.4,110.2,343.6,107.7z"/>
	<path d="M342.6,181.9c-1.8,0.8-3.9,1.4-6.3,2c-2.4,0.5-5,0.9-7.8,0.8c-2.7-0.1-5.4-0.4-7.8-1.1c-2.4-0.7-4.5-1.5-6.2-2.4
		c-1.7-0.9-3-1.8-3.9-2.5c-0.9-0.7-1.3-1.1-1.3-1.1s0.3,0.5,1,1.4c0.7,0.9,1.7,2.2,3.2,3.6c1.5,1.4,3.5,2.9,6,4.1
		c2.5,1.2,5.5,2.1,8.8,2.2c3.3,0.1,6.4-0.5,9-1.6c2.6-1,4.7-2.5,6.2-3.8c1.6-1.4,2.7-2.6,3.4-3.5c0.7-0.9,1.1-1.4,1.1-1.4
		s-0.5,0.4-1.4,1C345.7,180.3,344.3,181.2,342.6,181.9z"/>
	<path d="M206.6,53.6c0.3-1,0.9-2.3,1.8-3.9c0.9-1.6,2.1-3.3,3.7-5c1.5-1.7,3.5-3.4,5.7-4.8c2.2-1.4,4.4-2.5,6.6-3.3
		c2.2-0.8,4.2-1.2,6-1.5c1.8-0.2,3.3-0.3,4.3-0.2c0.9,0.1,1.5,0.1,1.6,0.1c-0.1-0.1-0.6-0.2-1.5-0.5c-1-0.3-2.5-0.6-4.4-0.8
		c-1.9-0.2-4.2-0.2-6.7,0.3c-2.5,0.5-5.2,1.6-7.7,3.2c-2.5,1.7-4.4,3.8-5.8,5.9c-1.5,2.1-2.4,4.2-2.9,6c-0.6,1.8-0.8,3.3-1,4.3
		c-0.1,0.8-0.1,1.4-0.1,1.5C206.2,54.9,206.4,54.4,206.6,53.6z"/>
	<path d="M245.9,71.4c-1.2-0.6-3.1-1.3-5.6-1.9c-2.5-0.6-5.5-0.8-8.9-0.3c-3.4,0.5-7,1.9-10.2,4.4c-3.1,2.5-5.4,5.6-6.8,8.7
		c-1.4,3.1-2,6.1-2.1,8.6c-0.1,2.5,0.1,4.5,0.4,5.9c0.1,0.7,0.3,1.2,0.4,1.5c0,0.2,0.1,0.3,0.1,0.4c0-0.3-0.1-1-0.1-2
		c0-1.4,0.1-3.3,0.6-5.7c0.3-1.2,0.7-2.4,1.1-3.7c0.5-1.3,1.1-2.6,1.9-3.9c0.8-1.3,1.7-2.6,2.8-3.9c1.1-1.2,2.3-2.4,3.7-3.5
		c1.4-1,2.8-1.9,4.3-2.6c1.5-0.7,3-1.2,4.4-1.7c2.9-0.8,5.8-1.1,8.1-1c2.4,0.1,4.3,0.5,5.6,0.9c0.7,0.2,1.1,0.4,1.5,0.5
		c0.2,0.1,0.4,0.2,0.5,0.2c-0.1,0-0.2-0.2-0.5-0.3C247,72,246.5,71.7,245.9,71.4z"/>
	<path d="M239.9,144.4c-1-0.2-2-0.5-3-0.8c-1.1-0.3-2.2-0.7-3.3-1.3c-2.2-1-4.5-2.6-6.6-4.4c-1-1-1.9-2-2.7-3.1
		c-0.8-1.1-1.4-2.2-2-3.3c-1.2-2.2-1.8-4.4-2.2-6.4c-0.3-1.9-0.3-3.6-0.3-4.7c0-0.7,0.1-1.2,0.1-1.5c-0.1,0.3-0.2,0.8-0.4,1.5
		c-0.3,1.1-0.6,2.7-0.6,4.8c-0.1,2.1,0.1,4.6,1,7.3c0.8,2.7,2.4,5.5,4.7,7.9c2.3,2.4,5.2,3.9,7.9,4.8c2.7,0.9,5.2,1.1,7.3,0.9
		c2.1-0.1,3.7-0.5,4.8-0.9c1.1-0.3,1.7-0.6,1.7-0.6s-0.6,0.1-1.7,0.1C243.4,144.8,241.8,144.7,239.9,144.4z"/>
	<path d="M173.3,122.3c0,0-0.3,0.4-0.7,1.1c-0.4,0.8-1,1.9-1.4,3.5c-0.4,1.6-0.6,3.6-0.3,5.8c0.3,2.2,1.4,4.6,3.2,6.6
		c1.8,2,4.2,3.2,6.4,3.7c2.2,0.5,4.2,0.4,5.8,0.1c1.6-0.3,2.8-0.8,3.6-1.2c0.8-0.4,1.2-0.7,1.2-0.7s-0.5,0.1-1.3,0.2
		c-0.8,0.1-2.1,0.1-3.5-0.1c-1.4-0.3-3.1-0.8-4.7-1.6c-1.6-0.8-3.1-1.9-4.5-3.3c-1.3-1.4-2.3-3-3-4.7c-0.7-1.7-1.1-3.3-1.2-4.8
		c-0.1-1.4,0-2.7,0.2-3.5C173.1,122.8,173.3,122.3,173.3,122.3z"/>
	<path d="M377.5,123.4c-1.1-2.6-2.8-4.9-4.5-6.7c-1.7-1.8-3.6-3.2-5.3-4.3c-0.5-0.3-1-0.6-1.5-0.8c0.6-2.2,1-4.6,1.2-7.2
		c0.1-2.7-0.1-5.6-0.8-8.4c-0.7-2.9-1.9-5.7-3.5-8.4c-3.3-5.3-8-9.4-13-11.5c-4.8-2.2-9.6-2.7-13.5-2.5c-0.2-0.9-0.6-1.8-0.9-2.8
		c-1.1-2.6-2.4-5.4-4.2-8c-1.9-2.6-4.1-5.3-6.8-7.5c-2.7-2.2-5.9-4.2-9.5-5.6c-3.6-1.3-7.2-1.9-10.8-2.1c-3.5-0.1-6.9,0.4-10,1.1
		c-3.1,0.7-6,2-8.5,3.3c-2.5,1.4-4.7,2.8-6.5,4.4c-1.1,0.9-2.1,1.8-2.9,2.7c-1.2-2.1-2.8-4.3-4.6-6.4c-4.3-4.9-10.6-9.2-18-11.3
		c-3.7-1-7.5-1.4-11.2-1.2c-3.7,0.2-7.1,1.1-10.2,2.4c-3.1,1.4-5.7,3.3-7.8,5.2c-2.1,2-3.8,4.1-5.1,6.2c-1.1,1.7-1.9,3.4-2.4,4.9
		c-1.8-0.2-3.7-0.3-5.7-0.1c-5.5,0.3-11.6,2.2-16.8,6.1c-0.1,0.1-0.1,0.1-0.2,0.1c-0.4-0.1-0.9-0.3-1.4-0.3
		c-2.2-0.5-4.9-0.8-7.8-0.6c-2.9,0.1-6.2,0.8-9.4,2.1c-3.2,1.3-6.6,3.4-9.4,6.3c-2.8,3-5,6.7-6.3,11c-1.2,4.2-1.8,8.8-1.1,13.5
		c0.6,4.7,2.3,9.2,5,12.8c2.7,3.6,6.1,6.4,9.6,8.4c2.3,1.3,4.7,2.3,7,3c1.9,5.4,5.4,9.9,9.4,12.9c2.1,1.7,4.4,2.9,6.6,3.8
		c2.2,0.9,4.3,1.5,6.3,1.9c2,0.4,3.9,0.6,5.5,0.6c0.2,8,0.6,16.1,0.8,24c0.5,16.3,1,32.5,2.5,48.8l-5.3,7.7
		c-2.5-22.6-5.4-46.1-11.6-67.8c-0.3-0.9-1.7-0.6-1.6,0.4c1.6,22.8,7,46.2,12.4,68.6l-4,5.7l-61.3-48.4l-3.3-2.6l-2.9-2.2l0.7,3.4
		l9,46.5c-2-4.4-4.1-9-6.4-13.7c-2.5-5.2-4.9-10.3-7.2-14.9c0.5-0.5,0.9-1,1.3-1.6c1.2-1.6,2.2-3.4,2.8-5.4c0.6-2,0.9-4.1,1-6
		c0-2-0.3-3.9-0.8-5.6c-0.5-1.7-1.3-3.3-2-4.6c-0.8-1.3-1.7-2.5-2.6-3.5c-0.9-1-1.8-1.7-2.6-2.4c-0.2-0.1-0.3-0.2-0.5-0.3
		c0.2-0.7,0.4-1.4,0.6-2.2c0.2-1.3,0.4-2.7,0.3-4.2c-0.1-1.5-0.4-3-0.8-4.5c-1-3-2.8-5.4-4.8-7.2c-1.2-1.1-2.5-2-3.8-2.6
		c0-0.8-0.1-1.7-0.3-2.7c-0.2-1.4-0.6-2.9-1.2-4.6c-0.6-1.6-1.3-3.3-2.4-4.9c-1.1-1.6-2.3-3.3-3.9-4.7c-1.6-1.5-3.4-2.8-5.4-3.8
		c-2.1-1-4.2-1.6-6.3-2c-2.1-0.4-4.1-0.4-6.1-0.2c-1.9,0.1-3.7,0.5-5.3,1c-1.6,0.5-3.1,1.1-4.3,1.8c-1.3,0.6-2.4,1.3-3.3,2
		c0,0-0.1,0-0.1,0.1c-1.3-0.5-2.8-1-4.2-1.3c-2.5-0.6-5.2-0.9-8-0.8c-2.8,0.1-5.4,0.7-7.9,1.5c-2.5,0.8-4.7,1.9-6.7,3.2
		c-2,1.3-3.7,2.7-5.2,4.1c-1.5,1.5-2.7,2.9-3.8,4.4c-0.8,1.1-1.4,2.1-1.9,3.1c-0.2,0.3-0.3,0.6-0.5,0.9c0,0.1-0.1,0.1-0.1,0.2
		c-0.6,0-1.2,0-1.8,0.1c-1.4,0.2-3,0.4-4.5,0.9c-1.5,0.5-3.2,1.1-4.7,2.1c-1.5,0.9-3,2.1-4.4,3.5c-1.3,1.4-2.4,3-3.3,4.6
		c-0.9,1.6-1.4,3.2-1.9,4.8c-0.6,2.4-0.8,4.8-0.7,6.8c-0.5,0.4-1,0.8-1.5,1.3c-0.9,0.9-1.8,1.9-2.6,3.2c-0.8,1.3-1.5,2.7-1.9,4.2
		c-0.4,1.6-0.6,3.3-0.5,5.1c0.1,1.8,0.5,3.5,1.2,5c0.7,1.5,1.6,2.8,2.6,4c1,1.1,2.1,2,3.2,2.7c1.1,0.7,2.2,1.2,3.3,1.6
		c0.5,0.2,1,0.3,1.5,0.4c0,0.1,0,0.3,0,0.4c-0.1,1.6,0,3.5,0.2,5.4c0.3,1.9,0.8,4,1.6,6.1c0.8,2.1,1.9,4.2,3.3,6.2
		c1.4,2,3.2,3.9,5.3,5.5c1.1,0.9,2.4,1.6,3.6,2.2l0,0l-3.9-0.4l2.5,2.3l71.7,61.9l-27.4,38.9l8.3,0.2l61.3,1.6l2.3,56.1l0.3,8
		l6.8-6.6l37.9-37.2l20.3,60.9l1.9,3.9l3.1-4.1l0.9-1.4l41.9-64.9l29.8,17.6l6.7,4l0.9-7.7l4.9-43.2l43.3-4l7.9-0.7l-37.8-23.1
		l34.4-40l1.8-2l-2.7,0.5l-3.9,0.7l-55.4,9.7l6.2-44c1.4-2.4,2.7-4.8,3.9-7.1c0.6-1.1-1-2.1-1.8-1.2c-0.4,0.5-0.8,1-1.2,1.5
		l1.7-12.2l0.4-2.8l-2.3,2l-2.7,2.3l-2.2,1.9c4.3-7.9,8.6-15.9,12.6-24c1.2,0.8,2.5,1.5,3.9,2.2c4.4,2.1,9.9,3.4,15.7,3
		c5.8-0.4,11.2-2.5,15.2-5.6c1.4-1.1,2.6-2.2,3.7-3.5c1,0,2.1-0.1,3.3-0.2c2-0.3,4.3-0.7,6.7-1.5c2.4-0.8,4.8-2,7.1-3.6
		c2.3-1.6,4.6-3.7,6.5-6.3c1.8-2.5,3.3-5.4,4.3-8.6C380.3,135.4,379.9,128.7,377.5,123.4z M179,110.3c-0.1,1.6,0,3.3,0.2,5
		c-1-0.5-1.9-1.1-2.9-1.7c-2.9-1.9-5.6-4.3-7.7-7.3c-2.1-2.9-3.7-6.5-4.4-10.3c-0.8-3.9-0.5-7.8,0.4-11.5c1-3.6,2.7-6.9,4.8-9.6
		c2.2-2.7,4.9-4.7,7.7-6.2c2.8-1.4,5.6-2.3,8.3-2.9c2.9-0.5,5.6-0.5,8-0.3c-4.5,3.8-7.7,8.8-8.8,13.8c-0.7,2.7-0.8,5.4-0.6,7.8
		c0.2,2.4,0.8,4.6,1.6,6.5c0.1,0.2,0.2,0.5,0.3,0.7c-1.9,2-3.6,4.5-4.9,7.5C179.9,104.6,179.1,107.4,179,110.3z M135,211.6
		c3.6,7.9,7.2,15.2,10.4,21.6l2.3,11.8l-10.8-2.6c-5.3-8.5-12.4-19.5-20.4-31.4c-0.6-0.9-1.2-1.7-1.7-2.6c0.7-1.9,1.2-3.8,1.3-5.5
		c0-0.2,0-0.4,0-0.5c0.9,0,1.9-0.2,2.9-0.4c1.3-0.3,2.7-0.7,4.1-1.3c1.4-0.7,2.9-1.5,4.3-2.6c0.3-0.3,0.7-0.6,1-0.9
		C130.5,201.7,132.7,206.6,135,211.6z M93.4,228.8c-1.8-1.7-3.6-3.4-5.4-5c1.9-1.1,3.4-2.3,4.6-3.5c0.8-0.8,1.5-1.6,2-2.3
		c0.4,0.2,0.8,0.4,1.2,0.6c1.1,0.4,2.4,0.7,3.8,0.8c0.3,0,0.7,0,1,0c1.2,1.6,2.5,3.1,3.8,4.7c3.7,4.5,7.2,8.9,10.7,13L97.8,233
		C96.4,231.6,94.9,230.2,93.4,228.8z M93.8,232l-41.4-10c1.2,0,2.4-0.1,3.5-0.2c2-0.3,3.8-0.7,5.3-1.2c1.5-0.5,2.8-1.1,3.9-1.7
		c0.9,1.6,2.2,3.2,4,4.6c2.3,1.7,5.4,2.9,8.7,3c3.1,0.1,6-0.5,8.4-1.6c1.9,1.8,3.8,3.7,5.8,5.5C92.6,230.8,93.2,231.4,93.8,232z
		 M106.6,222.4c-1-1.2-1.9-2.3-2.9-3.5c0.2-0.1,0.4-0.1,0.6-0.2c3.1-1,6.1-3.3,8.2-6.3c0.3-0.5,0.6-1,0.9-1.5
		c0.3,0.4,0.6,0.9,0.9,1.3c7.5,11.3,14.5,21.5,20.2,29.5l-15.1-3.7C115.5,233.2,111.2,227.9,106.6,222.4z M38.5,213.1
		c-1.8-1.3-3.3-2.9-4.7-4.5c-1.4-1.6-2.5-3.4-3.5-5.1c-1-1.8-1.7-3.5-2.3-5.2c-0.5-1.7-1-3.4-1.2-4.9c0,0,0-0.1,0-0.1h0
		c0.9,0.1,1.6,0.1,2.2,0.1c0.6,0,1.1-0.1,1.4-0.1c0.3,0,0.5,0,0.5,0s-0.2,0-0.5-0.1c-0.3-0.1-0.8-0.1-1.3-0.3
		c-0.5-0.2-1.2-0.4-1.9-0.7c-0.2-0.1-0.3-0.2-0.5-0.2c-0.3-0.2-0.7-0.4-1.1-0.6c-0.2-0.2-0.5-0.3-0.7-0.5c-1.6-1.1-3.3-2.6-4.8-4.6
		c-1.4-2-2.6-4.4-3.1-7.2c-0.2-1.4-0.1-2.8,0.1-4.1c0.2-1.3,0.6-2.6,1.1-3.8c0.5-1.2,1.1-2.2,1.8-3.2c0.1-0.2,0.3-0.3,0.4-0.5
		c0.6-0.7,1.2-1.4,1.8-1.9c0.1-0.1,0.2-0.2,0.3-0.2c0.6-0.6,1.3-1,1.9-1.4c0.7-0.4,1.3-0.7,1.8-1c0.5-0.3,1-0.3,1.2-0.5
		c0.3-0.1,0.4-0.1,0.4-0.1s-0.2,0-0.5,0.1c-0.3,0.1-0.8,0.1-1.3,0.3c-0.6,0.1-1.3,0.3-2,0.7c-0.4,0.2-0.9,0.4-1.3,0.6
		c0-0.1,0-0.2,0-0.3c0.3-1.2,0.7-2.6,1.2-3.9c0.5-1.3,1.2-2.7,2-3.9c0.8-1.3,1.8-2.5,2.8-3.7c2.2-2.3,4.8-4,7.4-5.2
		c1.4-0.6,2.8-1.1,4.1-1.5c-0.1,0.2-0.1,0.4-0.2,0.5c-0.4,0.9-0.5,1.7-0.7,2.1c-0.1,0.3-0.1,0.5-0.2,0.6c0-0.1,0.1-0.3,0.3-0.6
		c0.2-0.5,0.4-1.2,0.9-2c0.1-0.2,0.2-0.5,0.4-0.8c0.3-0.7,0.8-1.4,1.3-2.3c0-0.1,0.1-0.1,0.1-0.1c0.2-0.3,0.4-0.6,0.6-0.9
		c0.6-0.9,1.3-1.7,2.1-2.7c1.1-1.3,2.4-2.6,3.9-3.9c1.6-1.2,3.3-2.5,5.2-3.5c2-1,4-2,6.4-2.6c2.3-0.6,4.7-1.1,7.2-1.2
		c2.5-0.1,4.9,0.2,7.3,0.7c0.9,0.2,1.7,0.4,2.5,0.6c0.1,0,0.3,0.1,0.4,0.1c1.3,0.4,2.5,0.9,3.6,1.4c2,0.9,3.8,2,5.5,3
		c1.6,1.2,3,2.3,4.3,3.5c1.2,1.2,2.2,2.3,3.1,3.4c0.4,0.5,0.8,1,1.1,1.5c0.3,0.5,0.6,0.9,0.9,1.3c0.5,0.8,0.8,1.5,1.1,1.9
		c0.2,0.3,0.3,0.6,0.3,0.6c0-0.1-0.1-0.3-0.3-0.7c-0.2-0.5-0.4-1.2-0.8-2.1c-0.4-0.9-0.9-2-1.6-3.2c-0.7-1.2-1.6-2.5-2.7-3.9
		c-1.1-1.4-2.5-2.8-4.1-4.1c-1.6-1.3-3.5-2.6-5.6-3.7c-0.6-0.3-1.2-0.6-1.8-0.8c0.9-0.4,1.8-0.9,2.9-1.2c1.3-0.4,2.7-0.8,4.3-1.1
		c1.6-0.2,3.2-0.4,5-0.3c1.7,0.1,3.5,0.3,5.4,0.7c1.8,0.4,3.6,1.1,5.4,1.9c1.7,0.9,3.3,2,4.8,3.2c1.4,1.2,2.6,2.5,3.7,3.9
		c1.1,1.4,2,2.8,2.7,4.1c0.7,1.4,1.3,2.7,1.7,4c0.2,0.6,0.4,1.2,0.5,1.7c-0.3-0.1-0.6-0.2-0.9-0.3c-1.8-0.6-3.4-0.9-4.4-1
		c-0.5-0.1-0.9,0-1.2-0.1c-0.3,0-0.4,0-0.4,0s0.1,0,0.4,0.1c0.3,0.1,0.7,0.1,1.2,0.3c1,0.3,2.4,0.9,3.9,1.9c0.7,0.4,1.3,0.9,2,1.5
		c0.1,0.1,0.2,0.2,0.3,0.3c0.1,0.1,0.3,0.3,0.4,0.4c0.6,0.6,1.3,1.2,1.8,2c1.5,1.7,2.7,3.9,3.5,6.4c0.7,2.4,0.9,4.9,0.8,7.2
		c0,0.4-0.1,0.8-0.1,1.2c0,0.1,0,0.2-0.1,0.3c-0.1,0.6-0.2,1.2-0.3,1.7c-0.2,1-0.5,1.9-0.8,2.8c-0.6,1.7-1.4,3-1.9,3.8
		c-0.3,0.4-0.6,0.7-0.7,1c-0.1,0.2-0.2,0.3-0.2,0.3c0,0,0.2-0.1,0.3-0.2c0.2-0.2,0.6-0.4,1-0.7c0.4-0.3,0.9-0.8,1.4-1.3
		c0.5-0.6,1.1-1.2,1.7-2c0.7-0.9,1.3-2,1.8-3.3l0.2,0.2c0.6,0.7,1.4,1.6,2,2.7c0.7,1,1.3,2.2,1.8,3.5c0.5,1.3,1,2.8,1.3,4.3
		c0.3,1.5,0.5,3.1,0.5,4.8c-0.1,1.7-0.3,3.4-0.8,5.1c-0.5,1.7-1.3,3.2-2.3,4.7c-0.1,0.2-0.2,0.3-0.3,0.5c-0.4,0.6-0.9,1.2-1.3,1.7
		c-0.5,0.5-1,1.1-1.5,1.6c-1.1,1.1-2.4,1.9-3.6,2.7c-1.2,0.7-2.4,1.3-3.6,1.7c-0.9,0.3-1.7,0.6-2.5,0.8c0-1,0-1.9-0.1-2.8
		c-0.1-1.4-0.4-2.6-0.7-3.7c-0.3-1.1-0.7-2.1-1.1-2.9c-0.4-0.8-0.8-1.5-1.1-2c-0.6-0.9-1-1.4-1.1-1.6c0,0.1,0.1,0.2,0.2,0.4
		c0.1,0.3,0.4,0.7,0.5,1.4c0.2,0.6,0.4,1.3,0.6,2.2c0.2,0.9,0.4,1.8,0.5,2.9c0.1,1.1,0.2,2.2,0.1,3.5c0,1-0.2,2.1-0.4,3.2
		c0,0.2-0.1,0.4-0.1,0.6c0,0.1,0,0.1,0,0.2c-0.2,0.9-0.5,1.9-0.8,2.8c-0.2,0.4-0.3,0.9-0.5,1.3c-0.2,0.4-0.4,0.9-0.6,1.3
		c-0.5,0.9-1,1.8-1.6,2.6c-1.8,2.6-4.1,4.5-6.5,5.7c-0.4,0.2-0.9,0.4-1.4,0.6c-0.9,0.3-1.9,0.5-2.8,0.6c-1,0.1-1.9,0-2.8-0.1
		c-0.3-0.1-0.6-0.1-0.9-0.2c-0.1-0.1-0.3-0.1-0.4-0.1c-1.4-0.5-2.6-1.1-3.3-1.7c-0.5-0.4-0.8-0.8-1-1c-0.1-0.1-0.2-0.2-0.3-0.3
		c0,0.1,0.1,0.2,0.2,0.3c0.2,0.3,0.4,0.7,0.8,1.2c0.5,0.7,1.4,1.6,2.6,2.3c-0.6,0.5-1.4,1.1-2.2,1.7c-1.5,1-3.3,2.1-5.4,3
		c-0.2,0.1-0.4,0.2-0.7,0.3c-0.4,0.2-0.9,0.3-1.4,0.5c-2,0.6-4.3,0.9-6.6,0.8c-2.9-0.1-5.6-0.9-7.7-2.1c-1.7-1-3-2.3-4.1-3.6
		c0.2-0.1,0.5-0.3,0.7-0.4c0.5-0.3,0.9-0.6,1.2-0.9c0.8-0.5,1.3-1,1.6-1.3c0.4-0.3,0.6-0.4,0.6-0.4s-0.2,0.1-0.6,0.3
		c-0.4,0.2-1,0.6-1.8,0.9c-0.7,0.3-1.4,0.6-2.4,0.9c-0.3,0.1-0.6,0.2-1,0.3c-1.1,0.3-2.4,0.6-3.8,0.8c-1.5,0.2-3.2,0.3-5,0.3
		c-1.8-0.1-3.7-0.2-5.6-0.6c-1.9-0.4-3.9-0.9-5.9-1.8C42.2,215.4,40.3,214.4,38.5,213.1z M303.1,189.8l-3.9,15.8l-3,12.2l-9.1,36.8
		l-1.5,6.2l7-1.9l60.7-16.7l-40.6,37.3l-4.7,4.3l5.4,2.2l39.6,16.2l-45.8,0.8l-3.3,0.1l-0.3,2.9l-4.2,43.9l-29.9-20.5l-3.6-2.5
		l-2.7,4l-40.6,69.9l-18.1-63.3l-2.3-5.4l-5.2,5l-34.9,33.2l-2.7-50.5l-0.1-2.7l-3,0l-65.4,0.5l27.9-32.7l3.7-4.3l-4.6-3.4
		l-74.1-55.6l56.4,16.2l4.3,1.2l16.5,4.7l3.9,1.1l15.1,4.4l1.4,0.4l10.5,3l4,0.6l0.4,0.1l2.4,0.4l-1.6-5.7l-18.6-66.8l57.7,53
		l6.9,6.3l4.9-8l16.5-27l2.6-4.2l3.9-6.4l2.3,7.1l2,6.1L245,239l1.5,4.6l4-3.8l12.9-12.3l2.8-2.7l22.1-21l7.3-6.9L303.1,189.8z
		 M240.3,165c3.3,0.2,7-0.9,10-2.3c1.4-0.7,2.8-1.5,3.9-2.5c0.1-0.1,0.2-0.2,0.3-0.3c0.9,0.7,1.8,1.3,2.9,1.8
		c2.4,1.2,5.4,2.1,8.6,2.1c2.4,0,4.6-0.5,6.6-1.3c0.6,0.8,1.3,1.6,2,2.2c0,0.1-0.1,0.2-0.1,0.2l0,0c-1.8,4.8-3.6,9.6-5.5,14.4
		c-5.1,12.7-10.4,25.3-15,38.2c-0.1,0.3,0.3,0.5,0.4,0.2c6.4-12.9,11.9-26.1,17.9-39.1c1.8-3.9,3.6-7.7,5.5-11.6
		c3.2,1.7,6.8,2.8,10.5,3.1c0,0,0,0,0,0c-7.7,15.3-14.5,31.3-20.9,47.2l-17.5,15l-5.5-16.3c2.5-8.8,4.8-17.7,6.1-26.7
		c0.1-0.8-1.1-1.3-1.4-0.4c-2.5,7.7-4.4,15.5-6,23.5L237,194C238.2,184.3,239.3,174.7,240.3,165C240.3,165,240.3,165,240.3,165z
		 M234.8,187.5l-1.8-5.5l-5.5,7.9l-0.3,0.4c0-1.5,0-3.1,0-4.6c0-0.7-1.1-0.7-1.2,0c-0.3,2.5-0.5,4.9-0.7,7.4l-10.9,15.7
		c0-14.3-0.6-28.6-1.2-42.9c-0.2-5.7-0.4-11.3-0.7-17c0,0,0,0,0,0c0.2,0.4,0.4,0.8,0.5,1c1.3,2.3,3.2,4.4,5.3,6.3
		c2.4,2.1,5.2,4,8.3,5.4c3.1,1.4,6.3,2.4,9.5,2.9c0.5,0.1,1,0.2,1.5,0.2C236.8,172.4,235.8,180,234.8,187.5z M291.7,196.6
		l-19.7,16.9c7.2-14.1,14.2-28.6,20.2-43.2l0,0c5.3-0.2,10.4-1.8,14.5-5C301.6,175.6,296.6,186.1,291.7,196.6z M373.1,140.1
		c-1.7,5.2-4.8,9.7-8.5,12.8c-1.8,1.6-3.8,2.9-5.7,3.9c-1.9,1-3.8,1.9-5.7,2.5c-0.3,0.1-0.6,0.2-0.9,0.3c1-1.5,1.8-3,2.4-4.4
		c0.7-1.7,1-3.3,1.4-4.7c0.2-1.4,0.3-2.6,0.3-3.6c0-1,0-1.7,0-2.2c0-0.4,0-0.6,0-0.7c0,0.1-0.1,0.3-0.1,0.7
		c-0.1,0.5-0.2,1.2-0.5,2.1c-0.3,0.9-0.7,2-1.3,3.2c-0.6,1.2-1.4,2.5-2.4,3.8c-1.9,2.6-4.6,5.3-8.1,7.3c0,0-0.1,0.1-0.1,0.1
		c-0.2,0.1-0.4,0.2-0.7,0.4c-3.4,1.9-7.5,3.1-11.9,3.4c-4.7,0.4-9.4-0.2-13.4-1.3c-1.4-0.4-2.6-0.8-3.8-1.3c-1-0.4-2-0.8-2.9-1.3
		c-0.5-0.3-1.1-0.5-1.6-0.8c-0.6-0.3-1.1-0.7-1.6-1c-0.2-0.1-0.4-0.2-0.6-0.3c-2.8-1.8-4.9-3.7-6.2-5.1c-1.2-1.3-1.8-2.1-1.9-2.2
		c0.1,0.2,0.6,1.1,1.5,2.6c1,1.6,2.6,4.1,5.1,6.7c0,0,0,0,0,0c-6,4.2-13.1,6.5-20.4,5.3c-2.6-0.4-6.4-1.2-8.5-2.8
		c-0.7-0.5-1.4-1.1-2.1-1.6c0,0,0.1,0,0.1-0.1c2.4-1.3,4.3-3,5.6-4.5c0.6-0.8,1.1-1.6,1.6-2.2c0.4-0.6,0.8-1.2,1-1.7
		c0.5-0.9,0.7-1.4,0.8-1.5c-0.1,0.1-0.5,0.5-1.2,1.2c-0.8,0.7-1.9,1.7-3.6,2.6c-1.6,0.9-3.6,1.8-5.7,2.4c-0.8,0.3-1.6,0.5-2.4,0.7
		c-0.1,0-0.1,0.1-0.2,0c-1.5,0.3-3,0.5-4.6,0.6c-2.5,0-5.1-0.1-7.3-0.7c-0.9-0.2-1.8-0.5-2.7-0.8c-0.2,0-0.4-0.1-0.6-0.2
		c-1-0.4-1.9-0.8-2.7-1.3c-1.6-0.9-2.8-1.8-3.6-2.6c-0.7-0.6-1.1-1.1-1.2-1.2c0.1,0.1,0.4,0.6,0.9,1.4c0.6,0.9,1.5,2.2,2.8,3.6
		c0.4,0.4,0.8,0.8,1.3,1.2c-4.3,1.9-9.9,1.9-14.2,1.3c-6.4-0.9-12.4-3.6-17.6-7.3c-2.3-1.6-4.3-3.4-5.7-5.5
		c-1.4-2.1-2.4-4.4-2.8-6.7c0-0.2,0-0.3-0.1-0.4c0-0.2-0.1-0.4-0.1-0.6c-0.1,0-0.3,0-0.5-0.1l-0.1,0c-0.5-0.1-1-0.2-1.6-0.3
		c-0.3-0.1-0.7-0.2-1-0.2c-0.4-0.1-0.7-0.1-1.1-0.3c0,0,0,0,0,0c-1.4-0.4-3-0.9-4.7-1.6c-1.7-0.7-3.5-1.6-5.2-2.7
		c-1.8-1.1-3.6-2.4-5.3-4c-2.3-2.1-4.4-4.8-6-7.8c-0.8-1.5-1.4-3-2-4.6c0,0,0-0.1,0-0.1c-0.8-2.5-1.2-5-1.4-7.4
		c-0.2-2.5,0-5,0.6-7.2c0.6-2.4,1.7-4.5,2.9-6.3c0.4,0.7,0.8,1.3,1.1,1.9c0.9,1.3,1.9,2.3,2.7,3.1c0.8,0.7,1.5,1.3,2,1.6
		c0.4,0.3,0.6,0.4,0.7,0.5c-0.1-0.1-0.3-0.3-0.6-0.6c-0.4-0.4-1-1-1.7-1.8c-0.7-0.9-1.4-1.9-2.1-3.3c-0.4-0.8-0.8-1.7-1.1-2.7
		c-0.1-0.4-0.3-0.9-0.4-1.4c-0.1-0.3-0.2-0.5-0.2-0.8c0,0,0-0.1,0-0.2c-0.8-3.7-0.8-8.2,0.7-12.7c1.5-4.6,4.9-8.9,9.3-12.2
		c0.6-0.5,1.3-0.9,2-1.3c0.1-0.1,0.3-0.2,0.4-0.2c3.9-2.4,8.1-3.8,12.1-4.3c1.4-0.2,2.9-0.3,4.3-0.4c-0.2,0.8-0.3,1.5-0.4,2.2
		c-0.1,0.8-0.2,1.3,0,2.1c0.2-0.7,0.3-1.3,0.5-2c0.2-0.6,0.4-1.3,0.7-2c0-0.1,0.1-0.2,0.1-0.3c0.3-0.6,0.6-1.3,0.9-2
		c0.1-0.2,0.3-0.5,0.4-0.7c0.1-0.2,0.2-0.3,0.3-0.5c0.8-1.3,1.7-2.5,2.8-3.8c1.5-1.7,3.4-3.2,5.5-4.6c2.1-1.4,4.6-2.6,7.3-3.4
		c5.3-1.6,11.6-1.6,17.9,0.2c6.2,1.8,11.7,5.1,15.8,9.1c2.1,2,4,4.1,5.6,6.2c0.1,0.2,0.3,0.4,0.5,0.6c1.4,1.8,2.5,3.7,3.5,5.4
		c1.1,1.9,2,3.8,2.8,5.4c0.7,1.7,1.4,3.1,1.8,4.4c0.7,2.2,1.1,3.5,1.2,3.8c0-0.1,0-0.5-0.1-1c0-0.7-0.1-1.7-0.3-3
		c-0.1-0.6-0.2-1.4-0.3-2.2c-0.1-0.8-0.3-1.6-0.5-2.6c-0.3-1.9-0.9-4-1.6-6.3c-0.8-2.2-1.8-4.6-3.2-7.1c1-0.8,2.1-1.6,3.3-2.4
		c1.9-1.2,4.1-2.3,6.5-3.3c2.5-0.9,5.1-1.7,8-2.2c2.9-0.4,5.9-0.7,9-0.4c3.1,0.3,6.2,0.9,9.3,2.1c3,1.2,5.8,2.8,8.3,4.7
		c2.5,1.8,4.6,4.1,6.4,6.3c1.8,2.3,3.2,4.7,4.5,7c0.3,0.6,0.6,1.2,0.8,1.8c-0.9,0.1-1.7,0.3-2.5,0.5c-1.5,0.4-2.8,0.9-3.8,1.2
		c-1,0.4-1.8,0.7-2.3,1c-0.4,0.2-0.6,0.3-0.7,0.4c0.1,0,0.4-0.1,0.8-0.3c0.5-0.2,1.3-0.4,2.4-0.6c1.7-0.4,4-0.7,6.8-0.7
		c0.7,0,1.4,0.1,2.1,0.1c0.3,0,0.6,0.1,0.9,0.1c3.5,0.4,7.5,1.4,11.4,3.6c4.2,2.3,8.1,6,10.9,10.6c2.9,4.7,4.3,9.8,4.4,14.6
		c0.1,2.1-0.1,4.1-0.4,6c-0.1,0.5-0.2,0.9-0.2,1.4c-0.4,1.9-0.8,3.8-1.3,5.4c-1.2,3.6-2.4,6.4-3.4,8.4c-0.8,1.7-1.4,2.7-1.5,2.9
		c0.2-0.2,0.9-1.1,2-2.6c0.6-0.9,1.4-2,2.2-3.3c0.8-1.3,1.7-2.9,2.6-4.6c0.6-1.3,1.3-2.8,1.8-4.4c0.3,0.2,0.6,0.4,0.8,0.7
		c2.9,2.5,5.5,6.3,7,10.8C374.9,129.5,374.8,134.9,373.1,140.1z"/>
	<path d="M105.1,191.3c0.6-0.3,1.3-0.7,2-1.2c0.5-0.4,1.1-0.8,1.7-1.3c0.9-0.8,1.9-1.8,2.7-3c1.4-1.9,2.6-4.3,3.2-7
		c0.3-1.4,0.5-2.8,0.5-4.2c0-1.2-0.1-2.4-0.2-3.5c-0.4-2.3-1.1-4.3-1.8-5.9c-0.7-1.6-1.5-2.8-2.1-3.5c-0.5-0.7-0.8-1.1-0.9-1.1
		c0.1,0.1,0.3,0.5,0.7,1.3c0.5,0.8,1,2.1,1.6,3.7c0.5,1.6,0.9,3.6,1,5.8c0.1,2.2-0.2,4.6-0.8,7c-0.6,2.4-1.6,4.6-2.8,6.4
		c-1.1,1.8-2.4,3.4-3.6,4.6c-1.2,1.2-2.2,2.1-3,2.6c-0.7,0.5-1.1,0.7-1.2,0.8c0.1,0,0.6-0.2,1.4-0.5
		C104,191.9,104.5,191.6,105.1,191.3z"/>
	<path d="M81.6,157.1c-1.3,1.1-2,2.3-2.2,3.2c-0.1,0.5-0.2,0.8-0.2,1c0,0.2,0,0.3,0,0.3s0.1-0.5,0.5-1.2c0.5-0.7,1.3-1.7,2.5-2.3
		c1.3-0.7,3-0.9,4.8-0.5c0.9,0.2,1.8,0.6,2.6,1.1c0.9,0.5,1.6,1.2,2.4,1.9c1.5,1.5,2.5,3.3,3,5.1c0.3,0.9,0.5,1.8,0.6,2.6
		c0.1,0.9,0.1,1.7,0.1,2.4c-0.1,0.7-0.1,1.4-0.2,2c-0.1,0.6-0.3,1.1-0.4,1.5c-0.3,0.7-0.5,1.1-0.5,1.2c0.1-0.1,0.4-0.4,0.9-1.1
		c0.2-0.4,0.6-0.8,0.8-1.4c0.3-0.6,0.6-1.2,0.9-2c0.2-0.8,0.4-1.7,0.5-2.7c0.1-1,0-2.1-0.2-3.2c-0.4-2.2-1.5-4.6-3.4-6.5
		c-1.9-1.9-4.4-2.9-6.7-3.1C85,155.2,82.9,156,81.6,157.1z"/>
	<path d="M53.9,176.9c0.4,0.4,0.8,0.8,1.2,1.2l0.6,0.6c0.1,0.1,0.1,0.1,0.1,0.1l0,0h0c0,0-0.1,0.2-0.1,0.3c0,0.1,0,0.1-0.1,0.3
		l-0.2,0.8c-1.1,4.2-0.6,8.4,0.9,12c0.7,1.8,1.7,3.4,2.9,4.8c1.2,1.4,2.6,2.5,4.1,3.4c3,1.8,6.2,2.4,9.1,2.3
		c2.9-0.1,5.3-0.9,7.3-1.9c1.7-0.9,3.1-1.9,4.1-2.9c0.2-0.2,0.3-0.3,0.5-0.5c0.2-0.2,0.4-0.5,0.6-0.7c0.7-0.8,1.2-1.5,1.5-2.1
		c0.4-0.7,0.6-1.1,0.6-1.1s-0.3,0.3-0.7,1c-0.4,0.5-0.9,1.1-1.7,1.8c-0.2,0.2-0.5,0.4-0.7,0.6c-0.2,0.1-0.3,0.2-0.5,0.4
		c-1.1,0.8-2.5,1.6-4.2,2.2c-1.9,0.7-4.3,1.2-6.9,1.1c-2.6-0.1-5.3-0.8-7.8-2.5c-2.4-1.6-4.5-4.2-5.7-7.2c-1.3-3-1.6-6.7-0.6-10.1
		l0.2-0.6c0.1-0.2,0.3-0.7,0.4-1.1l0.5-1.2l0.1-0.3c0-0.1-0.2-0.2-0.2-0.2l-1.2-0.9c-0.2-0.2-0.4-0.3-0.5-0.4l-0.5-0.4
		c-0.3-0.3-0.6-0.6-0.9-1c-1.1-1.4-2-3-2.5-4.8c-0.6-2.1-0.5-4.3,0.1-6.3c0.6-2,1.7-3.7,3.3-5c1.5-1.3,3.3-2.3,5.1-2.8
		c0.9-0.3,1.8-0.4,2.7-0.4l0.7,0l0.4,0c0.2,0,0.4,0,0.7,0.1c0.9,0.2,1.8,0.3,2.7,0.5c-0.1-0.6-0.2-1.2-0.3-1.7l-0.2-1.5l-0.1-0.4
		l0-0.6c0-0.3,0-0.5,0-0.8c0.1-1.1,0.3-2.1,0.7-3.1c0.7-2,1.9-3.7,3.3-5c1.4-1.3,3-2.1,4.6-2.6c1.6-0.5,3.2-0.6,4.6-0.4
		c2.8,0.2,4.9,1.3,6.2,2.2c0.6,0.4,1.1,0.8,1.4,1.1c0.1,0.1,0.2,0.2,0.3,0.3c-0.1-0.1-0.1-0.2-0.2-0.3c-0.3-0.3-0.7-0.7-1.3-1.2
		c-1.2-1-3.3-2.3-6.2-2.8c-1.5-0.3-3.2-0.3-5,0.1c-1.8,0.3-3.7,1.2-5.4,2.5c-1.7,1.4-3.1,3.2-4.1,5.4c-0.5,1.1-0.8,2.3-1,3.6
		c0,0.3-0.1,0.6-0.1,1l0,0.5l0,0.3l0,0.5c-0.1,0-0.2-0.1-0.3-0.1l-0.1,0l-0.3,0l-0.8,0c-1.1,0-2.2,0.1-3.4,0.4
		c-2.2,0.5-4.4,1.6-6.3,3.2c-1.9,1.6-3.5,3.8-4.2,6.3c-0.8,2.5-0.8,5.3-0.1,7.9C51.3,173.1,52.4,175.2,53.9,176.9z"/>
	<path d="M44.1,187.7c-0.7-0.7-1.6-1.7-2.6-3.2c-1-1.4-1.9-3.2-2.6-5.3c-0.7-2.1-1.2-4.4-1.2-7c0-2.5,0.5-4.9,1.2-7
		c0.8-2.1,1.7-3.9,2.8-5.3c1-1.4,2-2.4,2.7-3c0.6-0.6,1-0.9,1.1-0.9c-0.1,0.1-0.6,0.3-1.2,0.8c-0.8,0.6-1.9,1.4-3.2,2.7
		c-1.2,1.3-2.5,3-3.6,5.2c-1,2.1-1.8,4.8-1.8,7.6c0,1.4,0.1,2.8,0.4,4.1c0.2,1.3,0.7,2.5,1.2,3.6c1,2.2,2.2,4,3.5,5.3
		c0.6,0.7,1.2,1.2,1.8,1.6c0.5,0.4,1,0.8,1.5,1.1c0.7,0.5,1.2,0.7,1.3,0.8C45.1,188.6,44.7,188.3,44.1,187.7z"/>
</g>
</svg>
