<?xml version="1.0" encoding="utf-8"?>
<!-- Generator: Adobe Illustrator 19.2.0, SVG Export Plug-In . SVG Version: 6.00 Build 0)  -->
<svg version="1.1" id="Capa_1" xmlns="http://www.w3.org/2000/svg" xmlns:xlink="http://www.w3.org/1999/xlink" x="0px" y="0px"
	 viewBox="0 0 425.2 425.2" style="enable-background:new 0 0 425.2 425.2;" xml:space="preserve">
<path d="M32.9,387.8c2.3,2.8,5.8,3.8,10.8,1.1c3.9-2.1,6-5.8,6.5-10.1c1.1-9.8,0.1-18.8,4.2-28.2c14.2-32.2,54.2-44.9,84.5-57.9
	c0,0,0,0,0,0c18.4-5.9,37-11.5,53.7-21.5c9.7-5.7,18.5-13,27.2-20.1c7.2-5.9,14.8-11.2,22.1-17c7.3,13.7,17.1,25.1,30.8,33.5
	c2.5,1.5,5,2.8,7.5,3.9c17.5,9.8,35.7,8.4,55.2,8.9c38,0.9,66.6-32.7,67.6-68.9c-0.5-21.8-10.3-41.3-28.1-53.8
	c15.4-25.8,14-61.6-3.6-85.9c-7.1-9.8-16.1-16.7-26.2-21.2c-20-11.2-45.1-11.3-67.1-2.6c-3.4-2.6-7-4.8-10.8-6.4
	c-15.9-9.3-35.8-8.9-51.8,2c-9.9,6.7-18,15-25,24.7c-5.6,7.9-7.2,16.8-6.8,26c-2.1,0.2-3.8-0.3-7.3-1.6c-4.5-1.6-9.3-2.3-14-2.6
	c-11-0.7-24.1,1.8-34.4,5.5c-19.2,7-34.3,22.1-40.9,41.4c-11.3,33,11.2,68,41.7,81.6c6.2,3.4,12.9,5.9,19.7,7.3c0,0,0,0.1-0.1,0.1
	c-11.1,13.8-22.9,24.5-39.1,32.9c-14.9,7.8-29.8,15.5-43.7,25c-27.6,18.8-44.5,45-43.2,79.1C22.6,370.4,23.6,387.6,32.9,387.8z
	 M83.1,281.6c13.3-7.7,28.9-13.2,41.2-22.3c10.6-7.8,19.2-16.3,27.3-26.1c0.2-0.2,0.3-0.4,0.5-0.6c0.3-0.3,0.5-0.5,0.8-0.9
	c0.3-0.4,0.6-0.7,0.8-1.1c0.9-1.1,1.8-2.3,2.7-3.4c0.2-0.2,0.4-0.5,0.6-0.7c0.3-0.4,0.5-0.8,0.7-1.2c0.1-0.1,0.1-0.2,0.1-0.3
	c0.5-0.7,1-1.4,1.5-2c0.1-0.1,0.1-0.2,0.2-0.2c0-0.1,0.1-0.1,0.1-0.2c0.1-0.1,0.2-0.2,0.2-0.4c0.6-1,1.1-2.5,1.2-3.7
	c0-1.4-0.6-2.6-2.7-2.6c-8.7,0.1-17.3-1.9-25.1-5.5c-19.3-8.7-34.6-26.7-39-47.2c-1.6-7.5-1.8-15.2-0.2-23
	c4.1-19.8,22.2-33.3,40.8-38.1c0.2,0,0.4-0.1,0.5-0.1c9.8-2.4,21.2-3.8,31.2-1.8c4.3,0.8,8.3,2.7,12.3,4.3c2,0.8,4.9-0.8,7.2-1.9
	c0.6-0.3,1.2-0.5,1.6-0.7c0.5-0.2,1-0.4,1.5-0.7c1.7-1,2.9-2.8,3.1-4.8c0-0.3,0-0.7,0-1c-1.3-11.5,1.1-19.7,8.3-28.8
	c5.4-6.9,12.2-12.5,19.5-17.2c4-2.6,8.4-4.2,12.7-5c9.7-1.8,19.7,0.5,28.3,5.5c3.7,2.2,7.1,4.8,10.1,7.9c0.8,0.8,2,0.7,3,0.4
	c0.3-0.1,0.7-0.2,1-0.4c1.4-0.6,2.7-1.2,4.1-1.7c2.4-0.9,4.9-1.8,7.4-2.5c17.8-5,36.9-3.4,52.7,5.4c5.9,3.3,11.3,7.6,16.1,13
	c18.9,21.4,22.6,59.5,5.8,83.2c-1,1.4-2.7,4.7-0.5,6.1c17.4,11.2,28.1,29.2,28.6,50c-1,35.8-29.6,61.4-65.4,57
	c-3.8-0.5-8.8,1-12.8,1c-4.8,0-9.6-1-14.3-2.1c-3.7-0.8-7.2-2-10.6-3.6c-4.1-1.8-8.1-4.1-11.8-6.6c-13-8.8-21.6-21.5-28-35.5
	c-0.3-0.6-0.6-1.3-0.9-1.9c-1-2.2-4.2-1.3-5.6-0.1c-7.6,6.6-16.1,12.1-23.8,18.5c-9.7,8.1-19.5,16.1-30.2,22.9
	c-14.6,9.3-31.6,14.2-48,19.4c-0.6,0-1.4,0.1-2.3,0.5c-27.3,12.1-57.2,22.3-78.7,43.9c-7.7,7.7-13.8,17.3-17.4,27.6
	c-1.8,5.2-2.6,10.6-2.9,16c-0.1,2.3-0.2,4.5-0.2,6.8c0,5.2-1.9,3.6-3.1,0.9c-0.3-0.7-0.5-1.5-0.7-2.2c-1.1-5-1.6-10-1.9-15
	C28,322,54,298.5,83.1,281.6z"/>
</svg>
