<?xml version="1.0" encoding="utf-8"?>
<!-- Generator: Adobe Illustrator 19.2.0, SVG Export Plug-In . SVG Version: 6.00 Build 0)  -->
<svg version="1.1" id="Capa_1" xmlns="http://www.w3.org/2000/svg" xmlns:xlink="http://www.w3.org/1999/xlink" x="0px" y="0px"
	 viewBox="0 0 425.2 425.2" style="enable-background:new 0 0 425.2 425.2;" xml:space="preserve">
<g>
	<path d="M318.1,249.5l1.1-1.6l1.9,0.2c3.9,0.4,7.8,0.6,11.7,0.5c17.4-0.5,33.7-5.8,45.7-15.1c11.7-9.1,18-20.8,17.7-33
		c-0.5-20-18.7-37.2-45.2-42.9l-5.1-1.1l3.3-4.1c2.7-3.3,4-6.8,3.9-10.3c-0.4-14.7-25.8-26.6-56.7-26.6l-3,0l-0.5-2.7
		c-3.7-21.5-33-37.5-67.5-36.6c-23.7,0.6-45.6,9.3-57.3,22.7l-1.4,1.6l-2-0.6c-9.6-2.9-19.9-4.2-30.9-3.9
		c-17.5,0.5-33.9,5.1-46,13.1c-11.6,7.7-17.9,17.4-17.6,27.5c0.1,2.4,0.5,4.8,1.3,7.1l1.2,3.6l-3.8,0.6
		c-20.6,3.2-35.3,16.1-34.9,30.7c0.1,4.9,1.9,9.5,5.3,13.8l2.9,3.6l-4.3,1.5c-15.5,5.4-24.9,14.5-24.7,23.8
		c0.4,14.2,22.7,25.7,49.7,25.7c0,0,0,0,0,0c0.8,0,1.7,0,2.5,0c17.2-0.4,33.1-5.5,42.6-13.4l1.2-1l1.5,0.3c1.1,0.2,2.1,0.4,3.2,0.5
		l8.1,1.1l-6.7,4.7c-7.5,5.3-11.5,11.9-11.3,18.6c0.4,14.7,20.5,26.5,44.6,25.9c15.9-0.4,30.4-6.2,38-15.1l4.3-5l1.4,6.4
		c3,14.2,26.5,24.8,54.1,24.1c29.1-0.8,53.4-14.3,53-29.5c0-0.1,0-0.2,0-0.4l-0.2-2.9l2.5-0.8C309,258.3,314.8,254.4,318.1,249.5z"
		/>
	<path d="M342.5,268.9c-15.2,0-27.6,11.9-27.6,26.5s12.4,26.5,27.6,26.5c15.2,0,27.6-11.9,27.6-26.5S357.8,268.9,342.5,268.9z"/>
	<path d="M392.3,319.7c-8.4,0-15.3,6.9-15.3,15.4c0,8.5,6.9,15.4,15.3,15.4c8.4,0,15.3-6.9,15.3-15.4
		C407.5,326.6,400.7,319.7,392.3,319.7z"/>
</g>
</svg>
