<?xml version="1.0" encoding="utf-8"?>
<!-- Generator: Adobe Illustrator 19.2.0, SVG Export Plug-In . SVG Version: 6.00 Build 0)  -->
<svg version="1.1" id="Capa_1" xmlns="http://www.w3.org/2000/svg" xmlns:xlink="http://www.w3.org/1999/xlink" x="0px" y="0px"
	 viewBox="0 0 425.2 425.2" style="enable-background:new 0 0 425.2 425.2;" xml:space="preserve">
<path d="M354.6,119.1c-5.3-17.2-13.9-32.7-24.9-45.9C305,41.1,266.5,21,224.3,20.9c-58.9-0.2-111.1,40.8-127.8,96.6
	c-29,3.8-53.1,23.3-63.1,51c-9.1,25.4-2.6,53.4,14.3,73.2c3.3,4.5,7.2,8.6,11.5,12.3c-7,4.1-12.7,9.8-17,16.9
	c-2.6,4.3-4.4,9.3-5.3,14.2c-0.5,2.8-0.7,5.5-0.8,8.3c0,2-4,3.9-5.5,5.2c-17.4,14.5-17.6,40.7-2.9,56.8c0,0.1,0.1,0.1,0.1,0.2
	c-7.5,12.3-5.2,26.8,3.6,36c4.5,6.9,12,11.9,21.6,12.9c22.7,2.4,37-22.2,29.5-41.6c7.4-5.9,12.3-13.7,14.6-22.9
	c11.8-4,21.3-12,27.1-23.1c33.4,21.1,77.1,9.1,95.9-25.3c1.9,1.7,5.4,5.8,6.3,6.5c3.4,2.9,7,5.4,10.7,7.9
	c6.9,4.6,14.5,8.2,22.3,11.1c16.1,6,33.7,7.5,50.7,5.4c28.3-3.4,54-18.7,71.8-40.7c33.5-41.4,29.9-100.2-2.6-138.9
	C372.7,133.7,364.4,125.7,354.6,119.1z M375.2,277c-18.3,22.6-46,36-74.8,37.9c-16.5,1.1-32.9-2.1-48.1-8.5
	c-7.4-3.1-14.3-7.3-20.8-12c-3-2.2-5.8-4.6-8.5-7c-1.4-1.3-3.7-4.8-5.7-4.9c-0.9,0-1.9,0.8-2.3,1.5c-17.2,34.7-60.8,45.6-92.7,23.9
	c-1.1-0.7-2.6,0.2-3.1,1.3c-5.2,11.4-14.3,19.5-26.3,23.1c-1.2,0.4-1.9,1.4-2.1,2.5c-1.9,9.3-6.8,16.7-14.4,22.2
	c-0.9,0.6-1.4,1.9-1,2.9c8.7,19.2-6.4,39.5-27.3,35.8c-5.3-0.9-9.6-3.4-12.9-6.7c-3.1-3.1-5.3-7.1-6.5-11.3c-0.8-3-1.2-6.2-0.9-9.4
	c0.2-3.4,1.1-6.7,2.6-9.8c0.3-0.7,0.7-1.4,1.1-2.1c0.2-0.4,0.4-0.7,0.7-1.1c0.3-0.4,0.4-1,0.3-1.5c-0.1-0.3-0.2-0.6-0.4-0.8
	c-0.3-0.3-0.7-0.7-1-1.1c-4.1-4.5-6.9-9.7-8.4-15.1c-1.2-4.5-1.6-9.2-1.1-13.7c1.2-10.3,7-20,17.1-25.9c0.3-0.2,0.7-0.5,0.9-0.8
	c0.4-0.4,0.7-1,0.7-1.5c-0.1-2.4,0.1-4.8,0.4-7.2c1.7-13.4,9.3-24.8,21.6-31.3c0.7-0.4,1.5-0.8,2.3-1.1c0,0,0.1-0.1,0.1-0.1
	c0.5-0.2,1.1-0.9,1.5-1.7c0.3-0.7,0.4-1.5-0.3-1.9c-5.6-3.8-10.5-8.2-14.7-13.2c-7.3-8.5-12.5-18.5-15.3-29.1
	c-2.3-8.7-2.9-17.8-1.8-27c0.3-2.7,0.8-5.4,1.5-8.1c6.9-28.9,32.6-49.7,61.7-52.7c1.1-0.1,2.2-0.9,2.5-2.1
	c15.4-54.6,64.5-92.4,120.8-94.2c1.5-0.1,3.1-0.1,4.6-0.1c18.7,0.1,36.7,4.4,53,12.2c18.8,8.9,35.4,22.4,48.2,39
	c9.8,12.8,17.4,27.5,22,43.3c0,0.5,0.1,0.9,0.6,1.2c0.8,0.5,1.5,1,2.3,1.5c0.2,0.2,0.4,0.3,0.7,0.5c0.8,0.6,1.7,1.2,2.5,1.8
	c8.5,6.2,15.9,13.5,22,21.6C405,183.7,406.8,237.9,375.2,277z"/>
</svg>
