<?xml version="1.0" encoding="utf-8"?>
<!-- Generator: Adobe Illustrator 19.2.0, SVG Export Plug-In . SVG Version: 6.00 Build 0)  -->
<svg version="1.1" id="Capa_1" xmlns="http://www.w3.org/2000/svg" xmlns:xlink="http://www.w3.org/1999/xlink" x="0px" y="0px"
	 viewBox="0 0 425.2 425.2" style="enable-background:new 0 0 425.2 425.2;" xml:space="preserve">
<path d="M61.5,275.3c0,0.6,0,1.3,0,1.9c0,34.8,28.2,63.1,63.1,63.1c14.9,0,28.6-5.2,39.4-13.8c7,7.6,17,12.3,28.1,12.3
	c14.9,0,27.8-8.6,34.1-21c6.7,4.9,14.9,7.8,23.9,7.8c8,0,15.4-2.3,21.7-6.3c8.6,6.7,19.4,10.7,31.1,10.7c17.7,0,33.2-9.1,42.3-22.8
	c16.5-1,29.7-14,31-30.4c23.7-3.2,41.9-23.4,41.9-48c0-21.8-14.4-40.3-34.3-46.3c-4.8-41.6-40.1-74-83.1-74
	c-17.1,0-33.1,5.2-46.3,14C249,88.8,219.8,63,184.7,63c-30,0-55.6,18.8-65.8,45.3c-4.8-0.8-9.8-1.2-14.9-1.2
	c-49.4,0-89.5,40.1-89.5,89.5C14.5,230.5,33.5,260.1,61.5,275.3z M306.3,120.2c30.5-2.1,56.9,20.8,59,51.3c0.8,11.6-2,22.5-7.4,31.8
	c3.4-8.1,5-17.1,4.3-26.4c-2.2-31.8-29.8-55.8-61.6-53.5c-6.8,0.5-13.3,2.1-19.2,4.7C288.8,123.6,297.2,120.8,306.3,120.2z
	 M90.6,162.1c-1.1,10,4.3,20.1,14,24.4c1.9,0.9,3.9,1.4,5.9,1.8c-3,0.1-6-0.4-8.9-1.7C92.1,182.4,87.4,171.7,90.6,162.1z
	 M66.5,211.3c6.1-12.9,15.8-23,27.3-29.7c-8.6,6.6-15.7,15.3-20.7,25.8c-16.9,35.6-1.7,78.1,33.8,94.9c7.6,3.6,15.5,5.8,23.5,6.5
	c-10.5,0.4-21.3-1.7-31.5-6.6C64.8,286.1,50.3,245.4,66.5,211.3z"/>
</svg>
