<?xml version="1.0" encoding="utf-8"?>
<!-- Generator: Adobe Illustrator 19.2.0, SVG Export Plug-In . SVG Version: 6.00 Build 0)  -->
<svg version="1.1" id="Capa_1" xmlns="http://www.w3.org/2000/svg" xmlns:xlink="http://www.w3.org/1999/xlink" x="0px" y="0px"
	 viewBox="0 0 425.2 425.2" style="enable-background:new 0 0 425.2 425.2;" xml:space="preserve">
<path d="M415.8,263.7c0-0.2,0-0.4,0-0.6c-0.1-7-1.5-13.8-4.1-20.1c-1.9-4.5-4.4-8.7-7.4-12.5c-4-5-8.8-9.3-14.5-12.8
	c-0.9-0.6-1.5-1.7-1.3-2.8c0.2-1.3,0.3-2.6,0.5-3.9c0.1-1.2,0.2-2.3,0.3-3.4c0-0.9,0.1-1.8,0.1-2.6c0-0.3,0-0.6,0-0.8
	c0-0.2,0-0.5,0-0.7c-0.2-7.9-1.8-15.5-4.5-22.7c-2.2-5.8-5.2-11.2-8.9-16.2c-15-20.7-41.2-34.4-70.9-34.4l-0.7,0l-0.3,0
	c-1.4,0-2.5-1-2.8-2.3c-0.7-3.9-1.6-7.7-2.8-11.4c-0.3-1-0.6-1.9-1-2.8c-0.5-1.2-1-2.5-1.5-3.7c-2.6-6-5.9-11.6-9.8-16.7
	c-14.8-19.2-38.3-31.2-64.5-31.2c-32.7,0-62,19.1-74.5,48.7c-0.5,1.1-1.7,1.8-2.9,1.7c-5.4-0.7-11.1-1.1-17.2-1.1
	c-59.1,0-107.1,40.4-107.1,90c0,27,14.3,52.3,39.2,69.5c1,0.7,1.4,2,1.1,3.1c-2.2,6.6-3.3,13.4-3.3,20.1c0,36.6,30.6,66.3,68.2,66.3
	c0.1,0,0.2,0,0.3,0c5.7,0,11.3-0.8,16.7-2.1c7.5-1.9,14.7-5.1,21.2-9.4c0.8-0.5,1.5-1,2.3-1.6c2.5-1.8,5-3.9,7.3-6.1
	c0.5-0.5,1.2-0.8,1.9-0.8c0,0,0.1,0,0.2,0c0.8,0,1.5,0.4,2,1c17.6,21.1,43.6,33.2,71.3,33.2c0.9,0,1.7,0,2.6,0
	c8.1-0.2,16-1.5,23.6-3.7c9.9-2.9,19.2-7.4,27.5-13.2c12.7-9,23.1-21.2,29.9-35.6c0.4-0.8,0.8-1.7,1.1-2.5c0.4-0.8,0.7-1.7,1.1-2.6
	c0.4-0.9,0.7-1.8,1.1-2.8c0.3-0.7,0.8-1.3,1.5-1.6c0.7-0.3,1.5-0.3,2.2,0.1c7.3,3.4,14.8,5.2,22.4,5.3c0.2,0,0.4,0,0.6,0
	c4.6,0,9.1-0.6,13.4-1.7c6.7-1.7,13-4.7,18.4-8.7C407,297.5,415.8,281.6,415.8,263.7z"/>
</svg>
