<?xml version="1.0" encoding="utf-8"?>
<!-- Generator: Adobe Illustrator 19.2.0, SVG Export Plug-In . SVG Version: 6.00 Build 0)  -->
<svg version="1.1" id="Capa_1" xmlns="http://www.w3.org/2000/svg" xmlns:xlink="http://www.w3.org/1999/xlink" x="0px" y="0px"
	 viewBox="0 0 425.2 425.2" style="enable-background:new 0 0 425.2 425.2;" xml:space="preserve">
<g>
	<path d="M320.5,227.8c-16.8-5.7-41.3-17.9-43.3-26.9c-0.6-2.5-0.2-13.1,28.7-43.8c1.8-1.9,9.4-10.3,9.7-10.7l10.9-12.1l-25.8,12.3
		c-9.1,4.5-36,16-51,16c-4.3,0-6.1-0.9-6.8-1.5c-2.9-2.3-7.9-11.2-8.5-44.6c-0.1-4.4-0.5-12.1-0.6-12.4l-0.7-11.3l-8.5,15.8
		l-0.9,1.6c-9.7,16.7-27.4,40.4-36.6,41c-0.1,0-0.2,0-0.3,0c-4.5,0-16.1-5-42.3-38.3c-3-3.8-8.5-12.5-8.6-12.6l-8.3-13.1l4,25.1
		l0.3,1.9c3.2,18.3,4.8,47-1.4,53.7c-1.5,1.7-7.1,5.5-26.1,5.5c-17,0-35.5-3-41.6-4c-1.8-0.3-16.1-2.6-16.1-2.6l-18.7-3l29.4,15.8
		l0.2,0.1c19.9,9.4,48.3,27.3,49.3,37.6c1.2,13-23.1,37.1-34.8,48.7c-3.1,3.1-5.8,5.7-7.6,7.7l-23.6,22.9L70.8,283l0.1-0.1
		c9.7-5,37.9-17.9,52-17.9c3.9,0,4.8,1,4.8,1.1c2.3,2.9,2.2,16.8-12.5,50.2c-0.8,1.7-6.7,15.6-7,16.2l-8.4,19.6l24.3-28.5
		c14.9-18,40.9-43.4,52-43.4c0.4,0,0.8,0.1,1.1,0.1c3.2,0.9,12.3,7.7,27.8,50.5c1.5,4.1,4.9,15.5,5,15.6l5,16.6l2.2-30.5
		c1.2-23.5,6.7-50.7,13.2-53.7c0.9-0.4,2.6-0.9,5.7-0.9c11.4,0,31.5,6.9,56.8,19.4c1.9,1,15.7,6.7,17.3,7.3l20.8,8.7l-28.8-23.2
		l-1.5-1.4c-16.7-14.8-29.2-32.6-26.8-38.2c2-4.5,14.6-10.3,43.8-11.7c1.6-0.1,13.3-0.9,13.7-0.9l16.4-1.2l-25.4-8.3L320.5,227.8z
		 M267.2,245.7c-6.1,14.2,28.3,44.6,28.3,44.6c-0.1,0.2-51.8-27.3-68.9-19.3c-13.8,6.5-16.4,58.6-16.4,58.6
		c-0.4,0.1-17-52.7-32.8-57.3c-17.5-5.1-59.1,45.1-59.1,45.1c-0.2-0.1,21.7-45.5,12.4-57.4c-9.8-12.5-63.9,15.2-63.9,15.2
		c9.8-10.7,45.8-41.7,44-60.9c-1.7-18.1-52.5-42.2-52.5-42.2c0.1-0.2,61.3,11.7,74.8-3c10.9-11.8,2.8-58.5,2.8-58.5
		c0.5-0.2,32.3,44.8,50.1,43.6c16.3-1.1,41.1-43.8,41.1-43.8c0.5,0.2-1.3,42.9,10.7,52.5c13.5,10.8,63.7-13.9,63.7-13.9
		c0.2,0.2-35,34.9-31.5,50.4c3.7,16.2,47,31,47,31C317.2,230.7,273.5,231.1,267.2,245.7z"/>
	<path d="M399.7,120.3c-0.1-10.1-2.4-17.6-6.1-20.1c-5.5-3.8-11.5,2.5-17.7,9.2c-1.2,1.3-2.5,2.7-3.8,4c-5.1-4-9.3-7-13.1-6.5
		c-1.6,0.2-3.1,1.1-4.3,2.7c-0.3,0.4-0.6,0.8-0.8,1.2c-2.7,4.5-2.9,10.3-0.4,17.7c-0.8,0.8-1.4,1.5-1.9,2.3c-1.2,1.9-1.4,3.9-0.6,6
		c0.6,1.7,1.7,3.1,2.9,4.4l-20.4,19.2l3.1-2.7l17.9-15.8l1.6-1.4l0.4-0.3l2.5-2.2l1.4-2.9l0,0l-4.6,4.4c-0.1-0.1-0.1-0.2-0.2-0.2
		c-2.2-2.7-0.4-6.9,1.5-9.9c1.2-2,2.5-3.5,3-4.2c0.1-0.1,0.2-0.2,0.2-0.3c0-0.1,0.1-0.1,0.1-0.2l0.2-1.2l-1.3,0.9
		c-1,0.6-2.1,1.4-3.2,2.1c0.4-3,0.8-5.3,2.2-7.6c0.2-0.4,0.5-0.7,0.8-1.1c2.6-3.4,5.9-2.9,9.8-2.3c0.4,0,0.7,0.1,1.1,0.2
		c-0.6,0.5-1.2,1.1-1.8,1.6l-3.3,2.9l3.9-2.1c1.3-0.7,2.6-1.5,3.6-2.1c0.4,0,0.9,0,1.3,0l1.4,0l-1.3-1c0.6-0.4,1.3-0.9,1.9-1.3
		c5.8-3.9,10.8-7.3,15.6-4.2c1.6,1,3.1,4.8,4.3,10.6l-3.6-0.3l2.2,1.1c0.6,0.3,1.2,0.6,1.8,0.9c1,5.4,1.4,10.4,1.4,11.9l0.1,3.8
		l0.9-3.7c0.7-2.9,1.2-6.6,1.3-10.3c6.3,2.8,10,4.5,9.5,10.8c-0.1,1.3-0.6,2.8-1.5,4.3c-1,1.7-2.6,3.5-4.7,5.5
		c-0.6-2.5-1.7-4.9-3.4-7.2l-0.9-1.3l0,1.6c0.1,6.7-0.2,10.7-2.1,13.7c-0.8,1.3-1.9,2.5-3.4,3.5c-3.5,2.4-9.5,1.8-13.5,0.5l0-0.3
		c0.5,0,0.9-0.1,1.2-0.1c-0.4,0.1-0.8,0.1-1.2,0.1l0-0.5c-0.6,0-1.3,0-1.9,0c-0.4-0.2-0.9-0.5-1.2-0.7l-0.5-0.3l10.5-3.4l-2-0.1
		l-6.6-0.3l-9.6,3.6l-0.8,0.3l-2.6,1L325.6,169l-4.1,1.5l4.4-1.4l7.2-2.3l36.1-11.7c2,0.3,4.5,0.3,7.6,0c6.6,7.5,15.6,8.6,20.1,5.4
		c1.6-1.1,3-2.7,4.1-4.4c1.7-2.7,2.5-5.9,2.4-9.1c4.8-1.7,8.4-4.2,10.2-7.2c0.9-1.5,1.4-3.1,1.4-4.7
		C415.1,126.9,410,121.9,399.7,120.3z M373.9,153.6l1.3-0.4l0.5,0.6C375.1,153.7,374.5,153.7,373.9,153.6z M375.1,153l-1.8,0.6
		l-1.1,0.4l-3.4,1.1l-26.7,8.8l-9,3l33.1-12.4l2.8-1.1l0.9-0.3l4.1-1.5l0.1-0.1l4.4-1.6l4.2,0.2l1.1,0.1l-8,2.6L375.1,153z"/>
	<polygon points="363.3,146.8 362.1,147.6 361.7,147.8 360.6,148.5 342.2,159.6 361,150 362.4,149.3 362.8,149 365.9,147.5 
		366.8,147 383.3,138.6 386,133.2 364.5,146.2 	"/>
	<polygon points="361.5,140.8 359.2,142.6 358.8,142.9 357.3,144 330.9,164.1 359,145.1 360.3,144.2 361,143.7 361.1,143.7 
		361.7,143.3 371.6,136.6 373.5,131.7 361.5,140.8 	"/>
	<polygon points="54.5,318.4 53.6,319.3 52.8,320.2 36.5,336.1 41.8,335 53,322.4 53.6,321.7 55.7,319.4 56,319 56.9,318 
		69.6,303.6 55.7,317.3 54.9,318.1 	"/>
	<polygon points="52.5,313.4 51.2,314.4 50.8,314.7 48.7,316.4 48.7,316.4 38,324.9 42.8,324.2 50.9,317 51.3,316.7 51.4,316.6 
		52,316.1 53,315.1 76.1,294.7 	"/>
	<path d="M59.5,322.4l-1.4,2l-0.5,0.6l-5.4,7.6l-1.2,5.9l-0.4,1.8l5.4-8.5l0.2,0.5c0.1,0.3,0.2,0.7,0.3,1.2
		c-0.1,0.5-0.3,1.1-0.5,1.6l0.4,0.2c-0.1,0.4-0.3,0.7-0.4,1.1c0.1-0.3,0.3-0.6,0.4-1.1l0.3,0.1c0.3,3.8-0.6,9.2-3.5,11.7
		c-1.3,1.1-2.5,1.8-3.9,2.2c-3.1,0.9-6.6,0.3-12.5-1.3l-1.4-0.4l0.9,1.1c1.6,2,3.5,3.5,5.5,4.6c-2.2,1.4-4.2,2.4-5.9,2.9
		c-1.5,0.5-2.9,0.6-4.1,0.4c-5.6-1-6.3-4.7-7.3-10.8c3.3,0.7,6.6,1.1,9.3,1.2l3.5,0.1l-3.4-1c-1.3-0.4-5.6-1.9-10.1-4
		c-0.1-0.6-0.2-1.2-0.4-1.7l-0.5-2.2l-0.6,3.3c-4.9-2.4-7.8-4.6-8.4-6.2c-1.6-4.8,2.5-8.5,7.3-12.7c0.5-0.5,1-0.9,1.6-1.4l0.6,1.4
		l0.3-1.3c0.1-0.4,0.2-0.8,0.3-1.2c0.8-0.7,1.8-1.7,2.7-2.7l2.7-3l-3.3,2.3c-0.6,0.4-1.2,0.8-1.8,1.2c0-0.3,0.1-0.6,0.1-1
		c0.4-3.5,0.7-6.6,4.2-8.1c0.4-0.2,0.8-0.3,1.2-0.4c2.3-0.7,4.4-0.6,7.2-0.2c-0.9,0.8-1.8,1.6-2.6,2.3l-1.1,1l1.1,0
		c0.1,0,0.1,0,0.2,0c0.1,0,0.2-0.1,0.3-0.1c0.7-0.3,2.3-1.1,4.4-1.7c3.1-0.9,7.2-1.5,9.1,1c0,0.1,0.1,0.1,0.2,0.2l-4.3,2.7l-0.6,0.4
		l2.9-0.6l2.5-1.7l0.4-0.3l1.6-1.1l18-12.2l3.1-2.1l-21.5,13.6c-0.8-1.3-1.8-2.6-3.2-3.5c-1.6-1.1-3.4-1.4-5.4-0.8
		c-0.8,0.2-1.6,0.6-2.5,1.1c-6-3.8-11.1-5-15.7-3.6c-0.4,0.1-0.8,0.3-1.3,0.4c-1.6,0.7-2.8,1.8-3.3,3.2c-1.3,3.2,0.4,7.6,2.7,13
		c-1.5,0.8-2.9,1.7-4.4,2.5c-7.3,4-14.2,7.8-12.1,13.5c1.4,3.9,7.5,7.6,16.3,10c-0.9,9.4,2.3,15,9.5,16.8c1.5,0.3,3,0.3,4.5-0.2
		c3.1-0.9,6.1-3.5,8.7-7.4c2.8,0.8,5.7,0.8,8.5,0c1.8-0.5,3.4-1.4,4.8-2.6c3.9-3.2,4.9-11.4-0.2-18.9c0.9-2.6,1.5-4.8,1.7-6.7
		l18.4-28.9l3.8-6L84,288l-2.3,3.2L59.5,322.4z M56.9,331.7l-0.4-0.5l0.7-1.1C57.1,330.7,57,331.2,56.9,331.7z M73.4,304.4
		l-13.8,21.5l-1.8,2.7l-0.6,0.9l-0.9,1.4l-0.4,0.6l-4.1,6.4l0.2-1l0.8-3.8l2.5-3.5l0.1-0.1l2.3-3.2l0.5-0.7l1.6-2.2L78,297.2
		L73.4,304.4z"/>
</g>
</svg>
