<?xml version="1.0" encoding="utf-8"?>
<!-- Generator: Adobe Illustrator 19.2.0, SVG Export Plug-In . SVG Version: 6.00 Build 0)  -->
<svg version="1.1" id="Capa_1" xmlns="http://www.w3.org/2000/svg" xmlns:xlink="http://www.w3.org/1999/xlink" x="0px" y="0px"
	 viewBox="0 0 425.2 425.2" style="enable-background:new 0 0 425.2 425.2;" xml:space="preserve">
<path d="M414.7,230.5c0-15.4-13.2-28.4-31.4-31.1l-10.6-1.6l9.2-5.6c10.9-6.6,17.1-16.5,17.1-27.1c0-19-20-34.5-44.5-34.5
	c-17.7,0-33.7,8.2-40.8,20.8l-1.1,1.9l-2.2,0.1c-0.9,0-1.8,0.1-2.7,0.1l-3.1,0.2l-0.9-3c-6-19.9-34.7-34.4-68.3-34.4
	c-18.1,0-35.3,4.2-48.4,12l-2.5,1.5l-2.1-2c-11.3-10.9-28.2-17.1-46.4-17.1c-16.1,0-31.1,4.8-42.4,13.6l-1.5,1.2l-1.9-0.5
	c-7.5-2-15.4-3-23.6-3c-31.2,0-57.6,15.1-57.6,33.1c0,12,11.5,23.1,30.1,29l7,2.2l-5.7,4.5c-4.7,3.7-10.4,10-10.4,18.3
	c0,3,0.8,6,2.3,8.9l0.4,0.7l0.1,0.8c0,0.6,0.1,1.2,0.3,2l0.5,2.7l-2.3,1.4c-10.9,6.6-16.9,15.4-16.9,24.8c0,8.7,5.3,17.1,15,23.5
	l3.1,2.1l-1.9,3.2c-3.7,6.1-5.6,12.7-5.6,19.6c0,9,3.3,17.6,9.6,25l2.7,3.2l-3.4,2.5c-4.1,2.9-8.9,7.6-8.9,13.4
	c0,13.2,26.3,27.4,65.5,27.4c37,0,62.2-12.6,65.2-24.8l3.2-13.1l4.2,12.8c7.6,23.2,35.4,39.3,67.4,39.3c22.2,0,43.3-8.1,56.4-21.5
	l2.8-2.9l2.8,2.9c11.1,11.7,29,18.7,48,18.7c32.5,0,58.9-19.9,58.9-44.5c0-5.4-1.3-10.8-3.9-15.9l-1.2-2.4l1.8-2
	c3.9-4.3,5.9-9.1,5.9-13.9c0-3-0.8-5.9-2.4-8.9l-1.5-2.9l2.6-2c7.5-5.8,11.8-14.2,11.8-23.2c0-5-1.3-9.7-3.8-14.1l-1.3-2.3l1.6-2.1
	C412.6,242.5,414.7,236.6,414.7,230.5z"/>
</svg>
