<?xml version="1.0" encoding="utf-8"?>
<!-- Generator: Adobe Illustrator 19.2.0, SVG Export Plug-In . SVG Version: 6.00 Build 0)  -->
<svg version="1.1" id="Capa_1" xmlns="http://www.w3.org/2000/svg" xmlns:xlink="http://www.w3.org/1999/xlink" x="0px" y="0px"
	 viewBox="0 0 425.2 425.2" style="enable-background:new 0 0 425.2 425.2;" xml:space="preserve">
<path d="M370.3,184.1c9.9-28.1,4.7-59.3-14.9-82.2c-1.2-1.5-2.4-3.1-3.6-4.5C332.3,74.8,301,67.9,273.5,78c-0.9-1.2-1.9-2.5-2.9-3.6
	c-11.4-15.5-28.5-25.1-48.2-25.5c-20.6-0.4-39,11.4-50.5,27.8c-27.4-18-62-16.2-87.7,4.3c-25.1,20-34.8,54-28.3,84.8
	c-38.1,20.7-45.6,73.6-18.3,104.6c4.5,6.2,10.3,11.7,17.3,16.1c4.8,3,10,5.1,15.4,6.6c2.1,0.6,4.4,1,6.6,1.3c0.3,0,0.6,0.1,0.9,0.2
	c0.2,0.5,0.3,1.1,0.5,1.7c2.9,8,7.1,15.1,12.6,21.4c3.4,4.6,7.3,8.8,11.9,12.5c20.2,16.4,48.2,15.9,69.4,2.1
	c26.6,25.5,67.1,21.2,89.6-7.3c1.5,0.2,3.7,0.4,5.3,0.9c1.1,2.6,2.7,5.1,4.5,7.2c2.2,2.5,1.6,7,2.6,10.2c0.9,2.8,2.4,5.5,4.4,7.7
	c0.3,0.4,0.7,0.7,1,1c0.7,1.2,1.5,2.4,2.5,3.3c8.5,9.2,20.8,9.4,29.8,2.7c1,2.7,2.6,5.2,4.8,7.2c2.2,3.8,5.7,6.8,10.5,8.5
	c2.3,0.8,5.5,0,7.5,1.3c1.4,0.8,3.2,1.5,4.8,1.6c4.8,0.4,8.6-0.8,12.6-3.6c7.3-5.2,8.3-15.6,4.8-23.2c-0.8-1.7-1.9-2.8-3.2-3.8
	c-0.1-0.2-0.1-0.4-0.2-0.5c-2.2-4.7-7.3-5.3-10.1-9c-1.4-1.8-3-3.2-4.9-4.2c3.6-6.2,4-13.5,0.8-20c37.1,2.6,66.3-29.5,66.9-66.2
	c-0.3-16.7-6.1-32.5-16.5-44.5C384.4,194.5,378,188.6,370.3,184.1z M331.7,302.8c-2-0.3-3.5,2.7-2.3,4.1c5.8,7.1,6.1,17-1,23.5
	c-1.1,1-2.1,3.6,0.2,3.8c1.2,0.1,2.2,0.3,3.2,0.6c0.6,0.2,1.2,0.3,1.7,0.6c0.1,0,0.1,0,0.2,0.1c0.5,0.2,1.1,0.5,1.6,0.8
	c0.3,0.2,0.7,0.4,1,0.6c0.6,0.4,1.2,0.8,1.8,1.3c4.1,3.2,1.4,3,5.2,4.4c3,1.1,5.1,3.3,6.4,5.9c2.6,5.4,1.5,12.8-2.9,16.8
	c-4,3.7-9.9,2.9-14.2,0.3c-1.5-0.9-5.1-0.3-6.6-0.7c-2.2-0.5-4.1-1.4-5.6-2.7c-2.1-1.8-3.6-4.2-4.6-6.8c-0.1-0.3-0.2-0.6-0.3-0.9
	c-0.2-0.7-0.4-1.3-0.5-2c0-0.2-0.1-0.5-0.1-0.7c-0.1-0.6-0.2-1.2-0.2-1.8c-0.1-1.3-0.1-2.6,0-3.8c0.2-2.2-2.5-1.9-3.4-0.6
	c-7.3,10-19.9,10.6-28.2,2.6c-0.8-0.7-1.5-1.5-2.2-2.4c-1-1.2-1.7-2.7-2.4-4.2c-0.8-1.9-1.3-3.8-1.5-5.8c-0.1-1.2-0.2-2.3-0.1-3.4
	c0-0.6-0.1-0.9-0.5-1.4c-2.6-3-4.5-6-5.9-9.5c-0.4-1-0.8-2-1.1-3.1c-0.2-0.7-0.6-1.1-1.4-1.1c-3-0.2-6-0.6-8.9-1.2
	c-1-0.2-1.9,0.2-2.5,1c-21.3,28.3-60.3,31.1-85.5,6.2c-0.7-0.7-1.8-0.1-2.5,0.3c-25.7,17.8-56.2,10.4-74.4-10.3
	c-5.7-6.5-10.2-14.3-12.9-23.1c-0.3-1-0.6-2-0.9-3.1c-0.2-0.7-0.6-1.1-1.4-1.1c-15.4-1.4-28.6-8.8-38.2-19.7
	c-5.9-6.7-10.4-14.8-13.1-23.6c-0.4-1.2-0.7-2.3-1-3.5c-1.2-4.6-1.7-9.2-1.8-13.8c-0.5-23.5,12.3-46.3,33.8-57
	c0.1,0,0.2-0.1,0.3-0.2c0.9-0.6,1.7-1.8,1.4-2.9c-2.3-9.7-2.8-19.6-1.8-29.3c2.1-19.2,10.7-37.3,25.8-50.7
	c13.3-11.8,30.1-17.3,46.8-16.8c9.3,0.3,18.6,2.4,27.3,6.2c4.1,1.8,8.1,4.1,11.9,6.7c0.6,0.4,1.1,0.4,1.7,0.1
	c0.7-0.3,1.3-0.9,1.6-1.5c0.1-0.1,0.1-0.2,0.2-0.2c10.6-16.3,27.4-26.1,46.7-26.7c0.9,0,1.9-0.1,2.8,0c8.3,0.2,16.1,2.5,23.2,6.3
	c8,4.3,15,10.6,20.5,18c1.1,1.5,2.1,3,3.1,4.5c0.3,0.4,0.6,0.6,1,0.6c0.4,0,0.9-0.1,1.3-0.2c0.4-0.2,0.9-0.3,1.3-0.5
	c0.8-0.3,1.5-0.6,2.3-0.8c7.9-2.7,16-3.8,23.9-3.4c8.6,0.4,17.1,2.4,25,6c8.8,4,16.9,9.9,23.8,17.4c1.6,1.8,3.1,3.6,4.5,5.5
	c16.1,21.8,18.5,51.6,8.5,76.6c-0.3,0.8,0,1.8,0.8,2.2c1,0.5,2,1,2.9,1.5c8.4,4.5,15.4,10.7,20.7,18c7.8,10.7,12.1,24,12.3,37.8
	C397.7,278.7,368.6,308.6,331.7,302.8z"/>
</svg>
