<?xml version="1.0" encoding="utf-8"?>
<!-- Generator: Adobe Illustrator 19.2.0, SVG Export Plug-In . SVG Version: 6.00 Build 0)  -->
<svg version="1.1" id="Capa_1" xmlns="http://www.w3.org/2000/svg" xmlns:xlink="http://www.w3.org/1999/xlink" x="0px" y="0px"
	 viewBox="0 0 425.2 425.2" style="enable-background:new 0 0 425.2 425.2;" xml:space="preserve">
<path d="M36.9,231.7c1.8,1,3.6,1.9,5.4,2.8c1.8,1,3.7,1.9,5.6,2.7c0.8,0.4,4.3,1.2,7.2,2c0.9,14,8.3,27.6,18.5,36.9
	c4,3.7,8.5,6.5,13.3,8.7c19.9,11,45.6,7.6,63-7.5c2-1.8,3.9-3.7,5.6-5.8c2.8,1.8,5.6,3.4,8.6,4.7c16.1,8.6,35.2,11.2,53.2,10.3
	c23.6-1.2,47.3-5.2,70.7-8.6c0,0,0,0,0,0c21.4-1.3,42.4-3.4,63.7-0.1c7.8,1.2,15.2,3.2,22,6.3c5.5,3,10.6,6.8,15.1,11.7
	c2.9,3.2,6.2,11.5,11.3,12c1.5,1.4,3.3,2.2,5.3,1.8c5-1,8.4-6.1,6.9-11c0-0.1-0.1-0.1-0.1-0.2c0-0.2-0.1-0.3-0.1-0.4
	c-7.8-17.2-21.6-29.8-38-37.6c-7.9-4.2-16.5-7.2-25.4-9.1c-15.8-3.2-32-3.7-48-3.7c-12.3,0-24.7,0-37-0.2
	c10.5-9.1,17.6-21.8,21-35.4c4.7-18.7,4.4-39.3-4.7-56.6c-5.9-11.3-15.5-20.2-26.9-25.5c-5.8-3.2-12.2-5.4-18.9-6.4
	c-17.3-2.6-33.9,1.8-49,10.1c-0.2-0.1-0.4-0.2-0.6-0.3c-1.2-0.7-2.5-1.3-3.8-1.9c-0.9-0.5-1.8-1.1-2.7-1.7c-3-2.2-6.2-4-9.5-5.6
	c-2.2-1.2-4.4-2.2-6.7-3.2c-9-3.7-18.4-5.5-28.1-5.3c-16.6,0.4-31.5,9-41.2,22C69,125.2,40,130.9,23.2,151.6
	C7,171.5,7.3,200.5,23.4,220.3C27.1,224.9,31.7,228.7,36.9,231.7z M18.2,172.7c3.9-16.6,16-28,30.6-32.8c12.6-4.2,27.1-3.3,39.6,3.6
	c0.6,0.3,1.2,0.7,1.8,1c0.4,0.2,0.7,0.3,1.1,0.4c1.4,0.1,2.6-0.9,3.4-2.1c0-0.1,0.1-0.1,0.1-0.2c0.1-0.1,0.1-0.2,0.2-0.3
	c0.5-0.8,1.1-1.6,1.6-2.3c6.4-8.4,15.1-13.9,25-16.4c4.8-1.2,9.8-1.8,14.9-1.6c8.1,0.3,15.8,2.6,23.3,5.7c1.6,0.7,3.1,1.4,4.6,2.2
	c2.3,1.3,4.5,2.8,6.6,4.4c1.4,1.1,3.1,1.9,4.9,2.6c1.7,0.8,3.5,1.5,5.1,2.5c0.2,0.1,0.5,0.3,0.7,0.4c0.3,0.2,0.7,0.3,1,0.4
	c0.6,0.1,1.1,0,1.7-0.3c0.8-0.5,1.6-0.9,2.5-1.3c4.6-2.4,9.2-4.4,14-6c8.9-2.9,18.3-4.2,27.9-3.1c7.2,0.8,13.8,3,19.8,6.3
	c8.2,4.5,15.2,11.2,20.5,19.6c9.7,15.3,9.8,33.4,7,50.7c-2.8,17.1-12.4,33.6-28.1,41.7c-1.9,1-4.1,5.7-0.5,5.8c0.6,0,1.2,0,1.8,0
	c1.2,0,2.3,0.1,3.5,0.1c0.7,0,1.5,0,2.2,0c29.4,0.5,59.3-1.7,88.2,3.5c9.4,1.7,18.4,4.7,26.7,9.1c13.8,7.3,25.4,18.4,32.4,33.1
	c0.2,0.4,0.4,0.9,0.6,1.3c0,0.1,0.1,0.1,0.1,0.2c0.2,0.9-0.6,0.8-2.3-0.1c-1-1.3-1.9-2.9-2.8-4.2c-1.4-2-3.1-3.9-4.7-5.8
	c-3.7-4.2-8-7.6-12.7-10.5c-1-0.6-1.9-1.1-2.9-1.7c-8.1-4.4-17-6.8-26.2-8.2c0,0-0.1,0-0.1,0c-0.3,0-0.6-0.1-0.8-0.1c0,0,0,0,0,0
	c-21.2-3.2-42-1.3-63.3,0c-0.2,0-0.5,0-0.8,0c-22.9,3.3-45.8,6.8-68.9,8.5c-16.5,1.2-34.2-0.7-49.5-7.8c-4-1.9-7.8-4.1-11.4-6.7
	c-0.7-0.5-1.4-1-2-1.5c-1.3-1-3.2,0-4.1,1.1c-12.8,16.7-33.5,23.4-53.7,17.7c-2.1-0.6-4.2-1.4-6.1-2.2c-14.4-6.4-24.6-19.8-28.4-35
	c-0.5-2.2-1-4.4-1.2-6.7c-0.1-1.1-0.2-2.2-0.3-3.3c0,0,0-0.1,0-0.1c-0.1-0.6-0.6-1.3-1.2-1.4c-4.5-0.7-8.9-2.1-12.9-3.9
	c-13.9-6.2-24.2-18.3-28.1-32.6C16.5,188.8,16.3,180.8,18.2,172.7z"/>
</svg>
