<?xml version="1.0" encoding="utf-8"?>
<!-- Generator: Adobe Illustrator 19.2.0, SVG Export Plug-In . SVG Version: 6.00 Build 0)  -->
<svg version="1.1" id="Capa_1" xmlns="http://www.w3.org/2000/svg" xmlns:xlink="http://www.w3.org/1999/xlink" x="0px" y="0px"
	 viewBox="0 0 425.2 425.2" style="enable-background:new 0 0 425.2 425.2;" xml:space="preserve">
<path d="M147.1,244.9c19.2,8.3,38.2,17.2,57.7,24.9c0.1,0,0.1,0,0.2,0.1c9.2,3.8,18.5,7.8,28.3,10.1c10.9,2.5,22.2,3.2,33.3,2.9
	c20-0.5,41.3-4.6,58.3-15.7c3.6,2.7,7.5,5.2,11.6,7.1c4.8,2.5,9.9,4.4,15.3,5.2c10.6,1.6,21.1,0.9,31.3-2.7
	c20.1-7.1,34.9-29,26.9-50.5c-1.7-4-3.4-8-5.9-11.5c8-12.9,9.7-28.8,4.4-43.1c-4.9-13.3-14.9-23.7-27.6-29.6c-1.5-0.8-3-1.5-4.6-2.2
	c-24-10.1-58.9-6.2-75.1,16c-9.2-3.1-18.6-2.8-28.1-1.1c-0.2,0-0.5,0.2-0.7,0.3c-18.7,4.8-33.8,20.9-38.1,39.7
	c-4.5,19.9-0.5,42.6,14.9,56.6c-3.9,0.3-7.9,0.5-11.9,0.4c-6.1-0.1-12-1.4-18-2.6c-13-2.6-25.8-6.1-38.6-9.6
	c-12.9-3.6-25.7-7.3-38.5-11c-12.4-3.6-24.9-7.4-37.7-9.4c-12.3-1.9-25.1-2.1-37.1,1.5c-10.3,3.1-20,9.4-27.6,16.9
	c-7.7,7.7-13.6,16.9-18.3,26.7c-2.2,4.6-4,9.3-5.7,14.1c-0.9,2.4-4.5,8.9-1.6,11c0.6,0.4,1.2,0.5,1.8,0.4c0.2,0.3,0.4,0.7,0.8,0.9
	c4.6,3.2,7.8-11.5,8.7-13.6c3.4-8.6,7.8-16.9,13.4-24.3c11.7-15.6,29.3-25.4,49-25c10.4,0.2,20.7,3.4,30.5,6.6
	C127.9,237.5,137.7,240.9,147.1,244.9z M102.1,224.4c-4.2-1-8.5-1.7-12.9-2.1c9.6,0.2,19.4,2,29,4.4c23.4,5.8,46.3,13.3,69.5,19.5
	c11.8,3.2,23.6,6,35.6,8.3c10.3,2,20.4,1.6,30.8,0.4c0.1,0,0.2,0,0.3-0.1c0.3-0.1,0.7-0.3,1-0.6c0.3-0.3,0.7-0.6,0.9-0.9
	c0.3-0.4,0.5-0.9,0.5-1.3c0-0.4-0.2-0.8-0.6-1.1c-10-7.2-15.8-17.5-18.2-28.8c-1.8-8.1-1.8-16.8-0.4-25.1c3-18.1,16.9-33.6,34.8-38
	c0.4-0.1,0.7-0.2,1.1-0.3c0.3-0.1,0.7-0.2,1-0.2c0.1,0,0.2-0.1,0.3-0.1c0.3,0,0.5-0.1,0.8-0.1c0.4-0.1,0.9-0.1,1.3-0.2
	c0.7-0.1,1.3-0.2,2-0.2c7.2-0.7,14.4-0.2,21.4,2.5c1,0.4,2-0.4,2.6-1.2c0.1-0.1,0.1-0.2,0.2-0.3c0.1-0.1,0.2-0.2,0.3-0.4
	c0.3-0.4,0.6-0.9,0.9-1.3c7.3-10,18.8-15.5,31.2-17.5c12.7-2,26.4-0.4,37.3,3.7c2.1,0.8,4.1,1.7,6,2.7c9.7,5.2,17.3,13.6,22,23.6
	c6.6,14.3,5.3,30.7-3.3,43.8c-0.3,0.5-0.6,1.5-0.2,2c2.9,3.8,4.7,8,6.5,12.3c3.8,10,1.3,22.5-5.1,30.9c-5.5,7.2-13.9,11.5-22.4,14
	c-13,3.7-26.4,2.3-38.1-3.2c-4.2-2-8.2-4.4-11.9-7.4c-0.4-0.3-0.8-0.7-1.3-1c-0.7-0.6-1.7-0.2-2.4,0.3
	c-17.3,12.1-39.9,15.6-60.5,15.9c-10.8,0.2-21.7-1-32.2-3.6c-9-2.2-17.7-6.2-26.2-9.7c-0.1,0-0.2-0.1-0.3-0.1
	c-19.1-7.6-37.8-16.2-56.6-24.5c-9.4-4.1-19.2-7.4-29-10.7C112.7,227.2,107.4,225.6,102.1,224.4z"/>
</svg>
