<?xml version="1.0" encoding="utf-8"?>
<!-- Generator: Adobe Illustrator 19.2.0, SVG Export Plug-In . SVG Version: 6.00 Build 0)  -->
<svg version="1.1" id="Capa_1" xmlns="http://www.w3.org/2000/svg" xmlns:xlink="http://www.w3.org/1999/xlink" x="0px" y="0px"
	 viewBox="0 0 425.2 425.2" style="enable-background:new 0 0 425.2 425.2;" xml:space="preserve">
<path d="M379.1,316.7l-30.7-13.3c1.7-4.5,3-9.1,4-13.9c34.2-4.5,60.4-33.5,60.4-68.8c0-38.3-31-69.5-69.5-69.5
	c-3.1,0-6.2,0.2-9.3,0.7l4.9-17.5l18.3,13.5l47.2-74.4l-40.6-25.7l-18.5,61.1l-23.6-16.2l-5,51.3c-12.5-23.6-37.3-39.6-65.6-39.6
	c-17.7,0-34.5,6.3-47.9,17.5c-11.5-11.4-27.2-18-44.1-18c-22.2,0-41.8,11.6-53.1,29.1L87.9,78.4L43,99l24.9,25.6l-18.2,7.3
	l31.5,25.1C47.4,163.9,22,193.9,22,229.7c0,27.1,14.6,50.8,36.3,63.7l-45.9,30.3L44,361.9l18.3-30.7L74,346.7l17.5-40.1
	c15.7,20.9,40.3,33.5,66.7,33.5c17,0,33.3-5.1,47.2-14.7c15.5,19.8,39.4,31.5,65.2,31.5c21.9,0,41.8-8.5,56.8-22.3l28.9,43.5
	l38.1-31.4l-30.7-18.3L379.1,316.7z M325.3,102.8l21.1,14.5l18-59.4l26.7,17.2L352.7,136l-19.6-14.4l-9,32.3
	c-0.9,0.3-1.8,0.5-2.8,0.8c-0.3-0.8-0.5-1.6-0.8-2.3L325.3,102.8z M62.5,130.4l16.7-6.8L53.9,97.7l30-13.9l15,44.9l-15.8,5.4
	l13.3,21.3l2.4,3.8l-4.7-3.7L62.5,130.4z M103.4,137.5c-2.1,3.9-3.7,8-4.9,12.3l-5.5-8.7L103.4,137.5z M74.5,337.3l-10.7-14.5
	l-18.6,31.2l-21-25.6l39.4-26.1l9.4,14L85.3,303c1.3,0.2,2.6,0.3,3.8,0.5c0,0,0,0,0,0.1L74.5,337.3z M68.8,298.6
	c1.7,0.7,3.4,1.3,5.1,1.8l-2.2,2.4L68.8,298.6z M267.2,340.1c-27.1,0-50.7-15.3-62.4-37.8c-12.7,12.9-30.4,20.8-50,20.8
	c-23.7,0-44.8-11.9-57.5-29.9c-1.4-2.1-2.8-4.2-4-6.4c-0.2,0-0.3,0-0.5,0c-2,0-4-0.1-6-0.3c-31-3-55.2-29.1-55.2-60.9
	c0-33.1,26.2-60,59-61.2l33.9,27l-18.8-30c0.8-27.1,23.1-48.7,50.1-48.7c18.5,0,34.5,9.9,43.2,24.6c11.2-14.5,28.9-24.1,48.7-24.1
	c32.2,0,58.6,24.8,61.1,56.3c1.8-1.2,3.7-2.3,5.7-3.3c1.6-0.8,3.2-1.6,4.9-2.2c0.7-0.3,1.4-0.5,2.1-0.8c3.2-1.1,6.5-1.9,10-2.5
	c2.8-0.4,5.6-0.6,8.5-0.6c31.2,0,56.6,25.4,56.6,56.6c0,31.2-25.4,56.4-56.6,56.4c-0.8,0-1.6,0-2.3,0c-0.4,8.2-2.2,16-5.2,23.3
	l-41-17.8l33.7,31.3C312.4,328.1,291.2,340.1,267.2,340.1z M373,339.9l-23.4,19.3L330.9,331l-4.3-6.4l-1.1-1.7l8-5.4l4.9-3.3
	l-10-9.3l-9.9-9.2l12,5.2l16.1,7l11.2,4.8l-13.4,10.1L373,339.9z"/>
</svg>
