<?xml version="1.0" encoding="utf-8"?>
<!-- Generator: Adobe Illustrator 19.2.0, SVG Export Plug-In . SVG Version: 6.00 Build 0)  -->
<svg version="1.1" id="Capa_1" xmlns="http://www.w3.org/2000/svg" xmlns:xlink="http://www.w3.org/1999/xlink" x="0px" y="0px"
	 viewBox="0 0 425.2 425.2" style="enable-background:new 0 0 425.2 425.2;" xml:space="preserve">
<path d="M405,259.6c0-12-4-23.3-11.1-32.5c-3.2-6.3-7.6-12-12.9-17c0.1-1.1,0.1-2.2,0.1-3.3c0-14.3-4.7-27.7-12.8-38.9
	c-12.6-24.6-38.9-42.4-70.4-45.5c-2.6-6.8-6.1-13.2-10.5-18.9c-14.4-26.2-42.4-43.1-73.8-43.1c-31.8,0-60.3,17.2-74.9,44.9
	c-3.3-0.3-6.7-0.6-10.2-0.6c-59.7,0-108.3,41.7-108.3,92.9c0,25.6,12.8,50.3,35.2,68c-1.3,5.5-2,10.6-2,15.4
	c0,39.4,32.9,71.5,73.3,71.5c4.2,0,8.4-0.4,12.5-1.1c12.6-0.1,24.7-3.8,35.2-10.4c17.5,15.7,39.7,24.3,63.2,24.3
	c4.9,0,9.7-0.4,14.4-1.1c33.7-1,63.7-21,77.3-51c3.6,0.7,7,1.1,10.4,1.1c3.9,0,7.8-0.4,11.5-1.1c0.1,0,0.1,0,0.2,0
	C381,313.2,405,289.2,405,259.6z M380,298.9c-4.9,3.6-10.5,6.3-16.6,7.8c-3.9,1-7.9,1.5-12,1.5c-0.2,0-0.3,0-0.5,0
	c-6.9-0.1-13.7-1.7-20.2-4.8c-0.6-0.3-1.4-0.3-2,0c-0.6,0.3-1.2,0.8-1.4,1.5c-0.3,0.8-0.6,1.7-0.9,2.5c-0.3,0.8-0.6,1.5-1,2.3
	c-0.3,0.8-0.7,1.5-1,2.3c-6.1,13-15.4,23.9-26.9,32c-7.5,5.3-15.8,9.3-24.7,11.9c-6.8,2-13.9,3.1-21.2,3.3c-0.8,0-1.6,0-2.3,0
	c-25,0-48.3-10.9-64.1-29.9c-0.4-0.5-1.1-0.9-1.8-0.9c0,0-0.1,0-0.1,0c-0.6,0-1.3,0.2-1.7,0.7c-2.1,2-4.3,3.8-6.5,5.5
	c-0.7,0.5-1.4,1-2.1,1.4c-5.8,3.9-12.3,6.8-19.1,8.5c-4.9,1.2-9.9,1.9-15.1,1.9c-0.1,0-0.2,0-0.3,0c-33.8,0-61.4-26.8-61.4-59.7
	c0-6.1,1-12.2,2.9-18.1c0.3-1,0-2.2-0.9-2.8c-22.4-15.5-35.2-38.3-35.2-62.5c0-44.7,43.2-81,96.4-81c5.5,0,10.6,0.3,15.5,1
	c1.1,0.2,2.2-0.5,2.6-1.5c11.3-26.6,37.6-43.8,67-43.8c23.6,0,44.7,10.9,58,28.1c3.5,4.6,6.5,9.6,8.8,15c0.5,1.1,0.9,2.2,1.3,3.3
	c0.3,0.8,0.6,1.7,0.9,2.5c1.1,3.3,1.9,6.7,2.5,10.3c0.2,1.2,1.2,2,2.5,2.1h0.3h0.6c26.7,0,50.3,12.4,63.8,31c3.3,4.5,6,9.4,8,14.6
	c2.5,6.4,3.9,13.3,4.1,20.4c0,0.2,0,0.4,0,0.6c0,0.3,0,0.5,0,0.8c0,0.8,0,1.6-0.1,2.4c0,1-0.1,2-0.2,3.1c-0.1,1.1-0.2,2.3-0.4,3.5
	c-0.1,1,0.3,2,1.2,2.5c5.1,3.1,9.5,7,13,11.5c2.7,3.5,5,7.2,6.7,11.3c2.4,5.6,3.7,11.8,3.7,18.1c0,0.2,0,0.4,0,0.5
	C400.1,275.7,392.1,290,380,298.9z"/>
</svg>
