<?xml version="1.0" encoding="utf-8"?>
<!-- Generator: Adobe Illustrator 19.2.0, SVG Export Plug-In . SVG Version: 6.00 Build 0)  -->
<svg version="1.1" id="Capa_1" xmlns="http://www.w3.org/2000/svg" xmlns:xlink="http://www.w3.org/1999/xlink" x="0px" y="0px"
	 viewBox="0 0 425.2 425.2" style="enable-background:new 0 0 425.2 425.2;" xml:space="preserve">
<g>
	<path d="M408.9,178c0-0.8-0.1-1.7-0.2-2.5c-0.1-0.7-0.2-1.5-0.3-2.2c-0.2-1.4-0.5-2.8-0.9-4.1c-5.3-20.3-25.2-35.8-41.7-39.2
		c0.2-1,0.4-2,0.5-2.9c0.1-0.9,0.2-1.7,0.2-2.6c0-1.7-0.1-3.5-0.3-5.7c-1-9.8-5.5-18.4-12.1-24.8c-7-6.8-16.4-11-26.6-11.3
		c0.1-0.8,0.2-1.6,0.2-2.4c0.1-2.1,0.1-4.3-0.2-6.5c-1.2-11.1-6.7-20.6-14.7-27.1c-2.5-2-5.2-3.8-8.2-5.1c0,0,0,0,0,0
		c-1.6-0.7-3.2-1.4-4.8-1.9c-0.3-0.1-0.7-0.2-1-0.3c-1.1-0.3-2.3-0.6-3.4-0.8c-3.9-0.8-8-1-12.1-0.6c-12.4,1.3-22.8,8.1-29.3,17.6
		c-8.8-6.8-20.2-10.3-32.1-9.1c-4.6,0.5-8.9,1.6-12.9,3.3c-0.6,0.2-1.1,0.5-1.7,0.8c-1.5,0.7-2.9,1.5-4.3,2.4
		c-6.8-10.1-18.8-16.3-31.8-14.9c-1.1,0.1-2.3,0.3-3.4,0.5c-16.6,3.4-28.3,18.7-27,35.8c-3-0.9-6.2-1.3-9.6-0.9
		c-10.1,1.1-18.2,8.2-20.8,17.5c-7.6-5.8-17.4-8.8-27.6-7.7c-21.4,2.2-37,21.4-34.8,42.9c0.1,0.5,0.1,1.1,0.2,1.6
		c-19.2,6.7-32.5,25.1-32.1,46c0,1.4,0.1,2.8,0.3,4.2c2.1,20.4,16.8,36.5,35.6,41.4c2.1,13.4,12.3,23.7,25,26.4
		c-0.1,0.5-0.1,1.1-0.2,1.6c-0.1,1.6-0.1,3.3,0.1,4.9c1.1,10.3,7.7,18.7,16.6,22.5c4.2,1.8,8.9,2.6,13.8,2.1c3.6-0.4,7-1.4,10-3
		c3-1.6,5.7-3.7,7.9-6.3c5.2,3.6,11.8,5.5,18.6,4.8c2.7-0.3,5.3-1,7.6-1.9c1.2-0.5,2.3-1,3.4-1.7c0,0,0,0,0,0
		c6,15,21.5,24.9,38.4,23.1c4.6-0.5,8.9-1.8,12.8-3.7c0.5-0.2,0.9-0.5,1.4-0.7c1.1-0.6,2.2-1.3,3.2-2c0.7,0.9,1.5,1.7,2.3,2.5
		c0.4,0.4,0.8,0.7,1.2,1c2.9,2.1,6.4,3.4,10.2,3.5c0.8,0,1.6,0,2.4-0.1c0.3,0,0.6-0.1,0.9-0.1c0.1,0,0.2,0,0.3,0c0,0,0,0,0.1,0
		c6.1-1.1,10.9-5.1,13.3-10.4c6.4,4.5,14.3,6.8,22.7,6c18.2-1.9,31.5-18.2,29.6-36.5c-0.1-0.8-0.2-1.6-0.3-2.4
		c5,2.7,10.8,4.2,16.8,4.1c0.9,0,1.7-0.1,2.6-0.2c14.9-1.6,26.4-12.7,29.1-26.7c7.1,2.8,15,4,23.1,3.1c23.7-2.5,41.6-21.4,43.7-44.2
		C409,182.9,409.1,180.5,408.9,178z M349.2,222.7c-7.3,0.8-14.3-0.3-20.7-2.8c-2.4,12.5-12.8,22.5-26.1,23.9
		c-6.3,0.7-12.3-0.7-17.4-3.5c0.1,0.7,0.2,1.4,0.3,2.1c1.7,16.3-10.1,31-26.5,32.7c-7.5,0.8-14.6-1.3-20.3-5.3
		c-2.3,5.1-7.1,8.9-13.1,9.5c-5.8,0.6-11.2-1.9-14.5-6.2c-4.5,3.1-9.7,5.2-15.5,5.8c-18.5,1.9-35.1-12.1-37-30.1
		c-0.5-4.7,0-9.2,1.3-13.5c-5.5,7.3-8,16.7-6.8,25.8c-0.6,0.1-1.3,0.2-1.9,0.3c-6.1,0.6-12-1-16.7-4.3c-4,4.6-9.6,7.7-16.1,8.4
		c-13.6,1.4-25.8-8.4-27.2-22.1c-0.2-2-0.2-4,0.1-5.9c-11.4-2.5-20.5-11.7-22.4-23.7c-16.8-4.4-30-18.8-31.9-37.1
		c-2.1-20.2,10.1-38.6,28.5-45c-0.1-0.5-0.1-1-0.2-1.5c-2-19.2,11.9-36.4,31.1-38.4c9.2-1,17.9,1.7,24.7,6.9
		c2.3-8.3,9.5-14.7,18.6-15.7c1.4-0.2,2.9-0.2,4.2,0c1.6,4.4,4.2,8.4,7.4,11.6c-9.2-18.5,2.8-41.1,24.1-43.3
		c15.3-1.6,29.3,8.4,32.6,23.4c0.4-3.9,0.1-7.9-0.9-11.8c4.2-2.1,8.9-3.5,13.8-4c10.7-1.1,20.9,2,28.8,8.1
		c5.8-8.6,15.1-14.6,26.2-15.8c22.5-2.4,41.6,16.5,39.7,38.8c-0.9,10-5.6,19.1-13,25.2c10.1-4.2,18-12.5,21.9-22.6
		c13.6,4,24,15.9,25.6,30.8c0.2,1.9,0.2,3.7,0.2,5.6c-16.4,0.8-30.9,9.3-40.3,22.8c7.1-9.1,17.8-15.5,30.2-16.8
		c23.5-2.5,45.5,15.1,48,39.2C390.9,198.6,373.3,220.2,349.2,222.7z"/>
	<path d="M350,295.3c0-0.5-0.1-0.9-0.2-1.4c-2.1-13.5-13.8-23.3-27.3-23.3c-0.9,0-1.9,0.1-2.8,0.2c-15.1,1.6-26.1,15.2-24.6,30.3
		c1.6,15.1,15.2,26.1,30.3,24.6C340.6,324,351.6,310.4,350,295.3z M326.9,322.2c-9.9,1-18.8-6.2-19.9-16.1
		c-1-9.9,6.2-18.8,16.1-19.9c9.9-1,18.8,6.2,19.9,16.1C344.1,312.3,336.8,321.2,326.9,322.2z"/>
	<path d="M370.7,341.7c-0.9-8.4-8.4-14.5-16.8-13.6c-0.5,0.1-1,0.1-1.5,0.2c-7.6,1.6-12.9,8.7-12,16.5c0.9,8.4,8.4,14.5,16.8,13.6
		C365.5,357.6,371.5,350.1,370.7,341.7z M354.2,350.5c-5.2,0.5-9.9-3.3-10.5-8.5c-0.5-5.2,3.3-9.9,8.5-10.5
		c5.2-0.5,9.9,3.3,10.5,8.5C363.2,345.3,359.4,350,354.2,350.5z"/>
	<path d="M369.8,370.3c-4.8,0.5-8.2,4.8-7.7,9.5c0.5,4.8,4.8,8.2,9.5,7.7c4.8-0.5,8.2-4.8,7.7-9.5S374.6,369.8,369.8,370.3z
		 M372.7,385.1c-2.3,0.2-4.4-1.4-4.6-3.8c-0.2-2.3,1.4-4.4,3.8-4.6c2.3-0.2,4.4,1.4,4.6,3.8C376.7,382.7,375,384.8,372.7,385.1z"/>
	<path d="M98.3,117.7C80,119.7,66.8,136,68.7,154.2c0.8,7.9,4.3,14.8,9.5,20c-2.9,7.1-1,15.5,5,20.6c-4.3-7.3-4-16.9,1.5-24
		c3.1-4,7.3-6.7,11.8-7.8c-6-0.5-12,2-15.9,7.1c-0.9,1.2-1.6,2.4-2.2,3.7c-2.1-4-3.5-8.4-4-13.1c-2.1-19.9,12.3-37.7,32.2-39.7
		c3.6-0.4,7.1-0.2,10.5,0.4C111.6,118.4,105,117,98.3,117.7z"/>
	<path d="M213,76.5c-14.4,1.5-25.4,12.9-26.9,26.8c5-11.3,15.7-19.6,28.9-21c10.2-1.1,19.8,2.3,27,8.5C236,81.2,225,75.3,213,76.5z"
		/>
	<path d="M210.1,248.1c-5.5-2.7-9.6-7-12.1-12.2c0.8,7.2,5.2,13.8,12.1,17.2c10.5,5.2,23.2,1.1,28.8-9
		C231.3,251,219.9,252.9,210.1,248.1z"/>
	<path d="M157.9,230.1c-3.3-2.2-5.6-5.4-6.8-8.9c-0.1,4.7,2.2,9.4,6.4,12.2c6.4,4.2,14.9,2.7,19.4-3.4
		C171.3,233.8,163.8,234.1,157.9,230.1z"/>
	<path d="M278.5,198c-9,7.7-10.3,21.1-3.1,30.4c-3.3-9.9-0.5-21.3,7.9-28.5c4.7-4,10.4-6.1,16.1-6.3
		C292.4,191.4,284.5,192.8,278.5,198z"/>
</g>
</svg>
