<?xml version="1.0" encoding="utf-8"?>
<!-- Generator: Adobe Illustrator 19.2.0, SVG Export Plug-In . SVG Version: 6.00 Build 0)  -->
<svg version="1.1" id="Capa_1" xmlns="http://www.w3.org/2000/svg" xmlns:xlink="http://www.w3.org/1999/xlink" x="0px" y="0px"
	 viewBox="0 0 425.2 425.2" style="enable-background:new 0 0 425.2 425.2;" xml:space="preserve">
<path d="M413.1,228.9c0-10.9-16.4-20.6-41-24.4c-0.4-1.2-0.9-2.4-1.7-3.5c0-10.7-13.9-20-32.7-21.9c-0.3-0.8-0.7-1.6-1.1-2.3
	c-0.9-11.3-12.7-20.3-27-20.3c-14.9,0-27.1,9.8-27.1,21.8c0,0.6,0,1.2,0.1,1.8c-6.7-0.9-13.6-1.3-20.6-1.3c-1.3,0-2.7,0-4.3,0.1
	c-3.1-9.3-15.9-16.1-30.8-16.1c-8.1,0-15.7,2-21.5,5.5c-9.1-6.4-21.1-10-33.9-10c-17.1,0-32.9,6.5-41.5,16.9
	c-4.8,0.2-9.5,1.1-13.9,2.6c-4.7-19.3-26.3-33.2-51.9-33.2c-29.2,0-52.9,18.3-52.9,40.9c0,7,2.4,13.8,6.7,19.8
	c2.4,5.5,6.4,10.6,11.5,14.7c-3.1,3.2-4.7,7.1-4.7,11.2c0,4.1,1.7,7.8,4.5,11c2.4,8.5,12.6,14.8,24.8,14.8c1.3,0,2.5-0.1,3.7-0.2
	c0.7,1.3,1.6,2.6,2.7,3.9c3.4,11.5,21.2,20.3,42.5,20.3c20.9,0,38.3-8.4,42.3-19.6c3.5,0.6,7.2,0.9,11.1,0.9
	c14.8,0,27.6-4.9,33.5-11.8c8,4.6,18.6,7.4,30.1,7.4c8.3,0,16.1-1.4,22.8-4c5.5,6.1,15.9,10.2,27.9,10.2c13.8,0,25.5-5.4,30-13.1
	c11.6,6.3,30.2,10.4,51.3,10.4c3.1,0,6.2-0.1,9.2-0.3c5,3.4,12.6,5.6,21.1,5.6c15,0,27.1-6.8,27.1-15.1c0-1.3-0.3-2.6-0.9-3.9
	c4.6-3.5,7.2-7.5,7.2-11.7c0-2.3-0.8-4.6-2.3-6.7C413.1,229.1,413.1,229,413.1,228.9z M404.6,239.9l-0.6,0.4l0.3,0.6
	c0.6,1.2,0.8,2.4,0.8,3.5c0,7.9-11.8,14.2-26.2,14.2c-8,0-15.5-2-20.6-5.4l-0.2-0.2l-0.3,0c-3.1,0.2-6.1,0.3-9.1,0.3
	c-20,0-39.1-3.8-50.9-10.3l-0.7-0.4l-0.4,0.7c-4.5,7.6-16.2,12.6-29.3,12.6c-11.3,0-21.7-3.8-27.2-9.9l-0.4-0.4l-0.5,0.2
	c-6.8,2.5-14.6,3.9-22.4,3.9c-11,0-21.5-2.6-29.7-7.3l-0.6-0.4l-0.5,0.6c-5.9,7-18.7,11.5-32.8,11.5c-3.7,0-7.4-0.3-10.9-0.9
	l-0.7-0.1l-0.2,0.7c-3.9,11-21.3,19-41.4,19c-18.5,0-34.3-6.7-40-16c-0.1-0.2-0.2-0.3-0.3-0.5c-1.3-2.2-2-4.6-2-7.1v-1
	c0-0.1-1,0.1-1,0.1c-1.9,0.3-3.8,0.5-5.6,0.5c-9.8,0-18.3-4.2-22.2-10.3c-1.4-2.3-2.3-4.8-2.3-7.5c0-3.7,1.5-7.1,4.3-10.1
	c0.9-0.9,1.9-1.8,3.1-2.6l1.1-0.8l-1.2-0.7c-8.5-4.8-14.7-11.5-18.1-19c-1.8-4-2.7-8.2-2.7-12.5c0-21.6,22.9-39.1,51.1-39.1
	c22.4,0,41.7,10.9,48.5,26.7c0.8,2,1.5,4,1.9,6.1l0.2,1l0.9-0.4c0.2-0.1,0.4-0.2,0.7-0.2c4.4-1.6,9.1-2.5,14-2.6l0.4,0l0.2-0.3
	c8.2-10.2,23.7-16.6,40.4-16.6c12.7,0,24.5,3.5,33.4,9.9l0.5,0.3l0.5-0.3c5.6-3.6,13.1-5.5,21.1-5.5c14.5,0,26.8,6.5,29.3,15.5
	l0.1,0.3l0.1,0.3l0.2,0l0.5,0c1.9-0.1,3.4-0.1,4.9-0.1c7.3,0,14.5,0.5,21.5,1.4l1.2,0.2l-0.2-1.2c-0.2-1-0.3-1.9-0.3-2.6
	c0-11,11.4-20,25.4-20c11.9,0,21.8,6.5,24.6,15.2c0.5,1.6,0.8,3.2,0.8,4.9c0,0.4,0,0.9-0.1,1.3l0,0.1l-0.1,0.9l0.9,0.1
	c0.9,0.1,1.8,0.2,2.7,0.3c15.9,1.8,27.9,8.9,30,17.4c0.2,0.9,0.3,1.8,0.3,2.7c0,1.2-0.2,2.4-0.6,3.6l-0.3,1l1,0.1
	c1.3,0.2,2.5,0.4,3.7,0.6c21.5,3.5,36.7,11.7,38.7,20.7c0.1,0.6,0.2,1.3,0.2,1.9C411.4,232.7,409.1,236.4,404.6,239.9z"/>
</svg>
