<?xml version="1.0" encoding="utf-8"?>
<!-- Generator: Adobe Illustrator 19.2.0, SVG Export Plug-In . SVG Version: 6.00 Build 0)  -->
<svg version="1.1" id="Capa_1" xmlns="http://www.w3.org/2000/svg" xmlns:xlink="http://www.w3.org/1999/xlink" x="0px" y="0px"
	 viewBox="0 0 425.2 425.2" style="enable-background:new 0 0 425.2 425.2;" xml:space="preserve">
<path d="M396.4,159.4c-16.8-37.4-50.7-65.3-86.3-83.9c-21.8-11.4-45.4-19.1-69.4-23.9c-74.8-14.3-181.1,0.8-214.9,80.4
	c-9.8,23.1-10.5,47.3-4.3,70.3c3.6,15.4,10.3,30.3,19.5,43.9c12.7,18.9,29.8,34.6,48.4,47.6c5,3.5,10.2,6.7,15.4,9.7
	c1.9,1.1,13,5.8,13.1,6.2c1,3.5,2,7,3,10.6c5.3,19.1,10.7,38.2,16,57.3c0.8,3,4.5,1.3,5.5-0.7c7.9-16,15.9-32,23.8-48
	c77.5,20.4,183.8,10.9,228.3-65.4c14.6-25.1,16.9-54.3,9.5-81.5C402.3,174.2,399.7,166.7,396.4,159.4z M399.1,229.9
	c-8.6,41.3-44,69.5-81.5,84c-46.9,18.2-100.1,17.3-148.2,4.7c-1.2-0.3-2.3-0.6-3.5-1c-1.7-0.5-3.5,0.8-4.2,2.3
	c-7.2,14.5-14.4,29.1-21.7,43.6c-5.5-19.7-11-39.4-16.5-59.2c-1.4-4.9-5.7-5.6-10.2-8c-12.2-6.5-23.6-14.4-34.4-23.1
	c-18.1-14.7-33.4-32.9-43.9-53.7c-3.3-6.6-5.9-13.4-7.7-20.3c-6.7-24.8-4.1-50.7,7.6-73.4c3.9-7.7,8.9-15,14.9-21.7
	c29.6-33.4,76.6-47.7,119.8-50.9c22.6-1.6,45.4,0.2,67.6,4.5c0.2,0,0.4,0.1,0.6,0.1c1.6,0.3,3.3,0.7,4.9,1.1
	c10.4,2.3,20.8,5.2,30.9,8.7c32.9,11.4,63.4,29.1,88,54.1c17.6,17.8,31.2,40.2,36.8,64.4C401.7,200.3,402.2,215.1,399.1,229.9z"/>
</svg>
