<?xml version="1.0" encoding="utf-8"?>
<!-- Generator: Adobe Illustrator 19.2.0, SVG Export Plug-In . SVG Version: 6.00 Build 0)  -->
<svg version="1.1" id="Capa_1" xmlns="http://www.w3.org/2000/svg" xmlns:xlink="http://www.w3.org/1999/xlink" x="0px" y="0px"
	 viewBox="0 0 425.2 425.2" style="enable-background:new 0 0 425.2 425.2;" xml:space="preserve">
<g>
	<path d="M49.5,167.8c5.2-3.2,10.9-5.5,17.1-7.1c-6.4-0.3-12.9,1.2-18.8,4c-5.9,2.8-11.1,7.1-15.2,12.3c-1,1.3-1.9,2.7-2.8,4
		c-0.8,1.4-1.6,2.9-2.4,4.3c-0.6,1.5-1.3,3-1.8,4.6c-0.5,1.6-1,3.1-1.3,4.7c-0.7,3.2-1,6.5-0.9,9.7c0,3.2,0.8,6.4,1.4,9.5
		c0.3-3.2,0.1-6.3,0.7-9.4c0.1-1.5,0.5-3,0.9-4.5c0.3-1.5,0.8-2.9,1.2-4.4c1.9-5.7,4.7-11.2,8.5-15.8C39.8,175,44.4,171,49.5,167.8z
		"/>
	<path d="M30.3,161c2.5-2.2,5.2-4.3,8.1-6.4c-7.2,0.8-13.9,5.1-18.3,11c-2.2,3-3.8,6.3-4.9,9.8c-1.1,3.5-1.5,7.1-1.3,10.7
		c1.5-3.3,2.9-6.4,4.5-9.4c1.6-3,3.3-5.8,5.3-8.4C25.7,165.6,27.8,163.2,30.3,161z"/>
	<path d="M146.7,95.6c3.9-1.9,7.9-3.6,12.1-4.5c1-0.3,2.1-0.5,3.2-0.7l3.2-0.5l3.3-0.2c1.1-0.1,2.2-0.2,3.3-0.2
		c8.8,0,17.6,2,25.8,5.9c-7.2-5.5-16.3-8.7-25.7-9.3c-9.3-0.7-18.8,1.5-27.2,5.7c-4.1,2.3-8,4.9-11.4,8.2c-3.3,3.3-6.5,6.8-8.8,10.9
		c-4.9,7.9-7.2,17.3-7,26.4c1.6-8.9,4.8-17.4,9.9-24.5C132.3,105.5,139.1,99.7,146.7,95.6z"/>
	<path d="M357.1,180.3c0.2-2,1.1-6,1.1-8.1c0-35.9-28.1-64-64-64c-6.5,0-13.1,1.6-19.3,4.2l0,0c-0.1,0-0.2,0.1-0.3,0.1
		c-2.8,1.2-5.6,2.7-8.2,4.3c-6.7-7-15.8-12.2-25.6-12.2c-9.8,0-17.8,5.7-24.5,12.7c-7.1-9.3-26.7-17.5-40.8-17.5
		c-15.9,0-31.8,6.8-41.9,18.8c-7.7,9-9,14.9-12,23.4c-1.8-0.3-3.7-0.5-5.6-0.5c-15.6,0-27.3,10-29.1,26.4
		c-29.4-2.4-52.7,21.1-52.7,49.5c0,12,5.3,21.4,14.2,31.4c0,0.7-2.5,8.7-1.1,17.7c2.6,16.9,18.1,30.1,33.8,33.2
		c16.8,3.3,25-0.3,32.9-4.4c9,15,24.4,27.8,42.1,27.8c14.8,0,28.6-10.4,38-21.5C204,312.6,218,323,233,323c19.6,0,37.2-11,46-28
		c6.5,4.8,14.3,7.4,22.5,7.4c12.8,0,24.1-3.9,31.1-17.2l0.1,0c0.2-0.4,0.4-0.9,0.6-1.3c1-2.1,1.9-4.4,2.7-6.9
		c27.9-2,50.1-22.4,50.1-50.8C386,206.9,373.6,189.9,357.1,180.3z M335.3,274.5c0.2-1.6,0.2-3.2,0.3-4.9c0-5.1-0.5-10.3-2.4-15
		c1.2,4.9,0.9,10,0.2,14.9c-0.3,1.7-0.6,3.5-1.1,5.2c-0.1,0-0.1,0-0.2,0c-4.2,12.9-16.3,22.3-30.7,22.3c-9.8,0-18.6-4.4-24.5-11.3
		c0,0,0,0,0,0.1c-1.1-1.2-2.1-2.5-3-3.9c-2.9-4.1-5.2-8.6-7.2-13.4c1.3,4.9,2.9,9.8,5.3,14.5c1.1,2.1,2.3,4.2,3.7,6.2
		c-7,16.7-23.4,28.4-42.6,28.4c-16.1,0-30.2-8.2-38.4-20.7c0,0,0,0,0.1,0c5.6-0.4,11.1-2.2,15.7-5.3c4.6-3.1,8.4-7.3,10.5-12.2
		c-3.7,3.9-7.7,7-12.2,9.3c-4.5,2.2-9.3,3.5-14.2,3.8c-4.9,0.4-9.9-0.4-14.6-2c-4.7-1.7-9.2-4.3-13.3-7.7c2.7,4.6,7,8.4,11.9,10.9
		c2.5,1.3,5.1,2.1,7.9,2.7c2.4,0.5,4.9,0.6,7.4,0.6c-7.9,12.4-21.7,20.6-37.5,20.6c-18,0-33.5-10.7-40.5-26.1
		c-6,3.1-12.9,4.9-20.2,4.9c-22.9,0-41.6-17.4-43.8-39.7l0.1,0c-0.2-5.5,0.5-11.1,2.3-16.5c1.8-5.3,4.6-10.4,8.8-14.4
		c-4.7,3.3-8.3,8.2-10.9,13.5c-1,2.1-1.8,4.2-2.5,6.4c-6.1-7.9-9.7-17.7-9.7-28.4c0-25.8,20.9-46.7,46.7-46.7c1.3,0,2.6,0.1,3.9,0.2
		c0-0.1,0-0.1,0-0.2c0-14.4,11.7-26.1,26.1-26.1c2,0,3.9,0.3,5.8,0.7c-0.1,2.2,0,4.4,0.3,6.5c0.8,6.4,2.9,12.4,5.6,17.9
		c-1.9-5.9-3-12.1-2.8-18.1c0-1.8,0.2-3.7,0.5-5.5c1-3.8,2.3-7.5,4.1-10.9c0.1-0.1,0.1-0.2,0.2-0.3l0,0
		c8.7-17.1,26.5-28.8,47.1-28.8c15.1,0,28.6,6.3,38.3,16.4c0,0,0,0,0-0.1c0.6,0.6,1.2,1.3,1.8,2c1.3,1.4,2.6,2.9,3.8,4.4
		c1.2,1.5,2.5,3,3.6,4.7c-0.7-1.8-1.7-3.6-2.6-5.3c-0.9-1.7-1.9-3.5-3-5.1c-0.6-1-1.2-2-1.9-3c5.5-6.8,13.9-11.2,23.4-11.2
		c9.5,0,18,4.5,23.5,11.4c-2.9,3.1-5.1,6.8-6.7,10.7c2.2-3.5,5-6.7,8.2-9.1c2.9-2.2,6.2-3.8,9.7-4.9c5.9-1.9,12.1-2.8,18.7-2.8
		c32.9,0,59.5,26.4,59.5,59.3c0,3.1-0.2,6.2-0.7,9.2c16.2,7.8,27.4,24.4,27.4,43.6C380.5,251.8,360.5,272.8,335.3,274.5z"/>
	<path d="M266.8,327.5c-6,4.4-13.2,6.7-20.6,7.6c-3.7,0.4-7.4,0.5-11.2,0.3c-3.7-0.1-7.4-0.7-11.1-1.6c-7.3-1.8-14.2-5.1-21.3-8.5
		c6,5,12.6,9.4,20.3,12c3.8,1.2,7.8,2.1,11.8,2.4c4,0.3,8,0.3,12-0.2c8-1,16-3.9,22.1-9.3c3.1-2.6,5.7-5.7,7.9-9
		c2.1-3.4,3.7-7,4.9-10.7c-2.1,3.3-4.2,6.5-6.6,9.4C272.6,322.8,269.8,325.3,266.8,327.5z"/>
	<path d="M407.7,226.2c0.1,5.8-0.3,11.5-1.4,17c-1.1,5.5-2.9,10.8-5.3,15.8c-2.4,5-5.5,9.6-9.1,13.8c-3.7,4.2-8,7.8-13.1,10.8
		c5.7-1.2,11.1-4.3,15.5-8.3c4.5-4,8-9,10.7-14.3c2.6-5.4,4.2-11.3,4.7-17.2C410.2,237.7,409.7,231.7,407.7,226.2z"/>
	<path d="M299.3,96.1c3.8,0.3,7.6,0.8,11.3,1.6c3.7,0.8,7.3,1.8,10.9,3.1c3.6,1.3,7.1,2.9,10.8,4.6c-5.2-6.3-12.8-10.3-20.8-12
		c-4-0.8-8.2-1.1-12.2-0.7c-4.1,0.4-8.1,1.4-11.7,3.2C291.6,95.8,295.5,95.8,299.3,96.1z"/>
</g>
</svg>
