<?xml version="1.0" encoding="utf-8"?>
<!-- Generator: Adobe Illustrator 19.2.0, SVG Export Plug-In . SVG Version: 6.00 Build 0)  -->
<svg version="1.1" id="Capa_1" xmlns="http://www.w3.org/2000/svg" xmlns:xlink="http://www.w3.org/1999/xlink" x="0px" y="0px"
	 viewBox="0 0 425.2 425.2" style="enable-background:new 0 0 425.2 425.2;" xml:space="preserve">
<g>
	<path d="M350,208.9c3.3,0.3,6.9,0.3,10.7-0.6c3.8-0.8,7.7-2.5,11.1-5.2c3.4-2.6,6.3-6.1,8.4-10c2.2-3.9,3.6-8.1,4.2-12.3
		c0.3-1.8,0.4-3.6,0.4-5.4c0-2.3-0.2-4.5-0.6-6.6c-1-5.7-3-10.5-5.1-14.6c-0.7-1.2-1.3-2.4-2-3.5c-0.8-1.3-3.1-4.1-4.5-5.8
		c0.6-1.3,1.1-2.7,1.6-4.3c0.7-2.3,1.2-5,1.2-8c0-2.9-0.4-6.2-1.6-9.4c-1.1-3.2-2.9-6.3-5.2-9.1c-2.3-2.8-5.1-5.3-8.2-7.4
		c-3.1-2.1-6.3-3.9-9.7-5.2c-3.4-1.3-6.9-2-10.2-2.1c-3.4-0.1-6.6,0.3-9.4,1.2c-2.8,0.9-5.2,2.1-7.3,3.5c-3.5,2.4-7.3,5.3-9.6,8.2
		c-0.1-0.1-0.2-0.2-0.3-0.3c-2.8-3.5-6.9-7.3-12.4-10.3c-5.4-3-12.2-4.9-19.2-5.1c-7.1-0.3-13.9,1-19.5,3.4
		c-5.7,2.3-10.2,5.5-13.5,8.5c-2.1,1.9-4.9,3.9-6.6,5.1c-3.3-2.4-7.3-5-12-7.6c-4.1-2.2-8.8-4.3-14-6.1c-5.2-1.8-11.1-3.2-17.3-3.9
		c-6.3-0.7-13-0.6-19.8,0.5c-6.8,1.1-13.7,3.3-20.3,6.5c-6.6,3.2-12.6,7.3-17.7,12c-5.1,4.7-9.2,10-12.5,15.4
		c-3.3,5.4-5.7,10.9-7.4,16.1c-1.8,5.2-3,10.3-3.7,14.8c-0.5,2.8-0.8,5.4-1,7.9c-3.3-0.1-11.2,0-16.4,1.3c-3.4,0.9-6.8,2.2-10.2,4.1
		c-3.4,1.9-6.6,4.5-9.3,7.6c-0.7,0.8-1.3,1.6-1.9,2.4c-0.6,0.8-1.2,1.6-1.7,2.4c-1,1.6-2,3.3-2.9,4.9c-1.7,3.4-3,6.8-3.8,10.2
		c-0.8,3.4-1.1,6.8-0.9,9.9c0.1,3.1,0.7,6,1.5,8.4c0.4,1.3,0.9,2.5,1.5,3.6c-0.5,0.3-1.2,0.6-2.1,1.1c-2.1,1.2-5,3.1-8.1,6.3
		c-3,3.1-6.2,7.6-7.9,13.3c-0.9,2.8-1.3,6-1.3,9.2c0,3.2,0.4,6.6,1.3,9.9c0.9,3.3,2,6.3,3.4,9.2c1.4,2.9,3,5.5,4.9,7.8
		c1.9,2.3,4,4.2,6.2,5.7c2.2,1.5,4.5,2.5,6.6,3.1c4.3,1.2,8,0.9,10.3,0.5c1.5-0.3,2.6-0.6,3.1-0.8c0.8,1.3,1.7,2.8,3,4.3
		c2.3,2.7,5.6,5.6,10,7.7c4.3,2.2,9.5,3.5,15,3.8c5.5,0.4,10.8-0.3,15.3-1.7c4.6-1.4,8.4-3.4,11.3-5.4c1.4-1,2.6-1.9,3.6-2.8
		c3.3,2.7,7.7,5.7,13.3,8.5c7.7,3.8,17.7,7,29.2,7.5c5.8,0.3,11.8-0.1,18-1.3c6.2-1.1,12.4-3,18.5-5.5c1.5-0.6,3-1.3,4.5-2
		c1.5-0.7,2.9-1.4,4.4-2.2c2.9-1.6,5.6-3.4,8.1-5.3c5-3.9,9.3-8.4,12.7-13.1c3.4-4.7,6-9.5,8.1-14.1c2.1-4.6,3.6-9.1,4.7-13.2
		c0.4-1.4,0.7-2.6,0.9-3.7c1.5,1,3.1,1.9,4.9,2.9c5.1,2.6,11.7,5.1,19.7,5.5c3.9,0.2,8.2-0.3,12.4-1.4c4.2-1.2,8.3-3.1,12.1-5.6
		c1.9-1.3,3.7-2.6,5.3-4.1c1.7-1.5,3.2-3.1,4.6-4.8c2.7-3.4,4.8-7.2,6.1-11c1.3-3.8,1.8-7.6,1.9-11c0.1-3.5-0.3-6.7-0.8-9.5
		c-0.6-2.9-1.3-5.5-2.1-7.6c2,1,4.4,1.9,7.3,2.8C343.8,207.9,346.7,208.5,350,208.9z M326.1,199.8c0.6,0.4,1.7,1.2,3.3,2.1
		c0.8,0.5,1.7,1,2.7,1.5c0.2,0.1,0.5,0.2,0.7,0.4l-0.6-0.2l-0.9-0.2c0.4,2.5,0.8,5.5,0.9,8.9c0.1,5.3-0.5,11.7-3.3,17.8
		c-1.4,3-3.2,6-5.7,8.7c-1.2,1.3-2.5,2.6-4,3.8c-1.4,1.2-3,2.4-4.6,3.5c-3.2,2.2-6.6,3.8-10,5c-3.4,1.2-6.9,1.8-10.3,2
		c-6.8,0.4-13.1-0.9-18.2-2.6c-2.1-0.7-4-1.4-5.8-2.1c0.7-3.7,0.7-5.9,1-9.1c0.1-1.2,0.1-2,0.1-2.5c0-1.4-0.4-0.4-0.4-0.4
		c0,0,0.1-1.8-0.9,2.7c-0.1,0.6-0.3,1.1-0.4,1.7c-0.9,3.6-1.9,6.2-4.5,12.8c-3,7.6-7.5,16.4-14.2,24.6c-3.4,4.1-7.4,7.9-12,11.2
		c-2.3,1.7-4.7,3.2-7.3,4.5c-1.3,0.7-2.6,1.3-4,1.9c-1.4,0.6-2.8,1.2-4.2,1.8c-11.4,4.7-22.9,7.2-33.5,7.4
		c-10.6,0.2-20.2-1.8-27.9-4.6c-7.7-2.8-13.5-6.2-17.4-8.8c-1.6-1-2.8-1.9-3.7-2.7c-1.4-1.1-2.1-1.7-2.1-1.7s1.6,2.1,5.1,5.3
		c0.2,0.2,0.5,0.4,0.7,0.6c0.5,0.4,1,0.9,1.5,1.3c-1.1,0.6-2.3,1.3-3.6,2c-3,1.5-6.8,2.9-11.1,3.9c-1.2,0.3-2.5,0.5-3.8,0.7
		c-3.3,0.4-6.8,0.6-10.4,0.3c-5.1-0.3-9.8-1.3-13.9-2.9c-4.1-1.6-7.4-3.8-9.9-6c-1.4-1.2-2.5-2.4-3.4-3.5c-0.8-0.9-1.4-1.8-1.9-2.5
		c-0.8-1.1-1.2-1.9-1.4-2.3c-0.1-0.2-0.1-0.3-0.1-0.3s0.2,1.1,1,2.9c0.3,0.7,0.7,1.6,1.3,2.5c0,0.1,0.1,0.1,0.1,0.2c0,0-0.1,0-0.1,0
		c-0.6,0.1-1.6,0.2-3,0.3c-0.3,0-0.7,0-1.1,0c-2.3,0-5.3-0.4-8.5-1.8c-3.8-1.5-7.7-4.6-10.8-9c-3.1-4.4-5.5-10-7.1-16
		c-1.6-6-1.8-12-0.6-17.2c1.2-5.2,3.6-9.6,6.1-12.8c2.5-3.3,5.1-5.6,6.9-7.1c0.7-0.6,1.4-1.1,1.9-1.4c0.7,1.5,1.5,2.9,2.3,4
		c0.7,1,1.4,1.9,2,2.6c1.9,2.1,3.1,3,3.1,3c0,0-0.2-0.2-0.5-0.7c-0.4-0.6-1-1.6-1.7-2.9c-1.2-2.4-2.6-6.1-3.2-10.7
		c-0.6-4.6-0.1-10.1,1.9-15.7c1-2.8,2.4-5.7,4-8.5c0.8-1.4,1.7-2.8,2.7-4.2c0.5-0.7,1-1.4,1.5-2.1c0.5-0.7,1-1.3,1.6-1.9
		c4.4-5,10-8.4,15.7-10.6c4.2-1.6,10.9-2.8,14.2-3.3c-0.1,1.7-0.1,3.2-0.2,4.7c0,1.9,0,3.7,0,5.2c0.2,4.9,0.6,7.7,0.6,7.9
		c0,0,0,0.1,0,0.1s0-2.8,0.5-7.9c0.5-5.1,1.6-12.4,4-21.1c2.4-8.6,6.3-18.7,12.9-28.3c3.3-4.8,7.3-9.4,12-13.5
		c4.7-4.1,10.1-7.7,16.1-10.6c6-2.9,12.2-4.9,18.3-6.1c6.1-1.2,12.2-1.5,18-1.2c11.6,0.6,22,3.7,30.3,7.1c8.3,3.4,14.7,7.1,19,9.8
		c3.5,2.2,5.6,3.8,6.3,4.3c0.2,0.1,0.3,0.2,0.3,0.2c0,0-1.9-2.1-5.8-5.5c-0.2-0.1-0.4-0.3-0.6-0.5c-0.9-0.7-1.9-1.5-2.9-2.4
		c1.5-1,4-2.7,6.3-4c3.6-2.1,8.2-4.1,13.4-5.5c5.2-1.4,11-2.1,17.2-1.8c6.1,0.2,11.9,1.4,16.8,3.3c5,1.9,9.1,4.6,12.4,7.2
		c3.3,2.6,5.7,5.1,7.2,7c0.9,1.1,1.5,1.9,1.9,2.4c0.3,0.4,0.4,0.6,0.4,0.6c0,0,0-0.1-0.1-0.2c0,0,0-0.1,0-0.2
		c-0.2-0.5-0.5-1.7-1.2-3.2c-0.5-1.1-1.1-2.4-2-3.9c-0.6-1.1-1.4-2.3-2.3-3.5c0,0,0,0,0,0c0,0,0,0,0.1-0.1c2.5-1.8,6.9-4.7,10.3-6.1
		c4-1.6,9-2.5,14.3-1.7c5.3,0.8,10.8,3.4,16.2,7.1c5.3,3.7,9.5,8,11.8,12.8c2.4,4.8,2.9,9.9,2.6,14.2c-0.3,4.3-1.4,7.9-2.2,10.3
		c-0.7,1.9-1.2,3.1-1.4,3.5c0,0.1-0.1,0.2-0.1,0.2c0,0,1-0.9,2.4-2.9c0.1-0.1,0.1-0.2,0.2-0.2c0.6-0.9,1.3-2,2-3.3
		c0.8,1.6,1.9,3.9,2.4,5c1.9,4.8,3.7,10.6,4.2,17.1c0.2,3.2,0.1,6.6-0.6,9.9c-0.7,3.3-1.9,6.6-3.7,9.8c-1.8,3.2-3.9,5.9-6.4,8.1
		c-2.5,2.2-5.3,3.7-8.3,4.7c-5.9,2-12.1,1.8-17.1,1.3c-5.1-0.6-9.2-1.7-12-2.5c-1.6-0.5-2.7-0.9-3.5-1.1c-0.6-0.2-0.9-0.3-0.9-0.3
		S325.7,199.5,326.1,199.8z"/>
	<path d="M135,105.1c13.1-10.3,30.9-11.9,30.9-11.9s-19.6-2-33.5,9c-13.9,10.9-14.5,29.8-14.5,29.8S121.4,115.8,135,105.1z"/>
	<path d="M236,311.5c-14.9,7.4-31.3,7-31.3,7s18.8,6,34.7-1.9c15.9-7.8,20.3-26.2,20.3-26.2S251.5,303.8,236,311.5z"/>
	<path d="M373.5,100.5c9.8,9,11.3,24.8,11.3,24.8s2.8-18.1-7.7-27.7C366.7,88,348,92.3,348,92.3S363.3,91.1,373.5,100.5z"/>
	<path d="M44.2,274.5c-6.1-13.4-0.6-25.2-0.6-25.2s-8.1,13.3-2.9,25.5c5.2,12.1,19.1,15.9,19.1,15.9S50.3,288,44.2,274.5z"/>
	<path d="M39.6,133.5c1.9-0.2,3.5-0.7,5-1.3c2.6-1,4.6-2.1,6.1-3c0.2-0.1,0.4-0.3,0.6-0.4c0.1,0.2,0.2,0.3,0.3,0.5
		c0.5,0.8,1.4,2,2.9,3.1c1.5,1,3.6,1.8,6.1,1.9c1.2,0.1,2.5,0,3.8-0.3c1.3-0.3,2.6-0.6,3.9-1.2c1.3-0.6,2.5-1.5,3.4-2.6
		c0.9-1.1,1.4-2.3,1.7-3.5c0.6-2.4,0.3-4.6,0-6.3c-0.1-0.5-0.2-0.9-0.3-1.3c1.2,0.9,2.7,1.8,4.7,2.4c1,0.3,2.1,0.4,3.2,0.2
		c1.1-0.1,2.3-0.5,3.3-1.2c1-0.6,1.9-1.4,2.6-2.4c0.7-0.9,1.1-2,1.3-3.1c0.3-2.1-0.2-3.9-0.8-5.3c-0.2-0.5-0.5-1-0.7-1.5
		c0.5-0.3,1.1-0.6,1.7-1c1.5-1,3.2-2.5,4-4.9c0.4-1.2,0.6-2.5,0.4-3.9c-0.1-1.3-0.6-2.7-1.2-3.9c-0.6-1.2-1.4-2.4-2.3-3.4
		c-1-0.9-2.2-1.7-3.4-2c-1.2-0.3-2.4-0.3-3.5-0.1c-1.1,0.2-2,0.6-2.8,0.9c-0.6,0.3-1.2,0.6-1.7,1c-0.1-0.4-0.1-0.7-0.2-1.2
		c-0.3-1.4-0.9-3-2.2-4.5C74,84.1,71.8,83,69.4,83c-1.2,0-2.3,0.4-3.3,1c-0.9,0.6-1.7,1.3-2.3,2c-1.1,1.4-1.9,2.8-2.4,4
		c-1.4-0.9-3.1-1.7-5.2-2.1c-2.4-0.4-5.3,0-7.8,1.5c-1.2,0.7-2.3,1.6-3.2,2.7c-0.9,1-1.5,2.2-1.9,3.3c-0.7,1.7-0.9,3.4-1,4.9
		c-0.6-0.1-1.3-0.2-2-0.3c-0.8-0.1-1.7-0.1-2.7-0.1c-0.4,0-0.9,0.1-1.3,0.1c-1.4,0.2-2.8,0.6-4.2,1.3c-1.9,1-3.5,2.7-4.6,4.7
		c-1.1,2-2.1,4.2-2.7,6.6c-0.6,2.4-0.9,5.1-0.5,7.7c0.3,2.7,1.3,5.2,2.8,7.3c1.5,2.1,3.4,3.7,5.5,4.8c2.2,1.1,4.5,1.2,6.5,1.1
		C39.3,133.5,39.4,133.5,39.6,133.5z M33.2,131.3c-1.8-1-3.6-2.6-4.9-4.4c-1.3-1.9-2.2-4.2-2.5-6.6c-0.6-4.9,0.8-9.7,2.8-13.5
		c0.9-1.9,2.3-3.4,3.9-4.4c1.6-1,3.4-1.4,5-1.6c1.7-0.2,3.3-0.1,4.6,0.1c0,0.3,0,0.6,0,0.9c0.1,3.6,0.8,5.7,0.8,5.7
		c0,0-0.4-2.2,0-5.7c0.2-1.7,0.6-3.8,1.5-5.8c0.9-2,2.5-3.9,4.7-5.2c2.2-1.3,4.6-1.8,6.8-1.5c2.2,0.2,4.1,1,5.6,1.8
		c3,1.7,4.6,3.3,4.6,3.3c0,0-1.2-1.9-4.1-3.9c0.7-1.1,1.5-2.4,2.7-3.5c1.2-1.2,2.8-2.3,4.6-2.3c0.9,0,1.8,0.2,2.7,0.5
		c0.8,0.3,1.5,0.8,2.1,1.4c1.2,1.2,1.9,2.6,2.4,3.8c1,2.5,1.1,4.3,1.1,4.3c0,0,0.1-1-0.1-2.7c0.6-0.3,1.2-0.5,1.9-0.8
		c1.6-0.5,3.6-1,5.6-0.3c1,0.3,1.9,0.9,2.7,1.7c0.8,0.8,1.4,1.9,2,3c1.1,2.3,1.5,4.7,0.9,6.7c-0.6,2-2,3.6-3.2,4.7
		c-1.3,1.1-2.5,1.8-3.4,2.3c-0.9,0.5-1.4,0.7-1.4,0.7s0.5-0.1,1.5-0.4c0.4-0.2,1-0.4,1.6-0.6l0,0c0.2,0.4,0.3,0.9,0.5,1.5
		c0.4,1.4,0.6,3,0.2,4.7c-0.4,1.7-1.6,3.3-3.4,4.3c-1.7,1.1-3.7,1.3-5.4,1c-1.8-0.3-3.3-1-4.5-1.7c-0.4-0.3-0.8-0.5-1.2-0.7
		c0,0-0.1,0-0.1-0.1c-1.6-1.1-2.5-1.9-2.5-1.9c0,0,0.8,1.2,2.6,2.8c0.1,0.6,0.2,1.3,0.3,2c0.1,1.7,0.2,3.8-0.5,5.9
		c-0.3,1-0.8,2.1-1.6,2.9c-0.7,0.9-1.7,1.6-2.8,2.1c-1.1,0.5-2.4,0.8-3.5,1.1c-1.2,0.3-2.3,0.4-3.4,0.4c-2.2,0.1-4.2-0.5-5.7-1.3
		c-1.5-0.8-2.5-1.8-3.1-2.5c-0.1-0.2-0.3-0.3-0.4-0.5c0.1-0.1,0.2-0.1,0.3-0.2c1.6-1.1,2.4-1.7,2.4-1.7s-0.9,0.6-2.5,1.5
		c-0.1,0.1-0.2,0.1-0.3,0.2c-0.2-0.3-0.3-0.5-0.3-0.5s0.1,0.2,0.3,0.6c-1.6,0.9-3.9,2-6.8,2.9c-1.6,0.5-3.4,0.9-5.3,1
		C37.1,132.6,35.1,132.3,33.2,131.3z"/>
	<path d="M64.9,135.7c0,0,7.6,6.4,11.4,12.8c3.8,6.4,7.3,17.8,7.3,17.8s-2-12.4-6.4-19.4C72.8,140,64.9,135.7,64.9,135.7z"/>
	<path d="M95.2,158c0,0-4.9-5.8-11.7-13.8c-6.9-8.1-11.9-12.3-11.9-12.3s5.4,6.9,10.5,13.2C87.2,151.3,95.2,158,95.2,158z"/>
	<path d="M103,148.8c0,0-8.3-1.5-14.8-8.1c-6.5-6.6-7.5-15.3-7.5-15.3s-0.4,9.2,5.8,16.6C92.7,149.3,103,148.8,103,148.8z"/>
	<path d="M127.8,332.9c0,0,10.4-3.3,15.2-12.9c3.9-7.8,4.2-18.1,4.2-18.1s-1.9,8.1-6.8,17.3C135.4,328.6,127.8,332.9,127.8,332.9z"
		/>
	<path d="M159.1,307.9c0,0-5.7,8.6-7,17.2c-1.6,10.6,5,19.3,5,19.3s-3.8-7.9-2.5-18.3C156,315.6,159.1,307.9,159.1,307.9z"/>
	<path d="M144.8,337.3c0,0,1.1-5.5,3.9-16.2c2.8-10.6,3.7-14.4,3.7-14.4s-3,3.8-5.4,14C144.5,330.9,144.8,337.3,144.8,337.3z"/>
	<path d="M165.6,363.4c-1.2-1.5-2.4-2.5-3.3-3c-0.6-0.4-1-0.6-1.3-0.7c0-0.3,0.1-0.6,0.1-0.9c0.2-1.6,0.2-3.5-0.5-5.6
		c-0.3-1-0.9-2.1-1.6-3c-0.8-0.9-1.8-1.7-2.9-2.3c-2.2-1.2-4.6-1.6-6.8-1.4c-2.2,0.2-4,1.1-5.2,2c-1.3,0.9-2.1,1.9-2.6,2.6
		c-0.3,0.4-0.5,0.8-0.6,0.9c0-0.6,0-1.2,0-1.9c-0.1-1.5-0.2-3.4-0.8-5.3c-0.6-2-1.6-4.1-3.4-5.9c-0.9-0.9-1.9-1.6-2.9-2.1
		c-1-0.5-2.1-0.8-3.2-1c-2.1-0.3-4.1,0.2-5.4,1.2c-0.1,0.1-0.2,0.1-0.3,0.2c-0.1,0-0.1,0.1-0.2,0.1c-0.4,0.4-0.8,0.7-1.1,1.1
		c-0.4-0.4-0.8-0.9-1.3-1.4c-0.6-0.6-1.4-1.1-2.4-1.5c-1-0.4-2.1-0.6-3.3-0.6c-1.2,0-2.4,0.4-3.6,0.9c-1.1,0.5-2.2,1.2-3.2,2.2
		c-1,0.9-1.8,2-2.3,3.2c-0.5,1.2-0.8,2.4-0.8,3.6c-0.1,2.3,0.6,4.3,1.2,5.9c0,0.1,0.1,0.2,0.1,0.3c-0.2,0.2-0.5,0.5-0.8,0.8
		c-0.8,0.9-1.8,2.2-2.7,4.1c-0.9,1.9-1.5,4.5-0.8,7.4c0.6,2.9,2.6,5.5,5.1,7.6c2.6,2.1,5.8,3,8.7,3c0.9,0,1.8-0.1,2.7-0.2
		c0.6-0.1,1.2-0.2,1.8-0.4c0.7-0.2,1.4-0.4,2.1-0.7c0,0.2,0.1,0.4,0.1,0.6c0.4,1.7,1.1,3.7,2.4,5.7c1.3,2,3.4,3.8,5.9,4.8
		c2.5,1.1,5.1,1.5,7.5,1.4c2.4-0.1,4.4-0.9,5.9-1.9c1.4-0.9,2.3-1.8,2.8-2.6c0.2,0.2,0.5,0.5,1.1,0.9c0.9,0.6,2.1,1.4,3.9,2.1
		c0.9,0.3,1.9,0.6,3.1,0.7c1.1,0.1,2.4,0,3.7-0.5c1.3-0.5,2.4-1.3,3.4-2.4c1-1.1,1.7-2.4,2.3-3.7c1.2-2.7,1.8-5.5,1.6-8.1
		C167.8,367.2,166.8,365,165.6,363.4z M164.9,377.2c-1.1,2.5-2.7,4.6-4.7,5.5c-2.1,0.9-4.3,0.7-6,0.3c-1.8-0.4-3.1-1.1-4-1.6
		c-0.6-0.3-1.1-0.6-1.3-0.7c0-0.1,0.1-0.1,0.2-0.2c0.6-0.8,0.8-1.3,0.8-1.3s-0.3,0.4-1,1.1c-0.7,0.7-1.7,1.6-3.2,2.3
		c-1.5,0.7-3.4,1.3-5.6,1.2c-2.1,0-4.5-0.5-6.8-1.5c-2.3-1-4.1-2.5-5.5-4.2c-1.3-1.7-2.2-3.5-2.7-5.1c-0.1-0.2-0.1-0.4-0.2-0.6
		c3.8-1.7,5.7-3.4,5.7-3.4c0,0-2.2,1.4-6,2.7c-1.9,0.6-4.3,1.1-6.9,1c-2.6-0.1-5.4-1-7.7-2.9c-2.3-1.9-4.1-4.2-4.8-6.7
		c-0.7-2.5-0.4-4.9,0.3-6.8c0.6-1.9,1.5-3.3,2.2-4.3c0.3-0.4,0.5-0.7,0.6-0.9c1.3,2.8,2.6,4.2,2.6,4.2c0,0-1.1-1.8-2-4.9
		c-0.4-1.5-0.8-3.5-0.6-5.5c0.2-2,1.1-4.1,2.8-5.7c1.7-1.6,3.8-2.7,5.8-2.9c2-0.2,3.8,0.5,5.1,1.4c1.3,0.9,2.2,1.9,2.8,2.6
		c0.6,0.7,0.9,1.1,0.9,1.1s-0.2-0.5-0.7-1.3c-0.2-0.4-0.5-0.8-0.9-1.3c0.5-0.4,1-0.8,1.7-1.2c1.3-0.7,3-0.9,4.8-0.5
		c1.8,0.4,3.7,1.3,5.2,2.8c1.5,1.5,2.5,3.4,3.2,5.1c0.7,1.8,1.1,3.5,1.3,5c0.5,2.9,0.5,4.8,0.5,4.8c0,0,0.2-1.1,0.3-2.9
		c0.1-0.2,0.4-0.4,0.8-0.9c0.6-0.6,1.6-1.4,2.9-2.1c1.3-0.7,3-1.3,4.9-1.3c1.9,0,4,0.5,6,1.5c1.9,1,3.3,2.6,4,4.4
		c0.7,1.8,0.9,3.6,0.9,5.1c0,3-0.5,4.9-0.5,4.9c0,0,0.7-1.4,1.1-3.9c0.2,0.1,0.6,0.4,1.1,0.8c0.8,0.7,1.9,1.7,2.8,3.3
		c0.9,1.5,1.6,3.6,1.6,5.9C166.6,372.2,166,374.7,164.9,377.2z"/>
	<path d="M305.1,63.5c2.3,1.5,4.7,1.9,6.6,2c0.7,0,1.3,0.1,1.9,0.1c0.1,0.4,0.2,0.8,0.3,1.2c0.4,1.1,1,2.3,2.1,3.4
		c1.1,1.1,2.6,2.1,4.3,2.5c1.8,0.4,3.6,0.2,5-0.3c1.4-0.5,2.6-1.3,3.4-2c0.2-0.2,0.5-0.5,0.7-0.6c0.8,0.2,1.7,0.5,2.8,0.7
		c1.9,0.4,4.2,0.7,6.8,0.2c1.3-0.3,2.7-0.8,3.8-1.8c1.2-0.9,2.1-2.3,2.6-3.8c0.5-1.5,0.6-3,0.6-4.4c0-1.4-0.4-2.9-1.1-4.1
		c-0.7-1.2-1.8-2.1-2.8-2.6c-1.1-0.5-2.1-0.8-3.1-0.9c-1.4-0.2-2.6-0.1-3.5,0c0-0.3,0.1-0.6,0.1-1c0-1.7-0.1-3.9-1-6.1
		c-0.5-1.1-1.2-2.2-2.2-3.1c-1-0.9-2.3-1.6-3.6-1.9c-1.3-0.4-2.7-0.6-4-0.5c-1.3,0.1-2.6,0.4-3.7,1c-2.2,1.2-3.5,3-4.3,4.5
		c-0.5,0.9-0.8,1.7-1,2.5c-1-0.3-2.4-0.7-4.1-0.9c-1-0.1-2-0.2-3.2-0.1c-1.2,0.1-2.4,0.3-3.7,1c-1.2,0.6-2.4,1.8-2.9,3.2
		c-0.3,0.7-0.5,1.5-0.6,2.2c-0.1,0.7-0.2,1.5-0.1,2.3c0,1.5,0.4,3.1,1.1,4.4C302.9,61.8,304,62.8,305.1,63.5z M303.2,52.1
		c0.4-1.1,1.2-2,2.2-2.6c1-0.6,2.1-0.9,3.1-1.1c1.1-0.2,2.1-0.2,3-0.2c1.7,0.1,3,0.3,4,0.4c-0.1,0.4-0.2,0.8-0.3,1.1
		c-0.2,0.9-0.3,1.5-0.3,1.5s0.1-0.5,0.5-1.4c0.4-0.9,0.9-2.1,1.9-3.5c0.9-1.4,2.3-2.9,4.2-3.7c1.9-0.9,4.3-0.9,6.7-0.2
		c1.2,0.3,2.2,0.8,3.1,1.6c0.9,0.7,1.5,1.6,2,2.5c1,1.9,1.3,3.9,1.4,5.6c0.2,3.4-0.1,5.5-0.1,5.5c0,0,0.5-1.5,0.8-4c0,0,0-0.1,0-0.1
		c0.1,0,0.2,0,0.3,0c0.9,0,1.9,0.1,3.1,0.4c1.8,0.4,3.9,1.4,4.9,3.4c0.5,1,0.7,2.2,0.7,3.5c0,1.3-0.2,2.6-0.6,3.9
		c-0.4,1.3-1.1,2.3-2,3.1c-0.9,0.8-2,1.3-3.2,1.6c-2.3,0.6-4.5,0.5-6.4,0.4c-3.7-0.4-6-1.1-6-1.1c0,0,0.8,0.4,2.3,0.9
		c-0.1,0.1-0.3,0.2-0.4,0.2c-1.8,1-4.7,2.1-7.6,1.4c-1.5-0.3-2.8-1-3.8-1.9c-1-0.9-1.7-1.9-2.3-2.8c-0.2-0.3-0.3-0.6-0.4-0.9
		c2.4,0,3.7-0.4,3.7-0.4c0,0-2.4,0.2-6.1-0.5c-1.8-0.4-4-1-5.9-2.4c-0.9-0.7-1.8-1.6-2.3-2.7c-0.5-1.1-0.8-2.4-0.8-3.8
		C302.7,54.6,302.8,53.2,303.2,52.1z"/>
	<path d="M301.3,90.4c0,0,4.6-1,8.4-6.9c3.8-5.9,2.9-12.1,2.9-12.1s-1.3,5.9-4.2,10.8C305.5,87.1,301.3,90.4,301.3,90.4z"/>
	<path d="M320.6,86.4c0.2,7,3.7,10.2,3.7,10.2s-1.9-5-1.9-10.7c0-5.7,1.9-11.5,1.9-11.5S320.4,79.4,320.6,86.4z"/>
	<path d="M315.1,92.2c0,0,0.7-5.5,1.2-9.4l1.3-8.8c0,0-2.2,4.7-2.6,8.5C314.6,86.2,315.1,92.2,315.1,92.2z"/>
	<path d="M402.4,250.6c-0.3-2.5-1.6-4.3-2.8-5.6c-0.7-0.8-1.4-1.3-2-1.8c0.6-0.8,1.5-2,2.3-3.5c0.5-0.9,0.9-1.8,1.2-3
		c0.3-1.1,0.5-2.4,0.3-3.8c-0.2-1.4-0.9-2.8-2.1-3.8c-0.6-0.5-1.2-0.9-1.9-1.3c-0.7-0.3-1.3-0.7-2.1-0.9c-1.5-0.5-3-0.7-4.5-0.5
		c-1.5,0.2-2.9,0.9-3.9,1.7c-2.2,1.7-3.3,3.8-4.2,5.5c-0.3,0.6-0.5,1.2-0.7,1.7c-0.4,0-0.8-0.1-1.2-0.1c-1.1,0-2.5,0.1-3.9,0.8
		c-1.4,0.6-2.8,1.7-3.8,3.2c-1,1.5-1.4,3.3-1.4,4.8c0,1.5,0.3,2.9,0.7,3.9c0.1,0.3,0.3,0.6,0.4,0.9c-0.5,0.7-1.1,1.4-1.6,2.4
		c-1,1.6-2.1,3.7-2.5,6.4c-0.2,1.3-0.2,2.8,0.3,4.2c0.5,1.4,1.5,2.7,2.7,3.7c1.2,1,2.6,1.6,4,2.1c1.4,0.4,2.9,0.6,4.2,0.4
		c1.4-0.2,2.6-0.9,3.4-1.8c0.9-0.8,1.5-1.7,1.9-2.6c0.6-1.2,1-2.4,1.2-3.3c0.3,0.1,0.6,0.3,0.9,0.4c1.6,0.6,3.7,1.3,6.1,1.1
		c1.2-0.1,2.5-0.4,3.7-1c1.2-0.6,2.3-1.6,3.1-2.8c0.8-1.1,1.5-2.3,1.8-3.6C402.5,253.2,402.6,251.8,402.4,250.6z M399,257.1
		c-0.7,1-1.5,1.8-2.5,2.4c-1,0.6-2,0.9-3.1,1c-2.1,0.3-4.1-0.1-5.7-0.6c-3.3-0.9-5.1-2-5.1-2c0,0,1.2,1,3.5,2.1c0,0,0,0,0.1,0
		c0,0.1-0.1,0.2-0.1,0.3c-0.3,0.8-0.8,1.8-1.5,2.8c-1,1.5-2.6,3.2-4.9,3.4c-1.1,0.1-2.3,0-3.5-0.5c-1.2-0.4-2.4-1.1-3.5-1.9
		c-1-0.8-1.8-1.8-2.3-3c-0.4-1.1-0.5-2.4-0.4-3.5c0.2-2.4,1.1-4.5,1.8-6.1c1.6-3.4,3.1-5.2,3.1-5.3c0,0-0.7,0.6-1.7,1.8
		c0-0.1-0.1-0.3-0.1-0.4c-0.3-2.1-0.4-5.1,1.3-7.6c0.8-1.3,1.9-2.3,3.1-2.9c1.2-0.7,2.4-1,3.4-1.2c0.3-0.1,0.7-0.1,1-0.1
		c-0.8,2.2-0.9,3.7-0.9,3.6c0,0,0.6-2.3,2.5-5.6c1-1.6,2.3-3.5,4.2-4.8c1-0.7,2.1-1.1,3.3-1.2c1.2-0.1,2.5,0,3.8,0.5
		c1.3,0.5,2.6,1,3.5,1.8c0.9,0.8,1.5,1.8,1.7,2.9c0.2,1.1,0.1,2.3-0.1,3.3c-0.2,1.1-0.5,2-0.9,2.9c-0.6,1.5-1.3,2.8-1.8,3.7
		c-0.3-0.3-0.7-0.5-0.9-0.7c-0.8-0.5-1.3-0.8-1.3-0.8s0.4,0.3,1.1,0.9c0.7,0.6,1.7,1.6,2.7,3c1,1.3,1.9,3.1,2.1,5.2
		C401.3,252.9,400.5,255.1,399,257.1z"/>
	<path d="M368.3,224.9c-3.6-4.4-5.3-9.5-5.3-9.5s-0.6,4.7,3.7,10.2c4.3,5.5,10.4,6.8,10.4,6.8S372,229.2,368.3,224.9z"/>
	<path d="M360.2,235c-6.7-2.2-10.9,0-10.9,0s5.4-0.1,10.7,1.9c5.4,2,10.1,5.7,10.1,5.7S366.9,237.2,360.2,235z"/>
	<path d="M356.7,227.8c0,0,5,2.5,8.5,4.3l7.8,4.2c0,0-3.7-3.6-7.1-5.3C362.5,229.3,356.7,227.8,356.7,227.8z"/>
</g>
</svg>
