<?xml version="1.0" encoding="utf-8"?>
<!-- Generator: Adobe Illustrator 19.2.0, SVG Export Plug-In . SVG Version: 6.00 Build 0)  -->
<svg version="1.1" id="Capa_1" xmlns="http://www.w3.org/2000/svg" xmlns:xlink="http://www.w3.org/1999/xlink" x="0px" y="0px"
	 viewBox="0 0 425.2 425.2" style="enable-background:new 0 0 425.2 425.2;" xml:space="preserve">
<path d="M396.2,85c-3.3-8.4-7.9-19.4-15.5-24.9c-5.2-3.8-12-4.7-18.1-5.4c-20.9-2.3-42.8,1.5-63.3,4.7c-26,4.1-51.8,9.8-77.4,15.9
	c-4.4,1-8.7,2.1-13.1,3.1c-50,12.1-99.9,25.8-148.6,42.3c-6.7,2.3-13.8,4.4-20,7.9c-11.8,6.7-17.1,19.3-18.7,32.2
	c-4.5,35.7,12.2,71.2,11.8,106.9c-1.1,32.7-8.6,65.9-19.1,96.8c-0.8,2.3,0.6,3.7,2.4,3.7c0.3,3.8,5.1,5,8.5,2.1
	c24.3-21.5,39.2-51.7,66.2-70.5c10.7-7.5,21.9-8.7,34.4-9.1c10.9-0.4,21.7-0.9,32.6-1.4c60.9-3.2,122.6-7.2,182.6-18.6
	c18.3-3.5,42.3-6.8,54.4-22.7c15.6-20.5,16.7-51.1,16.4-75.7C411,142.9,406.8,112.6,396.2,85z M394.6,210.8
	c-1.7,11.2-4.7,23.6-12,32.6c-5.3,6.5-14.8,8.7-22.5,10.9c-2.9,0.8-5.9,1.6-8.8,2.3c-24.2,6-49.3,8.8-73.9,11.6
	c-53.8,6.1-108.2,10.2-162.4,11.3c-2.6,0.1-5.2,0.3-7.7,0.8c-18.2,3.3-33.4,16.2-46,29.2c-9.2,9.5-17.1,20.3-25.5,30.7
	c-2.9,3.6-5.8,7.1-8.8,10.5c-0.9,1-1.8,1.9-2.7,2.9c8-25.7,13.8-52.7,15.5-79.4c0.2-2.8,0.3-5.6,0.4-8.3c0-0.9,0-1.8,0-2.8
	c-0.4-33.9-13.8-66.7-12.1-100.6c0.7-13.1,5.6-24,17.7-29.4c0.5-0.2,1.1-0.5,1.7-0.7c6.8-2.6,13.7-4.8,20.6-7.1
	c51.2-16.7,103.4-31,155.9-43.2c27.6-6.4,55.4-12.3,83.5-16.1c17.5-2.3,38-5.7,55.4-0.7c4.4,1.3,7.5,4,10,7.3
	c1.8,2.4,3.4,5.2,4.8,7.9c6.4,11.9,10,25.2,12.8,38.2C397.2,148.6,399.3,180.5,394.6,210.8z"/>
</svg>
